<?xml version="1.0" encoding="UTF-8"?>
<svg id="Layer_1" data-name="Layer 1" xmlns="http://www.w3.org/2000/svg" viewBox="0 0 122.39 400">
  <path d="M43.37,9.68c-.31-3.68,1.7-7.32,5.27-8.91,4.5-2,9.77,.03,11.77,4.53,10.95,26.49,21.73,53.07,32.1,79.83,10.37,26.78,20.32,53.69,29.61,80.83,.86,2.32-.32,4.9-2.64,5.76-2.32,.86-4.9-.32-5.76-2.64-10.62-26.49-21.89-52.71-33.57-78.79-5.95-13.27-12-26.49-18.12-39.67,.81,66.64,1.85,133.2,1.91,199.77,.04,48.39-.43,96.78-1.9,145.22-.04,2.47-2.09,4.44-4.56,4.4-2.47-.04-4.44-2.09-4.4-4.56,.28-48.35-.43-96.62-1.65-144.89-1.65-64.98-4.23-129.92-6.62-194.94-2.5,8.56-5.04,17.09-7.62,25.62-9.16,30.26-18.73,60.32-28.39,90.63-.68,2.38-3.17,3.75-5.55,3.07-2.38-.68-3.75-3.17-3.07-5.55,7.93-30.75,15.79-61.23,23.22-91.9,4.94-20.39,9.67-40.82,14.11-61.44,.76-3.1,3.05-5.42,5.87-6.35h0Z" style="fill: #010101; fill-rule: evenodd;"/>
</svg>