<?xml version="1.0" encoding="UTF-8"?><svg id="a" xmlns="http://www.w3.org/2000/svg" viewBox="0 0 63.08 62.96"><defs><style>.b{fill:#010101;}.c{fill:#fff;}.d{fill:#ba8760;}.e{opacity:.13;}</style></defs><path class="b" d="M26.75,39.44c-.09,0-.18-.02-.26-.08l-10.98-6.86c-4.08-2.55-8.31-5.2-11.44-8.97C.53,19.26-.81,14.15,.48,9.86c.7-2.32,2.17-4.24,4.02-5.26,4.25-2.35,9.69,.06,12.65,3.52,.18,.21,.15,.52-.05,.7-.21,.18-.52,.15-.7-.05-2.71-3.16-7.63-5.39-11.41-3.3-1.63,.9-2.92,2.61-3.55,4.68-1.2,3.97,.07,8.73,3.39,12.74,3.03,3.66,7.19,6.25,11.2,8.77l10.98,6.87c.23,.15,.3,.45,.16,.69-.09,.15-.26,.23-.42,.23Z"/><path class="b" d="M36.33,39.44c-.17,0-.33-.08-.42-.23-.15-.23-.07-.54,.16-.69l10.98-6.87c4.02-2.51,8.17-5.11,11.2-8.77,3.32-4.01,4.59-8.77,3.39-12.74-.63-2.07-1.92-3.78-3.55-4.68-3.79-2.1-8.71,.14-11.41,3.3-.18,.21-.49,.23-.7,.05-.21-.18-.23-.49-.05-.7,2.96-3.46,8.41-5.87,12.65-3.52,1.86,1.03,3.32,2.95,4.02,5.26,1.29,4.29-.04,9.4-3.58,13.66-3.14,3.78-7.36,6.42-11.44,8.97l-10.98,6.86c-.08,.05-.17,.08-.26,.08Z"/><g><path class="c" d="M27.08,35.77c1.95,4.48,2.38,9.56,1.21,14.29s-3.92,9.07-7.74,12.22c0,0,22.68,.45,22.34-.08-1.93-1.79-3.31-4.06-4.66-6.29-.94-1.55-1.89-3.13-2.4-4.86-.5-1.67-.57-3.43-.57-5.16,0-3.33,.29-6.67,.85-9.96l-9.02-.15Z"/><path class="b" d="M36.36,62.96c-1.31,0-2.87,0-4.74-.02-5.49-.05-11.01-.16-11.07-.16-.21,0-.39-.14-.46-.33-.07-.2,0-.42,.15-.55,3.75-3.08,6.44-7.33,7.57-11.95,1.14-4.63,.72-9.59-1.19-13.97-.07-.16-.05-.33,.04-.48,.09-.14,.25-.22,.42-.22l9.02,.15c.15,0,.28,.07,.37,.18,.09,.11,.13,.26,.11,.4-.55,3.26-.84,6.58-.84,9.88,0,1.64,.06,3.38,.55,5.02,.5,1.68,1.44,3.24,2.35,4.75,1.31,2.18,2.67,4.43,4.57,6.19,.03,.03,.06,.06,.08,.1,.1,.15,.1,.37,.01,.53-.17,.3-.28,.5-6.97,.5Zm-14.5-1.15c7.07,.13,17.01,.23,20,.07-1.64-1.72-2.86-3.74-4.05-5.71-.94-1.56-1.92-3.17-2.45-4.98-.52-1.76-.59-3.59-.59-5.31,0-3.16,.26-6.34,.76-9.47l-7.69-.13c1.74,4.4,2.08,9.31,.95,13.9-1.09,4.42-3.53,8.5-6.92,11.63Z"/></g><g><path class="c" d="M14,.5c-.21,54.33,35.45,54.51,35.45,.17L14,.5Z"/><path class="b" d="M31.69,41.84c-1.71,0-3.43-.48-5.09-1.45-3.8-2.21-7.02-6.77-9.31-13.19-2.56-7.16-3.83-16.15-3.79-26.7,0-.13,.05-.26,.15-.35,.09-.09,.23-.16,.35-.14L49.45,.17c.27,0,.5,.22,.5,.5,0,10.53-1.3,19.49-3.88,26.63-2.31,6.4-5.53,10.93-9.33,13.12-1.65,.95-3.35,1.43-5.05,1.43ZM14.5,1c0,23,6.5,34.98,12.6,38.53,2.99,1.74,6.15,1.74,9.14,.02,6.1-3.51,12.61-15.44,12.71-38.39l-34.45-.17Z"/></g><g><polygon class="d" points="25.93 17.57 30.05 12.24 34.3 12.34 35.07 25.33 29.57 25.24 29.71 16.32 25.93 17.57"/><path class="b" d="M35.07,25.83h0l-5.5-.09c-.28,0-.49-.23-.49-.51l.13-8.22-3.11,1.03c-.21,.07-.44,0-.56-.18-.13-.18-.12-.42,.01-.59l4.12-5.34c.1-.13,.25-.19,.41-.19l4.25,.1c.26,0,.47,.21,.49,.47l.77,12.99c0,.14-.04,.27-.14,.37-.09,.1-.22,.15-.36,.15Zm-5-1.08l4.47,.07-.71-12-3.54-.09-2.97,3.85,2.23-.74c.15-.05,.32-.02,.45,.07,.13,.1,.21,.25,.2,.41l-.13,8.42Z"/></g><g><rect class="c" x="14" y=".5" width="35.34" height="5.37"/><path class="b" d="M49.34,6.37H14c-.28,0-.5-.22-.5-.5V.5C13.5,.22,13.73,0,14,0H49.34c.28,0,.5,.22,.5,.5V5.87c0,.28-.22,.5-.5,.5Zm-34.84-1H48.84V1H14.5V5.37Z"/></g><path class="b" d="M15.33,4.64s-.09-.02-.12-.05c-.06-.07-.06-.17,0-.23l2.85-2.77c.07-.06,.17-.06,.23,0,.06,.07,.06,.17,0,.23l-2.85,2.77s-.07,.05-.12,.05Z"/><path class="b" d="M18.61,4.43s-.09-.02-.12-.06c-.06-.07-.05-.17,.01-.23l2.98-2.64c.07-.06,.17-.06,.23,.01,.06,.07,.05,.17-.01,.23l-2.98,2.64s-.07,.04-.11,.04Z"/><path class="b" d="M22.16,4.52s-.08-.01-.11-.05c-.07-.06-.07-.17,0-.23,.86-.92,1.77-1.81,2.71-2.66,.07-.06,.17-.06,.23,.01,.06,.07,.06,.17-.01,.23-.93,.84-1.84,1.73-2.69,2.64-.03,.03-.08,.05-.12,.05Z"/><path class="b" d="M25.6,4.5s-.07-.01-.11-.04c-.07-.06-.08-.16-.02-.23,.77-.92,1.61-1.8,2.51-2.61,.07-.06,.17-.06,.23,.01,.06,.07,.06,.17-.01,.23-.88,.8-1.72,1.66-2.47,2.57-.03,.04-.08,.06-.13,.06Z"/><path class="b" d="M28.49,4.7s-.08-.02-.11-.05c-.07-.06-.07-.17,0-.23,.92-.97,1.88-1.93,2.84-2.86,.07-.06,.17-.06,.23,0,.06,.07,.06,.17,0,.23-.96,.92-1.92,1.88-2.83,2.85-.03,.03-.08,.05-.12,.05Z"/><path class="b" d="M31.39,4.73s-.08-.01-.11-.04c-.07-.06-.08-.16-.02-.23,.87-1.02,1.82-1.99,2.82-2.9,.07-.06,.17-.06,.23,.01,.06,.07,.06,.17-.01,.23-.99,.89-1.93,1.86-2.79,2.87-.03,.04-.08,.06-.13,.06Z"/><path class="b" d="M34.31,4.74s-.08-.01-.11-.04c-.07-.06-.08-.17-.02-.23,.88-1,1.82-1.97,2.8-2.88,.07-.06,.17-.06,.23,0,.06,.07,.06,.17,0,.23-.97,.9-1.91,1.86-2.78,2.86-.03,.04-.08,.06-.12,.06Z"/><path class="b" d="M37.31,4.7s-.08-.02-.12-.05c-.07-.06-.07-.17,0-.23l2.76-2.81c.06-.07,.17-.07,.23,0,.07,.06,.07,.17,0,.23l-2.76,2.81s-.08,.05-.12,.05Z"/><path class="b" d="M40.2,4.82s-.08-.01-.11-.04c-.07-.06-.07-.17,0-.23l2.85-3.09c.06-.07,.17-.07,.23,0s.07,.17,0,.23l-2.85,3.09s-.08,.05-.12,.05Z"/><path class="b" d="M43.53,4.84s-.07-.01-.1-.04c-.07-.06-.08-.16-.03-.23,.82-1.03,1.68-2.06,2.55-3.04,.06-.07,.17-.07,.23-.01,.07,.06,.07,.17,.01,.23-.87,.98-1.73,1.99-2.54,3.02-.03,.04-.08,.06-.13,.06Z"/><path class="b" d="M46.53,4.83s-.07-.01-.1-.04c-.07-.06-.08-.16-.03-.23,.47-.59,.95-1.17,1.45-1.74,.06-.07,.17-.08,.23-.01,.07,.06,.08,.17,.01,.23-.49,.56-.97,1.14-1.44,1.72-.03,.04-.08,.06-.13,.06Z"/><path class="b" d="M15.07,2.44s-.09-.02-.12-.05c-.06-.07-.06-.17,0-.24l.6-.6c.06-.06,.17-.06,.23,0,.06,.07,.06,.17,0,.24l-.6,.6s-.07,.05-.12,.05Z"/><g class="e"><path class="b" d="M49.53,6.36c-.32-1-1.59-.59-2.4-.61-.94,.05-1.88,.02-2.82,.04-3.49,.16-6.85,.26-10.34,.09-3.63,.06-7.26,.16-10.9,.13-2.12,0-4.24-.18-6.37-.17-.47-.01-.93-.02-1.4-.03-.3,0-.62-.06-.89,.09-1.1,.41-.76,2.06,.42,2.04,3.03-.03,6.06,.06,9.09,.14,2.66,.03,5.31-.06,7.97-.11,1.94-.1,3.88,.09,5.82,.04,2.89,0,5.77-.21,8.66-.37,.64-.04,1.28-.1,1.92-.13,.73,.09,1.43-.37,1.23-1.15Z"/></g><g class="e"><path class="b" d="M34.33,41.06c-.32,.11-.63,.22-.97,.27h0c-.19,.02-.37,.02-.56,.02-.17,0-.69-.04-.9-.06-.44-.06-.87-.16-1.29-.31l-.08-.03c-.26-.13-.5-.34-.81-.35-1.22-.2-1.8,1.47-.73,2.06,1.18,.74,2.64,.84,4.01,.72,.59-.05,1.17-.19,1.71-.44,.44-.16,.84-.49,.83-.98,.02-.59-.63-1.07-1.22-.9Z"/></g></svg>