<?xml version="1.0" encoding="utf-8"?>
<!-- Generator: Adobe Illustrator 26.2.1, SVG Export Plug-In . SVG Version: 6.00 Build 0)  -->
<svg version="1.1" xmlns="http://www.w3.org/2000/svg" xmlns:xlink="http://www.w3.org/1999/xlink" x="0px" y="0px"
	 viewBox="0 0 961.6 973.8" style="enable-background:new 0 0 961.6 973.8;" xml:space="preserve">
<style type="text/css">
	.st0{fill:#BB8760;}
</style>
<g id="Background">
</g>
<g id="Graphic_elements">
	<g>
		<path class="st0" d="M960.8,345.6c-1.2,3.7-5.2,0.6-7,2.8l0,0c-0.6,0.7-1.3,1.5-2.2,1.9c-2.5,1.1-4.1,3.2-5.9,5
			c-3.9,3.8-7.6,7.6-11.8,11.1c-3.8,3.1-7.4,6.4-10.9,9.8c-6.3,6.1-12.6,12.3-18.6,18.8c-3.5,3.8-8,6.7-10.5,11.4
			c-1.8,2.9-2.9,6.3-6.2,8c-4.2,2.5-6.6,6.6-9.8,10c-1.3,1-0.4,3.2-2.2,3.9c-1.1,0.3-1.6,1.1-1.8,2.1c-0.9,1.9-2.2,3.2-4.1,4
			c-1.9,2.1-3.9,4.1-5.8,6.2c-1.5,0.8-0.6,3-2.2,3.8c-0.6,0.6-1.2,1.2-1.7,1.8c-6.3,8-12.9,15.6-19.7,23.1c-2.5,2.8-4.8,5.7-6.5,9
			c-0.9,1.8-2.2,3.1-3.9,4.1c-2.5,1.7-3.7,4.5-5.7,6.7c-5,5.4-10.6,10.1-15.5,15.5c-2.9,3.2-6.6,5.7-8.8,9.6c-0.8,1-1.4,2.1-2.4,2.9
			c-0.5,0.4-1,0.8-1.5,1.2c-0.4,2.2-3.4,1.9-4,4c-1,0.9-1.6,2.2-2.6,3c-1.4,1.4-1.8,3.6-3.3,5c-1,1.6-2.4,2.9-3.9,4.1
			c-1.1,1.1-0.6,3-2.2,3.8c-0.5,1.4-2.1,2.2-2.1,3.9c-1.6,1.8-0.1,4.5-1.8,6.2l0,0c-1.8,2.4-0.2,5.6-2,8c-1.6,5.2-0.2,10.7-2.2,15.8
			c-0.6,1.4-0.4,2.9-0.7,4.2c-0.9,3.9,1.4,8.2-1.4,11.8c-1.5,1.6-1.8,3.5-1.7,5.6c0.1,1.8-0.1,3.6-0.5,5.4
			c-1.4,5.6-2.5,11.3-3.7,16.9c-1.1,1.9-0.2,4.4-2.1,6c-0.8,1.3-1.9,2.3-2,3.9c-1.1,1.1-0.4,3.1-1.9,4.1c-1.3,3.3-2.7,6.7-4,10
			c-1.2,1.1-0.6,3-1.8,4.2c0.2,3.5-3.3,4.9-4.2,7.8c-1.1,2.4-1.8,5-4,6.7c-0.7,1.1-0.8,2.5-1.9,3.4c-2.2,3.9-3.9,8.1-6.7,11.5
			c-4.2,4.9-7.1,10.6-11,15.8c-5.2,7-10.1,14.3-15.4,21.2c-5.4,7.2-12.7,12.9-17.1,21c-0.5,1-1.6,1.6-2.3,2.6
			c-4.7,6.4-11.3,11.1-15.4,18c-0.9,1.2-0.5,3.1-2.2,3.8c-1.9,0.8-3,2.3-3.9,4c-0.9,1.7-2.3,3-3.8,4.2l-0.1,0c-1.1,1.2-1.5,3-3,4
			c-5.9,6.4-10.6,13.7-15.8,20.6c-4.9,6.5-10.3,12.7-14.9,19.6c-2.4,3.6-5.3,6.7-8.2,9.9c-1.6,1.7-1,5.2-4.2,5.7
			c-1,0.3-1.6,1.1-1.9,2c-0.6,0.7-1.2,1.5-2.1,1.9l0,0c-0.5,0.8-1.2,1.5-2,2.1c-1.1,0.3-1.5,1.2-1.9,2.1c-0.7,0.7-1.3,1.3-2,2l0,0
			c-0.7,0.7-1.3,1.4-2.2,1.9c-1.7-0.1-2.3,1.8-3.8,2.1c-0.9,1.4-3,0.6-3.9,2l0,0c-1.1,1.3-3,0.6-4.1,1.9c-3,2-6.5,2.1-10,2
			c-6.1-0.1-12.2-0.1-18.4-0.1c-7.2,0-14.5-0.5-21.5,2.2c-0.9,0.8-2.3,0.9-3.2,1.7c-2.4,1.4-4.9,2.5-7.2,4.1
			c-7.1,5.4-13.6,11.5-21.1,16.5c-1.1,0.7-2.6,1.6-2.8,3.2c-0.8,1.7-2.9,0.9-4,2.1c-3,1.6-4.4,5.1-7.8,6.1c-1,1.3-3.1,0.6-4,2
			c-0.7,0.7-1.4,1.3-2,2c-0.7,0.6-1.1,1.5-2.1,1.7c-2.4-0.3-3.8,1.8-5.8,2.4c-1.1,1.3-3.1,0.6-4.1,1.9l0.1,0.1
			c-1.2,1.2-3,0.7-4.2,1.7c-5.2,0.8-10.5,0.5-15.8,0.1c-1.1-1.2-3-0.6-4.1-1.9c-6-6.2-7.2-13.8-6-22c1-1.1,1.1-2.4,1-3.7
			c-0.5-5.8,1.9-11.1,2.9-16.6c-0.3-2.3,0.4-4.2,2.1-5.7c1.7-1.7,0.9-4.2,2-6.1c0-0.6,0.1-1.2,0.1-1.8c1.3-1,1.1-2.8,2-4l0,0
			c1.4-1,0.6-3.1,2.1-3.9l0,0c1.5-1.9,2.5-4.1,3.9-6.1l0,0c0.6-0.7,1.3-1.4,1.8-2.2l0,0c0.8-0.5,1.5-1.2,2-2
			c3.5-5.1,8.6-8.8,12.1-13.9c0.9-1.8,2.2-3.2,4.2-3.9c1.8-0.8,3.4-1.8,4-3.8c0.5-0.8,0.8-1.8,1.9-2c3-1,5.3-3.1,7.7-5.1
			c5-4.1,9.9-8.4,15.2-12.2c4.5-3.3,9.3-6.5,13-10.9c1.2-1.5,2.2-3.1,4.1-3.8c1.5-1.2,2.6-2.8,4-4.1c0.5-0.1,1.1-0.2,1.6-0.3
			c1.1-1.5,2.4-2.9,4.3-3.7c1.1-0.3,1.5-1.2,1.9-2.1c0.9-3.3,5-2.6,6.5-5.2c0.6-1.6,2.5-1.7,3.4-3c0.4-0.5,0.8-1.1,1.2-1.5
			c8.7-9.2,17.5-18.5,23-30.1c0.7-1.3,0.3-2.3-0.9-3c-1.3-0.5-2.3-0.1-3.3,0.7c-3.1,3-5.5,6.5-8,9.9c-0.4,0.9-1.2,1.5-1.9,2.2
			c-0.8,1.9-2.2,3.1-4,4c-3.3,3.4-6.8,6.6-9.9,10.2c-4.6,5.2-10.3,9.1-15.5,13.4c-5.6,4.7-11.6,8.9-16.6,14.3c-2,1.4-4,2.8-6.1,4
			c-2.6,2.1-6.1,2.9-7.9,5.9c-0.8,2-2.2,3.3-4.2,4c-0.5,0.1-1.1,0.2-1.6,0.4c-1,1.6-2.4,2.9-4.1,3.8c-1.4,1.3-2.7,2.6-4.1,3.9
			c-0.8,1.7-3,0.7-3.9,2.1c-2.5,2.1-5.2,3.9-7.5,6.3c-2.3,2.4-5.4,4.1-6.8,7.4c-0.5,2.1-2.1,3.3-3.9,4.3c-1.1,1.6-3.4,1.9-4,4
			c-1.4,1.9-2.1,4.4-4.2,5.9c-2.1,0.6-2.2,3.1-3.8,4.2c-1.5,0.9-0.6,3-2.1,3.9c-3.7,5.5-5.7,11.8-8,17.9c-1.3,2.8-0.4,6.4-2.7,8.9
			c-0.3,1.1-0.1,2.4-1.3,3.1c-2,4.1-2.3,8.4-2.3,12.9c0,3-0.2,5.9-3.5,7.3c-1.2,1.1-3.1,0.5-4.2,1.7c-2-0.1-3.5,0.9-4.9,2.1
			c-3.2,2.9-7.1,4.2-11.2,5c-0.7,0-1.4,0-2,0.2c-0.9,1.5-2.7,1.7-3.9,2.6c-3,0.6-5.2,2.8-7.8,4.1c-1,1.4-3,0.6-4,2
			c-0.7,0.6-1.4,1.3-2.1,1.9c-0.9,1.5-3,0.7-3.9,2.1l0,0c-1,1.4-3,0.7-4,2c-3.4,1.9-7,3.5-10.1,5.9c-0.8,1.6-3,0.7-3.9,2.1
			c-1,0.3-1.6,1-2.1,1.9c-0.9,1.6-3,0.8-4,2.1c-0.5,0.1-1.1,0.2-1.6,0.2c-0.7,0.2-1.1,0.7-1.7,1.2c-3.4,2.5-5.5,7.4-10.9,6.5
			c-3.4-0.2-5,2.9-7.7,4.2c-1,1.3-3,0.7-4.1,1.9c-0.6,0.1-1.2,0.1-1.8,0.2c-1.2,1.1-3.1,0.5-4.2,1.8c-1.6,0.2-2.3,2.1-3.9,2.1
			c-0.8,0.9-2.1,0.8-2.9,1.7c-1.1,2.6-3.8,0.6-5.4,1.9c-1,2-3.5,0.9-4.9,2.3c-0.3,0-0.6,0-0.9,0.1c-1.4,1.4-3.7,0.5-5.1,1.9
			c-0.3,0-0.6,0.1-0.9,0.1c-0.7,1-2,0.9-2.8,1.7c-1.2,2.2-3.9,0.6-5.4,2.2l-1.7,0.2c-1.1,1.3-3,0.6-4.1,1.9
			c-4.6,1.4-9.1,3.3-13.9,4.1c-1.2,1.1-3,0.7-4.1,1.9c-0.6,0.1-1.2,0.2-1.8,0.3c-1.4,1.1-3.2,0.7-4.8,0.8c-1.2,0-2.4,0-3.3,1l0,0
			c-0.8,0.9-2,0.9-3,1.3c-1.7,1.3-3.6,1.9-5.8,1.6c-1.2,0-2.4,0-3.3,1l0.1,0.1c-1.2,1.2-3,0.6-4.2,1.7c-2.6,0.1-5.1,0.2-7.7,0.3
			c-1.4,1.3-3.3,0.6-4.8,1.2c-2.2,1.9-5.2,1.3-7.6,2.5c-0.6,0.1-1.1,0.2-1.7,0.3c-6.9,1.5-13.9,0.9-20.9,0.9c-3.7,0-7.5,0.8-11.1-1
			l0.1,0c-1.4-1.4-3.6-0.7-5.1-1.8c-2.1,0.2-3.2-1.7-5-2.1c-0.9-1.4-3.1-0.6-3.9-2.2c-4.1-3.8-5.6-8.4-4.4-13.9
			c0.1-0.6,0.2-1.3,0.3-2c2-3.7,3.8-7.4,6.7-10.5c0.4-0.5,0.9-1,1.3-1.5c0.8-1.7,2.2-2.8,3.7-3.9c2.7-2.1,5.6-4.1,8.1-6.5
			c3.3-3.3,7.1-5.7,11.2-8c3.1-1.7,6.9-2.4,9.2-5.5c0.9-1.5,2.9-0.8,4-2c1.4-0.1,2.4-0.8,3.5-1.5c2.7-1.7,5.5-3.1,8.3-4.7
			c1-1.3,3.1-0.6,4-2c2.7-1.2,4.4-4.1,7.7-4.2c0.9-0.6,2-0.7,2.9-1.3c0.6-1.6,2.5-1.4,3.5-2.5c4.3-2,8.8-3.5,12.9-6
			c1.5-0.9,2.8-2.3,4.8-2.2c0.6-0.3,1.1-0.8,1.6-1.2c1.2-1.4,3.3-1.4,4.6-2.6c0.6-0.1,1.2-0.1,1.8-0.2c1.2-1.1,3.1-0.6,4.2-1.7
			c1.8,0.1,2.4-1.8,3.9-2.2c1-1.3,3.1-0.6,4-2l0,0c1.1-1.2,3-0.6,4.1-1.9l-0.1-0.1c1.1-1.3,3-0.7,4.1-1.9c0.6-0.1,1.2-0.1,1.8-0.2
			c1.1-1.2,3.1-0.5,4-2l0,0c0.9-1,2.4-0.7,3.3-1.6c0.6-1.3,2-1.5,2.9-2.2c2.3,0.2,3.5-2.4,5.7-2.2c1.1-1.2,3.1-0.5,4.1-1.9l0,0
			c0.7-0.9,2-0.8,2.8-1.7c0.9-2.6,3.9-0.6,5.2-2.3l0,0c1-1.1,2.4-0.9,3.6-1c0.9,0,1.7-0.2,2.2-1.1l0.1,0.1c1-1.3,3.1-0.5,4.1-2
			c3.6-2.8,8.1-3.7,12-6c1-1.2,3-0.7,3.6-2.3c0.7-1.5,0.2-2.6-0.5-3.6c2.7,2.4,5.9,1,9,0.1c1.8,0.3,2.7-1.1,3.9-2.1
			c1.1-1.3,3-0.7,4.2-1.8c3.3-0.6,5.8-3,8.8-4.3c0.8-0.9,2.2-1,3.1-1.8l0,0c0.9-1.5,3-0.7,4-2c5-2.1,9.8-4.5,13.9-8
			c2.1-1.8,4.6-2.9,7.1-3.9c3.4-1.8,6.8-3.7,9.9-6.1c-0.1-1.1-0.3-1.9-0.6-2.4c0.5-0.2,1-0.3,1.5-0.5c2.5,1.1,9.8-1,14.8-1.1
			c2.4-2.3,8.1-1.1,7.9-3.3c-0.1,0.3,0.6,0.4,1,0.5c0.8-0.5,1.5-1.3,2.3-2c0.8-0.7,1.6-1.4,2.7-1.9l-0.3,1.6c0,1,1.7,0.5,3.5-0.2
			c1.5-0.6,3.1-1.4,3.8-1.4c-1.7-0.4,2.8-1,2.5-2.1l2.3-1.7c3.8-2.4,0.2-0.8,4.9-3.7c2.7-1.6,1.8,0.9,0.7,1.3c0.9-0.2,1.8-0.6,2.6-1
			c0.8-0.4,1.6-1,2.3-1.6c0.6-0.5,1.2-1,1.8-1.5c-0.8,0.5-1.1,0.6-0.5-0.2c0.2,0.1,0.4,0.1,0.7,0c0.1-0.1,0.1-0.1,0.2-0.2l1.1-0.9
			c0.4-0.3,0.7-0.6,1.1-0.9c0,0,0,0.1,0,0.1c-0.9,0.7-1.7,1.4-2.3,1.8c0.5-0.2,1.2-0.6,1.8-1.1c0.2-0.1,0.4-0.3,0.6-0.5
			c0.2,0,0.4-0.2,0.7-0.5c0.7-0.5,1.4-0.9,2-1.1l0.1,1.4c1.7-1.1,5-5.5,4.5-5.8c3.6-2.2,7.8-6.2,11.2-9.9c1.7-1.9,3.2-3.8,4.4-5.3
			c0.7-0.9,1.2-1.7,1.7-2.4c-0.4,0.9-0.2,1.2,0.1,0.2c1.6-2,2.7-4.9,3.4-4.6c1.2-2.2,2.1-1.2,4.6-4.1c0.2,0.1-0.2-0.6-0.7-0.6
			c5.2-4,7.9-12,13.1-17.4c-0.3,0.6-0.3,1.6-0.3,2.3c0.7-1.1,1.3-2.2,2-3.3l0.1-0.1l0-0.1l0,0l0,0c0,0,0,0-0.1,0.1l0-0.1l0.3-0.5
			l0.6-1c0.4-0.6,0.8-1.3,1.2-1.9c1.6-2.5,2.8-5.2,3.8-7.9c0.1,0.8,0.6,0.9,0,2.2c0.6-0.9,1.2-1.8,1.8-2.7c0.5-0.9,1-1.9,1.4-2.8
			c0.8-1.8,1.5-3.4,1.4-4.5c-1.8,2.2,0.5,0.5-0.6,2.1c-1.2,1-1.3,0.2-1-1c0.4-1.3,1.1-3.1,1.9-4.2l0.3,0c2-3.6,1.4-4.1,3.2-7.7
			c1.7-1.9-0.6,2,0.4,1.5c2.2,0,4.9-8.1,5.4-8.8c0-1.1,0.2-2.5-0.3-2.5c0.7-3.1,1.5-1,2.3-3.1c0-1.7-0.1-3.3-0.1-5
			c0-1.5-0.1-2.9-0.2-4.4c0.4,0.5,2.3-2.2,2.1,0.5c0.9-3.2,1.1-5.8,1.1-8.2c0-2.4-0.3-4.4-0.3-6.5c0.4-0.9,0.9-2.9,1.2-5
			c0.4-2.1,0.7-4.2,0.9-5.3c1.2-0.8-0.5,1.8,0.1,2.4l1.9-2.9c-0.9,4.3,1.8-0.1,1.9,2.3c0.3-3.6,2.9-11.5,4.4-16.5
			c-2.9,3,0.6-7.1-1.2-7.3c0.6-3,1.1-3.7,1.6-3.8c0.5-0.2,1,0.1,1.5-0.8c1.6-6.2,3.7-12.1,4.5-17.9c0,0,0.3,0,0.3,0.3
			c0.2-2.7,0.6-6.2,0.8-9.8c0.1-3.5-0.1-7.1-0.9-9.7c0.4,0.2,0.7-0.2,1,1.1c0.3-2.9-0.3-3.1-0.8-3.5c-0.3-0.2-0.5-0.4-0.7-1
			c-0.1-0.3-0.1-0.7-0.1-1.2c0-0.3,0-0.6,0-0.9c0-0.3,0.2-0.7,0.4-1.1c0.2,0.6,0.4,1.1,0.8,1.6c-0.2-0.5-0.1-1-0.1-1.5
			c0.1-0.5,0.1-1,0.2-1.5c0.2-1,0.5-2,0.7-3c0.5-2,0.9-4.1,0.6-6.6c0.5-0.1,0.5,1,0.7,1.7c0.2-4.3,1-9.1,0.1-12.9
			c0.6-0.5,1.1,0.1,1.4,1.8c1.1-4.2-1.3-4.7-0.4-8.6c0.1-1,0.8-2.7,1-2.6c-0.7-2.1-0.6-7.8-1-9.8c0.6-0.6,0.8-2.1,1.3-4.6
			c-0.2-5.4-0.6-10.7-1.3-16.1c-0.1-1.3-0.3-2.7-0.5-4c-0.2-1.3-0.4-2.7-0.6-4c-0.2-1.3-0.4-2.7-0.7-4l-0.8-4
			c-0.2-0.7-0.5-1.4-0.7-2l-0.8-1.9l-1.5-3.8c-1-2.5-2.2-4.9-3.3-7.4c-1.1-2.5-2.4-4.8-3.6-7.2c-0.6-1.2-1.2-2.4-1.9-3.5
			c-0.7-1.1-1.4-2.3-2-3.4c0.1-4,3.3,3.9,3.4,1.3c-0.7,0.4-1.2-0.3-1.9-1.9c-0.8-1.5-1.7-3.9-3.5-6.6l0.1-0.3
			c-1.6-2.3-1.4-4.1-3.3-6.5l-0.3,0.3c-2.5-2.2-1.7-7.1-4.3-7.5l-0.3-2.7c-1.6-0.8-2.1-2-2.7-3.2c-0.6-1.2-1.1-2.6-2.8-3.7l0.5,0.2
			c-0.2-0.3-0.3-0.6-0.5-0.9c0.1-0.1,0.2-0.1,0.2-0.2c0.1-0.5,0.2-1.1,0.3-1.6c0.7-1.8,2.2-3,3.6-4.4c1.4-1.3,2.7-2.7,4.1-4
			c1.6-0.8,0.8-2.9,2.1-4c0.1-0.6,0.2-1.1,0.2-1.7c1.3-2.1,2.6-4.1,3.8-6.2l0,0c1.5-0.9,1.1-2.8,2.1-3.9c2.2-2.5,2.9-6.1,5.7-8.2
			c2-1.5,0.9-4.2,2.2-6c-0.1-2,1.2-3.5,2.2-4.8c1.7-2.2,2.4-4.6,3.2-7.1c1.7-5.3,3-10.7,4.5-16c2.1-2.4,0.4-5.6,1.9-8.1
			c0.1-0.6,0.1-1.2,0.2-1.8c1.2-1.2,0.9-2.7,1-4.1c0.2-3.7,0.8-7.3,3.8-9.9c0.2-2.1,0.3-4.2,1-6.2l0.1-1.8c1.7-1.7,0.7-4.2,2-6
			c1.1-2.5,2.2-5,3.2-7.5c0.7-1.6,1.2-3.4,2.6-4.6c1.2-0.8,1.1-2.1,1.1-3.3c-0.3-3.3,1.7-5.8,3.1-8.5l0,0c1.7-1.6,0.2-4.4,2.3-5.9
			c0.5-0.8,1-1.6,1.5-2.5c1.2-2,1.7-4.3,2.9-6.3c0.3-0.5,0.8-1,1.1-1.6c0.1-0.5,0.1-1,0.3-1.4c5.1-8.5,9.3-17.5,13.8-26.3
			c1.1-0.9,1-2.1,1-3.3c0-3.8,1.6-7,3.9-10c1.5-2,1.7-4.7,3.4-6.6c1-0.3,1.2-1.3,1.7-2.1c1.8-1.5,0.6-4.2,2.2-5.8
			c1.9-2.4,1.7-5.8,4-8c1.9-2.4,2.7-5.3,3.9-8l-0.1-0.1c1.4-0.9,0.6-3,2.1-3.9c3.2-5,5.7-10.4,8.1-15.9c0.8-2.4,3.2-3.7,3.9-6.1
			c1.3-1,0.5-3.1,2.1-3.9c0.3-0.2,0.7-0.2,0.9-0.5c5.5-8.9,11-17.8,15.1-27.4c0.9-1.2,1-3,2.6-3.8c0.4-2.5,2.7-4,3.4-6.3
			c0.9-1.2,1.8-2.5,2-4c1.4-0.9,0.5-3.1,2.1-3.9l-0.1-0.1c1.2-1.6,1.4-3.8,2.7-5.3c0.4-1.3,1.2-2.4,2-3.4c0.4-0.5,0.9-1,1.1-1.6
			c0.1-0.6,0.2-1.1,0.2-1.7c1.1-1.8,2.2-3.5,3-5.5c0.8-1.7,2.2-2.9,2.9-4.6l0,0c0.7-4.5,5.4-6.5,6.8-10.5c0.4-0.6,0.9-1,1-1.7
			c0.7-2.9,3-5,4.2-7.6c1.4-0.9,0.5-3.1,2.1-3.9c1-0.4,1.4-1.3,1.9-2.1c3.8-5.7,7.3-11.5,10-17.9c1.3-1,0.5-3.1,2.1-3.9
			c0.5-0.9,1.2-1.5,1.9-2.1l0.1,0.1c2.1-2.3,2.8-5.3,4.1-8c2.5-4.7,5.8-9,7.9-14c-0.6-3.6,2.6-5.4,4-8l0,0c1.7-1.7,0.1-4.4,2-6
			c2.2-3.9,5.2-7.3,6.2-11.9c1.1-1.2,0.5-3.1,1.8-4.1c3.3-5,6.7-9.9,8.1-15.9c1.4-1.8,0.7-4.3,1.8-6.1c0-0.3,0-0.5-0.1-0.7h-12.2
			c-0.7,0.7-1.2,1.6-1.6,2.8c-1.6,1.6-0.3,4.3-2.2,5.8c-1,0.3-1.5,1.2-1.9,2.1c-1.1,1.1-1.1,2.9-2.4,3.9c-0.8,1.3-0.3,3.1-1.4,4.3
			c0,1.7-2,2.2-2.2,3.8c-1.3,1.1-0.5,3.1-2,4l0,0c-1.3,1-0.5,3.1-2.1,3.9l0,0c-1.2,1.1-0.5,3.1-1.9,4.1c-0.7,4.5-3.3,8.2-6.1,11.6
			c-1.7,2.2-3.2,4.5-4.3,7.1c-2.4,5.6-5.1,11-9.5,15.4c-1.5,1.7-0.4,4.3-2.2,5.9l0,0.1c-1.8,1.7-2.1,4.4-4,5.9
			c-2.6,4-5.3,8.1-7.9,12.1c-1.2,1-1.1,2.8-2.5,3.8c-0.9,1.2-0.1,3.1-1.7,4.1c-3.7,3.3-5.6,7.7-8,11.9c-1.4,2.7-2.8,5.4-4,8.2
			c-1.9,0.8-1.5,3.6-3.6,4.3c-1.7,0.7-0.7,3-2.3,3.7c-1,2.2-1.4,4.8-3.8,6.2c-1.2,0.8-1.1,2.1-1.1,3.3c-0.2,1.6,0.7,3.4-1.1,4.5l0,0
			c-2.4,1.9-1.5,5.8-4.6,7.3c-2,1.8-2.1,4.5-3.5,6.6c-2.3,4.1-3.4,8.7-6,12.7c-1.5,2.3-3.6,4.3-4,7.2c-1,2.3-2.6,4.1-3.9,6.2
			c-0.7,1.3-1.4,2.6-2.1,3.9c-1.2,1-0.4,3.2-2.1,4c-3.8,3.2-5.4,8-8,12.1c-2.4,3.9-3.7,8.4-5.9,12.4c-3.8,6.9-7,14.2-10,21.5
			c-1.2,1.1-0.5,3.1-1.9,4.1l0,0c-1.3,1-0.6,3-1.9,4c-1.8,3.8-3.4,7.6-4.2,11.7c-1.1,1.2-0.5,3.2-1.9,4.2l0.1,0
			c-1.2,3.4-1.4,7.2-4.1,10c-3.3,3.3-4.3,7.8-6,11.9c-0.6,0.7-0.9,1.6-1,2.5c0,0.3-0.1,0.7-0.3,0.9c-0.2,0.3-0.4,0.5-0.6,0.7
			c-0.6,0.7-1.3,1.4-1.9,2.1c-1.5,1.7-0.4,4.3-2.1,5.9c-0.6,1.4-1.3,2.7-1.9,4.1c-1.5,1.7-0.3,4.3-2.1,5.9l0,0
			c-1.3,1.1-0.4,3.1-1.9,4.1c-1.3,2.7-1.7,5.8-3.9,8.1c-1.2,1.1-0.7,3-2.2,3.9l0,0c-1.1,1.8-0.8,4.1-2.1,5.9l0,0
			c-0.5,0.6-0.8,1.2-0.9,2c0.1,3.8-1.6,6.9-3.5,10c-1.1,1.9,0.2,4.4-1.5,6.1c0.1,2.4-1.7,4.2-2.2,6.5c-1.4,7.5-4.6,14.5-5.2,22.1
			c0,0.5-0.3,0.9-0.5,1.4c-1.6,1.6-0.4,4.3-2.2,5.8l0.1,0.1c-1.3,1.7-0.3,4.4-2.1,5.9c-0.8,1.3-1.9,2.4-1.9,4.1
			c-0.9,1.2-0.4,3.1-2.1,3.9c-0.4,0.5-0.9,1-1.2,1.6c-2.2,5.3-4.8,10.4-8.5,14.9c-0.3,0.3-0.2,1-0.3,1.4c-1.3,2.7-1.9,5.8-4.1,8
			c-1,0.3-1.4,1.2-1.9,2.1c-0.7,0.7-1.4,1.3-1.8,2.1l0,0c-1,0.8-0.6,2.8-2.4,2.9c-0.7,0.2-1.2,0.5-1.5,1.1c-2.2-2.4-4.4-4.4-5.5-4.2
			c-0.2-1.1,0.9-1.1,1.7-0.9c-2.6-3.2-5.5-6.3-8.3-9.5c-1.4-1.6-2.9-3.1-4.4-4.7l-2.2-2.3c-0.7-0.8-1.5-1.5-2.3-2.2
			c-1.5-1.5-3.1-2.9-4.6-4.3c-1.6-1.4-3.1-2.7-4.7-4c-0.8-0.6-1.6-1.3-2.3-1.9c-0.8-0.6-1.6-1.2-2.4-1.7c-1.6-1.1-3.1-2.2-4.7-3.2
			c-0.4-0.7,0.5-0.3,1-0.3c-1-0.6-2-1.2-2.9-1.8c-0.9-0.6-1.9-1.3-2.7-2c-0.9-0.7-1.8-1.5-2.6-2.2c-0.8-0.6-1.8-1.3-2.7-1.9
			c-3.6-2.5-7.1-4.6-10.7-4.9l-2.7,0c-1.6-1.5-1-2.2-2.2-3.5c-1-0.1-2.8-1-4.6-1.9c-1.8-0.9-3.5-1.6-4.2-1.3
			c-0.6-0.9,0.7-0.4,0.8-0.8c-1.8-1.1-4-1.6-6.1-2.2c-1.1-0.3-2.2-0.4-3.2-0.7c-0.5-0.1-1-0.3-1.5-0.5c-0.5-0.1-0.9-0.3-1.4-0.5
			l1.3-0.2c-4.5-2.3-9.8-4-15.4-5.1c-5.6-1.1-11.4-1.8-17.1-2.2c-5.7-0.4-11.3-0.6-16.6-0.4c-5.2,0.4-10.1,0.8-14.4,1.5
			c-4.7,0.5-2-1.8-4.1-1.6c-8.8,1.1-18.5,0.4-28,0.6c-9.5,0.1-18.9,1-26.3,4.6c-1.5,0.5-2.8,1-4,1.5c-1.2,0.5-2.2,1.1-3.1,1.7
			c-0.9,0.6-1.7,1.1-2.4,1.6c-0.7,0.6-1.2,1.1-1.7,1.6c-1.8,2-2.3,3.3-2.3,3.3c6.2-3.1,12.9-5,19.7-6.2c6.8-1.1,13.7-1.5,20.7-1.4
			c6.8,0.1,13.7,0.5,20.8,1.1c-1.1,1.4-2.1,2.5-3.1,3.7c-1,1.2-1.9,2.5-2.5,4.3l1.5-0.7c-1.1,1.9-0.9,4.3-2.7,5.7
			c0.1-1-0.6-0.6-1.1-0.7c-0.1,0.5,0.1,1.2-0.3,1.7c-0.4-0.5-0.7-1-1-1.5c0.8,0.9,0.3,2.3-0.1,3.7c-0.5,1.4-1.1,2.8-1.1,3.3
			l-0.2-0.4c-1.4,3,0.9-0.4,0.5,1.8c-0.6,1.8-1.8,0.3-2.7,2c-0.3,1.7-0.3,4-0.3,6.4c0,1.2,0,2.3-0.1,3.5c-0.1,1.1-0.2,2.2-0.5,3.1
			c0.3,3,1.3,6.2,2.4,8.7c0.4,2.6-1.6,0.1-0.4,2.6c-0.6-0.2-1.1,0.3-1.5,0.6c0.3,0.1,0.5,1,0.7,1.8c0.3,1.1,0.6,2.1,1.2,0.8
			c0.5,3.7,1.5,7.9,2.9,11.7c-0.5-1.2-1.5-1.3-1.6-0.1c1.4,1.5,2.9,4.4,3.7,7.7c0.9-0.4,0.6-1.4,1.6-1.4c0.3,0.4,1,1,1.2,1.8
			c-0.8,0.8-2.4,1.2-1.4,4c-1.8-0.2-1.5-4.9-2.6-3.1c-1.7-0.8-3.4-6.1-3-7.5c-2.1-2.2,0.4,2.1-1,2c0.8,2.3,1.8,3.2,3.3,6.7
			c0.7-0.2,0.3-1.4,1.4,0c2.5,2.7,0.5,4.3,0.7,5.1c-0.3-0.4-0.6-1-0.9-1.4c0.3,2.3,1.5,2.7,2.3,4.9c-1.5,1.3-1.6-3.4-2.9-3.8
			l-0.6,2.1c1.1,3.5,1.8,0.4,2.7,4l-0.8-0.2l1.3,2c0.7-0.2,1.4-1.1,0.6-2.9c2.2,0.5,0.9,1.6,2.4,4.4c1.3,0.5-0.6-1.2,0.3-1.6
			c0.7-0.6,1.6,1.3,2.3,2.7c1,2.4-0.5,1.6-0.7,2.8c-0.3-0.4-1.2-2.1-0.6-2.2c-2.2-2.5-1.4,2.1-2.9,0.4c0.4,2.4,1.4,1.9,2.3,2.9
			c-0.1-0.7,1.1,0,1.2-0.7c4.2,2.7-0.8,3.2,1.1,6.6c1.4-1.4,4.2,3.9,5,0.5c0.6,0.8,1.4,1.7,1.6,2.7c-1.5-0.6-0.3,1.9-2,0.6l0.4,1.3
			l-2-1.5c-0.2,1.7-0.3,4.2-0.7,5.1c1,1.6,1-0.8,1.8,1.1c-0.8-0.6-1,0.8-0.8,1.6c0.1-0.9,0.5-1,0.9-0.7c0.5,0.3,1,0.9,1.2,1.5
			c0.2,0.9-0.1,1.7-0.3,2.2c-0.3,0.5-0.6,0.8-0.8,0.7c-0.3-0.5-0.7-1-1.1-1.5c1,1.1-0.4,0.5,0,1.7c0.7,0.3,1.7,1,2.5,1.5
			c0.2,1.1-0.7,1.8-0.7,2.1c-0.1-0.6-0.3-1.2-0.5-1.7c0,1.1-0.4,1.1-0.9,1.2c-0.5,0.1-0.8,0.1-0.8,1.1c0.3,0.2,0.5,0.5,0.8,0.7
			c-0.2,0.4-0.7,0.5-0.9,0c0.3,0.2,0.3,0.6,0.3,1.1l0,0.3c0,0.1,0,0.2-0.1,0.4c-0.1,0.3-0.1,0.6-0.1,0.8l-0.7,0
			c0,1.4,0.8,3.4-0.7,4.7c0.9-0.4,1-0.8,1-1.4c0-0.5,0-1.2,0.7-2.3c1.5-1,0.3,2.5,0.4,3c-0.8-0.3-1,0.6-1.1,1.6
			c0,0.5-0.1,1.1-0.1,1.7c0,0.6,0,1.1-0.1,1.5c-0.7,0.8-1.1,1.6-1.6,2.1l0.9,0.8c-2.1,0.3,0,3.2-0.8,4.8c-0.5-1-1.4-0.9-1.8,0.3
			c1.7-1.5,1.6,2.9,2.7,2.5c-0.8,3.1-1.9-0.9-3,0c1.1,1.7-0.9,3.5,0.5,4.6c0.6-2.3,0.9,0.4,1.6,0.9c-0.1,2.8-0.7-0.5-1.2,1.5
			c0.2,1.2,1.4,2.8,1.8,0.9c-0.4,1.7,1.2,3.5,0.3,5.3c-0.9,0.8-0.5-3.5-1.2-2.4c0,4,2.4,1.9,2.9,5.5c0.4-1.6,2.2-0.2,2.9,1.4
			c0,3.9-0.7-1.6-1.8-0.1l0.3,1.6c-0.7,1.2-1.5,0.1-2.3-1.1c-0.8-1.1-1.4-2.3-2-1.2c0.2,0.6,0.5,1.1,0.7,1.7
			c-0.5-0.3-1.4-0.8-1.8-0.1c1.2,0.3,0.7,4.1,1,4.4c1,0.2-0.5-1.4,0.3-1.2c0.5,1.8,2.2,2.4,2.1,5.4c-0.9-1.5-1.2,0.8-1.9,0.3
			c-0.2,1.5,1.2,0.2,1,2.3l-0.6-0.1c0.6,3.8,1.6,8,3.4,12c0.4,1,0.9,2.1,1.6,3.1c0.6,1,1.4,2.1,2.2,3c0.9,0.9,1.8,1.8,2.9,2.5
			c0.4,0.2,0.8,0.4,1,0.4c0.2,0,0.5,0,0.8,0c-0.2,0.5-0.1,0.8,0.1,1c0.1,0.1,0.2,0.3,0.2,0.6c-0.1,0.3-0.4,0.6-0.7,0.9
			c0.3-0.2,0.6-0.3,0.9-0.2c0.2,0.1,0.4,0.3,0.4,0.4c-0.6,0.2-1.1,0.4-1.6,0.5c-0.3,0.1-0.4,0.2-0.5,0.4c0,0.1,0,0.1-0.1,0.3
			c-0.1,0.2-0.1,0.4-0.2,0.6l-0.1,0.4l-0.2,0.7c-0.1,0.4-0.2,0.9-0.2,1.3c-0.1,0.9-0.1,1.7-0.1,2.4c-0.3,0.4-0.6,0.6-0.9,0.7
			c-0.3,0.7-0.4,1.2-0.3,1.6c0,0.4,0.1,0.7,0.3,1c0.3,0.5,0.7,0.7,0.9,1.2l-0.3,0.9l-0.2,0.9l0.8,0.2c0.5,1.2,1,2.5,1.3,3.6
			c0.3,1.1,0.4,1.8-0.3,2c0.7,0.8,1.4,1.4,1.1,0.2c0.3,1.2,1.5,3.3,3.3,5.1c1.8,1.8,4.2,3.2,6.2,4c-0.8-0.6-1.1-1-1.2-1.3
			c-0.1-0.3,0.1-0.6,0.2-1c1.2-0.9,0.6,0.7,2.4,0.7c-0.2,0.5,1.3,1.7-0.7,1.2c2.1,2,5.5,3.1,9,3.3c3.5,0.2,7.1-0.5,10.3-1.2
			c1.2-0.6,0.8-0.7,1.3-1.2c2.2,0.1,4.3-0.9,6.3-2c1-0.6,1.9-1.2,2.9-1.8c0.9-0.6,1.8-1.2,2.8-1.7c-1.1,0.1-0.9-2,0.8-3.4
			c1.2-2.4,1.7,0.6,3.9-0.3c0.1-0.3,0.3-0.6,0.5-0.9c0.2-0.3,0.4-0.5,0.7-0.8c0.5-0.5,1-0.9,1.3-1.2l0.1,0.2
			c0.3-0.6,0.7-1.3,1.3-1.9c0.6-0.6,1.2-1.1,2-1.3l-0.1,0.2c1-0.6,2.6-0.8,3.5-1.6c-0.1-0.6,0.6-1.2,1.3-1.8
			c0.7-0.6,1.5-1.1,1.6-1.7c0.2,0,0,0.2,0.4,0.2l-0.4-0.8l2.4-0.9c-0.3,0.6-0.2,1-0.6,1.6c2.6-0.9,0.3-1.2,1.3-2.3
			c1.3-1.5,1.7-0.7,2.6-0.8c-0.4,0.8-1.3,0.5-1.6,0.9c-0.6,1.1,1.1-0.3,1.4,0.1c0.4-0.2,0-1.2,1.3-1.7c1.1-0.5,3.4-2.1,3.5-1.1
			c0.7-0.9,1.8-1.4,2.3-2.1c-0.9,0.3-2.6,0.9-3.1,0.4c0.7-0.5,2.2-1.5,2.6-1.3l-0.5,0.5c0.5-0.5,3-1.4,1.4-1.6l2.2,0.3
			c0.3-1,2-1.7,3.3-2.5c0.5,0.9-0.2,2.4,2.5,1.4c0.6-0.7,1.2-1.3,1.8-1.9c1.1-0.6,1.5-0.5,1.6,0.1c4.2-1.2,3.1-4.2,6.7-4.7
			c-0.9,1.6,0.2,1.3,1.8,1c0-0.2,0-0.6,0.6-0.9c-0.6-0.4-0.6,1.1-2,0.8c-0.6-0.5,1.1-1,1.7-1.4c3.7,1.3,9.8-2.8,15-3
			c-0.7-1.3,2-1,2.9-1.8c0,0.8,1,0.4,2.2,0c0.6-0.2,1.3-0.5,1.9-0.7c0.7-0.2,1.4-0.3,2.1-0.2c-0.7-0.3-1.4-0.7-2-1
			c1.3-0.1,2.3-0.4,3.1-0.8c0.8-0.4,1.4-0.8,1.9-1.2c-0.5-1.6-0.8-2.7,0-3.5c0.2-1.1,0.4-0.8,0.7-0.1c0.3,0.8,0.6,2,0.8,2.6
			c0.7-1.3,0.1-4.2-0.2-6.5c-0.1-0.6-0.2-1.2-0.3-1.7c-0.1-0.4-0.1-0.7-0.1-1c0-0.7,0.1-1.2,0.6-1.7c-0.6-0.2-1.6,0.5-2-1.6
			c0.3-0.8,0.7-2,1.1-2.9c0.4-0.9,0.7-1.6,0.8-1.4c-0.1-1.2-0.6-1.7,0.2-2.9c0.4,0.2,0.3,0.7,0.4,1.2c0.2-0.5,0.3-1,0.4-1.5
			c0.6,0.3,0.9,1,1.1,1.6c0.3,0.8,0.6,1.4,1.4,1.1c-0.2,0-0.3,0.4-0.3,0.6c0.9,0.6,2.2,0.9,2.8,2l-1.2,0.1c-1.4,0.3,0.8,3,0.7,3.9
			c0.4-1,0.5,1.5,1.3,1.3l0.9,1.3c1.2,2.2,0.6,0.1,1.9,2.8c0.7,1.6-1,1-1.1,0.4c0,1.6,0.8,2.8,1.7,4.1c-0.2-0.5-0.2-0.7,0.2-0.3
			c-0.1,0.1-0.2,0.3-0.1,0.5c0.3,0.5,0.6,1,0.8,1.5c0,0,0,0-0.1,0c-0.3-0.6-0.6-1.1-0.8-1.5c0.1,0.4,0.3,0.9,0.5,1.5
			c-0.1,0.1,0,0.3,0.2,0.5c0.2,0.5,0.3,0.9,0.3,1.3l-1,0c0.4,1,2.7,3.4,3,3.1c0.3,1.2,1,2.5,1.8,3.9c0.4,0.7,0.9,1.4,1.4,2.1
			c0.5,0.7,1.1,1.3,1.8,2.1c1.5,1.5,3.2,2.4,4.7,2.9c0.9,0.3,1.7,0.3,2.3,0.3c-0.3,0-0.5,0.1-0.6,0.1c-0.2,0.1-0.1,0.2,0.4,0.1
			c1,0,2.1-0.2,2.9-0.5c0.8-0.2,1.4-0.4,1.5-0.1c0.9-0.4,1.4-0.4,1.9-0.3c0.6,0,1.3,0.1,2.5-0.5c0.1,0.1,0-0.5-0.3-0.6
			c1-0.2,2-0.7,2.9-1.4c1-0.7,1.8-1.7,2.6-2.7c1.5-1.9,2.7-4,4.3-5.7c-0.1,0.4,0,1.1,0,1.6c0.2-0.4,0.4-0.8,0.6-1.2l0.4-0.8l0.4-0.9
			c0.6-1.3,1.2-2.7,1.4-4c-0.2-0.8-0.4-1.7-0.7-2.4c-0.1-0.4-0.3-0.8-0.4-1.1c-0.1-0.3-0.3-0.6-0.4-0.9c0.2,0.1,0.4,0.2,0.6,0.3
			c0.1,0,0.2,0.1,0.3,0.2c0.1,0.1,0.2,0.2,0.3,0.5c0-0.3-0.1-0.6-0.1-0.9l-0.2-0.9c-0.1-0.6-0.3-1.2-0.4-1.7c-0.3-1.1-0.7-2-1.2-2.4
			c-0.2,1.6,0.5,0,0.6,1.1c-0.5,1.8-1.8-1.1-1.9-2.6l0.2-0.1c-0.4-2.3-0.9-2.3-1.4-4.6c0.2-1.5,0.5,1.1,0.9,0.5
			c1.4-0.8-0.3-5.5-0.3-6c-0.5-0.5-0.9-1.2-1.3-1c-1-1.7,0.6-1.1,0.1-2.3c-1.5-1.3-3-2.6-4.6-3.5c0.4,0,0.2-2.1,1.4-1
			c-0.3-0.5-0.5-0.7-0.8-1c-0.2-0.3-0.5-0.5-0.7-0.8c-0.5-0.6-1-1.1-1.4-1.6c-1-1-1.9-1.9-2.6-3c0-1.2-1.3-4.7-1.5-6
			c0.7-0.7,0.1,1.1,0.7,1.3l0.6-2c0.5,2.4,1.3-0.5,2.1,0.7c-0.8-1.9-0.7-6.6-0.6-9.5c-1.6,2.1-1-3.9-2.4-3.8c-0.1-0.8-0.1-1.3,0-1.7
			c0-1.1,1.1-0.6,1-1.7c-1.7-3.3-2.4-6.7-3.6-9.8c0,0,0.2-0.1,0.3,0c-1.4-2.8-2.5-7.6-4.7-10c0.3,0,0.5-0.3,1,0.4
			c-0.5-3.3-2,0-2.3-3.8l1,0.6c-1.4-2-0.8-4.5-2.7-6.7c0.4-0.2,0.7,0.3,1,0.6c-1.1-2.2-1.8-4.9-3.4-6.6c0.4-0.5,0.8-0.3,1.5,0.5
			c-0.2-2.5-2.1-2.1-2.3-4.3c-0.1-0.6,0.1-2,0.2-1.6c-0.9-0.8-1.9-3.9-2.5-4.9c-0.1-0.1-0.1-0.1-0.1-0.1c0-0.1,0-0.2,0-0.3
			c0.1,0.1,0.2,0.2,0.2,0.3c1.1,1.5,2.2,3,3.3,4.5c1,1.5,2.1,3,3.1,4.5c1,1.5,2.1,3,3,4.5c1.9,3.1,3.9,6.1,5.7,9.3
			c0.9,1.6,1.8,3.2,2.7,4.8c0.8,1.6,1.7,3.3,2.6,5c0.9,0.1,1.9,1.8,2.8,3.5c0.9,1.7,1.7,3.3,2.6,3.2c0,0.8-0.3,0.2-0.8,0
			c0.7,1.1,1.3,2.1,1.8,3c0.5,0.9,0.9,1.7,1.3,2.5c0.8,1.5,1.4,2.7,1.9,4c1,2.5,1.5,5.1,2.4,9.8c0.9,2.4,1.7,4.8,2.5,7.1l0.3,0.9
			c0.1,0.2,0.1,0.2,0.1,0.2c0,0.1,0,0.1,0,0.1c0,0,0,0,0,0.1l0.1,0.8c0.2,1.2,0.4,2.4,0.6,3.7c0.8,4.9,1.3,9.8,1.8,14.6
			c0.4,4.9,0.7,9.8,0.7,14.6c0.1,4.9,0,9.7-0.3,14.6c-0.3,4.8-0.8,9.7-1.5,14.5c-0.2,1.2-0.3,2.4-0.5,3.6c-0.2,1.2-0.4,2.4-0.6,3.6
			l-0.9,4.5c0,0.3-0.2,0.6-0.1,0.9l0,0.9l0.1,1.6l0.1,1.8c0.2,9.5-0.7,18.8-3.3,27.5c-0.6,2.2-1.3,4.4-2.1,6.5l-0.5,1.5
			c-0.1,0.3-0.2,0.6-0.2,0.9l-0.2,0.7l-0.4,1.9l-0.9,3.8c-1.1,5.1-2.3,10.1-3.4,15.2c-2.3,10-4.6,19.9-7.6,29.5
			c-2.9,9.6-6.5,18.9-11,27.6c-0.6,1.1-1.1,2.2-1.7,3.3l-1.9,3.2l-0.1,0.2c-2.2,0-4.6-0.1-6.8,0.5l0.3-0.5c-3.6,0.4-4.4-0.6-8.7-1.7
			c-0.1,0.6-1.7,0-1.2,1.1c-1.6,0.7-2.6-1.8-4.9-1.5c0-0.4,0,0.6-0.4,0.3c-0.4,0-0.4,0.1-0.5,0.1c-0.1,0-0.2,0.1-0.3,0.1
			c-0.2,0-0.3,0.1-0.4,0.1c-0.2,0-0.2,0-0.1-0.2c0.1-0.2,0.4-0.7,0.2-1.2c0-0.3,0-0.7-0.1-1.1c-1.7-1.7-3.4-3.5-5.1-5.3
			c-1.8-1.8-3.5-3.6-5.3-5.4c-1.7-1.8-3.4-3.6-5.1-5.5c-0.8-0.9-1.6-1.8-2.4-2.8l-1.2-1.4c-0.4-0.5-0.9-1.1-1.3-1.6
			c-0.2-0.2-0.4-0.4-0.5-0.6c0.1,0.1,0.2,0.2,0.3,0.4c0.1,0.1,0.1,0.3,0.1,0.4c0,0.1-0.1,0.2-0.2,0.2c-0.1,0-0.2,0-0.4-0.1
			c-0.1,0-0.2-0.1-0.2-0.2c-0.1-0.1-0.1-0.1-0.2-0.2c0.5-1.9-2.7-1.9-3.5-3.6c0.3-0.2,1,0.3,1.4,0.5c-2.7-3.5-6.1-5.3-8.7-8.7
			c-0.9-0.6-1.8-1.3-2.6-2.1c-0.5-0.5-1-1.1-1.5-1.6c-0.2-0.3-0.5-0.5-0.7-0.8l-0.2-0.2l-0.3-0.3c-0.2-0.2-0.4-0.4-0.6-0.6
			c-0.5-0.3-0.9-0.6-1.4-0.9c-0.3-0.2-0.6-0.4-0.8-0.5c-0.6-0.3-1.1-0.5-1.6-0.7c0.9-0.2-1.3-1.4-1.8-2.1c-3.5,0.2-6.3-4.6-10.1-5.4
			l0.3-0.2c-2.3-1.4-4.7-2.8-7.1-4.3c-1.2-0.7-2.4-1.5-3.6-2.2l-1.8-1.1l-1.5-0.9c-0.6-0.2-1.2-0.4-1.7-0.5c-5.9-1.9-12.1-3-18-3.2
			c-3.3-0.2-6.8-0.9-10.5-1.3c-3.6-0.4-7.4-0.6-11,0.1c-1.3,0.3-0.2,0.7-1.3,1c-1.8,0.1,0-0.6-0.8-0.8c-1.8,0.5-3.8,0.7-6.1,0.8
			c-0.6,0-1.1,0.1-1.7,0.1L380,640l-0.7,0.1c-0.2,0-0.5,0.1-0.7,0.1l-1.7,0.4c-0.5,0.1-1.1,0.3-1.6,0.4c-0.4,0.4-1.6,0.8-1,1.2
			c-2.5,0-5.2,0.8-7.9,1.7l-1,0.3l-0.3,0.1l-0.1,0l0,0c0,0-0.1,0-0.1,0.1c-0.1,0-0.1,0-0.2,0l-0.5,0.1c-0.3,0-0.7,0.1-1,0.1
			c-1.3,0.2-2.7,0.2-3.9,0.1c1.8,1.6-2.7,1.2-4.4,1.8c-1,0-1.1-0.4-0.8-0.8c-1.6,0.2-2.8,0.4-4.1,0.4c-0.8,0.1-1.6,0.1-2.5,0
			c-0.7,0-1.4,0-2.1,0c-0.8,0-1.6,0-2.8-0.1c-1.7,0.1-2.8,0.3-3.7,0.7c-0.5,0.2-1,0.3-1.6,0.4c-0.2,0-0.3,0-0.5,0.1
			c-0.1,0-0.2,0-0.3,0l-0.2,0.1c-0.3,0.1-0.6,0.2-1,0.2c-0.4-0.1-0.7-0.1-1.1-0.1c-0.4,0-0.8,0.1-1.1,0.2c-0.6,0.2-1.3,0.6-1.8,1.1
			c-0.6,0.5-1.2,1.2-1.5,2.1c-0.4,0.9-0.5,1.7-0.6,2.4c0.5-0.2,0.9,0.7,1.4,1.9c0.5,1.2,1.2,2.7,1.7,4.1c-0.7-0.3-1.4-0.6-2.1-1
			c1,2,2.6,4.2,4.5,6.4c0.9,1.1,1.9,2.2,3,3.3c0.5,0.5,0.9,1,1.4,1.5c0.1,0.2,0.1,0.4,0.2,0.5c0.2,0.5,0.4,1,0.6,1.5
			c0.4,1,0.8,2.1,1.2,3.1l0.6,1.6c0.1,0.2,0.2,0.4,0.3,0.6c0.2,0.4,0.4,0.7,0.7,1.1c-0.2,0.4-0.3,0.8-0.5,1.3
			c-0.3-0.1-0.6-0.2-0.9-0.3l-0.1,0.2c0,0-0.1,0.1-0.1,0.1l-0.2,0.2l-0.6,0.8l-1.3,1.5l-0.6,0.8l-1,1.2l-2.1,2.3
			c-0.1,2.2-0.1,4.4-0.2,6.5c0,1.6-0.1,3.2-0.1,4.8l0,2.4l0.1,2.6c0,0.3,0,0.6,0,0.9c0,0.1,0,0.3,0,0.4l0.1,0.4
			c0.2,0.6,0.4,1.1,0.7,1.7c0.4,0.9,0.9,1.6,1.4,2.4c0.3,1.3,1,3,1.9,4.5c0.9,1.6,2,3,2.9,4c0.9,0.6,1.2,0.9,1.7,1.2
			c0.4,0.3,0.8,0.6,1.1,0.9c0.7,0.5,1.4,1,2.4,1.5c0.7,0.9,0.5,1.9,0.5,2.4c0.5,0.8,0.8,1.7,1.2,2.6c0.2,0.4,0.3,0.9,0.5,1.3
			l0.1,0.3c0,0.1,0.1,0.2,0.1,0.3l0.1,0.3c0.2,0.9,1,1.5,0.9,2.5l-0.8-0.1c0,0.2,0,0.4,0,0.6c0,0.1,0,0.2-0.1,0.4
			c0,0.1,0,0.2-0.1,0.5c-0.3,0.9-0.7,1.8-1.2,2.7c-0.9,1.8-1.9,3.6-3.2,4.9c0,0.3-0.1,0.7-0.2,1.2c-0.1,0.5-0.3,0.9-0.3,1.2
			c-0.2,0.6-0.3,1.1,0.5,0.9c-0.3,0.5-0.7,0.4-1,0.4c-0.3,0-0.6,0-0.8,0.7c0.1-0.5,0.2-1.1,0.2-1.6c-0.6,0.5-1.2,0.9-1.8,1.4
			c-0.3,0.2-0.6,0.5-1,0.7c-0.4,0.2-0.7,0.5-1,0.7c-0.8,0.6-1.5,1.2-2.3,1.8c-0.7,0.6-1.4,1.1-2.1,1.7c-1.6,1.3-3.2,2.7-4.8,4
			c-0.2,0.7-0.4,1.5-0.5,2.2c-0.1,0.4-0.2,0.7-0.3,1.1l-0.2,0.9c-0.2,1.1-0.5,2.3-0.8,3.4c-0.1,0.1-0.3,0.3-0.4,0.4
			c-0.1,0.1-0.2,0.2-0.3,0.3c-0.2,0.2-0.3,0.5-0.4,0.8c-0.3,0.3-0.6,0.6-1,1c-0.5,0.6-1.1,1.1-1.7,1.8c-1.1,1.2-2.3,2.5-3.6,3.5
			c-0.7,1.2-1.9,2.5-3,3.9c-0.5,0.7-1,1.4-1.4,2.1c-0.3,0.7-0.6,1.4-0.5,2l-0.7-0.3c-1.1,1.5-2.3,3.3-3.2,5.7
			c-0.2,0.6-0.5,1.3-0.6,1.9c0,0.1,0,0.2-0.1,0.3c-0.5-0.1-0.9-0.2-1.4-0.3c-1.3-0.2-2.6-0.5-3.9-0.7l-3.8-0.9l-3.8-0.8l-1.9-0.4
			l-1.9-0.5c-2.5-0.7-5-1.3-7.5-1.9c-2.5-0.7-4.9-1.5-7.4-2.2l-0.8-0.3c-0.2-0.1-0.3-0.1-0.4-0.1c-0.4-0.3-0.8-0.6-1.2-0.9
			c-1.4-1-2.8-1.9-4.2-2.9c-2.7-1.8-5.4-3.7-8.1-5.5c-2.6-1.8-5.1-3.6-7.4-5.3c-2.3-1.7-4.3-3.4-6.2-5.1c-1.5-1.2-1,0.3-2.2-0.7
			c-1.4-2.2,0.7-0.5,0.4-1.5c-0.1,0-0.4-0.4-0.6-0.7c-0.2-0.3-0.5-0.6-0.7-0.9c-0.2-0.3-0.6-0.5-0.8-0.8c-0.3-0.2-0.6-0.5-0.9-0.7
			c-0.7-0.5-1.4-1.1-2.1-1.7c-1.4-1.2-2.8-2.6-4.2-4c-2.8-2.8-5.6-5.8-8.4-8.6c-1-0.3-2.6-1.8-2.6-0.8c-2.4-3.7-6-7.3-9.3-11
			c-1.7-1.9-3.3-3.8-4.6-5.8c-0.4-0.5-0.7-1-1-1.5c-0.3-0.5-0.6-1.1-0.9-1.6c-0.2-0.3-0.3-0.5-0.5-0.7c-0.1-0.2-0.4-0.5-0.4-0.6
			c-0.2-0.3-0.3-0.5-0.5-0.8c-0.3-0.5-0.6-1-0.9-1.5c0,4-4.4-3.5-6.7-5.8c-1-1.5-0.6-2.1,0.1-1.9c-1.9-2.4-3.4-4.3-4.8-6.2
			c-1.8-2.5-3.5-5.1-5.7-9.1c-2.4-2.9-4-3.1-6.2-7.1c0-1.1-0.6-2.4-1.4-3.7c0.6,0.1,1.2,0.2,1.8,0.3c0.9,0.1,1.7,0.2,2.6,0.3l0.4,0
			l0.2,0c0.1,0,0.3,0,0.5,0.1c0.2,0,0.4,0.1,0.6,0.1c0.2,0,0.4,0.1,0.7,0.2c1.9,0.5,4.2,1.3,6.5,2.2c2.3,0.9,4.8,1.9,7.3,2.9
			c2.5,1,5.1,2.1,7.9,3c1.4,0.5,2.9,0.9,4.5,1.3c1.6,0.4,3.3,0.7,5.3,0.8c2.4,0.1,4.9-0.1,7.1-1.1c0.5-0.3,1.1-0.5,1.6-0.8l0.8-0.5
			c0.1-0.1,0.2-0.2,0.4-0.2l0.4-0.3c0.2-0.2,0.5-0.4,0.7-0.6l0.5-0.4l0.8-0.7c2.1-1.8,4.3-3.8,6.4-6c0.6-2.1,1.9-3.9,3.2-6
			c1.2-2,2.3-4.4,2.5-6.8l0.4,0.5c0.1-0.5,0.2-0.9,0.3-1.3c0.1-0.4,0.2-0.8,0.3-1.1c0.2-0.7,0.5-1.3,0.8-1.9c0.3-0.6,0.7-1.3,1-2.1
			c0.4-0.8,0.8-1.8,1.1-2.8c-0.7-0.2,0.1-1.7-1.2-1.3c-0.8-1.7,2-2.5,1.7-4.8c0.4,0-0.7,0-0.3-0.5c-0.9-5.8,0.6,1.2,2.3-6
			c0.1-2.1,0-4.2,0-6.3l0-1.6l0-0.8c0,0,0-0.1,0-0.2l-0.2-1c0.1-0.2,0.3-0.3,0.4-0.5l0.2-0.3l0.1-0.2l0.4-0.4
			c1.1-1.1,2.2-2.2,3.3-3.4c1.1-1.2,2.2-2.5,3.3-3.9c0.5-0.8,1.1-1.6,1.6-2.6c0.4-0.9,0.9-2,1.2-3.3c-0.1,0.4-0.3,0.6-0.5,0.6
			c-0.2,0-0.4-0.4-0.3-1.4c0.3-0.3,0.6-0.8,0.6-1.4c0-0.6,0-1.3-0.4-2.1c-0.1-0.4-0.3-0.8-0.6-1.1c-0.2-0.4-0.5-0.7-0.8-1
			c-0.3-0.3-0.6-0.6-0.9-0.8l-0.5-0.4l-0.9-0.6c-0.3,0-0.6-0.1-0.6-0.3c0.3-0.3,0.7-0.3,0.9-0.3c-0.2-0.4-0.5-0.5-0.8-0.5l-0.2,0
			c0,0-0.2,0-0.1,0l0-0.3c0-0.2,0-0.4,0-0.6c0-0.2,0-0.4,0.1-0.6c0-0.1,0.1-0.2,0.1-0.3l0-0.1c0,0,0-0.2,0.1-0.2l0.1-0.4
			c0-0.1,0-0.3-0.1-0.4c0-0.4-0.1-0.9,0-1.3c0-0.3,0-0.6,0.1-0.8c0.1-0.2,0.1-0.3,0.2-0.4l0.1-0.2c0.1,0,0.2,0,0.2,0
			c0.3,0,0.5-0.2,0.6-0.5c0.1,0.2,0.2,0.3,0.3,0.4c0.1,0,0.1,0,0.2,0c0,0,0.2-0.1,0.3-0.1c0.1,0,0.2-0.1,0.4-0.1
			c0.5-0.2,1-0.4,1.3-0.4c0.8-1.8,2.6-2.7,4.5-3.6c1.9-1,3.9-2,4.9-3.7l0.1,0.4c0.9-0.7,1.8-1.4,2.7-2.2l1.3-1.1l0.3-0.3l0.4-0.4
			l0.8-0.7c2.1-1.9,4.3-4.4,5.7-7.8c0.7-1.7,1.1-3.6,1.2-5.6c0.1-2-0.2-3.9-0.7-5.6c-0.5-1.7-1.3-3.3-2.2-4.7
			c-0.2-0.3-0.4-0.7-0.7-1c-0.1-0.2-0.2-0.3-0.4-0.5l-0.2-0.2c-0.1-0.1,0,0,0,0l0,0c-0.1-0.1-0.2-0.2-0.3-0.3
			c-0.3-0.3-0.8-0.5-1.3-0.8l-0.1-0.1c0,0,0-0.1,0-0.1c0.2-0.3,0.5-0.6,0.9-0.8c0.2-0.1,0.3-0.2,0.5-0.3l0.3-0.1l0.1-0.1l0.1,0
			c0,0,0.1-0.1,0.2-0.1c1-1,2-2,3-3c1-1.1,1.9-2.2,2.8-3.6c0.4-0.7,0.9-1.4,1.3-2.2l0.3-0.6c0.1-0.2,0.2-0.5,0.3-0.7
			c0.2-0.6,0.4-1.1,0.5-1.7c0.3-1.1,0-1.2-0.1-1.3c-0.2-0.1-0.3-0.2-0.3-0.9c0.6-2.5,0.7,0.2,1.1-0.8c-0.1-2.4,0-4.7,0-7.1
			c0-2.3,0-4.8-0.5-7.1c-0.4-0.5-0.8-1.7-1.2-1.2c0.2-2.6-0.7-5.6-1.9-8.5c-0.3-0.7-0.6-1.5-1-2.2c-0.2-0.4-0.3-0.7-0.5-1.1
			c-0.2-0.4-0.4-0.7-0.6-1.1c-0.2-0.4-0.3-0.7-0.6-1.1c-0.2-0.4-0.4-0.8-0.6-1.2c-0.3-0.7-1-1.6-1.5-2.4c0.1,0.8-0.2,1.1-0.5,0.9
			c-0.2-0.1-0.4-0.2-0.6-0.4c-0.2-0.1-0.4-0.3-0.6-0.5c-0.8-0.7-1.7-1.9-2.4-2.4c-0.5-0.7-0.2-1.1,0.2-1.2c-1.1-1.1-1.9-1.9-2.6-2.8
			c-0.9-1.1-1.7-2.4-2.5-4.2c-0.1-0.2-0.2-0.3-0.4-0.4c-0.1,0-0.2-0.1-0.2-0.1c-0.2,0-0.3-0.1-0.5-0.1c-0.3-0.1-0.7-0.4-0.6-0.8
			c0.3-0.2,0.5-0.3,0.6-0.5c0.1-0.2,0.2-0.3,0.2-0.5l0.1-0.3c0-0.1,0,0,0-0.1l0.1-0.3l0.2-0.5c0.3-0.7,0.5-1.3,0.9-1.9
			c-1.3,0.1-1-3.1,0.2-5.2l1.3,1.2c0.2-1,0.4-2,0.7-3.1c0.3-1.1,0.6-2.2,0.8-3.6l0.1-0.5l0.1-0.6l0.1-0.6c0-0.3,0-0.6,0-0.9l0-0.5
			l0-0.1l0-0.3c0-0.2-0.1-0.4-0.1-0.5c-0.1-0.4-0.2-0.7-0.3-1l0-0.1c0,0,0,0,0,0c0.1,0.1,0.1,0.1,0.1,0.2l0,0.1c0,0,0,0.1,0,0l0-0.2
			c0-0.2,0-0.4-0.1-0.6c0.2-0.1,0.4-0.2,0,0c-0.1-0.7-0.1-1.6-0.2-2.4c-0.2-4.4-0.4-9.2-1.6-13.4l0.9-0.7
			c-1.3-8.7-0.1-17.3-1.5-25.7c0.6-2.2,1.2-5.8,1.4-8c-0.1-0.7-0.2-1.5-0.3-2.1c-0.1-0.6-0.2-1.2-0.3-1.7c-0.1-0.5-0.2-1-0.4-1.5
			c-0.2-0.5-0.4-1-0.8-1.6c-0.2-1.3,0.4-2.2,0.7-2.8c-0.3-2.3-0.7-4.8-2.1-7.1c-1.4-2.3-3.8-4-6.1-4l0.1-0.8
			c-2.3-0.5-4.9-0.3-7.2,0.2c-2.4,0.4-4.5,1.1-6.7,1.5c-0.2,0.3-0.6,0.6-1,1c-0.4,0.4-0.9,0.8-1.2,1.2c-0.6,0.8-0.8,1.3,0.2,1.2
			c-1.1,1-1.6-0.4-2.2,1.2c0.1-0.6,0.2-1.2,0.3-1.9c-1.8,1.4-3.1,2.9-4.4,4.3c-1.3,1.4-2.4,2.8-3.5,4c-1.1,1.3-2.2,2.4-3.4,3.4
			c-0.3,0.2-0.6,0.5-0.9,0.7l-0.9,0.5c-0.3,0.1-0.6,0.3-0.9,0.4l-0.5,0.1l-0.2,0.1l-0.1,0l-0.2,0c-1.2-0.7-3.8-0.2-5.9,1.1
			c-2.2,1.3-4,3.2-5.9,4.5c-1.4,2.5-5,5.3-4.7,7.8l-0.7-0.4c-1.1,1.3-2.3,2.9-3.6,4.6c-0.7,0.8-1.3,1.7-2,2.5
			c-0.6,0.7-1.3,1.3-2,1.8c-1.8,1.2-1.1,2.1-2.6,3.5l-0.5-0.7c-1.5,1.4-1.6,2.7-2.1,3.8c-1.8,0.1-1.8,0.7-3.6,0.7
			c1.5-0.9,2.5-2.2,3-3.6c-1.2,0.3-2.3,1.1-3.3,1.8c-1,0.6-2,1.1-3,0.6c-2.1,0.2-3.7,0.7-3.9,1.7c-0.2-0.3-1.4-0.4-0.4-0.9
			c-1.2,0.2-2.1,0.3-2.8,0.6c0.9-1.4,1.9-2.9,2.9-4.3c1-1.5,2-3,3.1-4.5c1-0.5,2.1-1.5,3.2-2.7c0.5-0.6,1.1-1.3,1.7-2
			c0.6-0.7,1.2-1.4,1.9-2.2c1.3-1.5,2.6-3.2,4-4.8c1.5-1.6,3-3.1,4.6-4.4c1.3-2.1,3.9-4.3,6.1-6.5c2.3-2.2,4.4-4.3,5.1-6.4l0.9,0.6
			c1.2-1.1,2.6-2.2,4.1-3.4c1.5-1.2,3-2.4,4.6-3.7c3.3-2.4,6.7-5.1,10.4-7.4c2.1-1.4,2.9-2.4,3.6-3.3c0.7-1,1.2-1.9,2.7-3.3l0.8,0.7
			c1.6-1.5,2.4-2.7,3-3.8c0.5-1.1,0.8-2,1.2-2.9c3.2-1.2,3.1-2.1,6.3-3.3c-2.4,2.2-4.1,4.7-5.2,7c2.3-1.3,4.3-3.2,6.1-4.8
			c1.8-1.6,3.5-2.9,5.3-3.1c3.8-2,6.6-3.9,6.6-5.2c0.5,0.1,2.5-0.7,1,0.7c1.6-0.9,2.9-1.7,3.9-2.5c0.8-0.6,1.6-1.2,2.2-1.8
			c-0.6,0.3-1.4,0.6-2,1c0.9-1.7,3.8-3.2,2.5-4.2c-1.3,1.2-1.3,1.4-3.2,2.4c0.3-1.4,5.2-4.4,6.8-4.2c2,0.2-2.5,3.4,0.1,2.7
			c2-2,4.1-4,6.2-6c-1.5,1.1-3.6,1.5-3.4,0.4c-1,0.8-2,1.5-2.9,2.3l-0.4-1.1c-2.6,1.7-5,2.8-7.4,3.9c-2.4,1.2-4.7,2.5-7.2,4.5
			l2.6-0.2c-1.6,1-3,2.2-4.5,3.4c-1.4,1.1-2.9,2.1-4.7,2.5c1.2-1.2-0.1-1.1-0.5-1.6c-0.6,0.6-1.2,1.5-2.2,1.9l0.5-2.5
			c-0.1,3-8.1,6.3-9.3,7.5l0.3-0.6c-5.1,2.5,1.4,0.3-1.7,2.5c-2.8,1.6-2.2-1-5.1,0c-2.3,1.6-5.2,4.2-8.3,6.7
			c-1.5,1.2-3.1,2.5-4.6,3.6c-0.9,0.6-1.8,1.2-2.7,1.8c2-3.1,3.7-6.3,6.2-9.1c1.5-0.9,1.2-2.7,2.1-3.9c1.2-1,2-2.3,2.1-3.9
			c1.8-6.1,1.1-7.4-4.2-8.2c-2.9,3.3-5.2,7.1-7.9,10.5c-6.4,8.1-14.4,14.8-20,23.5c-0.9,1.8-2.2,3.1-4,4c-1.3,1.4-3.1,2.2-4,4
			c-1.7,1.3-3.4,2.7-5.1,3.9c-3.6,2-5.3,6.1-9,8c-0.8,1.5-3,0.6-3.8,2.2c-4.6,4.9-10.4,8.4-16.1,11.8c-0.9,0.5-1.8,0.8-2,1.9
			c-2.9,1.7-4.3,5.4-8.1,5.9l0,0c-0.7,2-2.1,3.3-4.1,4.1c-0.6,0.2-1.2,0.4-1.8,0.7c-3.8,1.8-5.6,5.7-8.7,8.3
			c-5.9,4.9-10.4,11.1-15.4,16.9c-0.9,1.1-0.8,2.9-2.4,3.5c-0.6,1.5-2.5,1.6-3.4,2.7l0,0c-1,2.2-1.1,5-4.1,5.9
			c-2.2,0.6-1.9,3.4-3.8,4.2c-1.1,1.1-1.1,2.6-1.2,4c-0.1,0.4-0.2,0.7-0.4,1c-0.2,0.3-0.4,0.6-0.6,0.9c-1.8,0.8-2.7,2.6-4.1,3.9
			c-5.2,4.5-9.3,10.1-14.1,15.1c-2.3,2.3-4.7,4.5-6.6,7.3c-4.4,6.7-10.3,11.8-17.3,15.6c-1,1.4-3,0.6-4,2l0.1,0.1
			c-1.3,1.4-3.1,0.8-4.6,1c-0.7,0-1.5,0.1-2.1,0.6c-5,2.5-10.2,1.8-15.4,0.5l0.1-0.2c-1.1-1.2-3-0.6-4.2-1.8
			c-7-3.3-9.6-9.8-12.2-16.4c-0.4-1.1-0.9-2.6,0.2-3.8c1.9-1.6,0.7-4.2,2.1-5.9c1.5-3.4,2.9-6.8,5-10c3.5-5.3,7.8-10.1,11.3-15.4
			c2.7-4.1,6-7.8,7.7-12.5c2.5-3,3.3-7.1,6-10.1c2.9-4.1,4.1-8.8,4.1-13.8c1.7-1.7-0.2-4.6,1.8-6.2c2.1-5.6,3.9-11.2,4.2-17.3
			c0.1-1.7-0.6-3.8,1.7-4.8c2.1-1.9,0.3-5,2-7c0.1-0.9,0.1-1.9,0.2-2.8c1.1-1.1,0.8-2.7,1.3-4c1.6-7.4,1.9-15,5.1-22
			c0.4-2.9,2.1-6.4,0.7-8.4c-2.2-3.2-1.9-5.6-0.6-8.6c0.1-0.4,0.2-0.9,0.3-1.3c-0.6-3.2,2.2-5,3.2-7.6c1.2-0.5,1.5-1.7,2-2.7
			c4.6-8.5,9.2-16.9,13.8-25.4c0.8-0.5,1-1.7,2.1-1.9c2.2-1.9,4.7-3.4,6-6.1c0.7-0.6,1.3-1.3,2.1-1.9l0,0c0.7-0.7,1.3-1.5,2.3-1.9
			c0.5-0.1,1-0.2,1.4-0.4c4.2-2.4,7-6.3,10.7-9.3c2.7-2.3,6.3-3.5,8.6-6.4c0.7-0.7,1.2-1.5,2.1-1.9c4.6-1.6,8.3-5,12.7-6.9
			c4.6-2,8.2-5.7,13.1-7.3c0.8-0.6,1.4-1.2,2.1-1.9l0,0c2-2,4.6-2.9,7-4c2-1.3,4-2.7,6-4c1.8-1.7,3.9-3,6.2-3.8
			c1.8,0.2,2.2-1.9,3.8-2.1c1-1.4,3-0.6,4-2c2.6-1.4,5.3-2.7,7.9-4.1c1.1-1.2,3-0.6,4.1-1.9c1.6-0.2,2.2-2.2,4-2c2-1.9,5-0.2,7-2
			c1.1-0.6,1.6-2,3-2.1c1.1-1.3,3-0.7,4.2-1.8c0.6-0.1,1.2-0.2,1.8-0.3c4.5-0.7,7.5-5.5,12.5-4.9c1.3,0,2.5,0,3.6-0.9
			c0.6-0.1,1.2-0.2,1.8-0.3c1.2-1.1,3.1-0.6,4.2-1.7c0.6-0.1,1.2-0.2,1.8-0.3c1.2-1.1,3-0.6,4.2-1.7c1.3-0.1,2.5-0.2,3.8-0.3
			c1.8-1.6,4.4-0.1,6.2-1.7c0.6-0.1,1.2-0.1,1.8-0.2c2.4-1.9,5.7,0.1,8.2-1.8c1.2-0.1,2.5-0.2,3.7-0.3c2.4-1.9,5.7,0.2,8.2-1.8
			c0.6-0.1,1.2-0.2,1.8-0.3c1.6-1.2,3.7-0.5,5.2-1.7c0.3,0,0.6-0.1,0.9-0.2c1.1-1.2,3-0.6,4.1-1.9c1.3-0.1,2.6-0.1,3.8-0.2
			c1.8-1.5,4.3-0.4,6.2-1.7l-0.1-0.2c1.5-1.3,4.7-0.7,5.2-3.1c0,0,0,0,0,0.1c1.1,3.4,3.7,2.1,6,1.2c0.9-0.1,1.8-0.1,2.7-0.2
			c1.8-1.6,4.4-0.2,6.2-1.8c0.6-0.1,1.2-0.1,1.7-0.2c1.1-1.3,3-0.6,4.1-1.9l-0.1-0.1c0.3-0.2,0.6-0.4,0.9-0.6
			c0.4-0.1,0.7-0.2,1.1-0.2c0.8,0,1.5-0.4,2.1-0.9c1.8,0.2,2.3-2,3.9-2.1c1-1.3,3-0.6,4-2c2.2-1.1,3.6-3.3,6-4c2.2-1.5,4.5-2.9,7-4
			l0,0c0.7-1,2.4-0.9,2.8-2.2c0.1-1.1,1-1.6,1.8-2.2c5.5-3.9,10.9-7.8,16.3-11.6c1.6-2,4.1-2.6,6.2-3.9c2.3-0.1,3.7-1.9,5.5-3.1
			c3.5-2.3,6.8-4.8,10.2-7.2c1.3-2.3,1.8-5.4,5.3-5.7c6.7-7,13.3-14.2,18.9-22.1c1.8-1.7,2.6-4,4-6l0,0c1.9-1.5,2-4.4,4.5-5.4
			c0.6-0.7,0.6-1.6,1-2.4c0.4-0.8,0.8-1.5,1.6-2l0,0c1.1-1.3,1.6-3,3-4c1.6-3,1.5-6.8,4.3-9.2c0.7-0.9,0.7-2.2,1.5-3l0,0
			c1.5-0.9,0.8-3,2-4c0.1-0.6,0.2-1.1,0.3-1.7c0.4-0.9,1.2-1.5,1.7-2.3l0,0c1.5-0.9,1.3-2.7,2-3.9l0,0c0.9-1.2,0.6-3.1,2.2-3.9l0,0
			c1.1-1.1,0.5-3.1,1.8-4.1c1.3-2,2.6-4.1,3.9-6.1c1.6-0.8,0.7-3,2.2-3.8c2.4-2.1,3.5-4.9,4-8c1.2-1.1,0.6-3,1.7-4.2
			c0.1-0.6,0.2-1.2,0.3-1.8c1.2-1.1,1-2.9,1.9-4.1l0,0c1.3-1.1,0.6-3,1.9-4.1l0.1,0.1c1.3-1.1,0.7-3,1.8-4.2
			c0.1-0.6,0.1-1.2,0.2-1.8c0.9-1.1,0.8-2.6,1.4-3.9c0-2.4,2-3.9,2.7-6c1.2-1.1,0.3-3.2,1.9-4.1l0.1,0.1c1.5-1.7,0.6-4.3,2-6.1
			c3.9-4.7,7.1-9.7,8-16c1.5-1.7,0.7-4.2,1.9-6.1c0.5-0.8,0.8-1.8,1.8-2.1c2.1-1.4,0.8-4.1,2.2-5.8c2.1-8.5,6.3-16.2,10-24
			c1.3-3.6,1.6-7.1,0.2-10.7h-6.8c-1.4,1-2.6,2.6-3.3,4.8c-1.1,1.5-0.6,3.6-1.9,5c-1,2-2,3.9-4.2,4.9l-0.1-0.1c-1.2,1-0.5,3.1-2,4
			l0,0c-1.3,1-0.5,3.1-2,4c-2.2,3.9-4.5,7.6-6.3,11.8c-0.9,2.2-1.1,4.9-3.4,6.4c-1.6,1.7-0.5,4.3-2.1,5.9l0,0c-0.9,1.2-0.7,3-2,4
			c-1.1,2.7-4.3,4.4-4.1,7.9c-1.1,3.4-2.5,6.8-4.1,10c-1,0.4-1.4,1.3-1.8,2.2c-1.5,1.7-0.4,4.3-2.1,5.9l0,0c-1.3,2-0.7,4.8-2.7,6.5
			c-0.4,0.5-0.9,1-1.3,1.5l0,0c-1.5,1-0.8,3-1.9,4.1c0.3,2.3-2,3.7-2.2,5.8c-1.2,1.8-0.3,4.4-2,6c-3.2,4.3-6.2,8.7-8.1,13.8
			c-1,1.2-0.5,3.1-1.8,4.2c-0.6,1.4-1.3,2.7-1.9,4.1c-1,1.2-0.7,2.9-2,3.9c-0.1,0.6-0.2,1.3-0.3,1.9c-0.2,1.1-1.2,1.4-2,1.9
			c-2.8,2.1-3.5,5.7-5.7,8.2c-1.6,3.1-0.8,7.3-4.3,9.6c-1.1,2.2-1.1,5-3.8,6.3c-2,2.7-4,5.3-6,8c-1.3,1-0.6,3-2,4
			c-4.5,6-8.9,12.1-13.5,18c-5.7,7.3-13.5,12.2-20.5,18c-1,1.3-3,0.6-4,2c-1.4,1.2-3.4,1.9-4.1,3.8c-0.8,1.7-3,0.8-3.9,2.1
			c-2.2,0.3-2,2.8-3.6,3.8c-9.9,6.1-18.7,13.7-28.3,20.3c-1.1,1.3-3,0.7-4.2,1.8c-0.6,0.1-1.2,0.2-1.8,0.3c-1,0.8-2.3,0.9-3.3,1.7
			c-0.6,0.1-1.1,0.2-1.7,0.3c-1,0.5-2,1-2.8,1.7c-1.4,0.8-2.4,2.6-3.9,2.8c-2.4,0.4-3.3,1.5-3.6,2.9c-0.8-1.8-2.5-2.5-4.7-2.5
			c-1.8,0.1-3.6-0.3-5.2,0.9c-1.6,0.1-3.1,0.2-4.7,0.3c-2.5,1.9-5.8-0.2-8.3,1.8l0.1,0.1c-1.1,1.2-3,0.6-4.2,1.8
			c-1.3,0.1-2.5,0.2-3.8,0.3c-1.5,1.1-3.2,0.7-4.8,0.8c-1.2,0-2.4,0-3.3,1l0.1,0.1c-1.4,1.1-3.2,0.7-4.8,0.8c-1.2,0-2.4,0-3.4,0.9
			c-0.6,0.1-1.3,0.1-1.9,0.2c-1.8,1.4-4.4,0.3-6.2,1.8l0.1,0.1c-1.7,1.8-4.4,0.3-6.2,1.8c-1.8,0.1-3.7,0.2-5.5,0.3
			c-1.3,1-3.1,0.5-4.3,1.8c-0.3,0.1-0.5,0.2-0.8,0.2c-1.5,1.1-3.7,0.4-5.2,1.8l0.1,0.1c-1.1,1.2-3,0.6-4.1,1.9
			c-0.6,0.1-1.2,0.2-1.8,0.2c-1.2,1.1-3,0.6-4.3,1.6c-0.6,0.1-1.2,0.1-1.8,0.2c-1.3,1.6-3.7,0.4-5.1,1.9c-0.3,0.1-0.6,0.1-0.9,0.1
			c-1.3,1.6-3.8,0.3-5.1,1.9c-0.3,0.1-0.6,0.1-0.8,0.1c-0.8,0.7-1.9,0.8-2.8,1.2c-1,1.1-2.4,1.6-3.5,2.5l0,0c-1.5,2.1-4.4,0.3-6,2
			c-1.7-0.1-2.6,1.3-3.8,2.2c-1.1,1.2-3,0.6-4.1,1.9l-0.1-0.1c-0.9,1.5-3,0.7-3.9,2.1c-4.2,2.3-8.7,4.3-12,7.9c-2,1.5-3.9,3-6.2,3.9
			c-2.8,0.9-5.1,2.9-7.7,4.2c-0.7,1-2,0.9-2.8,1.7c-1,2.3-3.9,0.5-5.2,2.4c-3.3,2-6.7,4-10,6c-1,1.4-3,0.7-4,1.9
			c-2.8,1.8-5.7,3.5-8.1,5.9c-0.6,3.3-4,2.7-5.9,4.1c-0.6,0.3-1.2,0.5-1.7,0.9c-5.8,5.2-11.9,10.2-17.8,15.3
			c-3.6,3.1-7.5,6-10.2,9.8c-3.9,5.6-7.8,11.3-10.5,17.6c-1.1,1.2-0.4,3.3-2.1,4.1c-3.7,4.2-5.2,9.5-7.7,14.3
			c-1.7,1.5-0.2,4.3-2.4,5.6c-1.2,0.2-1.7,1-1.8,2.1c-1.2,1.1-0.5,3.1-2,4.1l0,0c-0.9,2.9-1.7,5.8-4,8c-3.5,4.8-6.4,9.9-8.2,15.7
			c-1.1,2.8-0.2,6.7-4,8.1l0.1,0c-0.8,2-2.3,3.6-2.8,5.7c-0.3,0-0.7,0.1-1,0.5l0,0c-0.9,1.2-0.7,3-2,4l0,0c-0.9,1.2-0.6,3-2.1,3.9
			c-0.5,0.6-1.2,1.2-1.5,2c-3.3,8.1-8.4,15.4-10.5,24c-1.3,1.8-0.2,4.4-2.1,6c-0.6,0.7-1.2,1.5-1.8,2.2c-1.3,1.6-0.5,4.1-2.4,5.5
			c-1,1.3-0.3,3.2-1.7,4.3c-0.7,2-1.3,4-2,6c-1.1,1.8-0.7,4.2-2.1,5.9l0,0c-1.2,1.1-0.5,3.1-1.9,4.1c-0.6,2-1.3,4.1-1.9,6.1
			c-1.5,1.7-0.3,4.3-2.1,5.9c-3.4,7.6-6.1,15.4-6,23.9c-2,3.1,0.5,7.1-1.9,10.1c-0.4,2.6-0.8,5.2-0.1,7.8c-0.7,1.9-0.9,3.9-0.9,5.9
			c0.3,17.6-0.5,35.2,0.3,52.8c0.1,1.5-0.4,2.5-1.4,3.5c0,0.7,0.1,1.3,0.1,2c1.4,1.6,1,3.7,1.5,5.5c0.4,1.1,0.3,2.1-0.3,3.1
			c-0.9,2.4,1,5.3-1.2,7.5c0,9.3,0,18.7,0.1,28c-0.9,1.2-1,3-0.2,3.7c3,2.6,1.5,5.6,1.2,8.6c-0.1,1.3-0.8,2.5-0.2,3.9
			c0.3,0.7,0.3,1.3,0.3,2c0,0.7,0,1.4,0.1,2.1c-0.1,2.3,0,4.6,0,6.9c0,10.4-0.5,20.8,0.8,31.1c-0.2,1.9-0.4,3.8,0.2,5.7
			c2,2.3,0.2,5.6,2,7.9c0.8,2.3,1.6,4.6,2,7.1c0.6,4.3,3.5,7.6,6,11c1.6,1.7,0.6,4.2,2,6c0.6,0.7,1.2,1.5,1.9,2.2
			c1.3,0.9,1.7,2.7,3.4,3.1c1.2,0.7,1.8,1.9,2.6,3c0.5,2.3,2.6,2.7,4.2,3.7c2.3,2.2,5.7-0.1,8.1,1.9l-0.1,0.1
			c2.1,1.3,4.4,1.1,6.7,0.6c1-1.1,2.4-1.6,3.3-2.8c0.1-1.6,0.8-3.2,0.9-4.8c0.2,0.3,0.4,0.7,0.6,1c1.3,1.8,3.2,0.9,4.9,0.1
			c1.6,0,3.1-0.2,3.6-2.1c2.4-0.6,2.4-0.6,4,3.9l0,0c1.9,2.3,0.2,5.6,2,8c0.7,2,1.3,4,2,6c1.3,1.1,0.8,3,1.8,4.2
			c-0.1,2.1,1.3,3.8,2.4,5.3c1,1.4,1.6,2.8,1.9,4.4c1.3,1.1,0.6,3,1.9,4.1c1.3,1.7,2.7,3.3,3.7,5.3c1.9,3.8,4.7,6.7,8.3,8.7
			c1,1.3,3.1,0.6,4,2c0.7,0.6,1.4,1.3,2.1,1.9c1.2,1.4,1.4,2.7-0.2,3.9c-2.1,1.8-1.9,4.5-2.7,6.8c-4.1,11.6,2.5,25.1,11.6,29.6
			c2.4,1.2,4.8,2.5,7.2,3.8c1.1,1.3,3,0.6,4.1,1.9l-0.1,0.1c2,1.6,4.6,0.5,6.8,1.4c1,0.3,1.9,0.7,2.8,1.2c2.3,1.6,4.5,0.7,6.5-0.6
			c1.9,0,3.9-0.1,5.8-0.1c1.2-1.2,2.8-0.9,4.2-0.9c1,0,2,0,3.1,0c0.4,0,0.8,0,1.2-0.1c0.8-0.1,1.7,0.1,2.5,0.1
			c1.1,0,2.2-0.1,3.1-0.9c0.6-0.1,1.2-0.1,1.8-0.2c1.7-1.6,4.5-0.1,6.1-1.9l-0.1-0.2c2.3-0.6,1.8-3.2,3.1-4.6
			c1.5,0.1,2.4,1.9,4.1,1.7c0.5,0,0.9-0.1,1.3-0.3c1.2-2.3,4.1-0.9,5.6-2.6c0.6,0,1.3,0,1.9,0c0.7-0.9,1.8-0.9,2.7-1.3
			c1-1.2,2.3-1.8,3.9-1.6c0.9,0,1.8,0,2.5-0.6c0.9-2.1,3.6-0.7,4.8-2.4l0,0c1-1.4,3-0.6,4-2c1.6-0.1,2.2-2.1,3.9-2.1
			c1.1-1.2,3.1-0.5,4.1-1.9c1-0.3,1.5-1.1,2.1-1.9c1.5-2,4.4-0.3,6-2c0.6-0.1,1.2-0.1,1.8-0.2c0.8-0.9,2.1-0.8,2.9-1.6
			c1.2-2.2,3.9-0.6,5.4-2.2c0.3,0,0.5-0.1,0.8-0.2c2.1-2.8,4.9-3.3,8.1-2.9c0.7,0,1.4-0.1,2-0.5c0.6-1.2,2.5-1.7,2.4-3
			c-0.1-3.4,1.7,1.2,1.9-0.5c1,0.1,1.9-0.2,2.7-0.8c1.7-0.1,2.9-0.9,3.9-2.1c1.3-1.4,3.1-0.9,4.7-1c1.2,0,2.4,0,3.4-0.9
			c1.6-0.1,2.3-2,4-2c1.6-1.8,4.4-0.3,5.9-2.1c1.6-0.2,2.4-1.9,4-1.9c1-1.3,3-0.6,4.1-1.9l-0.1-0.1c1.1-1.3,3-0.8,4.3-1.8
			c0.6-0.1,1.1-0.1,1.7-0.2c1-1.3,3-0.7,4.1-1.9l-0.1-0.1c1.7-1.8,4.4-0.2,6.2-1.9c1.7,0.1,2.7-1.2,3.8-2.1c1-1.4,3-0.7,4.1-1.9l0,0
			c1.5-2.1,4.3-0.3,6-2l-0.1-0.1c1-1.5,3-0.9,4.2-1.9c0.3,0,0.5,0,0.7-0.2c2.1-1.5,3.1-3.3,2-5.9c-1.1-2.2-3.7-0.7-5.1-2
			c-0.5,0-0.9,0-1.4,0c-1.7-0.7-4.2-1.8-4.3-2.5c1.6,0.3,4.7,0.9,5.1,1.5l-1.3-0.1c0.7,0,2.1,0.5,3.1,0.7c1,0.2,1.6,0.1,0.6-0.7
			l2.9,2.3c1.4-0.6,4.7,0.2,7.4,0.6c-0.1,0.6-0.7,1.1-0.7,1.7c0,0.6,0.6,1.1,3.1,1.7l4.6-0.4c2.3,0.3,2.9,0.7,2.4,1.4
			c3.9,1,6.1,0.4,8-0.1c1.9-0.6,3.6-1,6.6-0.1c-2.8,1.2-0.6,1.5,2.1,2.3c0.1-0.2,0.5-0.7,1.6-0.6c-0.7-0.8-1.8,0.8-3.8-0.4
			c-0.5-1,2.6-0.3,3.9-0.5c1.3,0.9,3.1,1.6,5.2,2c2.1,0.4,4.5,0.6,7,0.8c1.3,0.1,2.6,0.2,3.8,0.2c1.3,0,2.6,0.1,3.9,0.1
			c2.6,0.1,5.1,0.4,7.3,0.8c-0.6-1.8,4-0.5,5.9-1.1c-0.6,1.8,5.1-0.2,7.5,0.8l-1.4-1.8c5.5,0.9,8.8-2.9,12.3-0.9
			c3.1,0.4-1,1.4-2.3,1.7c2.2,0.9,5,0.3,7.7-0.2c1.4-0.3,2.7-0.5,3.9-0.6c1.2-0.1,2.3,0,3.2,0.5c0.3-0.8-1-1.9,2.6-2.8
			c1.5,0.3,3.8,0.5,5.6,0.7c1.8,0.2,3.2,0.3,2.9,0.5c2.4-0.6,3-1.3,5.7-1c-0.2,0.5-1.3,0.7-2.2,1c0.8,0,1.5-0.1,2.2-0.1
			c-0.3,0.2-0.6,0.4-0.9,0.5c-1,1.4-3,0.6-4,2c-4,2-8,4-11.9,6.1c-1,1.2-2.5,0.8-3.7,1.2c-1.1,1.1-2.1,2.4-3.8,2.8
			c-1.5,0.8-3.3,0.8-4.6,1.9l0,0c-1.1,1.2-2.9,0.8-4.1,2c-2.3-0.3-3.7,1.9-5.8,2.2c-1,1.3-3,0.6-4,1.9c-0.3,0.1-0.6,0.1-0.9,0.1
			c-0.9,0.6-2,0.8-2.9,1.2c-1.1,1.4-3,1.6-4.3,2.6l0,0c-1.3,0.9-3,0.9-4.3,1.9c-0.3,0-0.6,0-0.8,0c-0.9,0.7-1.6,1.5-0.9,2.7
			c-1.2-1-2.4-1.9-4-0.7c-1.6,0.1-2.3,2-3.9,2.2c-1.1,1.2-3,0.7-4.2,1.8c-2.3-0.3-3.9,1.5-5.9,2.1c-1.3,1.7-3.7,0.4-5,1.9
			c-2.7,0.7-4.8,2.4-7,4c-1,1.4-3,0.8-4.1,1.9c-0.6,0.1-1.2,0.2-1.8,0.3c-1.1,1.2-3,0.6-4.1,1.8c-1.6,0.2-3.2,0.3-3.9,2
			c-1,1.5-3,0.8-4.1,2l0-0.1c-1.5,2-4.3,0.3-5.9,2.2c-0.6,0.1-1.2,0.1-1.7,0.2c-1.2,1-3.1,0.5-4.3,1.8l0,0.1c-1.1,1.3-3,0.6-4.1,1.9
			c-2.7,1.3-5.3,2.7-8,4c-1.7,1.7-4.4,0.3-6,2l0,0c-0.9,1.4-3,0.6-3.9,2.1c-1.1,1.2-2.4,2-4,2.1c-0.8,0.8-1.9,0.9-3,0.9
			c-1.1,0-2.3,0-3.1,1c-1,0.7-1.9,1.3-2.9,2c-3.4,2.6-7.7,3.5-11.2,5.9c-0.9,1.5-3,0.7-4,2c-3,0.2-4.7,3-7.3,3.8
			c-6.6,2-12.2,5.8-18.6,8.3c-1.1,1.2-3,0.6-4.1,1.9l0,0c-1,1.3-3,0.6-4,2l-0.1-0.1c-0.9,1.5-2.9,0.8-3.9,1.9c-1.7,0-2.9,0.9-4,2.1
			c-0.9,1.5-3,0.7-4,2c-2.2,0.1-3.4,2.6-5.8,2.2c-1.1,1.2-3,0.6-4.2,1.8l0,0.1c-1.4,1.4-3.7,0.5-5.1,1.9c-1.2,0.3-1.5,1.9-2.9,2.1
			c-1,1.4-3,0.7-4.1,1.9l0.1,0.1c-1.4,1.4-3.7,0.5-5.1,1.9l-2.7,0.2c-0.8,0.7-1.9,0.8-2.8,1.3c-0.9,2.6-3.9,0.9-5.3,2.5
			c-0.6,0.1-1.3,0.2-1.9,0.2c-0.7,0.6-1.5,0.8-2.3,0.9c-0.4,0.1-0.8,0.3-1.2,0.5c-1.3,1.2-3.3,1.2-4.7,2.3c-0.6,0.1-1.2,0.1-1.8,0.2
			c-1.7,1.7-4.4,0.1-6.1,1.8c-0.6,0.1-1.2,0.1-1.8,0.2c-1.4,1.2-3.1,0.8-4.7,0.9c-1.2,0-2.4,0-3.4,0.9c-3.9,0.6-7.8,1.4-11.7,1.7
			c-4.7,0.4-9.5,0.4-13.9-1.8c-3.8-4.3-6.1-9.2-5.1-14.9c0.7-4.1,1.8-8.3,2.7-12.4c1.5-6.4,4.4-12.2,7.2-18c1.8-3.7,0.9-4.9-3.3-4.6
			c-0.5,0.1-1.1,0.2-1.6,0.2c-1.3,1-0.8,3-2.2,3.9l0.1,0c-1,1.2-0.6,3-2.1,3.9c-1.3,2.7-2.7,5.3-4,8c-1.9,2.2,0.9,5.9-2.3,7.7
			c-1,1.3-0.3,3.2-1.7,4.3c-0.5,1.7-0.9,3.5-1.4,5.2c-1.4,4.9-1.5,10-0.1,14.6c1.6,4.9,5,9.1,9.4,12.2c1.6,1.8,4.4,0.1,6,1.9
			c0.6,0.1,1.2,0.1,1.8,0.2c1.8,1.5,4.4,0.1,6.2,1.7c6.7-0.2,13.4,0.6,19.8-2c1.7-1.7,4.4-0.1,6.1-1.8c3.7,0,6.9-2.9,10.8-2.2
			c1.4-1.4,3.8-0.3,5.2-1.8l0,0c0.9-1.4,3-0.7,4-2c0.6-0.1,1.1-0.1,1.7-0.2c1.3-1,3.2-0.5,4.3-1.8c3.5-1.4,3.5-1.4,3.9,1.8
			c-1.2,2.8-1.3,6.1-4,8.1l0.1,0c-1.6,5.4-1.3,10.9,0,16.3c0.1,0.6,0.1,1.2,0.2,1.7c1.3,1.1,1.1,2.8,1.9,4.1c-0.1,1.2,0.5,2,1.8,2.1
			c2,0.7,3.1,2.3,4.1,4c1.7,3.3,5.2,4.2,8.1,5.9c1.5,1.3,3.6,0.7,5.2,1.7c0.9,0.1,1.9,0.1,2.8,0.2c1.7,1.7,4.4,0.2,6.1,1.9l-0.1,0.1
			c1.7,1.9,4.4,0.3,6.2,1.9c1.3-0.2,2.6,0.1,3.8-0.8c1.3-1,2.8-1,4.2-0.3c2.5,1.3,5.1,0.9,7.7,1c1.6-1.1,3.4-0.7,5.2-0.9
			c2.4-0.2,4.9,0.7,7-1c0.6,0,1.2-0.1,1.8-0.1c3.1-2.1,7.1,0.5,10.2-1.9c2.8-1.8,5.9-1.6,9-2c1.6-1.5,3.7-0.8,5.6-1
			c1.2,0,2.5,0.1,3.4-1.1l0,0c1.2-1.4,3.2-0.6,4.6-1.4c1.2-2.3,4.1-0.9,5.5-2.5l0,0c1.3-1.5,3-0.9,4.6-1c1.2,0,2.4,0,3.3-1.1l-0.1,0
			c1.2-1.1,3-0.6,4.2-1.7c0.6-0.1,1.2-0.2,1.8-0.3c1.3-1.2,3-0.8,4.5-0.9c0.7,0,1.4-0.1,2-0.4c1.3-2.3,4.1-1,5.7-2.4
			c1.7,0.1,2.6-1.3,3.8-2.1c2.2-2.2,5.7,0.2,7.9-2.1c1.6-0.1,2.3-2.1,4-2c1.3-1.6,3.6-0.6,5-2l0,0c1.7-1.7,4.3-0.4,6-1.9
			c0.3-0.1,0.6-0.1,0.9-0.2c1.1-1.2,3-0.6,4.1-1.8l0-0.1c0.9-1.4,3-0.6,3.9-2.1l0,0c1-1.3,3-0.6,4.1-1.9c1.6-0.1,2.2-2.1,3.9-2.1
			c1.1-1.3,3-0.6,4.1-1.9l0-0.1c1-1.3,3-0.7,4.1-1.9l0,0c1-1.5,3-0.8,4.1-1.9c2.4,0.4,3.7-1.9,5.8-2.2c1.1-1.2,3.1-0.5,4.1-1.9
			c8.9-5.4,17.9-10.7,26.8-16.1c0.7-0.5,1.5-0.9,2-1.6c1-2.3,3.9-0.4,5-2.3c4-2.7,8-5.3,12-8c1-1.3,3-0.8,4-2l-0.1,0
			c1.1-1.2,3.1-0.6,4.1-1.9c4.6-3.4,9-7.2,13.9-10.1c0.7-0.6,1.4-1.2,2-1.9l0,0c1.3-1.2,2.7-1.5,3.9,0.2c0.8,2.6,1.1,5.5,2.4,7.8
			c1.7,3,3,6.5,6.5,8.1c2.1,0.8,4.3,1.5,5.2,3.8l-0.1,0.2c1.7,1.7,4.4,0.1,6.2,1.8c7.4,0.3,14.7,0.7,21.8-2c1.1-1.2,3-0.6,4.1-1.8
			c4.9-2.8,10-5.2,14.7-8.4c3.3-2.2,7.1-3.9,9.3-7.6c0.8-1.6,3-0.7,3.9-2.1c3-2.6,6-5.2,9.1-7.9c1.6-1.4,3.3-2.8,4.9-4.1l0,0
			c0.7-0.6,1.3-1.4,2.3-1.8c4.3-2.2,7.4-6.1,11.7-8.2c1-1.3,3-0.6,4-2l0,0c1.1-1.2,3-0.6,4.1-1.8c4-0.3,7.9-0.6,11.9-0.1
			c1.4,1.2,3.1,1,4.7,1c8.7,0,17.4,0.1,26.1,0c2.1-0.4,3.4-2.1,5.2-2.9l-0.1-0.1c1.1-1.3,3-0.7,4.2-1.9c1.7,0,2.9-0.7,3.9-2.1
			c2.1-1.8,4.6-2.9,7-4c3.3-3,6.8-6,10-9.2c3.4-3.3,6.8-6.5,9-10.7c1.2-1.9,2.4-3.9,4.4-5.1c1-1.3,2.3-2.2,3.4-3.3
			c3.6-6.5,9.4-11.5,13-18c0.8-1.4,1.5-3,3-3.8c1.8-1.6,3.1-3.7,4.3-5.8c1.9-0.9,2.1-3.1,3.7-4.2c1.6-0.8,1.2-2.7,2.1-3.9
			c0.6-1.3,2.1-2.1,2.1-3.8c0.7-2,2.1-3.3,3.9-4.2l0,0.1c4.8-5,8.7-10.7,13-16c2.3-2.7,4.6-5.3,6.9-8c1.5-3,4.4-4.7,6.5-7.2
			c1-0.6,0.5-2.1,1.6-2.8c1.4-0.3,2.3-1.6,2.9-2.5c2.2-3.7,5.1-6.8,8.2-9.7c0.4-0.4,0.5-1.2,0.8-1.7c0.6-0.8,1.3-1.4,1.9-2.1l0,0
			c2.6-3.4,5.1-6.9,8.1-9.9c0.5-0.1,1.1-0.2,1.6-0.3c1.8-0.7,0.9-2.9,2.2-3.9c0.6-1.6,1.8-2.8,3-4c1.7-0.9,2-2.7,3-4.1
			c2.1-3.2,4.2-6.5,6.2-9.7c0.6-2,3.2-2.8,3-5.3c0.3-0.3,0.6-0.6,0.8-1c0.9-0.8,1.8-1.7,2.7-2.6c0.4-0.4,0.9-0.9,1.4-1.2
			c2.4-2.4,4-5.4,5.9-8.1c1.4-0.9,0.6-3,2.1-3.9c0.9-0.5,1.3-1.3,1.8-2.1c1.5-0.9,0.7-3,2.1-3.9c0.4-0.6,0.7-1.3,1.1-1.9
			c1.8-4.5,4.4-8.6,6.3-13c0.9-2.1,2.9-3.5,3.2-6c1-7.7,6.6-14,7-21.9c0-0.5,0.9-0.9,1.3-1.5c0.3-0.3,0.7-0.6,1-1
			c1.5-11.9,4.5-23.4,7.2-35c1.7-1.9,1.2-4.3,1.4-6.6c0.8-7.6,0.3-15.4,4.1-22.5c0.1-2.2,1.4-4.1,2.1-6.1c0.3-2.6,2.6-4.2,3.5-6.4
			c2.7-1.2,3.9-3.8,5.5-6.1c1.5-2.1,2.7-4.5,4.7-6.3c7.9-7.3,14.3-16.1,22.4-23.3c1.7-1.5,2.3-4.1,4.8-4.6c1.9-0.7,1-3,2.2-4.1
			c2.4-3.5,6.1-5.9,8.1-9.7c1.1-1.2,1.4-3.1,3-4l0,0c1-1.4,1.7-2.9,3.1-3.9c1.2-0.2,1.5-1.2,1.8-2.2c1.5-0.8,1-2.8,2.2-3.8l-0.1,0.1
			c0.5-0.9,1.2-1.5,1.9-2.2c1.7-1,3-2.4,4.1-4c3.9-5.4,7.8-10.7,11.7-16.1c0.9-3.6,5.2-4.4,6.2-7.9c2.8-6.5,9.1-10.1,12.6-16
			c1.7-2.7,5.1-4.3,5.5-7.9c3.4-4.9,6.8-9.8,11.1-14l-0.1,0c1-1.5,1.5-3.3,2.4-4.9c0.3-1,0.9-1.7,1.7-2.3c0.3-0.3,0.6-0.5,0.8-0.8
			c0.8-0.6,1.8-1,2.8-1.1c1.1-0.1,2.3,0,3-1.2c4.2-5.9,9.8-10.5,14.7-15.7c5.8-6,12.2-11.5,17.8-17.6c3.5-3.7,8-6.5,11.2-10.4v-11.7
			C960,342.1,961.2,344,960.8,345.6z M516.7,429.9l-0.1,0.7l2.7,1.7c1.2,1.4,0.9,1.8,0.1,1.6c-1.7-1.9-3.5-3.8-5.2-5.6
			C514.7,428.2,515.8,429,516.7,429.9z M500.5,414.2c-2.1-2-4.2-3.9-6.3-5.8c0-0.3,0-0.5,0-0.7l0.6,0.5
			C496.7,410.2,498.6,412.2,500.5,414.2z M370.7,365.5c0.2,0,0.3,0,0.5,0c-0.1,0.2-0.2,0.3-0.3,0.5l-0.5-0.6
			C370.5,365.5,370.6,365.5,370.7,365.5z M517.9,543.5c0.3,0.3,0.5,0.7,0.6,1C518.3,544.2,518.1,543.9,517.9,543.5z M526.8,481.3
			l1,3l0.5,1.5l0.1,0.2c0,0,0,0,0,0l0,0l0,0l0,0l0,0l0,0l0,0.1l0,0.5l0.1,1.9c0.1,1.3,0.2,2.5,0.3,3.8c0.2,2.5,0.5,5.1,0.9,7.6
			c0.4,2.6,0.9,5.2,1.7,7.9c0.2,0.7,0.4,1.4,0.6,2.1l0.8,2.2c0.3,0.8,0.7,1.5,1.1,2.3c0.4,0.8,1,1.7,1.6,2.5
			c0.6,0.6,1.4,2.5,2.1,4.4c0.7,1.9,1.3,4,1.8,6.2c0.5,2.2,1,4.4,1.4,6.7c0.2,1.1,0.4,2.3,0.6,3.4l0.1,0.9c0,0.1,0,0.1,0,0.2
			l0.1,0.4c0,0.1-0.1,0.3-0.1,0.4c-0.1,0.1-0.1,0.2-0.4,0.8c-0.6,1-1.2,1.9-1.9,2.8c-0.2,1.8-1.2,3.3-2.4,4.5
			c-1.2,1.2-2.5,2-3.4,2.9c0-0.2,0.1-0.4,0.1-0.6c-0.9,0.6-1.6,0.5-2.1-0.1c-0.2-0.3-0.4-0.6-0.6-1c-0.1-0.2-0.1-0.4-0.2-0.6
			c0-0.1-0.1-0.2-0.1-0.4c-0.1-0.2-0.2-0.3-0.3-0.6c-0.6,0.4-1-1.1-1.6,0c-0.8-0.3-0.8-1.1-0.8-2c0-0.9,0.1-1.9-0.6-2.7
			c0.3-0.2-0.6,0.4-0.5-0.2c-1.9-2.3-1.6-2.2-1.1-2.3c0.5-0.1,1.1-0.5,0.2-4.2c-2.2-4.8-4.5-9.9-7.2-15.1c-0.7-1.3-1.4-2.7-2.2-4
			c-0.9-1.4-1.8-2.8-3.2-4.4c-0.8-0.8-1.6-1.6-3-2.4c-0.4-0.2-0.7-0.4-1.1-0.5c-0.4-0.1-0.8-0.3-1.2-0.4l-0.6-0.1
			c-0.3,0-0.5-0.1-0.8-0.1c-0.5,0-1-0.1-1.6,0c-0.6,0.1-1.1,0.2-1.7,0.4c-0.5,0.2-1,0.4-1.5,0.7c-0.5,0.3-0.8,0.5-1.2,0.8
			c-0.4,0.3-0.7,0.6-0.9,0.9c-0.3,0.3-0.5,0.6-0.7,0.9c-0.2,0.3-0.4,0.5-0.5,0.8c-0.4,0.6-0.6,1-0.8,1.5c0.4-1,1.4-1,0.8,0.5
			c-0.6,0.2-0.9,0.6-1.2,1.1c-0.2,0.5-0.3,1.2-0.3,1.8c0,1.3,0.2,2.6-0.3,3.6c-0.4-0.2-0.3-1.2-0.4-1.8c-0.9,2.8-0.9,5.2-0.9,7.5
			c0,1.2,0,2.3,0,3.5c0,0.6,0,1.2-0.1,1.7c0,0.2-0.1,0.3-0.2,0.5c0.3,0.5,0.3,1.2,0.2,1.5c-0.5,0-0.9,0-1.3,0c-0.1,0-0.1,0-0.3,0.1
			c-0.1,0-0.2,0.1-0.3,0.1c-0.2,0.1-0.4,0.2-0.5,0.4c0-0.4-0.2-0.5-0.5-0.5c-0.7,0.1-1.6,0.3-2.1,0.3c-1.2,1.5-3.3,2-5.6,2.4
			c-2.2,0.4-4.6,0.8-6.3,2.2l0-0.4c-5.7,2-11.5,4.3-17.4,6.9c-2.9,1.4-5.8,2.7-8.6,4.3c-1.4,0.8-2.8,1.5-4.2,2.4
			c-1.4,0.9-2.7,1.7-4,2.6c-1.5,0.9-3.1,1.9-4.8,2.8c-0.8,0.4-1.7,0.9-2.6,1.3c-0.8,0.5-1.7,1-2.6,1.5c-0.9,0.5-1.7,1-2.6,1.6
			c-0.4,0.3-0.9,0.5-1.3,0.8l-1.2,0.9c-0.8,0.6-1.6,1.3-2.4,2c-0.4,0.3-0.8,0.7-1.1,1c-0.4,0.3-0.8,0.7-1,1c-0.7,1,0.3,0.8-0.3,1.6
			c-1.3,1.1-0.4-0.6-1.1-0.3c-1,1.4-2.6,2.5-4.3,3.4c-1.7,0.9-3.6,1.6-5.3,2.2c-0.1,0.2-0.4,0.5-0.7,0.7c-0.2,0.2-0.3,0.4-0.1,0.6
			c-2.2,0-4.4,0.6-6.7,0.7c-2.2,0.2-4.5-0.1-6-1.3c0.2,1.1-0.4,1.2-1.2,0.8c-0.9-0.3-1.8-1.1-2.5-1.3c-0.5-0.6-0.2-1,0.2-1.1
			c-1-0.7-1.6-1.4-2.1-2.1c-0.6-0.9-1.1-2.1-1-3.5c-0.2-0.5-0.5-0.8-0.8-1.2c-0.2-0.4-0.4-0.9-0.1-1.5c0.2-0.1,0.4-0.1,0.5-0.2
			c0.1,0,0.1-0.1,0.2-0.1c0,0,0-0.1,0.1-0.1l0.1-0.1c0.2-0.3,0.5-0.7,0.7-1.1c0.1-0.2,0.3-0.4,0.4-0.7c0.2-0.3,0.3-0.5,0.5-0.8
			c1.2-2.2,2.1-4.5,2.6-6.3c-0.3,0.3-0.6,0.2-0.8-0.1c-0.2-0.3-0.3-0.8-0.5-1.5c-0.1-0.3-0.2-0.7-0.3-1.1c-0.2-0.4-0.4-0.7-0.7-1
			c-0.5-0.5-1.1-1-1.6-1.6c0.8-0.1,1.6-0.1,2.4-0.2c-0.5-0.4-1.1-0.9-1.8-1.3c-0.7-0.5-1.6-0.9-2.5-1.4c-0.4-0.2-1-0.4-1.4-0.6
			l-0.4-0.2l-0.2-0.1c0,0-0.1-0.1-0.1-0.1c-0.2-0.2-0.4-0.4-0.6-0.7c-0.4-0.6-0.9-1.3-1.2-2.1c-0.2-0.4-0.4-0.9-0.5-1.4
			c-0.2-0.5-0.4-1.1-0.5-1.6c-1.4-4.5-2.4-9.4-4.1-13.8l0.9-0.8c-1.2-4.6-1.4-9.3-1.5-14c-0.1-4.7,0-9.2-0.2-13.8
			c0.4-1.2,0.9-2.7,1.4-4.2c0.5-1.5,0.9-3,1.3-4.1c0-0.8,0.1-1.5,0.1-2.1c0-0.6,0.1-1.3,0.2-1.9c0.1-0.6,0.1-1.2,0-1.8
			c-0.1-0.6-0.2-1.2-0.4-1.9c0.2-1.4,0.9-2.2,1.3-2.8c0.6-4.9,0.8-10-1.8-13.2l0.7-0.4c-1.9-3.3-4.7-7.7-5.4-11.7
			c-1.1-0.7-2.9-4.2-3.1-2.2c-0.8-1.4,0.9-1.4-0.5-2.6l1.7,0.9c-3.1-8.2-6.3-14.7-9.4-22.5c0.6-2.7-2.4-7.6-2.8-12.4
			c-1.4-2.6-1.2-7.4-3.2-9.1l0.8-0.2c-0.4-3.6-0.7-8.5,0.2-13.2c0.5-2.7-0.7-2.8-0.7-5.1l0.8,0c0-1.2-0.3-2-0.6-2.7
			c-0.3-0.7-0.7-1.2-1-1.8c0.5-0.9,0.7-1.4,0.8-1.9c0.2-0.5,0.3-1,0.9-1.8c-0.2,1.9,0.2,3.6,0.9,5c0.5-1.3,0.6-2.8,0.7-4.2
			c0.1-0.7,0.2-1.3,0.4-1.8c0.2-0.5,0.5-1,1-1.2c1.2-2,1.9-3.7,1.3-4.5c0.3,0,1.2-0.9,1,0.2c0.9-1.5,1.5-2.5,1.9-3.7
			c-0.2,0.3-0.6,0.6-0.8,0.9c-0.2-1.2,1-2.6-0.2-3.1c-0.3,1-0.2,1.1-1,2.1c-0.4-1,1.5-3.7,2.6-3.8c1.3-0.1-0.3,2.6,1,1.8
			c0.3-0.8,0.6-1.7,0.9-2.5c2.9,0.2,5.8,0.5,8.7,0.7c1.9,0.1,3.7,0.3,5.7,0.4c1,0.1,1.9,0.1,2.9,0.2c0.9,0,1.9,0.1,2.8,0.1
			c1.2-0.1,2.6-0.2,3.9-0.2c1.3,0,2.6,0,4,0c2.7,0,5.6,0,8.4,0c5.7,0.1,11.2,0.3,15.4,1.1c2.3,0.2,4.5,0.5,6.7,0.8l3.2,0.6
			c1.1,0.2,2.1,0.5,3.1,0.8c4.1,1.2,8,2.9,12,4.9c8,4.3,16.2,9.7,24.5,15l1.5,1c0,0,0,0,0,0c0,0,0,0,0.1,0.1l0.6,0.5l2.7,2.2
			l0.4,0.4c0.4,1.7,0.8,3.3,1.2,5c0.6,2.6,1.2,5.2,1.8,7.8c0.9,1,1.9,2.1,3,3.2c1.3-0.4,3.2,3.3,4.4,2.7c0.1,0.5-0.2,0.2-0.6,0.2
			c4.7,4.1,5,4.3,7.7,9.5c3,3.5,5.9,6.9,8.9,10.2c1.5,1.7,3,3.3,4.5,5l2.3,2.5l1,1.1l0,0c2.1,6.4,4.2,12.7,6.3,19
			C522.4,467.4,524.7,474.3,526.8,481.3z M245.9,648.4c0-0.3,0-0.6,0-1C246,647.8,246,648.1,245.9,648.4z M196.4,462.9
			c-0.5-0.2-0.9-0.5-1.4-0.7c1.9-0.3,3.5-1.9,5.4-1.3c-0.8,0.5-0.1,0.8,0.1,1.3c0.4-0.3,0.8-0.7,1.4-0.7l-0.5,1.7
			c0.2-1.1,1.4-1.6,2.7-2c1.3-0.4,2.6-0.7,3-1l-0.2,0.4c3-0.6-0.8-0.5,1-1.4c1.6-0.5,1.3,1.2,3.1,1c1.4-0.8,3.1-2.4,4.6-4.1
			c0.4-0.4,0.8-0.9,1.1-1.4c0.3-0.4,0.7-0.8,1-1.2c0.6-0.7,1.3-1.4,2-1.8c1.3-2.2,2.5-4.8,3.4-7c1.4-1.7,1.2,1.1,2-1.1
			c0.3,0.5,0.9,0.6,1.4,0.8c-0.1-0.3,0.3-0.8,0.7-1.3c0.6-0.7,1.1-1.5-0.2-1.2c1.2-1,2.3-2.2,3.5-3c1.2-0.9,2.3-1.6,3.5-2.1
			c-0.8,0.4-0.5,1.3,0.2,1.6c0.1-0.3,0.4-0.6,0.6-0.8c0.3-0.3,0.7-0.4,1.2-0.6l0.2-0.1l0.3-0.1c0.2,0,0.5-0.1,0.7-0.2
			c0.2,0,0.5-0.1,0.7-0.1c0.2-0.1,0.5-0.2,0.7-0.2c0.5-0.2,1-0.3,1.4-0.5c0.4-0.2,0.9-0.4,1.3-0.6c-0.6-0.8-1.6-0.3-1.7-1.4
			c0.2-0.2,0.4-0.5,0.7-0.7c0.2-0.3,0.5-0.6,0.9-0.8c0.9,0.6,1.8,2,4.2,0.1c0.1,0.4-0.1,0.9-0.4,1.3c-0.4,0.4-0.9,0.7-1.3,1
			c-1,0.6-1.7,1-0.6,1.2c-0.1,0.2-0.2,0.5-0.5,0.8c-0.2,0.3-0.6,0.6-1,0.9c-0.8,0.6-2,1.1-3.2,1.4c-0.6,0.1-1.2,0.2-1.8,0.2
			c-0.4,0-0.4,0.1-0.5,0c-0.1,0-0.2,0-0.3,0c-0.4-0.1-0.6-0.1-0.8-0.3c-0.7,1.6,0.8,0,0.9,1.4c0.1,0,0.3-0.1,0.4-0.1
			c0.3-0.1,0.8-0.2,1.2-0.3c0.4-0.1,0.8-0.2,1.1-0.3c0.4-0.1,0.7-0.3,1.1-0.5c0.4-0.2,0.8-0.4,1.2-0.6c0.4-0.2,0.7-0.5,1.1-0.7
			c0.8-0.5,1.6-1.1,2.5-1.8c-0.2-0.3-0.6-0.3-0.8-0.3c-0.2-0.1-0.1-0.3,0.5-1.1c0.5-0.8,1-1.4,1.4-1.7c0.4-0.3,0.9-0.5,1.3-0.6
			c0.8-0.2,1.6,0,1.9-0.3c-0.2,0.5-0.7,1-0.9,1.4c1-0.6,1.4-1.2,1.8-1.8c0.4-0.6,0.7-1.3,1.5-2.1c0.9,0.4,0.3,1.1-0.4,1.8
			c-0.4,0.4-0.8,0.8-1.1,1.2c-0.3,0.4-0.6,0.8-0.5,1.1l2.1-0.3c1.3-1.2,1.1-1.6,1.1-2c-0.1-0.4-0.1-0.8,1.2-1.9l0.2,0.7l1-1.7
			c-0.5-0.5-1.5-0.9-2.6,0.5c-0.3-1,0-1.4,0.4-1.7c0.5-0.4,1.2-0.7,2-1.7c-0.2-1.3-0.7,0.8-1.4,0.2c-0.8-0.4,0.4-1.8,1.1-2.7
			c0.7-0.7,1.1-0.6,1.4-0.4c0.3,0.2,0.5,0.6,1,0.7c-0.1,0.2-0.3,0.4-0.6,0.7c-0.3,0.2-0.6,0.3-0.7,0.1c-0.5,1.2,0.1,1.4,0.6,1.5
			c0.3,0.1,0.6,0.1,0.8,0.2c0.2,0.1,0.3,0.3,0.1,0.7c0.5-0.2,0.7-0.4,0.8-0.6c0.1-0.2,0.1-0.4,0.1-0.6c0-0.2-0.1-0.4,0-0.7
			c0-0.1,0-0.1,0.1-0.2c-0.1,0-0.2,0-0.3-0.2c-0.2-0.3-0.3-0.8-0.6-0.8c0.1-1.7,0.9-1.5,1.5-0.9c0.7,0.6,1.3,1.5,2.3,1
			c-0.4-0.8,0.2-1.6,0.8-2.3c0.6-0.7,1.2-1.4,0.1-2.3c0.7-0.4,1.6-0.8,2.3-0.5c-0.4,0.5-0.1,0.8,0,1.1c0.2,0.3,0.3,0.5-0.3,1
			c0.3,0,0.6,0.1,0.8,0.1c-0.5,0.4-0.9,0.8-1.3,1.3c0.4,0.4,0.8,0.9,0.9,1.4c0.2,0.4,0.1,0.8,0.1,1.1c0.2-0.2,0.4-0.4,0.5-0.6
			c0.1-0.2,0.2-0.5,0.5-0.4c-0.3,0.2-0.4,0.4-0.5,0.6c-0.1,0.2-0.1,0.3-0.1,0.4c0.1-0.3,0.3-0.6,0.7-0.8c0.2-0.1,0.4-0.2,0.6-0.2
			c0.2,0,0.4,0,0.5,0.1c0.2,0.4,0.2,0.9,0,1.3c-0.2,0.4-0.5,0.7-0.6,0.6c-0.3-0.1-0.6-0.2-0.9-0.2c0.1,0,0.1,0.1,0,0.2
			c-0.1,0.1-0.3,0.2-0.1,0.5c0.3,0,0.8,0,1.3,0.1c0.5,0.1,1,0.2,1.4,0.3c0.5,0.8-0.4,1.6-0.2,1.9c-0.3-0.5-0.6-0.9-0.9-1.3
			c0.3,0.8-0.2,1-0.6,1.1c-0.4,0.2-0.8,0.2-0.6,1.1l0.9,0.5c-0.1,0.4-0.6,0.6-0.9,0.2c0.6,0.3,0.5,1.4,0.7,2l-0.6,0.1
			c0.1,0.2,0.2,0.4,0.4,0.8c0.1,0.3,0.3,0.7,0.4,1c0.2,0.7,0.2,1.4-0.5,2c1.6-0.9,0.1-1.4,1-3.2c0.3-0.2,0.5-0.2,0.6-0.1
			c0.1,0.1,0.2,0.4,0.3,0.7c0.1,0.7,0,1.6,0.1,1.8c-0.8-0.1-0.9,0.6-0.8,1.5c0.1,0.9,0.4,2,0.3,2.7c-0.6,0.7-0.9,1.4-1.3,1.9l1,0.6
			c-2.1,0.4,0.3,2.7-0.3,4.2c-0.6-0.8-1.4-0.7-1.8,0.3c1.6-1.4,1.8,2.4,2.9,2c-0.6,2.7-1.9-0.7-3,0.1c1.1,1.4-0.8,3,0.7,3.9
			c0.5-2,1,0.3,1.6,0.7c-0.2,2.5-0.7-0.4-1.2,1.3c0.2,1,1.4,2.4,1.8,0.8c-0.3,1.4,1.1,3,0.2,4.6c-1,0.7-0.4-3-1.1-2.1
			c-0.1,3.4,2.4,1.7,2.7,4.8c0.5-1.4,2.2-0.1,2.8,1.4c-0.4,3.5-0.6-1.5-1.8-0.2l0.2,1.4c-1.6,2-2.8-4.1-4.1-2.2l0.6,1.5
			c-0.5-0.3-1.3-0.8-1.8-0.2c1.2,0.4,0.3,3.5,0.6,3.8c1,0.3-0.3-1.2,0.5-1c0.3,1.6,1.9,2.3,1.4,4.8c-0.7-1.3-1.3,0.6-1.9,0
			c-0.4,1.2,1.2,0.3,0.7,2.1l-0.6-0.2c0,3.3,0.2,6.9,0.8,10.5c0.1,0.5,0.2,0.9,0.3,1.4c0.1,0.5,0.2,1.1,0.4,1.6l0.1,0.4l0.1,0.5
			c0.1,0.3,0.2,0.7,0.3,1l0.1,0.2l0,0.1c-0.1,0.1-0.1,0,0.1,0c0,0.1,0,0.2,0,0.3c0.1,0.7,0.1,1.4,0.2,2.1c-1.2,0.6-1.9,2.4-3.6,4.9
			c0.8-1.1,1,0.3,0.8,1.1c-0.5,0.3-1.1,0.6-1.6,0.8l-0.1,0.1l-0.1,0.1l-0.1,0.1c-0.1,0.2-0.2,0.4-0.3,0.6c-0.2,0.4-0.4,0.8-0.6,1.2
			c-0.3,0.8-0.6,1.6-0.6,2.5c0,1.8,0.7,3.4,1.4,4.6c-0.1,0.5-0.3,0.7-0.6,0.9c0.1,1.4,0.6,2,1.1,2.3c0.5,0.3,1,0.4,1.3,0.7l0,1.5
			l0.8-0.2c1.4,1.4,2.7,3.3,1.5,3.9c0.6,0.4,1.2,0.8,1-0.1c0.5,1.9,3.6,5.6,6,7.5c-0.7-1.3-0.4-1.5,0.2-2.1c1.3-0.6,0.3,0.7,1.7,1
			c-0.2,0.2-0.1,0.6-0.3,0.9c-0.1,0.1-0.1,0.2-0.2,0.2c-0.1,0-0.1,0-0.2,0c-0.1,0-0.2-0.1-0.4-0.2l0.1,0.4c0,0.1,0,0.2,0,0.3
			c0,0.2,0,0.3,0.1,0.5c0,0.2,0.1,0.3,0.1,0.5c0.1,0.2,0.1,0.4,0.2,0.6c0.3,0.8,0.7,1.7,1.2,2.6c0.9,1.9,1.8,4.2,2.2,6.4
			c0.4,0.8,0.6,0.5,1,0.9c-0.4,1.6-0.1,3.1,0.3,4.7c0.2,0.8,0.3,1.6,0.4,2.4c0,0.8,0.1,1.6-0.1,2.2c0.3-0.3,0.8-0.3,1.3,0.1
			c0.5,0.3,0.9,1.1,0.8,1.8c0.2,0.5,0.3,0.7,0.1,0.9c-0.1,0.1-0.4,0.2-0.7,0.2c-0.6,0-1.5,0-1.9,0.3c0.1,0.1,0.1,0.3,0.2,0.4
			c0.1,0.2,0,0.3,0,0.5c-0.1,0.5-0.4,0.9-0.6,1.2l-0.1-0.1c0,1.1-0.7,2.7-1.9,3.4l0.1-0.2c-0.7,0.8-2,1.2-2.6,2.1
			c0.1,0.3,0.1,0.6-0.1,0.9c-0.1,0.2-0.2,0.3-0.3,0.5c-0.1,0.2-0.3,0.5-0.5,0.7c-0.8,1-1.6,2-1.5,2.6c-0.3,0.1-0.1-0.2-0.7,0.1
			l0.8,0.5l-0.9,0.7c-0.3,0.6-0.6,1.2-0.8,1.7c-0.2-0.6-0.5-0.9-0.6-1.8c-0.5,1.6-0.4,1.8-0.1,1.9c0.3,0.1,0.7,0.1,0.7,0.8
			c0,0.8-0.3,1.2-0.5,1.4c-0.1,0.1-0.2,0.2-0.4,0.3c0,0.1,0,0.2,0,0.3c0,0,0,0,0,0l0,0c-0.1-0.1-0.2-0.2-0.3-0.4
			c0-0.1,0.1-0.3,0.2-0.4c0.1-0.2,0.3-0.5,0.3-0.7c-0.3-1-0.5,1-0.8,1c-0.1,0.2,0.3,0.2,0.5,0.4c0.3,0.2,0.6,0.4,0.8,1
			c0.2,0.5,0.7,1.4,0.9,2.3c0.3,0.9,0.3,1.8-0.2,1.8l0.1,0.1c0.8,0.4,1.4,0.9,2,1.4c0.1,0.1,0.3,0.2,0.4,0.4c0.1,0,0.1,0.1,0.2,0.2
			l0.1,0.1c0.1,0.1,0.3,0.2,0.5,0.2c0-0.2-0.1-0.4-0.2-0.6c-0.2-0.4-0.4-0.7-0.6-1c-0.4-0.7-0.7-1.2-0.5-1.4c0,0,0-0.1,0-0.1
			c0,0,0,0,0,0c0.5,0.4,1.1,0.9,1.6,1.4c0.1,0.1,0.2,0.2,0.3,0.4c0.1,0.1,0.1,0.2,0.1,0.2c0.1,0.2,0.1,0.3,0,0.4
			c-0.2-0.1-0.3-0.2-0.5-0.3c0.6,0.3,1.2,2.1,1.5,0.8c-0.1,0.6-0.3,1.2-0.5,1.7c0.9,0.1,1.3,1.4,1.5,2.3c-0.5,0.1-1-0.1-1.5,0
			c-0.4,0.1-0.7,0.3-0.9,0.9c0.1,0.2,0.3,0.4,0.4,0.6c0.1,0.2,0.3,0.5,0.3,0.7c-0.1,0.7-0.5,0.8-0.9,0.5c-0.2,0.2-0.3,0.5-0.4,0.7
			c-0.1,0.2-0.1,0.5-0.2,0.7c0,0.2,0,0.5,0,0.7c0,0.2,0,0.5,0,0.7c0,0.5,0,1-0.2,1.4c-0.1,0.2-0.2,0.4-0.4,0.6
			c-0.2,0.2-0.5,0.4-0.8,0.5c0-0.8-0.1-1.1-0.5-1.1c-0.3,0-0.7,0.2-1.4,0.6c0.1,0.2,0.2,0.6-0.2,1c0.3,0.1,0.4-0.2,0.5-0.5
			c0.1-0.3,0.3-0.7,0.9-0.6c0.3,0.2,0.2,0.5,0,0.8c-0.3,0.3-0.7,0.7-0.9,1c-1.9-0.1-3.7,1.2-5.6,2.6c-1.9,1.5-4,3.1-6.1,3.6
			c0.5,0.5,0.1,0.9-0.4,1.2c-0.3,0.2-0.6,0.3-0.8,0.4c-0.1,0.1-0.3,0.2-0.4,0.2c-0.1,0.1-0.2,0.2-0.3,0.3c-0.1-0.4-0.4-0.4-0.9-0.2
			c-0.5,0.4-1.1,1-1.7,1.6c-0.6,0.6-1.2,1-1.8,1.2c0,0-0.1,0-0.1,0l0.2,0c0.5,0.1,0.9,0.2,1.4,0.3c-0.2,0.1-0.5,0.2-0.7,0.3
			c-0.2,0.1-0.3,0.2-0.5,0.3L254,599c0,0.1-0.1,0.2-0.1,0.3c-0.1,0.4-0.2,0.7-0.3,1.1c-0.1,0.7-0.1,1.4-0.1,2
			c0.2,1.1,0.2,1.9-0.5,2.7c-0.3,1-0.5,0.8-0.7,0.2c-0.2-0.6-0.3-1.6-0.4-2.1c-0.4,0.7-0.6,1.7-0.7,2.6c0,0.7,0.1,1.4,0.2,2.1
			c0,0.1,0,0.2,0,0.3l0,0.4c0,0.3,0,0.5,0,0.7c0,0.5,0,1,0,1.4c-0.1,0.9-0.3,1.7-0.8,2.5c0.2,0,0.4-0.1,0.7-0.1
			c0.5-0.2,1.2-0.2,1.8,1c0,0.9-0.1,2.7,0.8,2.8c0.6,0.5,1,1,0.8,1c0.6,0.3,1.1,0.5,1.6,0.7c0.2,0.1,0.3,0.2,0.5,0.3
			c0,0-0.1,0-0.1,0l0,0l0.1,0c0.1,0,0.1,0.1,0.1,0.2c0,0.1,0.1,0.2,0.1,0.3c-0.2,0-0.3,0.1-0.5,0.2c0,0-0.1-0.1-0.1-0.1
			c0,0,0.1,0.1,0.1,0.1c-0.4,0.2-0.7,0.7-1.2,1.2c-0.7,0.8-1.6,1.8-2.6,2.4c0.1,1.9-3,2.1-2,3.5c-0.1-0.2-0.5-0.1-0.8,0
			c-0.7,1.3-0.5,2.6-1.6,3.6c-0.2-0.3-0.5-0.6-0.7-0.9c-0.4-0.4-1.1-0.1-1.9,0.6c-0.1,1.5,0.2,3.7-0.3,4c0.5-0.7,0.5-0.2,0.5,0.5
			c0,0.3,0,0.7,0,1.1c0,0.4,0.1,0.4,0.4,0.5l0.3,1.4c0.2,2.2,0.6,0.3,0.6,2.9c0,1.5-1.4,0.4-1.2-0.1c-0.7,1.2-0.4,2.5-0.2,3.8
			c0-0.5,0.1-0.6,0.3-0.2c-0.2,0-0.3,0.1-0.3,0.3c0.1,0.5,0.1,1,0.1,1.5c0,0,0,0-0.1,0c0-0.5,0-1,0-1.4c-0.1,0.3-0.2,0.8-0.2,1.3
			c-0.1,0-0.1,0.2,0,0.4c-0.1,0.4-0.1,0.8-0.3,1.1l-0.9-0.4c-0.1,0.9,0.7,3.5,1.1,3.5c-0.6,1.9-1,4.6-1.2,7
			c-0.1,1.7-0.4,3.3-0.5,4.3c-0.1-0.5-0.3-0.6-0.2-0.1c-0.1,0.3-0.1,0.6-0.1,0.9c0,0.3-0.1,0.6-0.1,0.8c-0.1,0.5-0.2,0.8-0.4,0.7
			c-0.2,1.1-1,0.6-1.9,2c-0.1-0.1,0.3,0.4,0.6,0.4c-1.2,0.9-2,2.2-2.9,3.7c-0.9,1.5-2,3-3.7,4c0.2-0.2,0.1-0.9,0.1-1.3
			c-0.9,1.1-1.7,2.1-2.5,3.2c-0.4,0.6-0.9,1.2-1.3,1.8c-0.2,0.3-0.4,0.6-0.6,0.9c-0.1,0.3-0.2,0.5-0.4,0.8c-0.1-0.5-0.3-0.8-0.1-1.2
			c-0.5,0.4-1,0.9-1.6,1.2c-0.6,0.4-1.1,0.7-1.4,1.1c1.1,0.4,0-0.5,0.7-0.5c0.6,0.3,0.5,0.7,0,1.1c-0.5,0.3-1.4,0.5-2,0.3l0-0.2
			c-1.9-0.2-2.1,0.2-4-0.2c-1-0.8,1.1,0,0.8-0.7c0-0.8-1-1.3-2-1.7c-1-0.4-2.1-0.7-2.3-0.9c-0.6,0.1-1.3,0.1-1.3,0.5
			c-1.6-0.2-0.4-1.1-1.4-1.4c-1.7,0.3-3.4,0.5-5.1,0.7c0.3-0.3-0.8-1.7,0.6-1.6c-3.1-1.2-5.6-0.4-7.8-0.4c-0.8-0.6-4-1.3-5-1.6
			c-0.2-0.9,0.8,0.4,1.3-0.1c-0.4-0.5-0.8-0.9-1.3-1.4c2.1,0.6,0.2-1.4,1.5-1.5c-1-0.1-2.4-0.6-4-1.1c-0.8-0.3-1.7-0.5-2.6-0.7
			c-0.4-0.1-0.8-0.2-1.2-0.3c-0.3-0.1-0.7-0.1-1-0.2c0.8,0.9-0.1,1.1-1.2,1c-1.1,0-2.4-0.2-2.5,0.5c-1.6-0.3-1.8-0.8-1.8-1.1
			c0-0.4,0.2-0.8-0.2-1.2c-3.1-0.6-5.5-2.5-7.8-4.2c0,0,0.1-0.2,0.3-0.2c0,0-0.1,0-0.1-0.1l0.4,0c-4-5.8-7.5-13.5-10.8-21.7
			c-0.4-1-0.8-2-1.2-3.1c-0.4-1-0.8-2-1.2-3.1c-0.7-2.1-1.5-4.1-2.3-6.2c-1.3-4.1-2.9-8.1-4.3-11.9l0.9-1.4c-0.3-1-0.6-2-0.9-3
			l-0.7-3l-0.6-3l-0.3-1.5c-0.1-0.5-0.1-1-0.2-1.5c-0.2-2-0.4-4-0.7-6c0-0.2-0.1-0.5-0.1-0.7l0-0.8l0-1.6l0-3.1
			c0-2.1-0.1-4.1-0.1-6.2c0-2.1,0-4.2,0-6.2l-0.1-3.1l0-3.1c0-2.1-0.1-4.1-0.3-6.2c0.5-2.2,1.1-5,1.6-7.8c0.1-0.7,0.2-1.4,0.3-2.1
			c0.1-0.7,0.3-1.4,0.4-2c0.2-1.3,0.4-2.6,0.6-3.6c0-1.5-0.1-2.8-0.1-3.9c0-1.1,0.1-2.1,0.1-3c0-1.8-0.1-3.4-0.5-5.6
			c0.3-2.2,1.6-3.4,2.2-4.1c0.5-1.8,1-3.6,1.6-5.3c0.6-1.7,1.3-3.4,1.8-5c1-3.3,2-6.4,2-9.6l1,0.1c0.1-0.7,0.2-1.5,0.3-2.3
			c0.2-0.8,0.3-1.6,0.5-2.5c0.4-1.7,0.8-3.5,1.3-5.3c0.5-1.8,1.2-3.6,1.9-5.3c0.7-1.7,1.5-3.3,2.5-4.7c0-2.1,2.5-8.3,0.1-6.1
			c1-2.5,2.3-0.8,2.6-3.7l0.2,2.9c1.8-3.3,3.4-6.5,5.2-9.6c0.9-1.5,1.7-3.1,2.5-4.6c0.9-1.5,1.8-3,2.6-4.5l1.3-2.2l1.4-2.2
			c0.4-0.6,0.8-1.3,1.2-2c0.8-0.4,0.9-0.6,2-0.6c-0.2,0.5-1.2,0.9-2.2,1c0,0.3,0,0.5,0,0.8C192,463.7,193.9,463.9,196.4,462.9z
			 M172.8,466.9c0.8-0.7,1.5-1.5,2.3-2.2c-0.4,0.9-0.9,1.9-1.7,3.1C172.8,467.7,172.7,467.4,172.8,466.9z M188.8,455.2
			c-0.3,0.6-0.6,1.2-1,1.7c-0.3,0-0.5-0.1-0.8-0.1C187.6,456.3,188.2,455.7,188.8,455.2z M191.9,460.4c-0.3,0.3-0.7,0.6-1.1,0.8
			c0.2-0.3,0.3-0.5,0.5-0.8C191.6,460.4,191.8,460.4,191.9,460.4z M170.2,469.2c-0.1,0.1-0.1,0.2-0.2,0.2l0-0.1
			C170.1,469.3,170.1,469.3,170.2,469.2z M24.4,509.5c0.1-0.4,0.1-0.9,0.1-1.3c0.2-2.1,2.3-3.3,2.6-5.3c0.5-2.1,1.9-3.8,2-6
			c-0.5-2.3,1.8-3.5,2.1-5.5c3.4-5.7,4.9-12.3,8.2-18.1c0.1-3.6,1-7.1,2.7-10.3c0.5-1.6,2.4-2.5,2.7-4.2c0.8-2.6,2.7-4.9,1.9-7.9
			c-0.4-1.8-1.3-3.4,0.4-5.5c3.6-4.5,3.9-6.9,1-11.1c1.8,1.2,3.6,1.7,5.6-1.2c1.8-2.3,3.1-5,5.8-6.5c0.4-0.3,0.7-0.6,1-1
			c1-2,1.7-4.1,2-6.3c0.4-1.2,0.4-2.6,1.4-3.7c0.2-0.2,0.3-0.3,0.5-0.5c-0.1,0.1-0.2,0.2-0.4,0.3c-0.2,0.2-0.4,0.5-0.6,0.8
			c-0.4,1.3-0.7,2.7,0,3.8c1.5,2.4-0.4,3-1.8,3.8c-1.2,2-2.1,4-2.4,6.3c-0.1,4.3,0.2,8.7-4.1,11.4c-0.4,0.7-0.7,1.4-1,2.1
			c-0.8,2.4,0.4,5.2-1.3,7.5c-0.2,0.5-0.3,0.9-0.4,1.4c-0.1,2.5-0.3,5-1.8,7.1c-0.2,0.7-0.4,1.3-0.6,2c-0.2,1.9,0.2,3.9-1.1,5.5
			c-0.2,0.4-0.3,0.9-0.3,1.3c0.5,2.2-1.1,3.7-1.9,5.4c-0.2,0.6-0.4,1.3-0.3,2c0.4,2-1.4,2.8-2.2,4.2c-0.3,0.3-0.6,0.7-0.7,1.1
			c-0.4,2.1-1.8,3.5-3.2,4.9c-2.6,4.5-6.9,8.1-7.8,13.6c0,3.6-2.4,5.5-4.8,7.6c-0.7,0.8-1.6,1.5-2.3,2.4c-0.3,0.5-0.6,1-0.7,1.6
			c-0.3,0.7-1.1,1-1.6,1.4c-0.3,0.3-0.6,0.6-0.8,1.1c-0.3,0.8-0.7,1.6-1.2,2.3C22.2,513.8,23,511.5,24.4,509.5z M17.9,522.2
			c0.1-0.4,0.3-0.9,0.4-1.3c0.1-0.2,0.1-0.4,0.2-0.6c-0.1,0.2-0.1,0.4-0.2,0.7c0,1.9-0.3,3.7-1.5,5.3c-0.3,0.5-0.6,1-0.8,1.5
			C16.5,525.9,17.2,524.1,17.9,522.2z M76,781c0,0,0.1-0.1,0.1-0.1C76.1,780.9,76,780.9,76,781z M288.7,792.1c-1.1,0-2.2,0-3.2-0.1
			c-0.3-0.3-0.7-0.5-1.2-0.6c-1.3,0.2-2.5,0.9-3.9,1.1c-0.4,0.1-0.9,0.3-1.2,0.5c-0.6,0.7-1.3,1.3-2,1.8c-2.7,2.1-5.7,3.6-9.3,3.6
			c-2.6-0.2-5,1.8-7.7,0.9c-2.9-0.1-5.3,1.5-7.9,2.3c-1.5,0.4-3,1.1-4.6,1.4c-2.1,0.6-4.2,1.2-6,2.6c-1.6,0.6-2.5,2.6-4.6,2.4
			c-0.5,0-0.9,0.1-1.3,0.3c-1.4,0.7-2.5,2-4,2.6c-2.3,2.7-5.2,4-8.8,3.6c-0.4,0-0.9,0-1.3,0c-1.3,0.2-2.3,1.2-3.7,1
			c-0.7,0-1.4,0.3-2,0.5c-1.4,0.6-2.7,1.7-4.3,1.5c-1.8,0.3-3.3,1.1-4.4,2.5c-0.9,0.8-1.1,2-2,2.8c-2.7,1.7-5.7,2.7-8.8,3.3
			c-0.7,0-1.4,0-2.1-0.1c-0.7-0.2-1.4-0.1-2.1,0.1c-1.3,0.4-2,1.6-3.2,2.1c-0.4,0.1-0.8,0.3-1.1,0.4c-0.4,0.2-0.7,0.4-0.9,0.7
			c-0.1,0.1-0.3,0.3-0.4,0.4c-0.6,0.4-1.3,0.7-2.1,0.8c-0.4,0-0.8,0.1-1.2,0.2c-0.9,0.5-1.7,1.3-2.7,1.5c-0.4,0.1-0.8,0.2-1.2,0.4
			c-0.9,0.5-1.7,1.4-2.7,1.6c-0.4,0.1-0.8,0.2-1.2,0.4c-0.8,0.4-1.3,1.1-2.1,1.5c-2.1,1.2-4.3,2.2-6.7,2.4c-0.4,0.1-0.8,0.3-1.2,0.6
			c-1.7,2.4-4.2,3.1-6.9,3.3c-0.7,0-1.3,0.1-2,0.2c-1.4,0.6-2.8,1.2-4.4,0.9c-0.7,0-1.4,0.2-2,0.5c-1.8,0.9-3.2,2.6-5.4,2.5
			c-0.4,0.1-0.9,0.3-1.3,0.5c-0.6,0.7-1.3,1.3-2,1.8c-3.7,3-7.5,4.5-11.7,1.1c-1-0.1-1.9-0.1-2.9,0c-2.7,1-5.3,3.6-8.4,0.9
			c-1.6-0.5-3.3-0.8-4.5-2c-0.4-0.2-0.8-0.3-1.2-0.4c-2.2,0.1-3.2-1.8-4.8-2.7c-1.2-0.6-2.2-1.4-3.3-2.2c-7.5-5.1-8.2-14.9-1.7-21.5
			c2.3-2.4,5-3.1,8.2-1.7c5.7,0.6,9.7-2.4,13.1-6.5c1-2,2.2-3.8,4.2-5c0.8-1.5,1.9-2.9,1.9-4.8c0.2-4.8,3.2-8.2,5.5-12
			c2.2-1,3.2,1,4.5,2.1c5.6,4.5,10.5,10,17.6,12.2c1.4-0.2,2.4,0.6,3.6,1.1c0.4,0.1,0.9,0.2,1.3,0.3c1.5,0.5,2.5,2.2,4.2,2.3
			c1.2,0.2,2.5,0.6,3.7,0.1c2.9-1,5.5,0.4,8.2,1.2c1.9,0.2,3.9,0.1,5.8,0.4c6.6-1.3,12.3-9.9,12-18.2c-0.6-9.4,0.3-18.8-0.6-28.2
			c0-0.6,0-1.1,0-1.7c-0.1-2.8-2.1-5.2-1.4-8c-0.3-1.2-1.2-2.1-1.8-3.2c-0.2-1.3-2.6-1.7-1.6-3.6c2.3-1.4,4.7,0.5,7.1-0.3
			c2-0.8,4-1,6.1-0.7c3.8-0.4,7.4-1,7.9-5.9c0-0.6,0-1.2-0.1-1.9c-1.4-1.5-1.5-3.9-3.3-5.2c-0.7-0.3-1.4-0.3-2.1-0.5
			c-4-1-7.8-2.2-12-2c-1.6,0.1-3.3-0.2-4.6-1.4c-0.3-0.6-0.5-1.2-0.9-1.8c-0.5-0.6-1-1-1.7-1.3c-1.6-0.4-2.7-1.5-4-2.4
			c-2.9-2.2-3.9-5.5-4.7-8.9c-1.3-5.1-2-10.2-2.4-15.4c-0.6-2.2-0.9-4.5-2.6-6.1c-2.6-1.7-4.6-0.2-6.7,1.2c-1.6,1.4-2.5,3.2-2.8,5.3
			c-2.9,15.9,0.6,30.7,7.6,44.9c0.7,1.5,1.5,2.9,1.9,4.5c0.7,1.6,1.6,3,2.3,4.6c0.9,1.7,2.8,3.1,2.1,5.4c3,9,1.7,18.3,1.5,27.5
			c-0.1,2.3-1,4.6-3.5,5.6c-1.3,0.7-2.3,0.2-3.4-0.5c-0.9-0.7-1.9-1.5-3-1.8c-1.6-0.1-2.7-1.3-4-2c-5-2.4-9-6.1-12.8-10
			c-1.6-1.6-3-3.6-5.5-4.1c-1.3,0-2.6-0.1-3.7-1c-3.1-2-4-5.3-4.9-8.6c-2.6-4.2-4.1-8.7-3.9-13.7c0.1-2.5-0.3-5-1.9-7.1
			c-1.2-2-2-4.1-2.3-6.5c-1.3-11.9-2.7-23.6-2-35.7c0.6-9.7-1.5-19.5-1.3-29.3c0.1-2.9-0.8-5.8-1.9-8.7c-1.6-4.4-3.6-4.1-6.5-1.6
			c-1.1,1.8-0.9,3.9-1.4,5.9c1,6,2.9,11.7,1.6,18.2c-1.1,5.4-0.1,11.2-3,16.3c-1,4.2-1.2,8.5-1.2,12.9c0,5.5,0.3,11-0.5,16.4
			c-1.5,10.3,1.2,20.1,3.3,30c0.7,1.9,0.8,3.9,0.4,5.9c-2.1,5.7-2.1,11.6-2.2,17.6c-0.1,6.7-3.5,11.9-8.6,12.5
			c-9,0.9-14,0.4-19.5-7.5c-0.9-1.4-1.6-2.9-2.9-4c-0.8-0.9-1.9-1.3-2.9-1.8c-3-1.1-1.9-5.6-5.3-6.2c0,0,0,0,0,0
			c0.6-0.4,0.9-1,1-1.8c0-0.7,0-1.4-0.4-2.1c-0.7-0.9-1.3-1.9-1.8-2.9c-0.8-1.2-0.8-2.5-0.6-3.8c-0.7-4.8-2.6-9.1-4.2-13.6
			c-0.5-1.5-1-3-1.3-4.5c-2.2-7.5,1-13.9,3.7-20.5c0.9-2.1,1.3-4.4,1.6-6.6c1.1-4.5,2.5-8.9,2.3-13.6c-1.2-2.4,0.9-5.6-1.7-7.7
			c-0.2-0.4-0.3-0.8-0.3-1.3c0.1-0.4,0.3-0.8,0.4-1.2c2.2-5.5,1.4-11.7,3.4-17.2c-0.5-9,1.3-18-1.6-26.9c-1.7-5.1-1.7-5.2-6.1-1.3
			c-0.6,0.7-0.8,1.5-1,2.3c1.3,3.6-0.3,6.6-2,9.5c-4,11.7-3.8,24.2-6.4,36.2c-0.5,2.8,2.2,6-0.9,8.5c-0.2,0.4-0.4,0.9-0.4,1.4
			c0.6,3.4-1.5,6-2.3,9.1c-2.9,8.3-6.5,16.4-8.2,25.1c-0.1,1.4-0.6,2.7-1.1,4c-0.1,0.5-0.2,0.9-0.3,1.4c-0.4,1.5-1.4,2.8-2.2,4.1
			c-0.9,1.3-1.4,2.6-1.5,4c-0.4-0.6-0.9-1.1-1.8-1.6c-0.8-0.1-1.6-0.3-2.4,0c-2.1,1.9-4.3,1.9-6.5,0.1c-1.6-0.4-3.3-0.4-4.4-1.9
			c-1.1-1.1-1.6-2.5-2-4c-0.7-1.1-1.8-1.9-2.5-3c-0.9-0.9-1.9-1.6-2.6-2.6c-1.4-1.8-1.9-3.9-1.7-6.2c-0.3-1.7-1.5-2.9-2.1-4.5
			c-0.6-1.9-2.3-3.4-1.7-5.7c-2.1-8.9-4.8-17.6-4.2-26.9c-0.3-4.2-0.7-8.5-0.1-12.7c-0.4-15.2,0.7-30.5,0.6-45.7
			c-0.1-7.1-0.8-14.2-0.1-21.3c0.9-8.7-0.5-17.4,0-26.2c0.5-8.4-0.5-16.9,0.4-25.3c0.4-3.7,1.3-7.5,0.3-11.3c-1.9-2-3.3-5.2-2.3-7.1
			c1.5-3.1,1-6.4,2.3-9.4c0.1-0.4,0.3-0.9,0.4-1.3c0.3-1.2,0-2.3,0-3.5c-0.3-1.9-0.3-3.7-0.1-5.5c-0.1,1.9,0,3.8,0.1,5.7
			c0.1,1.9,0.7,3.7,0.6,5.5c0,0.8,0.1,1.5,0.2,2.3c0.4,1.4,1.3,2.6,1.4,4.1c0,0.5,0,1,0.2,1.5c0.5,1.5,1.1,2.8,2.2,4
			c3.9,2.6,6.1,7.4,11.1,8.5c2.7-0.3,4.2,1.6,5.9,3c0.5,0.2,0.9,0.3,1.4,0.4c3.1-0.2,5.1,2.8,8.2,2.8c5.7,0.1,11.5,1.1,17.2-0.8
			c1.2-0.9,1.2-2.3,1.5-3.6c0.3-0.9,0.5-1.9,1.5-2.4c0.5-0.2,1.1-0.1,1.7,0c1,0.4,1.8,1.2,2.7,1.7c0.4,0.1,0.9,0.2,1.3,0.3
			c1.2,0.1,2.4,0,3.6,0.1c1.9,0,3.2-1.2,4.7-2c0.8-0.9,1.3-2,2-3c0.6-1.9,1.7-2.9,3.8-2.5c4.8-1.5,8.2-4.8,11.2-8.5
			c0.1-3,1.1-5.3,4.3-6c2.2-1.9,4.9-3.3,5.6-6.5c-0.1-1.7,0.6-2.9,2.1-3.6c0.4-0.2,0.7-0.5,1-0.9c1-2.6,3.5-3.3,5.6-4.5
			c3.3-2.9,5.7-6.5,8-10.2c0.6-0.8,1.1-1.6,1.2-2.6c0.1-0.5,0.1-0.9,0-1.4c0.9-2.5-0.8-7.1,4.7-5.9c2,0.1,3.1-1.3,4.4-2.5
			c0.9-2.6,2.1-4.9,4.5-6.3c0.5-0.8,1.2-1.6,1.6-2.5c2.1-6.3,5.6-11.6,11.3-15.2c0.4-0.3,0.6-0.7,0.8-1.1c0.4-0.7,1.2-1.3,1.2-2.1
			c-0.3-5,2.8-4.9,6.3-4.5c1.6-0.2,2.8-1,3.4-2.6c0.1-2.6,1.6-3.5,4.1-3.2c0.8,0.1,1.4-0.1,2-0.4l-0.9,2.3c0.7,0.5,2.3,0.3,3.9-2.8
			c0.4,1.6,0.1,2.3-0.7,3.3c-0.7,1-1.9,2.2-3,4.8c0.3,2.2,1-2.2,2.2-1.7c1.2,0.1-0.5,3.5-1.5,6c-2.1,4-2.3,1.5-3.9,2.8
			c0.1-0.9,1.6-4.1,2.1-3.5c1.4-5.7-3.5,1-2.5-2.9c-1.6,2.2-1.7,3.2-1.7,4.2c0,0.6,0.1,1.2-0.1,2.1c0.7-1,0.9,1.2,1.7,0.5
			c0,4.2-1.1,5-2.5,5.6c-1.4,0.7-3,1.2-4.2,4.7c1.3-0.3,1.1,2.2,1.1,4.3c0,2.1,0.4,3.8,2.4,1.7c-0.2,1.8-0.4,3.9-1.3,5.5
			c-0.8-2.3-2.2,2.6-2.4-1l-0.9,2.5l-0.4-4.3c-1,1.2-2.1,2.9-3.2,4.4c-1,1.6-1.9,3-2.4,3.6c-0.5,3.9,1.7-0.7,0.8,3.6
			c-0.3-1.7-1.8,0.7-2.2,2.6c1.6-3.7,2.1,0.5,1.8,3c-0.5,1.9-1.3,3.5-1.9,4.5c-0.7,1.1-1.2,1.6-1.3,1.3c-0.1-1.1-0.2-2.1-0.3-3.2
			c0,1.9-1,0.6-1.2,3.3c0.6,1,1.5,3.1,2.3,4.2c-0.2,2.5-1.6,4-1.6,4.8c-0.1-1.3,0-2.7-0.1-4c-0.8,5.1-2.6,0.6-3,6l0.9,1.6
			c-0.3,0.8-0.7,1.2-1,0.8c0.3,1.2-0.2,3.6-0.1,4.8l-0.8,0.2c0.2,2.3,1.5,5.2-0.4,7.7c2.1-1.8,0.4-2.6,1.7-6.3
			c1.7-2.1,0.8,3.9,0.8,4.7c-1-0.3-1.2,1.1-1.3,2.9c0,1.8,0.2,4,0.1,5.3c-0.9,1.5-1.3,2.8-1.8,3.7l1.2,1.1c-2.7,0.8,0.2,5.3-0.8,8.2
			c-0.7-1.6-1.7-1.4-2.2,0.7c1.1-1.4,1.6-0.2,2,1.3c0.4,1.4,0.8,3.1,1.5,2.7c-0.8,5.3-2.4-1.3-3.8,0.2c1.4,2.7-1.1,6,0.7,7.8
			c0.7-3.9,1.2,0.6,2,1.5c-0.1,4.9-0.8-0.8-1.5,2.7c0.3,2.1,1.7,4.7,2.3,1.6c-0.3,2.2,0.6,4.5,0.7,7c-0.5,0.5-0.7,1.2-0.9,1.8
			c-0.1-0.5-0.2-1.1-0.3-1.7c-0.1-0.7-0.2-1.4-0.2-1.8c-0.1-0.4-0.2-0.5-0.4,0c0,0.8,0.1,1.6,0.2,2.2c0.1,0.6,0.3,1,0.5,1.4
			c0.1,0.2,0.2,0.3,0.2,0.5c-0.1,0.7-0.3,1.4-0.8,1.9c-2.9,4.5-5.9,8.9-8.2,13.8c-0.7,1.3-0.5,3.1-2,4c-2.8,5.2-6.2,10.1-8,15.9
			c-1.9,3.8-0.7,5.6,3.5,5.5c1-0.2,1.8-0.6,2.5-1.3c0.6-1.4,2.2-2,2.2-3.7c1-2.2,1.7-4.6,3.8-6.2c1.7-1.7,2.6-4,4-6
			c1.4-0.9,1.1-2.8,2.1-3.9c1.1-0.8,1.8-1.9,2.4-3.1c1.1,2.2,2.7,3.5,3.1,7.7c-1.6-2.4-1.3,1.4-2.3,0.5c0.2,2.5,1.6,0.4,1.9,3.9
			l-0.8-0.2c0.4,1.6,0.8,3.2,1.4,4.9c0.6,1.6,1.1,3.3,1.7,5c0.3,0.8,0.6,1.7,0.9,2.5c0.3,0.8,0.7,1.7,1,2.5c0.7,1.6,1.4,3.3,2.2,4.9
			c1.6,3.2,3.3,6.2,5.1,9c1.9,2.7,3.7,5.2,5.7,7.3c-0.1,1.2,0.4,2.7,1.1,4.7c0.4,1,0.8,2.1,1.3,3.3c0.5,1.2,1.1,2.6,1.8,4
			c-1.1-2.6,1-0.7,2,0.5l0.3,3.4c1.3,3.6,5,7,7.6,9.4c0.1,0.7-0.1,1-0.3,1.4c1.1,3.3,2.6,2.4,3.5,3.3l0.4,2.3l1.1-0.2
			c2.3,2.4,4.7,6.1,3.1,6.7c1,0.9,2,1.7,1.4,0.1c1.1,3.2,6.5,10.5,10.5,14.8c-1.4-2.5-0.8-2.6-0.2-3.4c1.9-0.4,0.5,1.2,2.8,2.5
			c-0.5,0.4,0.6,2.9-1.5,1c0.4,0.9,0.8,1.9,1.3,2.8c0.1,0.2,0.3,0.5,0.4,0.7c0.1,0.2,0.1,0.1,0.1,0.2c0,0,0,0.1,0,0.2
			c0,0.1-0.1-0.1,0,0l0.1,0.2l0.2,0.4c0.1,0.3,0.3,0.5,0.4,0.8c1.2,2.2,2.7,4.3,4.3,6.3c3.3,4.1,7.2,8,10.6,11.8
			c1.6,1.3,1.4,0.6,2.4,1c3.3,5.8,10.3,9.7,14.7,14.7c-0.3-0.8,0.3-1.2,1.2-1.1c0.5,0.1,1.1,0.2,1.8,0.5c0.3,0.2,0.7,0.4,1,0.6
			c0.3,0.2,0.7,0.5,0.9,0.7c0.2,0.1,0.3,0.1,0.5,0.2c0.1,0.1,0.2,0.2,0.3,0.2c0.2,0.2,0.2,0.2,0.3,0.5c0.1,0.4,0,0.8-0.2,1.2
			c-0.4,0.8-1,1.7,0,3.6c0.5,0.3,1,0.7,1.6,1.1c0.6,0.4,1.1,0.9,1.7,1.4c1.1,0.9,2.2,1.8,2.8,2.4l-0.3,0.1c2.4,1.1,5.7,2.9,7.7,5
			l-0.4-0.2c1.9,1.4,3.6,3.5,5.7,4.5c0.8-0.3,2.3,0.4,3.8,1.2c1.5,0.7,3,1.5,3.8,1.4c0.2,0.3-0.2,0.1,0.1,0.7l0.7-0.9
			c1.1,0.9,2.2,1.9,3.3,2.9c-1-0.1-1.5,0.1-2.6-0.2c1.7,1.5,2.1,1.5,2.4,1.3c0.2-0.1,0.3-0.4,0.5-0.5c0.3-0.1,0.5-0.2,1.4,0.2
			c0.3,0.1,0.5,0.3,0.7,0.4c0.2,0.1,0.4,0.2,0.7,0.3c0.5,0.1,0.8,0.2,1.1,0.3c0.6,0.2,0.9,0.4,1.1,0.6c0.5,0.4,0.7,0.9,1.4,1.4
			c-1.6,0-2.2-1-3.5-1.3c-1.6-0.1-0.9,0.3,0.2,0.7c0.2,0.1,0.5,0.2,0.8,0.3c0.2,0.1,0.4,0.2,0.6,0.3c0.3,0.2,0.5,0.3,0.5,0.5
			c0.7,0.3,1.5-0.9,3.8,0.2c1,0.4,2.8,1,4.2,1.5c1.4,0.5,2.4,1,1.9,1.5C286.9,791.8,287.8,792,288.7,792.1z M149.1,611.1
			c-0.4,1.1-0.9,1.1-1.5,0.5c0.3-0.7,0.7-1.4,1.1-2.1L149.1,611.1z M150,607.2c0.2,0.4,0.5,0.9,0.7,1.3c0.4,5.1-0.4,1.1-1.3-0.2
			C149.6,607.9,149.8,607.6,150,607.2z M481.2,773.8c-0.2,0.2-0.4,0.3-0.5,0.5c0.2-0.2,0.4-0.4,0.6-0.6c0.3-0.3,0.6-0.6,0.9-0.8
			C481.8,773.2,481.5,773.4,481.2,773.8z M498.4,711c-0.4,0-0.9,0-1.4,0C497.5,710.9,498,710.9,498.4,711z M413.1,786.8
			c-1.7,0.5-3.5,1.3-5.1,1c0.2-0.5,1.7-0.8,2.5-1.2c-2.1,0-4,0.1-6,0.4c-1.9,0.2-3.8,0.4-5.6,0.6c-1.9,0.2-3.7,0.4-5.6,0.6
			c-1.8,0.1-3.6,0.1-5.5-0.1c-3.4,0.7-7.1,0.7-10.6,0.5c-2-0.1-4-0.2-5.7-0.2c-1.8,0-3.4,0-4.7,0.4c1.2-0.9-3.3-0.7-4.9-1.2
			c-1.3,0.7-2.9,1-4.6,1c-1.7,0-3.5-0.2-5.4-0.5c-0.9-0.1-1.9-0.3-2.8-0.4c-0.9-0.1-1.9-0.3-2.8-0.4c-1.9-0.2-3.7-0.2-5.4,0.1
			l0.3-0.5c-7.9-0.6-16-1.5-24.2-2.9c0.2-0.6,0.5-1.2,0.8-1.6c0.5-2.1,1.7-4.7,2.6-6.9c1.4-1.8,1,1,2-1.2c0.2,0.5,0.8,0.6,1.3,0.7
			c-0.1-0.2,0.4-0.8,0.8-1.4c0.6-0.8,1.2-1.5-0.1-1.2c1.2-1.2,2.5-2.4,3.8-3.6c1.4-1.4,2.9-2.9,4.3-4.3c-1.1,1.1-0.9,2.1,0.6,1.3
			c0.2-0.3,0.3-0.6,0.6-1c0-0.7,0.1-1.4,0.2-2.2c0.1-0.6,0.2-1.3,0.3-2c0.2-1.2,0.5-2.4,1-3.7c-0.9-0.2-1.2,0.8-1.9,0.2
			c0-0.2,0-0.5-0.1-0.9c0-0.3,0-0.7,0.1-1c0.7,0,1.5,0.4,2.1,0.1c0.3,0,0.7-0.1,1-0.4c0.2,0.5,0.1,0.8-0.2,1c-0.2,0.6-0.6,1.1,0.3,1
			c0.2,0.3,0.4,0.3,0.4,1.1c0,0.7-0.2,1.4-0.3,2.2c-0.1,0.4-0.2,0.7-0.3,1.1c-0.1,0.2-0.1,0.3-0.2,0.5c-0.1,0.2-0.2,0.4-0.2,0.6
			c-0.4,1-0.7,1.8-1,2.2c0,0.4,0,0.8,0,1c-0.3,0.5-0.1,0.5,0.3,0.2c0.4-1,1-3.7,1.6-3c0-0.1,0.1-0.2,0.1-0.4l0-0.2
			c0-0.1,0-0.3,0.1-0.4c0-0.2,0.1-0.5,0.1-0.7c0.1-0.5,0.1-0.9,0.1-1.4c0-0.5,0.1-1,0.2-1.6c0-0.2,0-0.3,0.1-0.5c0-0.1,0-0.1,0-0.2
			c0-0.1,0-0.2,0-0.4c-0.5-0.4-0.8,0.1-1-0.8c0-0.1-0.1-0.2-0.1-0.3c0.1-0.3,0.3-0.5,0.5-0.6c0.1,0,0.2-0.1,0.3-0.1
			c0.1,0,0.1,0,0.2,0c0.1,0,0.2,0,0.3,0c0.7,0,1.3,0.1,1.6-0.1c-0.3,0.4-0.7,0.8-1,1.2c1.9-0.9,1.9-2,3.6-3.2c1.5,1-2.6,2.2-2.6,3.5
			l1.9,0c2.7-1.8-0.1-1.6,2.8-3.3l0,0.7l0.7-0.8l0.4-0.4l0.2-0.2c0,0,0.1-0.1,0.1-0.1l0,0c-0.2-0.2-0.3-0.6-0.8-0.6
			c-0.4,0-1,0.1-1.7,0.7c0-0.7,0.1-1,0.4-1.3c0.1-0.1,0.3-0.2,0.5-0.3c0.2-0.1,0.5-0.2,0.5-0.2l0.1,0c0.1,0,0.1-0.1,0.2-0.1
			c0.1-0.1,0.3-0.2,0.5-0.3c0.3-0.2,0.7-0.5,1.1-0.8c0.3-1.3-1,0.9-1.6,0.1c-0.7-0.5,1-1.7,2.1-2.9c1-0.8,1.5-1,1.8-0.8
			c0.4,0.1,0.6,0.4,1.3,0.1c-0.5,0.8-2.1,2.3-2.2,1.7c-1,1.4-0.5,1.6,0.2,1.6c0.7,0,1.5-0.1,0.7,1c1.5-0.8,1.9-1.5,2.2-2.2
			c0.2-0.4,0.3-0.8,0.6-1.3c0.1-0.1,0.1-0.2,0.2-0.4c0,0,0,0.1-0.1,0.1c-0.2,0.2-0.3,0.1-0.4,0c-0.1-0.3-0.1-0.9-0.6-0.7
			c0.1-0.4,0.2-0.8,0.3-1.1c0-0.3,0.1-0.5,0.1-0.7c0.1-0.4,0.2-0.6,0.3-0.8c0.3-0.4,0.7-0.5,1.1-0.5c0.9-0.1,2-0.1,2.8-1.8
			c-1.7-0.2,0.7-5.5-2.2-4.1c0.2-0.9,0.5-2.1,1.1-2.8c0.2,0.7,0.6,0.5,0.9,0.3c0.2-0.1,0.4-0.2,0.5-0.1c0.1,0,0.1,0.1,0.1,0.3
			c0,0.1,0,0.3,0,0.6l0.9-1.5l-0.1,0.8l-0.1,0.4l0,0.2l0,0.2l0,1.2c0.2-0.1,0.4-0.2,0.6-0.4c0.1-0.1,0.2-0.1,0.3-0.2
			c0.1-0.1,0.2-0.1,0.3-0.3c0.6-0.6,1.2-1.2,1.8-1.9c1.2-1.3,2.2-2.5,2.9-3.1c0.2-0.4,0.3-0.7,0.3-0.9c0,0,0-0.1,0-0.1
			c0,0-0.1-0.1-0.1-0.1c-0.1-0.1-0.1-0.1-0.2-0.1c-0.2-0.1-0.3,0-0.4,0.1c-0.2,0.2-0.4,0.3-1.3-1.5c0.6,0.6,0.8,0.4,0.7-0.3
			c-0.1-0.6-0.4-1.7-0.8-2.5c0.5,1.7,0.1,1.8-0.5,1.2c-0.6-0.6-1.6-1.7-2.1-2.6c-0.1-0.2-0.2-0.4-0.3-0.5c-0.1-0.2-0.2-0.4-0.2-0.5
			c-0.1-0.2-0.2-0.5-0.2-0.7c-0.1-0.4-0.2-0.9-0.2-1.2c-0.1-0.7,0-1.2,0.2-1.1c0.5,0.4,1,0.8,1.5,1.2c-1-0.8,0.2-0.7-0.8-1.9
			c-0.8-0.1-2.1-0.5-3-0.6c-0.9-1-0.8-2.3-1.2-2.6c0.6,0.5,1.2,1,1.7,1.5c-0.9-1.2-0.6-1.5-0.4-1.9c0.2-0.4,0.5-0.7-0.6-1.9
			l-1.2-0.2c-0.2-0.5-0.2-0.9,0.2-0.9c-0.7-0.3-1.6-1.5-2.3-2l0.2-0.5c-0.3-0.2-0.7-0.4-1-0.5c-0.3-0.1-0.5-0.1-0.8-0.2
			c-0.5-0.2-0.9-0.6-0.7-1.3c-0.3,0.7-0.1,0.9,0.2,1.1c0.1,0.1,0.3,0.2,0.5,0.4c0.1,0.1,0.2,0.2,0.3,0.3c0,0.1,0.1,0.1,0.1,0.2
			l0.1,0.1c0,0.1,0.1,0.1,0.1,0.2c0.1,0.5,0,0.6-0.2,0.6c-0.1,0-0.2-0.1-0.4-0.2c-0.2-0.1-0.2-0.1-0.4-0.2c-0.5-0.3-0.9-0.8-1.1-0.9
			c0.6-0.4,0.2-0.9-0.3-1.4c-0.5-0.5-1.3-1.1-1.6-1.6c0.1-0.8,0.1-1.4,0.2-1.9l-1,0c0.7-0.6,0.4-1-0.1-1.5c-0.5-0.6-1-0.7-0.8-1
			c0.6,0.2,1.3-0.1,1.6-0.3c-0.7,0.2-1.1,0.2-1.5-0.1c-0.2,0-0.3-0.6-0.5-0.8c-0.2-0.3-0.4-0.4-0.6-0.3c0.6-2.7,1.7,0.7,2.7-0.1
			c-1-1.4,0.8-3.1-0.5-4c-0.5,2-0.9-0.3-1.4-0.8c0.2-2.5,0.6,0.4,1.1-1.3c-0.1-1.1-1.2-2.5-1.6-0.9c0.2-0.7,0-1.5-0.2-2.3
			c0-0.2-0.1-0.4-0.1-0.6c0-0.1,0-0.2,0-0.3c0-0.2,0.1-0.4,0.3-0.6c0.4,0,0.5,0.3,0.6,0.6c0,0.1,0,0.2,0,0.2l0,0c0,0,0,0.1,0,0.1
			c0,0.1,0,0.1,0,0.2c0,0.2,0.1,0.3,0.3,0c0-0.4,0-0.4,0-0.5c0-0.1-0.1-0.2-0.1-0.2c-0.1-0.1-0.3-0.3-0.4-0.4
			c-0.4-0.3-0.8-0.5-1.2-0.9c-0.2-0.3-0.2-0.6,0.2-1.1c-0.5,0.2-1,0-1.2-0.5c-0.2-0.5-0.2-1.3,0.2-2c2.7-2.4-0.7,1.5,1,1.2l0.9-1.2
			c1.2-0.2,1,1,0.7,2.2c-0.2,0.7-0.1,0.9,0,1.2c0.1,0.3,0.4,0.4,0.7,0.5c0-0.1,0-0.2,0-0.4l0.3-0.7c0.1,0.5,0.3,1.4,1,1.2
			c-0.2-0.5,0.3-1.2,1-1.8c0.3-0.3,0.7-0.6,0.9-0.9c0.3-0.2,0.4-0.4,0.5-0.6c-0.1-0.2-0.2-0.3-0.3-0.2c-0.1,0.1-0.2,0.2-0.3,0.4
			c-0.2,0.3-0.3,0.6-0.5,0.3c0.1-0.2,0.2-0.3,0.3-0.5c0-0.1,0.1-0.2,0.1-0.3c0-0.1,0.1-0.2,0.2-0.4c0.3-0.5,0.5-1,0.7-1.5
			c0.5-1,1.1-2,2.7-3.3c-0.4,0.9,0,0.9,0.6,0.7c0.6-0.2,1.3-0.5,1.2-0.1c1-0.8,0.8-1,0.7-1.2c-0.4-0.3-0.7-0.7-1-2l0.7,0.4
			c-0.6-1.6-1.2-3.2-1.8-4.8c-0.3-0.7-0.5-1.4-0.8-2.1c-0.2-0.5-0.4-1-0.6-1.4c-0.4-1-0.8-1.9-1.2-2.9c-0.6-1.3-1.2-2.7-1.8-4
			c-0.5-0.4-1-0.8-1.5-1.3l-0.4-0.3l-0.2-0.2l-0.1-0.1l-0.4-0.3c-0.3-0.3-0.4-0.2-0.5-0.3c-0.1-0.1-0.3-0.1-0.4-0.2
			c-0.6-0.2-1.4-0.5-2.3-0.9c0.4-0.3,0.5-0.6,0.5-0.9c0.1-0.3,0-0.7,0.4-1c-0.2,0.1-0.5,0-0.9-0.2c-0.4-0.2-0.7-0.5-0.8-0.8
			c0.5,0,1.2,0.1,1.8,0.2c0.7,0,0.8-0.1,0.8-0.3c0-0.2,0-0.6,0.2-0.9c0.3,0.2,0.5,0.5,0.8,0.7c0.5,0.3,0.5,0.2,0.5-0.1
			c0-0.3-0.1-0.6,0-0.7c0.3,0.2,0.5,0.5,0.7,0.7c0-0.2-0.1-0.5-0.1-0.7c0.2-0.1,0.5-0.2,0.8-0.2c0.1,0,0.3,0,0.4,0
			c0.2,0,0.3,0,0.5,0c0.8,0.1,1.3,0.4,1.2,1c0.7-0.3,1.3-0.5,0.4-0.8c1.8,0.6,6.6,0.2,9.7-0.5c-1.5-0.2-1.4-0.5-1.6-1.2
			c0.3-1.3,0.7,0.2,1.9-0.7c0.1,0.5,1.5,0.8,0.1,1.3c1.1,0.3,2.2,0.4,3.5,0.4c0.6,0,1.2-0.1,1.9-0.1c0.3,0,0.6-0.1,1-0.1
			c0.5-0.1,1.1-0.1,1.6-0.3c1.3-0.4,2.6-0.8,3.9-1.2c1.3-0.4,2.6-0.8,3.8-1c1-0.5,0.6-0.6,1-1c0.9,0.1,1.7,0,2.6-0.2
			c0.4-0.1,0.9-0.2,1.3-0.3l0.7-0.2l0.3-0.1l0.1-0.1c0.1,0,0.1-0.1,0.3-0.1l0.6-0.1c0.4-0.1,0.9-0.2,1.3-0.2
			c0.9-0.1,1.7-0.2,2.6-0.2c-0.8-0.4,0.1-2,2-2.2c2-1.2,0.9,1.3,2.8,1.8c0.9-0.5,2.6-0.7,3.4-0.7l-0.1,0.2c0.6-0.3,1.3-0.5,2.1-0.6
			c0.8-0.1,1.6,0,2.2,0.2l-0.2,0.1c1.1,0.1,2.4,0.7,3.5,0.7c0.3-0.5,1.1-0.5,2-0.6c0.9,0,1.7,0,2.1-0.4c0.1,0.1-0.1,0.2,0.2,0.4
			l0.2-0.8c0.8,0.2,1.5,0.4,2.3,0.6c-0.5,0.3-0.7,0.6-1.3,0.8c2.4,0.8,0.9-0.7,2.2-1c1.8-0.4,1.6,0.4,2.4,0.8
			c-0.7,0.3-1.2-0.3-1.7-0.2c-1,0.5,1,0.4,1,0.8c0.4,0.1,0.6-0.9,1.9-0.5c1.1,0.2,3.6,0.4,3.2,1.2c1-0.3,2,0,2.8-0.2
			c-0.8-0.3-2.4-0.8-2.5-1.4c0.8,0,2.4,0.1,2.6,0.5l-0.7,0.1c0.3,0,1.1,0.1,1.6,0.1c0.5,0.1,0.8,0,0.3-0.5l1.4,1.5
			c0.8-0.5,2.4-0.1,3.8,0.2c-0.2,0.9-1.5,1.5,0.8,2.5c0.9,0,1.1-0.3,1.7-0.3c0,0,0.2,0.1,0.3,0.2c0.1,0.1,0.2,0.1,0.3,0.2
			c0.2,0.1,0.3,0.2,0.3,0.3c0.1,0.2,0.1,0.4-0.2,0.5c3.3,2.6,4.9,0.1,7.3,2.4c-1.7,0.2-0.8,0.9,0.3,1.9c0.1-0.1,0.4-0.3,1-0.1
			c-0.1-0.6-1.1,0.2-1.7-1c0-0.7,1.4,0.3,2.1,0.5c1.3,3.5,7.9,5.5,11.4,8.8c0.4-1.3,2,0.8,3,0.9c-0.5,0.5,0.1,0.8,0.9,1.1
			c0.4,0.2,0.8,0.3,1.2,0.6c0.2,0.1,0.4,0.2,0.5,0.4c0.1,0.1,0.2,0.1,0.2,0.2c0,0.1,0,0.1,0,0.2c0.1-0.2,0.2-0.4,0.2-0.7l0-0.7
			c0.4,0.4,0.5,0.5,0.7,0.6c0.1,0.1,0.3,0.2,0.4,0.2c0.2,0.1,0.4,0.2,0.7,0.3c0.5,0.2,0.9,0.4,1.3,0.6c0.8,0.4,1.4,0.8,1.5,1.8
			c0.9,1.4-1.1,0.3-1.7,0c0.6,2.6,5.1,3.2,5.3,5.6c0.5-0.3,0.6-1.3,2.4-0.4c0.7,1.5,2.5,4.1,2.2,4.1c1.1,0.7,1.7,0.6,2.3,1.9
			c-0.3,0.2-0.8-0.2-1.2-0.4c0.5,0.7,1.1,1.2,1.8,1.7c0.3,0.2,0.6,0.4,1,0.6c0.3,0.2,0.7,0.4,0.9,0.5c0.2,0,0.6,0.3,0.9,0.6
			c0,1.6,3,4.2,4.2,6.4c1.9,0.3,2.3,3.4,3.7,2.5c-0.2,0.1-0.1,0.4-0.1,0.6c1,0.4,2.3,0.3,3.1,1.2l-1,0.4c-1.1,0.6,1.6,2.5,1.8,3.3
			c0.1-1,0.9,1.2,1.5,0.7l1.2,0.9c1.7,1.5,0.6-0.1,2.5,1.9c1.1,1.2-0.6,1.2-0.8,0.7c0.3,1,1,1.6,1.7,2.3l0.6,0.5
			c0.1,0.1,0.3,0.3,0.5,0.4c-0.2-0.2-0.4-0.4-0.4-0.5c0-0.1,0.1-0.1,0.4,0.1c-0.1,0.1,0,0.3,0.1,0.5c0,0,0.1,0.1,0.1,0.1
			c0.5,0.5,1,0.9,1.5,1.5c0,0,0,0-0.1,0c-0.6-0.6-1.1-1.1-1.5-1.5c0.3,0.5,0.8,1.1,1.4,1.7c0,0.1,0.2,0.3,0.4,0.5
			c0.2,0.2,0.4,0.5,0.5,0.7c0.3,0.1,0.6,0.1,0.8,0.2c-0.3,0.2-0.6,0.5-1,0.7c0.8,0.1,2.3,0,3.6-0.1c0.3,0,0.6-0.1,0.9-0.1
			c0.1,0,0.2,0,0.3-0.1c0.1,0,0.2-0.1,0.2-0.1c0.3-0.1,0.4-0.2,0.4-0.3c3.7,1.1,10.1,1.2,12.7,1c-0.5,0.1-0.6,0.4-0.1,0.2
			c1.3,0,2.9-0.6,3,0c0.8-0.1,1,0.2,1.5,0.4c-0.4,0.5-0.7,1-1.1,1.4l-2.5,3.3l-2.4,3.4l-2.3,3.2c-1.9,6.7-8.1,13-11.5,20.1l-0.3-0.9
			c-3.4,5.6-5.5,6-11.9,11.1c0.6,0.7-2,2.3-0.2,2.6c-0.6,1.5-1.9,1.9-3.3,2.4c-1.5,0.5-3,1.1-4.4,2.6c-0.4-0.3,0.6,0.6-0.3,0.8
			c-1.7,2-2.5,2.9-3,3.1c-0.4,0.3-0.4,0-0.5-0.2c-0.1-0.3-0.4-0.6-1.3-0.4c-0.5,0.1-1.1,0.3-1.9,0.7c-0.4,0.2-0.9,0.4-1.5,0.7
			c-0.6,0.3-1.2,0.6-1.9,0.9l-2.7,1.9c-0.9,0.7-1.9,1.2-2.8,1.8c-0.9,0.6-1.9,1.2-2.8,1.8l-2.9,1.6c-1.9,1.1-4,2-6,3
			c-0.5,0.2-1,0.5-1.5,0.7l-1.5,0.6l-3,1.2l-0.7,0.3l-0.8,0.2l-1.7,0.4c-1.1,0.3-2.2,0.5-3.3,0.8c-1.1,0.3-2.2,0.5-3.3,0.8
			c-1.1,0.2-2.3,0.4-3.4,0.7c-2.3,0.4-4.5,0.8-6.8,1.2c-2.2,0.3-4.3,0.5-6.5,0.8c0.9,0,1.4,0.9-0.3,1.2
			C416.2,785.8,414.7,786.3,413.1,786.8z"/>
		<path class="st0" d="M950.8,75.6c-4.7,3.4-9.8,6.4-13.7,10.8c-0.8,0.9-1.6,2.1-3.1,2.3c-0.8,1-2.2,1-3,2c-0.5,0.6-1.4,1-1.9,1.7
			c-0.4,0.9-1.2,1.2-2.1,1.4c-2.5,1.5-4.5,3.5-7,5l0,0.1c-1.9,3.5-4.5,6.2-8.2,7.8c-1.2,0-2.1,0.7-3,1.5c-6,5.2-13,9.1-18.8,14.6
			c-1.8,1.6-4,2.7-5.9,4.1c-0.4,1-1,1.7-2.1,1.9c-0.9,3-4.1,2.6-6.1,3.9c-4.7,2.5-7.7,7-12,10c-1.9,1.4-4.3,2.2-5.8,4.2
			c-8.7,8.2-19.1,14.1-28.1,21.8c-1,1.2-3,0.7-3.9,2.1c-5.7,4.2-10.7,9.3-16,14c-0.9,1.9-2.3,3.1-4.2,3.8c-3,2.1-6.3,4-9,6.5
			c-3.9,3.6-8.6,6.3-12.6,9.8c-1.4,1-1.6,3-3.2,3.8c-6.5,7.9-14.1,14.6-21.8,21.1c-5.6,4.8-11.3,9.4-16.1,14.9c-0.8,1-2.3,0.9-3,2
			l0,0c-0.7,0.6-1.3,1.4-2.2,1.8l0.1,0c-1.4,1.4-1.7,3.7-3.5,4.8c-0.8,0.3-1.7,0.6-2.4,1.2c-5.3,3.3-8.8,8.6-14,12
			c-0.6,1.2-2.2,1.1-2.9,2l0,0.1c-2,2-4.4,3.6-6,6c-2.7,2.5-5.1,5.6-8.2,7.5c-5.6,3.4-10.1,8-14.8,12.5c-1,1.7-2.1,3.2-4.1,3.9l0,0
			c-0.7,0.8-1.3,1.6-2.3,1.9c-2.2,0.8-3.7,2.6-5.5,4c-5.7,4.4-10.1,10.2-16.2,14.2c-1.7,1.3-3.3,2.7-4.9,4.1l0,0
			c-1.4,1-1.7,2.9-3.1,3.9c-4.3,5.4-10.2,9.3-14.7,14.5c-1.7,1.9-4,1.8-6,1.1c-2.4-0.9-4.4-0.8-6.6,0.1c-1.3,0.5-2.9,0.4-4.4,0.6
			c-2,1.5-4.4,0.3-6.5,1.2c-1.4,2.3-4.2,1.1-6,2.5c-4.3,0.2-7.1,3-9.9,5.9c-0.7,1.9-2.9,1-4,2.1l0.1,0c-0.9,0.9-2.3,1.1-3.2,2.1
			c-3.6,3.1-6.4,7.1-10.3,10.1c-0.4,0.3-0.4,1.2-0.5,1.8c-0.9,1.3-1.8,2.6-2.9,3.7c-0.2,0.4-0.4,0.9-0.4,1.4
			c-0.1,2.2,1.3,3.8,2.3,5.5c1.2,0.8,2.4,0.6,3.7,0.4c1-1.1,2.2-1.9,3.4-2.7c1.9-0.1,2.7-1.7,3.9-2.7c4.4-3.5,8.9-6.8,13.9-9.4
			c1.2-1.1,3-0.8,4.1-1.9c2-1.3,4-2.7,6-4c4.7-1.6,9.5-2.6,14.2-3.9c3.9-0.1,7.7-0.2,11.6-0.3c1.7-1.6,4.5-0.1,6.2-1.9
			c1.2-0.9,2.2-2.1,3.9-2.2c2.1-1.5,0.3-4.3,2-5.9c1.8-1.7,3.3-3.7,5.3-5.1c7.2-5.1,13-11.8,19.9-17.3c3.6-2.8,6.9-6,10.5-8.9
			c7.3-5.8,14.5-11.8,21.7-17.7c4.3-3.5,8.5-7.1,12.8-10.7c0.7-1.6,3-0.6,3.7-2.3c2.4-2.6,5.5-4.6,7.8-7.5c2.6-3.4,6.2-5.8,9.8-8.1
			c0.8-0.5,1.7-0.9,2.4-1.6c4.7-5.1,10.2-9.2,15.4-13.7c9.2-8.2,17.5-17.3,26.8-25.4c1-0.8,2-1.8,2.1-3.3c0.6-1.7,2.9-0.7,3.7-2.3
			c2.6-3.2,5.7-5.7,9.1-8.1c4.8-3.4,9-7.4,13-11.7c0.8-1.5,3-0.6,3.8-2.2c1.8-2.2,3.5-4.6,6.1-6c1-1.3,3.1-0.5,4-2
			c2.6-3.1,6-5.4,9.1-7.8c3.7-2,4.8-6.9,9.3-7.9c4.7-2.1,8-6.1,12.6-8.2c1.2-1.9,3.2-2.9,5-4c2.6-2.4,5.3-4.6,8.5-6.2
			c1.5-0.7,3.2-1.6,3.6-3.6c0.2-0.3,0.5-0.6,0.7-0.9c0.2-0.3,0.4-0.7,0.6-1c0.7-1.3,2-1.2,3.2-1.2c0.6,0,1.3-0.1,1.8-0.5
			c0.7-2,1.7-3.6,3.9-4.3c0.3-0.1,0.7,0,0.9-0.2c6.2-6,13.6-10.5,20.6-15.5c1.9-1.3,3.7-2.6,5.2-4.3c3.4-4.5,8.8-6.4,12.9-10.1
			c3.6-2,5.8-5.8,9.2-7.8c9-5.2,15.8-13.2,24.8-18.2c0.5-0.7,0.9-0.8,1.6-1.1V67.7C957.9,70.4,954.5,72.9,950.8,75.6z"/>
		<path class="st0" d="M582.3,668.2c-0.2,2.1,0,4.4-0.7,6.4c-2,6-0.7,11.8,0.6,17.6c2,1.5,0.7,3.7,1.2,5.5c0.4,3.2,1.9,4.4,5,2.6
			c1.2-0.1,1.5-0.9,1.9-1.9c1.6-4.2,1.5-8.7,2.6-13c1.1-4.2,1.1-8.1,0.2-12.2c-0.3-1.3-1-2.8-0.6-3.9c2.1-4.9,0.8-10.1,1.7-15.1
			c1.6-4,1.2-8.3,1.3-12.5c0.1-2.4-1.4-2.7-3.2-1.3l0.1-0.1c-1.3,1-0.8,3-2.2,4c0.1,1.7-1.3,2.7-2,4.1c-1.5,1.6-0.3,4.3-2.2,5.8
			l-0.1-0.1c-1.1,1.2-0.5,3.1-1.8,4.1l0,0c-0.9,1.6-1,3.3-1,5C583.5,665,584.2,666.9,582.3,668.2z"/>
		<path class="st0" d="M231.4,758.2c-0.3,0-0.6-0.1-0.8-0.2c-3.1-1.9-6.1-4.5-10-1.9l0,0c-1,1.3-3,0.6-4,2l0,0c-0.7,0.6-1.4,1.3-2,2
			l0,0c-1,1.3-3,0.6-4,2c-1.5,0.4-2.3,2.1-4,2.1c-1.8,1.6-4.4,0.1-6.1,1.8l0,0c-1.1,1.5-2.5,2.7-3.3,4.4c-0.3,1.5,0.3,2.6,1.6,3.5
			c2.8-0.2,4.8,2.6,7.7,2c1.8-1.6,4.4-0.2,6.2-1.7c3.6,0.3,5.1-3.1,7.8-4.3c1.7-1.7,4.4-0.2,6.2-1.8c1.7,0,2.2-2,3.9-2.1
			c1.3-1.4,3.1-0.7,4.6-1.2c0.4-0.3,0.7-0.6,0.9-1C236.5,760.3,233.1,759.9,231.4,758.2z"/>
		<path class="st0" d="M98.5,584.2C98.5,584.2,98.5,584.2,98.5,584.2C98.5,584.2,98.6,584.2,98.5,584.2L98.5,584.2z"/>
		<path class="st0" d="M124.4,534.2c-3.1,1.8-4.4,5-5.8,8.1c-1.8,1.6,0,4.5-2.1,6c-2,0.7-2.8,2.5-3.9,4c-1.3,1-0.6,3-1.9,4.1
			c-0.3,2.2-1.8,3.9-2.8,5.7c-2.9,5.2-5.1,10.6-7.3,16.1c-1.2,1.8-0.2,4.4-2,6c-0.5,0.7-0.4,1.6-0.7,2.4c-0.1,0.4-0.3,0.7-0.4,1
			c-0.2,0.2-0.5,0.5-0.7,0.6l0,0c-1.4,0.9-0.6,3.1-2.1,4c-0.7,1.3-1.4,2.6-2,4c-0.6,1.4-0.7,3-1.8,4.2c0.2,2.9-1.5,5.2-2.1,7.9
			c-0.9,1.8-0.6,3.8-0.9,5.8c-0.3,2.5-0.6,4.9-3.1,6.2c-2.2,2.9-1.9,6.3-2.2,9.7c-1,1.3-0.4,3.2-1.9,4.3c0,0.6,0,1.2-0.1,1.7
			c-1.8,3.2,0.3,7.1-2,10.2c0.9,1.7,2.4,2.1,4.1,2.1c0.7-0.5,0.3-1.5,1-2c0.4,0,0.8,0.1,1.2,0.1c0.6,0.4,1.2,0.5,1.6-0.3
			c0-2.8,1.9-5.1,2.2-7.8c1.4-1,0.7-3,1.9-4.1c0.6-2.6,2.2-5,2.2-7.8c1.2-2.1,2-4.3,2.7-6.6c0.3-0.6,0.8-1,1.1-1.6
			c-0.2-2.2,1-4,2-5.9c2.2-2.1,0.3-5.3,2.2-7.5c1.4-1.9,0.3-4.6,2-6.4c2.8-3.6,3.2-8.4,5.8-12.1c1.5-1,0.8-3,1.9-4.2
			c0-2.9,1.8-5.2,2.9-7.7c2.4-5.3,5.7-10.3,7.3-16c1.4-1,1-2.8,2.1-4c1.7-4.9,3.8-9.6,5.7-14.4C130.3,534.8,129.3,533.5,124.4,534.2
			z"/>
		<path class="st0" d="M122.7,554.4L122.7,554.4C122.8,554.4,122.8,554.4,122.7,554.4C122.7,554.4,122.7,554.4,122.7,554.4z"/>
		<path class="st0" d="M78.5,646.1C78.5,646.1,78.5,646.1,78.5,646.1C78.5,646.1,78.5,646.1,78.5,646.1L78.5,646.1z"/>
		<path class="st0" d="M303.2,372c1.7-0.3,2.3-1.1,2.7-2C300.2,372.1,307.5,369.5,303.2,372z"/>
		<path class="st0" d="M162.9,484.6c-0.2,0.3-0.4,0.9-0.7,1.9C162.6,485.7,162.8,485.1,162.9,484.6z"/>
		<path class="st0" d="M475,779c0.1-0.1,0.2-0.2,0.4-0.2c0,0-0.1,0-0.1,0.1C475.1,778.8,475.1,778.9,475,779z"/>
		<path class="st0" d="M144.2,540.6c0-0.2-0.1-0.3-0.2-0.5C144,540.4,144.1,540.5,144.2,540.6z"/>
		<path class="st0" d="M147.8,524c0-0.2,0-0.5-0.1-0.8C147.7,523.5,147.7,523.7,147.8,524z"/>
		<path class="st0" d="M417.5,785.7c-0.1,0-0.2,0-0.3,0C417.3,785.7,417.4,785.7,417.5,785.7z"/>
		<path class="st0" d="M205.7,704.1c-0.1-0.1-0.3-0.1-0.4-0.2c0.5,0.6,1,1.3,1.6,1.9L205.7,704.1z"/>
		<path class="st0" d="M457.8,789.3c0.1,0,0.2,0,0.3,0.1C458,789.4,458,789.3,457.8,789.3z"/>
		<path class="st0" d="M387.5,788.1c0.1,0,0.2,0,0.3,0c0.6-0.1,1.1-0.2,1.7-0.4C388.7,787.7,388.3,787.9,387.5,788.1z"/>
		<path class="st0" d="M292.6,373.6c-0.3,0.3-0.6,0.6-0.9,0.9C292,374.2,292.3,373.9,292.6,373.6z"/>
		<path class="st0" d="M522.6,729.4c-0.1,0.2-0.2,0.4-0.3,0.6C522.5,730.2,522.5,729.9,522.6,729.4z"/>
		<path class="st0" d="M281.9,382.3c-0.2,0.2-0.4,0.4-0.5,0.5C281.7,382.7,281.9,382.5,281.9,382.3z"/>
		<path class="st0" d="M571.1,547.7c0,0,0,0.1,0,0.1C571.1,547.8,571.1,547.7,571.1,547.7z"/>
		<path class="st0" d="M297.9,374.8c0-0.8-2-0.8-2.7-1.3C293.3,375.8,296.6,374.5,297.9,374.8z"/>
		<path class="st0" d="M156,498.4c-0.7-1.3-0.9,3.6-1.8,4.6C155.3,502.3,155.6,499.6,156,498.4z"/>
		<path class="st0" d="M149.4,522.9c0-0.9,0.2-1.2,0.5-1.9l-1.1,0.4C148.6,522.6,148.7,524.1,149.4,522.9z"/>
		<polygon class="st0" points="374.6,802.4 377,801.9 374.9,801.6 		"/>
		<path class="st0" d="M530.4,719.6c1.6-2.5,0.6,0.6,1.9-1.3C531.9,718.6,531.4,717.3,530.4,719.6z"/>
		<polygon class="st0" points="560.7,627.7 560.8,627 559.3,627.1 		"/>
		<path class="st0" d="M515.9,539.9c0,0.1,0.1,0.1,0.1,0.2c0,0,0,0,0-0.1C515.9,540,515.9,539.9,515.9,539.9z"/>
		<path class="st0" d="M355.8,413.1c0,0.2,0,0.4-0.1,0.7c-0.2,0.7-0.4,1.4,0.2,2.1c-0.2,0.6-1.1-0.6-0.9,0.7
			c0.5,0.5,0.9,0.2,1.2-0.4c0.3-0.6,0.4-1.6,0.4-2.7c0-0.1,0.1-0.1,0.1-0.1C356.4,413.5,356.1,413.5,355.8,413.1z"/>
		<path class="st0" d="M368.6,456.6c0,0.2,0.2,0.5,0.5,1C368.9,457.2,368.8,456.9,368.6,456.6z"/>
		<path class="st0" d="M370.6,369.9c0,0.1-0.1,0.3-0.1,0.4C370.6,370.2,370.7,370,370.6,369.9z"/>
		<path class="st0" d="M356.7,413.3c0.1-0.1,0.2-0.1,0.3-0.2C356.9,413.1,356.8,413.2,356.7,413.3z"/>
		<path class="st0" d="M355.8,413.1c0-0.5-0.1-0.9-0.7-1.4C355.4,412.4,355.6,412.9,355.8,413.1z"/>
		<path class="st0" d="M549.2,547.7c-0.1,0.1-0.1,0.3-0.2,0.4C549.2,548.2,549.2,548,549.2,547.7z"/>
		<path class="st0" d="M494.8,533.1C494.8,533.1,494.8,533.1,494.8,533.1c0-0.1-0.1-0.2-0.2-0.3
			C494.6,532.9,494.6,532.9,494.8,533.1z"/>
		<path class="st0" d="M396.8,574.1c-0.1,0-0.1,0-0.2,0c0.3,0.2,0.5,0.4,0.8,0.5C397.1,574.5,396.9,574.3,396.8,574.1z"/>
		<path class="st0" d="M356.4,410.7c-0.3-0.3-0.6-0.1-0.8-0.8c-0.3,0.6,0.4,1.2,0.6,1.8C356.3,411.5,356.6,410.7,356.4,410.7z"/>
		<path class="st0" d="M359.2,424.5c-0.8-1.5-1.6-3-2.3-4.5C357.4,421.7,358.6,424.4,359.2,424.5z"/>
		<path class="st0" d="M360.8,437.7c-0.4-0.2-0.7-0.6-0.9-0.4C360.3,438.7,360.7,438.9,360.8,437.7z"/>
		<path class="st0" d="M362.3,438.1c-0.8,0,0,1.3,0.2,1.9C362.6,439.6,362.6,439,362.3,438.1z"/>
		<path class="st0" d="M362.5,440.1c0,0.1,0,0.2-0.1,0.3C362.5,440.4,362.5,440.2,362.5,440.1z"/>
		<path class="st0" d="M371.1,464.5c-1-0.1,1,1.7,0.8,2.4C372.3,466.2,371.4,465.1,371.1,464.5z"/>
		<path class="st0" d="M374.5,475.4c0.1,0.5,0.6,1,0.8,0.4c-0.2-0.4-0.1-0.5-0.1-0.8L374.5,475.4z"/>
		<polygon class="st0" points="502.4,543.4 502.5,543.9 504.4,543.2 		"/>
		<path class="st0" d="M553.5,537.4c0,0.4-1-0.2-0.4,1.8C552.7,536.8,553.8,539.3,553.5,537.4z"/>
		<path class="st0" d="M538.3,486.1l0-0.4c-0.4,0.1-0.8,0.2-1.2,0.3L538.3,486.1z"/>
		<path class="st0" d="M226.9,446.4c0.3-0.5,0.4-0.9,0.4-1.2C227,445.5,226.8,445.8,226.9,446.4z"/>
		<path class="st0" d="M227.3,445.3c0.6-0.4,1.6-0.4,1.7-1.3c0.5-0.1,0.3,1.1,1,0.4c0-1.1-1.7-0.9-3,0.1c-0.1,0-0.1,0-0.1,0
			C227.2,444.6,227.4,444.8,227.3,445.3z"/>
		<path class="st0" d="M226.6,444.4c0,0.1,0.1,0.1,0.3,0.1C226.8,444.4,226.7,444.4,226.6,444.4z"/>
		<path class="st0" d="M258.2,424.2c-0.1,0.1-0.2,0.1-0.3,0.3C258,424.5,258.1,424.4,258.2,424.2z"/>
		<path class="st0" d="M264.9,425c-0.1,0-0.1,0-0.3,0C264.6,425,264.8,425,264.9,425z"/>
		<path class="st0" d="M262,608.7c0,0.1,0.1,0.1,0.1,0.1c0,0,0,0,0-0.1c0-0.1,0-0.1,0-0.2c0-0.2-0.1-0.3-0.1-0.5l0,0.1
			c0,0.1,0,0.2,0,0.3L262,608.7z"/>
		<path class="st0" d="M235,672.2c0.1-0.1,0.1-0.2,0.2-0.3C235.1,671.7,235,671.9,235,672.2z"/>
		<path class="st0" d="M280.5,513.3c-0.1,0-0.2,0-0.3,0c0.3,0.3,0.6,0.6,0.9,0.9L280.5,513.3z"/>
		<path class="st0" d="M245.7,644.1c0,0,0-0.1,0-0.1C245.7,644,245.7,644,245.7,644.1C245.7,644.1,245.7,644.1,245.7,644.1z"/>
		<path class="st0" d="M225.4,447c0.5-0.1,0.4-0.9,0.8-1.4c-0.2,0-0.9,0.2-0.8,0.4C225.4,446.4,225.7,446.5,225.4,447z"/>
		<path class="st0" d="M232.9,438.9c-0.3,0.4-0.6,0.9-0.9,1.3c-0.3,0.5-0.6,1-0.9,1.5C232,440.8,233.1,439.5,232.9,438.9z"/>
		<path class="st0" d="M245.8,437.6c0.2-0.2,0.3-0.3,0.3-0.4c0-0.2-0.2-0.2-1,0c-0.2,0.5-0.7,0.9-0.4,1.1
			C245.2,438,245.6,437.8,245.8,437.6z"/>
		<path class="st0" d="M246.4,435.2c0.3-0.3,0.6-0.5,0.8-0.7c-0.5,0.1-1.1,0.3-1.9,0.9C245.4,436,245.9,435.6,246.4,435.2z"/>
		<path class="st0" d="M247.2,434.5c0.1,0,0.2,0,0.3-0.1C247.4,434.4,247.3,434.4,247.2,434.5z"/>
		<path class="st0" d="M263,424c-0.2-0.7-0.9-0.2-1.1-0.1C261.7,424.8,262.7,423.5,263,424z"/>
		<path class="st0" d="M265.6,424.3c-0.2,0-0.2-0.1-0.2-0.3c-0.2,0.2-0.4,0.3-0.6,0.5C265,424.6,265.5,424.7,265.6,424.3z"/>
		<path class="st0" d="M253.1,598.6c-0.2,0.5-0.4,1-0.6,1.5c0.3-0.4,0.6-0.7,0.9-1L253.1,598.6z"/>
		<path class="st0" d="M230.3,676c-1.1,1-0.4-0.6-1.2,0.2C229.3,676.1,229.6,677.1,230.3,676z"/>
		<polygon class="st0" points="187.3,669.1 187.7,668 187.4,667.9 		"/>
		<path class="st0" d="M353.5,713c0.1,0,0.2,0.1,0.3,0.1C353.7,713,353.6,713,353.5,713z"/>
		<path class="st0" d="M492.9,708.4C492.9,708.4,492.9,708.4,492.9,708.4c-0.1-0.1-0.1-0.2-0.2-0.2
			C492.8,708.3,492.8,708.3,492.9,708.4C492.9,708.4,492.9,708.4,492.9,708.4z"/>
		<path class="st0" d="M351.9,746.4c-0.1,0.2-0.2,0.3-0.3,0.4c0.2-0.2,0.6-0.8,0.8-1.3C352.2,745.8,352.1,746.1,351.9,746.4z"/>
		<path class="st0" d="M324.4,776c0.1-0.1,0.3-0.2,0.5-0.2c0.5-0.2,1.1-0.4,1.3-1.2c0.5-0.1,0.2,1,1,0.3c0.2-1.1-1.6-0.7-3,0.4
			c-0.1,0-0.1,0-0.1,0C324.3,775.4,324.4,775.6,324.4,776z"/>
		<path class="st0" d="M323.9,777.2c0.3-0.5,0.5-0.9,0.5-1.2C324.1,776.2,323.8,776.6,323.9,777.2z"/>
		<path class="st0" d="M354.2,645.6c-0.1,0.1-0.1,0.1-0.2,0.2c0.4-0.1,0.8-0.1,1.3-0.2L354.2,645.6z"/>
		<path class="st0" d="M467.3,667.7c0,0,0.1,0.1,0.1,0.1c0.3,0.2,0.5,0.3,0.8,0.5C467.9,668,467.7,667.9,467.3,667.7z"/>
		<path class="st0" d="M323.7,775.2c0,0.1,0.1,0.1,0.3,0.1C323.9,775.2,323.8,775.2,323.7,775.2z"/>
		<path class="st0" d="M322.5,776.9c0,0.4,0.3,0.5,0,0.9c0.5-0.2,0.4-0.9,0.8-1.4C323.1,776.5,322.4,776.7,322.5,776.9z"/>
		<path class="st0" d="M328.5,772c1-1.1,2.5-3.2,2.3-3.7C330,769.5,329.2,770.7,328.5,772z"/>
		<path class="st0" d="M338.5,757.8c0.2,0.2,0.3,0.3,0.6,0.4C339.2,758.1,339,757.9,338.5,757.8z"/>
		<path class="st0" d="M338.4,757c-0.1-0.1-0.1-0.1-0.2-0.1C338.3,757,338.3,757,338.4,757z"/>
		<path class="st0" d="M337.6,756.9C337.5,757,337.5,757,337.6,756.9c0.2,0.2,0.3,0.3,0.4,0.2c0.2,0,0.2-0.2,0.3-0.2
			C338,756.9,337.8,756.8,337.6,756.9z"/>
		<path class="st0" d="M356.6,740.1c0.4,0.8,0.7-1.8,1.4-2.1C357.3,738.1,356.9,739.5,356.6,740.1z"/>
		<path class="st0" d="M358.9,722.3c-0.1-0.1-0.2-0.2-0.3-0.3c-0.2-0.1-0.3,0-0.3,0.4c0.3,0.3,0.4,0.7,0.7,1.3
			c0.1-0.3,0.2-0.6,0.3-0.8c-0.1-0.1-0.1-0.2-0.2-0.4C359,722.4,359,722.4,358.9,722.3z"/>
		<path class="st0" d="M455.9,670.4l0.6,0.3c-0.2-0.3-0.5-0.7-0.5-0.8l-0.4,0.3l0.1,0.1C455.7,670.3,455.8,670.3,455.9,670.4z"/>
	</g>
</g>
</svg>
