<svg xmlns="http://www.w3.org/2000/svg" viewBox="0 0 1200 798.73"><defs><style>.cls-1{fill:#BB8760;}</style></defs><g id="Graphic_elements" data-name="Graphic elements"><path class="cls-1" d="M0,486.51c1.53-1.16,2.18-2.92,3-4.56,4.72-9.78,9.27-19.64,14.12-29.34q7.77-15.51,16.39-30.56c6.94-12.11,13.76-24.29,20.59-36.45a15,15,0,0,1,3.11-3.93c2.92-2.63,3-2.76,6.53-.95a216.3,216.3,0,0,1,24.16,13.95,172.8,172.8,0,0,0,14.75,9.1c1.7.92,3.17,1.37,5.16.58,2.91-1.15,3.39-.79,3.2,2.33-.1,1.64.9,1.94,1.84,2.38,4.6,2.14,9.17,4.39,13.87,6.28,15.58,6.26,30.74,13.46,46,20.37,6.17,2.79,12.53,5.07,18.81,7.56,7.2,2.84,14.41,5.69,21.58,8.62,8.88,3.63,17.87,7,27,9.78,11,3.35,21,8.92,31.79,12.71,3.19,1.12,6.42,2.15,9.53,3.47,3.7,1.56,4.24,2.77,3.16,6.61A77.38,77.38,0,0,1,280,496.25c-2.8,6-5.52,12.05-7.18,18.5a9.58,9.58,0,0,1-2.2,4.52c-.81.83-1.78,1.57-3,.86s-.71-1.89-.35-3c3.27-9.92,7.49-19.45,11.57-29,2.63-6.18,2.53-6.25-4-8.38a192.64,192.64,0,0,1-21.19-8.49,137.68,137.68,0,0,0-17-6.32c-12.93-4.07-25.35-9.48-38-14.16-.79-.3-1.56-.65-2.35-1-5-1.94-5-2-7.3,2.65-2.12,4.3-4.13,8.65-6.12,13-1.34,2.92-1.31,3.09,1.67,4.43,6.57,2.93,13.15,5.84,19.78,8.6A247.05,247.05,0,0,1,231,492.06c4.54,2.57,9.15,5,13.75,7.47a15.76,15.76,0,0,0,5.18,1.73c2,.3,2.95,1.8,2.36,3.22-.71,1.68-2.11,1.64-3.57,1.16a66.7,66.7,0,0,1-13.31-6.43c-16.59-10-34.32-17.68-52.06-25.33-3.5-1.51-3.66-1.46-5.38,2.11q-4.6,9.52-9.12,19.07c-1.52,3.22-1.45,3.54,1.85,5.16,10.26,5,20.34,10.4,30.08,16.38,5.3,3.26,10.41,6.76,14.63,11.4a8,8,0,0,1,2.32,3.48,2.3,2.3,0,0,1-1.33,2.8,2,2,0,0,1-2.91-.9c-3.14-6.3-9-9.56-14.6-13a322.23,322.23,0,0,0-29.27-16.09c-4.11-2-4.28-1.92-6.46,2.11q-4.9,9.12-9.87,18.22c-2,3.6-2,3.84,1.91,5.58a166.27,166.27,0,0,1,22.13,11.48c2.25,1.45,4.44,3,6.6,4.58,1.18.86,2.34,2,1.12,3.5s-2.62.79-3.77-.18c-6.78-5.68-14.76-9.32-22.58-13.2-2.15-1.07-4.34-2-6.56-2.94-2.86-1.14-3.12-1.11-4.74,1.62-3.81,6.43-7.5,12.93-11.24,19.4l-2.33,4c-.89,1.53-.6,2.69,1.08,3.39.91.38,1.83.72,2.76,1.06Q152.05,568,166,574.16c2.4,1.06,5.28,1.12,7,3.53.87,1.17,2.81,2,1.38,3.82-1.13,1.39-2.59.54-3.83-.18-9.06-5.28-19-8.67-28.65-12.52-2.75-1.1-5.55-2.07-8.34-3-3.11-1.09-3.22-1.09-5.1,1.83-4,6.29-8,12.65-12,18.93-3.89,6.05-8,12-12.36,17.68-1,1.31-2.09,3.27-4,1.87s-.33-3.05.67-4.34c8.44-11,15.61-22.79,23-34.49l.46-.71c1.92-3.18,1.87-3.54-1.63-4.77-8.91-3.14-17.82-6.28-26.79-9.24-17.67-5.83-35.5-11.17-53.44-16.15-6.25-1.74-5.35-2.16-8.6,3.82C26.81,553,20.71,566.14,15,579.5c-2.27,5.3-2.14,5.78,2.42,9.09a290.48,290.48,0,0,0,46.72,28,249.26,249.26,0,0,1,26.2,13.75c1.62,1,3.31,1.7,5.2,1.18,5.57-1.54,11.23-2.85,16.42-5.47a36.81,36.81,0,0,0,9.92-7.14c2.76-2.82,5.49-5.67,8.22-8.53,4.11-4.31,5.55-4.66,11.2-2.5,4.3,1.63,7.82,4.47,11.12,7.57,1.51,1.43,2.75,1.6,4.37.25,9.23-7.65,19.54-13.87,28.63-21.72,12.81-11,25.69-22,38.49-33.06A409.64,409.64,0,0,1,262,531.45c13.32-9,25.74-19.23,38-29.66,6.87-5.85,13.76-11.68,20.85-17.25a180.6,180.6,0,0,0,18.64-17.18,271.89,271.89,0,0,1,36-32c3.19-2.33,6.43-4.59,9.7-6.81A186.61,186.61,0,0,0,407.62,410a85.47,85.47,0,0,1,10.64-8.34c5.16-3.5,10.1-7.23,12.95-13,.38-.76.94-1.61,1.76-1.73,3.15-.44,3.88-3,4.78-5.32,4.55-11.69,9.1-23.39,13.52-35.13,2.58-6.87,5.55-13.57,8.47-20.29A110.85,110.85,0,0,0,464,314.2c1-3.28.45-4.2-2.88-5.27a37.23,37.23,0,0,1-9-4.65,48.76,48.76,0,0,0-10.44-5.53c-2.94-1.06-3.44-1-4.79,1.54-5.72,10.85-12.36,21.2-17.58,32.32-4.44,9.44-10,18.31-13.94,28-6.58,16.35-14.16,32.27-21.13,48.45A169.65,169.65,0,0,1,372,432.7c-.94,1.49-1.83,3.89-4,2.77-2.53-1.31-.45-3.21.37-4.62,12.27-21.33,21-44.3,31-66.7,2.23-5,4.37-10.09,6.85-15,8.2-16.23,16.37-32.48,25.58-48.17,1.06-1.81,2.39-3.53,1.73-5.89a1.89,1.89,0,0,1,1.07-2.12c2-1.14,2.7-3.19,3.48-5.14,2.18-5.51,4.44-11,7.13-16.26,1.47-2.9,1.47-3-1.48-4.43q-15.84-7.54-31.76-15-24.51-11.48-49-22.92-47.33-22.15-94.62-44.3-57.46-26.9-114.94-53.76c-2.94-1.37-5.84-2.82-8.77-4.21-3.84-1.82-4.35-1.72-5.91,2.29-4,10.19-9.48,19.51-15.56,28.52-5,7.37-9.93,14.73-15.06,22a576.27,576.27,0,0,0-36.17,59.13c-11.57,21.47-23.23,42.89-34.64,64.45-7.85,14.82-14.95,30-21.81,45.35-3.86,8.62-7.84,17.18-11.82,25.75C2.84,376.09,2.27,378,0,378.21V370.6c1.74-1.2,2.34-3.16,3.13-4.94,8.87-20.12,18.13-40.07,28-59.7,5.65-11.2,11.81-22.14,17.76-33.19q10.82-20.1,21.67-40.2A615.66,615.66,0,0,1,106.14,175c7.69-11.12,15.8-22,22.33-33.89a124.75,124.75,0,0,0,8-17.24c1.48-4.06,1.94-4.3,5.74-2.53q19,8.84,37.93,17.73,51.72,24.19,103.43,48.39,30.84,14.44,61.64,28.94,50.57,23.69,101.14,47.3c4.95,2.32,5.46,3.69,3,8.43a176.39,176.39,0,0,0-8.11,18.6c-1.09,2.91-1.06,3.16,2,4.34a63.36,63.36,0,0,1,11.92,6.35,31.21,31.21,0,0,0,8.8,4c4.31,1.2,5.4,3,4.56,7.55a66.65,66.65,0,0,1-5,14.8c-6.42,14.44-11.89,29.25-17.63,44a2.39,2.39,0,0,0,.05,1.91c3.2-3.4,6.39-6.82,9.61-10.2,11.27-11.82,21.92-24.26,34.68-34.63,5.14-4.17,9.85-8.85,14.83-13.22,7.26-6.36,16.07-10.43,23.88-16a58.87,58.87,0,0,1,13.7-7.46,37.46,37.46,0,0,1,22.42-1.49c3.28.82,6.57,1.62,9.83,2.53a15.55,15.55,0,0,1,8.79,6.22c1.45,2.08,2.88,4.19,4.46,6.17a20.46,20.46,0,0,1,4.28,11.29c.46,4.95.47,4.95,5.24,6a21.08,21.08,0,0,0,2.07.42c.24,0,.51-.12,1.21-.32A71.06,71.06,0,0,1,597,309c-3-15.91,4.18-27.37,18.13-35.74,4.36-2.61,9.31-4,14.24-5.28,10.79-2.76,21.68-5.18,32.33-8.39,9.76-2.93,19.76-4.53,29.67-6.66,12.81-2.76,25.53-5.92,38.26-9,8-2,15.28-5.8,22.55-9.52,35.16-18,70-36.44,103.7-57.14,17.42-10.71,35.39-20.47,53.69-29.6,4.79-2.39,9.69-4.57,14.57-6.77,2.18-1,2.91-2.15,2.76-4.84-.55-10.13-.7-20.29.68-30.39a32,32,0,0,1,5.49-14.07,101.73,101.73,0,0,1,8.46-11.09c9.7-10.42,19.6-20.69,31.34-28.9C982,45.19,992.15,41,1002.78,38c11.54-3.31,23.44-4.89,35.22-7.06a8.31,8.31,0,0,1,7.43,2.07c2.33,2.05,4.55,4.21,6.78,6.36,1.39,1.35,2.63,1.81,4.38.38,18.88-15.38,39.66-27.84,61-39.46a1.91,1.91,0,0,0,.33-.25h7.62c-1.17,2-3.32,2.54-5.16,3.52-20.91,11.19-41.11,23.51-59.85,38.11-.34.26-.68.51-1,.78-2.17,1.85-2.19,2.18,0,4.19,1.57,1.41,3.16,2.82,4.82,4.13,12.11,9.54,20.54,22,27.6,35.43a233.54,233.54,0,0,1,13.49,30.54c2.83,8,6.86,15.47,9,23.69,3.28,12.55,6.42,25.16,7.61,38.1,1.93,20.75-3.34,39.77-15.29,56.77-4.91,7-11.73,12.21-18.82,16.85a260.82,260.82,0,0,1-46.76,24.48c-8.13,3.2-16.32,6.26-24.52,9.28A47.42,47.42,0,0,1,998,288.75a104.48,104.48,0,0,0-22.75,1.39,11.88,11.88,0,0,1-9.93-2.63c-4-3.33-9.06-4.45-13.15-7.42-1.47-1.07-2.68-.14-3.88.56-7.05,4.14-14.14,8.23-21.13,12.46-19.31,11.66-38.31,23.82-57.24,36.1-11.23,7.29-22.65,14.29-33.93,21.51-3.91,2.51-7.72,5.2-11.45,8-6.66,4.95-11.29,11.28-13.16,19.55-3.74,16.49-7.92,32.87-11.61,49.38-2.88,12.9-5.74,25.89-11,38.13-.78,1.81-1.62,3.6-2.47,5.38-3.29,6.94-8.49,11.13-16.2,12.84-14.18,3.13-28.41,5.95-42.75,8.13-9,1.37-18,1.07-26.71-2.17-2.3-.85-4.51-1.82-5.9-3.89-3.77-5.62-7.55-11.28-7.34-18.88-2,.63-2.94,2.26-4.18,3.41-6,5.46-12.63,9.56-20.79,10.45A32.29,32.29,0,0,1,644,477.51a11,11,0,0,1-3.81-3.28c-1.34-1.79-2.7-3.57-4-5.23-1.17.05-1.28.8-1.45,1.45-1.44,5.42-5.15,9-9.82,11.62-9.07,5.14-19,6.82-29.28,7-4.51.09-9-.1-13.52-.21-1.93,0-3.55.81-5.21,1.56C569,494,561.18,498,553,501c-14.46,5.23-29.3,9.23-44.06,13.47-.81.23-1.65.4-2.44.7-14.18,5.34-29.1,7.84-43.77,11.3-5.62,1.33-10.95,3.53-15.12,7.22-4.34,3.85-9.7,5.73-14.22,9.15-8.89,6.72-17.74,13.45-25.69,21.3-8.33,8.22-17.1,16-25.82,23.75A263.67,263.67,0,0,0,343,631.25c-9.49,13.3-19.65,26.13-29.51,39.18-2.38,3.15-4.68,6.35-7.07,9.49-1.79,2.36-3.5,4.8-5.5,7-8.11,8.81-16.34,17.52-24.48,26.3a71.13,71.13,0,0,1-8.61,7.48c-1.38,1.07-1.42,2,0,3,.69.49,1.34,1,2,1.54,3.65,2.78,4,3.93,1.89,7.75a278.51,278.51,0,0,1-15.48,25.2c-8.54,12.11-17.76,23.67-27,35.26-1.31,1.64-2.78,3.21-3.29,5.36h-5.08c.73-3.34,3.22-5.6,5.21-8.07,10.89-13.5,21.5-27.2,31.26-41.55,3.82-5.61,6.71-11.75,10.35-17.45.46-.73,1-1.68.29-2.34a38.93,38.93,0,0,0-4.59-3.68c-1.07-.74-2.12,0-3.18.4-2.67.9-4.28-.17-3.42-2.61,1-2.78-.55-3.92-2.2-5.22q-11.31-8.9-22-18.49C225,693,217.06,686.63,210.21,679.1c-8-8.76-16.07-17.41-25.36-24.82a89,89,0,0,1-8.13-7.39C170,640,163,633.46,157.1,625.89a12.57,12.57,0,0,0-1.73-1.84,1.57,1.57,0,0,0-2.54.32c-.33.45-.51,1-.84,1.46a1.86,1.86,0,0,1-2.6.6,2.2,2.2,0,0,1-1.13-2.86,5.82,5.82,0,0,1,1.42-2.06c1.43-1.39.93-2.45-.42-3.45-2.26-1.69-4.42-3.52-6.8-5-4.87-3.07-7-2.63-10.79,1.8-7.44,8.78-16.08,15.77-27.58,18.57-3.28.8-6.45,2.05-9.74,2.84A15.45,15.45,0,0,0,85,642.39c-5.76,8.05-13.59,13.38-22.4,17.49-2.93,1.37-3.21,2.22-1,4.56,3.13,3.24,6.4,6.36,9.76,9.37,9.13,8.18,18.46,16.12,27.09,24.87,11.58,11.74,22.38,24.21,34.41,35.52,8.93,8.4,17.39,17.3,26.11,25.92,10.23,10.12,21.61,18.5,35.32,23.41a45.86,45.86,0,0,1,7.63,3.61c4.8,2.81,9.19,6.09,11.26,11.59h-5.08c-.33-1.8-1.65-2.91-2.86-4.08A33.21,33.21,0,0,0,193,787.48c-14.42-5.08-26.29-14-37.06-24.54-11.39-11.13-22.63-22.41-33.9-33.66q-6.73-6.72-13.19-13.7a377.75,377.75,0,0,0-28.14-28c-8-7.07-15.92-14.33-23.48-21.91-1.58-1.59-2.71-1.94-4.68-.9-9.47,5-18.88,10.11-27.23,16.93a65,65,0,0,1-11.78,8.2C9.15,692.05,5,694.79,0,695.5v-3.38a115.58,115.58,0,0,0,27.47-17.25,67,67,0,0,1,7-4.76c8.83-5.58,18.25-10.08,27.66-14.57a51.13,51.13,0,0,0,17.75-13.37c2-2.39,3.74-5,6.21-6.9,1.52-1.18,1.05-2.09-.34-2.87-3.45-1.92-6.87-3.9-10.38-5.69-5.9-3-11.8-6-17.8-8.84-14.86-7-28.57-15.85-41.8-25.5-1.24-.9-2.41-2.47-4-2.08-3.71.91-4.63-1.86-5.9-4.11-.8-1.44-.49-2.93,1.32-3.3,2-.42,2.65-1.88,3.31-3.46a450.67,450.67,0,0,1,20.24-42.31C32.22,534.35,32,533.8,29,533c-4.5-1.23-9.15-1.65-13.74-2.34a32.12,32.12,0,0,1-4.12-.88,1.62,1.62,0,0,1-1.23-1.94,1.84,1.84,0,0,1,1.83-1.46,6.69,6.69,0,0,1,1.67.08c5.58.79,11.18,1.39,16.7,2.59,4,.88,4.52.72,6.47-2.82,4-7.28,7.92-14.62,11.83-22,1.15-2.18,1-2.72-1.37-3.22-10.21-2.16-20-5.82-30.19-8.13-.55-.13-1.11-.21-1.64-.39-.86-.27-1.56-.77-1.51-1.76.06-1.24,1-1.63,2.05-1.7a9.59,9.59,0,0,1,2.51.16c2.07.45,4.14.9,6.16,1.51,7.82,2.38,15.7,4.53,23.7,6.25,3.52.75,4,.51,5.76-2.6,1.24-2.22,2.37-4.49,3.65-6.67,5.34-9.13,10.74-18.21,16-27.35,1.64-2.82,1.57-2.92-1.32-4.44-4.25-2.21-8.64-4.17-12.79-6.56C51,444.52,42.16,440.43,34.7,434c-1.78-1.52-2.3-1.28-3.59.8-.38.59-.68,1.23-1,1.86-4.59,8.88-9.39,17.66-13.58,26.76C12.46,472.28,8,480.92,3.66,489.63c-.8,1.61-1.38,3.5-3.66,3.65Zm716.71-44.09c1.26-.14,2.52-.36,3.78-.41a1.77,1.77,0,0,1,1.89,1.38,1.74,1.74,0,0,1-1.07,2.07,14.27,14.27,0,0,1-6.56,1.36,19.75,19.75,0,0,0-8.88,2.43c-5.34,2.63-9.13,7-13.06,11.24-.29.3-.67.69-.68,1-.1,4.3-1.64,8.67.58,12.84,1.32,2.49,2.68,5,4,7.42s3.6,3.72,6.28,4.62c9.25,3.08,18.69,2.91,28,1.07,12.16-2.41,24.38-4.48,36.51-7.09,7.64-1.64,12.78-5.45,15.7-12.54.64-1.56,1.37-3.09,2-4.65,4.82-11.2,7.34-23.11,10-34.89,3.87-16.9,7.94-33.75,11.87-50.63a36.88,36.88,0,0,1,14.62-22.06c3.52-2.58,7-5.18,10.72-7.54,11.86-7.61,23.85-15,35.69-22.68,25.59-16.52,51.16-33,77.66-48.08,13.61-7.72,27.26-15.39,41.84-21.2,4-1.59,4.39-1.91,3.87-6.25-1.15-9.65-2.36-19.3-3.83-28.9-1.72-11.32-5.52-22.15-8.49-33.16-5.27-19.63-14.18-37.36-27.69-52.68-2.84-3.22-2.81-3.32-6.53-.93A141.35,141.35,0,0,1,925,145c-20.74,9-40.42,20-59.81,31.54-26.93,16-53.82,32-81.71,46.21-8.79,4.48-17.37,9.39-26.24,13.7-8.35,4.06-16.44,8.8-25.54,11.12-12.7,3.23-25.54,5.86-38.25,9.11-6.81,1.74-14,2.17-20.71,4.13-14.08,4.11-28.4,7.25-42.53,11.15-7.65,2.11-15,4.74-20.81,10.65-5.1,5.22-9,11.07-8.93,18.54A54.88,54.88,0,0,0,603,317c.71,2.29,1.42,4.58,3.94,5.69,1.36.6,2,1.89.92,3.08-1.33,1.47-.6,2.42.23,3.65,4.76,7.1,7,14.47,4.24,23.17-2.06,6.45-3.51,6.13,3.89,11.92,5.4,4.21,9.15,9.53,9.77,16.65.22,2.52.73,5,1.07,7.53a11.24,11.24,0,0,0,.88,3.23c1.42,3.05,2.77,6.14,4,9.29a20.12,20.12,0,0,1,.7,12.46c-.28,1.1-.46,2.45-1.62,2.81-2.59.8-2.2,2.55-1.65,4.38,1.51,5,3,10,4.64,14.93a56.35,56.35,0,0,1,2.93,18.71c-.07,6,2.22,10.8,5.1,15.57a12.18,12.18,0,0,0,6.59,5.05c11.71,4.24,21.95,1.47,30.81-6.79,4.53-4.23,8.77-8.76,12.88-13.42C698.75,447.57,706.47,442.48,716.71,442.42Zm-124.48,41.8c11,1.22,21.42-.57,31-6,4-2.29,6.92-5.56,7.9-10.41,2.14-10.57,2-20.94-1.42-31.26-2-6.15-4.3-12.26-5.29-18.7a23.57,23.57,0,0,0-2.76-8.81,11.3,11.3,0,0,1-.68-10.52,23.72,23.72,0,0,0,1.76-9.49c-.32-9.52-3.1-17.73-11.6-23.11a8.43,8.43,0,0,1-1-.81c-3.08-2.61-4.42-5.71-3.07-9.76.75-2.27,1.2-4.64,1.76-7,1.36-5.63-.47-10.49-3.39-15.22a13.43,13.43,0,0,0-10.28-6.55c-.7-.09-1.36-.4-2.05-.53a5.2,5.2,0,0,1-4.49-4.9c-.2-1.54-.46-3.07-.53-4.62a12.19,12.19,0,0,0-2.22-6.73c-8.8-12.15-6-11.15-21-14.94-.69-.18-1.4-.24-2.08-.38a30.5,30.5,0,0,0-17.08,1.09,34.51,34.51,0,0,0-6.23,2.59c-10.67,6.57-21.73,12.61-31.45,20.58-7.95,6.52-15.5,13.54-23.18,20.39-7.48,6.67-14,14.32-20.89,21.54-5.46,5.7-10.91,11.41-16.18,17.29-4.31,4.82-8.76,9.59-11,15.9-.53,1.49-1.69,3-3.34,2.83-2.75-.37-4,1.47-5.74,2.87a68.88,68.88,0,0,1-6.68,5.17,108.22,108.22,0,0,0-15,12.32c-1.65,1.54-3.38,3-5.05,4.49-6.2,5.59-13.11,10.23-19.93,15-2.5,1.74-2.53,2-.7,4.26,3.69,4.62,7.12,9.47,11.68,13.33a5.19,5.19,0,0,1,1.58,2.45c.85,2.6,2.61,3.42,5.25,2.92,3.66-.71,6.46.68,9,3.39a76.41,76.41,0,0,1,10.19,13.45A234.63,234.63,0,0,1,433.88,509a16.9,16.9,0,0,1,1.23,7.44c-.07,1.11-.37,2.23.29,3.3q3,4.86,5.93,9.76a2.06,2.06,0,0,0,3.2.79c1-.56,2-1.11,2.92-1.7a56.14,56.14,0,0,1,17.19-6.84c13.16-3.07,26.53-5.37,39.26-10.13,3-1.13,6.25-1.73,9.35-2.69,12.65-3.9,25.61-6.91,37.93-11.8s24.17-10.14,36.14-15.48a35.05,35.05,0,0,0,15.6-13.22,14.85,14.85,0,0,1,1.22-1.72c.69-.82,1.6-1.3,2.59-.62s.84,1.7.41,2.66a23.68,23.68,0,0,1-4,5.91A59.81,59.81,0,0,1,592.23,484.22ZM986.14,284.76c3.36,0,6.18-.15,9,0a46.89,46.89,0,0,0,19.17-2.47q16.31-5.91,32.35-12.48c12.82-5.27,24.81-12.16,36.52-19.52,8.53-5.36,16.6-11.48,22-20.08,10.09-16,14.91-33.36,12.6-52.36-1.77-14.59-4.43-29.06-9.6-42.82-5.39-14.37-10.86-28.73-17.62-42.57-8.31-17-19.32-31.74-34.28-43.43a5,5,0,0,0-2.53-1.44c-1.83-.16-2.32-1.29-3-2.89-1.92-4.41-5.77-7.13-9.76-9.56a4.15,4.15,0,0,0-2.91-.1c-11.21,2.16-22.57,3.54-33.58,6.69-12.31,3.51-24,8.37-33.92,16.69-11.43,9.62-22.48,19.64-31.45,31.78A39.21,39.21,0,0,0,931,113.76c-.07,6.34.19,12.7-.43,19a5.91,5.91,0,0,0,0,1.68c.34,1.94,1.09,2.41,3,1.56a89.68,89.68,0,0,0,10.57-6.21c1.36-.87,1.45-1.9.44-3.16-2.58-3.19-5.13-6.39-9.45-7.35-1.39-.3-2.46-1-2.07-2.6s1.69-1.77,3-1.6a8.67,8.67,0,0,1,3.48,1.48,34.39,34.39,0,0,1,8,7.41c2.63,3.13,5.26,6.27,7.92,9.37a133,133,0,0,1,20.61,32.83c5.75,13,8.74,26.78,12.7,40.29A124.63,124.63,0,0,1,993,227.22c.79,6.72,1.62,13.43,2.54,20.13.31,2.29.18,4.78,3,6.08,1.44.67,1.3,2.31,0,3.08-2.22,1.29-2.27,3.27-2.45,5.43-.51,6.21-1.27,12.38-5.49,17.45C989.19,281,987.87,282.64,986.14,284.76ZM349.7,465.42c-2.33-.65-3.32,1-4.45,2.15a231.35,231.35,0,0,1-22.64,20.95c-6.41,5.08-12.74,10.26-18.93,15.6-12,10.32-24.16,20.37-37.22,29.25-13.33,9.06-25.78,19.2-38.26,29.31-10.62,8.6-20.28,18.32-31.06,26.78-8.75,6.87-16.83,14.58-26.1,20.82q-5.61,3.78-11,7.92c-2.38,1.84-2.34,2.23-.49,4.35,9.84,11.27,20.11,22.12,31.66,31.66a145.16,145.16,0,0,1,12.31,11.6c2.63,2.75,5.15,5.6,7.72,8.41,8.38,9.19,18,17.07,27.3,25.27,6.76,6,13.8,11.62,20.78,17.33,3.14,2.56,3.28,2.52,6.53,0a51.49,51.49,0,0,0,5.78-4.93c6.45-6.71,12.79-13.52,19.17-20.29a257.89,257.89,0,0,0,16.92-20.53c12.33-16.13,24.6-32.3,36.58-48.7a211.08,211.08,0,0,1,32.79-35.79c13.6-11.67,25.78-24.86,39.67-36.19,1-.81,1.57-1.58.24-2.68-2.77-2.29-4.55-5.39-6.3-8.43a4.65,4.65,0,0,0-5.62-2.51c-.69.15-1.4.23-2.09.36A10.13,10.13,0,0,1,392,532.77c-5-7-10.1-13.92-14.43-21.37-2.69-4.63-5.28-9.33-8.11-13.87a33.32,33.32,0,0,1-4.87-12.46,10,10,0,0,0-1.16-3.59,141,141,0,0,0-9.25-13.65A5.84,5.84,0,0,0,349.7,465.42ZM80.08,460c-1.62.05-2.07,1.18-2.63,2.12q-3.69,6.17-7.32,12.37c-3.9,6.69-7.81,13.38-11.67,20.11-2.15,3.76-2,4.25,2.39,5.28,24.44,5.81,48.26,13.66,72,21.68,4,1.35,8,2.82,11.93,4.29,1.5.56,2.65.57,3.56-1,4.14-7.37,8.23-14.76,12-22.32a2,2,0,0,0-1-3.09c-2.42-1.13-4.83-2.31-7.26-3.43-14.08-6.48-28.26-12.73-41.87-20.19-9-4.94-18.16-9.67-27.26-14.47C82,460.8,80.91,460.39,80.08,460Zm-24,42.92c-2.26-.43-2.94,1.26-3.74,2.76-3.74,6.95-7.43,13.92-11.2,20.86-2.4,4.43-2.38,4.52,2.43,5.88,27.27,7.67,54.36,15.93,81,25.63,3.67,1.34,3.88,1.31,6-2.29q5.69-9.66,11.21-19.4c3.48-6.09,3.47-6.14-3.18-8.46-21.43-7.46-43-14.45-64.88-20.51C67.86,505.78,62,504.41,56.08,502.93Zm119.11-31.12c.16-1.9-1.33-2.09-2.41-2.61-17.25-8.36-34.3-17.15-51.83-24.95-7.73-3.43-15.37-7.07-23.09-10.52-3.35-1.49-3.68-1.31-5.35,1.7-3,5.42-6,10.84-9,16.29-2.26,4.16-2.2,4.14,1.87,6.28,8.11,4.27,16.22,8.54,24.29,12.88,16.4,8.83,33.38,16.47,50.32,24.17,3.25,1.48,3.4,1.4,4.9-1.59,3.09-6.18,6.08-12.41,9.09-18.63C174.47,473.82,174.82,472.74,175.19,471.81ZM90.77,426.15c2,.08,2.56-1.31,3.26-2.52,2.41-4.14,4.8-8.28,7.24-12.4,1.49-2.53,1.52-2.5-1.17-4.07-3.2-1.87-6.57-3.35-9.63-5.63a183.94,183.94,0,0,0-23.63-14.76c-6.65-3.54-7-3.5-10.68,3.13-6,10.69-11.83,21.45-17.83,32.14-4,7.11-4,7.29,2.68,11.93,5.45,3.79,11.36,6.78,17.16,10,5.31,2.91,10.69,5.69,16.11,8.4,2.75,1.37,3.3,1.22,4.77-1.36q5-8.81,9.79-17.75c1.32-2.46,1.21-2.78-1.36-3.65-3.86-1.3-7.8-2.41-11.71-3.59-3.23-1-6.48-1.9-9.7-2.93a13.67,13.67,0,0,1-4.49-2.3c-.93-.75-1.69-1.72-.89-2.89s2-.92,3.05-.43a7.06,7.06,0,0,1,1.09.64,19,19,0,0,0,5.45,2.25q9.52,2.75,19.08,5.46C89.9,425.94,90.45,426.07,90.77,426.15Zm16.84-15c-1.57,0-2.11,1-2.75,1.93a80,80,0,0,0-6,10.21c-2.66,5.23-2.67,5.18,2.63,7.56,16.57,7.44,33.11,14.94,49.38,23,7.69,3.81,15.43,7.54,23.17,11.25,3.31,1.58,3.38,1.52,5.07-1.84,2.4-4.78,4.7-9.61,7.16-14.36.92-1.78.7-2.76-1.26-3.52-11.57-4.47-22.76-9.81-34-15.07C137.45,424,123.2,419,109.76,412.11,109,411.73,108.22,411.44,107.61,411.19ZM403.69,524.5a26.46,26.46,0,0,0,17.77-5.84c5.09-3.89,5.67-6.32,2.79-12a309.21,309.21,0,0,0-21.32-35.92c-2.51-3.62-4.09-4.08-8.28-2.77a73.17,73.17,0,0,0-20.16,10.43c-1.78,1.24-1.9,2.53-1,4.3,1.47,2.89,3,5.75,4.21,8.75,3.66,9.38,9,17.84,14.39,26.24C395.1,522.36,398.83,525.27,403.69,524.5ZM366.25,477a63.55,63.55,0,0,1,14.31-10c2.92-1.39,5.77-2.92,8.69-4.31,1.58-.76,2.25-1.65,1-3.22l-13.68-17.1c-1-1.27-2.08-1.14-3.27-.19A222.55,222.55,0,0,0,355,457.82c-2,1.93-2,2.45-.12,4.61A163.43,163.43,0,0,1,365,476,2.09,2.09,0,0,0,366.25,477ZM991.69,263.17c0-.42,0-.85,0-1.27-.13-2.09-.58-2.42-2.66-1.8a23.4,23.4,0,0,0-2.35.93c-8.3,3.5-16.25,7.69-24.23,11.85-1.74.91-3.43,1.93-5.12,2.94-1.29.77-1.59,2,0,2.44,4.32,1.24,7.54,4.27,11.27,6.47a7.9,7.9,0,0,0,7.69.62C985.49,280.85,991.67,274.13,991.69,263.17ZM438.32,532.48a55.88,55.88,0,0,0-5.66-9.29c-.53-.65-1.32-.31-1.86.21a49.24,49.24,0,0,1-16,10.77,1.65,1.65,0,0,0-.85,2.72,69,69,0,0,0,4.25,6.27c1.4,1.73,4.84,2.18,6.44,1.05,4.13-2.93,8.2-5.92,12.3-8.9A2.54,2.54,0,0,0,438.32,532.48Zm-45.79-6.73c.31,1.5,1.41,2.43,2.08,3.61,1.66,2.89,4.1,3.87,7.41,3.66,2.6-.16,4.83-1.45,7.24-1.84,8.46-1.39,14.39-6.59,20-12.41,1.44-1.49,2.33-3.11,1.1-5.3C425.46,526.4,406.37,532.58,392.53,525.75ZM626,398.49c-4.11,6,1,9.86,2.1,15.33C630.26,407.87,629,403.37,626,398.49ZM418.9,487.84c-1.74-5.9-7.12-14.59-11.12-17.85C411.86,475.71,414.92,482.06,418.9,487.84Z"/><path class="cls-1" d="M205.64,0c0,2-1.48,3.32-2.66,4.66-18.32,20.74-35.06,42.71-51.34,65.06a36.19,36.19,0,0,0-5,10.36,1.81,1.81,0,0,0,.7,2.21,9.34,9.34,0,0,0,2.18,1.27c12,4.73,23.13,11.11,34.87,16.29q25.74,11.34,51.56,22.48a738,738,0,0,1,72.39,35.78c17.42,9.87,35.32,18.86,53.25,27.77,22.23,11,44.6,21.78,66.48,33.49,19.77,10.59,39.51,21.21,58.48,33.2a22.34,22.34,0,0,0,11.12,3.58c2.43.12,4.31-.84,6.52-2.08,7.31-4.12,12.25-10.56,17.81-16.43s10.32-12.66,15.26-19.18c8.27-10.89,16.76-21.61,25.26-32.31,8.33-10.49,16.9-20.78,24.26-32,5.42-8.27,12.07-15.62,17.89-23.59,6.9-9.45,14-18.71,21.22-28,4.94-6.37,10.14-12.5,15.65-18.32,11.26-11.9,21.52-24.62,31.77-37.36q10.1-12.53,21.16-24.19Q705.17,11.36,715.94,0h4.23c.06,1.6-1.06,2.54-2,3.56q-6,6.3-11.91,12.6c-13,13.76-25.63,27.75-37.21,42.71-4.41,5.68-8.86,11.36-13.8,16.56a480.61,480.61,0,0,0-41.6,50.05c-9.06,12.58-19.23,24.34-27.79,37.29-4.13,6.24-8.84,12-13.57,17.84-11.48,14.1-22.85,28.29-33.58,43a203.43,203.43,0,0,1-21,24.84c-2.71,2.67-5.44,5.31-7.94,8.18-.51.58-1.32,1.24-.24,2.36,2-.62,3.38-2.27,4.85-3.73,4.4-4.37,8.57-9,13.2-13.11,11-9.74,21-20.43,31.51-30.69,2.81-2.76,5.37-5.79,8-8.68,6.62-7.14,12.08-15.24,18.53-22.53,5.7-6.44,11.45-12.84,16.91-19.48,12-14.6,23.58-29.55,34.47-45,12.22-17.29,25.58-33.69,38.64-50.3,14-17.84,28.18-35.58,41.9-53.66,3.15-4.15,6.3-8.33,10.22-11.82H732a4.28,4.28,0,0,1-1.27,2.61c-8.9,9.48-16.13,20.29-24.19,30.44-17.45,22-34.69,44.1-52.09,66.11-6.38,8.08-12.1,16.64-18.28,24.87-14.54,19.4-29.22,38.69-45.46,56.74-5.65,6.28-10.68,13.11-16.08,19.62-11.92,14.34-25.5,27.07-39,39.9-6.12,5.82-12.75,11.1-18.26,17.58-2.38,2.79-5.28,5.08-9.18,5.63-2.1.3-3.53,2.16-5.76,2.49a34.43,34.43,0,0,1-13.82-.48,117.49,117.49,0,0,1-24.33-9.65c-14.05-7.21-28.37-13.86-42.58-20.75-13-6.28-25.15-13.93-37.74-20.88-10.24-5.65-20.21-11.78-30.34-17.63-2.69-1.55-5.46-3-8.26-4.29q-31.49-15-63-29.92c-9.82-4.63-20.13-8.12-29.85-13-3.65-1.83-7.3-3.67-10.88-5.64-9.52-5.24-19.65-9.21-29.45-13.87-18.47-8.76-36.42-18.55-54.65-27.77A17.12,17.12,0,0,1,149.93,95c-.74-1.35-1.75-2.57-2.45-4-1.87-3.7-4.33-6.2-8.85-6.88a14.43,14.43,0,0,1-7.9-4.6c-7.73-8-15.34-16.1-20.92-25.9A118.41,118.41,0,0,0,99.33,38.83C90.19,27.36,81.89,15.26,73.18,3.47A4.48,4.48,0,0,1,71.93,0h3.39c1.33,1.64,2.72,3.23,4,4.91,6.41,8.41,12.3,17.19,18.83,25.51a297.12,297.12,0,0,1,18.51,26.24c4.86,7.79,11.26,14.43,18,20.68,2.82,2.62,4.73,2.37,7-.68,2.63-3.49,5.07-7.11,7.61-10.67q24.48-34.24,52.12-66ZM503.42,261.4a3.58,3.58,0,0,0-3.61-1.17,26.48,26.48,0,0,1-14.93-3.82c-12.56-7.83-25.42-15.15-38.38-22.31-22.46-12.41-45.2-24.29-68.31-35.44-26-12.57-51.77-25.7-77-39.78q-23.65-13.19-48.27-24.48c-31.41-14.35-63.69-26.76-94.52-42.4-2.07-1-4.28-1.84-7.12-3,2.37,5,5.16,8.25,9.56,10.2a140.76,140.76,0,0,1,14.72,7.42c12.39,7.36,25.61,13,38.44,19.52,9.56,4.84,19.75,8.36,29.06,13.7a219.87,219.87,0,0,0,24.73,12C289.64,160.9,311,171,332.22,181.6c8.69,4.35,17.84,7.82,26.18,12.85,15.82,9.53,31.9,18.61,48,27.71,6.74,3.83,13.54,7.51,20.54,10.87,12.33,5.92,24.78,11.56,36.87,18,8.34,4.43,17,8.3,26.23,10.55A28.47,28.47,0,0,0,503.42,261.4Z"/><path class="cls-1" d="M463.75,0c.65,3.22-.95,5.76-2.58,8.24C451.7,22.76,443.35,38,434,52.55c-1.57,2.43-1.37,5.76-3.38,7.51a27.85,27.85,0,0,0-5,6.1c-10.09,15.49-20.89,30.45-33.37,44.12q-4.85,5.31-9.72,10.6a30.1,30.1,0,0,1-4.82,4.1,11.09,11.09,0,0,1-11.58,1.2,53.45,53.45,0,0,1-7.88-4.08c-14-9.17-28.48-17.72-42.73-26.56-8-5-15.84-10.15-23.73-15.27a108,108,0,0,0-16-8.62,142.38,142.38,0,0,1-29.5-16.75c-3.78-2.71-7.72-5.2-11.59-7.78-9.1-6.06-9.69-8.65-3.23-17.63C238.22,20,245.54,10.87,253.18,2c.55-.64,1-1.34,1.55-2H259c-.08,1.85-1.33,3.06-2.4,4.35-2,2.38-4.06,4.66-6,7.08-5.88,7.37-11.8,14.72-17.14,22.49-3.1,4.51-2.81,5.42,1.64,8.49,5.79,4,11.62,7.94,17.45,11.88a123.49,123.49,0,0,0,15.55,9.32c4.2,2,4.79,1.92,7.94-1.62,1.21-1.37,2.28-2.85,3.37-4.32,5.12-6.89,9.94-14,15.39-20.64,3-3.69,6-7.45,8.94-11.22,1.76-2.26,1.67-2.63-.58-4.39-.67-.52-1.39-1-2.08-1.44-7.13-5.07-14.86-9.14-22.42-13.48a13.73,13.73,0,0,0-5.46-2C270.72,4.2,269,2.84,269.11,0H275c10.51,5.9,21.37,11.21,31,18.52,1.47,1.11,2.63,1.31,3.89-.36C314.7,11.89,320.4,6.41,325,0H330a7.9,7.9,0,0,1-2.19,3.54q-7,8.19-13.94,16.43c-2.2,2.62-2.18,2.65.62,4.85C321,29.87,327.4,34.89,333.81,40c2.88,2.26,5.68,4.63,8.59,6.86,2.38,1.83,2.47,1.8,4.37-.4C350.55,42,354.24,37.6,358,33.24c4.71-5.42,9.52-10.76,14.24-16.17,2.58-3,2.52-3.27-.37-5.69-3.24-2.71-6.47-5.44-9.72-8.13-1.09-.9-2.27-1.71-2.52-3.25h5.08c3.63,3,7.29,6,10.89,9.11,1.58,1.35,2.88,1.3,4.25-.32,2.52-3,5.13-5.86,7.71-8.79h4.23c-.05,1.54-1.05,2.58-2,3.64-2.13,2.44-4.35,4.81-6.43,7.29-1.9,2.29-1.93,3,.3,5q9.25,8,18.71,15.86c2.42,2,2.71,1.91,4.94-.3a247.58,247.58,0,0,0,17.89-19.72,42.83,42.83,0,0,0,2.89-4.16c1.1-1.77,2-3.54-.61-4.94-1-.52-1.05-1.6-1-2.62h5.07c2.56,2.24,2.28,5,1.21,7.73s-3,5.08-4.88,7.36c-5.36,6.52-11.07,12.73-16.94,18.8-2.4,2.47-2.33,2.78.29,4.93a151.56,151.56,0,0,1,12.3,10.92c.88.91,1.81,1.76,2.7,2.67,1.13,1.16,2.16,1.2,3.08-.24.45-.71.85-1.46,1.31-2.17,9.16-14.34,17.33-29.3,26.7-43.51a23.53,23.53,0,0,0,3-6.49ZM371.19,123.22a12.47,12.47,0,0,0,1.83-.52,23,23,0,0,0,7.7-5.8c8.75-9.74,17.52-19.45,25.3-30,6.18-8.4,12.27-16.84,17.67-25.77,1.87-3.08,1.89-3.77-.69-6.2-4.82-4.53-9.49-9.23-14.83-13.18-2.69-2-3-2-5.28.41q-10.39,11.1-20.67,22.3c-2.09,2.28-3.94,4.78-5.92,7.16-1.2,1.44-1.22,2.81.25,4,2.76,2.3,4.71,5.56,8.59,6.57a3.09,3.09,0,0,1,2,4.4c-.83,1.39-2.35,1.44-4.44.1a11,11,0,0,1-1.33-1q-3.48-3.09-6.93-6.19c-2.46-2.21-2.49-2.24-4.5.34-7.26,9.35-13.49,19.42-20.5,29-1,1.32-.92,2.26.51,3.08,5.49,3.16,10.42,7.24,16.27,9.79A15.16,15.16,0,0,0,371.19,123.22Zm-60-35.89c2.27-2.11,6-2.21,8.05-5.28,6.33-9.33,13.34-18.15,20.38-26.95,2.38-3,2.39-3.25-.66-5.68q-13.22-10.55-26.51-21c-3.26-2.56-3.35-2.5-6,.71-9.77,11.66-18.56,24.09-27.84,36.13-1.55,2-1.53,2.43.7,3.46,10.27,4.75,19.59,11.1,29,17.32A5.89,5.89,0,0,0,311.21,87.33Zm90.17-50.22c-.11-.92-.8-1.42-1.44-2-6.35-5.35-12.67-10.73-19.05-16-2.69-2.24-3-2.24-5.44.54Q363,34,350.65,48.42c-2.32,2.71-2.24,3,.68,5.32A194.22,194.22,0,0,1,368.39,68.2c2.85,2.79,3.07,2.77,5.53-.27Q379.74,60.69,386.2,54c4.49-4.67,8.89-9.42,13.31-14.15C400.27,39.05,401.24,38.37,401.38,37.11ZM368.13,74.88a2.59,2.59,0,0,0-1.15-2.4,207,207,0,0,0-18-15.29c-3.35-2.42-3.42-2.51-6.08.68-8.41,10.06-16,20.74-23.89,31.21-1.74,2.32-1.63,2.76.86,4.3,6.59,4.07,13.27,8,19.83,12.12,2,1.23,3.2,1.08,4.52-.86,1.06-1.57,1.85-3.75,4.19-3.79,1.74,0,2.49-1.07,3.27-2.26q7.29-11.16,15.3-21.8A21.9,21.9,0,0,0,368.13,74.88Z"/><path class="cls-1" d="M830.18,798.73c-10.59-27.32-20.52-54.9-32.76-81.57-4.07-8.83-7-18.13-10.42-27.23-3.07-8.18-6-16.41-8.86-24.66-.93-2.65-1.5-5.43-2.3-8.13s-1.16-2.85-3.92-2.46a84.76,84.76,0,0,0-17.23,4.17c-18,6.48-36.5,11.63-54.42,18.47-8,3-16.48,4.84-24.74,7.21-3.39,1-6.76,2-10.14,3-2.76.81-5.58.61-8.4.55-1.15,0-2.42-.23-2.55-1.65s1.09-2,2.24-1.95c9.3.23,17.42-4.34,26.15-6.37a156.09,156.09,0,0,0,25.72-8.29,77.23,77.23,0,0,1,9.21-3.1c11-3.09,21.66-7.18,32.47-10.82A171.48,171.48,0,0,1,773.58,650c3.58-.67,4.83.21,5.84,3.77,7.82,27.43,18.29,53.87,29.8,79.92,7.81,17.67,14.07,35.94,21.16,53.89,1.44,3.67,2.69,7.41,4,11.11Z"/><path class="cls-1" d="M511.14,0c-.68,2.66-2.83,4.14-4.75,5.77-1.61,1.36-3.38,2.53-5,3.87a16.39,16.39,0,0,0-4.66,5.93c-2.61,5.81-2,8.1,3.15,11.82,8.57,6.23,17.95,11.17,26.75,17C541.07,54,554.84,64.53,568.4,75.35c2.42,1.93,5.06,3.59,7.62,5.34a10.3,10.3,0,0,0,10.84.72,44.16,44.16,0,0,0,4.81-2.66,146.62,146.62,0,0,0,34.78-30.58c8.28-10.15,17.17-19.81,25.72-29.74C657.41,12.34,662.53,6.15,667.7,0h4.23a8.14,8.14,0,0,1-1.83,3.28c-6.49,8.52-13.55,16.56-20.56,24.64-8.31,9.57-16.71,19.06-25,28.67a99.41,99.41,0,0,1-15.22,14.57q-8.25,6.25-16.85,12c-7.07,4.75-14.7,4.55-21.53-.75-8.23-6.4-16.44-12.82-24.82-19-7.7-5.69-15.29-11.55-23.4-16.66-7.86-4.94-16.17-9.17-23.58-14.83a11.18,11.18,0,0,0-1.4-1c-9.68-5.36-7.69-13.35-2.84-20.35,2.1-3.05,5.25-5.06,8.13-7.32,1.33-1.05,2.56-2.2,3.84-3.31Z"/><path class="cls-1" d="M947,798.73a30.21,30.21,0,0,0-1.57-3A407.28,407.28,0,0,0,913,754.12c-6.92-7.8-13.49-15.91-20.32-23.79-7.48-8.62-15.17-17.06-22.59-25.74-12.64-14.78-25.42-29.46-37.56-44.65-4.62-5.77-11.09-8.2-16.71-12.14-1.66-1.17-2.57-.37-2.31,1.83.34,2.79.95,5.55,1.38,8.33a5.91,5.91,0,0,1-.41,4.13,1.92,1.92,0,0,1-2.05,1.14,1.86,1.86,0,0,1-1.47-1.35,2.73,2.73,0,0,1-.2-.82c.11-5-1.45-9.75-1.77-14.66-.29-4.31,1.28-5.39,5.32-3.9a42,42,0,0,1,9.28,5c2.54,1.75,4.92,3.8,8.17,4.25.84.12,1.84.59,2,1.39.63,3.05,3.6,4.58,4.59,7.4a8.92,8.92,0,0,0,1.85,2.8c15.18,17.24,29.88,34.9,45,52.17,19.89,22.66,40.07,45.11,57.91,69.5,2.33,3.18,4.64,6.38,7,9.56a8.76,8.76,0,0,1,2,4.15Z"/><path class="cls-1" d="M922.43,798.73a6.14,6.14,0,0,0-1.49-2.53c-12.6-13.91-23.67-29.05-35.51-43.58-13.52-16.61-26.79-33.44-40.52-49.88-9.39-11.24-19.38-22-29.1-32.94-.47-.53-1-1-1.44-1.55-.65-.76-1.32-1.59-.75-2.64.7-1.28,1.89-1,3-.72a3.38,3.38,0,0,1,2,1.38c5,6.85,10.82,13,16.54,19.18,11.95,13,23,26.7,34,40.47,9.84,12.33,19.82,24.56,29.7,36.87,8.12,10.11,16,20.38,24.58,30.14,1.67,1.9,3.64,3.55,4.9,5.8Z"/><path class="cls-1" d="M688.86,798.73c-9.62-32.7-20.42-65-34.05-96.26-1-2.31-2.25-4.53-3.38-6.8-.54-1.09-.77-2.22.39-3s2.17-.12,2.92.79a12.65,12.65,0,0,1,1.92,2.76A704.73,704.73,0,0,1,683.14,766c3.47,10.85,7.36,21.59,10,32.71Z"/><path class="cls-1" d="M1200,191.22c-9.49,3.59-18.7,7.84-28,11.95-11.07,4.92-22.09,9.94-33.1,15a37,37,0,0,1-10.63,2.58,6.69,6.69,0,0,1-4.5-.75,2.6,2.6,0,0,1-1.16-3.62c.76-1.58,2-1.87,3.48-.87,2.51,1.75,5.14,1.05,7.7.29a62.76,62.76,0,0,0,9.73-4.08c17.34-8.48,35.15-15.92,52.82-23.66a8.32,8.32,0,0,1,3.62-1Z"/><path class="cls-1" d="M1132.52,530.9c-.12,7.92-3.09,13.7-6.51,19.24-3.92,6.36-7.94,12.67-12.26,18.76-8.6,12.09-16,24.88-23.43,37.7-10,17.38-21.75,33.59-33.47,49.84a505,505,0,0,1-33.92,42.15,75.07,75.07,0,0,1-17.11,14.34,18.66,18.66,0,0,1-12.54,2.76c-10-1.37-19.7-3.61-28.11-9.64a52,52,0,0,0-10.38-5.66c-8.88-3.7-16.42-9.34-23.28-15.89-9.39-8.94-19.38-17.25-28.44-26.54-1.18-1.21-2.33-2.45-3.43-3.74-3.27-3.82-3.63-8.14-1.92-12.68,3.51-9.28,7.82-18.11,14.07-25.91,7.51-9.38,13.72-19.64,20.07-29.8,3.43-5.51,6.62-11.16,10.17-16.59a412,412,0,0,1,33.57-44c11-12.67,22.42-25,33.64-37.41a36,36,0,0,0,4.24-5.79c5.85-10.08,13.56-18.68,21.47-27.14,4.19-4.47,9.1-5.55,15-4,6.14,1.6,11.34,5,16.7,8.05,10.7,6,20.43,13.54,30,21.2a98.52,98.52,0,0,1,26.49,31.48c2.09,4,4.57,7.77,6.94,11.61C1131.81,525.94,1132.73,528.83,1132.52,530.9Zm-28.93-26.39a98.64,98.64,0,0,0-10.24,10.76,6.44,6.44,0,0,1-6.83,2.19,21.68,21.68,0,0,1-8.79-3.94c-6.48-5-11.87-11.23-18.22-16.4a18.63,18.63,0,0,1-3-3.57,5.77,5.77,0,0,1-1.16-4.39c.9-6.4,1.09-13,3.62-19,.8-1.94.09-2.83-1.46-3.7a27.29,27.29,0,0,0-15.51-3.21,7.77,7.77,0,0,0-4.56,2.05,82.72,82.72,0,0,1-7.3,5.75c-1.55,1.05-2.9,2.29-1.67,4.53.61,1.11-.1,2.21-.67,3.18-1.65,2.79-3.16,5.68-5.06,8.29-6.72,9.23-13.46,18.45-20.42,27.5-17.37,22.56-35,45-52.29,67.55-10.12,13.2-20.25,26.41-28.37,41-3,5.42-6.34,10.74-8.28,16.63-3.24,9.83-2.09,11.87,5.07,17.09,13.89,10.13,27.62,20.48,41.35,30.84,5.72,4.32,11.69,8.58,18.57,10.79,5.2,1.67,10.72,4.83,16.23.43.19-.16.55-.09.82-.16a16.07,16.07,0,0,0,5.9-3.19c11.86-9.07,21.54-20.22,30.52-32,7.93-10.45,15.31-21.28,22.33-32.36,10.4-16.45,22.34-31.84,33-48.13,8.26-12.63,16.33-25.36,24-38.37a56.38,56.38,0,0,0,5.77-12.67,10.28,10.28,0,0,0,.6-3.73C1116.76,517.94,1111.78,510.21,1103.59,504.51ZM1041.87,455c1,4.14,1,4.22,4.6,4.23a25.71,25.71,0,0,1,15.06,4.87c7.82,5.55,15.48,11.32,22.15,18.27a95.4,95.4,0,0,0,12.78,11c7.38,5.38,14.84,10.8,20.21,18.45,1,1.37,2.31,2.45,2.77,4.18,2.25,8.51,3.14,16.91-1.56,25-.92,1.59-1.66,3.28-2.6,4.85-3.59,6.07-7.1,12.18-10.87,18.14-9.79,15.49-19.92,30.74-30.55,45.69-10.94,15.39-21.06,31.37-31.8,46.9-9,13-18.92,25.27-30.68,36-4.48,4.08-9.76,7.19-13.84,11.75a5.22,5.22,0,0,1-4.72,1.41c-7.53-1.11-15.12-2-21.83-6.09-5.65-3.46-11.49-6.66-16.68-10.8-12.56-10-25.52-19.54-38.65-28.81a29.17,29.17,0,0,1-4.94-4.61,11.43,11.43,0,0,1-2.93-7.7c-.13-5.27,1.56-10,3.82-14.57a248.87,248.87,0,0,1,23-37.42c9.35-12.73,19.16-25.1,28.79-37.61,15.4-20,31.07-39.78,46-60.12.43-.59,1.43-1.06.77-2.08-2.08-.26-3.49.76-4.72,2.25s-2.58,3-3.9,4.46c-8.58,9.53-17.47,18.81-25.69,28.64-14.58,17.42-28.14,35.59-39.62,55.28a274.63,274.63,0,0,1-21.9,32.64c-5.5,6.94-9.19,14.85-12.4,23-1.57,4-1.09,7.76,2.18,10.89.81.78,1.61,1.57,2.39,2.39,9.22,9.75,19.67,18.17,29.36,27.41a65,65,0,0,0,19.9,13.38,57.92,57.92,0,0,1,11.11,6.09c7.27,5.08,15.47,7.37,24,8.87,5.63,1,10.89.1,15.59-3.52a90.37,90.37,0,0,0,9.09-7.58,254.18,254.18,0,0,0,21.77-24.76c18.51-24.18,36.93-48.46,51.78-75.17,9.27-16.66,20.24-32.23,30.73-48.1a64.85,64.85,0,0,0,7-13c1.56-4.19,2.3-8.73.07-12.73-4.72-8.49-9.47-17-15.11-25-5-7.05-11.48-12.76-18.12-18.26A210.32,210.32,0,0,0,1054,456.74C1050.3,454.9,1046.37,453.83,1041.87,455Zm17.81,32.85c-.49,2.73.86,4.72,2.78,6.27,6.25,5,11.5,11.2,17.86,16.12a17,17,0,0,0,5.19,2.76,4.87,4.87,0,0,0,6-1.76,59.26,59.26,0,0,1,5.35-6c3.74-3.64,3.82-3.62-.34-6.8-4.7-3.58-9.93-6.48-13.81-11.07-5-5.86-11.19-10.26-17-15.19-1.93-1.66-2.71-1.42-3.55,1.1C1060.57,478,1060.36,483,1059.68,487.83Z"/><path class="cls-1" d="M237.78,425.66c-32.21-1.34-58.11-14.28-74.73-42.53-16.83-28.62-13.64-62,5.86-86.93,18.42-23.54,43.35-34.39,72.93-32.92S294.73,278.2,310.91,303a73.74,73.74,0,0,1,11.75,35.79c1.64,24.76-6.76,45.71-24.3,62.9-13.51,13.25-30.05,20.68-48.79,23.19-2.09.28-4.19.58-6.3.71C241.45,425.75,239.61,425.66,237.78,425.66Zm10-129c.36-8.37-.33-17.22-1.11-26.06-.19-2.1-.87-3.06-3-3.07-5.35,0-10.73-.38-16.05.28-20,2.52-37.22,10.77-51,25.68-11.93,12.89-19,28.15-19.76,45.62-1.4,30.39,11.3,54.18,37.1,69.84,28.68,17.4,58.32,17.08,87.52.56a72.59,72.59,0,0,0,26.44-26.23c2.69-4.45,2.33-5.64-2.31-7.72a65.94,65.94,0,0,1-9.4-4.79,77.86,77.86,0,0,0-12.48-7.1c-10.83-4.52-20.11-12-31.14-16.08a4.89,4.89,0,0,1-3.11-2.71,30.39,30.39,0,0,1-2.56-11.37C246.94,321.34,248.14,309.25,247.82,296.61Zm71,48.85a79.8,79.8,0,0,0-6.9-31.69c-2.77-6.34-4-6.78-10.12-3.39-.74.41-1.45.87-2.18,1.3-4,2.36-7.93,4.84-12,7.06A191.73,191.73,0,0,0,257,339.6c-3,2.49-2.82,4.42.72,5.85a61.28,61.28,0,0,1,11.6,6,46.43,46.43,0,0,0,7.71,4.34,173.21,173.21,0,0,1,22.33,11.92,83.85,83.85,0,0,0,9.81,4.9c3.22,1.45,3.66,1.2,4.91-2.15A75.77,75.77,0,0,0,318.86,345.46Zm-67.37-8.09c2.49-.22,3.6-1.61,4.9-2.61,5.79-4.48,11.45-9.17,17.77-12.91,9.59-5.66,19.21-11.25,28.82-16.87,3-1.74,3-1.74,1-4.72a67.76,67.76,0,0,0-11.15-12.1A79.22,79.22,0,0,0,253.87,269c-2.8-.52-3.36,0-3.17,2.76.25,3.79.75,7.56,1.05,11.35a218.63,218.63,0,0,1,0,30.82C251.31,321.61,251.4,329.33,251.49,337.37Z"/><path class="cls-1" d="M90,268.1a6,6,0,0,1,3.21.9A346.29,346.29,0,0,0,128,288.89a39.41,39.41,0,0,1,7.26,4.32,8.89,8.89,0,0,1,3.12,3.92c.36,1,.39,2-.67,2.59a1.79,1.79,0,0,1-2.3-.48,25.64,25.64,0,0,0-6.57-5.24c-6.75-3.83-14-6.75-20.53-10.92A158.33,158.33,0,0,0,90,272.57a11,11,0,0,1-1.12-.61c-1-.62-1.95-1.32-1.4-2.69C87.9,268.18,88.94,268.12,90,268.1Z"/><path class="cls-1" d="M104.44,247.33a3,3,0,0,1,2.32,1c9.28,8.68,19.71,15.87,30.13,23.08a23.05,23.05,0,0,1,5,4.5c1,1.27,1.62,2.69.9,4.31a2.46,2.46,0,0,1-2.29,1.59c-1.15,0-2-.61-1.94-1.77.14-2.64-1.93-3.61-3.56-4.82-5.65-4.19-11.65-7.9-17.11-12.36-4.24-3.48-8.44-7-12.65-10.53a5.91,5.91,0,0,1-2.19-2.51A1.71,1.71,0,0,1,104.44,247.33Z"/><path class="cls-1" d="M112.59,233.85a4.79,4.79,0,0,1,2.66,1.18c8.1,6.13,17.07,10.86,25.74,16.1a47.84,47.84,0,0,1,5.94,4,4.1,4.1,0,0,1,.45,6.28c-1.27,1.17-3.19.8-3.18-.83,0-3.12-2.2-4-4.2-5.18-8.71-5.17-17.42-10.33-25.76-16.09-1.15-.8-2.44-1.46-3.12-2.77A1.7,1.7,0,0,1,112.59,233.85Z"/><path class="cls-1" d="M336.14,373.79c1.26-.06,1.85.78,2.5,1.51,1.77,2,3.46,4.07,5.31,6a52.46,52.46,0,0,0,12.16,9c1.46.82,3,1.61,3.81,3.2a2.17,2.17,0,0,1-.33,2.72,1.66,1.66,0,0,1-2.3.15c-7-5.1-14.69-9.46-20-16.58a20.33,20.33,0,0,1-2.33-3.48A1.65,1.65,0,0,1,336.14,373.79Z"/><path class="cls-1" d="M339.83,392.1c-.34,2.12,1.09,3.16,2.42,4.16,2.27,1.72,5,2.58,7.6,3.54a17.76,17.76,0,0,1,5.63,2.79c1,.86,1.9,1.93,1,3.25s-2,.8-3,.16c-2.87-1.83-6.12-2.79-9.21-4.1a18.33,18.33,0,0,1-7.1-5.13,5.82,5.82,0,0,1-1.56-4.64,3.1,3.1,0,0,1,3.05-2.9C339.62,389.33,339.81,389.78,339.83,392.1Z"/><path class="cls-1" d="M635.49,397.19c0-1.16.08-2.62,1.26-2.89,2.33-.54,3.25-2.55,4.81-3.88a24.23,24.23,0,0,1,8.36-4.79c1.23-.39,2.66-.55,3.2,1,.46,1.36-.61,2.07-1.69,2.51-4.83,2-8.75,5-11.14,9.79-.61,1.21-1.68,2-3.12,1.41S635.63,398.47,635.49,397.19Z"/><path class="cls-1" d="M629,328.14a5.91,5.91,0,0,1,1.24.21,1.7,1.7,0,0,1,1.28,1.51,1.54,1.54,0,0,1-1,1.65,9.4,9.4,0,0,1-2,.52,8.14,8.14,0,0,0-6.2,5.18c-.68,1.55-1.31,3.12-2,4.64a1.8,1.8,0,0,1-2,1.14c-1-.21-1.28-1-1.34-1.92C616.49,335.41,623.19,328.05,629,328.14Z"/><path class="cls-1" d="M1088.3,506.38c.1,1.89-1.18,2.89-2.47,2.25a5.61,5.61,0,0,1-1.92-1.61c-3.27-4.34-7.72-7.35-11.92-10.65a28.19,28.19,0,0,1-4.64-4.29c-.74-.92-1.28-2-.33-3a1.89,1.89,0,0,1,3,.07c5.11,5.47,11.93,9,16.73,14.81A6,6,0,0,1,1088.3,506.38Z"/></g></svg>