<?xml version="1.0" encoding="utf-8"?>
<!-- Generator: Adobe Illustrator 26.2.1, SVG Export Plug-In . SVG Version: 6.00 Build 0)  -->
<svg version="1.1" id="Layer_1" xmlns="http://www.w3.org/2000/svg" xmlns:xlink="http://www.w3.org/1999/xlink" x="0px" y="0px"
	 viewBox="0 0 1200 611.8" style="enable-background:new 0 0 1200 611.8;" xml:space="preserve">
<style type="text/css">
	.st0{fill:#FFE8D0;}
	.st1{fill:#EEB68D;}
	.st2{fill:#BB8760;}
</style>
<g id="Graphic_elements">
	<path class="st0" d="M644.8,70.5l5.5-50.5c0,0,7.9-8.5,11.5-7.1s40.5,1.1,40.5,1.1s18.1-0.2,8.8,12.6s-20.6,40.9,11.5,43.9
		s20.1-41.5,20.1-44.2s1.8-6.6,7.3-6.9c0,0-3.8,13.5,14.8,17.9c12.2,2.8,24.5,5,36.9,6.4l-9.7,121l-1.3,20.1c0,0-11.5,5.5-22.1,5.5
		h-35.6c0,0-2.7-6.4-2.4-16.6s9.3-27.2-10.6-29.6s-28.8,4-30.7,15.7s6.8,13.9,8.2,22.3s6,12.8-14.2,11.3s-41.1-0.7-41.1-17.5
		s3.1-67.7,3.1-67.7c-2.4,0.6-4.7,1.4-6.9,2.4c-3.1,1.5-20.8,11.9-24.3-3.1s0-42.2,10.4-42.5S644.8,70.5,644.8,70.5z"/>
	<path class="st1" d="M388,57.9l4,64.4c0,0-19.5-5-25.2,0s-10.1,32.9,2.6,37.3s24-2.5,24.9-7.6l4.8,46.5l17.9,5l40.3-1.4
		c0,0-7.3-38.1,4.8-41.8s35.5-4.3,37.3,9.4s-6.6,25.6-6.6,25.6s-6.3,12.8,3,12.9s45.3-4.5,47.9-8.8s7-22.7,3.5-40
		s-0.8-34.7-5.6-35.5s-35,1-40.3-1.5s-16.3-13.4-14.4-25.7s15.3-21.6,23.9-18.6c8.6,3,24.7,13.2,28.5,13.1S538.5,37,536.5,33
		s-54.6-5.5-58.4-6s-3.8-22.7-23.2-22.9S433,15.7,434,21.7s10.3,23.1-4.3,27.7S388,57.9,388,57.9"/>
	<path class="st2" d="M546.5,128.5c-0.7-7-2.1-7.9-9.2-7.8c-9.2,0.2-18.4,0.7-27.6,0.6c-14.7-0.1-22.1-14.3-19.5-25.9
		c1.5-6.5,3.7-13.3,11.5-14.5c8.1-1.2,15.7,1,22.6,5.6c3.4,2.3,6.9,4.5,10.5,6.3c5.2,2.6,8.7,1,8.9-4.8c0.4-9.6,0.3-19.2-0.3-28.7
		c-0.6-8.9-2.2-17.7-3.4-26.6c-0.6-4.4-3.6-6.3-7.7-6.5c-11-0.5-21.9-1-32.9-1.3c-7.3-0.2-14.6,0-21.8,0
		c-0.7-14.2-8.9-22.9-17.8-24.6c-5.6-0.9-11.2-0.4-16.6,1.4c-7.7,2.5-11.5,9-11.6,17c-6.1-1.5-11.4-3.3-16.7-4s-10.9-0.5-16.4-0.6
		c-26.2-0.7-52.3,2.2-78.3,4.8c-12.7,1.3-25.3,3.5-38,5.2c-11.4,1.4-22.4,4.5-31.6,11.5c-9.8,7.4-18.8,15.7-28.4,23.3
		c-19.2,15.1-38.8,29.7-57.8,45c-14.6,11.7-29.8,22.8-46.7,30.7c-10.6,5-20.2,11-26.2,20.6c-9.6,15.4-17.8,31.6-26,47.7
		c-3.3,6.6-5.3,13.9-7.7,20.9c-3.4,10.2-7.5,20.3-9.5,30.8c-5,25-15.7,47.1-30.7,67.4c-1,1.1-2.4,1.7-3.9,1.7c-3-0.4-3.7,0.2-2.6,3
		c0.5,1.3,0.8,3.3,0.1,4.2c-3.6,5-7.6,9.9-11.4,14.8V357l16.9-20.3c5.8,5.7,11.5,11,16.9,16.6c9.7,10.1,19,20.7,29,30.7
		c13.4,13.1,25.6,27.4,36.6,42.5c5,7.1,10.2,14,15,21.3c4.2,6.3,3.5,10-2.1,15.1c-0.4,0.3-0.7,0.6-1,0.9c-2.1,3.1-3.8,2.5-6.1,0
		c-12.2-13.6-24.9-26.7-36.4-40.8c-15.5-19.1-31.1-38.1-48.8-55.3c-2.3-2-4.8-3.7-7.5-5c-0.7-0.4-2.1,0.6-3.1,1
		c0.5,0.8,1.1,1.6,1.7,2.3c2.2,1.9,4.7,3.4,6.6,5.5c6,6.7,11.8,13.6,17.6,20.5c14.2,17,28.1,34.2,42.4,51.1
		c7.3,8.6,14.8,17,22.8,24.9c3.3,3.2,3.2,5.7,1.3,9c-1.2,2.2-1.8,4.7,0.9,5.8c0.8,0.3,2.6-2,4.2-2.9c1.2-0.7,3.6-1.5,3.7-1.2
		c2.6,4.2,5,8.6,7.2,13.1c0.4,0.8-0.3,2.6-1.1,3.5c-3.7,4.2-7.9,8.1-11.4,12.5c-8.9,11.4-17.8,22.9-26.2,34.6
		c-9.6,13.4-18.2,27.4-29.8,39.2c-9.6,9.8-18.8,20-28.2,30h10.2c3.9-4.5,7.7-8.9,11.6-13.3c7.7-8.7,15.7-17.1,23.1-25.9
		c4.8-5.7,8.8-12.1,13.2-18.3c6.2-8.7,12.2-17.6,18.7-26.1c7.2-9.3,14.6-18.5,22.4-27.3c4.2-4.7,5.7-6.5,3.2-12.3
		s-6.1-11.4-9.4-17.5c1.2-1.5,2.5-3,3.8-4.4c8.2-7.6,8.9-12,3.4-20.2c-8.1-12.2-16.7-24.2-25.6-35.8c-5.9-7.8-12.5-15-19.2-22.1
		c-7.2-7.8-14.8-15.2-22.1-22.9c-3.6-3.8-6.8-8-10.5-11.7c-5.4-5.4-11.2-10.4-16.7-15.6c-2.4-2.3-6-4.9-6.2-7.6s3.3-5.5,5-8.3
		c4.1-6.7,8.5-13.4,12.3-20.3c3.7-6.6,7.7-13.3,10-20.4c5.2-16.4,9.1-33.2,14.2-49.7c3.1-10.4,6.9-20.5,11.4-30.4
		C79.5,190,86.1,179,92,167.7c5.8-11.2,14.7-20.4,25.6-26.7c10.9-6.5,22.2-12.3,32.4-19.6c19.4-13.9,38.2-28.6,57.1-43.2
		c11.2-8.7,22.5-17.3,32.9-27c12.9-12,27.4-20,45.1-22.1c19.3-2.3,38.5-5,57.9-6.8c15.7-1.5,31.5-2.1,47.2-2.5
		c11.9-0.3,23.9-1.4,35.4,3.3c6.2,2.5,8.7,7.7,10.7,13.2c0.6,1.6-0.4,5.1-1.8,6c-4.5,3-9.4,6.3-14.5,7.3
		c-12.1,2.5-24.5,3.5-36.7,5.4c-19,2.9-37.9,6-56.9,9.2c-2.9,0.5-6.4,1.5-8.1,3.6c-5,6.1-9.2,12.9-13.7,19.4
		c-14.7-4.6-30.1-6.6-46.8-7.3c3,4.8,6.9,4.8,10.3,5.5c12.9,2.8,25.9,5,38.6,8.7c6.7,2,14.4,5.3,16,13c1.4,7,1.2,14.2-0.5,21.2
		c-3.6,14-8.4,27.8-13.2,41.5c-2.6,7.2-6.4,14-9.6,20.9l-1.6-0.4c0-6.6,0.3-13.3-0.1-20c-0.5-10.2-4.2-19.8-11.2-26.9
		c-6.7-6.8-14.8-12.2-22.8-17.4c-5.1-3.3-11.2-5.1-16.8-7.6l-1,1.6c2.2,2.1,4.6,4.1,7,6c9,6.3,18.8,11.6,27,18.8
		c5.3,4.8,9.2,11,11,17.9c3.9,16.6,2.6,33.6-1.9,50c-2.5,9.1-6.3,17.9-9.5,26.8l-1.6-0.4c-0.1-2.8-0.2-5.7-0.4-8.5
		c-0.8-12.3-3.7-23.8-14.3-31.6s-21.7-15.5-32.6-23.1c-5.8-4.1-11.9-7.9-19-12.6c0.9,2.3,1.1,3.9,2,4.7c3,3.2,6.3,6.2,9.8,8.9
		c9.4,6.8,19.4,12.9,28.7,19.8c5.1,3.8,10.2,8.1,13.9,13.2c7.6,10.4,7.4,23,5.9,35c-1.9,14.7-6.7,28.8-12.7,42.4
		c-3.7,8.3-10,14.4-18.5,16.7c-11.5,3.1-23.3,4.8-35.1,6.5c-8.5,1.2-18.4-9.7-17.5-18.2c0.5-4.4,3.2-7.1,6.5-9.3
		c12.8-8.6,25.7-17.1,40.7-21.5c1.6-0.5,2.7-2.3,4.1-3.5c-1.8-0.3-3.6-1.2-5.2-0.9c-3.9,0.8-7.8,2.2-11,3.2
		c-2.6-3.9-4.6-7.4-7.2-10.6c-0.7-0.9-2.8-0.8-4.3-1.1c0.2,1.4,0.6,2.7,1.1,4c1.5,2.6,3.4,5,4.8,7.7c0.3,1.2-0.1,2.5-0.9,3.4
		c-2,1.5-4.5,2.5-6.7,3.9c-6.7,4.3-13.5,8.4-19.9,13c-5.5,4-6.6,9.9-5.3,16c0.8,3.5-0.3,7.4-0.5,11.4c2,0.9,5.4,1.7,7.8,3.7
		c5.6,4.8,11.7,5.3,18.5,3.8c7.6-1.7,15.2-3.5,22.9-4.3c17.2-1.9,26.8-12,33-27.4c4.4-10.9,5.4-22.9,12.7-33
		c5.2-7.2,7.7-16.5,11.1-25c3.1-7.7,5.6-15.7,8.6-23.4c0.9-2.4,3-4.3,4-6.7c6.4-15.2,13-30.3,18.9-45.7c4.6-12.1,8-24.5,7.2-37.7
		c-0.4-6-2-11.4-7.4-15c-4-2.7-8-5.5-12-8.2c3.5-5.1,6.6-10.6,10.7-15.3c2-2.3,5.4-3.8,8.5-4.5c6.5-1.5,13.2-2.3,19.9-3.4
		c15.5-2.4,31-4.7,46.5-7.3c11.4-1.9,23-3.4,34.1-6.6c12.2-3.5,15.5-14.1,9-25c-3.1-5.2-1.7-13.4,2.9-17.6
		c5.8-5.2,12.6-5.5,19.3-2.8c7.7,3.1,11.3,9.5,11.2,17.8c0,4.9,1.4,6.2,6.3,5.9c2.9-0.2,5.8-0.3,8.7-0.2c14.4,0.4,28.8,0.7,43.2,1.3
		c1.8,0.1,4.6,2,5,3.5c1.4,6.7,2.5,13.5,3.2,20.3c0.4,4.1,0.6,8.3,0.5,12.4c0.1,6.8,0,13.5,0,21.6c-4.8-2.8-8.6-4.7-12-7.1
		c-6.9-4.9-14.5-7.5-22.9-6.4c-3.9,0.5-8.3,1.7-11.2,4.1c-6.6,5.3-11.1,19.1-6.7,29.8c4.8,11.5,13.3,16.9,25.2,17.1
		c8.8,0.1,17.7-0.7,26.5-0.8c1.5,0.3,2.8,1.3,3.4,2.8c0.7,3.5,1.1,7,1.4,10.5c2,17,4.9,33.8,1.6,51.1c-1,5.5-3.5,8.8-8.7,9.8
		c-8.7,1.6-17.5,3-26.3,4.2c-4.8,0.6-9.6,0.6-16,1c1.4-4.5,1.8-8.2,3.5-11.2c3.4-6.2,7.9-11.4,6.8-19.7
		c-1.2-9.3-11.6-21.5-21.5-20.2c-4.2,0.6-8.4,0.5-12.6,0.7c-10.5,0.5-17.2,8.5-16,18.7c0.8,7.1,1.5,14.2,1.9,21.4
		c0.3,5.6-0.4,6.2-6,6c-13-0.3-26.1-0.3-39-1.5c-3.4-0.3-7.4-4.2-9.2-7.5s-1.1-7.8-1.4-11.7c-0.7-10.1-1.3-20.1-2.1-30.2
		c-0.1-1.2-1.3-3.1-2.3-3.4s-2.5,1.1-3.6,2c-0.8,0.7-1.5,1.6-1.9,2.6c-2,5.2-5.3,7.9-11.4,7.9c-5.2-0.1-12-3.4-13.9-8.1
		c-2.7-6.7-1.2-13.5,0.9-19.6c3.3-9.7,7.8-11.4,17.9-9c1.8,0.5,3.5,1.1,5.2,1.8c4.6,1.7,7.8-0.5,7.6-5.3
		c-0.4-11.1-0.5-22.3-1.2-33.4c-0.6-6.4-1.6-12.7-3-19c-0.2-1.2-2.1-2.1-3.2-3.2c-0.6,1.6-1.7,3.2-1.6,4.7
		c0.4,5.2,1.5,10.2,1.9,15.4c0.7,11.7,1.1,23.5,1.7,35.6c-3.8-0.9-7-1.6-10.2-2.4c-8.1-2.1-17,2.4-19.3,10.5
		c-1.6,5.6-1.9,11.6-3,17.3c-1.6,8.3,5.9,17.4,13.8,18.7c7.4,1.2,14.5,2.3,21-5.5c0.6,11.8,1.1,22.2,1.6,32.9
		c-17.8-6.8-35.1-4.6-51.8,0.8c-17,5.5-29.6,17.8-42.8,30.5c4.5,1.7,6.6-0.6,8.9-2.2c9-6.5,17.6-13.7,27.1-19.5
		c11-6.6,23.7-7.8,36.3-7.9c9.7-0.1,19.3,0,25.6,9.4c0.7,0.8,1.7,1.4,2.8,1.5c7,1.2,9.1,7,11.3,12.5c1.8,4.4,0.5,8.7-3.1,11
		c-6.8,4.3-13.8,9.1-21.4,11.2c-18.8,5.1-36.9,11.1-52.1,23.8c-7,5.9-13.4,12.5-20.3,18.5c-8.5,7.5-17.1,14.9-27.9,19.1
		c-4.6,1.8-8.9,4.5-13.4,6.8c6.4-0.7,12.7-1.4,18.4-3.6c10.9-4.2,19.3-12.1,28-19.7s17.7-15,26.6-22.4c9.2-7.7,20.4-11.6,31.5-14.3
		c11.7-2.8,22.1-7.8,32.1-14c7.8-4.9,9.7-13,5.9-21.2c-0.8-1.7-1.5-3.4-2.5-5.5c1.9,0,3.2,0,4.6,0c11.6,0.1,23.3,0.1,34.9,0.5
		c5.3,0.1,7.3-2.6,7.1-7.3c-0.4-8.9-1-17.7-1.7-26.5c-0.4-5.1,0.9-8.6,5.8-10.1c4.6-1.4,9.5-1.6,14.4-2.2c8.3-1,13.4,1.6,17.4,8.8
		c2.9,5.2,2.1,12.8-1.1,17.6c-2.5,3.6-4.5,7.5-6,11.7c-2.6,7.7,0.7,12.4,8.8,12.4c4.9-0.1,9.8-0.5,14.7-1.2c6.5-0.8,13-1.7,19.5-2.7
		s13.5-2.8,15.7-9.4c2.4-7.1,3.4-14.6,3.1-22.1C550,159.3,548.1,143.9,546.5,128.5z"/>
	<path class="st2" d="M1198.4,536.3c-9-7.8-17.8-15.9-27.1-23.4c-8.8-7-17.9-13.6-27.1-20.1c-9.7-6.9-19.6-13.5-29.3-20.4
		c-1-1.1-1.4-2.6-1-4c1.9-4.5,4.6-8.7,6.3-13.2c6-15.4,11.5-30.9,17.5-46.2c5.1-13.1,10.7-26,16-39.1c7-17.3,14-34.6,20.8-52
		c2.6-6.6,4.6-13.5,6.8-20.3c4.1-12.7,8.3-25.3,12.1-38c1.2-4.7,2-9.6,2.2-14.5c0.1-1.4-1.5-3-2.3-4.6c-0.9,1.2-1.6,2.5-2.2,3.8
		c-4.2,13.8-8,27.8-12.4,41.5c-3.8,11.8-7.8,23.5-12.3,35c-8.9,22.5-18.5,44.8-27.4,67.4c-5.3,13.5-9.9,27.2-14.9,40.9
		c-1,2.7-2.2,5.1-5.9,4c-1.2-0.2-2.4-0.3-3.7-0.2h-18c3.1-9.8,5.3-18.2,8.4-26.4c6.8-18,13.8-35.9,21.2-53.6
		c11.3-27,22.5-54,29.1-82.5c1.6-7.1,2.6-14.3,3.9-21.5c-1.1,0.6-2.6,1.1-3.2,2c-1.2,2.2-2.1,4.4-2.7,6.8
		c-5.1,16.1-9.6,32.4-15.5,48.2c-6.7,17.8-14.8,35.1-22.1,52.6c-5.5,13.2-10.7,26.6-16,40c-2.1,5.2-4.2,10.4-5.9,15.8
		c-1.6,5.2-2.4,10.6-4.2,15.8c-2,5.9-0.3,9,5.9,9c7.7,0.1,15.5,0,24.1,0c-1,2.5-1.5,3.8-2.1,5c-3.4,7.2-6.9,14.3-10.3,21.5
		c-2.7,5.8-2,8.2,3.2,12.1c2.9,2.2,5.8,4.5,8.8,6.6c18.1,12.9,36.6,25.4,54.3,38.8c9.4,7.1,17.7,15.9,26.5,23.9V537
		C1199.4,536.9,1198.9,536.6,1198.4,536.3z"/>
	<path class="st2" d="M993.2,300.5c4.4-1.6,8.3-4.8,11.9-7c-0.4-2.9-1.8-6.3-1.1-9.3c2-8.4,0.9-13.6-6.2-18.4
		c-6.6-4.5-13.6-8.6-20.5-12.7c-6.4-3.8-7.1-7.5-1.9-13.1c0.2-0.2,0.7-0.3,0.8-0.5c0.5-1.5,0.9-3.1,1.4-4.6
		c-1.5,0.4-3.5,0.4-4.3,1.4c-2.6,3.3-4.8,6.9-7.1,10.5c-3.5-1-7.3-2.4-11.1-3.1c-0.8-0.1-1.7,0-2.5,0.2c-0.9,0.2-1.7,0.6-2.6,0.7
		l0,0c0.5,0.4,1,0.9,1.4,1.3c0.7,0.8,1.6,1.4,2.5,1.9c6.1,2.7,12.5,4.9,18.5,7.9c6.2,3.2,12.3,6.7,18.1,10.7c3.6,2.4,8,5.1,9.5,8.8
		c4.4,10.2-5.4,22.9-16.5,21.6c-10-1.1-20-3-29.8-4.9c-12.4-2.4-20.7-9.7-24.9-21.6c-1.4-3.9-3-7.7-4.2-11.6
		c-3.7-11.9-8.1-23.7-7.2-36.4c0.3-6.1,1.1-12.1,2.4-18.1c2.5-10.3,11.3-15.8,18.9-21.8c10.5-8.2,21.8-15.2,32.6-23.1
		c2.7-1.9,4.5-5.1,6.7-7.6l-1.3-1.3c-2.6,1.9-5.2,4-7.9,5.8c-12.6,8.6-25.4,16.9-37.9,25.7c-11.2,7.9-17.7,18.6-18.5,32.5
		c-0.2,3.9-0.4,7.7-0.5,11.6l-1.3,0.3c-2.1-5.4-4.1-10.9-6.4-16.3c-7.1-17.1-7.9-35.1-7.1-53.3c0.4-9,3.7-17.4,10.1-23
		c9-7.9,19.5-14,29.4-21c2.5-1.8,4.8-3.9,7.1-5.8l-0.8-1.4c-1.2,0.2-2.5,0.5-3.7,0.8c-9.6,3.4-18,8.9-26.2,15
		c-7,5.2-13.1,11-16.9,19.3c-4.7,10.1-4.6,20.5-4.8,31c0,1.6-0.2,3.3-0.3,5c-2.5-2.9-4.5-6.1-5.9-9.6c-2.8-6.9-5.1-14-8-20.9
		c-5.7-13.6-10.4-27.4-11.7-42.2c-0.6-6.8,0.3-14,6.3-17.5c7.8-4.4,16.2-7.7,24.9-10c8.7-2.4,17.8-3.1,26.7-4.8c2.7-0.5,5.2-2,7.8-3
		c-0.2-0.7-0.4-1.3-0.6-2c-15.6,0.4-31,2.8-46,7.2c-1.6-2.6-2.8-4.8-4.2-6.9c-2.1-3-4.5-5.8-6.3-9c-2-3.7-4.7-5.9-8.8-6.7
		c-5.8-1.1-11.7-2.4-17.5-3.4c-10.7-1.8-21.4-3.5-32.1-5.2c-12.2-1.8-24.5-4-36.8-5.1c-7.5-0.7-14.8-3-21.3-6.7
		c-2.2-1.2-5-4.7-4.6-6.6c1.3-6.1,4.2-12.1,10.6-14.2c6-2.1,12.4-3.4,18.8-3.8c23.1-0.7,46.2,0.5,69.1,3.4c12.9,1.6,26,2.1,38.9,3.8
		c17.7,2.3,35.6,4.5,50.2,16.5c10.3,8.5,20.5,17.2,31,25.5c19.9,15.9,39.7,32.1,60.2,47.3c11.4,8.4,24.1,14.9,36.3,22.2
		c2.5,1.5,4.5,3,5.7,6c1.4,3.4,3.7,6.4,6.5,8.8c9,7.6,16.9,16.5,23.2,26.4c6.5,10,14.1,19.5,18.6,30.6c5.1,12.9,8.9,26.2,13.4,39.3
		c3,8.6,7.2,16.4,14.7,22.5c0-3-0.5-6-1.5-8.8c-3.5-9.9-7.3-19.6-10.8-29.5c-2.8-7.8-4.5-16.1-8.2-23.3c-5.7-10.8-12-21.3-18.8-31.5
		c-7.8-11.6-16.4-22.5-28.7-29.8c-2.7-1.6-4.9-4-7.3-6.1c4.2-4.6,4-5-0.3-7.2c-7-3.6-14.4-6.9-20.8-11.6
		c-22.2-16.1-44-32.5-65.8-49.1c-11.4-8.7-22.9-17.4-33.5-27c-12.4-11.3-25.4-20.9-42.6-23.2s-34.1-5.1-51.2-7
		C844.2,2.8,828,1.5,811.9,1c-14-0.6-28-0.2-42,1.2C762,3,753.3,5.3,750,14.8c-0.5,1.2-1.5,2.2-2.8,2.6c-7.5,1.3-9.6,4.6-6.5,11.6
		c4.6,10.5,2.4,20.6-1,30.8c-2.1,6.5-13.7,10.7-22.2,8.2c-5-1.5-11.2-2.8-12.3-8.3c-2.1-10.1-1.8-20.4,5-29.2
		c3.7-4.7,8.7-8.8,5.6-15.5c-3.3-1.1-6.5-2.3-9.6-3.3c-1.3-0.4-2.6-0.6-4-0.6c-9.8,0.2-19.6,0.4-29.4,0.6c-0.7,0-1.5-0.1-2.2-0.4
		c-8.7-3.7-18.7,0.3-22.4,9c-0.8,1.9-1.3,4-1.4,6.1c-0.5,9.8-1,19.5-1.7,29.3c-0.2,3.3-1,6.5-1.5,9.1c-4.8-0.7-9.1-1-13.2-1.9
		c-10.3-2-16.5,4.2-18.2,14c-1.3,7.8-1.8,15.8-1.5,23.7c0.3,4.4,1.7,8.6,4,12.3c4.4,7.2,11.9,8.5,19.1,4c3.1-1.9,6.1-3.8,10-6.3
		c-1.4,9-3.3,17.1-3.8,25.3c-0.7,12.2-1.2,24.5-0.5,36.7c0.7,10.8,2.6,16.5,14.9,19.3c4.9,1.1,9.9,1.9,14.9,2.5
		c7.9,1,15.7,2,23.6,2.4c5.8,0.2,8.8-2.8,8.1-8.5c-0.7-4.3-2.2-8.4-4.5-12.1c-3.4-5.6-6.7-10.5-4.3-17.7c2.3-7.1,8.6-12.9,16.1-12.6
		c3.1,0,6.1,0.1,9.2,0.5c9.2,1.4,14.9,4.7,13.5,14.1c-1.3,8.4-1.4,17.1-1.7,25.6c-0.2,3.9,1.6,6.4,6,6.4c7.5,0,15,0.2,22.4,0.3
		c5.8,0.1,11.7,0,17.7,0c-1,2.3-2,4.6-2.8,6.8c-2.6,7.1-0.9,14.5,5.5,18.3c8.6,5,17.4,9.4,26.6,13.2c9.6,3.9,19.9,6.1,29.3,10.4
		c13.9,6.4,24.3,17.8,35.6,27.9c7.4,6.8,15.5,12.8,24.2,17.8c6.4,3.6,14.3,4.5,21.5,6.6l0.4-1.1c-2.5-1.2-5.2-2.3-7.6-3.7
		c-8.6-4.9-17.4-9.5-25.5-15.1c-13-9.1-22.5-22.2-36.2-30.9c-9.7-6.2-19.5-11.5-30.5-14.1c-11.7-2.8-22.9-7.5-33.1-13.9
		c-3.9-2.4-6.3-5.8-5.4-10.2c1.1-5.6,2.7-11.3,8.9-13.8c2.4-1,4.6-2.2,6.7-3.7c2.5-1.7,4.6-4.7,7.3-5.4c5.8-1.7,11.8-2.6,17.9-2.8
		c17.8-0.1,34.3,4.3,48.3,15.9c4.9,4.1,9.9,8.1,15.1,12c2,1.5,4.2,3.8,7.5,1.4c-25.7-27.4-55.2-42.1-93.5-31.6c0,0-0.2-0.1-0.2-0.2
		c-0.8-11.8,1.8-23.5,0.6-35.4c-0.5-5.5,1.3-11.3,1.7-17c0.8-11.2,1-22.3,1.8-33.5c0.9-11.8,2.2-23.7,3.1-35.5
		c0.1-1.7-0.5-3.5-0.8-5.3l-1.8-0.3c-1.1,1.8-2.7,3.6-3,5.5c-1.2,6-1.9,12.1-2.3,18.2c-0.6,13.9-0.6,27.8-1.2,41.7
		c-0.3,7.8-1.3,15.5-1.8,23.3c-0.9,13.1-1.7,26.3-2.6,39.4c-0.2,2.9-6.3,8.8-9.2,9c-7.8,0.5-15.6,1-23.4,1.2c-7.2,0.2-14.3,0-21.7,0
		c-0.2-2-0.3-4-0.3-6c0.6-7.4,1.3-14.9,1.9-22.3c0.7-8-2.9-14.4-10-16.1c-5.9-1.2-12-2.1-18-2.5c-9.4-0.9-15.6,4.4-19.6,11.8
		c-4.2,7.8-5.2,16,1.5,23.5c1.7,1.8,3,3.9,3.8,6.2c0.9,2.5,1.2,5.2,0.7,7.9c-0.2,0.8-4,1.4-6.1,1.1c-11.6-1.4-23.3-3.1-34.9-4.9
		c-5-0.8-7.8-4.1-8.6-8.9c-0.6-3.6-1-7.3-1.2-11c-0.7-14.7,1.1-29.1,3.1-43.6c0.7-4.8,0.7-9.7,1-15.2c-4-2.9-7-2.9-11.5,0.3
		c-1.8,1.4-3.7,2.6-5.7,3.8c-6.5,3.6-10,2.7-13.3-3.9c-1.2-2.5-1.9-5.1-2-7.9c-0.1-6.7,0.1-13.5,0.6-20.2c0.4-5.7,5-11.8,9.3-11.5
		c6,0.4,12.8-1,17.2,5.2c1.7,2.4,3.8,1.5,4.9-1c0.6-1.4,0.9-2.9,1-4.4c1-14.2,2-28.5,2.9-42.8c0.3-4.4,9-11.8,13.7-11
		c0.2,0.9,0.5,1.8,0.5,2c14.1,0,27.8,0,41.5,0.1c1.4,0,3.4,0.4,4,1.4s0.1,3.1-0.7,4.1c-1.9,2.7-4.7,4.9-6.4,7.7
		c-6,9.8-6.5,20.6-4.2,31.4c0.6,2.9,3.2,5.9,5.7,7.9c5.3,4.3,12.2,6.4,19,5.7c8.1-0.8,16-3.8,19.2-12.2c2.4-6.3,3.8-12.9,4.1-19.6
		c0.2-5.3-1.9-10.7-3-16c-0.7-3.5-0.8-3.5,2.7-5.2c-1.3,6.3,1.3,11,6.4,13.6c5,2.9,10.4,5,16.1,6.3c11.4,2.3,23,3.6,34.5,5.4
		c17,2.6,34,5.2,51,8c3.8,0.6,8.7,0.6,11,2.9c5.1,5.3,8.8,11.8,12.8,17.5c-4,2.7-7.4,5.2-11,7.4c-6.1,3.8-7.8,9.7-8.3,16.4
		c-0.8,11.3,2,21.9,5.4,32.4c6.6,19.9,13.8,39.6,24.7,57.6c1.6,2.7,3.9,5.5,4.3,8.4c2,14.9,10.5,27.3,15.6,41c0.7,1.8,3.5,2.8,4,4.5
		c3.1,9.3,5.4,18.9,8.8,28.2c4.8,13.3,13.7,22.7,28.2,25.5c9.6,1.8,19.1,3.9,28.8,5.1C984.5,302.4,989,302,993.2,300.5z"/>
	<path class="st2" d="M214.6,332.4c-4.3,8.6-7.6,18-13.6,25.2c-7.5,9-17,16.6-26.3,23.9c-7.8,6.1-16.4,11-24.9,16.1
		c-11.4,6.9-22.8,13.6-34.4,20c-3.2,1.8-4.3,3.4-3,7c1.3-0.4,2.6-0.9,3.8-1.5c8.4-4.7,16.9-9.1,25-14.2c14.2-8.9,28.3-18,42.1-27.5
		c13.7-9.3,24.6-21,31.5-36.3c3.8-8.3,7.9-16.5,11.8-24.8c0.6-1.6,1.1-3.3,1.4-5l-1.2-0.5C221.2,319.5,217.9,325.9,214.6,332.4z"/>
	<path class="st2" d="M1074.5,391.2c-7.9-1.6-16-2.3-24-3.3c-0.2,0-0.5,0.9-0.7,1.5h-0.2l0.1,0.1c-1.7-0.7-3.4-1.4-5-2.3
		c-13.2-7.9-26.7-15.3-38.2-25.6c-4.9-4.4-9.9-8.6-14.4-13.4c-8.1-8.5-12.7-19.2-17.5-29.8c-2.9-6.5-6.3-12.7-12.5-17.1
		c-0.1,1.7,0.1,3.5,0.8,5.1c2.1,4.5,4.3,9.1,6.7,13.5c5.1,9.5,9.3,19.7,15.6,28.2c10.3,13.9,24.7,23.4,39,32.8
		c10.3,6.7,20.9,13,31.5,19.2c6.9,4,14.2,7.6,21.5,11.4c1.4-4.4,0-5.9-3.4-7.7c-1-0.6-2.1-1.1-3.1-1.7c-7.1-4-14-8.5-21-12.7
		c0,0,0-0.1,0-0.1c0.7-0.1,1.3-0.1,2,0c10,3,19.9,6,29.9,9c5.8,1.7,6.7,1.6,10.6-1.4C1085.9,394.9,1080.3,392.4,1074.5,391.2z"/>
	<path class="st2" d="M1162.6,252.2c4.6,4.5,9.6,8.5,16.3,9.4c1.3,0.2,2.8-0.9,4.2-1.4c-0.8-1.3-1.4-3.1-2.6-3.9
		c-5.6-3.6-11.4-7-17.2-10.3c-1.5-0.8-3.3-1-5.8-1.8l1.7,4.6l0,0l0,0l-0.1-0.1c0,0.1,0,0.2,0,0.3l0.2-0.1L1162.6,252.2z"/>
</g>
</svg>
