<?xml version="1.0" encoding="utf-8"?>
<!-- Generator: Adobe Illustrator 26.2.1, SVG Export Plug-In . SVG Version: 6.00 Build 0)  -->
<svg version="1.1" id="Layer_1" xmlns="http://www.w3.org/2000/svg" xmlns:xlink="http://www.w3.org/1999/xlink" x="0px" y="0px"
	 viewBox="0 0 122.6 123.2" style="enable-background:new 0 0 122.6 123.2;" xml:space="preserve">
<style type="text/css">
	.st0{fill:#010101;}
	.st1{opacity:0.1294;}
	.st2{fill:#BB8760;}
</style>
<g>
	<g>
		<path class="st0" d="M77.2,112.8c-0.1,0-0.1,0-0.2-0.1s-0.1-0.3,0-0.4c2.7-2.6,5.5-5,8.4-7.3c0.1-0.1,0.3-0.1,0.4,0s0.1,0.3,0,0.4
			c-2.9,2.3-5.7,4.7-8.4,7.3C77.3,112.7,77.3,112.8,77.2,112.8z"/>
	</g>
	<g>
		<path class="st0" d="M77,119.8c-0.1,0-0.1,0-0.2-0.1s-0.1-0.3,0-0.4c4.7-5.2,9.7-10.1,15-14.6c0.1-0.1,0.3-0.1,0.4,0
			s0.1,0.3,0,0.4c-5.3,4.5-10.3,9.4-15,14.6C77.2,119.7,77.1,119.8,77,119.8z"/>
	</g>
	<g>
		<path class="st0" d="M82,122c-0.1,0-0.1,0-0.2-0.1s-0.1-0.3,0-0.4c4.8-5.7,10-11,15.6-15.9c0.1-0.1,0.3-0.1,0.4,0s0.1,0.3,0,0.4
			c-5.5,4.9-10.8,10.2-15.5,15.9C82.1,121.9,82,122,82,122z"/>
	</g>
	<g>
		<path class="st0" d="M88,121.6c-0.1,0-0.1,0-0.2-0.1s-0.1-0.3,0-0.4l9.9-10.4c0.1-0.1,0.3-0.1,0.4,0s0.1,0.3,0,0.4l-9.9,10.4
			C88.2,121.6,88.1,121.6,88,121.6z"/>
	</g>
	<g>
		<path class="st0" d="M94.8,122.2c-0.1,0-0.1,0-0.2-0.1s-0.1-0.3,0-0.4l4.7-5.3c0.1-0.1,0.3-0.1,0.4,0s0.1,0.3,0,0.4l-4.7,5.3
			C94.9,122.1,94.8,122.2,94.8,122.2z"/>
	</g>
	<g>
		<path class="st0" d="M76.5,107.9c-0.1,0-0.1,0-0.2-0.1s-0.1-0.2,0-0.4c0.9-1.1,1.9-2.1,3-3c0.1-0.1,0.3-0.1,0.4,0s0.1,0.3,0,0.4
			c-1,0.9-2,1.9-2.9,3C76.6,107.9,76.5,107.9,76.5,107.9z"/>
	</g>
	<g>
		<path class="st0" d="M24.7,19.4L24.7,19.4c-0.1,0-0.3-0.1-0.3-0.3l0.1-16.7c0-0.1,0.1-0.3,0.3-0.3l0,0c0.1,0,0.3,0.1,0.3,0.3
			L25,19.1C25,19.3,24.9,19.4,24.7,19.4z"/>
	</g>
	<g>
		<path class="st0" d="M29,18.8c-0.1,0-0.3-0.1-0.3-0.2L28.4,2.4c0-0.1,0.1-0.3,0.2-0.3l0,0c0.1,0,0.3,0.1,0.3,0.2l0.3,16.1
			C29.2,18.7,29.1,18.8,29,18.8L29,18.8z"/>
	</g>
	<g>
		<path class="st0" d="M33.6,19.8c-0.1,0-0.3-0.1-0.3-0.3L33.2,2.1c0-0.1,0.1-0.3,0.3-0.3l0,0c0.1,0,0.3,0.1,0.3,0.3l0.1,17.4
			C33.8,19.7,33.7,19.8,33.6,19.8L33.6,19.8z"/>
	</g>
	<g>
		<path class="st0" d="M38.1,18.2c-0.1,0-0.2-0.1-0.3-0.2c-0.2-4.9-0.2-10,0-14.9c0-0.1,0.1-0.3,0.3-0.2c0.1,0,0.2,0.1,0.2,0.3
			C38.2,8,38.2,13,38.4,18C38.4,18.1,38.3,18.2,38.1,18.2L38.1,18.2z"/>
	</g>
	<g>
		<path class="st0" d="M42.3,19.1L42.3,19.1c-0.1,0-0.3-0.1-0.3-0.3l0.2-16.1c0-0.1,0.1-0.3,0.3-0.3c0.1,0,0.3,0.1,0.3,0.3
			l-0.2,16.1C42.5,19,42.4,19.1,42.3,19.1z"/>
	</g>
	<g>
		<path class="st0" d="M45.5,19.2c-0.1,0-0.3-0.1-0.3-0.3V4.6c0-0.1,0.1-0.3,0.3-0.3l0,0c0.1,0,0.3,0.1,0.3,0.3v14.3
			C45.8,19,45.6,19.2,45.5,19.2L45.5,19.2z"/>
	</g>
	<g class="st1">
		<path class="st0" d="M105.4,46.6c0.3-2.6-0.1-5.2-0.3-7.7c-0.2-2.8-0.3-5.5-0.5-8.3c-0.1-2.3-0.1-4.7-0.9-7
			c-0.7-2.3-4.1-1.4-3.5,1c1.5,4.5,1,11.6,1.3,18.7c0.1,0.8,0.1,1.5,0.3,2.3c0,0.4,0.1,0.8,0.2,1.1c0.1,0.7-0.1,0.3,0.2,0.9
			c0.6,1.7,3.2,1.1,3.2-0.6C105.2,47.7,105.3,47,105.4,46.6z"/>
	</g>
	<g class="st1">
		<path class="st0" d="M114.3,49.3c-0.2-1.6-2.6-1.8-3-0.2c-0.4,1.5-1.2,3.9-1.4,4.3c-1.2,2.6-2.8,5.1-4.1,7.7
			c-1.3,2.3-3,4.4-4.1,6.8c-0.4,0.8-0.6,0.8-0.8,1.3c-0.3-0.2-0.6-0.3-0.9-0.4c-0.2,0-0.4,0-0.5,0c0.7,0.8,1.1,1.9,0.8,2.9
			c-0.1,0.1-0.1,0.2-0.1,0.4c-0.1,0.2-0.4,0.9-0.8,1.5c-0.1,0.1-0.1,0.2-0.2,0.2c-0.1,0.1-0.1,0.1-0.2,0.2l0,0
			c-0.1,0.1-0.7,0.4-0.9,0.5c-1.5,0.5-2.8,0.9-3,1.4c-0.3,0.5,0,1.1,0.4,1.3c0.1,0.7,0.7,1.3,1.5,1.3c0.5,0,1.1,0,1.6,0
			c0,0.1,0,0.3,0,0.4l0,0c0.2,0.1,0.4,0.2,0.6,0.3c-0.1,0.3,0,0.6,0.3,0.7c0.2,0.1,0.3,0.2,0.5,0.4c0,0.1,0.1,0.3,0.1,0.4
			c0.1,0.8,0,0.9-0.3,1.7c-0.2,0.5-0.3,0.8-0.8,1.3c-0.1,0-0.1,0.1-0.2,0.1c-0.2,0.1-0.4,0.2-0.5,0.4c-0.3,0.4-0.1,1,0.4,1.1
			c0.2,0,0.3,0,0.5,0c0.1,0.1,0.2,0.2,0.3,0.3c-0.1,0.2-0.1,0.5,0,0.7l0,0h-0.1c-0.9,0.3-0.8,1.6,0.1,1.8c0.1,0,0.2,0.1,0.4,0.1l0,0
			c0.1,0.1,0.3,0.3,0.3,0.3c0,0.1,0.1,0.1,0.1,0.2s0.1,0.3,0.1,0.5c0,0.1,0,0.1,0,0.2v0.1c-0.1,0.4-0.1,0.5-0.2,1
			c-0.3,0.5-1,1.2-2,1.7c-0.6,0.2-1.2,0.4-1.8,0.5c-0.1,0,0.1,0,0.2,0c-0.6,0.1-1.3,0.2-1.9,0.3c-0.3,0-0.7,0.2-0.7,0.6
			c0,0.9,0.8,0.7,1.3,0.7s0.9-0.1,1.4-0.1c0,0.4,0.2,0.8,0.7,1.1c0.3,0.2,0.7,0.3,1.1,0.5c-0.3,0.4-0.4,1.1,0.3,1.5l0,0
			c0,0,0,0,0.1,0.1s0.1,0.1,0.2,0.2s0.1,0.2,0.2,0.3c0.1,0.2,0.1,0.4,0.2,0.6c0,0.9,0.1,0.5-0.1,1.4c-0.2,0.4-0.2,0.4-0.3,0.6
			c-0.1,0.1-0.2,0.2-0.3,0.3c-0.5,0.4-0.3,0.3-0.7,0.6c-0.4,0.2-0.6,0.6-0.4,1c-0.2,0.2-0.3,0.6-0.2,0.9c0.2,0.9,0.3,1.9,0.5,2.8
			c0,0.1,0,0.3,0.1,0.4c0.2,1.9,0.3,4.9,0.3,6.8c0.1,3-0.3,6.1,0.5,9.1c0.3,1.2,1.9,1.6,2.7,0.7c0.6-0.6,0.6-1.5,0.5-2.3
			c-0.3-4.6-0.1-9.2-0.7-13.8c-0.1-0.5-0.1-1-0.2-1.5c0.2-0.7,0.1-0.6,0.2-1.3c-0.1-0.6,0.1-1.2-0.1-1.8c0,0,0-0.1-0.1-0.1
			c0.3-0.3,0.5-0.7,0.7-1c0.9-1.6,0.7-3.7-0.6-5.1c-0.1-0.1-0.3-0.3-0.4-0.4c0.5-0.5,0.5-1.4,0-1.9c-0.3-0.2-0.6-0.4-1-0.4l0,0
			c-0.1,0-0.2,0-0.3-0.1c0.2-0.1,0.4-0.2,0.6-0.4c0.1,0.3,0.3,0.5,0.7,0.6c0.6,0.1,1.2-0.3,1.8-0.6c1.7-1.1,2.3-3.6,1.1-5.2
			c-0.6-0.9-1.5-1.6-2.5-1.8c0-0.1-0.1-0.3-0.2-0.4c0.1-0.1,0.3-0.1,0.4-0.2c1.8-0.9,2.6-3.4,1.6-5.2c-0.3-0.6-0.7-1.1-1.2-1.5
			c0.8-0.4,1.3-1.5,0.7-2.4c-0.3-0.5-0.7-0.7-1.2-0.8c0.1-0.1,0.2-0.1,0.3-0.2c0.8-0.7,0.7-0.5,1.2-1.6c0.2-0.8,0.1-1.7-0.2-2.5
			c0.1,0,0.2-0.1,0.3-0.1c0.3-0.2,0.5-0.5,0.6-0.8c0.2,0.1,0.4,0.1,0.6,0s0.4-0.2,0.6-0.4c0.1-0.1,0.4-0.5,0.5-0.7
			c0.7-1.1,1.3-2.1,2-3.2c1.1-1.8,2.2-3.5,3.1-5.3c0.2-0.6,0.7-1.1,0.6-1.8c-0.1-0.2-0.2-0.4-0.4-0.6c1.3-2,2.6-4,3.4-6.3
			C113.8,51,114.4,50.2,114.3,49.3z"/>
	</g>
	<g class="st1">
		<path class="st0" d="M69.1,113.6c0.4,0,0.7-0.3,0.7-0.7c0.3,0.1,0.5,0.2,0.7,0.3c-0.2,0.4-0.3,0.9-0.2,1.3c0.1,0,0.2,0.1,0.3,0.1
			c0.4,0.2,0.9,0.5,1.3,0.7c0.1,0.1,0.2,0.2,0.3,0.3c0.9-0.2,1.2-1,1.1-1.8c0,0,0.1-0.1,0.1-0.2c0.1-0.5-0.2-0.7-0.6-0.8
			c-0.2-0.2-0.5-0.3-0.8-0.4c-1-0.6-2.1-1.6-2.7-2c-1.1-0.8-2.4-1.2-3.5-1.9c-0.4-0.2-0.7-0.4-1-0.7c-0.3-0.2-0.6-0.5-1-0.9
			c-2.8-2.9-4.4-4.5-5.2-8.1c0.1-0.5-0.1-1-0.1-1.5c0-0.1,0-0.2,0-0.3c-0.2-1.5-0.2-3-0.2-4.5c0-0.1-0.1-0.1-0.1-0.2
			c-0.1-1.1-0.1-2.2-0.2-3.3c0-4.2,0.1-8.4-1.1-12.4c-0.4-1.3-1.6-1.5-2.5-1.1c-0.2-0.9-0.5-1.9-0.8-2.8c-1.2-3.7-2.1-5.3-3.3-8.5
			c-0.9-2.7-1.8-5.4-3.1-7.9c-0.5-0.8-0.9-1.9-1.9-2.3c-1.2-0.4-2.4,1.1-1.7,2.2c2,2.7,3.2,5.9,4.7,8.8c0.8,1.8,1.8,3.6,2.6,5.4
			c0.5,1.2,1.7,4.6,2.4,6.8c0,0.1,0,0.2,0,0.3c1.3,4.9,1.4,9.1,1.2,15.9c-0.1,2.6-0.7,6.1-1.3,8.2l0,0c-1.1,0-1.7,1.4-0.9,2.1
			c1.5,1.2,2.9,2.4,4.4,3.5s3.1,2,4.7,2.9c1.7,0.9,3.4,1.7,5.1,2.4c0.7,0.3,1.4,0.5,2.1,0.8C68.8,113.7,68.9,113.7,69.1,113.6z"/>
	</g>
	<g class="st1">
		<path class="st0" d="M48.1,101c-0.1-0.3-0.3-0.6-0.6-0.8c-0.1-0.1-0.1-0.1-0.2-0.1c0.1-0.6,0-1.2,0-1.7c0-0.4,0.1-0.9-0.3-1.2
			c-0.5-0.6-1.6-0.1-1.6,0.7c0,0.7-0.1,1.4,0,2.2c-0.2,0.3-0.3,0.8,0.1,1.2l0.1,0.1l0,0c0,0,0,0,0,0.1
			C45.8,103.2,48.5,102.8,48.1,101z"/>
	</g>
	<g class="st1">
		<path class="st0" d="M38.5,99.2c-2.1,0.1-2.1,3.1,0,3.2C40.6,102.3,40.6,99.2,38.5,99.2z"/>
	</g>
	<g class="st1">
		<path class="st0" d="M29,97c-2.1,0.1-2.1,3.1,0,3.2C31.1,100.1,31.1,97.1,29,97z"/>
	</g>
	<g class="st1">
		<path class="st0" d="M51,9.2c-0.5-1.3-2.5-0.9-2.5,0.5c-0.2,3.2-0.5,6.3-0.9,8.6c-0.1,0.6-0.4,1.1-0.4,1.7c-0.1,2.2,3,2,2.8-0.1
			c0-0.5-0.1-0.2,0-1c0.3-2,0.6-4,0.8-6.1c0.1-0.8,0.2-1.6,0.2-2.5C51.1,9.9,51.2,9.5,51,9.2z"/>
	</g>
	<g>
		<g>
			<path class="st0" d="M74.9,69.9c-0.3,0-0.6-0.2-0.7-0.5c-0.7-2.1-1.3-4.2-1.9-6.1c-4.5-13.9-7.4-23-4.9-39.7
				c0.2-1.1,2.5-4.4,3.6-4.4h0.3c1.7,0,3.7,0,4.2,2.7c0.3,1.5,0.5,2.9,0.7,4.2c0.3-2.9,0.9-5.4,2.1-6.3c1-0.8,3.4-1.6,4.9,0.1
				c0.7,0.8,1.2,1.8,1.6,3.1c0.1-0.7,0.3-1.3,0.5-2c0.3-1,1-3,3.3-2.9c1.9,0.1,3.6,1.5,4,3.4l0.1,0.6c0.2,0.9,0.5,2.1,0.7,3.5
				c0.2-1.1,0.6-2.2,1-3.5c0.6-1.6,3-2.5,4.6-2c2.6,0.8,2.7,3.9,2.8,5.2c0.2,5.8,0.3,8.8,0.4,11.7c0.1,3,0.2,5.9,0.4,11.7
				c0,0.4-0.3,0.8-0.7,0.8c-0.4,0-0.8-0.3-0.8-0.7c-0.2-5.8-0.3-8.8-0.4-11.7c-0.1-3-0.2-5.9-0.4-11.7c-0.1-1.7-0.3-3.4-1.7-3.8
				c-1-0.3-2.5,0.3-2.8,1.1c-1.2,3.4-1.5,5.8-1.5,10c0,0.4-0.3,0.7-0.7,0.8c-0.4,0-0.8-0.3-0.8-0.7c-0.3-4.1-1.1-7.9-1.6-10.2
				L91.1,22c-0.3-1.2-1.4-2.1-2.5-2.2c-0.8,0-1.3,0.2-1.8,1.9C86,24.3,86,26.6,86,31.1c0,0.7,0,1.5,0,2.3c0,0.4-0.3,0.8-0.8,0.8
				c-0.4,0-0.8-0.3-0.8-0.8c0-6.1-0.9-10.7-2.3-12.3c-0.8-0.9-2.3-0.3-2.8,0.1c-1.4,1.1-2,8.2-1.7,13.6c0,0.4-0.3,0.7-0.7,0.8
				c-0.4,0.1-0.8-0.2-0.9-0.6c-0.6-2.6-0.9-4.7-1.1-7c-0.2-1.7-0.4-3.5-0.8-5.7c-0.3-1.4-0.8-1.5-2.7-1.5h-0.2
				c-0.6,0.4-2.2,2.4-2.3,3.1c-2.4,16.3,0.5,25.4,4.9,39c0.6,1.9,1.3,3.9,1.9,6.1c0.1,0.4-0.1,0.8-0.5,1
				C75.1,69.9,75,69.9,74.9,69.9z M71,20.8L71,20.8L71,20.8z"/>
		</g>
		<g>
			<path class="st0" d="M73.5,123L73.5,123c-0.5,0-0.8-0.4-0.8-0.8c0.1-1.1,0.3-3.4,0.4-6.1c0.3-4.4,0.7-9.8,1-13.6
				c0-0.4,0.4-0.7,0.8-0.7s0.7,0.4,0.7,0.8c-0.4,3.8-0.7,9.2-1,13.6c-0.2,2.8-0.3,5.1-0.4,6.2C74.3,122.7,73.9,123,73.5,123z"/>
		</g>
		<g>
			<path class="st0" d="M103.3,72.1c-0.1,0-0.2,0-0.3-0.1c-0.4-0.2-0.5-0.6-0.3-1c0.8-1.6,1.7-3.1,2.7-4.6c0.2-0.4,0.4-0.7,0.7-1
				c3.1-4.9,5.6-10.2,7.4-15.7c0.1-0.4,0.6-0.6,1-0.5s0.6,0.6,0.5,1c-1.9,5.6-4.5,11-7.6,16c-0.2,0.3-0.4,0.7-0.7,1.1
				c-0.9,1.5-1.9,3-2.6,4.5C103.8,72,103.6,72.1,103.3,72.1z"/>
		</g>
		<g>
			<path class="st0" d="M101.2,123c-0.4,0-0.7-0.3-0.8-0.7c-0.1-2.7-0.2-6.6-0.3-10.4c-0.1-3.8-0.2-7.7-0.3-10.4
				c0-0.4,0.3-0.8,0.7-0.8c0.4,0,0.8,0.3,0.8,0.7c0.1,2.7,0.2,6.6,0.3,10.4c0.1,3.8,0.2,7.7,0.3,10.4
				C102,122.6,101.7,122.9,101.2,123C101.3,123,101.2,123,101.2,123z"/>
		</g>
		<g>
			<path class="st0" d="M100.6,95.7c-0.4,0-0.7-0.3-0.8-0.7c0-0.7,0-1.4,0.1-2.1c0.1-0.4,0.5-0.7,0.9-0.6s0.7,0.5,0.6,0.9
				c-0.1,0.6-0.2,1.2-0.1,1.7C101.4,95.3,101.1,95.7,100.6,95.7C100.7,95.7,100.7,95.7,100.6,95.7z"/>
		</g>
		<g>
			<path class="st0" d="M101.2,86.1L101.2,86.1c-0.5,0-0.8-0.4-0.8-0.8v-0.9c0-0.4,0.4-0.7,0.8-0.7s0.7,0.4,0.7,0.8v0.9
				C102,85.8,101.6,86.1,101.2,86.1z"/>
		</g>
		<g>
			<path class="st0" d="M101.8,78.9L101.8,78.9c-0.4,0-0.8-0.4-0.8-0.8c0-1,0.1-1.9,0.3-2.9c0.1-0.4,0.5-0.7,0.9-0.6
				s0.7,0.5,0.6,0.9c-0.1,0.9-0.2,1.8-0.2,2.6C102.5,78.6,102.2,78.9,101.8,78.9z"/>
		</g>
	</g>
	<g>
		<g>
			<path class="st0" d="M34.6,56.5c-3.4,0-7.2-0.3-11.4-0.9c-1.1-0.2-4.4-2.5-4.4-3.6v-0.3c0-1.7,0-3.7,2.7-4.2
				c1.5-0.3,2.9-0.5,4.2-0.7c-2.9-0.3-5.4-0.9-6.3-2.1c-0.8-1-1.6-3.4,0.1-4.9c0.8-0.7,1.8-1.2,3.1-1.5c-0.7-0.1-1.3-0.3-2-0.5
				c-1-0.3-3-1-2.9-3.3c0.1-1.9,1.5-3.6,3.4-4l0.6-0.1c0.9-0.2,2.1-0.5,3.5-0.7c-1.1-0.2-2.2-0.6-3.5-1c-1.6-0.6-2.5-3-2-4.6
				c0.8-2.6,3.9-2.7,5.2-2.8c5.9-0.2,8.8-0.3,11.8-0.4c2.9-0.1,5.9-0.2,11.7-0.4c0.4,0,0.8,0.3,0.8,0.7c0,0.4-0.3,0.8-0.7,0.8
				c-5.8,0.2-8.8,0.3-11.7,0.4c-3,0.1-5.9,0.2-11.8,0.4c-2,0.1-3.4,0.4-3.8,1.7c-0.3,1,0.3,2.5,1.1,2.8c3.4,1.2,5.8,1.5,10,1.5
				c0.4,0,0.7,0.3,0.8,0.7c0,0.4-0.3,0.8-0.7,0.8c-4.1,0.3-7.9,1.1-10.2,1.6L21.5,32c-1.2,0.3-2.1,1.4-2.2,2.5
				c0,0.8,0.2,1.3,1.9,1.8c2.6,0.8,4.9,0.8,9.4,0.8c0.7,0,1.5,0,2.3,0c0.4,0,0.8,0.3,0.8,0.8s-0.3,0.8-0.8,0.8
				c-6.1,0-10.7,0.9-12.3,2.3c-0.9,0.8-0.3,2.3,0.1,2.8c1.1,1.4,8.3,2.1,13.6,1.7c0.4,0,0.7,0.3,0.8,0.7s-0.2,0.8-0.6,0.9
				c-2.6,0.6-4.7,0.9-7,1.1c-1.7,0.2-3.5,0.4-5.7,0.8c-1.4,0.3-1.5,0.8-1.5,2.7v0.2c0.4,0.6,2.4,2.2,3.1,2.3
				c16.3,2.4,25.4-0.5,39-4.9c1.9-0.6,3.9-1.3,6.1-1.9c0.4-0.1,0.8,0.1,1,0.5c0.1,0.4-0.1,0.8-0.5,1c-2.1,0.7-4.2,1.3-6.1,1.9
				C52.6,54,44.8,56.5,34.6,56.5z M20.4,52L20.4,52L20.4,52z"/>
		</g>
		<g>
			<path class="st0" d="M121.8,50.2L121.8,50.2c-1.1-0.1-3.5-0.3-6.2-0.4c-4.4-0.3-9.8-0.7-13.6-1c-0.4,0-0.7-0.4-0.7-0.8
				c0-0.4,0.4-0.7,0.8-0.7c3.8,0.4,9.2,0.7,13.6,1c2.8,0.2,5.1,0.3,6.2,0.4c0.4,0,0.7,0.4,0.7,0.8C122.5,49.9,122.2,50.2,121.8,50.2
				z"/>
		</g>
		<g>
			<path class="st0" d="M71,20.4c-0.1,0-0.2,0-0.3-0.1c-1.6-0.8-3.1-1.7-4.6-2.7c-0.3-0.2-0.7-0.4-1-0.7c-4.9-3.1-10.2-5.6-15.7-7.4
				c-0.4-0.1-0.6-0.6-0.5-1s0.6-0.6,1-0.5c5.6,1.9,11,4.5,16,7.6c0.3,0.2,0.7,0.4,1.1,0.7c1.5,0.9,3,1.9,4.5,2.6
				c0.4,0.2,0.5,0.6,0.3,1S71.3,20.4,71,20.4z"/>
		</g>
		<g>
			<path class="st0" d="M100.9,23.1c-0.4,0-0.7-0.3-0.8-0.7c0-0.4,0.3-0.8,0.7-0.8c2.7-0.1,6.6-0.2,10.4-0.3
				c3.8-0.1,7.7-0.2,10.5-0.3c0.4,0,0.8,0.3,0.8,0.7c0,0.4-0.3,0.8-0.7,0.8c-2.7,0.1-6.7,0.2-10.5,0.3
				C107.6,22.9,103.7,23,100.9,23.1C101,23.1,101,23.1,100.9,23.1z"/>
		</g>
		<g>
			<path class="st0" d="M94.1,23.1c-0.5,0-1.1-0.1-1.6-0.2c-0.4-0.1-0.7-0.5-0.6-0.9s0.5-0.7,0.9-0.6c0.6,0.1,1.2,0.2,1.7,0.1
				c0.4,0,0.8,0.3,0.8,0.7S95,23,94.6,23C94.4,23.1,94.3,23.1,94.1,23.1z"/>
		</g>
		<g>
			<path class="st0" d="M85,22.5L85,22.5h-0.9c-0.4,0-0.7-0.4-0.7-0.8s0.4-0.7,0.8-0.7h0.9c0.4,0,0.7,0.4,0.7,0.8
				C85.7,22.2,85.4,22.5,85,22.5z"/>
		</g>
		<g>
			<path class="st0" d="M77.8,22L77.8,22c-1,0-1.9-0.1-2.9-0.3c-0.4-0.1-0.7-0.5-0.6-0.9s0.5-0.7,0.9-0.6c0.9,0.1,1.8,0.2,2.6,0.2
				c0.4,0,0.8,0.4,0.8,0.8C78.5,21.6,78.2,22,77.8,22z"/>
		</g>
	</g>
	<g>
		<g>
			<path class="st0" d="M34.3,105.7c-0.1,0-0.1,0-0.2,0c-1.9-0.1-3.6-1.5-4-3.4l-0.1-0.6c-0.2-0.9-0.5-2.1-0.7-3.5
				c-0.2,1.1-0.6,2.2-1,3.5c-0.6,1.6-3,2.5-4.6,2c-2.6-0.8-2.7-3.9-2.8-5.2c-0.2-5.8-0.3-8.8-0.4-11.7c-0.1-3-0.2-5.9-0.4-11.8
				c0-0.4,0.3-0.8,0.7-0.8c0.4,0,0.8,0.3,0.8,0.7c0.2,5.9,0.3,8.8,0.4,11.8c0.1,2.9,0.2,5.9,0.4,11.7c0.1,1.7,0.3,3.4,1.7,3.8
				c1,0.3,2.5-0.3,2.8-1.1c1.2-3.4,1.5-5.8,1.5-10c0-0.4,0.3-0.7,0.7-0.8c0.4,0,0.8,0.3,0.8,0.7c0.2,4.1,1.1,7.9,1.6,10.2l0.1,0.6
				c0.3,1.2,1.4,2.1,2.5,2.2c0.8,0,1.3-0.2,1.8-1.9c0.8-2.6,0.8-4.9,0.8-9.4c0-0.7,0-1.5,0-2.3c0-0.4,0.3-0.8,0.8-0.8
				c0.4,0,0.8,0.3,0.8,0.8c0,6.1,0.9,10.7,2.3,12.3c0.8,0.9,2.3,0.3,2.8-0.1c1.4-1.1,2-8.2,1.7-13.6c0-0.4,0.3-0.7,0.7-0.8
				c0.4-0.1,0.8,0.2,0.9,0.6c0.6,2.6,0.9,4.7,1.1,7c0.2,1.7,0.4,3.5,0.8,5.7c0.3,1.4,0.8,1.5,2.7,1.5h0.2c0.6-0.4,2.2-2.4,2.3-3.1
				c2.4-16.3-0.5-25.4-4.9-39C48.3,59,47.6,57,47,54.8c-0.1-0.4,0.1-0.8,0.5-1c0.4-0.1,0.8,0.1,1,0.5c0.7,2.1,1.3,4.2,1.9,6.1
				c4.5,13.9,7.4,23,4.9,39.7c-0.2,1.1-2.5,4.4-3.6,4.4h-0.3c-1.7,0-3.7,0-4.2-2.7c-0.3-1.5-0.5-2.9-0.7-4.2
				c-0.3,2.9-0.9,5.4-2.1,6.3c-1,0.8-3.4,1.6-4.9-0.1c-0.7-0.8-1.2-1.8-1.6-3.1c-0.1,0.7-0.3,1.3-0.5,2
				C37.2,103.8,36.5,105.7,34.3,105.7z M51.6,103.1L51.6,103.1L51.6,103.1z"/>
		</g>
		<g>
			<path class="st0" d="M47.6,22.2C47.6,22.2,47.5,22.2,47.6,22.2c-0.5,0-0.8-0.4-0.8-0.8c0.4-3.8,0.7-9.2,1-13.6
				C48,5,48.1,2.7,48.2,1.6c0-0.4,0.4-0.7,0.8-0.7c0.4,0,0.7,0.4,0.7,0.8c-0.1,1.1-0.3,3.4-0.4,6.1c-0.3,4.4-0.7,9.8-1,13.6
				C48.3,21.9,48,22.2,47.6,22.2z"/>
		</g>
		<g>
			<path class="st0" d="M8.5,74.6c-0.1,0-0.2,0-0.2,0c-0.4-0.1-0.6-0.6-0.5-1c1.9-5.6,4.5-11,7.6-16c0.2-0.3,0.4-0.7,0.7-1.1
				c0.9-1.5,1.9-3,2.6-4.5c0.2-0.4,0.6-0.5,1-0.3s0.5,0.6,0.3,1c-0.8,1.6-1.7,3.1-2.7,4.6c-0.2,0.3-0.4,0.7-0.7,1
				C13.5,63.2,11,68.5,9.2,74C9.1,74.4,8.8,74.6,8.5,74.6z"/>
		</g>
		<g>
			<path class="st0" d="M21.9,23.3c-0.4,0-0.7-0.3-0.8-0.7c-0.1-2.7-0.2-6.6-0.3-10.4c-0.1-3.8-0.2-7.7-0.3-10.4
				c0-0.4,0.3-0.8,0.7-0.8C21.6,1,22,1.3,22,1.7c0.1,2.7,0.2,6.6,0.3,10.4c0.1,3.8,0.2,7.7,0.3,10.4C22.7,23,22.4,23.3,21.9,23.3
				C22,23.3,22,23.3,21.9,23.3z"/>
		</g>
		<g>
			<path class="st0" d="M21.8,31.7h-0.1c-0.4-0.1-0.7-0.5-0.6-0.9c0.1-0.6,0.2-1.2,0.1-1.7c0-0.4,0.3-0.8,0.7-0.8
				c0.4,0,0.8,0.3,0.8,0.7c0,0.7,0,1.4-0.1,2.1C22.5,31.4,22.2,31.7,21.8,31.7z"/>
		</g>
		<g>
			<path class="st0" d="M21.3,40.2L21.3,40.2c-0.5,0-0.8-0.4-0.8-0.8v-0.9c0-0.4,0.4-0.7,0.8-0.7s0.7,0.4,0.7,0.8v0.9
				C22,39.9,21.7,40.2,21.3,40.2z"/>
		</g>
		<g>
			<path class="st0" d="M20.6,49.3h-0.1c-0.4-0.1-0.7-0.5-0.6-0.9c0.1-0.9,0.2-1.8,0.2-2.6c0-0.4,0.3-0.8,0.8-0.8l0,0
				c0.4,0,0.8,0.4,0.8,0.8c0,1-0.1,1.9-0.3,2.9C21.3,49,20.9,49.3,20.6,49.3z"/>
		</g>
	</g>
	<g>
		<g>
			<path class="st0" d="M74.1,103.4c-0.4,0-0.7-0.3-0.8-0.7c0-0.4,0.3-0.8,0.7-0.8c5.8-0.2,8.8-0.3,11.7-0.4c3-0.1,5.9-0.2,11.7-0.4
				c1.7-0.1,3.4-0.3,3.8-1.7c0.3-1-0.3-2.5-1.1-2.8c-3.4-1.2-5.8-1.5-10-1.5c-0.4,0-0.7-0.3-0.8-0.7c0-0.4,0.3-0.8,0.7-0.8
				c4.1-0.2,7.9-1.1,10.2-1.6l0.6-0.1c1.2-0.3,2.1-1.4,2.2-2.5c0-0.8-0.2-1.3-1.9-1.8c-2.6-0.8-4.9-0.8-9.4-0.8c-0.7,0-1.5,0-2.3,0
				c-0.4,0-0.8-0.3-0.8-0.8s0.3-0.8,0.8-0.8c6.1,0,10.7-0.9,12.3-2.3c0.9-0.8,0.3-2.3-0.1-2.8c-1.1-1.4-8.2-2-13.6-1.7
				c-0.4,0-0.7-0.3-0.8-0.7c-0.1-0.4,0.2-0.8,0.6-0.9c2.6-0.6,4.7-0.9,7-1.1c1.7-0.2,3.5-0.4,5.7-0.8c1.4-0.3,1.5-0.8,1.5-2.7V72
				c-0.4-0.6-2.4-2.2-3.1-2.3c-16.3-2.4-25.4,0.5-39,4.9c-1.9,0.6-3.9,1.3-6.1,1.9c-0.4,0.1-0.8-0.1-1-0.5c-0.1-0.4,0.1-0.8,0.5-1
				c2.1-0.7,4.2-1.3,6.1-1.9c13.9-4.5,23-7.4,39.7-4.9c1.1,0.2,4.4,2.5,4.4,3.6v0.3c0,1.7,0,3.7-2.7,4.2c-1.5,0.3-2.9,0.5-4.2,0.7
				c2.9,0.3,5.4,0.9,6.3,2.1c0.8,1,1.6,3.4-0.1,4.9c-0.8,0.7-1.8,1.2-3.1,1.6c0.7,0.1,1.3,0.3,2,0.5c1,0.3,3,1,2.9,3.3
				c-0.1,1.9-1.5,3.6-3.4,4l-0.6,0.1c-0.9,0.2-2.1,0.5-3.5,0.7c1.1,0.2,2.2,0.6,3.5,1c1.6,0.6,2.5,3,2,4.6c-0.8,2.6-3.9,2.7-5.2,2.8
				c-5.8,0.2-8.8,0.3-11.7,0.4C82.9,103.1,80,103.2,74.1,103.4L74.1,103.4z M102.2,72.1L102.2,72.1L102.2,72.1z M102.2,71.9
				L102.2,71.9L102.2,71.9z"/>
		</g>
		<g>
			<path class="st0" d="M20.5,76.7C20.5,76.7,20.4,76.7,20.5,76.7c-3.9-0.4-9.3-0.7-13.6-1c-2.8-0.2-5.1-0.3-6.2-0.4
				c-0.4,0-0.7-0.4-0.7-0.8s0.4-0.7,0.8-0.7c1.1,0.1,3.4,0.3,6.1,0.4c4.4,0.3,9.8,0.7,13.6,1c0.4,0,0.7,0.4,0.7,0.8
				S20.9,76.7,20.5,76.7z"/>
		</g>
		<g>
			<path class="st0" d="M72.9,115.8c-0.1,0-0.2,0-0.2,0c-5.6-1.9-11-4.5-16-7.6c-0.3-0.2-0.7-0.4-1.1-0.7c-1.5-0.9-3-1.9-4.5-2.6
				c-0.4-0.2-0.5-0.6-0.3-1s0.6-0.5,1-0.3c1.6,0.8,3.1,1.7,4.6,2.7c0.4,0.2,0.7,0.4,1,0.7c4.9,3.1,10.2,5.6,15.7,7.4
				c0.4,0.1,0.6,0.6,0.5,1C73.6,115.6,73.3,115.8,72.9,115.8z"/>
		</g>
		<g>
			<path class="st0" d="M0.8,102.9c-0.4,0-0.7-0.3-0.8-0.7c0-0.4,0.3-0.8,0.7-0.8c2.7-0.1,6.6-0.2,10.4-0.3
				c3.8-0.1,7.7-0.2,10.4-0.3l0,0c0.4,0,0.7,0.3,0.8,0.7c0,0.4-0.3,0.8-0.7,0.8c-2.7,0.1-6.6,0.2-10.4,0.3
				C7.4,102.7,3.5,102.8,0.8,102.9L0.8,102.9z"/>
		</g>
		<g>
			<path class="st0" d="M30,102.5h-0.1c-0.6-0.1-1.2-0.2-1.7-0.1c-0.4,0-0.8-0.3-0.8-0.7c0-0.4,0.3-0.8,0.7-0.8c0.7,0,1.4,0,2.1,0.1
				c0.4,0.1,0.7,0.5,0.6,0.9C30.6,102.2,30.3,102.5,30,102.5z"/>
		</g>
		<g>
			<path class="st0" d="M38.5,103L38.5,103h-0.9c-0.4,0-0.7-0.4-0.7-0.8s0.4-0.7,0.8-0.7h0.9c0.4,0,0.7,0.4,0.7,0.8
				C39.2,102.7,38.9,103,38.5,103z"/>
		</g>
		<g>
			<path class="st0" d="M47.6,103.7L47.6,103.7c-1-0.1-1.9-0.2-2.7-0.2c-0.4,0-0.8-0.4-0.8-0.8s0.3-0.8,0.8-0.8l0,0
				c1,0,1.9,0.1,2.9,0.3c0.4,0.1,0.7,0.5,0.6,0.9C48.3,103.4,47.9,103.7,47.6,103.7z"/>
		</g>
	</g>
	<g>
		<path class="st2" d="M84.5,16.5c-0.1,0-0.3,0-0.4-0.1L68,5.9c-0.4-0.2-0.5-0.7-0.2-1.1c0.2-0.4,0.7-0.5,1.1-0.2L85,15.1
			c0.4,0.2,0.5,0.7,0.2,1.1C85,16.3,84.8,16.5,84.5,16.5z"/>
	</g>
	<g>
		<path class="st2" d="M94.5,14.3c-0.1,0-0.3,0-0.4-0.1L78.9,3.8c-0.3-0.2-0.4-0.7-0.2-1.1c0.2-0.3,0.7-0.4,1.1-0.2L95,12.9
			c0.3,0.2,0.4,0.7,0.2,1.1C95,14.2,94.8,14.3,94.5,14.3z"/>
	</g>
	<g>
		<path class="st2" d="M53,116.9C53,116.9,52.9,116.9,53,116.9c-7.7-0.7-15.3-2.2-22.5-4.6c-0.4-0.1-0.6-0.6-0.5-1s0.6-0.6,1-0.5
			c7.2,2.4,14.6,3.9,22.1,4.6c0.4,0,0.7,0.4,0.7,0.8C53.7,116.6,53.4,116.9,53,116.9z"/>
	</g>
</g>
</svg>
