<?xml version="1.0" encoding="utf-8"?>
<!-- Generator: Adobe Illustrator 26.2.1, SVG Export Plug-In . SVG Version: 6.00 Build 0)  -->
<svg version="1.1" id="a" xmlns="http://www.w3.org/2000/svg" xmlns:xlink="http://www.w3.org/1999/xlink" x="0px" y="0px"
	 viewBox="0 0 56.7 48.4" style="enable-background:new 0 0 56.7 48.4;" xml:space="preserve">
<style type="text/css">
	.st0{fill:#BB8760;}
</style>
<g>
	<path class="st0" d="M20.9,0.9c-0.2-0.1-0.5-0.2-0.7-0.3c0,0-0.1,0-0.1,0c0,0,0,0-0.1,0c0,0-0.1,0,0,0.1c0,0,0,0,0.1,0
		c0,0,0,0.1,0.1,0.1C20.3,0.9,20.5,1,20.7,1l0,0c0,0,0,0,0.1,0c0,0,0.1,0,0.1,0.1C21,1.1,21.1,1,20.9,0.9L20.9,0.9z"/>
	<path class="st0" d="M18.5,2.6c-0.1-0.1-0.2-0.1-0.3-0.2c-0.1,0-0.2-0.1-0.3-0.1c0,0-0.1,0,0,0.1c0.1,0.1,0.2,0.1,0.3,0.2
		c0.1,0.1,0.2,0.1,0.3,0.2C18.5,2.7,18.6,2.6,18.5,2.6L18.5,2.6z"/>
	<path class="st0" d="M21.1,0.1C21,0,20.9,0,20.9,0c0,0-0.1,0.1-0.1,0.1c0,0.1,0,0.2,0,0.3c0.1,0.1,0.2,0.1,0.3,0.1l0,0
		c0,0,0.1-0.1,0.1-0.1C21.3,0.2,21.2,0.1,21.1,0.1z"/>
	<g>
		<path class="st0" d="M16.9,21.3c-0.1-0.7-0.7-1.1-1.3-1.3c-0.8-0.3-1.6-0.1-2.4,0.1c-1,0.3-2.1,1-3.2,0.8c-0.6-0.1-1-0.5-1-1.1
			s0.4-1.2,0.8-1.7c1.4-1.9,3.4-3.8,5.5-4.7c0,0,0-0.1,0-0.1c-1.8,0.8-3.6,2.3-4.9,3.8c-0.6,0.7-1.4,1.6-1.5,2.5
			C8.8,20.5,9.3,21,10,21.1c0.9,0.1,1.9-0.3,2.7-0.6c1-0.4,2.1-0.7,3.1-0.2c0.4,0.2,0.8,0.5,0.9,0.9c0.2,0.6,0,1.1-0.3,1.6
			c-0.3,0.4-0.7,0.8-1.1,1.1c-0.5,0.5-1,0.9-1.5,1.4c-2.1,1.9-4.2,3.9-6.3,5.8c-0.1,0.1,0.1,0.2,0.1,0.1c1.8-1.7,3.7-3.4,5.5-5.1
			c0.9-0.8,1.8-1.6,2.7-2.5C16.4,23,17.1,22.3,16.9,21.3L16.9,21.3z"/>
		<path class="st0" d="M16.8,16c-0.8,0.4-1.5,1-2.2,1.6c-0.9,0.8-1.8,1.9-2.4,2.9c0,0,0,0.1,0.1,0c0.7-0.9,1.4-2,2.3-2.7
			c0.7-0.7,1.5-1.2,2.4-1.7C16.9,16.1,16.8,16,16.8,16z"/>
		<path class="st0" d="M14.6,12.7c1.6-0.1,4.2-0.3,5.9-0.5l0-0.1c0,0,0-0.1,0-0.1C18.9,12.3,16.2,12.3,14.6,12.7
			c-0.1-0.1-0.2,0-0.1,0.1c0.2,0.2,0.4,0.5,0.7,0.7c0,0,0.1,0,0,0C15.1,13.2,14.8,13,14.6,12.7L14.6,12.7z"/>
		<path class="st0" d="M20.5,12.1c-0.9,1.3-2.3,3.3-3.1,4.6c-0.2-0.2-0.3-0.5-0.5-0.7c0,0-0.1,0-0.1,0c0.1,0.3,0.3,0.5,0.5,0.8l0,0
			l0,0c0,0.1,0.1,0,0.1-0.1l0,0c1-1.2,2.3-3.3,3.1-4.6C20.6,12.1,20.5,12,20.5,12.1L20.5,12.1z"/>
		<path class="st0" d="M17.6,22.8c-0.3-0.8-0.6-1.6-1.1-2.2c0,0,0,0,0,0c0.4,0.7,0.7,1.4,1,2.2c0.3,0.8,0.5,1.6,0.6,2.5
			c0,0.1,0.1,0.1,0.1,0C18.1,24.4,17.9,23.6,17.6,22.8L17.6,22.8z"/>
		<path class="st0" d="M11.1,23.8c-1-1.1-1.7-2.4-2.1-3.8c0,0,0,0,0,0C9.3,21.4,10,22.7,11.1,23.8C11,23.8,11.1,23.8,11.1,23.8
			L11.1,23.8z"/>
		<path class="st0" d="M16,23.2c-0.7-0.3-1.4,0.3-2,0.6c-0.9,0.3-1.8,0.4-2.8,0.3c0,0,0,0,0,0c0.7,0.2,1.5,0.2,2.2,0
			c0.4-0.1,0.7-0.2,1.1-0.4c0.5-0.2,0.9-0.6,1.5-0.4C16.1,23.3,16.1,23.2,16,23.2L16,23.2z"/>
		<path class="st0" d="M18.3,25.5c0-0.1-0.2-0.1-0.2,0c0,1-1,1.9-1.6,2.6c-0.7,0.8-1.4,1.6-2.2,2.4c-1.5,1.6-3,3.1-4.6,4.6
			c0,0,0,0.1,0.1,0c1.7-1.5,3.3-3.1,4.8-4.8c0.8-0.8,1.5-1.6,2.2-2.5C17.5,27.2,18.3,26.4,18.3,25.5L18.3,25.5z"/>
		<path class="st0" d="M16.7,16c-0.9,0.6-1.7,1.2-2.5,2c-0.4,0.4-0.7,0.8-1.1,1.2c-0.3,0.4-0.7,0.8-0.9,1.3c0,0,0,0,0,0
			c0.3-0.4,0.6-0.8,0.9-1.2c0.3-0.4,0.7-0.8,1-1.1c0.8-0.8,1.6-1.4,2.5-2C16.9,16.1,16.8,16,16.7,16z"/>
		<path class="st0" d="M20.2,12.3c-0.5,0.8-1,1.6-1.5,2.3c-0.5,0.7-1,1.4-1.4,2.2c-0.1-0.1-0.1-0.2-0.2-0.3
			c-0.1-0.1-0.2-0.3-0.3-0.4c0,0,0,0,0,0c0,0.1,0.1,0.3,0.2,0.4c0.1,0.1,0.2,0.3,0.3,0.4c0,0.1,0.2,0,0.1,0c0.5-0.7,1-1.5,1.5-2.2
			c0.5-0.8,1-1.5,1.5-2.2C20.4,12.3,20.3,12.2,20.2,12.3L20.2,12.3z"/>
		<path class="st0" d="M15.3,13.5c0,0,0-0.1-0.1-0.1c-0.2-0.3-0.4-0.6-0.7-0.8c0,0-0.1,0-0.1,0c0.1,0.3,0.3,0.6,0.5,0.8
			c-1.8,0.9-3.3,2.2-4.7,3.6c-1.1,1.1-2.2,3-0.8,4.4c0,0,0.1,0,0.1,0c-1.3-1.6,0.2-3.5,1.4-4.7c1.2-1.2,2.6-2.2,4.1-3.1
			c0,0,0.1,0,0.1,0l0,0C15.3,13.7,15.3,13.6,15.3,13.5L15.3,13.5z"/>
		<path class="st0" d="M30.9,29.2c0.4,0.3,0.9,0.5,1.3,0.7c-1.1-0.5-1.8-1.6-2.7-2.4c-0.9-0.8-2-1.2-3.1-1.4c-1.2-0.2-2.3,0-3.4,0.3
			c0,0,0,0-0.1,0c-3,1-5.8,3.2-7.4,5.9c0,0,0,0,0,0c1-1.3,2-2.4,3.3-3.4s2.7-1.7,4.2-2.3c0,0,0,0,0-0.1c2.1-0.7,4.7-0.4,6.4,1.1
			C30,28.2,30.4,28.7,30.9,29.2L30.9,29.2z"/>
		<path class="st0" d="M42.8,18.8L42.8,18.8C42.8,18.8,42.8,18.7,42.8,18.8L42.8,18.8L42.8,18.8c-1.1,0.4-2.2,0.9-3.3,1.3
			c-1,0.4-2,0.8-2.9,1.2c-0.1,0-0.1,0-0.1,0.1l0,0c0,0,0,0.1,0,0.1l0,0c0.2,0.3,0.6,0.6,0.9,1c0,0,0,0,0,0c-0.9,0.8-4.4,3.6-5.4,4.4
			c-0.8,0.6-2.3,1.3-3,0.1c0,0-0.1,0,0,0c0,0.1,0.1,0.1,0.1,0.2c-0.8-0.6-2-0.3-2.8,0.1c-1.1,0.7-2.2,1.5-3.2,2.3
			c-1,0.8-2,1.7-2.9,2.5c-1,0.9-2,1.9-2.8,3c0,0,0,0.1,0.1,0c0.9-0.9,1.7-1.8,2.5-2.7c0.9-0.9,1.8-1.7,2.8-2.4
			c0.9-0.8,1.9-1.5,2.9-2.1c1-0.7,2.3-1.5,3.5-0.6c0.1,0,0.1,0,0.1-0.1c0.6,0.5,1.5,0.5,2.2,0.1c0.6-0.3,1.2-0.9,1.7-1.3
			c0.6-0.5,3.8-3,4.4-3.5c0,0,0,0,0-0.1l0,0c0,0,0.1,0,0,0c-0.3-0.4-0.5-0.8-0.9-1.1c1-0.4,2-0.8,3-1.2c1-0.4,2-0.8,3-1.3
			c-0.2,1.1-0.4,2.1-0.7,3.1c-0.2,0.5-0.3,1-0.5,1.5c-0.2,0.5-0.4,0.9-0.5,1.4c-0.1-0.1-0.2-0.2-0.4-0.4c-0.2-0.2-0.3-0.3-0.5-0.5
			c0,0-0.1,0,0,0c0.1,0.2,0.3,0.3,0.4,0.5c0.1,0.1,0.3,0.3,0.4,0.5c0,0,0,0,0,0.1c0,0.1,0.1,0.1,0.1,0.1c0.6-1,0.9-2.2,1.2-3.3
			c0.3-1,0.5-2.1,0.6-3.1h0C42.9,18.9,42.9,18.8,42.8,18.8L42.8,18.8z"/>
		<path class="st0" d="M40,24.1c-1,1.3-2,2.4-3.3,3.5c-0.1,0.1-0.3,0.2-0.4,0.3c0,0,0,0,0,0c-0.1,0-0.1,0.1-0.2,0.2
			c-0.2,0.2-0.4,0.3-0.6,0.5c0,0-0.1,0.1-0.1,0.2c-1.2,0.9-2.5,1.7-4,0.9c0,0,0,0,0,0c1.8,1.2,3.7-0.3,5-1.5
			c1.4-1.1,2.7-2.5,3.8-3.9C40.2,24.1,40,24,40,24.1L40,24.1z"/>
		<path class="st0" d="M17,35.6c-0.7,0.8-1.4,1.7-2.1,2.6c-0.7,0.9-1.4,1.7-2.1,2.6c0,0,0,0.1,0.1,0c0.8-0.8,1.4-1.7,2.2-2.5
			c0.7-0.8,1.4-1.7,2.1-2.6C17.2,35.6,17.1,35.5,17,35.6z"/>
		<path class="st0" d="M31.9,11.4c-3.9,3.7-10,9.7-13.9,13.4c0,0,0,0.1,0,0.1c3.9-3.7,10.1-9.6,14-13.4C32.1,11.4,32,11.3,31.9,11.4
			L31.9,11.4z"/>
		<path class="st0" d="M39.5,7.5c-0.4,0.6-0.6,1.2-1,1.8c-0.3,0.6-0.7,1.3-1,1.9c-0.7,1.2-1.4,2.5-2,3.8c-0.3-0.2-0.5-0.4-0.8-0.5
			c0-0.1-0.1-0.1-0.1-0.1h0c0,0,0,0,0,0.1c-1.9,1.8-5.4,5.3-7.3,7.1c-1.9,1.9-3.8,3.7-5.6,5.6c0,0,0,0,0,0c1.9-1.8,3.8-3.7,5.7-5.6
			c1.9-1.9,5.5-5.2,7.3-7.1c0.3,0.2,0.7,0.5,1,0.7c0.1,0.1,0.1-0.1,0.1-0.1c0,0,0,0-0.1-0.1c0.7-1.1,1.3-2.4,2-3.6
			c0.3-0.6,0.7-1.3,1-1.9s0.7-1.2,1-1.9C39.7,7.5,39.6,7.5,39.5,7.5L39.5,7.5z"/>
		<path class="st0" d="M39.5,7.2c-1.4,0.6-2.8,1.2-4.2,1.8c-1.3,0.6-2.7,1.1-4,1.7l-0.1-0.1c-0.1-0.1-0.2,0-0.1,0.1
			c0.3,0.3,0.5,0.5,0.8,0.8c0,0,0.1,0,0.1-0.1c-0.2-0.2-0.4-0.5-0.6-0.7c1.4-0.5,2.7-1.1,4.1-1.6c1.4-0.6,2.8-1.1,4.2-1.7
			C39.7,7.3,39.6,7.2,39.5,7.2L39.5,7.2z"/>
		<path class="st0" d="M24.8,34.3c-1,1-1.9,2.1-2.9,3.2c-1,1.1-1.9,2.1-2.9,3.2c-1.9,2.1-3.9,4.2-5.8,6.4c0,0,0,0.1,0.1,0
			c2-2.1,3.9-4.2,5.8-6.3c1-1.1,1.9-2.1,2.9-3.2c1-1,2-2.1,2.9-3.2C24.9,34.3,24.8,34.3,24.8,34.3L24.8,34.3z"/>
		<path class="st0" d="M22.6,31.6c-4.1,4.4-8.2,8.8-12.2,13.3c0,0,0,0.1,0.1,0.1c4.1-4.4,8.2-8.8,12.3-13.2
			C22.8,31.6,22.6,31.5,22.6,31.6L22.6,31.6z"/>
		<path class="st0" d="M11.2,24.2c-1.2,1-2.4,2.1-3.6,3.1S5.2,29.5,4,30.5c0,0,0,0,0,0c1.2-1,2.5-2.1,3.7-3.2c1.2-1,2.4-2,3.6-3.1
			C11.4,24.3,11.3,24.2,11.2,24.2L11.2,24.2z"/>
		<path class="st0" d="M19.5,17.3c-1.2,1-2.4,1.9-3.6,2.9c0,0,0,0,0,0c1.3-0.9,2.4-1.9,3.6-2.8C19.6,17.4,19.5,17.2,19.5,17.3
			L19.5,17.3z"/>
		<path class="st0" d="M19.5,17.2c-0.2-0.3-0.5-0.6-0.8-0.8c0,0-0.1,0-0.1,0.1C18.9,16.8,19.2,17.1,19.5,17.2
			C19.5,17.3,19.5,17.3,19.5,17.2L19.5,17.2z"/>
		<path class="st0" d="M28.9,28c-1.2,0.2-2.4,0.6-3.6,1c-1.2,0.4-2.3,0.9-3.5,1.4c0,0,0,0.1,0,0.1c0.3,0.4,0.5,0.8,0.8,1.1
			c0,0,0.1,0,0.1,0c-0.2-0.4-0.4-0.7-0.7-1.1c1.1-0.5,2.2-1,3.3-1.4c1.2-0.4,2.4-0.7,3.6-1.1C29,28.1,29,28,28.9,28L28.9,28z"/>
		<path class="st0" d="M29,27.9c-0.5,1.2-1,2.5-1.6,3.7c-0.5,1.2-1.1,2.4-1.5,3.6c-0.4-0.3-0.7-0.6-1.1-0.8c0,0,0,0,0,0
			c0.3,0.3,0.8,0.6,1.1,0.9c0.1,0.1,0.2,0,0.1-0.1l0,0c0.6-1.2,1.1-2.4,1.6-3.6c0.5-1.2,1.1-2.5,1.6-3.7C29.2,27.9,29,27.8,29,27.9
			L29,27.9z"/>
		<path class="st0" d="M11.7,24.2c0,0,0-0.1-0.1-0.1l-0.1-0.1c0,0,0,0-0.1,0c-1.3-1.1-2.2-2.7-2.5-4.4c0,0-0.1,0-0.1,0
			c0.2,1.9,1.1,3.6,2.6,4.8c-2.8,2.3-5.7,4.6-8.4,7c0,0,0,0.1,0,0.1c2.9-2.3,5.8-4.6,8.7-6.9C11.8,24.3,11.8,24.3,11.7,24.2z"/>
		<path class="st0" d="M20.1,12.2c-0.5,0.8-1,1.6-1.5,2.3c-0.4,0.7-0.9,1.4-1.3,2.1c-0.1-0.1-0.2-0.3-0.3-0.5l0.2-0.1
			c0.1-0.1,0-0.3-0.1-0.2c-0.1,0-0.1,0-0.2,0.1c-0.1-0.1-0.1-0.2-0.2-0.2c0,0-0.1,0-0.1,0c0,0.1,0.1,0.2,0.1,0.3
			c-1.1,0.4-2.1,1.2-2.9,2c-0.4,0.5-0.9,1-1.2,1.5c-0.1,0.2-0.5,0.9,0.1,0.9c0.1,0,0-0.1,0-0.1c-0.4,0,0.2-0.9,0.3-1
			c0.1-0.2,0.3-0.4,0.5-0.6c0.3-0.4,0.7-0.8,1.1-1.1c0.7-0.6,1.5-1,2.3-1.4c0.1,0.2,0.2,0.4,0.3,0.6c0.1,0.2,0.3,0.1,0.2-0.1
			c0.5-0.7,1-1.5,1.5-2.2s1-1.5,1.5-2.2C20.4,12.2,20.2,12.1,20.1,12.2L20.1,12.2z"/>
		<path class="st0" d="M20.6,12c0-0.1,0-0.1,0-0.2c0,0,0-0.1,0-0.1c-1.1,0.1-2.1,0.3-3.2,0.4c-1.1,0.1-2.2,0.2-3.3,0.5
			c-0.1,0,0,0.1,0,0.1c0.1,0,0.1,0,0.2,0c0,0.1,0.1,0.3,0.2,0.4c0.1,0.1,0.1,0.3,0.2,0.4c-1.5,0.7-2.8,1.7-3.9,2.8
			c-0.6,0.6-1.2,1.3-1.6,2c-0.4,0.7-0.7,1.5-0.3,2.2c0,0,0.1,0,0.1,0c-0.3-0.9,0.2-1.8,0.7-2.5c0.5-0.6,1-1.2,1.5-1.8
			c1.2-1.1,2.5-2,3.9-2.7c0.1-0.1,0-0.3-0.1-0.2c0,0-0.1,0-0.1,0c-0.1-0.1-0.2-0.3-0.2-0.4c-0.1-0.1-0.1-0.2-0.2-0.4
			c1.1,0,2.1-0.2,3.1-0.3C18.7,12.2,19.7,12.2,20.6,12L20.6,12z"/>
		<path class="st0" d="M22.7,31.7c-0.2-0.3-0.4-0.7-0.6-1c0-0.1-0.2-0.3-0.3-0.2c-1.7,1.5-3.3,3.2-4.9,4.9c-1.6,1.7-3.1,3.5-4.5,5.4
			c0,0.1,0.1,0.1,0.1,0.1c1.5-1.8,3-3.6,4.6-5.3c1.5-1.7,3.2-3.2,4.8-4.8c0.1,0.3,0.3,0.6,0.5,0.9C22.5,32,22.8,31.9,22.7,31.7
			L22.7,31.7z"/>
		<path class="st0" d="M28.7,27.8c-1.1,0.3-2.2,0.7-3.3,1.1c-1,0.4-2.1,0.8-3,1.4c-0.1,0,0,0.1,0.1,0.1c1.1-0.4,2.1-0.9,3.1-1.3
			c1.1-0.4,2.1-0.7,3.2-1C29,28,28.8,27.7,28.7,27.8L28.7,27.8z"/>
		<path class="st0" d="M22.5,31.8c-0.5,0.5-1,1-1.5,1.6s-1,1-1.5,1.6c-1,1.1-2,2.2-3.1,3.2c-2,2.2-4.1,4.3-6.1,6.5
			c-0.1,0.1,0.1,0.2,0.1,0.1c2.1-2,4.1-4.2,6.2-6.3c1-1,2-2.1,3-3.2c0.5-0.5,1-1,1.5-1.6c0.5-0.5,1.1-1.1,1.6-1.7
			C22.9,31.9,22.7,31.7,22.5,31.8L22.5,31.8z"/>
		<path class="st0" d="M42.9,18.7c-1.1,0.4-2.2,0.9-3.3,1.3c-1,0.4-2.1,0.7-3,1.2h0c0,0-0.1,0-0.1,0l0,0c0,0,0,0-0.1,0
			c-0.1,0,0,0.1,0.1,0.1c0,0,0,0,0.1,0c0.1,0.2,0.2,0.4,0.3,0.5c0.1,0.1,0.2,0.3,0.3,0.5c0,0,0,0,0,0c-1,0.7-2,1.6-3,2.4
			c-0.9,0.7-1.8,1.6-2.8,2.1c-0.5,0.3-1.1,0.4-1.7,0.3c-0.6-0.1-1.1-0.5-1.6-0.7c-0.9-0.4-1.9-0.6-2.9-0.6c-0.9,0-1.8,0.2-2.5,0.6
			c0.7-0.6,1.3-1.3,1.9-1.9c0.9-0.9,1.8-1.8,2.7-2.6c1.7-1.7,5.8-5.5,7.5-7.2c0.1,0.1,0.1,0.1,0.2,0.2c0.2,0.2,0.3,0.3,0.5,0.5
			c0.1,0.1,0.2,0,0.2-0.1c0.8-1.2,1.5-2.6,2.2-3.9c0.7-1.3,1.4-2.7,2.1-4c0,0,0,0,0,0l0-0.1c0.1-0.2-0.2-0.3-0.3-0.1l0,0
			C39,7.3,38.3,7.7,37.6,8c-0.7,0.3-1.4,0.6-2.1,0.8s-1.4,0.6-2.1,0.9c-0.7,0.3-1.5,0.5-2.1,0.9h0c0,0-0.1,0,0,0
			c0.1,0.3,0.3,0.5,0.5,0.8c-1.9,1.8-6.1,5.8-8,7.7c-0.3,0.3-0.7,0.7-1,1c0.9-1.4,1.8-2.8,2.6-4.1l0-0.1l0,0v0
			c0-0.1,0.1-0.2,0.1-0.3c-1.1,0.1-2.3,0.2-3.4,0.3c-1.1,0.1-2.4,0.1-3.5,0.4c-0.1,0,0,0.1,0,0.1h0c0.1,0.2,0.2,0.4,0.4,0.5
			c0.1,0.1,0.2,0.3,0.3,0.4c-0.6,0.4-1.1,0.9-1.7,1.3c-0.5,0.4-1.2,0.8-1.6,1.3c0,0,0,0,0,0c-1.2-0.4-2.6-0.2-3.7,0.5
			c-0.1,0,0,0.1,0.1,0.1c1.2-0.5,2.3-0.7,3.6-0.4c0.1,0,0.2,0,0.1-0.1c0.7-0.3,1.3-0.9,1.9-1.3c0.6-0.4,1.2-0.9,1.7-1.4
			c0.1-0.1,0-0.2-0.1-0.2c-0.1-0.2-0.2-0.3-0.4-0.4c-0.1-0.1-0.3-0.3-0.4-0.4c1.1,0,2.3-0.1,3.4-0.2c1-0.1,1.9-0.2,2.9-0.2
			c-1,1.6-2.1,3.1-3,4.8c-0.1-0.1-0.2-0.3-0.3-0.4c0.1-0.1,0-0.2-0.1-0.2c0,0-0.1-0.1-0.1,0c-0.4,0.4-0.8,0.7-1.2,1.1
			c-0.2,0.2-0.4,0.4-0.6,0.6c-0.6,0.6-1.4,1.1-1.9,1.8c0,0,0,0.1,0.1,0.1v0c0,0,0,0,0.1,0l0,0c0,0.1,0.1,0.3,0.1,0.5
			c0,0.2,0.1,0.4,0.2,0.6c0,0,0,0,0,0c0,0.1-0.1,0.1-0.1,0.2c0,0,0,0.1,0.1,0.1c0.1-0.1,0.1-0.1,0.2-0.2c0.1,0,0.2,0,0.2-0.1
			c1.9-1.6,3.7-3.5,5.5-5.2c2-1.9,6.2-6,8.2-7.9c0.1-0.1,0-0.2-0.2-0.2c0,0,0,0-0.1,0c-0.1-0.2-0.3-0.4-0.5-0.5
			c0.8-0.2,1.5-0.5,2.2-0.8c0.7-0.3,1.4-0.6,2.1-0.8c0.7-0.3,1.4-0.6,2.1-0.8C38.4,8,39,7.8,39.6,7.6c-0.7,1.2-1.2,2.4-1.9,3.6
			c-0.7,1.3-1.4,2.6-2,4c-0.2-0.1-0.3-0.3-0.5-0.4c-0.1-0.1-0.1-0.1-0.2-0.2l0,0c0.1-0.1-0.1-0.3-0.2-0.2l0,0.1c0,0,0,0,0,0
			c-0.1,0-0.1,0-0.1,0.1l0,0c-1.7,1.7-5.8,5.5-7.5,7.2c-0.9,0.9-1.8,1.7-2.6,2.6c-0.8,0.8-1.7,1.6-2.5,2.5c0,0,0,0,0,0c0,0,0,0,0,0
			c0,0,0,0,0,0.1c0,0,0,0.1,0.1,0.1c0.1,0,0.1-0.1,0.2-0.1c1-0.4,2-0.7,3.1-0.7s2,0.3,3,0.7c-0.7,0.1-1.5,0.5-1.9,0.7
			c-0.6,0.3-1.2,0.6-1.8,1c-0.5,0.4-1.2,0.8-1.6,1.3c0,0,0,0.1,0.1,0.1c0.5-0.3,0.9-0.7,1.4-1c0.5-0.3,1-0.6,1.5-0.8
			c0.5-0.2,1-0.5,1.6-0.7c0.5-0.2,1.3-0.5,1.6,0.1c-0.1,0-0.3,0.1-0.4,0.1c0,0-0.1,0-0.1,0c-0.2,0.1-0.4,0.1-0.5,0.2
			c-0.1,0,0,0.1,0,0.1c0.2,0,0.4-0.1,0.6-0.1c0,0,0,0,0.1,0l0.2,0c0,0.1,0.1,0.2,0.2,0.2c-0.1,0.3-0.3,0.7-0.4,1
			c-0.1,0.2-0.2,0.4-0.3,0.6c-0.3,0.6-0.6,1.3-1,1.9c-0.6,1.2-1.2,2.3-1.7,3.5c-0.4-0.4-0.7-0.7-1.1-1c0,0-0.1,0-0.1,0.1
			c0,0,0,0.1,0.1,0.1c-0.1,0-0.2-0.1-0.2,0c-2,2.1-3.9,4.3-5.8,6.5c-1,1.1-1.9,2.1-2.9,3.2c-1,1.1-2,2.2-2.9,3.4c0,0,0,0.1,0.1,0.1
			c1.1-1,2-2.2,3-3.3c1-1.1,1.9-2.1,2.9-3.2c2-2.2,4-4.3,5.9-6.5c0,0,0-0.1,0-0.1c0.1,0.2,0.3,0.4,0.5,0.5c0.1,0.2,0.3,0.3,0.5,0.5
			v0c0,0.1,0,0.1,0.1,0.1l0,0c0.2,0.2,0.3-0.1,0.2-0.2l-0.1-0.1c0.6-1.1,1.2-2.3,1.8-3.5c0.3-0.6,0.6-1.2,0.9-1.8
			c0.3-0.6,0.6-1.1,0.9-1.8c0.5,0.6,1,1,1.6,1.4c1,0.5,2.1,0.5,3.1,0c1.1-0.6,2.1-1.5,3-2.3c1-0.9,1.9-1.8,2.7-2.8c0,0,0,0,0,0
			c0.1,0.1,0.2,0.2,0.3,0.4c0.2,0.2,0.3,0.4,0.5,0.6c0,0,0,0,0,0c0.1,0.1,0.3-0.1,0.2-0.2l0,0c0.5-0.9,0.9-1.9,1.2-2.9
			c0.2-0.5,0.3-1,0.4-1.5c0.1-0.6,0.3-1.2,0.3-1.8c0,0,0,0,0-0.1C43.2,18.9,43,18.7,42.9,18.7L42.9,18.7z M18.3,24.4
			c-0.1-0.3-0.2-0.7-0.4-1c0.6-0.4,1.2-1,1.8-1.5c0.5-0.5,1.1-1,1.6-1.4c0,0,0,0,0,0l0,0c0.1,0.2,0.2,0.4,0.3,0.5
			C20.6,22,19.4,23.2,18.3,24.4z M42.5,20.5c-0.1,0.6-0.3,1.2-0.4,1.8c-0.3,1-0.7,2-1.1,2.9c-0.1-0.1-0.3-0.3-0.4-0.4
			c-0.2-0.2-0.4-0.4-0.6-0.5c0,0-0.1,0-0.1,0.1l0,0c0,0-0.1,0-0.1,0.1c-1.5,1.8-3.2,3.5-5.1,4.7c-1.1,0.7-2.2,0.9-3.4,0.3
			c-0.7-0.4-1.2-1-1.7-1.5l0-0.1c0-0.1-0.1-0.2-0.2-0.2l0,0c0,0,0,0,0,0c0,0,0-0.1,0-0.1c0.6,0.2,1.3,0.3,2,0c1-0.5,1.9-1.3,2.7-2
			c1.1-0.9,2.3-1.7,3.3-2.7h0c0.1,0.1,0.2-0.1,0.2-0.2c-0.1-0.2-0.3-0.4-0.5-0.6c-0.1-0.1-0.2-0.3-0.3-0.4c1-0.3,2-0.8,3-1.1
			c1-0.4,2-0.8,3-1.2C42.7,19.5,42.6,20,42.5,20.5z"/>
		<path class="st0" d="M9.5,30.6c-1.2,0.2-2.4,0.5-3.5,0.7c-1.2,0.2-2.5,0.4-3.6,0.8c-0.1,0-0.1,0-0.1,0.1c0.1,0.2,0.2,0.3,0.4,0.4
			c0.1,0.1,0.1,0.2,0.2,0.2C2.9,33,3,33,3,33.1l0,0c-0.4,0.3-0.7,0.7-1.1,1c-0.4,0.4-0.8,0.7-1.2,1.1c-0.1,0,0,0.1,0.1,0.1
			c0.4-0.3,0.8-0.7,1.1-1c0.4-0.4,0.8-0.7,1.2-1.1c0.1-0.1,0-0.2-0.1-0.2c0,0,0,0,0,0c0-0.1-0.1-0.2-0.1-0.2
			c-0.1-0.1-0.1-0.2-0.2-0.2c-0.1-0.1-0.2-0.2-0.3-0.3c1.1-0.1,2.3-0.4,3.4-0.6c1.2-0.2,2.5-0.4,3.7-0.7C9.7,30.8,9.6,30.6,9.5,30.6
			L9.5,30.6z"/>
		<path class="st0" d="M9.2,30.8c-0.6,1-1.2,2.1-1.8,3.1c-0.3,0.5-0.6,1-0.9,1.5c-0.2,0.4-0.5,0.8-0.7,1.3c-0.2-0.2-0.3-0.3-0.5-0.5
			l0,0C5.4,36,5.2,35.9,5.2,36h0c0,0-0.1,0-0.1,0.1c-0.8,0.8-1.6,1.7-2.4,2.5c0,0,0,0.1,0.1,0.1c0.8-0.8,1.6-1.6,2.4-2.4
			c0.2,0.2,0.3,0.4,0.5,0.6c0,0-0.1,0.1-0.1,0.2c0,0,0,0.1,0.1,0c0,0,0.1-0.1,0.1-0.1c0,0,0.1,0,0.1,0.1c0.1,0.1,0.2,0,0.1-0.1
			c0,0-0.1-0.1-0.1-0.1c0.3-0.4,0.5-0.8,0.8-1.3c0.3-0.5,0.6-1,0.9-1.6c0.6-1,1.2-2,1.8-3C9.5,30.7,9.3,30.6,9.2,30.8L9.2,30.8z"/>
		<path class="st0" d="M15.8,32.6c0.1-0.1,0-0.2-0.1-0.2c-2,1-3.9,2-5.9,3.1l0,0c0,0-0.1,0-0.1,0c0.1,0.2,0.1,0.5,0.2,0.7
			c0,0-0.1,0-0.1,0c-1.7,1.4-3.4,2.9-5,4.4c-0.1,0.1,0,0.2,0.1,0.1c1.7-1.4,3.5-2.8,5.1-4.4c0,0,0,0,0,0c0,0,0.1,0.1,0.1,0.2
			c0,0.1,0.2,0.1,0.2,0c-0.1-0.3-0.2-0.6-0.4-0.8l0,0c1.9-0.9,3.8-1.9,5.7-2.9l0,0c-0.7,1.1-1.3,2.3-1.9,3.5
			c-0.7,1.2-1.4,2.4-1.9,3.6c-0.1-0.2-0.1-0.4-0.2-0.6l0.1-0.1c0.1-0.1-0.1-0.3-0.2-0.2l0,0c0-0.1-0.1-0.1-0.1-0.2c0,0-0.1,0-0.1,0
			c0,0.1,0.1,0.2,0.1,0.3c-1.4,1.4-2.9,2.8-4.2,4.3c0,0,0,0.1,0.1,0.1c1.5-1.3,2.9-2.7,4.3-4.1c0.1,0.2,0.1,0.4,0.2,0.7
			c0,0.1,0.2,0.1,0.2,0c0,0,0,0,0-0.1c0.8-1.1,1.4-2.3,2-3.5c0.7-1.2,1.4-2.4,2.1-3.7C15.8,32.7,15.8,32.7,15.8,32.6L15.8,32.6z"/>
		<path class="st0" d="M9.7,17.7c-1.1-0.6-2.3-1.2-3.5-1.8c-1.2-0.6-2.3-1.2-3.5-1.7c-0.1,0-0.1,0.1,0,0.1c1.1,0.6,2.3,1.2,3.5,1.8
			c1.2,0.6,2.3,1.3,3.5,1.8C9.8,18,9.9,17.8,9.7,17.7L9.7,17.7z"/>
		<path class="st0" d="M41.4,33.3c-2.5-1.9-5.2-3.5-8-5c-2.8-1.5-5.7-2.9-8.6-4c-0.1,0-0.1,0.1,0,0.1c2.8,1.3,5.7,2.6,8.4,4.1
			c2.8,1.5,5.4,3.3,8,5C41.3,33.7,41.6,33.4,41.4,33.3L41.4,33.3z"/>
		<path class="st0" d="M20.2,0.9c-1.5,1.1-2.8,2.3-4.2,3.4c-1.4,1.1-2.8,2.3-4.2,3.4C8.9,10,6,12.2,3.3,14.5c-0.1,0.1,0,0.2,0.1,0.1
			c2.9-2.2,5.7-4.5,8.5-6.7c1.4-1.1,2.8-2.3,4.2-3.4c1.4-1.1,2.9-2.2,4.2-3.4C20.5,1,20.3,0.8,20.2,0.9L20.2,0.9z"/>
		<path class="st0" d="M14.9,19.8c-0.3-0.2-0.6-0.3-0.9-0.4c-0.3-0.1-0.6-0.2-0.9-0.3c-0.1,0-0.1,0.1,0,0.1c0.3,0.2,0.6,0.3,0.9,0.5
			c0.3,0.1,0.6,0.3,0.9,0.4C15.1,20,15.1,19.8,14.9,19.8L14.9,19.8z"/>
		<path class="st0" d="M20,22.6c-0.2-0.2-0.6-0.3-0.8-0.4c0,0-0.1,0,0,0.1c0.2,0.2,0.5,0.4,0.8,0.5C20.1,22.8,20.2,22.7,20,22.6
			L20,22.6z"/>
		<path class="st0" d="M3.5,14.2C3.2,14.5,3,14.7,2.7,15c0,0,0,0.1,0,0.1c0.3-0.2,0.6-0.4,0.8-0.6C3.7,14.3,3.5,14.2,3.5,14.2
			L3.5,14.2z"/>
		<path class="st0" d="M15.5,4.8c-0.1-0.1-0.2-0.1-0.3-0.1S15,4.6,14.9,4.6c-0.1,0-0.1,0.1,0,0.1C15,4.7,15,4.8,15.1,4.8
			c0.1,0.1,0.2,0.1,0.3,0.1C15.5,5,15.5,4.9,15.5,4.8L15.5,4.8z"/>
		<path class="st0" d="M12.2,7.7c-0.1-0.1-0.3-0.2-0.4-0.3c-0.1,0-0.1,0-0.1,0.1C11.8,7.6,12,7.7,12.2,7.7
			C12.2,7.8,12.3,7.7,12.2,7.7L12.2,7.7z"/>
		<path class="st0" d="M9.3,9.8C9.1,9.8,8.9,9.7,8.7,9.6c-0.1,0-0.1,0.1,0,0.1C8.8,9.8,9,9.9,9.2,10C9.3,10,9.4,9.9,9.3,9.8L9.3,9.8
			z"/>
		<path class="st0" d="M5.9,12.5c-0.2-0.1-0.4-0.3-0.6-0.4c-0.1,0-0.1,0.1-0.1,0.1c0.2,0.1,0.4,0.3,0.6,0.4C6,12.7,6,12.5,5.9,12.5z
			"/>
		<path class="st0" d="M7.8,16.3c-0.1,0.1-0.2,0.1-0.3,0.2c-0.1,0.1-0.2,0.2-0.3,0.2c-0.1,0.1,0.1,0.2,0.1,0.1
			c0.1-0.1,0.2-0.2,0.2-0.2C7.8,16.5,7.8,16.4,7.8,16.3C7.9,16.3,7.9,16.2,7.8,16.3L7.8,16.3z"/>
		<path class="st0" d="M14.1,19.1c-0.1,0-0.1,0.1-0.2,0.2c-0.1,0.1-0.1,0.1-0.2,0.2c-0.1,0.1,0.1,0.2,0.1,0.1
			c0.1-0.1,0.1-0.1,0.2-0.2C14.1,19.4,14.2,19.3,14.1,19.1C14.2,19.1,14.2,19.1,14.1,19.1L14.1,19.1z"/>
		<path class="st0" d="M27.3,24.8c-0.1,0-0.1,0.1-0.2,0.2c-0.1,0.1-0.1,0.1-0.2,0.2c0,0.1,0,0.2,0.1,0.1c0.1-0.1,0.1-0.1,0.2-0.2
			C27.2,25,27.3,24.9,27.3,24.8C27.4,24.8,27.3,24.8,27.3,24.8z"/>
		<path class="st0" d="M30.7,26.4C30.7,26.4,30.7,26.4,30.7,26.4c-0.1,0.1-0.1,0.1-0.1,0.1c0,0.1-0.1,0.1-0.1,0.2
			c0,0.1,0.1,0.2,0.2,0.1c0,0,0.1-0.1,0.1-0.2c0,0,0-0.1,0-0.1C30.8,26.5,30.8,26.4,30.7,26.4C30.8,26.3,30.7,26.3,30.7,26.4
			L30.7,26.4z"/>
		<path class="st0" d="M34,27.9c-0.2,0.1-0.4,0.3-0.6,0.4c-0.1,0.1,0,0.2,0.1,0.1C33.7,28.3,33.9,28.1,34,27.9
			C34.1,27.9,34,27.9,34,27.9z"/>
		<path class="st0" d="M38.2,29.9c-0.2,0.2-0.5,0.4-0.7,0.6c-0.1,0.1,0.1,0.2,0.2,0.1c0.2-0.2,0.4-0.4,0.6-0.6
			C38.4,29.9,38.2,29.8,38.2,29.9L38.2,29.9z"/>
		<path class="st0" d="M41.4,32.3c-0.3,0.2-0.5,0.5-0.7,0.8c-0.1,0.1,0.1,0.2,0.2,0.1C41,32.9,41.2,32.6,41.4,32.3
			C41.5,32.3,41.4,32.2,41.4,32.3z"/>
		<path class="st0" d="M42.2,33.7c0-0.1-0.2-0.2-0.3-0.2c0,0-0.1,0-0.1,0c-0.1,0-0.2,0.2-0.2,0.3c0,0.2,0.3,0.3,0.5,0.2
			C42.3,33.9,42.3,33.8,42.2,33.7L42.2,33.7z"/>
		<path class="st0" d="M11.6,15.4c-1.7-1.1-3.5-2-5.3-3c0,0,0,0,0,0C8,13.5,9.8,14.6,11.6,15.4C11.6,15.5,11.7,15.4,11.6,15.4z"/>
		<path class="st0" d="M17.3,18.4c-0.7-0.4-1.4-0.7-2.1-1.1c0,0-0.1,0,0,0C15.8,17.8,16.5,18.2,17.3,18.4
			C17.3,18.6,17.3,18.5,17.3,18.4L17.3,18.4z"/>
		<path class="st0" d="M33.3,25.2c-1-0.5-2.1-1-3.2-1.5c-1-0.5-2.1-1-3.2-1.5c0,0,0,0,0,0c1,0.5,2.1,1,3.2,1.5
			C31.2,24.3,32.2,24.8,33.3,25.2C33.4,25.3,33.4,25.2,33.3,25.2z"/>
		<path class="st0" d="M43.3,30.9c-2.4-1.6-6.1-3.9-8.8-5c0,0,0,0,0,0c2.6,1.1,6.4,3.4,8.7,5C43.3,31,43.4,30.9,43.3,30.9z"/>
		<path class="st0" d="M14.6,12.4c-1.6-0.8-3.2-1.6-4.8-2.4c0,0-0.1,0,0,0c1.6,0.8,3.2,1.7,4.8,2.5C14.6,12.5,14.7,12.4,14.6,12.4z"
			/>
		<path class="st0" d="M21.6,15.9c-0.9-0.5-1.7-0.9-2.6-1.4c0,0,0,0,0,0c0.8,0.5,1.7,1,2.6,1.4C21.6,16.1,21.7,15.9,21.6,15.9z"/>
		<path class="st0" d="M25.2,17.6c-0.3-0.1-0.5-0.3-0.8-0.4c0,0,0,0,0,0C24.6,17.4,24.9,17.5,25.2,17.6
			C25.2,17.7,25.3,17.6,25.2,17.6L25.2,17.6z"/>
		<path class="st0" d="M46.6,29.2c-4.1-3.2-12.5-7.5-17.3-9.4c0,0,0,0,0,0c4.9,2,13,6.3,17.2,9.5C46.6,29.4,46.7,29.3,46.6,29.2
			L46.6,29.2z"/>
		<path class="st0" d="M28.1,14.7c-2.5-1.3-5.1-2.3-7.6-3.5s-5-2.4-7.6-3.4c0,0,0,0,0,0c2.5,1.3,5.1,2.4,7.6,3.5
			S25.5,13.8,28.1,14.7C28.1,14.9,28.2,14.8,28.1,14.7z"/>
		<path class="st0" d="M49.7,25.5c-2.2-1.3-8-4-10.2-5.2c-2.3-1.2-4.5-2.4-6.8-3.6c0,0,0,0,0,0c2.2,1.2,4.5,2.5,6.8,3.7
			C41.7,21.7,47.3,24.6,49.7,25.5C49.7,25.7,49.7,25.6,49.7,25.5z"/>
		<path class="st0" d="M31,11.4c-5-2.1-10-4.2-15-6.3c0,0-0.1,0,0,0.1c5,2.1,10,4.2,15,6.3C31.1,11.6,31.1,11.5,31,11.4z"/>
		<path class="st0" d="M53.3,20.8c-4-1.7-12.4-5.1-16.5-6.8c0,0,0,0,0,0c4,1.7,12.4,5.2,16.4,6.9C53.4,20.9,53.4,20.8,53.3,20.8
			L53.3,20.8z"/>
		<path class="st0" d="M34.4,8c-2.3-0.8-4.6-1.7-6.9-2.5c-2.8-1-5.6-2.1-8.4-3c0,0,0,0,0,0c2.8,1.1,5.6,2.1,8.4,3.1
			c2.2,0.8,4.3,1.6,6.5,2.4C34.2,8.1,34.3,8.1,34.4,8z"/>
		<path class="st0" d="M51.3,14.8c-4-1.8-8-3.5-12-5.3c0,0,0,0,0,0.1c4,1.8,12.9,5.8,16.9,7.6C56.3,17.2,51.4,14.9,51.3,14.8
			L51.3,14.8z"/>
		<path class="st0" d="M24,2.5c-2.6,2.2-5.2,4.4-7.8,6.5s-5.3,4.3-7.8,6.6c0,0,0,0.1,0,0.1c2.7-2.1,5.3-4.3,7.9-6.5s5.2-4.4,7.8-6.6
			C24.1,2.6,24,2.5,24,2.5L24,2.5z"/>
		<path class="st0" d="M27.8,4.7C25.5,6.8,23.3,9,21,11.3c0,0,0,0.1,0.1,0.1c2.3-2.2,4.6-4.3,6.8-6.5C28,4.7,27.9,4.6,27.8,4.7z"/>
		<path class="st0" d="M31.8,6c-2.6,2.8-5.2,5.6-7.7,8.5c0,0,0,0.1,0,0C26.8,11.8,29.3,8.9,31.8,6C32,6,31.9,5.9,31.8,6L31.8,6z"/>
		<path class="st0" d="M41.6,9.5c-4.6,4.9-9.2,9.8-13.8,14.8c0,0,0,0.1,0.1,0C32.5,19.5,37,14.5,41.6,9.5
			C41.7,9.5,41.6,9.4,41.6,9.5L41.6,9.5z"/>
		<path class="st0" d="M45.6,10.8c-4.9,4.6-9.4,9.4-13.7,14.6c0,0,0,0.1,0.1,0.1c4.3-5.1,8.9-9.9,13.8-14.5
			C45.9,10.8,45.7,10.7,45.6,10.8L45.6,10.8z"/>
		<path class="st0" d="M35.3,27C35.3,27,35.2,27,35.3,27C35.3,27,35.3,27,35.3,27z"/>
		<path class="st0" d="M49.2,11.6c-1,1.3-2.2,2.5-3.3,3.7s-2.2,2.5-3.3,3.7c-2.2,2.5-4.4,4.9-6.7,7.4c0,0,0,0.1,0,0
			c2.2-2.5,4.5-4.9,6.7-7.3c1.1-1.2,2.2-2.4,3.3-3.6c1.1-1.2,2.2-2.6,3.4-3.7C49.4,11.6,49.3,11.5,49.2,11.6L49.2,11.6z"/>
		<path class="st0" d="M51.8,13.6c-1.1,1.2-2,2.5-3,3.7c-1,1.2-2,2.5-3,3.7c-2,2.5-4,5-5.9,7.5c0,0,0,0.1,0.1,0c2-2.5,4-5,6-7.4
			c1-1.2,1.9-2.4,2.9-3.6c1-1.3,2.1-2.5,3-3.8C52,13.6,51.8,13.5,51.8,13.6L51.8,13.6z"/>
		<path class="st0" d="M56.5,14.6c-2.3,2.9-4.5,5.7-6.8,8.6c-2.3,2.9-4.6,5.6-6.8,8.6c0,0,0,0.1,0.1,0c2.4-2.8,4.6-5.7,6.8-8.5
			c2.3-2.9,4.5-5.7,6.8-8.6C56.7,14.6,56.6,14.5,56.5,14.6z"/>
	</g>
	<path class="st0" d="M33.6,3.8L33.6,3.8C33.6,3.8,33.5,3.8,33.6,3.8c0.6,0.5,0.8,1.2,0.7,1.9c-0.1,0.1-0.2,0.1-0.2,0.2
		c-0.1,0,0,0.2,0.1,0.1c0,0,0.1,0,0.1-0.1c0,0,0,0,0,0c0,0.1,0.1,0.1,0.1,0.1c0-0.1,0.1-0.2,0.1-0.2C35.1,5.1,34.7,3.9,33.6,3.8
		L33.6,3.8z M33.7,3.9c0.8,0.2,1.1,1,0.7,1.6C34.5,4.9,34.2,4.3,33.7,3.9z"/>
	<path class="st0" d="M45.9,7.6c0,0.1,0.1,0,0.1-0.1c-0.5-1.1-2-1.2-2.7-0.2c0,0.1,0,0.1,0.1,0.1c0,0,0-0.1,0.1-0.1c0,0,0,0,0,0
		c0.9-0.3,1.7-0.1,2.4,0.5C45.9,7.8,46,7.7,45.9,7.6c-0.6-0.5-1.5-0.7-2.4-0.4C44.3,6.4,45.4,6.6,45.9,7.6L45.9,7.6z"/>
	<path class="st0" d="M37.2,3.6C37.2,3.6,37.2,3.6,37.2,3.6c0.4,0.6,0.3,1.2,0,1.8c0,0,0,0.1,0.1,0.1C37.7,4.9,37.6,4.1,37.2,3.6z"
		/>
	<path class="st0" d="M37.2,3.4C37.2,3.4,37.1,3.4,37.2,3.4c0.5,0.6,0.5,1.4,0.1,2.1c0,0.1,0.1,0.2,0.1,0.1
		C37.9,4.9,37.8,4,37.2,3.4L37.2,3.4z"/>
	<path class="st0" d="M35.5,3.5c0,0,0-0.1,0-0.1c0,0,0,0-0.1,0c0,0,0,0,0,0C35.5,3.5,35.5,3.5,35.5,3.5C36,4.9,35.8,6.4,35,7.7
		c0,0.1,0.1,0.1,0.1,0.1c0.7-1.1,0.9-2.6,0.5-3.9c0.6,1.4,0.3,2.9-0.7,4.1C34.9,8,35,8.1,35.1,8C36.2,6.9,36.4,4.9,35.5,3.5z"/>
	<path class="st0" d="M45.1,8.5c-1.2-0.4-2.5-0.2-3.6,0.5c0,0,0,0.1,0,0.1c1-0.7,2.1-0.9,3.2-0.6c-1.1-0.1-2.3,0.2-3.4,0.7
		c0,0,0,0.1,0,0.1c1.1-0.4,2.2-0.6,3.4-0.6c0.1,0,0.1-0.1,0-0.1c0.1,0,0.1,0,0.2,0.1S45.2,8.5,45.1,8.5z"/>
	<path class="st0" d="M39.8,4.2C39.8,4.2,39.8,4.3,39.8,4.2L39.8,4.2c-0.8,0.9-1.5,1.6-2.2,2.4c0,0,0,0.1,0,0
		c0.6-0.6,1.2-1.3,1.8-1.9c-0.5,0.7-1,1.3-1.7,1.9c0,0,0,0.1,0,0.1c0.9-0.5,1.7-1.4,2.1-2.4l0,0C39.9,4.3,39.9,4.2,39.8,4.2z"/>
	<path class="st0" d="M43.3,6.1C43.3,6.1,43.2,6.1,43.3,6.1c-0.1,0-0.1,0-0.1,0c-1.1,0-2,0.6-2.6,1.5c0,0,0,0.1,0,0.1
		c0.5-0.7,1.2-1.2,2.1-1.3c-0.8,0.3-1.6,0.8-2.1,1.5c0,0,0,0.1,0,0c0.8-0.8,1.7-1.3,2.7-1.6C43.4,6.2,43.3,6.1,43.3,6.1L43.3,6.1z"
		/>
	<path class="st0" d="M33.3,6.8c0.1-1-0.6-2-1.6-2.3c0,0-0.1,0,0,0.1c0.7,0.4,1.1,0.9,1.3,1.6c-0.3-0.5-0.7-1-1.2-1.4
		c0,0-0.1,0,0,0.1c0.6,0.6,1,1.2,1.3,1.9c0,0.1,0,0.1,0,0.2c0,0.1,0.1,0.1,0.1,0C33.3,6.9,33.3,6.9,33.3,6.8
		C33.3,6.8,33.3,6.8,33.3,6.8L33.3,6.8z"/>
	<path class="st0" d="M37.3,1.6C37.3,1.6,37.3,1.7,37.3,1.6c0.8,0.7,1.2,1.8,1,2.8c0,0.1,0.1,0.1,0.1,0C38.6,3.4,38.2,2.3,37.3,1.6z
		"/>
	<path class="st0" d="M38.4,4.8c-0.3-1.1-0.7-2.2-1.3-3.2c0,0-0.1,0,0,0c0.6,1,1,2,1.3,3.1C38.3,4.9,38.4,4.9,38.4,4.8z"/>
	<path class="st0" d="M36.6,4.8c0.1-1-0.2-1.9-0.8-2.6c0,0-0.1,0,0,0c0.5,0.7,0.8,1.4,0.8,2.3C36.3,3.8,36,3,35.7,2.3
		c0,0-0.1,0-0.1,0c0.3,0.9,0.5,1.7,0.9,2.6c0,0,0,0,0,0v0C36.5,5,36.7,5,36.6,4.8L36.6,4.8L36.6,4.8z"/>
	<path class="st0" d="M19.4,0.2C13.7,4.7,7.9,9.1,2.3,13.7c0,0,0,0.1,0,0.1C8.1,9.4,13.8,4.8,19.5,0.4C19.6,0.3,19.5,0.2,19.4,0.2z"
		/>
	<path class="st0" d="M9.1,19.1c-2.2-1.3-4.4-2.6-6.5-3.9c0,0,0,0,0,0.1c2.2,1.3,4.3,2.7,6.5,4C9.1,19.3,9.2,19.1,9.1,19.1L9.1,19.1
		z"/>
</g>
</svg>
