<?xml version="1.0" encoding="utf-8"?>
<!-- Generator: Adobe Illustrator 26.2.1, SVG Export Plug-In . SVG Version: 6.00 Build 0)  -->
<svg version="1.1" id="Layer_1" xmlns="http://www.w3.org/2000/svg" xmlns:xlink="http://www.w3.org/1999/xlink" x="0px" y="0px"
	 viewBox="0 0 143.7 110.7" style="enable-background:new 0 0 143.7 110.7;" xml:space="preserve">
<style type="text/css">
	.st0{fill:#FFFFFF;}
	.st1{fill:#010101;}
	.st2{fill:#BA8760;}
	.st3{opacity:0.1294;}
	.st4{fill:#0C1215;}
</style>
<g>
	<g>
		<path class="st0" d="M100.1,62c0.4-3.6-2.1-6.9-4.3-9.8c-2.5-3.3-4.9-6.7-6.1-10.7c-2.2-7.2,0.2-15.6,5.8-20.7
			c5.6-5.1,14.2-6.6,21.2-3.9c2.7,1,5.2,2.6,7,4.9c2.1,2.7,3,6.1,3.6,9.4c0.7,3.6,1,7.4-0.2,10.7c-1,2.8-3.1,5.1-4.9,7.4
			c-2.8,3.6-5.2,7.5-7,11.6c-0.2,0.4-0.3,0.8-0.6,1c-0.4,0.4-1.1,0.5-1.7,0.5C108.4,62.9,104.1,62.6,100.1,62z"/>
	</g>
	<g>
		<path class="st1" d="M10.9,100.9c-0.1,0-0.2-0.1-0.2-0.2l-2.8-7.4c0-0.1,0-0.3,0.1-0.3c0.1,0,0.3,0,0.3,0.1l2.8,7.4
			C11.1,100.7,11.1,100.8,10.9,100.9C10.9,100.9,10.9,100.9,10.9,100.9z"/>
	</g>
	<g>
		<path class="st1" d="M15.2,104.4c-0.1,0-0.2-0.1-0.2-0.2l-2.7-6.7c-0.1-0.1,0-0.3,0.1-0.3c0.1-0.1,0.3,0,0.3,0.1l2.7,6.7
			C15.5,104.2,15.4,104.3,15.2,104.4C15.3,104.4,15.2,104.4,15.2,104.4z"/>
	</g>
	<g>
		<path class="st1" d="M17.5,104c-0.1,0-0.2-0.1-0.2-0.1l-1.2-2.5c-0.1-0.1,0-0.3,0.1-0.3c0.1-0.1,0.3,0,0.3,0.1l1.2,2.5
			c0.1,0.1,0,0.3-0.1,0.3C17.6,104,17.6,104,17.5,104z"/>
	</g>
	<g>
		<path class="st1" d="M32.3,81.7c-0.1,0-0.2-0.1-0.2-0.2c-1.3-3.8-2.1-7.7-2.5-11.6c0-0.1,0.1-0.3,0.2-0.3c0.1,0,0.3,0.1,0.3,0.2
			c0.4,3.9,1.3,7.8,2.5,11.5C32.6,81.5,32.5,81.6,32.3,81.7C32.3,81.7,32.3,81.7,32.3,81.7z"/>
	</g>
	<g>
		<path class="st1" d="M35.8,81.8c-0.1,0-0.2-0.1-0.2-0.2c-1-2.4-1.6-5-1.8-7.6c0-0.1,0.1-0.3,0.2-0.3c0.1,0,0.3,0.1,0.3,0.2
			c0.2,2.6,0.8,5,1.7,7.4C36.1,81.5,36.1,81.7,35.8,81.8C35.9,81.8,35.9,81.8,35.8,81.8z"/>
	</g>
	<g>
		<path class="st1" d="M39.7,82.7c-0.1,0-0.2-0.1-0.2-0.2L38,78.3c0-0.1,0-0.3,0.2-0.3c0.1,0,0.3,0,0.3,0.2l1.5,4.2
			C40,82.5,39.9,82.7,39.7,82.7C39.8,82.7,39.8,82.7,39.7,82.7z"/>
	</g>
	<g>
		<path class="st1" d="M77,65.5c-0.1,0-0.2-0.1-0.2-0.2C76.1,63,75.8,60.5,76,58c0-0.1,0.1-0.3,0.3-0.2c0.1,0,0.2,0.1,0.2,0.3
			c-0.1,2.4,0.2,4.9,0.8,7.2C77.3,65.4,77.2,65.5,77,65.5C77,65.5,77,65.5,77,65.5z"/>
	</g>
	<g>
		<path class="st1" d="M80.9,66.1c-0.1,0-0.2-0.1-0.2-0.2c-0.6-1.7-1-3.5-1.2-5.3c0-0.1,0.1-0.3,0.2-0.3c0.1,0,0.3,0.1,0.3,0.2
			c0.2,1.8,0.6,3.5,1.2,5.2C81.2,65.9,81.2,66,80.9,66.1C81,66.1,81,66.1,80.9,66.1z"/>
	</g>
	<g>
		<path class="st1" d="M84.3,66.2c-0.1,0-0.2-0.1-0.2-0.2l-1-3.3c0-0.1,0-0.3,0.2-0.3c0.1,0,0.3,0,0.3,0.2l1,3.3
			C84.6,66,84.5,66.2,84.3,66.2C84.3,66.2,84.3,66.2,84.3,66.2z"/>
	</g>
	<g>
		<path class="st1" d="M131.3,102.8c-0.1,0-0.1,0-0.2-0.1c-0.1-0.1-0.1-0.3,0-0.4c2.4-2.7,4.2-6,5.1-9.4c0-0.1,0.2-0.2,0.3-0.2
			c0.1,0,0.2,0.2,0.2,0.3c-1,3.5-2.8,6.9-5.2,9.6C131.4,102.8,131.4,102.8,131.3,102.8z"/>
	</g>
	<g>
		<path class="st1" d="M127.4,102.7c-0.1,0-0.1,0-0.2-0.1c-0.1-0.1-0.1-0.3,0-0.4c1.6-1.7,2.9-3.7,3.9-5.8c0.1-0.1,0.2-0.2,0.3-0.1
			c0.1,0.1,0.2,0.2,0.1,0.3c-1,2.2-2.4,4.2-4,5.9C127.5,102.7,127.4,102.7,127.4,102.7z"/>
	</g>
	<g>
		<path class="st1" d="M123.1,103.3c0,0-0.1,0-0.1,0c-0.1-0.1-0.2-0.2-0.1-0.3l2.5-4c0.1-0.1,0.2-0.2,0.3-0.1
			c0.1,0.1,0.2,0.2,0.1,0.3l-2.5,4C123.3,103.3,123.2,103.3,123.1,103.3z"/>
	</g>
	<g>
		<path class="st2" d="M99.6,62.4c5.5,0.5,11.1,0.4,16.7-0.2c0.4,4.7,0.7,9.5-0.5,14c-0.6,2.2-1.7,4.5-3.7,5.6c-2.4,1.3-5.3,0.7-8,0
			c-1-0.3-2.1-0.6-2.9-1.2c-1.7-1.4-1.8-3.8-1.8-6C99.5,70.4,99.5,66.2,99.6,62.4z"/>
	</g>
	<g>
		<g class="st3">
			<path class="st1" d="M128.7,33.8c-0.4-0.5-1.3-0.3-1.6,0.2c-0.2,0.6-0.1,0.3-0.2,1.1c0,0.1,0,0.2,0,0.3c-0.1,0.3-0.3,1.4-0.3,1.6
				c0.1-0.3,0.1-0.3,0,0c-0.7,2.1-0.9,2.7-1.8,4.3c-0.2,0.5-0.7,1.6-1.6,2.7c-1,1.5-3.9,4.2-5.6,6.6c-0.5,0.7-1.6,2.2-1.7,2.5
				c0,0,0,0,0,0c-0.6,0.8-1.2,1.6-1.7,2.5c-0.9,1.8-0.8,1.8-1.4,3.1c-0.3,0.9-0.9,2-0.8,2.9c0,0.1,0,0.1,0,0.2
				c-0.3,0.5-0.4,1.2-0.2,1.9c0.6,1.8,0.6,3.9,0.5,7.2c-0.1,3.4,0.1,4-0.8,7.1c-0.5,1.5-0.1,0.6-0.9,2c-0.2,0.4-0.4,0.7-0.4,1.1
				c-0.3,1.8,2.1,2.7,3.2,1.3c1.5-1.7,2.2-3.9,2.7-6.1c0.4-2.8,0.5-5.3,1-8.3c0.2-1.3,0.1-2.7,0-4c-0.1-0.8-0.1-1.8-0.7-2.5
				c0,0,0,0,0,0c-0.2,0-0.3,0-0.5,0.1c-0.3,0-0.5,0.1-0.8,0.1c1.1-3.9,2.1-6.1,4.2-9c1.4-1.7,2.9-3.3,4.4-4.9
				c1.4-1.5,2.6-3.1,3.5-4.9c0.5-1.2,0.4-1.1,0.8-2c0.1-0.1,0,0-0.1,0.2c0.2-0.4,0.4-0.9,0.5-1.3c0.3-0.7,0.4-1.4,0.5-2.2
				c0,0,0,0,0,0C128.9,36.1,129.4,34.6,128.7,33.8z"/>
		</g>
		<g class="st3">
			<path class="st1" d="M112.6,59.1c0-0.1,0.1-0.2,0.1-0.3c0,0,0-0.1,0-0.1C112.7,58.8,112.6,59,112.6,59.1z"/>
		</g>
	</g>
	<g class="st3">
	</g>
	<g>
		<path class="st4" d="M108.5,83.7c-0.8,0-1.5-0.1-2-0.1c-1.7-0.3-5.9-1.2-7.3-4.7c-0.5-1.3-0.5-2.6-0.5-3.8l-0.2-12.8
			c0-0.2,0.1-0.4,0.2-0.6c0.2-0.1,0.4-0.2,0.6-0.2c3.2,0.4,13.9,0.4,16.8,0.1c0.2,0,0.4,0,0.6,0.2c0.2,0.1,0.3,0.3,0.3,0.5
			c0.4,4.9,0.3,8.8-0.4,14c-0.2,1.6-0.6,3.5-1.7,4.9C113.2,83.2,110.6,83.7,108.5,83.7z M100.1,62.9l0.2,12c0,1.1,0,2.3,0.4,3.3
			c1.1,2.8,4.6,3.6,6.1,3.8c3.1,0.4,5.7-0.3,6.9-1.9c0.9-1.1,1.2-2.7,1.4-4.2c0.7-4.9,0.9-8.5,0.5-12.9
			C112.1,63.3,103.8,63.2,100.1,62.9z"/>
	</g>
	<g>
		<path class="st1" d="M115.2,62.9c0,0-0.1,0-0.1,0c-0.4-0.1-0.7-0.4-0.6-0.9c0.7-4.7,3.8-8.5,6.7-12.1c2.8-3.5,5.5-6.7,6.4-10.8
			c0.4-1.7,0.5-7.1-1.4-12c-1.2-3.3-3-5.8-5.2-7.4c-4.1-3-11.3-5-16.8-3.3c-5.3,1.7-9.6,4.8-12.2,8.7c-2.3,3.6-3.3,8.1-2.7,12.7
			c0.5,4.3,2.3,8.4,5.3,12.1c0.4,0.5,0.8,1,1.3,1.5c0.9,1,1.8,2.1,2.6,3.3c1.4,2.2,2.1,4.7,2.2,7.2c0,0.4-0.3,0.8-0.7,0.8
			c-0.4,0-0.8-0.3-0.8-0.7c-0.1-2.3-0.8-4.5-2-6.4c-0.7-1.1-1.5-2.1-2.4-3.1c-0.4-0.5-0.9-1-1.3-1.5c-3.1-3.8-5.1-8.3-5.6-12.8
			c-0.6-4.9,0.5-9.8,3-13.7c2.7-4.2,7.3-7.6,13-9.4c6-1.9,13.7,0.3,18.1,3.5c2.4,1.7,4.4,4.5,5.7,8.1c1.8,4.8,1.9,10.4,1.4,12.9
			c-0.9,4.4-3.8,8-6.7,11.4c-3,3.6-5.8,7-6.4,11.3C115.9,62.6,115.6,62.9,115.2,62.9z"/>
	</g>
	<g>
		<path class="st1" d="M110.6,62.7c-0.4,0-0.8-0.3-0.8-0.8v-0.1c0-4.4,0.1-9,0.4-13.7c0.1-1.9,0.3-3.7,0.7-5.4
			c-1.2-0.4-2.3-1.1-3.1-2.2c0,0,0,0,0,0c-0.1,0.2-0.2,0.3-0.2,0.5c-1.1,2-2.3,3-3.8,3.1c-0.3,0-0.5,0-0.7,0
			c0.3,1.1,0.5,2.2,0.7,3.2c0.9,4.7,1.4,9.6,1.3,14.4c0,0.4-0.3,0.7-0.8,0.8c-0.4,0-0.8-0.4-0.8-0.8c0.1-4.7-0.4-9.5-1.3-14.1
			c-0.3-1.3-0.6-2.7-1-4c-0.1-0.1-0.3-0.1-0.4-0.2c-1.8-0.9-4.1-2.2-5.4-4.3c-0.6-1-0.7-2-0.2-2.7c0.5-0.7,1.5-1,2.5-0.7
			c0.7,0.3,1.3,0.8,1.7,1.3c1.4,1.6,2.3,3.5,3,5.5c0.4,0.1,0.7,0.2,1.1,0.2c0.9-0.1,1.8-0.9,2.6-2.4c0.2-0.4,0.4-0.8,0.6-1.2
			c-0.7-1.3-1.1-3-1.2-5c-0.1-1.6-0.1-3.9,1.1-5.7c0.5-0.7,1.1-1,1.7-0.8c0.5,0.1,0.7,0.5,0.9,0.7c1.1,1.8,0.9,4,0.7,5.4
			c-0.3,1.8-0.8,3.6-1.5,5.3c0.1,0.2,0.3,0.5,0.5,0.7c0.6,0.7,1.5,1.4,2.4,1.7c0.8-2.1,2.3-3.9,4.1-5.2c0.2-0.2,0.8-0.6,1.5-0.5
			c0.5,0.1,0.9,0.3,1.1,0.8c0.4,0.8,0.2,1.8-0.1,2.6c-0.9,1.9-2.2,3.2-3.6,3.7c-0.6,0.2-1.3,0.3-2,0.3c-0.5,1.6-0.6,3.3-0.7,5.2
			c-0.3,4.6-0.4,9.2-0.4,13.6v0.1C111.4,62.3,111.1,62.7,110.6,62.7z M97.1,37.1c-0.2,0-0.4,0.1-0.4,0.2c-0.1,0.2,0,0.6,0.2,1.1
			c0.8,1.4,2.3,2.4,3.7,3.2c-0.6-1.3-1.3-2.5-2.2-3.6c-0.3-0.3-0.6-0.7-1-0.8C97.3,37.1,97.2,37.1,97.1,37.1z M116.9,37.1
			c0,0-0.1,0-0.4,0.2c-1.5,1-2.7,2.5-3.4,4.1c0.3,0,0.6-0.1,0.9-0.2c1.1-0.4,2-1.4,2.8-3C117,37.8,117,37.3,116.9,37.1z M108.2,29.1
			C108.2,29.1,108.1,29.1,108.2,29.1c-0.8,1.2-1.1,2.7-0.9,4.9c0.1,1.1,0.2,2.1,0.5,3c0.4-1.1,0.7-2.3,0.9-3.5
			C108.9,31.5,108.8,30.1,108.2,29.1z M108.1,28.9L108.1,28.9L108.1,28.9z"/>
	</g>
	<g>
		<path class="st1" d="M104.6,110.3c-4.5,0-9-0.2-13.4-0.3c-12.7-0.5-25.5-0.6-38-0.7c-13.1-0.1-26.7-0.2-39.7-0.8
			c-0.1,0-0.1,0-0.2,0c-3.8-1.1-7.2-4.9-9.3-7.8C1.6,97.3,0.8,93,2,89.5c1-2.9,3.2-5.6,6.4-7.4c5.3-3.1,12.3-3.6,18.7-1.4
			c-3.7-7.2-3.1-16.7,1.8-24.5C34.1,47.8,45.4,41.2,56,45c6,2.2,10.9,7.4,14.6,15.5c0.2-1.4,0.7-2.7,1.5-4c1.9-3.3,4.9-5.5,7.2-7.2
			c1.8-1.2,4-2.5,6.4-3c2.7-0.6,5.3,0,7.1,1.6c0.3,0.3,0.4,0.8,0.1,1.1c-0.3,0.3-0.8,0.4-1.1,0.1c-1.4-1.2-3.6-1.7-5.8-1.2
			c-2.2,0.4-4.2,1.7-5.9,2.8c-3.4,2.3-5.4,4.3-6.8,6.6c-1.3,2.3-1.7,4.8-1.3,6.9c0.2,0.6,0.5,1.3,0.7,1.9c0.1,0.4-0.1,0.8-0.4,0.9
			c-0.4,0.2-0.8,0-1-0.4c-0.3-0.7-0.6-1.4-0.8-2.1c-3.7-9.8-8.8-15.9-15.2-18.2C46,43,35.2,49.1,30.2,56.9c-5,8-5.3,18-0.7,24.8
			c0.2,0.3,0.2,0.7-0.1,0.9c-0.2,0.3-0.6,0.3-0.9,0.2c-6.3-2.9-13.9-2.7-19.4,0.5c-2.9,1.7-4.9,4-5.8,6.6c-1,3.1-0.3,6.9,1.8,9.8
			c2,2.7,5.1,6.2,8.4,7.2c13,0.5,26.5,0.7,39.6,0.8c12.4,0.1,25.3,0.2,38,0.7c9,0.3,18.3,0.7,27.4-0.4c9.5-1.2,16-4.1,19.9-8.9
			c4.9-6.1,4.7-15.9-0.5-21.9c-5.2-5.9-14.8-7.5-21.6-3.4c-0.4,0.2-0.8,0.1-1-0.3c-0.2-0.4-0.1-0.8,0.3-1c7.5-4.5,17.8-2.8,23.5,3.7
			c5.7,6.6,5.9,17,0.5,23.8c-4.1,5.1-11,8.2-20.9,9.4C114.1,110.1,109.4,110.3,104.6,110.3z"/>
	</g>
	<g>
		<path class="st1" d="M20.4,73.6c-0.3,0-0.6-0.2-0.7-0.5c-2.8-6.3-2.2-13.8,1.5-19.6c0.2-0.4,0.7-0.5,1.1-0.2
			c0.4,0.2,0.5,0.7,0.2,1.1c-3.4,5.3-4,12.4-1.4,18.2c0.2,0.4,0,0.8-0.4,1C20.6,73.6,20.5,73.6,20.4,73.6z"/>
	</g>
	<g>
		<path class="st1" d="M14.4,74.8c-0.3,0-0.5-0.1-0.7-0.4c-1.7-3.2-2.7-6.7-3-10.3c0-0.4,0.3-0.8,0.7-0.8c0.4,0,0.8,0.3,0.8,0.7
			c0.3,3.4,1.2,6.7,2.8,9.7c0.2,0.4,0.1,0.8-0.3,1C14.6,74.7,14.5,74.8,14.4,74.8z"/>
	</g>
	<g>
		<path class="st4" d="M135.1,29c-0.3,0-0.7-0.2-0.7-0.6c-0.1-0.4,0.1-0.8,0.5-0.9l5.6-1.6c0.9-0.2,1.2,0.2,1.3,0.4
			c0.1,0.2,0.2,0.5,0.1,0.7c-0.2,0.5-0.2,0.5-6.6,1.9C135.2,29,135.2,29,135.1,29z"/>
	</g>
	<g>
		<path class="st4" d="M108.6,10c-0.4,0-0.7-0.3-0.8-0.7l-0.5-6.5c0-0.4,0.3-0.8,0.7-0.8c0.4,0,0.8,0.3,0.8,0.7l0.5,6.5
			C109.4,9.6,109.1,10,108.6,10C108.6,10,108.6,10,108.6,10z"/>
	</g>
	<g>
		<path class="st4" d="M89.5,18.3c-0.1,0-0.3,0-0.4-0.1l-4.7-2.7c-0.6-0.3-0.7-0.8-0.7-1c0-0.3,0.2-0.6,0.5-0.7
			c0.5-0.2,0.7-0.3,5.8,3.2c0.3,0.2,0.4,0.7,0.2,1C90,18.2,89.7,18.3,89.5,18.3z"/>
	</g>
	<g>
		<path class="st4" d="M75.9,38.7c-0.4,0-0.7-0.3-0.8-0.6c-0.1-0.4,0.2-0.8,0.6-0.9l6.1-1c0.4-0.1,0.8,0.2,0.9,0.6
			c0.1,0.4-0.2,0.8-0.6,0.9l-6.1,1C76,38.7,75.9,38.7,75.9,38.7z"/>
	</g>
	<g>
		<path class="st4" d="M124.2,14.6c-0.2,0-0.3,0-0.4-0.1c-0.3-0.2-0.4-0.7-0.2-1.1l3.5-4.9c0.2-0.3,0.7-0.4,1.1-0.2
			c0.3,0.2,0.4,0.7,0.2,1.1l-3.5,4.9C124.7,14.5,124.4,14.6,124.2,14.6z"/>
	</g>
	<g>
		<path class="st4" d="M135.4,52.1c-0.2,0-0.4-0.1-0.5-0.2l-4.4-3.9c-0.3-0.3-0.4-0.8-0.1-1.1c0.3-0.3,0.8-0.4,1.1-0.1l4.4,3.9
			c0.3,0.3,0.4,0.8,0.1,1.1C135.8,52,135.6,52.1,135.4,52.1z"/>
	</g>
</g>
</svg>
