<?xml version="1.0" encoding="UTF-8"?><svg id="a" xmlns="http://www.w3.org/2000/svg" viewBox="0 0 400 354.93"><defs><style>.b{fill:#BB8760;fill-rule:evenodd;}</style></defs><path class="b" d="M21.95,.07c4.26-.77,3.9,5,4.55,8.7,.66,3.72,1.49,7.22,2.48,9.94,1.95,5.31,6.73,8.28,4.56,12.42-4.55-.58-5.91-7.87-8.28-12.01-.97,104.62-.14,211.04-.41,316.35,120.49,.97,242.79,.14,363.97,.41-5.13-3.59-15.23-4.33-16.56-10.35,4.74-1.37,9.82,3.73,14.9,5.8,2.43,.98,12.89,2.26,12.84,5.8-.04,3.03-7.06,2.78-9.52,3.31-4.11,.87-6.87,1.61-9.94,2.9-3.99,1.68-6.39,4.74-10.35,4.96-1.55-5.59,5.8-5.76,8.28-8.69H25.26c-1.76,4.04,1.62,13.22-2.07,15.32-4.16-1.5-1.16-10.16-2.07-14.91-5.78-2.22-18.62,2.62-21.12-2.89,4.74-2.72,14.36-.55,21.12-1.25V24.09c-2.73,2.37-1.06,9.15-5.79,9.52-2.35-3.45,.71-7.52,2.07-11.18,2.23-6.01,4.8-12.15,3.31-21.12,.23-.6,.65-1.01,1.24-1.24Z"/><path class="b" d="M240.16,41.89c-.76-4.58,5.23-5.34,8.28-7.04,5.04-2.8,9.1-8.91,14.5-9.11,2.64,3.27,.98,11.72,.41,18.22-.21,2.43-.59,12-3.72,11.59-3.75-.49,1.19-13.89,.41-18.63-2.46,.73-3.61,4.5-5.38,6.63-2.89,3.46-6.95,5.82-9.94,9.11-2.96,3.26-5.56,7-8.28,10.35-5.7,7.02-11.98,12.91-18.22,19.05-12.61,12.39-27.69,21.51-41.82,33.13-13.68,11.25-28.46,21.64-43.89,31.06-11.85,7.23-25.4,12.01-38.51,17.8-3.9,1.73-8.62,4.86-13.25,3.73,1.73-4.53,7.19-5.41,10.77-7.04,12.07-5.51,25.03-9.55,36.44-16.15,21.97-12.72,41.19-29.5,61.7-43.89,13.81-9.7,25.91-20.69,37.68-32.71,5.67-5.79,9.99-12.83,15.74-19.05,4.19-4.54,9.55-7.79,12.83-13.66,.08-.34,.41-.41,.41-.83-4.36,3.03-10.72,8.23-16.15,7.45Z"/><path class="b" d="M375.15,80.82c-.99,4.41-1.44,8.8-1.24,13.66,2.74,67.58-.33,141.81,.83,211.59-7.72,1.35-15.34,5.5-22.36,9.52-1.93,1.11-5.55,3.36-7.04,3.32-3.34-.11-6.85-5.64-9.52-7.46-5.56-3.79-12.85-7.11-19.46-9.93V108.97c0-9.06-1.81-20.75,0-27.33,1.07-3.88,9-7.55,14.08-9.94,7.33-3.44,9.88-6.66,14.9-9.11,4.23-2.06,5.89,3,9.53,5.38,6.53,4.28,15.36,8.55,20.29,12.84Zm-28.57-15.74c-6.96,6.85-17.94,9.66-25.26,16.15,6.93,6.46,15.35,11.43,22.77,17.39,7.73-6.49,18.48-9.96,24.85-17.8-6.35-6.35-16.26-9.13-22.36-15.74Zm0,36.44c7.34-2.87,11.94-8.48,19.05-11.59,.37,.74,1.16,1.05,.83,2.48-.55,1.81-2.08,.74-3.31,1.24-2.42,2.68-5.98,4.11-9.11,6.21-2.8,1.88-7.06,3.65-7.86,7.45,7.07-5.07,14.9-9.4,22.36-14.08,.72-.03,1.29,.09,1.66,.41-.34-3.65,1.01-5.62,.83-9.11-7.62,6.18-17.54,10.06-24.43,16.98Zm-26.5,197.93c5.96,2.42,11.73,5.18,16.56,8.28,2.56,1.64,4.59,5.34,6.63,4.97,0-50.14,0-101.03,0-149.49,0-16.82,1.39-34.19,0-50.51-.18-2.13-.12-4.68-2.07-5.8,.64-1.71,2.32-2.38,1.65-5.39-7.85-5.26-15.01-11.21-22.77-16.56v214.49Zm40.58,7.86c3.95-1.15,6.8-3.42,10.77-4.55v-28.98c-3.16,2.28-6.65,4.27-10.35,6.21-3.43,1.8-6.74,5.24-10.77,4.96,5.18-6.17,15.42-9.37,21.12-13.66v-25.26c-4.26,1.47-7.79,4.24-11.59,6.63-3.8,2.39-7.86,5.12-11.18,6.21,1.14-4.24,5.74-6.23,9.11-8.28,3.62-2.21,7.61-4.17,11.18-6.21,.63-1.32,2.84,.87,2.48-.83v-13.66c-5.37,3.85-11.65,7.54-16.97,11.18-1.67,1.14-3.38,3.9-5.8,2.89,1.47-3.83,5.87-5.77,9.11-7.86,4.67-3.03,8.71-6.66,13.66-8.7v-62.94c-3.34,1.18-6.12,4.01-9.11,6.21-2.77,2.04-6.15,5.11-9.52,4.14,2.39-2.86,5.73-4.88,8.69-7.04,2.98-2.16,6.21-4.57,9.94-5.8v-9.11c-5.77,4.12-12.83,7.81-18.22,12.01-1.74,1.36-3.14,4.35-5.79,3.73,1.23-4.84,6.28-6.74,9.94-9.11,3.87-2.51,7.45-5.46,11.18-7.87,.75-1.31,2.99,.1,2.9-1.24-.87-18.18,1.89-39.98-1.66-55.49-7.24,5.73-16.6,9.36-23.19,15.74,.67,5.96,.35,12.91,.41,19.46,4.51-1.35,8-4.47,11.59-7.04,3.6-2.58,7.04-5.82,11.18-6.63-1.95,4.13-6.4,6.58-9.94,9.11-3.63,2.6-7.78,5.73-12.83,6.63,.27,3.45-.55,8,.41,10.77,2.81-3.17,6.85-5.59,10.35-8.28,3.43-2.65,6.82-6.37,11.59-6.21-2.29,3.83-6.99,5.29-10.35,7.87-3.53,2.71-6.68,5.51-9.94,8.28-1.35,.71-1.99-1.98-2.07,0,.26,1.26-.53,3.57,.41,4.14,3.51-2.85,7.9-4.7,11.59-7.45,3.6-2.69,6.42-6.88,10.77-7.45-2.03,4.22-6.33,7.27-9.94,9.94-3.91,2.9-8.58,5.03-12.83,7.46v30.64c3.95-2.03,7.75-4.68,11.59-7.04,3.84-2.36,7.61-5.78,12.01-6.21-4.26,5.86-12.17,9.05-18.22,12.83-1.93,1.22-5.03,2.27-5.38,4.97,6.22-2.21,12.3-10.32,19.88-11.18-4,4.94-10.71,8.13-15.74,11.59-1.65,1.15-4.78,2.56-4.14,5.39,6.69-2.57,13.22-11.06,21.12-12.42-1.79,4.1-6.57,5.5-9.94,7.86-3.49,2.46-6.68,5.99-11.18,7.04,.27,5.11-.55,11.32,.41,15.74,3.17-2.49,6.72-5.58,10.35-8.29,3.29-2.46,7.09-6.73,11.18-5.79-6.81,5.89-13.58,11.81-21.94,16.15v7.45c3.02-1.95,6.57-4.5,10.35-7.04,3.51-2.36,6.67-6.56,10.77-6.63-5.01,7.17-14.58,11.87-21.12,16.15v26.09c3.32-2.38,7.89-4.4,12.01-7.04,4.17-2.67,7.12-7.42,11.59-7.87-4.03,8.12-13.49,10.8-20.29,16.15,4.9-1.5,9.48-7.56,14.49-6.21-4.27,4.29-10.62,6.49-15.74,9.94-.5-1.95-.01-2.66-2.07-3.32v55.9c4.98-3.63,11.9-5.71,16.98-9.11,1.81-1.21,2.82-4.14,5.38-3.31-3.84,9.14-17.09,8.86-22.36,16.56,7.56-1.56,15.22-8.79,22.77-10.35-1.04,4.21-7.94,4.76-9.11,7.45Zm-13.66,6.63c1.4,0,6.26-2.28,6.21-3.73-1.52,1.79-5.16,1.47-6.21,3.73Z"/><path class="b" d="M368.53,100.69c-1.59,3.56-6.24,5.11-9.52,7.04-3.4,2-6.82,5.21-10.77,4.97,4.32-5.89,12.99-7.43,18.22-12.43,.96-.13,1.59,.07,2.07,.41Z"/><path class="b" d="M306.83,123.05c-.25,4.62-1.65,11.72-1.24,18.22,.13,2.11,1.03,3.9,1.24,5.8,1.35,12.1,0,26.03,0,39.33v118.02c-5.9,3.59-14.65,5.69-21.12,8.28-2.88,1.15-7.43,4.97-10.35,4.97-2.85,0-11.05-6.05-13.66-7.45-5.08-2.72-9.11-4.97-14.08-7.04V146.65c0-7.49-1.66-15.85,0-21.12,1.4-4.45,9.77-9.36,13.25-11.59,2.53-1.62,5.21-3.26,7.87-4.56,3.01-1.48,6.3-2.1,8.7-3.72,3.08-2.09,3.97,1.77,6.62,3.31,1.99,1.15,4.36,1.54,6.63,2.9,5.3,3.18,12.39,6.39,16.15,11.18Zm-28.57-14.08c-10.09,4.68-20,9.54-26.92,17.39,3.92,3.15,7.81,5.74,12.42,8.28,3.63,2,7.35,6.63,10.77,6.63,4.35,0,10.37-6.13,14.08-8.7,5.06-3.5,9.58-6.17,13.67-9.52-7.36-5.34-16.14-9.26-24.02-14.08Zm10.35,76.19c3.31-2.04,6.51-6.2,10.35-4.97-5.55,6.04-13.79,9.4-21.12,13.66-.28,1.52-.58,3.01-.41,4.97,3.86-2.6,8.16-4.61,12.42-7.04,4.08-2.32,7.74-6.3,12.43-6.62-6.07,8.01-17.96,10.19-24.85,17.39v2.48c8.21-5.45,17.09-10.25,25.67-15.32,.45-21.39-.63-42.17-.41-62.11-2.1,1.08-5.48,3.07-5.38,4.97,.19-1.17,3.32-1.99,3.72-.41-4.58,3.78-9.71,8.88-14.49,12.42-1.36,1-3.64,3.35-5.39,2.07,3.6-5.65,10.43-8.07,14.5-13.25-7.5,2.16-11.67,7.66-18.22,10.77-.29,6.64,.42,12.28,.41,18.63,3.64-1.59,7.54-4.88,11.59-7.87,3.84-2.83,8.28-6.88,12.84-6.21-6.78,5.92-15.4,9.99-21.95,16.15h-2.48v3.31c4.22-1.84,7.68-5.38,11.59-7.86,4.02-2.56,8.14-5.59,12.84-6.22-2.57,4.53-8.17,5.98-12.43,8.7-4.35,2.78-8.37,6.2-12.01,9.52,.18,3.36-.18,6.17-.41,9.11,6.7-3.17,12.94-7.31,18.63-11.18,1.83-1.24,3.65-3.9,6.21-2.9-6.33,7.89-16.97,11.46-24.85,17.81v5.79c3.79-1.56,7.62-3.6,11.18-5.79Zm-37.68,115.53c8.33,3.4,15.14,8.32,23.19,12.01-.21-56.53,.3-112.77,0-167.29-8.45-4.38-15.86-9.81-23.6-14.9,.93,55.93,.16,113.57,.41,170.18Zm26.5-91.92c.27,3.73-.55,8.55,.41,11.59,4.59-4.8,12-8.88,17.81-12.42,1.79-1.09,4.63-3.67,6.63-2.07-6.58,6.67-16.57,9.93-23.61,16.15-.82,.21-1.1-2.44-1.24-.41v2.06c3.73-2.17,8.04-4.2,12.01-6.62,3.64-2.22,7.31-6.46,11.59-5.38-4.9,4.91-12.95,8.48-19.05,12-1.78,1.03-5.82,2.81-4.14,5.8,2.95-1.74,6.33-3.46,9.52-5.38,2.91-1.76,6.13-5.21,9.52-3.73-2.71,2.68-6.25,4.89-9.94,7.04-3.28,1.92-9.14,2.54-9.52,7.45,3.89-1.06,7.51-3.42,11.18-5.38,3.55-1.89,7.5-4.89,11.18-4.14-2.77,3.23-7.39,5.21-11.59,7.45-3.87,2.08-10.47,2.63-10.77,8.29,7.51-1.21,13.21-9.44,19.88-8.7-3.99,4.03-10.27,7.06-15.32,9.52-1.46,.72-4.68,1.33-4.55,3.73,8.32-1.91,16.77-9.44,25.67-10.77-.27-13.94,.55-28.98-.41-42.23-8.23,5.57-18.18,9.43-25.26,16.15Zm4.97,37.68c-2.02,.96-5.93,1.67-4.97,4.97,3.68-1.5,7.59-3.62,11.59-5.39,3.72-1.63,8.04-4.56,12.01-3.31-2.28,2.66-6.27,3.52-9.52,4.97-3.51,1.56-6.97,3.17-10.35,4.55,.3,3.06-3.56,1.96-3.72,4.56,3.6-.87,7.58-3.29,11.59-5.38,3.88-2.02,7.94-5.23,11.59-4.56-5.88,6.27-15.75,8.54-23.19,13.25v9.11c3.4-1.91,7.3-3.9,11.18-5.8,3.74-1.82,7.72-5.17,11.59-4.14-2.78,3.02-7,4.75-10.77,6.63-3.89,1.94-7.84,3.98-12.01,5.38,.27,10.63-.55,22.36,.41,32.3,3.21-2.53,7.6-4.12,11.59-6.21,3.78-1.98,7.97-5.72,12.42-4.14-2.89,2.69-7.14,3.97-10.77,5.79-3.7,1.85-7.48,3.6-10.77,5.8-.53,.57-1.8,.41-2.9,.41,.4,2.36-.89,6.42,.83,7.46,2.07-.68,.81-2.4,2.48-3.73,1.34-.32,2.91-.65,4.14-1.24,6.16-2.94,10.94-8.26,16.98-9.53-1.71,5.05-7.91,5.62-11.18,9.11,4.8-.99,8.18-3.41,12.42-4.97v-48.86c-5.59,3.57-13.33,5.54-19.05,8.69-1.69,.93-2.78,3.31-4.97,2.49-.35-2.36,1.85-3.27,3.31-4.15,6.17-3.67,14.78-5.84,20.7-9.93-.27-4.69,.55-10.49-.41-14.49-5.89,3.76-13.97,7.35-20.29,10.35Z"/><path class="b" d="M371.01,105.66c-1.98,4.16-7.48,5.41-11.59,7.45-4.2,2.09-7.99,5.18-12.01,5.79,1.44-4.24,6.61-5.63,10.35-7.45,4.07-1.99,8.11-3.96,11.59-6.21,.86-.18,1.1,.28,1.65,.41Z"/><path class="b" d="M369.77,110.21c-.23,3.89-6.13,6.17-9.52,8.7-3.47,2.59-7.38,6.94-12.01,6.21,.1-2.47,2.68-2.42,4.14-3.31,5.54-3.4,10.4-8.34,16.15-11.6h1.24Z"/><path class="b" d="M370.6,121.81c-2.17,3.48-6.4,5.81-9.94,8.28-3.34,2.34-7.1,5.63-11.18,5.8,1.7-3.88,6.29-5.22,9.52-7.45,3.29-2.27,6.29-4.94,9.52-7.04,.96-.13,1.59,.06,2.07,.41Z"/><path class="b" d="M301.45,136.3c-6.36,7.3-15.38,11.95-22.77,18.22-.42-4.87,6.1-7.39,9.52-9.94,3.9-2.89,7.63-6.09,11.18-8.69,.96-.14,1.59,.06,2.07,.41Z"/><path class="b" d="M368.94,140.85c-1.8,3.91-6.56,5.73-9.94,8.29-3.27,2.46-6.52,6.33-10.77,6.21,4.97-6.36,12.76-9.88,19.05-14.91,.86-.17,1.1,.29,1.66,.41Z"/><path class="b" d="M301.86,144.17c-3.64,3.1-7.81,4.98-11.6,7.86-3.51,2.68-6.89,6.05-11.18,7.87-.07-4.11,5.96-6.7,9.11-9.11,3.65-2.79,7.33-5.58,11.18-7.45,1.1,0,2.44-.23,2.49,.83Z"/><path class="b" d="M370.6,144.58c-1.86,3.78-6.42,5.96-9.94,8.28-3.47,2.29-6.97,5.9-11.18,5.8,5.07-6.24,13.4-9.24,19.46-14.49,.87-.17,1.1,.28,1.66,.41Z"/><path class="b" d="M370.19,159.07c-2.24,3.49-6.39,6.18-9.94,8.7-3.48,2.47-7.22,5.63-11.18,6.21,.75-3.42,5.91-5.59,9.11-7.87,3.51-2.5,6.96-5.01,9.94-7.45,.96-.13,1.59,.07,2.07,.41Z"/><path class="b" d="M301.86,161.56c-1.08,3.22-4.54,3.99-7.04,5.79-5.18,3.75-9.12,9.76-15.32,10.77,2.04-4.2,6.7-6.25,9.94-9.11,3.39-3.01,6.69-5.79,10.77-7.87,.87-.17,1.1,.29,1.66,.42Z"/><path class="b" d="M277.85,189.3c1.86-3.85,6.41-5.9,9.94-8.28,3.37-2.28,6.9-6,11.18-5.8-4.94,6.24-13.5,8.85-19.05,14.49-.96,.13-1.59-.06-2.07-.41Z"/><path class="b" d="M136.23,182.26c4.07,2.33,9.66,5.67,14.08,8.28,4.75,2.81,9.72,4.71,14.08,7.87,1.64,33.7,.84,72.04,.41,106.42-5.36,.08-10.47,3.3-16.15,7.45-3.13,2.29-7.21,7.22-10.35,7.46-4.26,.31-9.23-5.24-12.43-7.87-4.23-3.5-8.24-5.44-11.59-8.7,1.48-33.12-.92-73.03,1.24-104.76,6.91-5.38,15.11-9.46,20.71-16.15Zm0,4.55c-4.08,5.72-11.13,8.47-16.56,12.84,7.84,3.75,11.79,11.39,21.12,13.66,6.2-4.84,14.27-7.82,19.46-13.66-8.77-3.51-15.35-9.22-24.01-12.84Zm-18.22,16.57v98.14c6.73,4.58,12.25,10.38,19.46,14.49v-99.38c-7.33-3.3-12.59-10.86-19.46-13.25Zm24.84,19.46c2.08-1.55,4.54-3.58,7.04-5.39,2.24-1.61,5.2-4.74,7.87-3.31-4.6,5.61-12.4,8.03-16.56,14.08,6.24-1.13,13.15-10.53,19.87-9.52-5.55,6.04-15.52,7.66-19.87,14.9,2.81-.58,5.79-3.19,9.11-4.97,3.29-1.75,6.93-4.62,9.94-3.72-4.79,5.71-13.7,7.28-19.05,12.42,.24,.73-.5,2.43,.41,2.48,2.61-1.75,5.64-3.92,8.7-5.79,2.82-1.73,6.24-4.67,9.11-3.73-2.08,3.32-6.12,4.94-9.52,7.04-3.28,2.02-8.01,3.4-8.69,7.87,5.83-1.65,11.3-8.71,16.56-7.87-1.87,2.67-5.31,4.65-8.7,6.62-2.82,1.65-8.68,2.51-7.45,7.04,6.2-4.15,12.81-7.89,19.87-11.18-.28-11.59,.55-24.29-.41-35.19-6.5,4.27-13.41,8.12-19.87,12.42v2.9c5.13-1.94,10.78-11.26,17.8-9.94-4.95,4.43-12.9,8.08-16.15,12.84Zm17.81,19.46c-5.96,4.02-13.91,8.11-19.46,11.18,.27,5.93-.55,12.97,.41,18.22,2.9-2.15,6.35-4.43,9.94-6.22,3.6-1.79,8.51-2.46,9.94-6.62-5.52,.98-10.81,7.95-16.97,8.28,3.73-5.93,11.94-7.38,16.97-12.01-.52-4.03,1.07-10.18-.83-12.83Zm-17.39,65.01c.1-4.02,5.32-5.33,8.28-7.04,3.1-1.78,6.6-5.2,9.52-4.14-.19,2.3-2.66,2.31-3.72,3.73,2.02-.64,1.24,1.52,2.07,2.07,3.2-.86,2.07-5.16,2.07-7.87v-30.64c-3.45,1.74-7.06,3.89-10.77,5.8-3.33,1.72-9.01,3.03-9.52,7.45,2.65-1.44,5.64-2.94,8.28-4.55,2.69-1.64,4.87-4.66,7.87-4.56-2.9,6.35-10.29,8.21-16.15,11.6,.27,11.32-.55,23.74,.41,34.36,.75-1.04,2.41-1.17,2.9-2.48-1.63,.53-1.23-.98-1.24-2.07,5.13-1.77,10.43-5.58,12.84-8.7-4.43,2.2-7.9,5.35-12.84,7.04Z"/><path class="b" d="M370.6,184.75c-2.32,3.28-6.43,5.48-9.94,7.87-3.29,2.24-6.77,5.69-10.77,5.8,4.61-6.29,12.43-9.38,18.63-14.08,.96-.13,1.59,.07,2.07,.41Z"/><path class="b" d="M370.19,190.54c-2.3,3.5-6.72,5.8-10.35,8.28-3.56,2.43-7.32,5.45-11.18,6.21,1.36-4.32,6.2-5.58,9.52-7.86,3.36-2.31,6.55-4.99,9.94-7.04,.96-.13,1.59,.06,2.07,.41Z"/><path class="b" d="M302.28,198.82c-2.59,3.49-7.39,5.92-11.18,8.7-1.83,1.34-3.94,2.88-5.8,4.14-1.53,1.04-3.9,3.55-5.8,2.07,2.13-4.02,6.86-5.34,10.35-7.87,3.44-2.48,6.44-5.67,10.35-7.45,.96-.13,1.59,.06,2.07,.41Z"/><path class="b" d="M368.11,201.73c-2.18,3.42-6.07,6.19-9.52,8.7-3.35,2.43-6.91,5.6-10.77,6.21,.93-3.61,5.4-5.43,8.7-7.87,3.27-2.43,6.63-5.09,9.52-7.45,.96-.14,1.59,.06,2.07,.41Z"/><path class="b" d="M369.77,211.25c-4.06,5.25-10.48,9.4-16.15,13.67-1.79,1.35-3.79,3.75-6.21,2.89,5.38-7.03,13.98-10.86,20.29-16.97,.96-.13,1.59,.07,2.07,.41Z"/><path class="b" d="M368.53,217.04c-.46,4.34-5.8,6.13-9.11,8.7-3.48,2.71-6.86,6.38-11.18,7.45,1.3-4.38,5.96-6.24,9.11-8.7,3.35-2.62,6.73-4.94,9.94-7.45h1.24Z"/><path class="b" d="M368.94,223.67c.25,4.42-5.3,6.39-8.7,8.7-3.39,2.31-7.15,6.12-11.18,5.8,4.84-6.2,13.69-8.39,18.63-14.5h1.24Z"/><path class="b" d="M99.38,236.1c-.95,22.24-.15,46.22-.41,69.14-7.25,4.07-13.42,9.22-20.7,13.25-11.93-2.43-19.81-8.89-29.4-13.66,.93-20.74,.16-43.17,.41-64.59,8.65-3.16,15.1-10.64,21.53-15.32,.49-.36,.7-.83,1.65-.83,9.68,.06,18.62,8.34,26.92,12.01Zm-26.09-8.7c-6.08,3.86-10.34,9.53-16.56,13.25,7.22,2.03,13.73,4.76,20.29,7.45,6.55-2.83,12.15-6.62,16.98-11.18-6.88-3.19-12.45-7.7-20.71-9.52Zm21.12,14.08c-3.82,3.23-8.47,5.93-12.84,8.28-1.4,.76-4.25,1.34-3.72,3.73,4.67-.76,9.75-8.97,15.32-7.46-3.85,4.86-12.65,6.95-14.91,12.01,4.85-2.23,9.44-9,15.32-7.45-2.01,2.55-5.51,3.51-8.28,5.38-2.63,1.78-6.35,3.41-7.45,6.63,4.84-1,10.9-8.65,16.56-7.46-4.38,4.73-11.52,6.71-16.56,10.77v7.87c5.96-3.7,11.57-7.75,17.8-11.18v-21.12h-1.24Zm-40.99,2.48c-.52,.18-.85,.54-.83,1.25v57.97c7.58,3.33,13.75,8.06,21.95,10.77-.16-22.06,0-39.86,0-62.53-5.97-3.56-12.87-6.17-21.12-7.46Zm39.34,44.72c1.27,3.91-3.51,4.99-5.8,6.63-2.74,1.96-5.19,4.35-7.45,6.21-1.08,.48-1.78-1.28-1.66,.41v7.45c6.49-2.49,10.5-9.64,16.98-10.76-3.86,6.5-11.3,9.4-16.98,14.08,.22,.6-.49,2.14,.41,2.07,4.91-4.37,11.14-9.05,16.98-11.18,.96-11.88,.14-25.54,.41-38.1-6.18,3.89-13.13,7.02-17.8,12.43,5.35-1.73,9.8-8.64,14.91-7.87-1.53,2.87-4.77,4.45-7.45,6.21-2.74,1.8-6.76,2.93-7.45,6.62,4.96-1.53,10.01-8.74,15.73-9.52-2.12,6.9-15.72,8.34-15.73,16.56,5.7-3.17,10.01-10.48,16.15-11.59-1.09,3.89-5.19,5.66-7.87,7.87-2.95,2.43-5.41,5.14-8.28,7.45,.27,1.94-.54,4.96,.41,6.21,3.91-4.64,9.41-7.7,14.5-11.18Z"/><path class="b" d="M228.57,226.57c-4.73,5.63-11.54,9.17-17.39,13.67-.71-3.6,3.61-5.48,6.21-7.46,3.07-2.33,6.29-4.41,9.11-6.62,.96-.13,1.59,.07,2.07,.41Z"/><path class="b" d="M226.91,232.37c-1.2,3.24-4.58,5.46-7.04,7.87-2.33,2.28-4.64,5.61-7.87,5.79,.21-2.95,3.59-5.25,5.8-7.45,2.38-2.38,5.08-4.64,7.45-6.62,.87-.18,1.1,.28,1.66,.41Z"/><path class="b" d="M159.83,246.03c-1.76,3.14-5.66,4.89-8.7,7.04-3.08,2.19-6.11,4.81-9.11,5.8-.16-3.78,4.29-5.46,7.04-7.45,2.98-2.16,6.09-4.33,9.11-5.8,.86-.17,1.1,.29,1.66,.41Z"/><path class="b" d="M370.6,249.76c-1.92,4.36-6.94,6.38-10.77,8.7-3.97,2.4-7.71,5.31-12.01,7.04,.41-3.99,5.46-6.17,9.11-8.28,4.15-2.4,8.82-4.89,12.01-7.86,.87-.18,1.1,.28,1.66,.41Z"/><path class="b" d="M159.42,252.24c-.92,3.25-4.93,5.41-7.87,7.04-3,1.67-6.76,3.7-9.94,3.73,3.53-5.58,12.08-6.14,16.15-11.18,.87-.17,1.1,.29,1.65,.41Z"/><path class="b" d="M369.77,257.63c-1.69,3.67-6.45,5.39-9.94,7.45-3.63,2.15-7.12,5.17-10.77,5.8,.81-3.88,5.22-5.24,8.28-7.04,3.52-2.06,7.34-4.23,10.35-6.63,.96-.13,1.59,.07,2.07,.42Z"/><path class="b" d="M89.44,263.42c.32,2.9-3.54,3.73-5.38,4.97-1.8,1.2-3.86,4.32-5.8,2.49,2.4-3.56,7.21-6.84,11.18-7.46Z"/><path class="b" d="M368.53,263.42c-1.31,3.49-5.34,5.35-8.28,7.46-2.82,2.02-5.77,5.48-9.52,4.97,3.93-5.6,11.31-7.74,15.74-12.84,.96-.13,1.59,.07,2.07,.41Z"/><path class="b" d="M300.62,265.08c-2.03,3.58-6.69,4.96-10.35,7.04-3.45,1.96-7.17,5.16-11.18,4.97,4.73-5.9,13.45-7.81,19.46-12.42,.96-.14,1.59,.06,2.07,.41Z"/><path class="b" d="M370.6,267.98c-.32,4.33-5.75,5.87-9.52,7.87-4.01,2.11-8.29,4.45-12.01,6.21-.21-4.65,5.82-5.58,9.52-7.46,3.98-2.01,7.83-4.28,10.77-6.62h1.24Z"/><path class="b" d="M300.21,270.46c-3.38,5.05-9.94,6.9-15.32,9.94-1.69,.39-1.15,2.99-3.73,2.48-.18-.37-.36-.74-.83-.82,3.89-6.05,12.73-7.15,17.81-12.01,.96-.13,1.59,.06,2.07,.41Z"/><path class="b" d="M159.83,270.46c.84,4.31-4.69,5.74-7.87,7.46-3.36,1.81-6.94,4.94-10.35,4.55-.47-2.74,2.7-2.97,4.14-3.73,4.47-2.34,9.78-4.63,12.83-8.28h1.24Z"/><path class="b" d="M228.98,272.53c-4.39,5.41-12.64,6.95-18.22,11.18,.84-6.76,11.4-7.36,16.15-11.59,.96-.13,1.59,.07,2.07,.41Z"/><path class="b" d="M159.42,277.92c-1.97,2.34-5.16,3.52-7.87,4.96-2.8,1.5-5.38,3.4-8.28,4.56,.39-5.98,9.43-6.84,13.66-10.35,1.1,0,2.44-.23,2.48,.83Z"/><path class="b" d="M228.16,277.5c-1.1,3.49-5.17,4.88-8.28,6.63-3.05,1.72-6.3,4.46-9.52,4.55,2.77-6.04,11.87-6.71,16.15-11.59,.87-.17,1.1,.28,1.66,.41Z"/><path class="b" d="M299.79,278.33c-.63,2.09-2.69,1.76-4.14,2.48-5.04,2.51-9.38,6.29-14.91,8.28,.08-3.14,4.32-4.74,7.45-6.62,3.56-2.15,7.73-5.94,11.59-4.14Z"/><path class="b" d="M370.6,278.33c-2.33,3.01-7.06,5.39-10.77,7.45-3.98,2.22-7.8,4.37-11.59,6.63-.58-4.2,5.04-5.59,9.11-7.87,4.33-2.43,8.53-6.92,13.25-6.21Z"/><path class="b" d="M301.86,281.23c-2.17,4.01-7.71,4.55-11.6,6.62-3.91,2.1-6.75,6.07-10.77,6.21,.76-3.79,5.51-5.46,9.11-7.45,3.73-2.06,7.69-4.08,11.18-5.8,.96-.13,1.59,.07,2.07,.42Z"/><path class="b" d="M158.59,282.47c-3.6,5.26-10.85,8.99-16.98,10.35,3.36-5.34,11.02-6.37,15.32-10.76,.87-.18,1.1,.28,1.66,.41Z"/><path class="b" d="M370.19,283.71c-1.89,3.81-6.69,5.63-10.35,7.87-3.6,2.21-7.57,5.6-12.01,5.38,1.9-3.39,6.31-4.67,9.52-6.62,3.75-2.27,7.56-4.38,10.77-7.04,.96-.13,1.59,.07,2.07,.41Z"/><path class="b" d="M78.68,296.55c1.02-3.14,4.46-5.04,7.04-7.04,2.38-1.85,5.2-4.8,8.28-4.56-2.7,5.44-9.22,7.07-12.84,11.6-.97,.12-1.71,.81-2.48,0Z"/><path class="b" d="M160.25,286.2c-2.33,6.09-10.23,6.6-14.08,11.18,4.88-1.22,8.57-5.76,13.66-5.39-1.31,2.98-5.27,4.25-8.28,5.8-2.93,1.5-6.41,3.87-9.52,3.73-.49-2.29,1.44-2.16,2.49-2.9-.05-.79-1.37-.29-1.24-1.24,3.4-5.57,11.03-6.92,15.32-11.6,.87-.17,1.1,.29,1.66,.42Z"/><path class="b" d="M301.45,286.61c-3.9,5.77-11.86,7.47-17.81,11.18-1.29,.78-2.16,3.72-4.55,2.07,3.93-7.39,14.63-8.01,20.29-13.66,.96-.14,1.59,.06,2.07,.41Z"/><path class="b" d="M368.94,289.09c-1.79,3.47-6.03,5.77-9.52,7.87-3.55,2.14-7.37,4.96-11.18,5.38,1.63-3.52,5.85-5.54,9.11-7.45,3.46-2.02,7.05-3.74,9.94-6.21,.86-.18,1.1,.28,1.66,.41Z"/><path class="b" d="M94.83,294.48c-1.62,3.14-5.27,4.65-7.87,6.62-2.62,2-4.69,5.16-8.28,5.8,1.98-6.85,9.46-8.21,13.67-12.84,1.02-.05,2-.06,2.48,.42Z"/><path class="b" d="M233.13,163.21c.13,48.02,.3,94.65,0,142.03-4.61,3.33-12.94,6.84-18.63,9.53-2.01,.94-4.69,3.95-6.63,4.14-2.07,.19-9.1-5.2-11.18-6.63-6.03-4.14-9.62-6.61-15.73-9.11-.77-34.87-.41-83.11-.41-122.57,0-6.03-1.2-13.36,0-17.39,.95-3.19,8.2-6,11.59-7.86,5.24-2.88,9.14-4.4,12.42-7.04,2.38-1.92,10.19,3.2,13.25,5.38,1.61,1.14,2.42,3.11,4.14,4.14,3.89,2.32,8.36,2.03,11.18,5.38Zm-26.91-12c-6.04,4.73-14.6,6.93-20.29,12,8.45,4.25,15.07,10.33,22.36,15.74,5.01-6.58,13.29-9.9,19.46-15.32-9.08-2.24-13.65-8.98-21.53-12.42Zm0,47.61c-.12-4.96,.68-12.25-.41-16.15-.87-3.04-6.34-6.22-9.94-8.69-4.77-3.28-8.89-7.38-12.01-7.45v133.33c5.24,3.71,12.11,7.35,17.39,10.77,1.69,1.09,3.44,3.09,4.97,2.89-.67-35.77,.88-77.87,0-114.7Zm3.31-14.49c4.75-4.77,10.36-8.69,16.15-12.42,.94,4.08-4.1,5.55-6.63,7.45-2.98,2.25-5.79,4.51-8.28,6.63-1.53-.11-1.83-.81-1.66,1.24,6.16-.89,10.26-9.6,16.98-9.94-1.56,3.51-5.57,5.48-8.7,7.87-3.06,2.34-7.99,4.12-7.87,8.28,2.97-.97,5.86-4.18,9.11-6.63,2.93-2.21,6.68-6.04,10.35-4.55-4.8,3.68-9.87,7.64-14.49,11.18-1.51,1.16-4.13,1.94-4.56,4.14,3.21-.64,6.22-3.55,9.52-5.8,3.13-2.13,6.65-5.48,9.94-4.55-2.56,3.19-6.34,5.46-9.94,7.86-3.36,2.24-8.74,3.49-9.52,8.29,5.03-1.03,10.74-10.33,16.15-9.11-1.86,3.12-5.46,4.56-8.28,6.62-2.93,2.15-6.31,4.14-7.87,7.46,2.5-1.24,5.96-3.19,9.11-5.39,2.79-1.95,5.7-6.22,9.11-4.55-2.46,3.11-6.08,5.09-9.52,7.45-3.07,2.1-8,3.78-8.7,8.28,6.92-3.43,12.46-8.24,19.87-11.18-.28-11.87,.55-24.84-.41-36.02-6.52,5.62-17.12,9.38-19.88,17.39Zm19.46,21.12c-3.06,2.35-6.77,4.17-10.35,6.21-3.31,1.88-8.23,3.72-8.7,8.28,2.84-1.29,5.5-3.36,8.28-5.38,2.36-1.73,5.24-5.17,8.28-3.73-4.6,5.06-11.11,8.2-16.56,12.42v9.11c5.69-3.55,12.28-9.8,19.87-12.84v-3.72c-4.96,3.09-10.32,6.83-14.49,10.35-1.37,1.15-2.28,3.95-4.56,2.9,1.02-4.46,5.72-6.25,8.7-8.7,3.14-2.58,6-6.06,10.35-7.04-.49-2.4,1.03-6.82-.83-7.86Zm-19.05,29.39c.27,5.53-.55,12.15,.41,16.98,2.36-2.31,5.26-4.61,8.28-6.62,3-2.01,6.25-4.51,9.52-4.97-1.06,4.31-5.97,5.3-9.11,7.45-3.4,2.33-6.2,5.23-9.11,7.87,.25,.98-.52,3,.41,3.31,1.7-1.2,3.63-2.16,5.8-2.9-.06-1.03-.08-2.01,.83-2.07,4.7-1.26,7.45-6.6,12.01-6.62,.18,2.53-2.16,2.53-2.07,4.96-2.84,1.67-5.9,3.73-9.11,5.39-2.87,1.48-7.84,2.31-7.87,6.62,2.35-.98,5.6-2.84,9.11-4.55,2.97-1.45,7.04-5.45,9.94-2.49-.59,1.21-2.45,1.14-3.72,1.66-4.35,4.45-14.53,4.07-15.32,11.59,5.16-3.12,11.84-8.3,19.87-9.94-.28-12.83,.55-26.78-.41-38.92-6.55,4.35-12.47,9.34-19.46,13.24Zm18.63,28.16c-3.63,1.41-6.92,3.33-10.35,5.38-2.96,1.78-7.79,3.04-8.28,7.46,2.88-.69,5.85-3.32,9.11-5.39,3.08-1.95,6.64-5.35,9.94-4.14-5.31,5.32-12.78,8.47-19.05,12.84v19.04c2.81-1.77,6.24-3.56,9.52-5.38,3-1.67,6.3-4.94,9.52-3.73-4.85,6.33-15.88,6.49-19.05,14.5,4.95-1.84,12.03-9.46,18.22-8.7-3.44,4.32-10.06,5.69-14.5,9.11-1.5,1.15-3.85,3.26-3.72,5.8,6.24-1.36,12.22-8.74,18.63-9.94-2.81,5.74-9.91,7.2-14.49,11.18,6.29-1.86,11.25-5.04,15.74-8.7-.27-6.07,.55-13.24-.41-18.63-5.53,3.59-11.99,8.42-17.81,10.35,.91-3.96,5.27-5.25,8.28-7.03,3.13-1.86,6.3-4.43,9.94-5.39-.27-6.21,.55-13.53-.41-19.04-.09,.32-.35,.48-.83,.41Z"/></svg>