<?xml version="1.0" encoding="utf-8"?>
<!-- Generator: Adobe Illustrator 26.1.0, SVG Export Plug-In . SVG Version: 6.00 Build 0)  -->
<svg version="1.1" id="a" xmlns="http://www.w3.org/2000/svg" xmlns:xlink="http://www.w3.org/1999/xlink" x="0px" y="0px"
	 viewBox="0 0 37.2 27.7" style="enable-background:new 0 0 37.2 27.7;" xml:space="preserve">
<style type="text/css">
	.st0{fill:#C5C5C5;}
</style>
<path d="M15.35,.32c-.59,1.24-.74,2.3-.46,3.46,.12,.48,.08,1,.06,1.49-.06,1.15-.16,1.16-1.41,1.06-.94-.07-1.8-.55-2.82-.28-3.24,.87-4.51,3.06-3.69,6.55,.12,.01,.28,.08,.37,.03,2.06-1.1,4.41-.53,6.56-1.13,.32-.09,.78-.05,.8,.29,.06,.88,.76,1.53,.71,2.46-.16,3.06,.02,6.12,.64,9.13,.04,.18,.03,.37,.04,.56,.17,2.22,.17,2.21-2.1,2.71-.49,.11-1.06,.21-1.43,.5-.69,.55-.98,.44-1.66-.15-.91-.78-2.36-.83-3.49-.64-2.37,.4-4.56-.27-6.81-.59C0,25.69,0,25.26,.01,24.83c.01-1.18-.08-2.39,.1-3.55,.55-3.53,.49-7.1,.48-10.64,0-3.22,1.77-5.2,3.98-7.08C6.92,1.55,9.8,.75,12.82,.48c.79-.07,1.64,.37,2.53-.16ZM2.68,23.52c.34,.62-.61,.84-.54,1.39,.73,.19,1.01-.3,1.3-.66,1.46-1.77,2.87-3.58,4.33-5.35,.66-.8,1.22-1.72,2.27-2.14-.05,.18-.04,.4-.15,.53-2.1,2.34-3.91,4.89-5.8,7.38-.22,.29-.6,.58-.17,.94,.28,.23,.61,.07,.87-.12,.87-.64,1.65-1.33,2.27-2.24,1.49-2.17,3.01-4.31,4.78-6.29,.93-1.05,1.77-2.18,2.2-3.64-.61,.09-.86,.54-1.18,.88-.89,.93-1.73,1.93-2.87,2.61,.03-.85,.74-1.27,1.24-1.79,.63-.65,.89-1.42,1.23-2.24-.48-.05-.66,.16-.81,.35-2.29,2.75-4.56,5.52-6.87,8.25-.66,.78-1.01,1.86-2.14,2.2-.12-.58,.3-.9,.62-1.28,2.09-2.49,4.17-4.98,6.24-7.48,.46-.55,.99-1.08,1.16-1.96-.98-.01-1.67,.17-2.22,.94-.84,1.16-1.79,2.25-2.68,3.38-.21,.27-.41,.46-.78,.4,.33-1.63,2.11-2.39,2.58-3.99-2.57,.47-2.53,.49-3.84,2.2-.8,1.05-1.31,2.27-2.22,3.24-.57,.61-.43,1.3-.15,2.1,1.1-.56,1.58-1.45,2.21-2.22,.42-.52,.7-1.2,1.46-1.38-.59,1.8-1.86,3.16-3.23,4.41-.76,.69-1.05,1.3-.56,2.19,.59-.1,.85-.71,1.44-.58Zm-.92-12.2c1.36-.85,2.47-2.08,2.91-3.34,.38-1.07,.98-1.79,1.61-2.6,.7-.9,1.59-1.69,2.04-2.92C3.61,4.39,1.08,7.81,1.75,11.32Zm-.08,2.59c.39,0,.59-.27,.77-.5,2.17-2.79,4.19-5.7,6.79-8.15,.68-.64,1.14-1.49,1.71-2.24,.27-.36,.58-.82,.24-1.17-.4-.4-.94-.13-1.41,.09-.38,.18-.46,.57-.69,.86-2.2,2.8-3.74,6.06-6.28,8.63-.35,.35-.61,.8-.96,1.15-.42,.43-.42,.86-.18,1.33Zm4.45,11.67c1.1,.45,1.61-.18,2.08-.88,1.37-2.09,2.74-4.19,4.42-6.05,.98-1.09,1.24-2.43,1.87-3.65-3.27,3.15-5.63,6.95-8.37,10.58Zm2.63-.11c.65,.45,.97,.21,1.3-.29,1.16-1.78,2.5-3.45,3.8-5.13,.46-.59,1.09-1.32,.61-2.34-.93,.63-1.42,1.45-2.02,2.17-1.41,1.68-2.61,3.51-3.69,5.59Zm6.16-5.16c-1.82,1.46-2.73,3.1-3.79,4.62-.22,.31-.4,.67,0,.98,.4,.31,.87,.4,1.2,0,1.25-1.54,2.59-3.06,2.58-5.6ZM5.49,10.68c-1.1,1.01-1.76,2.07-2.47,3.08-1.53,2.19-1.51,2.2-1.22,3.41,1.22-1.53,2.41-2.98,3.57-4.46,.43-.54,.35-1.17,.13-2.04Zm5.31-6.14c.08,.44,.33,.59,.68,.49,.49-.13,1.97-2.14,1.93-2.61-.01-.16-.14-.34-.27-.46-.15-.13-.36-.07-.51,.05-.85,.69-1.16,1.74-1.83,2.52Zm3-.8c-.4,.44-.97,.75-.76,1.45,.07,.24,.45,.3,.65,.18,.65-.41,.61-.95,.11-1.63Zm-.03,21.97c1.38,.14,1.33-.55,1.1-1.34-.01-.04-.21-.02-.34-.04-.37,.33-.55,.77-.76,1.38Z"/><path d="M36.14,0c-.59,1.24-.74,2.3-.46,3.46,.12,.48,.08,1,.06,1.49-.06,1.15-.16,1.16-1.41,1.06-.94-.07-1.8-.55-2.82-.28-3.24,.87-4.51,3.06-3.69,6.55,.13,.01,.28,.08,.37,.03,2.06-1.1,4.41-.53,6.56-1.13,.32-.09,.78-.05,.8,.29,.06,.88,.76,1.53,.71,2.46-.16,3.06,.02,6.12,.64,9.13,.04,.18,.03,.37,.04,.56,.17,2.22,.17,2.21-2.1,2.71-.49,.11-1.06,.21-1.43,.5-.69,.55-.98,.44-1.66-.15-.91-.78-2.36-.83-3.49-.64-2.37,.4-4.56-.27-6.81-.59-.64-.09-.64-.52-.64-.95,.01-1.18-.08-2.39,.1-3.55,.55-3.53,.49-7.1,.48-10.64,0-3.22,1.77-5.2,3.98-7.08C27.72,1.23,30.6,.44,33.61,.16c.79-.07,1.64,.37,2.53-.16Zm-12.67,23.2c.34,.62-.62,.84-.54,1.39,.73,.19,1.01-.3,1.3-.66,1.46-1.77,2.87-3.58,4.33-5.35,.66-.8,1.22-1.72,2.27-2.14-.05,.18-.04,.4-.15,.53-2.1,2.34-3.91,4.89-5.8,7.38-.22,.29-.6,.58-.17,.94,.28,.23,.61,.07,.87-.12,.87-.64,1.65-1.33,2.27-2.24,1.49-2.17,3.01-4.31,4.78-6.29,.93-1.05,1.77-2.18,2.2-3.64-.61,.09-.86,.54-1.18,.88-.89,.93-1.73,1.93-2.87,2.61,.03-.85,.74-1.27,1.24-1.79,.63-.65,.89-1.42,1.23-2.24-.48-.05-.66,.16-.81,.35-2.29,2.75-4.56,5.52-6.87,8.25-.66,.78-1.01,1.86-2.14,2.2-.12-.58,.3-.9,.62-1.28,2.09-2.49,4.17-4.98,6.24-7.48,.46-.55,.99-1.08,1.16-1.96-.98-.01-1.67,.17-2.22,.94-.84,1.16-1.79,2.25-2.68,3.38-.21,.27-.41,.46-.78,.4,.33-1.63,2.11-2.39,2.58-3.99-2.57,.47-2.53,.49-3.84,2.2-.8,1.05-1.31,2.27-2.22,3.24-.57,.61-.43,1.3-.15,2.1,1.1-.56,1.58-1.45,2.21-2.22,.42-.52,.7-1.2,1.46-1.38-.59,1.8-1.86,3.16-3.23,4.41-.76,.69-1.05,1.3-.56,2.19,.59-.1,.85-.71,1.44-.58Zm-.92-12.2c1.36-.85,2.47-2.08,2.91-3.34,.38-1.07,.98-1.79,1.61-2.6,.7-.9,1.59-1.69,2.04-2.92-4.7,1.94-7.23,5.36-6.55,8.86Zm-.08,2.59c.39,0,.59-.27,.77-.5,2.17-2.79,4.19-5.7,6.79-8.15,.68-.64,1.14-1.49,1.71-2.24,.27-.36,.58-.82,.24-1.17-.4-.4-.94-.13-1.41,.09-.38,.18-.46,.57-.69,.86-2.2,2.8-3.74,6.06-6.28,8.63-.35,.35-.61,.8-.96,1.15-.42,.43-.42,.86-.18,1.33Zm4.45,11.67c1.1,.45,1.61-.18,2.08-.88,1.37-2.09,2.74-4.19,4.42-6.05,.98-1.09,1.24-2.43,1.87-3.65-3.27,3.15-5.63,6.95-8.37,10.58Zm2.63-.11c.65,.45,.97,.21,1.3-.29,1.16-1.78,2.5-3.45,3.8-5.13,.46-.59,1.09-1.32,.61-2.34-.93,.63-1.42,1.45-2.02,2.17-1.41,1.68-2.61,3.51-3.69,5.59Zm6.16-5.16c-1.82,1.46-2.73,3.1-3.79,4.62-.22,.31-.4,.67,0,.98,.4,.31,.87,.4,1.2,0,1.25-1.54,2.59-3.06,2.58-5.6Zm-9.41-9.63c-1.1,1.01-1.76,2.07-2.47,3.08-1.53,2.19-1.51,2.2-1.22,3.41,1.23-1.53,2.41-2.98,3.57-4.46,.43-.54,.35-1.17,.13-2.04Zm5.31-6.14c.08,.44,.33,.59,.68,.49,.49-.13,1.97-2.14,1.93-2.61-.01-.16-.14-.34-.27-.46-.15-.13-.36-.07-.51,.05-.85,.69-1.16,1.74-1.83,2.52Zm3-.8c-.4,.44-.97,.75-.76,1.45,.07,.24,.45,.3,.65,.18,.65-.41,.61-.95,.11-1.63Zm-.03,21.97c1.38,.14,1.33-.55,1.1-1.34-.01-.04-.21-.02-.34-.04-.37,.33-.55,.77-.76,1.38Z"/>
</svg>
 