<?xml version="1.0" encoding="utf-8"?>
<!-- Generator: Adobe Illustrator 26.1.0, SVG Export Plug-In . SVG Version: 6.00 Build 0)  -->
<svg version="1.1" id="Layer_1" xmlns="http://www.w3.org/2000/svg" xmlns:xlink="http://www.w3.org/1999/xlink" x="0px" y="0px"
	 viewBox="0 0 248 158" style="enable-background:new 0 0 248 158;" xml:space="preserve">
<g>
	<g>
		<path d="M232.3,157.9c0.6-1.2,0.7-2.3,0.5-3.5c-0.1-0.5-0.1-1-0.1-1.5c0.1-1.2,0.2-1.2,1.4-1.1c0.9,0.1,1.8,0.6,2.8,0.3
			c3.3-0.9,4.5-3.1,3.7-6.6c-0.1,0-0.3-0.1-0.4,0c-2.1,1.1-4.4,0.5-6.6,1.1c-0.3,0.1-0.8,0-0.8-0.3c-0.1-0.9-0.8-1.5-0.7-2.5
			c0.2-3.1,0-6.2-0.6-9.2c0-0.2,0-0.4,0-0.6c-0.2-2.2-0.2-2.2,2.1-2.7c0.5-0.1,1.1-0.2,1.4-0.5c0.7-0.6,1-0.4,1.7,0.2
			c0.9,0.8,2.4,0.8,3.5,0.6c2.4-0.4,4.6,0.3,6.9,0.6c0.6,0.1,0.6,0.5,0.6,1c0,1.2,0.1,2.4-0.1,3.6c-0.6,3.6-0.5,7.1-0.5,10.7
			c0,3.2-1.8,5.2-4,7.1c-2.4,2-5.3,2.8-8.3,3.1C234,157.8,233.2,157.4,232.3,157.9z M245,134.5c-0.3-0.6,0.6-0.8,0.5-1.4
			c-0.7-0.2-1,0.3-1.3,0.7c-1.5,1.8-2.9,3.6-4.4,5.4c-0.7,0.8-1.2,1.7-2.3,2.2c0-0.2,0-0.4,0.1-0.5c2.1-2.4,3.9-4.9,5.8-7.4
			c0.2-0.3,0.6-0.6,0.2-0.9c-0.3-0.2-0.6-0.1-0.9,0.1c-0.9,0.6-1.7,1.3-2.3,2.3c-1.5,2.2-3,4.3-4.8,6.3c-0.9,1.1-1.8,2.2-2.2,3.7
			c0.6-0.1,0.9-0.5,1.2-0.9c0.9-0.9,1.7-1.9,2.9-2.6c0,0.9-0.7,1.3-1.3,1.8c-0.6,0.7-0.9,1.4-1.2,2.3c0.5,0.1,0.7-0.2,0.8-0.3
			c2.3-2.8,4.6-5.6,6.9-8.3C243.6,135.9,243.9,134.8,245,134.5c0.2,0.5-0.3,0.9-0.6,1.3c-2.1,2.5-4.2,5-6.3,7.5
			c-0.5,0.6-1,1.1-1.2,2c1,0,1.7-0.2,2.2-0.9c0.8-1.2,1.8-2.3,2.7-3.4c0.2-0.3,0.4-0.5,0.8-0.4c-0.3,1.6-2.1,2.4-2.6,4
			c2.6-0.5,2.6-0.5,3.9-2.2c0.8-1.1,1.3-2.3,2.2-3.3c0.6-0.6,0.4-1.3,0.2-2.1c-1.1,0.6-1.6,1.5-2.2,2.2c-0.4,0.5-0.7,1.2-1.5,1.4
			c0.6-1.8,1.9-3.2,3.3-4.4c0.8-0.7,1.1-1.3,0.6-2.2C245.9,134.1,245.6,134.7,245,134.5z M246,146.8c-1.4,0.9-2.5,2.1-2.9,3.4
			c-0.4,1.1-1,1.8-1.6,2.6c-0.7,0.9-1.6,1.7-2,2.9C244.1,153.8,246.7,150.4,246,146.8z M246.1,144.2c-0.4,0-0.6,0.3-0.8,0.5
			c-2.2,2.8-4.2,5.7-6.8,8.2c-0.7,0.6-1.2,1.5-1.7,2.3c-0.3,0.4-0.6,0.8-0.2,1.2c0.4,0.4,0.9,0.1,1.4-0.1c0.4-0.2,0.5-0.6,0.7-0.9
			c2.2-2.8,3.8-6.1,6.3-8.7c0.4-0.4,0.6-0.8,1-1.2C246.3,145.1,246.3,144.7,246.1,144.2z M241.6,132.5c-1.1-0.5-1.6,0.2-2.1,0.9
			c-1.4,2.1-2.8,4.2-4.5,6.1c-1,1.1-1.3,2.5-1.9,3.7C236.4,140,238.8,136.1,241.6,132.5z M238.9,132.6c-0.7-0.5-1-0.2-1.3,0.3
			c-1.2,1.8-2.5,3.5-3.8,5.2c-0.5,0.6-1.1,1.3-0.6,2.4c0.9-0.6,1.4-1.5,2-2.2C236.6,136.5,237.8,134.7,238.9,132.6z M232.7,137.8
			c1.8-1.5,2.7-3.1,3.8-4.7c0.2-0.3,0.4-0.7,0-1c-0.4-0.3-0.9-0.4-1.2,0C234.1,133.7,232.7,135.2,232.7,137.8z M242.2,147.5
			c1.1-1,1.8-2.1,2.5-3.1c1.5-2.2,1.5-2.2,1.2-3.4c-1.2,1.5-2.4,3-3.6,4.5C241.9,146,242,146.6,242.2,147.5z M236.9,153.7
			c-0.1-0.4-0.3-0.6-0.7-0.5c-0.5,0.1-2,2.2-1.9,2.6c0,0.2,0.1,0.3,0.3,0.5c0.2,0.1,0.4,0.1,0.5,0
			C235.9,155.5,236.2,154.4,236.9,153.7z M233.8,154.5c0.4-0.4,1-0.8,0.8-1.5c-0.1-0.2-0.5-0.3-0.7-0.2
			C233.3,153.2,233.3,153.8,233.8,154.5z M233.9,132.3c-1.4-0.1-1.3,0.6-1.1,1.4c0,0,0.2,0,0.3,0C233.5,133.4,233.7,133,233.9,132.3
			z"/>
	</g>
	<g>
		<path d="M211.3,158.2c0.6-1.2,0.7-2.3,0.5-3.5c-0.1-0.5-0.1-1-0.1-1.5c0.1-1.2,0.2-1.2,1.4-1.1c0.9,0.1,1.8,0.6,2.8,0.3
			c3.3-0.9,4.5-3.1,3.7-6.6c-0.1,0-0.3-0.1-0.4,0c-2.1,1.1-4.4,0.5-6.6,1.1c-0.3,0.1-0.8,0-0.8-0.3c-0.1-0.9-0.8-1.5-0.7-2.5
			c0.2-3.1,0-6.2-0.6-9.2c0-0.2,0-0.4,0-0.6c-0.2-2.2-0.2-2.2,2.1-2.7c0.5-0.1,1.1-0.2,1.4-0.5c0.7-0.6,1-0.4,1.7,0.2
			c0.9,0.8,2.4,0.8,3.5,0.6c2.4-0.4,4.6,0.3,6.9,0.6c0.6,0.1,0.6,0.5,0.6,1c0,1.2,0.1,2.4-0.1,3.6c-0.6,3.6-0.5,7.1-0.5,10.7
			c0,3.2-1.8,5.2-4,7.1c-2.4,2-5.3,2.8-8.3,3.1C213.1,158.1,212.2,157.7,211.3,158.2z M224.1,134.9c-0.3-0.6,0.6-0.8,0.5-1.4
			c-0.7-0.2-1,0.3-1.3,0.7c-1.5,1.8-2.9,3.6-4.4,5.4c-0.7,0.8-1.2,1.7-2.3,2.2c0-0.2,0-0.4,0.1-0.5c2.1-2.4,3.9-4.9,5.8-7.4
			c0.2-0.3,0.6-0.6,0.2-0.9c-0.3-0.2-0.6-0.1-0.9,0.1c-0.9,0.6-1.7,1.3-2.3,2.3c-1.5,2.2-3,4.3-4.8,6.3c-0.9,1.1-1.8,2.2-2.2,3.7
			c0.6-0.1,0.9-0.5,1.2-0.9c0.9-0.9,1.7-1.9,2.9-2.6c0,0.9-0.7,1.3-1.3,1.8c-0.6,0.7-0.9,1.4-1.2,2.3c0.5,0.1,0.7-0.2,0.8-0.3
			c2.3-2.8,4.6-5.6,6.9-8.3C222.7,136.3,223,135.2,224.1,134.9c0.2,0.5-0.3,0.9-0.6,1.3c-2.1,2.5-4.2,5-6.3,7.5
			c-0.5,0.6-1,1.1-1.2,2c1,0,1.7-0.2,2.2-0.9c0.8-1.2,1.8-2.3,2.7-3.4c0.2-0.3,0.4-0.5,0.8-0.4c-0.3,1.6-2.1,2.4-2.6,4
			c2.6-0.5,2.6-0.5,3.9-2.2c0.8-1.1,1.3-2.3,2.2-3.3c0.6-0.6,0.4-1.3,0.2-2.1c-1.1,0.6-1.6,1.5-2.2,2.2c-0.4,0.5-0.7,1.2-1.5,1.4
			c0.6-1.8,1.9-3.2,3.3-4.4c0.8-0.7,1.1-1.3,0.6-2.2C225,134.4,224.7,135,224.1,134.9z M225,147.2c-1.4,0.9-2.5,2.1-2.9,3.4
			c-0.4,1.1-1,1.8-1.6,2.6c-0.7,0.9-1.6,1.7-2,2.9C223.2,154.1,225.7,150.7,225,147.2z M225.1,144.5c-0.4,0-0.6,0.3-0.8,0.5
			c-2.2,2.8-4.2,5.7-6.8,8.2c-0.7,0.6-1.2,1.5-1.7,2.3c-0.3,0.4-0.6,0.8-0.2,1.2c0.4,0.4,0.9,0.1,1.4-0.1c0.4-0.2,0.5-0.6,0.7-0.9
			c2.2-2.8,3.8-6.1,6.3-8.7c0.4-0.4,0.6-0.8,1-1.2C225.4,145.5,225.4,145,225.1,144.5z M220.6,132.8c-1.1-0.5-1.6,0.2-2.1,0.9
			c-1.4,2.1-2.8,4.2-4.5,6.1c-1,1.1-1.3,2.5-1.9,3.7C215.5,140.3,217.9,136.5,220.6,132.8z M218,132.9c-0.7-0.5-1-0.2-1.3,0.3
			c-1.2,1.8-2.5,3.5-3.8,5.2c-0.5,0.6-1.1,1.3-0.6,2.4c0.9-0.6,1.4-1.5,2-2.2C215.7,136.8,216.9,135,218,132.9z M211.8,138.1
			c1.8-1.5,2.7-3.1,3.8-4.7c0.2-0.3,0.4-0.7,0-1c-0.4-0.3-0.9-0.4-1.2,0C213.1,134,211.8,135.5,211.8,138.1z M221.3,147.8
			c1.1-1,1.8-2.1,2.5-3.1c1.5-2.2,1.5-2.2,1.2-3.4c-1.2,1.5-2.4,3-3.6,4.5C221,146.3,221,146.9,221.3,147.8z M215.9,154
			c-0.1-0.4-0.3-0.6-0.7-0.5c-0.5,0.1-2,2.2-1.9,2.6c0,0.2,0.1,0.3,0.3,0.5c0.2,0.1,0.4,0.1,0.5,0
			C214.9,155.8,215.3,154.8,215.9,154z M212.9,154.8c0.4-0.4,1-0.8,0.8-1.5c-0.1-0.2-0.5-0.3-0.7-0.2
			C212.4,153.6,212.4,154.1,212.9,154.8z M212.9,132.7c-1.4-0.1-1.3,0.6-1.1,1.4c0,0,0.2,0,0.3,0
			C212.5,133.7,212.7,133.3,212.9,132.7z"/>
	</g>
	<g>
		<path d="M15.7,1.4c-0.6,1.2-0.7,2.3-0.5,3.5c0.1,0.5,0.1,1,0.1,1.5c-0.1,1.2-0.2,1.2-1.4,1.1c-0.9-0.1-1.8-0.6-2.8-0.3
			c-3.3,0.9-4.5,3.1-3.7,6.6c0.1,0,0.3,0.1,0.4,0c2.1-1.1,4.4-0.5,6.6-1.1c0.3-0.1,0.8,0,0.8,0.3c0.1,0.9,0.8,1.5,0.7,2.5
			c-0.2,3.1,0,6.2,0.6,9.2c0,0.2,0,0.4,0,0.6c0.2,2.2,0.2,2.2-2.1,2.7c-0.5,0.1-1.1,0.2-1.4,0.5c-0.7,0.6-1,0.4-1.7-0.2
			c-0.9-0.8-2.4-0.8-3.5-0.6C5.4,28,3.2,27.4,0.9,27c-0.6-0.1-0.6-0.5-0.6-1c0-1.2-0.1-2.4,0.1-3.6c0.6-3.6,0.5-7.1,0.5-10.7
			c0-3.2,1.8-5.2,4-7.1c2.4-2,5.3-2.8,8.3-3.1C14,1.5,14.8,1.9,15.7,1.4z M3,24.8c0.3,0.6-0.6,0.8-0.5,1.4c0.7,0.2,1-0.3,1.3-0.7
			c1.5-1.8,2.9-3.6,4.4-5.4c0.7-0.8,1.2-1.7,2.3-2.2c0,0.2,0,0.4-0.1,0.5c-2.1,2.4-3.9,4.9-5.8,7.4c-0.2,0.3-0.6,0.6-0.2,0.9
			c0.3,0.2,0.6,0.1,0.9-0.1c0.9-0.6,1.7-1.3,2.3-2.3c1.5-2.2,3-4.3,4.8-6.3c0.9-1.1,1.8-2.2,2.2-3.7c-0.6,0.1-0.9,0.5-1.2,0.9
			c-0.9,0.9-1.7,1.9-2.9,2.6c0-0.9,0.7-1.3,1.3-1.8c0.6-0.7,0.9-1.4,1.2-2.3c-0.5-0.1-0.7,0.2-0.8,0.3c-2.3,2.8-4.6,5.6-6.9,8.3
			C4.4,23.4,4.1,24.5,3,24.8c-0.2-0.5,0.3-0.9,0.6-1.3c2.1-2.5,4.2-5,6.3-7.5c0.5-0.6,1-1.1,1.2-2c-1,0-1.7,0.2-2.2,0.9
			c-0.8,1.2-1.8,2.3-2.7,3.4c-0.2,0.3-0.4,0.5-0.8,0.4c0.3-1.6,2.1-2.4,2.6-4C5.3,15.2,5.3,15.2,4,17c-0.8,1.1-1.3,2.3-2.2,3.3
			c-0.6,0.6-0.4,1.3-0.2,2.1c1.1-0.6,1.6-1.5,2.2-2.2c0.4-0.5,0.7-1.2,1.5-1.4c-0.6,1.8-1.9,3.2-3.3,4.4c-0.8,0.7-1.1,1.3-0.6,2.2
			C2.1,25.2,2.4,24.6,3,24.8z M2,12.5c1.4-0.9,2.5-2.1,2.9-3.4c0.4-1.1,1-1.8,1.6-2.6c0.7-0.9,1.6-1.7,2-2.9C3.9,5.5,1.3,9,2,12.5z
			 M1.9,15.1c0.4,0,0.6-0.3,0.8-0.5c2.2-2.8,4.2-5.7,6.8-8.2c0.7-0.6,1.2-1.5,1.7-2.3c0.3-0.4,0.6-0.8,0.2-1.2
			c-0.4-0.4-0.9-0.1-1.4,0.1C9.7,3.2,9.6,3.6,9.4,3.9C7.2,6.7,5.6,10,3.1,12.6c-0.4,0.4-0.6,0.8-1,1.2C1.7,14.2,1.7,14.6,1.9,15.1z
			 M6.4,26.8C7.5,27.3,8,26.7,8.5,26c1.4-2.1,2.8-4.2,4.5-6.1c1-1.1,1.3-2.5,1.9-3.7C11.6,19.4,9.2,23.2,6.4,26.8z M9.1,26.7
			c0.7,0.5,1,0.2,1.3-0.3c1.2-1.8,2.5-3.5,3.8-5.2c0.5-0.6,1.1-1.3,0.6-2.4c-0.9,0.6-1.4,1.5-2,2.2C11.4,22.8,10.2,24.6,9.1,26.7z
			 M15.3,21.5c-1.8,1.5-2.7,3.1-3.8,4.7c-0.2,0.3-0.4,0.7,0,1c0.4,0.3,0.9,0.4,1.2,0C13.9,25.6,15.3,24.1,15.3,21.5z M5.8,11.8
			c-1.1,1-1.8,2.1-2.5,3.1c-1.5,2.2-1.5,2.2-1.2,3.4c1.2-1.5,2.4-3,3.6-4.5C6.1,13.3,6,12.7,5.8,11.8z M11.1,5.7
			c0.1,0.4,0.3,0.6,0.7,0.5c0.5-0.1,2-2.2,1.9-2.6c0-0.2-0.1-0.3-0.3-0.5c-0.2-0.1-0.4-0.1-0.5,0C12.1,3.8,11.8,4.9,11.1,5.7z
			 M14.2,4.9c-0.4,0.4-1,0.8-0.8,1.5c0.1,0.2,0.5,0.3,0.7,0.2C14.7,6.1,14.7,5.5,14.2,4.9z M14.1,27c1.4,0.1,1.3-0.6,1.1-1.4
			c0,0-0.2,0-0.3,0C14.5,25.9,14.3,26.4,14.1,27z"/>
	</g>
	<g>
		<path d="M36.7,1.1c-0.6,1.2-0.7,2.3-0.5,3.5c0.1,0.5,0.1,1,0.1,1.5c-0.1,1.2-0.2,1.2-1.4,1.1C33.9,7.1,33,6.6,32,6.9
			c-3.3,0.9-4.5,3.1-3.7,6.6c0.1,0,0.3,0.1,0.4,0c2.1-1.1,4.4-0.5,6.6-1.1c0.3-0.1,0.8,0,0.8,0.3c0.1,0.9,0.8,1.5,0.7,2.5
			c-0.2,3.1,0,6.2,0.6,9.2c0,0.2,0,0.4,0,0.6c0.2,2.2,0.2,2.2-2.1,2.7c-0.5,0.1-1.1,0.2-1.4,0.5c-0.7,0.6-1,0.4-1.7-0.2
			c-0.9-0.8-2.4-0.8-3.5-0.6c-2.4,0.4-4.6-0.3-6.9-0.6c-0.6-0.1-0.6-0.5-0.6-1c0-1.2-0.1-2.4,0.1-3.6c0.6-3.6,0.5-7.1,0.5-10.7
			c0-3.2,1.8-5.2,4-7.1c2.4-2,5.3-2.8,8.3-3.1C34.9,1.2,35.8,1.6,36.7,1.1z M23.9,24.5c0.3,0.6-0.6,0.8-0.5,1.4
			c0.7,0.2,1-0.3,1.3-0.7c1.5-1.8,2.9-3.6,4.4-5.4c0.7-0.8,1.2-1.7,2.3-2.2c0,0.2,0,0.4-0.1,0.5c-2.1,2.4-3.9,4.9-5.8,7.4
			c-0.2,0.3-0.6,0.6-0.2,0.9c0.3,0.2,0.6,0.1,0.9-0.1c0.9-0.6,1.7-1.3,2.3-2.3c1.5-2.2,3-4.3,4.8-6.3c0.9-1.1,1.8-2.2,2.2-3.7
			c-0.6,0.1-0.9,0.5-1.2,0.9c-0.9,0.9-1.7,1.9-2.9,2.6c0-0.9,0.7-1.3,1.3-1.8c0.6-0.7,0.9-1.4,1.2-2.3c-0.5-0.1-0.7,0.2-0.8,0.3
			c-2.3,2.8-4.6,5.6-6.9,8.3C25.3,23.1,25,24.1,23.9,24.5c-0.2-0.5,0.3-0.9,0.6-1.3c2.1-2.5,4.2-5,6.3-7.5c0.5-0.6,1-1.1,1.2-2
			c-1,0-1.7,0.2-2.2,0.9c-0.8,1.2-1.8,2.3-2.7,3.4c-0.2,0.3-0.4,0.5-0.8,0.4c0.3-1.6,2.1-2.4,2.6-4c-2.6,0.5-2.6,0.5-3.9,2.2
			c-0.8,1.1-1.3,2.3-2.2,3.3c-0.6,0.6-0.4,1.3-0.2,2.1c1.1-0.6,1.6-1.5,2.2-2.2c0.4-0.5,0.7-1.2,1.5-1.4c-0.6,1.8-1.9,3.2-3.3,4.4
			c-0.8,0.7-1.1,1.3-0.6,2.2C23,24.9,23.3,24.3,23.9,24.5z M23,12.2c1.4-0.9,2.5-2.1,2.9-3.4c0.4-1.1,1-1.8,1.6-2.6
			c0.7-0.9,1.6-1.7,2-2.9C24.8,5.2,22.3,8.6,23,12.2z M22.9,14.8c0.4,0,0.6-0.3,0.8-0.5c2.2-2.8,4.2-5.7,6.8-8.2
			c0.7-0.6,1.2-1.5,1.7-2.3c0.3-0.4,0.6-0.8,0.2-1.2c-0.4-0.4-0.9-0.1-1.4,0.1c-0.4,0.2-0.5,0.6-0.7,0.9c-2.2,2.8-3.8,6.1-6.3,8.7
			c-0.4,0.4-0.6,0.8-1,1.2C22.6,13.9,22.6,14.3,22.9,14.8z M27.4,26.5c1.1,0.5,1.6-0.2,2.1-0.9c1.4-2.1,2.8-4.2,4.5-6.1
			c1-1.1,1.3-2.5,1.9-3.7C32.5,19,30.1,22.9,27.4,26.5z M30,26.4c0.7,0.5,1,0.2,1.3-0.3c1.2-1.8,2.5-3.5,3.8-5.2
			c0.5-0.6,1.1-1.3,0.6-2.4c-0.9,0.6-1.4,1.5-2,2.2C32.3,22.5,31.1,24.3,30,26.4z M36.2,21.2c-1.8,1.5-2.7,3.1-3.8,4.7
			c-0.2,0.3-0.4,0.7,0,1c0.4,0.3,0.9,0.4,1.2,0C34.9,25.3,36.2,23.8,36.2,21.2z M26.7,11.5c-1.1,1-1.8,2.1-2.5,3.1
			c-1.5,2.2-1.5,2.2-1.2,3.4c1.2-1.5,2.4-3,3.6-4.5C27,13,27,12.4,26.7,11.5z M32.1,5.3c0.1,0.4,0.3,0.6,0.7,0.5
			c0.5-0.1,2-2.2,1.9-2.6c0-0.2-0.1-0.3-0.3-0.5c-0.2-0.1-0.4-0.1-0.5,0C33.1,3.5,32.7,4.6,32.1,5.3z M35.1,4.5
			c-0.4,0.4-1,0.8-0.8,1.5c0.1,0.2,0.5,0.3,0.7,0.2C35.6,5.8,35.6,5.2,35.1,4.5z M35.1,26.7c1.4,0.1,1.3-0.6,1.1-1.4
			c0,0-0.2,0-0.3,0C35.5,25.6,35.3,26,35.1,26.7z"/>
	</g>
</g>
</svg>
