<?xml version="1.0" encoding="utf-8"?>
<!-- Generator: Adobe Illustrator 26.1.0, SVG Export Plug-In . SVG Version: 6.00 Build 0)  -->
<svg version="1.1" id="a" xmlns="http://www.w3.org/2000/svg" xmlns:xlink="http://www.w3.org/1999/xlink" x="0px" y="0px"
	 viewBox="0 0 37.2 27.7" style="enable-background:new 0 0 37.2 27.7;" xml:space="preserve">
<style type="text/css">
	.st0{fill:#BB8760;}
</style>
<path class="st0" d="M15.4,0.3c-0.6,1.2-0.8,2.3-0.5,3.5c0.1,0.5,0.1,1,0.1,1.5c-0.1,1.2-0.2,1.2-1.4,1.1c-0.9-0.1-1.8-0.6-2.8-0.3
	C7.5,7,6.2,9.2,7.1,12.7c0.1,0,0.3,0.1,0.4,0c2.1-1.1,4.4-0.5,6.6-1.1c0.3-0.1,0.8-0.1,0.8,0.3c0.1,0.9,0.8,1.5,0.7,2.5
	c-0.2,3.1,0,6.2,0.6,9.2c0,0.2,0,0.4,0,0.6c0.2,2.2,0.2,2.2-2.1,2.7c-0.5,0.1-1.1,0.2-1.4,0.5c-0.7,0.6-1,0.4-1.7-0.1
	c-0.9-0.8-2.4-0.8-3.5-0.6C5.1,27,2.9,26.3,0.6,26C0,25.9,0,25.4,0,25c0-1.2-0.1-2.4,0.1-3.6c0.6-3.6,0.5-7.1,0.5-10.7
	c0-3.2,1.8-5.2,4-7.1c2.4-2,5.3-2.8,8.3-3.1C13.7,0.4,14.5,0.9,15.4,0.3z M2.7,23.7c0.3,0.6-0.6,0.8-0.5,1.4c0.7,0.2,1-0.3,1.3-0.7
	c1.5-1.8,2.9-3.6,4.4-5.4c0.7-0.8,1.2-1.7,2.3-2.2c-0.1,0.2,0,0.4-0.1,0.5c-2.1,2.4-3.9,4.9-5.8,7.4c-0.2,0.3-0.6,0.6-0.2,0.9
	c0.3,0.2,0.6,0.1,0.9-0.1c0.9-0.6,1.7-1.3,2.3-2.2c1.5-2.2,3-4.3,4.8-6.3c0.9-1,1.8-2.2,2.2-3.7c-0.6,0.1-0.9,0.6-1.2,0.9
	c-0.9,0.9-1.7,1.9-2.9,2.6c0-0.9,0.8-1.3,1.2-1.8c0.6-0.7,0.9-1.4,1.2-2.3c-0.5-0.1-0.7,0.2-0.8,0.4c-2.3,2.8-4.6,5.6-6.9,8.3
	C4.2,22.3,3.8,23.4,2.7,23.7c-0.1-0.5,0.3-0.9,0.6-1.2c2.1-2.5,4.2-5,6.3-7.5c0.5-0.6,1-1.1,1.2-2c-1,0-1.7,0.2-2.2,0.9
	c-0.8,1.2-1.8,2.3-2.7,3.4c-0.2,0.3-0.4,0.5-0.8,0.4c0.3-1.6,2.1-2.4,2.6-4c-2.6,0.5-2.5,0.5-3.9,2.2c-0.8,1.1-1.3,2.3-2.2,3.3
	c-0.6,0.6-0.4,1.3-0.1,2.1C2.5,20.7,3,19.8,3.6,19c0.4-0.5,0.7-1.2,1.5-1.4c-0.6,1.8-1.9,3.2-3.2,4.4c-0.8,0.7-1.1,1.3-0.6,2.2
	C1.9,24.2,2.1,23.6,2.7,23.7L2.7,23.7z M1.8,11.4C3.1,10.5,4.2,9.3,4.7,8c0.4-1.1,1-1.8,1.6-2.6c0.7-0.9,1.6-1.7,2-2.9
	C3.6,4.4,1.1,7.9,1.8,11.4z M1.7,14c0.4,0,0.6-0.3,0.8-0.5c2.2-2.8,4.2-5.7,6.8-8.2C10,4.6,10.4,3.8,11,3c0.3-0.4,0.6-0.8,0.2-1.2
	c-0.4-0.4-0.9-0.1-1.4,0.1C9.5,2.1,9.4,2.5,9.2,2.8c-2.2,2.8-3.8,6.1-6.3,8.7c-0.3,0.4-0.6,0.8-1,1.2C1.4,13.1,1.4,13.5,1.7,14z
	 M6.2,25.8c1.1,0.5,1.6-0.2,2.1-0.9c1.4-2.1,2.8-4.2,4.4-6.1c1-1.1,1.2-2.5,1.9-3.7C11.3,18.3,8.9,22.1,6.2,25.8L6.2,25.8z
	 M8.8,25.6c0.6,0.5,1,0.2,1.3-0.3c1.2-1.8,2.5-3.5,3.8-5.2c0.5-0.6,1.1-1.3,0.6-2.4c-0.9,0.6-1.4,1.5-2,2.2
	C11.1,21.7,9.9,23.5,8.8,25.6z M15,20.4c-1.8,1.5-2.8,3.1-3.8,4.6c-0.2,0.3-0.4,0.7,0,1c0.4,0.3,0.9,0.4,1.2,0
	C13.6,24.5,15,23,15,20.4L15,20.4z M5.5,10.8c-1.1,1-1.8,2.1-2.5,3.1c-1.5,2.2-1.5,2.2-1.2,3.4c1.2-1.5,2.4-3,3.6-4.5
	C5.8,12.3,5.8,11.6,5.5,10.8z M10.9,4.6C11,5,11.2,5.2,11.6,5.1c0.5-0.1,2-2.2,1.9-2.6c0-0.2-0.1-0.3-0.3-0.5
	c-0.1-0.1-0.4-0.1-0.5,0C11.9,2.7,11.5,3.8,10.9,4.6z M13.9,3.8c-0.4,0.4-1,0.8-0.8,1.5c0.1,0.2,0.4,0.3,0.6,0.2
	C14.4,5,14.4,4.4,13.9,3.8z M13.9,25.9c1.4,0.1,1.3-0.5,1.1-1.4c0,0-0.2,0-0.4,0C14.3,24.8,14.1,25.3,13.9,25.9z"/>
<path class="st0" d="M36.4,0c-0.6,1.2-0.8,2.3-0.5,3.5C36,4,36,4.5,36,5c-0.1,1.2-0.2,1.2-1.4,1.1c-1-0.1-1.8-0.6-2.8-0.3
	c-3.3,0.9-4.5,3.1-3.7,6.6c0.1,0,0.3,0.1,0.4,0c2.1-1.1,4.4-0.5,6.6-1.1c0.3-0.1,0.8-0.1,0.8,0.3c0.1,0.9,0.8,1.5,0.7,2.5
	c-0.2,3.1,0,6.2,0.6,9.2c0,0.2,0,0.4,0,0.6c0.2,2.2,0.2,2.2-2.1,2.7c-0.5,0.1-1.1,0.2-1.4,0.5c-0.7,0.6-1,0.4-1.7-0.1
	c-0.9-0.8-2.4-0.8-3.5-0.6c-2.4,0.4-4.6-0.3-6.9-0.6c-0.6-0.1-0.6-0.5-0.6-1c0-1.2-0.1-2.4,0.1-3.6c0.5-3.6,0.5-7.1,0.5-10.7
	c0-3.2,1.8-5.2,4-7.1c2.4-2,5.3-2.8,8.3-3.1C34.6,0.1,35.5,0.5,36.4,0z M23.6,23.4c0.3,0.6-0.6,0.8-0.5,1.4c0.7,0.2,1-0.3,1.3-0.7
	c1.5-1.8,2.9-3.6,4.4-5.4c0.7-0.8,1.2-1.7,2.3-2.2c0,0.2,0,0.4-0.1,0.5C28.8,19.4,27,22,25,24.5c-0.2,0.3-0.6,0.6-0.2,0.9
	c0.3,0.2,0.6,0.1,0.9-0.1c0.9-0.6,1.7-1.3,2.3-2.2c1.5-2.2,3-4.3,4.8-6.3c0.9-1.1,1.8-2.2,2.2-3.7c-0.6,0.1-0.9,0.6-1.2,0.9
	c-0.9,0.9-1.7,1.9-2.9,2.6c0-0.9,0.8-1.3,1.2-1.8c0.6-0.7,0.9-1.4,1.2-2.3c-0.5-0.1-0.7,0.2-0.8,0.4c-2.3,2.8-4.6,5.6-6.9,8.3
	C25.1,22,24.8,23.1,23.6,23.4c-0.1-0.5,0.3-0.9,0.6-1.2c2.1-2.5,4.2-5,6.3-7.5c0.5-0.6,1-1.1,1.2-2c-1,0-1.7,0.2-2.2,0.9
	c-0.8,1.2-1.8,2.3-2.7,3.4c-0.2,0.3-0.4,0.5-0.8,0.4c0.3-1.6,2.1-2.4,2.6-4c-2.6,0.5-2.5,0.5-3.9,2.2c-0.8,1.1-1.3,2.3-2.2,3.3
	c-0.6,0.6-0.4,1.3-0.1,2.1c1.1-0.6,1.6-1.5,2.2-2.2c0.4-0.5,0.7-1.2,1.5-1.4c-0.6,1.8-1.9,3.2-3.2,4.4c-0.8,0.7-1.1,1.3-0.6,2.2
	C22.8,23.9,23.1,23.3,23.6,23.4L23.6,23.4z M22.7,11.1c1.4-0.9,2.5-2.1,2.9-3.4c0.4-1.1,1-1.8,1.6-2.6c0.7-0.9,1.6-1.7,2-2.9
	C24.6,4.1,22,7.6,22.7,11.1z M22.6,13.7c0.4,0,0.6-0.3,0.8-0.5c2.2-2.8,4.2-5.7,6.8-8.2c0.7-0.6,1.1-1.5,1.7-2.2
	c0.3-0.4,0.6-0.8,0.2-1.2c-0.4-0.4-1-0.1-1.4,0.1c-0.4,0.2-0.5,0.6-0.7,0.9c-2.2,2.8-3.8,6.1-6.3,8.7c-0.4,0.4-0.6,0.8-1,1.2
	C22.4,12.8,22.4,13.2,22.6,13.7z M27.1,25.4c1.1,0.5,1.6-0.2,2.1-0.9c1.4-2.1,2.8-4.2,4.5-6.1c1-1.1,1.2-2.4,1.9-3.7
	C32.2,17.9,29.9,21.8,27.1,25.4L27.1,25.4z M29.7,25.3c0.6,0.5,1,0.2,1.3-0.3c1.2-1.8,2.5-3.5,3.8-5.2c0.5-0.6,1.1-1.3,0.6-2.4
	c-0.9,0.6-1.4,1.5-2,2.2C32.1,21.4,30.8,23.2,29.7,25.3z M35.9,20.1c-1.8,1.5-2.8,3.1-3.8,4.6c-0.2,0.3-0.4,0.7,0,1
	c0.4,0.3,0.9,0.4,1.2,0C34.6,24.2,35.9,22.7,35.9,20.1L35.9,20.1z M26.5,10.4c-1.1,1-1.8,2.1-2.5,3.1c-1.5,2.2-1.5,2.2-1.2,3.4
	c1.2-1.5,2.4-3,3.6-4.5C26.8,11.9,26.7,11.3,26.5,10.4z M31.8,4.2c0.1,0.4,0.3,0.6,0.7,0.5c0.5-0.1,2-2.2,2-2.6
	c0-0.2-0.1-0.4-0.3-0.5c-0.2-0.1-0.4-0.1-0.5,0C32.8,2.4,32.5,3.5,31.8,4.2z M34.8,3.4c-0.4,0.4-1,0.8-0.8,1.5
	c0.1,0.2,0.5,0.3,0.7,0.2C35.4,4.7,35.3,4.1,34.8,3.4z M34.8,25.6c1.4,0.1,1.3-0.5,1.1-1.4c0,0-0.2,0-0.3,0
	C35.2,24.5,35,25,34.8,25.6z"/>
</svg>
