<?xml version="1.0" encoding="utf-8"?>
<!-- Generator: Adobe Illustrator 26.2.1, SVG Export Plug-In . SVG Version: 6.00 Build 0)  -->
<svg version="1.1" id="a" xmlns="http://www.w3.org/2000/svg" xmlns:xlink="http://www.w3.org/1999/xlink" x="0px" y="0px"
	 viewBox="0 0 44.7 31.6" style="enable-background:new 0 0 44.7 31.6;" xml:space="preserve">
<style type="text/css">
	.st0{fill:none;}
</style>
<path class="st0" d="M21,20.4c0,2.5-0.9,4.7-2.8,6.5c-1.8,1.8-3.9,2.7-6.4,2.7c-3.1,0-5.5-1.1-7.3-3.4c-1.8-2.1-2.6-4.7-2.6-7.7
	c0-5.6,4.8-11,14.2-16.2l1.4,2.1c-3.2,2.7-4.8,4.8-4.8,6.4c0,0.5,0.7,1,2,1.5c2,0.7,3.4,1.4,4.1,2.1C20.3,15.8,21,17.7,21,20.4
	L21,20.4z"/>
<path class="st0" d="M42.7,20.4c0,2.5-0.8,4.7-2.5,6.5c-1.8,1.8-4,2.7-6.5,2.7c-3,0-5.5-1.1-7.3-3.4c-1.8-2.1-2.7-4.7-2.7-7.7
	c0-5.6,4.7-11,14.2-16.2l1.5,2.1c-3.3,2.7-5,4.8-5,6.4c0,0.5,0.7,1,2.2,1.5c2,0.7,3.3,1.4,4.1,2.1C42.1,15.8,42.7,17.7,42.7,20.4
	L42.7,20.4z"/>
</svg>
