<?xml version="1.0" encoding="UTF-8"?><svg id="a" xmlns="http://www.w3.org/2000/svg" viewBox="0 0 37.25 27.71"><path d="M15.45,.32c-.6,1.25-.75,2.32-.46,3.48,.12,.48,.08,1,.06,1.5-.06,1.16-.16,1.17-1.42,1.07-.95-.07-1.81-.55-2.84-.28-3.26,.88-4.54,3.08-3.72,6.59,.13,.01,.28,.08,.37,.03,2.07-1.11,4.44-.53,6.6-1.13,.33-.09,.78-.05,.8,.29,.06,.88,.77,1.54,.72,2.48-.16,3.09,.02,6.16,.64,9.2,.04,.18,.03,.38,.04,.56,.17,2.24,.17,2.23-2.12,2.73-.5,.11-1.07,.21-1.44,.51-.69,.56-.98,.44-1.67-.15-.92-.79-2.38-.83-3.51-.64-2.38,.4-4.59-.27-6.86-.6C0,25.86,0,25.44,.01,24.99c.01-1.19-.08-2.4,.1-3.57,.55-3.56,.49-7.15,.48-10.71,0-3.24,1.78-5.24,4-7.13C6.97,1.56,9.87,.76,12.9,.48c.79-.07,1.65,.38,2.55-.16ZM2.69,23.68c.34,.62-.62,.84-.55,1.4,.73,.19,1.01-.31,1.31-.67,1.47-1.79,2.89-3.6,4.36-5.39,.66-.81,1.23-1.73,2.28-2.16-.05,.18-.04,.41-.15,.53-2.11,2.36-3.93,4.92-5.84,7.43-.22,.29-.61,.58-.17,.94,.28,.23,.62,.08,.88-.12,.87-.65,1.66-1.34,2.29-2.25,1.5-2.18,3.03-4.34,4.81-6.33,.94-1.05,1.79-2.19,2.22-3.67-.61,.09-.86,.55-1.19,.89-.9,.94-1.74,1.94-2.88,2.63,.03-.86,.75-1.28,1.25-1.8,.63-.66,.89-1.43,1.24-2.26-.49-.05-.66,.16-.81,.35-2.31,2.77-4.59,5.55-6.91,8.31-.66,.79-1.02,1.87-2.16,2.21-.12-.58,.3-.91,.62-1.29,2.1-2.51,4.2-5.01,6.29-7.53,.46-.56,1-1.09,1.16-1.97-.99-.01-1.68,.17-2.23,.94-.84,1.17-1.8,2.26-2.7,3.4-.21,.27-.41,.46-.78,.4,.34-1.64,2.13-2.4,2.6-4.02-2.58,.47-2.55,.49-3.87,2.22-.8,1.05-1.32,2.28-2.23,3.27-.57,.61-.43,1.31-.15,2.11,1.11-.57,1.6-1.46,2.22-2.23,.43-.53,.7-1.21,1.47-1.39-.6,1.82-1.87,3.18-3.25,4.44-.76,.69-1.06,1.31-.56,2.2,.6-.1,.86-.71,1.45-.58Zm-.93-12.29c1.37-.86,2.48-2.1,2.93-3.36,.38-1.07,.98-1.8,1.62-2.62,.71-.91,1.6-1.7,2.05-2.94C3.63,4.42,1.08,7.87,1.76,11.39Zm-.08,2.61c.39,0,.59-.27,.78-.51,2.19-2.81,4.22-5.73,6.84-8.21,.68-.64,1.15-1.5,1.72-2.25,.27-.36,.59-.83,.24-1.18-.4-.4-.95-.13-1.42,.09-.38,.18-.46,.58-.69,.87-2.22,2.82-3.77,6.1-6.32,8.69-.35,.36-.61,.8-.97,1.16-.43,.43-.43,.86-.18,1.34Zm4.48,11.75c1.11,.45,1.62-.18,2.09-.89,1.38-2.1,2.76-4.22,4.45-6.1,.99-1.1,1.25-2.45,1.88-3.67-3.29,3.17-5.67,7-8.43,10.65Zm2.65-.11c.65,.46,.98,.22,1.31-.29,1.17-1.8,2.51-3.47,3.83-5.16,.47-.6,1.1-1.33,.61-2.36-.94,.64-1.43,1.46-2.03,2.18-1.42,1.7-2.63,3.54-3.72,5.63Zm6.2-5.2c-1.84,1.47-2.75,3.12-3.82,4.65-.22,.31-.41,.67,0,.99,.4,.31,.88,.4,1.21,0,1.25-1.56,2.6-3.08,2.6-5.64ZM5.53,10.75c-1.1,1.02-1.78,2.08-2.49,3.1-1.54,2.21-1.52,2.22-1.23,3.44,1.23-1.54,2.43-3,3.59-4.49,.43-.55,.35-1.18,.13-2.05Zm5.34-6.18c.08,.44,.33,.59,.69,.5,.49-.13,1.99-2.15,1.95-2.63-.01-.16-.14-.35-.28-.46-.15-.13-.37-.07-.52,.05-.85,.7-1.17,1.75-1.84,2.54Zm3.02-.81c-.4,.44-.98,.75-.77,1.46,.07,.24,.45,.3,.65,.18,.65-.41,.61-.96,.12-1.64Zm-.03,22.12c1.39,.14,1.34-.55,1.11-1.35-.01-.04-.21-.03-.35-.04-.37,.33-.55,.78-.76,1.39Z"/><path d="M36.39,0c-.6,1.25-.75,2.32-.46,3.48,.12,.48,.08,1,.06,1.5-.06,1.16-.16,1.17-1.42,1.07-.95-.07-1.81-.55-2.84-.28-3.26,.88-4.54,3.08-3.72,6.59,.13,.01,.28,.08,.37,.03,2.07-1.11,4.44-.53,6.6-1.13,.33-.09,.78-.05,.8,.29,.06,.88,.77,1.54,.72,2.48-.16,3.09,.02,6.16,.64,9.2,.04,.18,.03,.38,.04,.56,.17,2.24,.17,2.23-2.12,2.73-.5,.11-1.07,.21-1.44,.51-.69,.56-.98,.44-1.67-.15-.92-.79-2.38-.83-3.51-.64-2.38,.4-4.59-.27-6.86-.6-.65-.09-.65-.52-.64-.96,.01-1.19-.08-2.4,.1-3.57,.55-3.56,.49-7.15,.48-10.71,0-3.24,1.78-5.24,4-7.13C27.9,1.24,30.8,.44,33.84,.16c.79-.07,1.65,.38,2.55-.16Zm-12.76,23.36c.34,.62-.62,.84-.55,1.4,.73,.19,1.01-.31,1.31-.66,1.47-1.79,2.89-3.6,4.36-5.39,.66-.81,1.23-1.73,2.28-2.16-.05,.18-.04,.41-.15,.53-2.11,2.36-3.93,4.92-5.84,7.43-.22,.29-.61,.58-.17,.94,.28,.23,.62,.08,.88-.12,.87-.65,1.66-1.34,2.29-2.25,1.5-2.18,3.03-4.34,4.81-6.33,.94-1.05,1.79-2.19,2.22-3.67-.61,.09-.86,.55-1.19,.89-.9,.94-1.74,1.94-2.88,2.63,.03-.86,.75-1.28,1.25-1.8,.63-.66,.9-1.43,1.24-2.26-.49-.05-.66,.16-.81,.35-2.31,2.77-4.59,5.55-6.91,8.31-.66,.79-1.02,1.87-2.16,2.21-.12-.58,.3-.91,.62-1.29,2.1-2.51,4.2-5.01,6.29-7.53,.46-.56,1-1.09,1.16-1.97-.99-.01-1.68,.17-2.23,.94-.84,1.17-1.8,2.26-2.7,3.4-.21,.27-.41,.46-.78,.4,.34-1.64,2.13-2.4,2.6-4.02-2.58,.47-2.55,.49-3.87,2.22-.8,1.05-1.32,2.28-2.23,3.27-.57,.61-.43,1.31-.15,2.11,1.11-.57,1.6-1.46,2.22-2.23,.43-.53,.7-1.21,1.47-1.39-.6,1.82-1.87,3.18-3.25,4.44-.76,.69-1.06,1.31-.56,2.2,.6-.1,.86-.71,1.45-.58Zm-.93-12.29c1.37-.86,2.48-2.1,2.93-3.36,.38-1.07,.98-1.8,1.62-2.62,.71-.91,1.6-1.7,2.05-2.94-4.73,1.95-7.28,5.4-6.6,8.92Zm-.08,2.61c.39,0,.59-.27,.78-.51,2.19-2.81,4.22-5.73,6.84-8.21,.68-.64,1.15-1.5,1.72-2.25,.27-.36,.59-.83,.24-1.18-.4-.4-.95-.13-1.42,.09-.38,.18-.46,.58-.69,.87-2.22,2.82-3.77,6.1-6.32,8.69-.35,.36-.61,.8-.97,1.16-.43,.43-.43,.86-.18,1.34Zm4.48,11.75c1.11,.45,1.62-.18,2.09-.89,1.38-2.1,2.76-4.22,4.45-6.1,.99-1.1,1.25-2.45,1.88-3.67-3.29,3.17-5.67,7-8.43,10.65Zm2.65-.11c.65,.46,.98,.22,1.31-.29,1.17-1.8,2.51-3.47,3.83-5.16,.47-.6,1.1-1.33,.61-2.36-.94,.64-1.43,1.46-2.03,2.18-1.42,1.7-2.63,3.54-3.72,5.63Zm6.2-5.2c-1.84,1.47-2.75,3.12-3.82,4.65-.22,.31-.41,.67,0,.99,.4,.31,.88,.4,1.21,0,1.25-1.56,2.6-3.08,2.6-5.64Zm-9.48-9.69c-1.1,1.02-1.78,2.08-2.49,3.1-1.54,2.21-1.52,2.22-1.23,3.44,1.23-1.54,2.43-3,3.59-4.49,.43-.55,.35-1.18,.13-2.05Zm5.34-6.18c.08,.44,.33,.59,.69,.5,.49-.13,1.99-2.15,1.95-2.63-.01-.16-.14-.35-.28-.46-.15-.13-.37-.07-.52,.05-.85,.7-1.17,1.75-1.84,2.54Zm3.02-.81c-.4,.44-.98,.75-.77,1.46,.07,.24,.45,.3,.65,.18,.65-.41,.61-.96,.12-1.64Zm-.03,22.12c1.39,.14,1.34-.55,1.11-1.35-.01-.04-.21-.03-.35-.04-.37,.33-.55,.78-.76,1.39Z"/></svg>