<?xml version="1.0" encoding="utf-8"?>
<!-- Generator: Adobe Illustrator 26.2.1, SVG Export Plug-In . SVG Version: 6.00 Build 0)  -->
<svg version="1.1" id="Layer_1" xmlns="http://www.w3.org/2000/svg" xmlns:xlink="http://www.w3.org/1999/xlink" x="0px" y="0px"
	 viewBox="0 0 130.2 126.5" style="enable-background:new 0 0 130.2 126.5;" xml:space="preserve">
<style type="text/css">
	.st0{fill:#010101;}
	.st1{fill:#BB8760;}
	.st2{opacity:0.13;}
</style>
<path class="st0" d="M37.7,126.4H6.5c-0.5,0-0.9-0.4-0.9-0.8c0,0,0,0,0,0v-23.9c0-0.5,0.4-0.9,0.9-0.9c0,0,0,0,0,0h31.2
	c0.5,0,0.9,0.4,0.9,0.9c0,0,0,0,0,0v23.9C38.5,126,38.1,126.4,37.7,126.4C37.7,126.4,37.7,126.4,37.7,126.4z M7.3,124.6h29.5v-22.2
	H7.3V124.6z"/>
<path class="st0" d="M83.7,126.4H52.5c-0.5,0-0.9-0.4-0.9-0.9l0,0V79.3c0-0.5,0.4-0.9,0.9-0.9h31.2c0.5,0,0.9,0.4,0.9,0.9v46.2
	C84.5,126,84.1,126.4,83.7,126.4C83.7,126.4,83.7,126.4,83.7,126.4z M53.3,124.6h29.5V80.2H53.3L53.3,124.6z"/>
<path class="st0" d="M129.3,126.4H98.1c-0.5,0-0.9-0.4-0.9-0.8c0,0,0,0,0,0V51.9c0-0.5,0.4-0.9,0.8-0.9c0,0,0,0,0,0h31.2
	c0.5,0,0.9,0.4,0.9,0.8c0,0,0,0,0,0v73.6C130.2,126,129.8,126.4,129.3,126.4C129.3,126.4,129.3,126.4,129.3,126.4z M99,124.6h29.5
	V52.8H99V124.6z"/>
<path class="st1" d="M0.9,85.1c-0.5,0-0.9-0.4-0.8-0.9c0-0.4,0.3-0.7,0.6-0.8C25.8,76.7,39.1,70.3,64,55.5
	C88.3,41,109.8,22.3,127.6,0.3c0.3-0.4,0.8-0.4,1.2-0.2c0,0,0,0,0,0c0.4,0.3,0.4,0.8,0.2,1.2c0,0,0,0,0,0
	C112,22.8,89.2,42.5,64.8,57C41,71.2,26.8,78.2,1.1,85.1C1,85.1,0.9,85.1,0.9,85.1z"/>
<path class="st1" d="M125.9,19.3c-0.5,0-0.8-0.4-0.9-0.8c-0.4-5.1,0.2-10.3,1.7-15.2c-5.6,3.1-11.6,5.4-17.9,6.8
	c-0.5,0.1-0.9-0.2-1-0.7s0.2-0.9,0.7-1l0,0c6.8-1.5,13.4-4.1,19.4-7.7c0.3-0.2,0.7-0.2,1,0.1c0.3,0.2,0.4,0.6,0.3,1
	c-1.9,5.3-2.7,11-2.4,16.6C126.8,18.9,126.5,19.3,125.9,19.3C126,19.3,126,19.3,125.9,19.3L125.9,19.3z"/>
<path class="st0" d="M14.4,123c-0.1,0-0.1,0-0.2,0c-1.8-1.3-3.5-2.9-4.9-4.6c-0.1-0.1-0.1-0.3,0-0.4c0.1-0.1,0.3-0.1,0.4,0l0,0
	c1.4,1.7,3,3.2,4.8,4.5c0.1,0.1,0.1,0.3,0.1,0.4C14.6,123,14.5,123,14.4,123z"/>
<path class="st0" d="M21,123c-0.1,0-0.1,0-0.2-0.1c-4.1-3.5-8-7.2-11.7-11.1c-0.1-0.1-0.1-0.3,0-0.4c0.1-0.1,0.3-0.1,0.4,0l0,0
	c3.7,3.9,7.6,7.6,11.7,11.1c0.1,0.1,0.1,0.3,0,0.4c0,0,0,0,0,0C21.2,123,21.1,123,21,123z"/>
<path class="st0" d="M27.2,123.1c-0.1,0-0.1,0-0.2-0.1c-5.5-5.2-10.9-10.6-16.2-16c-0.1-0.1-0.1-0.3,0-0.4c0.1-0.1,0.3-0.1,0.4,0
	c5.3,5.4,10.7,10.8,16.2,16c0.1,0.1,0.1,0.3,0,0.4C27.4,123,27.3,123.1,27.2,123.1z"/>
<path class="st0" d="M33.4,122.6c-0.1,0-0.1,0-0.2-0.1l-18-17.3c-0.1-0.1-0.1-0.3,0-0.4c0.1-0.1,0.3-0.1,0.4,0c0,0,0,0,0,0l18,17.3
	c0.1,0.1,0.1,0.3,0,0.4C33.6,122.6,33.5,122.6,33.4,122.6L33.4,122.6z"/>
<path class="st0" d="M34.6,117.4c-0.1,0-0.2,0-0.2-0.1c-4.1-4.2-8.4-8.4-12.8-12.3c-0.1-0.1-0.1-0.3,0-0.4c0.1-0.1,0.3-0.1,0.4,0
	c4.4,3.9,8.8,8.1,12.8,12.3c0.1,0.1,0.1,0.3,0,0.4C34.8,117.4,34.7,117.4,34.6,117.4z"/>
<path class="st0" d="M34.2,110.5c-0.1,0-0.2,0-0.2-0.1c-1.8-2-3.7-3.8-5.7-5.6c-0.1-0.1-0.1-0.3,0-0.4c0,0,0,0,0,0
	c0.1-0.1,0.3-0.1,0.4,0c2,1.8,3.9,3.7,5.7,5.7c0.1,0.1,0.1,0.3,0,0.4C34.4,110.5,34.3,110.5,34.2,110.5z"/>
<g class="st2">
	<path class="st0" d="M129.5,122.7c-0.1-1.4-0.1-2.7-0.1-4.1c0-3.4,0.2-6.8,0-10.2c0.1-2.8,0.1-5.5-0.1-8.3c-0.3-3.3-0.4-6.7-0.4-10
		c-0.2-4.4-0.4-8.8-0.5-13.2c-0.1-3.7,0.1-7.5,0.2-11.2c0.1-4,0-8,0.3-12c0.4-0.8,0-1.8-0.9-2.1c-0.8-0.4-1.8,0-2.1,0.9
		c-0.1,0.2-0.1,0.4-0.1,0.6c-0.4,3.3-0.4,6.6-0.5,10c-0.1,3.7-0.3,7.4-0.4,11.1c0,6.4,0.3,12.8,0.3,19.2c0,3.7,0.7,7.4,0.6,11.1
		c-0.1,2.5,0,5,0.2,7.6c0,3-0.1,6,0,9c0,1,0,1.9,0,2.9c-0.1,0.4,0,0.8,0.1,1.2c0.3,0.9,1.3,1.3,2.2,1.1
		C129.8,125.8,129.6,124,129.5,122.7z"/>
</g>
<g class="st2">
	<path class="st0" d="M83.5,122.7c-0.6-5.2-0.8-10.4-0.6-15.6c-0.3-4.3,0.2-8.5,0.1-12.8c-0.1-3.5-0.1-6.9-0.2-10.4
		c0.1-1.4,0-2.8-0.2-4.2c-0.4-0.8-1.4-1.1-2.1-0.7c-0.5,0.3-0.8,0.8-0.9,1.3c0,7.7,0.1,15.4-0.2,23.1c0,1.5,0.2,3,0.2,4.6
		c0,2.3-0.2,4.6-0.1,6.9c0,2.3,0.2,4.6,0.6,6.9c0,0.8,0,1.7-0.1,2.5l0,0v0.1c0,1,0.9,1.8,1.9,1.8c0.5,0,0.9-0.2,1.2-0.5
		C83.8,125,83.5,123.7,83.5,122.7z"/>
</g>
<g class="st2">
	<path class="st0" d="M36.9,123.5c0-1.3,0-2.6,0-3.9c-0.1-5.7-0.3-11.4-0.4-17.1c0-0.9-0.8-1.7-1.7-1.7s-1.7,0.8-1.7,1.7
		c-0.1,6.1,0.2,12.1,0.3,18.2c0,1,0,2.1,0,3.1c-0.1,0.6,0,1.1,0.2,1.7c0.4,0.9,1.4,1.3,2.3,0.9c0.3-0.1,0.6-0.4,0.8-0.7
		C37.1,125,36.9,124.2,36.9,123.5z"/>
</g>
</svg>
