<?xml version="1.0" encoding="utf-8"?>
<!-- Generator: Adobe Illustrator 26.2.1, SVG Export Plug-In . SVG Version: 6.00 Build 0)  -->
<svg version="1.1" id="Layer_1" xmlns="http://www.w3.org/2000/svg" xmlns:xlink="http://www.w3.org/1999/xlink" x="0px" y="0px"
	 viewBox="0 0 357 272.7" style="enable-background:new 0 0 357 272.7;" xml:space="preserve">
<style type="text/css">
	.st0{fill:#BA8760;}
</style>
<g>
	<g>
		<g>
			<path class="st0" d="M133.1,157.9c-7.4,4.3-14.4,9.6-23.2,10.2c-8.7,0.6-16.7-3.8-18.7-12.5c-4-17.4,12.2-30,19.7-43.7
				c3.6-6.7,6.1-14.6,4.2-22.2c-1.6-6.4-6.2-11.3-11.9-14.3c-5.9-3.2-12.6-4.7-19.2-5.5c-8.5-1-17.2-1.3-25.7-0.9
				c-18,0.9-35.7,4.9-52.3,11.8c0.2-0.4,0-1-0.5-1.2c-1.7-0.5-5,0.6-5.4,2.6c0,0.2,0.2,0.5,0.4,0.4c0.7-0.4,1.3-1,2.1-1.3
				c0.9-0.3,1.7-0.2,2.7-0.1c0.2,0,0.4,0,0.5-0.1c0,0,0,0,0,0c0.1,0.4,0.1,0.7-0.1,1.1C21,75.8,37.4,71.9,54,70.7
				c9.1-0.6,18.2-0.5,27.3,0.5c7.4,0.8,15,2.2,21.6,6c7.2,4.1,11.5,11.1,10.8,19.6c-0.7,8.9-5.9,16.6-11.1,23.5
				c-8.3,11.1-19.1,25.3-12.2,39.9c3.5,7.3,11.4,10.7,19.2,10.3c9-0.4,17.6-5.5,24.7-10.8C135.2,159,134,157.4,133.1,157.9z"/>
			<path class="st0" d="M114,92.7c-9.2-0.4-18.6,0.2-27.9,0.7c-9.4,0.5-18.7,1.3-28,2.3c-14,1.5-28.1,3.4-42,6.2
				c-0.4-0.4-1-0.4-1.3,0.1c-0.6,1-1.3,1.4-2.5,1.6c-0.4,0.1-0.9,0.1-1.3,0.1c-0.1-0.2-0.2-0.4-0.3-0.6c-0.6,0.1-1.2,0.3-1.8,0.4
				c0.3,0.5,0.6,0.9,0.9,1.4c0.1,0,0.2,0,0.4-0.1c2,1.1,6.1,0.6,6.3-1.7c0.1,0.2,0.1,0.4,0.2,0.5c13.8-2.4,27.5-4.7,41.4-6.2
				c9.2-0.9,18.4-1.6,27.6-2.1c9.5-0.5,19.1-0.3,28.6-0.7C115.4,94.7,115,92.8,114,92.7z"/>
			<path class="st0" d="M112.9,83.8c-0.2-0.3-0.7-0.1-0.5,0.2c8.4,12.9,10.9,27.6,7.3,41.1c-1.9,7.2-5.6,13.9-9.9,20.4
				c-2,3.1-4.2,6.1-6.4,9.1c-2.3,3.2-5.3,6.5-6.8,10c-0.5,1.1,1.8,1.8,2.7,1c3.2-3.2,5.3-7.4,7.8-11c2.4-3.5,4.8-6.9,7-10.4
				c4-6.5,7.3-13.3,8.7-20.5C125.1,110.2,121.4,96.3,112.9,83.8z"/>
			<path class="st0" d="M140,176.3c-3.2,1.4-6,3.7-9.1,5.4c-3.1,1.7-6.4,3.2-9.9,4.1c-7,1.8-14.3,1-20-3.7
				c-11.3-9.4-11-25.6-10.4-38.9c0-0.3-0.4-0.4-0.5-0.1c-1.2,14.1-1.9,30.8,10.3,40.7c5.6,4.6,12.9,5.7,19.8,4.3
				c3.7-0.7,7.2-2.1,10.6-3.8c3.5-1.7,7.5-3.7,10.4-6.3C142,177.3,140.9,175.9,140,176.3z"/>
			<path class="st0" d="M151.5,153.1c-1.3,0.1-2.6,0.4-3.9,0.6c0.2-0.7,0.4-1.4,0.5-2.1c0.2-0.8,0.4-1.6,0.5-2.4c0,0,0,0,0,0
				c0.5-0.6-0.5-1.6-1.2-1.1c-3.8,2.7-7.5,5.6-11.1,8.6c-0.3,0.2,0.1,0.8,0.4,0.6c3.6-2.3,7.3-4.7,10.8-7.3
				c-0.1,0.4-0.3,0.7-0.4,1.1c-0.3,0.8-0.7,1.6-0.9,2.4c-0.1,0.5,0.5,1,0.9,0.9c0,0,0.1,0,0.2,0c1.2,0,2.5-0.1,3.7-0.3
				c-0.1,0-0.2,0.1-0.2,0.2c-0.3,0.3,0.1,1,0.5,0.7c0.1-0.1,0.3-0.1,0.3-0.2c0.1-0.1,0.1-0.2,0.1-0.3c0.1-0.2-0.1-0.4-0.3-0.4
				c0.1,0,0.2,0,0.3,0C152.3,154,152,153.1,151.5,153.1z"/>
			<path class="st0" d="M160.4,154.4c-3.2,0.3-6.5,0.6-9.6,1.3c-0.3,0.1-0.2,0.6,0.1,0.6c2.7,0,5.3-0.2,8-0.5c-2,1.9-4,3.7-5.9,5.7
				c-0.4,0.4,0.2,1,0.6,0.7c2.5-2.2,5-4.4,7.4-6.7C161.5,155.1,160.9,154.4,160.4,154.4z"/>
			<path class="st0" d="M157.8,162c-2.5,0.9-5,1.5-7.5,2.5c-0.3,0.1-0.1,0.5,0.2,0.5c2-0.4,4-1,6-1.5c-0.6,0.6-1.1,1.3-1.5,2
				c-0.3,0.5,0.4,1.1,0.8,0.7c1.1-1,1.9-2.3,2.8-3.4C158.9,162.4,158.3,161.9,157.8,162z"/>
			<path class="st0" d="M162.1,164c-2.2,0.4-4.4,1.1-6.5,1.7c-0.4,0.1-0.1,0.7,0.3,0.6c0.6-0.1,1.2-0.2,1.8-0.2
				c-5.6,2.9-11.1,6.2-16.5,9.3c-6.7,3.7-13.3,7.5-19.9,11.4c-0.4,0.2,0,0.8,0.4,0.7c6.9-3.3,13.6-6.9,20.4-10.4
				c6.8-3.5,13.7-6.9,20.2-10.8c0.4-0.3,0.5-0.7,0.4-1.1C163.1,164.8,162.7,163.9,162.1,164z"/>
			<path class="st0" d="M10.4,103.1c-2.9-6.5-5.7-13.7-9.7-19.7c-0.2-0.3-0.7-0.2-0.6,0.2c1.8,6.9,5.4,13.8,8.4,20.3
				C9.1,105.1,11.1,104.6,10.4,103.1z"/>
			<path class="st0" d="M13.7,97.7c-2.1-4.9-4-10.4-6.9-14.9c-0.1-0.2-0.5-0.2-0.4,0.1c1.5,5.2,4.3,10.2,6.7,15.1
				C13.3,98.4,13.9,98.2,13.7,97.7z"/>
			<path class="st0" d="M16,102.2c-0.1-0.2-0.3-0.5-0.5-0.7c-0.2-0.2-0.3-0.4-0.4-0.7c-0.2-0.3-0.6-0.1-0.4,0.2
				c0.1,0.2,0.2,0.5,0.3,0.7c0,0.3,0.1,0.6,0.2,0.8c0.1,0.2,0.4,0.4,0.7,0.3C16.1,102.7,16.1,102.4,16,102.2z"/>
			<path class="st0" d="M12.3,101.7l-0.1,0.7c0,0.3,0.4,0.5,0.5,0.2l0.1-0.7C12.8,101.6,12.3,101.4,12.3,101.7z"/>
			<path class="st0" d="M10.9,97.9C8.8,93.2,6.5,88.6,4.4,84c-0.1-0.3-0.5-0.1-0.4,0.2c2.1,4.7,4.1,9.4,6.4,14
				C10.5,98.5,11.1,98.3,10.9,97.9z"/>
			<path class="st0" d="M40.7,164.2c-4.3-10.2-9.7-20-14.6-29.9c-4.9-9.9-9.6-20-14.9-29.7c-0.2-0.3-0.7-0.1-0.5,0.2
				c4.4,10.2,9.5,20.1,14.3,30c4.8,9.9,9.2,20.2,14.6,29.9C40,165.5,41,165,40.7,164.2z"/>
			<path class="st0" d="M43.7,166.1c-9.2-20.7-18.3-41.5-28.1-62c-0.2-0.3-0.6-0.1-0.5,0.2c8.6,21,17.9,41.8,27,62.5
				C42.7,167.9,44.2,167.2,43.7,166.1z"/>
			<path class="st0" d="M43.7,167.7c-0.2-0.3-0.8-0.6-1.2-0.2c-0.2,0.3-0.8,0.5-1.1,0.2c-0.3-0.2-0.5,0.2-0.3,0.4
				c0.2,0.3,0.5,0.6,0.9,0.8c0.5,0.2,1,0.1,1.4-0.1C44,168.7,43.9,168.1,43.7,167.7z"/>
			<g>
				<path class="st0" d="M271.4,165.9c-13.1-1.5-22.5,9.6-34.8,11.3c-5.7,0.8-12.6-1.2-14.9-7c-1.9-4.9,0.4-10.3,2.4-14.8
					c3.3-7.6,7.5-17.2-0.1-23.8c-7.4-6.4-19-5.3-27.9-4.1c-14.2,1.9-27.9,6.6-40.2,13.9c-0.6,0.3,0,1.3,0.5,1
					c0.1-0.1,0.3-0.1,0.4-0.2c0.1,0.1,0.2,0.1,0.3,0.1c2.4-0.3,4.7-0.7,7.1-0.9c-0.9,1.2-1.7,2.4-2.5,3.6c-0.4,0.6,0.6,1.2,1,0.7
					c1-1.5,1.8-3,2.7-4.5c0.2-0.3-0.1-0.7-0.4-0.6c-2.3,0.4-4.6,0.7-7,1.1c10.8-5.8,22.4-10,34.5-12c9.4-1.6,24.7-4.1,31.9,4.3
					c7.2,8.4-2,19.3-4.2,27.7c-1.1,4-0.9,8.2,1.6,11.7c2.6,3.6,7,5.5,11.3,5.8c14.1,1.1,24.4-12.9,38.5-11.3
					C272.7,168,272.5,166.1,271.4,165.9z"/>
				<path class="st0" d="M166.7,144.7c-1.7,0.5-3.4,1.2-5,1.8c-0.3,0.1-0.1,0.6,0.2,0.5c1.7-0.5,3.5-0.9,5.1-1.5
					C167.5,145.4,167.1,144.6,166.7,144.7z"/>
				<path class="st0" d="M170.6,150c-1.3,0.3-2.7,0.7-4,1c1-1.7,1.8-3.6,2.7-5.4c0.1-0.3-0.3-0.6-0.5-0.3c-1.1,1.9-2.5,3.8-3.4,5.8
					c-0.2,0.5,0.5,1,0.8,0.5c0,0,0-0.1,0.1-0.1c0.1,0.2,0.2,0.3,0.4,0.2c1.4-0.3,2.8-0.6,4.1-0.9C171.5,150.7,171.2,149.9,170.6,150
					z"/>
				<path class="st0" d="M178,148.7c-1.7,0.4-3.4,1.2-5,1.8c-0.3,0.1-0.1,0.6,0.2,0.5c1.7-0.5,3.5-0.8,5.1-1.6
					C178.8,149.4,178.4,148.6,178,148.7z"/>
				<path class="st0" d="M180.1,150c-1.3,1.3-2.7,2.7-3.9,4.1c-0.3,0.4,0.3,1.1,0.6,0.7c1.3-1.4,2.5-2.9,3.7-4.3
					C180.7,150.2,180.4,149.8,180.1,150z"/>
				<path class="st0" d="M224.7,143.1c-8-1.3-17-0.1-24.8,1.8c-7.8,1.9-15.4,5-22,9.7c-0.3,0.2,0.1,0.8,0.4,0.6
					c7.2-3.7,14.6-6.7,22.5-8.4c8-1.7,15.8-1.6,23.9-1.4C226.3,145.3,226,143.3,224.7,143.1z"/>
				<path class="st0" d="M235.8,165.5c0.5-4.1,0.3-8.2-0.4-12.3c-1.4-7.6-5.4-16.2-12-20.8c-0.3-0.2-0.6,0.2-0.4,0.5
					c5.1,6.3,9,12.5,10.4,20.6c0.7,3.9,0.8,8,0.2,11.9c-0.6,3.9-2.2,7.2-3.3,10.9c-0.3,1,1.1,1.8,1.8,0.9
					C234.5,174,235.3,169.3,235.8,165.5z"/>
				<path class="st0" d="M257.8,188.4c-4.1,2.9-8.4,5.4-13.4,6.5c-6.7,1.5-13.2-0.2-17.9-5.4c-8.5-9.5-6.9-22.7-4.1-34.4
					c-0.8,1.8-1.5,3.5-2.2,5.4c-2.5,11.1-2.7,22.7,5.8,31.4c4.7,4.8,11.2,6.6,17.7,5.6c8-1.3,14.8-6.2,21-11.1
					C262.5,187,260.1,187.6,257.8,188.4z"/>
				<path class="st0" d="M226.6,144.9c-0.6-1-2.1-2-3.2-1.2c-0.3,0.2-0.2,0.6,0.1,0.8c0.6,0.3,1.3,0.5,1.7,1.1
					c0.4,0.7,0.1,1.5-0.3,2.1c-0.5,0.6,0.6,1.6,1.2,1.1C227.1,147.7,227.3,146.1,226.6,144.9z"/>
				<path class="st0" d="M275.3,187.8c-3.1-1.1-6.3-1.6-9.5-1.6c-1.9,0.4-3.7,0.9-5.6,1.4c-0.8,0.4-1.6,0.9-2.3,1.4
					c-0.3,0.2,0.1,0.7,0.4,0.6c7.1-3.9,15.2-3.3,22,0.9c0.4,0.2,0.7,0.2,0.9,0C279.3,189.4,277.4,188.5,275.3,187.8z"/>
				<path class="st0" d="M327.4,193.7c-4.9,2.9-10.2,4.1-15.9,2.6c-6-1.7-9.5-6-12.5-11.2c-2.7-4.7-5.6-9-10.1-12.3
					c-4.4-3.2-9.4-4.9-14.8-5.5c-0.4-0.1-0.4,0.6,0,0.7c6.6,1,12.9,4.5,17.4,9.4c4.2,4.6,6.1,10.8,10.4,15.4
					c6.5,7,19.1,8.8,26.7,2.6C329.5,194.8,328.3,193.2,327.4,193.7z"/>
				<path class="st0" d="M319.6,214.2c-2.3,0.1-5.4,0-7.5-1.4c-1.8-0.3-3.5-0.8-5.3-1.6c-5.4-2.3-9.6-6.7-13.7-10.9
					c-2.1-2.1-4.1-4.1-6.2-6.2c-1.6-1.2-3.3-2.4-5.1-3.4c3.8,4.2,7.7,8.4,11.5,12.5c4.1,4.3,8.5,8.5,14.2,10.6
					c5.3,1.9,11.4,2.1,17,0.6c0.2-0.6,0.4-1.2,0.6-1.8C323.6,213.8,321.3,214.1,319.6,214.2z"/>
				<path class="st0" d="M330.7,190.5c-2.4-0.9-4.6,2.2-3.1,4.2c0.3,0.3,0.9,0.1,0.7-0.3c-0.5-1.3,0.8-2.9,2.2-2.6
					C331.3,191.9,331.3,190.7,330.7,190.5z"/>
				<path class="st0" d="M334.9,192.6c-2.1,5.5-4,11.3-5.4,17.1c-0.4-0.1-0.8,0.1-0.8,0.7c-0.1,2-1.8,3.4-3.7,3.7
					c-0.5,0.1-0.4,0.7,0,0.9c1.3,0.5,2.6,0.2,3.6-0.6c0.2,0.8,1.5,1.2,1.8,0.2c2.3-6.9,4-14.4,5.3-21.6
					C335.8,192.4,335.1,192.1,334.9,192.6z"/>
				<path class="st0" d="M334.9,191.5c-0.6-0.9-1.8-1.5-2.9-1.3c-0.4,0.1-0.2,0.6,0.1,0.7c0.8,0.2,1.3,0.6,1.6,1.3
					c-0.4,0.5-0.8,0.9-1.5,1.2c-0.9,0.3-1.9,0.1-2.8-0.3c-0.3-0.1-0.4,0.3-0.3,0.5c1.7,2.1,5.4,1.6,6.3-1
					C335.8,192.1,335.4,191.6,334.9,191.5z"/>
				<path class="st0" d="M328.1,199.8c-1.6,4.7-3.2,9.5-4.8,14.2c-0.3,0.8,1.1,1.4,1.3,0.5c1.4-4.8,2.6-9.7,4-14.5
					C328.7,199.6,328.2,199.4,328.1,199.8z"/>
				<path class="st0" d="M329.9,194.7c0-0.3-0.6-0.7-0.7-0.3c-0.2,0.6-0.4,1.2-0.5,1.8c-0.1,0.6,0.9,1,1,0.4
					C329.7,196,329.8,195.3,329.9,194.7z"/>
				<path class="st0" d="M332.8,191.5c-0.7-0.8-1.8-0.9-2.8-0.6c0,0,0,0-0.1,0c-0.1,0-0.1,0-0.2,0c-0.4,0-0.7,0.5-0.6,0.9
					c0.1,0.4,0.4,0.8,0.8,0.8c0.2,0,0.4,0,0.6,0c0.7,0.4,1.6,0.2,2.2-0.3C333.1,192.2,333.1,191.7,332.8,191.5z"/>
				<path class="st0" d="M330.1,211c-6,18-11.9,36.1-17.4,54.2c-0.3,0.8,1.1,1.4,1.4,0.5c5.8-18.1,11.4-36.3,16.8-54.5
					C331,210.8,330.3,210.5,330.1,211z"/>
				<path class="st0" d="M325.3,214.6c-6.7,18.3-12.7,36.8-19,55.2c-0.3,1,1.4,1.8,1.8,0.7c6-18.5,12.2-37,17.8-55.7
					C326,214.4,325.5,214.2,325.3,214.6z"/>
			</g>
			<path class="st0" d="M323.3,212.3c-15.8,4.5-27.2-10.9-38.2-19.2c-8.4-6.4-22.9-11.6-31.2-2c-0.4,0.4,0.2,1.1,0.6,0.7
				c5.1-4.1,11.7-4.8,17.9-3c6.8,1.9,12.2,6.4,17.4,11c9.2,8.3,20.6,18.7,34.1,14.8C325.4,214.2,324.6,211.9,323.3,212.3z"/>
			<path class="st0" d="M313.9,267.4c-0.2-0.9-1.8-1.1-1.7,0c0.1,1.2-0.2,2.5-1.3,3.2c-1.1,0.7-2.3,0.5-3.5,0.1
				c-0.4-0.1-0.6,0.3-0.4,0.7c1.1,1.4,3.4,1.6,4.9,0.7C313.5,271.2,314.4,269.2,313.9,267.4z"/>
		</g>
		<path class="st0" d="M133.5,181.2L133.5,181.2L133.5,181.2c0.9-8.1,1.7-16.3,2.7-24.5c0.1-0.6-0.9-1-1-0.4
			c-1.2,8.1-2.5,16.2-3.7,24.3c-0.2,1.3,1.9,2,2,0.7C133.4,181.4,133.4,181.3,133.5,181.2z"/>
		<path class="st0" d="M138.4,156.6c0-0.5-0.8-0.7-0.9-0.2c-0.1,0.2-0.1,0.5-0.2,0.7c-0.2-0.2-0.6-0.2-0.8,0.2
			c-1.4,3.6-1.9,7.6-2.7,11.3c-0.8,3.8-1.7,7.6-2.3,11.4c-0.2,1.4,2.1,2.6,2.4,0.9c0.1-0.3,0.1-0.7,0.2-1.1c0,0.1,0,0.3,0,0.5
			c-0.1,0.9,1.5,1.4,1.6,0.4C137.1,172.9,138.3,164.5,138.4,156.6z"/>
		<path class="st0" d="M123.3,164.6c-0.2,0.5-0.3,1-0.5,1.5c-0.1,0-0.1,0.1-0.2,0.2c-0.5,1-0.9,2.1-1.2,3.2c0.2-0.8,0.3-1.6,0.5-2.3
			c0.1-0.6-0.9-1.1-1.1-0.4c-1.9,6.4-3.9,13-5.1,19.5c-0.1,0.6,0.5,1,0.9,1c0.2,0.2,0.4,0.3,0.6,0.3c0,0.9,1.3,1.4,1.6,0.4
			c2.3-7.3,4.2-15.3,5.4-22.9C124.3,164.4,123.5,164,123.3,164.6z"/>
		<path class="st0" d="M108.4,169.7c-2.2,4.4-4.2,9.3-5.6,14c-0.2,0.7,0.9,1.4,1.3,0.7c2.1-4.5,3.8-9.5,5.1-14.2
			C109.2,169.7,108.6,169.2,108.4,169.7z"/>
		<path class="st0" d="M107.2,171.7c0-0.3-0.4-0.5-0.6-0.2c-0.1,0.2-0.2,0.4-0.4,0.7c0.1-0.5,0.2-1,0.3-1.5c0.1-0.4-0.5-0.7-0.7-0.3
			c-2.4,4-4.1,9-5.6,13.4c-0.3,0.8,1.1,1.6,1.5,0.8c0.3-0.7,0.6-1.4,0.9-2.1c-0.1,0.4-0.2,0.8-0.3,1.2c-0.2,1,1.2,1.6,1.6,0.6
			C105.4,180.4,106.9,175.7,107.2,171.7z"/>
		<path class="st0" d="M97.4,167.9c0-0.3-0.4-0.7-0.6-0.6c-0.3-0.3-0.8-0.4-1.1-0.1c0-0.5,0-1.1,0-1.6c0-0.4-0.7-0.7-0.8-0.2
			c-0.3,1.5-0.5,3.1-0.7,4.6c-0.2,1.4-0.5,2.8-0.4,4.2c0,0.2,0.2,0.4,0.3,0.5c0,0.2-0.1,0.5-0.1,0.7c-0.2,0.9,1.3,1.6,1.5,0.6
			c0-0.1,0.1-0.2,0.1-0.3c0.3,0,0.5-0.1,0.6-0.5c0.3-1.4,0.5-2.9,0.6-4.4C97.1,169.9,97.3,168.9,97.4,167.9z"/>
		<path class="st0" d="M106.3,78.4c0-0.3-0.3-0.5-0.6-0.5c-0.2-0.3-0.6-0.4-0.9-0.4c0-0.3-0.1-0.6-0.1-0.8c-0.1-0.3-0.5-0.4-0.6-0.1
			c-0.8,2.3-0.7,4.8-0.9,7.2c-0.2,2.8-0.5,5.6-0.5,8.4c0,0.8,1.5,1.4,1.6,0.4c0,0,0-0.1,0-0.1c0.5,0.2,1,0,1.1-0.6
			C105.7,87.4,106.3,82.9,106.3,78.4z"/>
		<path class="st0" d="M92.8,72.1c0-0.3-0.5-0.5-0.6-0.2c0,0.1-0.1,0.2-0.1,0.3c-0.4-0.3-1-0.4-1.3-0.1c0-0.3,0-0.6,0.1-0.8
			c0-0.5-0.9-0.8-1-0.2c-0.9,7.1-2.1,14.3-2.3,21.4c0,0.5,0.7,0.9,1.1,0.8c0,0,0,0,0,0c0.1,1.1,1.9,1.3,2.1,0
			C91.4,86.2,92.7,79.1,92.8,72.1z"/>
		<path class="st0" d="M75,71.5c0.1-0.5,0.1-1,0.2-1.5c0-0.4-0.6-0.6-0.8-0.2c-0.1,0.3-0.2,0.6-0.3,0.9c-0.3-0.1-0.7-0.1-0.9,0.2
			c-0.2-0.1-0.4-0.2-0.5,0.1c-1.4,3.2-1.9,6.9-2.6,10.4c-0.8,4-1.7,7.9-2.4,11.9c-0.1,0.4,0.2,0.8,0.5,1.1c0,0.2-0.1,0.4-0.1,0.6
			c-0.3,1.3,1.8,2.2,2.1,0.8c1.6-7.8,3.6-15.6,4.9-23.4C75.2,72,75.1,71.8,75,71.5z"/>
		<path class="st0" d="M58.3,70.4c-0.5,1.1-1,2.1-1.5,3.2c0.3-1.1,0.5-2.3,0.8-3.4c0.4-1.4-2-2.5-2.4-0.9c-0.8,3.3-1.6,6.7-2.4,10
			c-0.3,1-0.6,2.1-0.8,3.1c-1.1,4.1-2.6,8.3-3.3,12.5c0,0.3,0.1,0.6,0.3,0.8c-0.1,0.3-0.2,0.7-0.2,1c-0.3,1.3,1.7,2.2,2.1,0.8
			c2.8-8.8,6.6-17.8,8.2-26.8C59.2,70.4,58.5,69.9,58.3,70.4z"/>
		<path class="st0" d="M39.7,72.2c-0.4,0.9-0.7,1.9-1,2.8c0.2-0.7,0.4-1.5,0.6-2.2c0.1-0.4,0.2-0.7,0.3-1.1c0.4-1.4-1.7-2.3-2.3-0.9
			c-0.3,0.7-0.5,1.4-0.7,2.1c-0.1,0-0.2,0.1-0.3,0.3c-2.8,8.4-4.7,17.3-6.7,25.9c-0.1,0.6,0.3,1.1,0.8,1.3c0.3,0.8,1.6,1.2,1.9,0.2
			c2.9-9.3,5.8-18.6,8.3-28C40.7,72,39.9,71.7,39.7,72.2z"/>
		<path class="st0" d="M21.7,75.8c-0.2,0.8-0.5,1.5-0.7,2.3c-0.1,0-0.2,0-0.2,0.1c-2.1,2.4-2.4,6.6-3.2,9.6
			c-1.1,4.2-2.1,8.3-3.2,12.5c-0.3,1.4,1.8,2.3,2.3,0.9c2.5-8.1,5.1-16.3,7.5-24.5C24.7,75.3,22.3,74.2,21.7,75.8z"/>
		<path class="st0" d="M13.2,79.9c0.1-0.6-0.7-1.1-1.1-0.6c-0.7,0.9-1.2,1.9-1.6,3c-0.2,0.1-0.4,0.2-0.5,0.4
			c-0.9,1.4-1.2,3.2-1.6,4.8c-0.4,1.3,1.8,2.3,2.2,0.8c0.3-0.9,0.6-1.8,0.9-2.7C12.2,83.8,13,81.9,13.2,79.9z"/>
		<path class="st0" d="M171.1,143.3c0.3-2.7,0.7-5.5,0.7-8.2c0-0.5-0.7-0.7-0.9-0.2c-0.1,0.3-0.2,0.6-0.3,0.9c0-0.3,0.1-0.6,0.1-0.9
			c0-0.6-1-0.9-1.1-0.3c-0.6,3.7-1,7.4-1.7,11.1c-0.1,0.5,0.1,0.8,0.5,1c-0.1,0.5-0.1,1-0.1,1.5c-0.1,0.4-0.2,0.8-0.3,1.3
			c-0.1,0.3,0.1,0.6,0.3,0.8c0.3,0.8,1.5,1.1,1.8,0.2C170.8,148.3,170.9,145.7,171.1,143.3z"/>
		<path class="st0" d="M182.2,132.6c0-0.6-1-1-1.1-0.3c0,0.1-0.1,0.2-0.1,0.4c-0.1-0.5-0.9-0.8-1-0.2c-1.2,5.2-1.7,11.2-1.7,16.6
			c0,0.3,0.2,0.5,0.4,0.7c0.4,0.9,1.9,1.2,2.1,0.1C181.7,144.3,182.3,138.1,182.2,132.6z"/>
		<path class="st0" d="M193,145.9c1.4-5.5,1.8-11.7,2.3-17.2c0-0.4-0.4-0.6-0.7-0.5c-0.3-0.2-0.6-0.1-0.7,0.2
			c-0.3,1.6-0.6,3.2-1,4.7c-1.3,4.7-2.5,9.5-2.8,14.1c0,0.3,0.1,0.6,0.2,0.8c0.3,1.2,2.3,1.6,2.3,0.1
			C192.8,147.4,192.9,146.7,193,145.9z"/>
		<path class="st0" d="M208,127.9c0-0.5-0.9-1-1.1-0.4c-2.5,5-3.3,11.2-4.8,16.5c-0.4,1.3,1.5,2.8,2.6,1.7c0.2-0.2,0.4-0.4,0.6-0.6
			c0.5-0.5,0.5-1.2,0.1-1.7C206.4,138.4,208,133,208,127.9z"/>
		<path class="st0" d="M219.7,129.3c0-0.6-1-1.1-1.2-0.5c-1.8,4.1-3.1,9.4-3.7,13.8c-0.2,1.5,2,2.6,2.5,0.9
			C218.6,139.3,219.6,133.9,219.7,129.3z"/>
		<path class="st0" d="M224.8,135.1c0.1-0.7-0.9-1.2-1.1-0.4c-1,2.8-2.1,5.8-2.5,8.8c-0.1,1.1,1.4,1.9,1.8,0.7
			C224,141.3,224.4,138,224.8,135.1z"/>
		<path class="st0" d="M224,178.9c0.2-1.4,0.5-2.9,0.4-4.3c0-0.4-0.8-0.9-1-0.4c-0.6,1.3-0.9,2.7-1.2,4c-0.3,1.4-0.9,2.8-0.8,4.3
			c0,0.7,1.3,1.6,1.7,0.6C223.8,181.8,223.8,180.3,224,178.9z"/>
		<path class="st0" d="M230.8,177.8c-1.8,4.2-3.2,8.8-4.4,13.2c-0.4,1.4,1.9,2.4,2.3,0.9c1.3-4.4,2.5-9,3.2-13.5
			C232,177.8,231.1,177.1,230.8,177.8z"/>
		<path class="st0" d="M241.8,176.9c-2.1,6.2-3.8,12.6-5.4,18.9c-0.4,1.5,2.1,2.6,2.5,0.9c1.5-6.4,3-12.9,3.9-19.4
			C242.9,176.7,242,176.3,241.8,176.9z"/>
		<path class="st0" d="M254.4,191.2c1.1-7.2,2.2-14.4,3-21.7c0.1-0.6-1.1-1-1.2-0.3c-1.8,7.6-3.1,15.4-4.5,23.1
			c-0.3,1.5,1.9,2.5,2.4,0.9c0.1-0.4,0.3-0.7,0.4-1.1C254.7,191.7,254.6,191.4,254.4,191.2z"/>
		<path class="st0" d="M271.3,167.1c0.1-0.6-0.7-1-1-0.5c-4.1,6.3-7,13.8-10.1,20.7c-0.7,1.5,1.6,3.2,2.5,1.7
			c0.1-0.2,0.3-0.5,0.4-0.7c0.1-0.2,0.2-0.4,0.2-0.6C266.1,181,269.4,174.1,271.3,167.1z"/>
		<path class="st0" d="M283.3,170.1c-3.4,5.3-6.4,10.9-9.6,16.4c-0.8,1.4,1.6,3,2.3,1.5c2.8-5.7,5.8-11.4,8.3-17.2
			C284.5,170.1,283.7,169.4,283.3,170.1z"/>
		<path class="st0" d="M294.6,179.3c-1.9,1.9-3.7,3.9-5.4,5.9c-1.6,1.8-3.4,3.6-4.7,5.7c-0.7,1.2,1,2.8,2.1,1.8
			c1.8-1.7,3.1-3.9,4.6-5.8c1.6-2.2,3.2-4.3,4.6-6.6C296.2,179.6,295.2,178.7,294.6,179.3z"/>
		<path class="st0" d="M299.5,186.1c-3.6,3.6-6.4,8.5-9.2,12.7c-0.9,1.3,1.1,2.9,2.3,2c0.3-0.2,0.6-0.5,0.8-0.7
			c0.4-0.4,0.5-0.8,0.4-1.2c2.4-3.9,5.2-7.9,6.7-12.1C300.7,186.3,299.9,185.7,299.5,186.1z"/>
		<path class="st0" d="M310.5,195.4c-3.3,3.8-6.4,7.8-9.5,11.7c-1.1,1.4,1.6,3.4,2.6,1.8c2.8-4,5.8-8,8.4-12.1
			C312.5,195.9,311.1,194.7,310.5,195.4z"/>
		<path class="st0" d="M319.3,197.9c-3.9,4.5-7.3,9.6-10.8,14.4c-1,1.4,1.5,3.2,2.5,1.7c0.2-0.3,0.5-0.7,0.7-1
			c0.1-0.1,0.1-0.2,0.2-0.3c3-4.5,6.1-8.9,8.7-13.7C321,198.3,319.9,197.1,319.3,197.9z"/>
		<path class="st0" d="M327.9,197.1c-2.5,2.3-4.1,5.6-5.6,8.6c-1.6,3.1-3.3,6.3-4.2,9.6c-0.3,1.3,1.7,2.6,2.4,1.3
			c1.7-3.2,2.7-6.7,4.3-9.9c1.4-2.9,3.2-5.7,4.1-8.8C329.1,197.2,328.3,196.6,327.9,197.1z"/>
	</g>
</g>
<g>
	<g>
		<path class="st0" d="M107.6,18.3c-6.8-2.2-19.4,0.1-24.8-5.7c12.8-5.8,26.6-2.8,38.3,4.4c1.6,1,2.2-1.4,1.3-2.4
			c-11.2-11.7-30.7-13-44.7-6.1c-1.3,0.7-2,2.1-1.4,3.6c2.3,5.2,6.7,7.9,12.1,9.3c6.6,1.7,14.3,0.2,20.4,3.6
			c4.3,2.4,4.9,6.9,2.1,10.8c-2.5,3.4-6.5,4.5-10.5,4.2c-9.1-0.8-14-8.1-21-12.7c-3.3-2.2-5.7,2.6-3.8,5.1
			c5.3,7.3,15,13.7,24.1,14.6c8.4,0.8,17-3.5,18.9-12.2C120.3,27,114.9,20.6,107.6,18.3z"/>
		<path class="st0" d="M157.3,40.5c0.8-8,1.7-16,2.4-24.1c0.3-3.7-5.4-6.7-6.9-2.5c-2.4,6.5-2,13.2-2.8,20
			c-0.6,5.5-3.1,13.4-9.6,14.2c-6.5,0.8-10.8-7.1-10.7-12.7c0.2-8.2,5.9-15.2,10.5-21.5c1.3-1.8-1.4-4.2-3-2.5
			c-6.1,6.9-12.8,15.1-12.5,24.9c0.2,7.1,4.7,14.5,11.4,17c4.5,1.7,8.9,0.6,12.4-2c-0.3,3.3-0.5,6.5-0.5,9.7c0.1,3,5.3,6.5,6.4,2.3
			C156.3,56,156.5,48.1,157.3,40.5z"/>
		<path class="st0" d="M212.1,61.6c0.7-4.5-6.2-6.5-7.2-1.6c-0.3,1.2-2.3,1.4-3.2,1.2c-1.6-0.4-2.2-1.6-2.8-3
			c-1.1-2.6-1.1-6.2-1.1-8.9c-0.1-5.9,0.3-11.8,1.5-17.6c0.8-4.2,3.4-12.6,9.5-9.7c6.7,3.3,3.3,12,4.1,17.6c0.1,0.7,1.1,1.3,1.6,0.6
			c5.1-7.1,3.2-19.8-5.1-23.7c-6.7-3.1-11.5,1.3-14.2,6.8c-0.4-5.1-2.5-9.7-7.5-12.7c-10.6-6.3-20.2,3.9-23.8,13.2
			c-3.8,9.8-8.5,23.7-1.6,33.2c5.1,7,15.6,10.1,21.9,3.1c2.4-2.7-2.3-8.1-5-5.4c-3.9,3.9-10.4,1.6-12.6-3.1
			c-3.2-6.8,0.2-15.9,2.3-22.5c2-6.1,6.7-16.3,15-14.3c9.6,2.4,6.5,16.3,4.9,22.9c-0.4,1.6,1.1,3.1,2.4,3.1
			c-0.2,2.9-0.3,5.8-0.3,8.6c0.1,4.8,0.4,10,3.2,14.2C198.7,70.6,210.7,71.2,212.1,61.6z"/>
		<path class="st0" d="M285.4,34.8c0.2,2.2,3.9,2.9,4,0.4c1.1-14.7-20.8-20-25.1-5.1c-2.1,7.3,1.3,13.3,7.3,17.2
			c2.2,1.5,3.8,2.4,2.9,5.3c-0.6,1.9-2.2,3.5-4,4.4c-4.4,2.3-10.1,1.2-14.9,1c-0.4,0-0.7,0-1,0.1c0.5-2.2,0.4-4.5-0.3-6.9
			c-1.1-3.6-6-2.5-5.9,1.1c0.2,4.9-3.5,9.1-8.2,10.4c-5.8,1.6-10.8-2.8-12.9-7.9c-0.4-0.9-0.7-1.9-0.9-2.9
			c8.9-2.6,17.8-5.3,26.5-8.7c3.5-1.4,1-6.8-2.4-5.8c-8.3,2.6-16.4,5.7-24.4,9c0.3-2.9,1.2-5.8,2.6-8.5c1.5-2.7,3.7-4.9,5.7-7.2
			c8.2-2.7,16.4-5.4,24.2-9c3.7-1.7,1.1-7.5-2.6-6.2c-10.5,3.5-20.6,8.7-30.7,13.2c-2.1,0.9-1.3,3.9,0.5,4.5
			c-2.1,3.2-3.6,6.7-4.3,9.6c-0.5,1.9-0.7,3.9-0.7,5.8c-0.2,0.1-0.5,0.2-0.7,0.3c-2.4,1-1,4.4,1.2,4.3c0.8,3.9,2.6,7.6,5.3,10.5
			c5,5.4,12.5,7.5,19.3,4.3c2.8-1.3,5-3.2,6.6-5.5c0.5,1.6,1.6,3.2,3.3,3.5c7.1,1.5,15.8,2,21.7-2.9c4.4-3.6,6.9-10.2,4.7-15.7
			c-2.4-6-12.2-7-11.4-14C271.9,24.2,284.5,26.6,285.4,34.8z"/>
		<path class="st0" d="M317.8,74c-0.6-9.2-7.4-16-11.4-23.8c-2.1-4.1-3.6-9.1-0.7-13.2c4.4-6.2,12.1,0.6,6.5,6.3
			c-2.3,2.3,1.9,7,4.5,4.8c6.2-5.2,6.1-14.8-0.9-19.3c-7.3-4.7-15.7-0.7-18.5,7c-3.2,8.9,1.8,17.5,6.4,24.9c2.5,4,6.2,8.9,5.8,13.9
			c-0.2,2-1.3,5.1-3.5,5.7c-1.4,0.4-3.1-0.1-2.9-1.8c0.8-5.3-7.5-7.7-8.6-1.9c-1.3,6.7,5.2,12.9,11.8,12.7
			C314.1,89.1,318.2,80.9,317.8,74z"/>
		<path class="st0" d="M356.9,8.1c0.3-1.5-0.8-3.2-2.5-2.7c-3.4,0.9-6.8,1.9-10.2,2.7c0-0.4,0-0.9-0.1-1.3c-0.1-1.2-2.1-1.9-2.5-0.6
			c-2.9,9.7-3,20.8-4.1,30.9c-1.2,10.8-3,21.8-3.3,32.7c0,0.6,0.2,1.1,0.5,1.5c0.2,2.3,4.2,3.8,4.9,1.1
			C345.5,51.1,352,29.8,356.9,8.1z M352.1,10.3c-0.2-0.3-0.5-0.5-0.8-0.7c0.4,0,0.7-0.1,1.1-0.1C352.3,9.7,352.2,10,352.1,10.3z
			 M344.3,10.3c0.6-0.1,1.1-0.2,1.7-0.2c0,0.1-0.1,0.2-0.1,0.4c-0.7,3.3-1.4,6.5-2.1,9.8C344.1,16.9,344.3,13.5,344.3,10.3z"/>
	</g>
	<path class="st0" d="M344.8,88.3c-0.1-1.2-1.2-2.3-2.3-2.7c-1.1-1.6-3.5-1.8-5.3-1.4c-1.9,0.4-3.6,1.8-4.5,3.6
		c-1.9,3.9,2.3,7.2,5.9,7.1C342.3,94.7,345.1,92.1,344.8,88.3z"/>
</g>
</svg>
