<?xml version="1.0" encoding="utf-8"?>
<!-- Generator: Adobe Illustrator 26.2.1, SVG Export Plug-In . SVG Version: 6.00 Build 0)  -->
<svg version="1.1" id="Layer_1" xmlns="http://www.w3.org/2000/svg" xmlns:xlink="http://www.w3.org/1999/xlink" x="0px" y="0px"
	 viewBox="0 0 760.9 558.5" style="enable-background:new 0 0 760.9 558.5;" xml:space="preserve">
<style type="text/css">
	.st0{fill:#BB8760;}
</style>
<g id="Bg">
</g>
<g id="Color">
	<g>
	</g>
	<g>
		<path class="st0" d="M300.2,15.1c0,0-60-20.5-121.9,25.2C116.5,86,99.2,204,99.8,274.8l-23.2,5.9l47,47.1l40.7-61.6l-18.2,0.4
			c0,0,2.9-103.7,42.8-168.3C228.8,33.6,288,18.5,300.2,15.1z"/>
	</g>
</g>
<g id="Line">
	<g>
		<g>
			<path class="st0" d="M466.6,319.4c-6-35.2-12.7-70.3-21-105.1c-7.4-31.1-16.4-62.2-30-91.2C390.9,70.5,347.1,23.3,288.2,11
				c-54.9-11.5-106,16.1-138.7,59.4c-44.2,58.7-48.1,135.3-51.4,205.9c-0.1,1.7,2.8,1.7,2.9,0c3.4-62.7,6.8-129.3,39-185
				c27.4-47.3,76.1-85,133.1-79.8C333.9,17,382,63.4,408.7,115.4C438.1,172.8,449,239,460,301.8c13.6,77.5,22.3,155.9,26.4,234.5
				c0.1,2.5,4.4,2.5,4.3,0C486.7,463.6,478.8,391.2,466.6,319.4z"/>
		</g>
		<g>
			<path class="st0" d="M648.6,521.9c-52,4.2-104.1,7.7-155.9,13c-1.8,0.2-1.9,2.7,0,2.6c52-2.9,104-7.6,155.9-11.6
				C651.4,525.7,651.4,521.7,648.6,521.9z"/>
		</g>
		<g>
			<path class="st0" d="M650,520.4c-8.9-58.4-19.3-116.6-29.2-174.9c-8.9-52.6-16.1-106.4-34.1-156.9
				c-15.9-44.4-41.2-84.3-76.6-115.6c-34.3-30.3-76.3-51.8-121.2-61c-36.2-7.4-73.7-7.1-109.6,0.7c1.6,0,3.1,0.2,4.7,0.5
				C360.4-0.6,441,18.9,501.7,70c35.9,30.2,62.4,69.3,78.8,113.2c17.8,47.6,24.9,98.4,32.8,148.4c10,63.5,19.4,127.1,30.4,190.4
				C644.2,525.9,650.6,524.4,650,520.4z"/>
		</g>
		<g>
			<path class="st0" d="M300.2,15.1c-36,5.5-68.4,27.4-92.1,54.5c-29.6,33.9-46,76.9-54.3,120.6c-5.1,26.6-7.5,53.7-9.1,80.7
				c0,0.4,0.7,0.4,0.7,0c7.2-85.6,25-183.2,103.8-232.6c17.7-11.1,36.8-17.9,57.3-20.9C304.4,16.8,302.3,16,300.2,15.1z"/>
		</g>
		<g>
			<path class="st0" d="M99.8,274.8c-7.8,0.6-15.8,3.6-23.2,5.9c-0.1,0-0.1,0.1,0,0.1c7.7-0.9,16.2-1.4,23.5-4
				C101.3,276.4,101.2,274.6,99.8,274.8z"/>
		</g>
		<g>
			<path class="st0" d="M166.8,263c-7.8,0.7-16.8,2.2-24.1,5.1c-0.2,0.1-0.1,0.3,0.1,0.3c7.8,0.2,16.8-1.5,24.3-3.5
				C168.1,264.6,167.9,262.9,166.8,263z"/>
		</g>
		<g>
			<path class="st0" d="M160.8,264.4c-7.5,9.5-13.2,21.3-19.5,31.7c-5.9,9.7-12,19.3-17.2,29.4c-6.3-7.3-13.8-13.9-20.7-20.6
				c-7.9-7.7-15.7-15.7-24.2-22.7c-0.1,0-0.2,0-0.1,0.1c6.5,7.8,13.9,14.9,21,22.2c7.5,7.7,14.9,16,23.1,22.9
				c-0.1,0.3-0.3,0.6-0.4,0.9c-0.1,0.2,0.2,0.3,0.3,0.2c0.2-0.2,0.3-0.4,0.5-0.7c0,0,0,0,0.1,0.1c0.7,0.6,2.3-0.2,1.6-1.1
				c-0.1-0.2-0.3-0.3-0.4-0.5c7-9.1,13.1-19,19.4-28.6c6.6-10.2,14.8-20.5,20.1-31.4C165.4,263.9,162.2,262.6,160.8,264.4z"/>
		</g>
		<g>
			<path class="st0" d="M167.6,325.7c-5.3-0.6-11.5,0.8-16.8,1.3c-5.8,0.6-11.6,1.1-17.5,1.7c-2.1,0.2-2.2,3.3,0,3.1
				c6.7-0.6,13.3-1.3,20-1.9c2.9-0.3,7.1-1.5,10-1c3.4-0.9,5.2,1,5.5,5.8c-1.8,0.8-3.6,1.5-5.5,2.1c-11.4,4.2-23.3,7.3-35.3,9.2
				c-6.4,1-12.9,1.7-19.4,2c-3.1,0.2-6.3,0.2-9.4,0.3c-2.1,0-8.2,0.8-9.7-1c-6.3-7.3,13.8-10.4,16.8-11.2c6.2-1.6,12.4-3.4,18.6-5.4
				c0.2-0.1,0.1-0.3-0.1-0.3c-10.5,1.9-21.4,3.7-31.7,6.6c-3.8,1.1-9.5,3.7-8.4,8.7c1.2,5.2,8,5.4,12.2,5.6
				c9.6,0.4,19.2-0.1,28.7-1.4c10.1-1.4,20.1-3.6,29.9-6.6c5.2-1.6,15.7-3.5,18.6-8.7C176.6,330,171.9,326.2,167.6,325.7z"/>
		</g>
		<g>
			<path class="st0" d="M108.4,323.6c-9.2,1.3-18,3.3-26.6,7c-6.7,2.8-14.5,6.3-19.3,12.1c-3.5,4.2-4.2,9.7-0.6,14.1
				c5,6.1,13.1,5.8,20.2,5c1.3-0.1,1.4-1.9,0-1.9c-6.5,0.1-17.1,0.2-19.3-7.7c-2.2-7.9,7.8-12.9,13.2-16c10.1-5.6,21.1-10,32.5-12.4
				C108.7,323.8,108.6,323.5,108.4,323.6z"/>
		</g>
		<g>
			<path class="st0" d="M183.5,313.8c-14.9-1.7-30.4,1.5-44.6,5.6c-0.4,0.1-0.2,0.7,0.2,0.6c11.6-2.7,23.6-3.7,35.5-3.4
				c5.7,0.2,13-0.1,17.7,3.8c7.6,6.4,0.5,13.9-5.9,17.1c-19.5,10-40.9,15.4-62.4,18.8c-1.6,0.3-1.2,2.6,0.4,2.5
				c14.6-1,29-4.2,42.9-9.1c6.6-2.3,13.2-5,19.5-8.2c4.6-2.4,9.4-5.2,11.5-10.2C202.6,321.2,192.2,314.8,183.5,313.8z"/>
		</g>
		<g>
			<path class="st0" d="M105.7,318.8c-13.4-1.4-28.4,3.6-40.7,8.6c-6.9,2.8-13.5,6.2-19.9,10.1c-4.9,3-10.3,6.1-13.8,10.8
				c-5.9,7.8-4.3,17.9,5,21.7c6.1,2.5,13.4,2.8,19.9,3.3c8.6,0.7,17.2,0.8,25.8,0.3c1.9-0.1,1.9-2.7,0-2.7
				c-12.5-0.3-25.5-0.8-37.9-2.9c-5.9-1-12.8-3.1-13.1-10.3c-0.3-6.6,5.3-11.4,10.1-14.9c9.6-7.1,20.8-12.4,32.1-16.2
				c10.7-3.6,21.7-4.5,32.5-7.3C106,319.2,105.9,318.8,105.7,318.8z"/>
		</g>
		<g>
			<path class="st0" d="M222.5,318.3c-5-6.8-14.1-8.3-21.9-9.7c-20.8-3.6-42.8-3.6-63.3,1.9c-1.6,0.4-0.9,2.5,0.7,2.2
				c18.1-3.3,36.2-4.7,54.5-2.2c8.7,1.2,22,2.3,27.2,10.3c6.4,9.9-5,18.5-12.6,22.5c-14.6,7.8-30.1,14.3-46,18.9s-31.9,6.7-48.2,9.1
				c-0.4,0.1-0.3,0.6,0.1,0.6c20.5,0.5,41.6-4.3,61-10.5c8.9-2.8,17.6-6.2,26.1-10.2c7.6-3.6,16.9-7.6,21.9-14.8
				C225.8,330.9,226.6,323.9,222.5,318.3z"/>
		</g>
		<g>
			<path class="st0" d="M74.9,348.7c-12.9,2.4-25.8,5.1-38.7,7.7c-11.6,2.3-25.1,3.4-36,8.2c-0.5,0.2-0.2,0.9,0.3,0.9
				c12,0.2,24.9-4.1,36.6-6.4c12.9-2.6,25.8-5,38.6-7.8C77.6,350.9,76.7,348.4,74.9,348.7z"/>
		</g>
		<g>
			<path class="st0" d="M249.8,313.6c-22.3,2.8-44.4,9.8-66.3,14.8c-0.2,0-0.1,0.2,0.1,0.2c11.1-2.2,22.3-4.1,33.5-6.3
				c11-2.2,22.5-3.8,33.2-7C251.5,315,250.9,313.5,249.8,313.6z"/>
		</g>
		<g>
			<path class="st0" d="M158,388.7c-1.6-6.2-5.6-12.1-8.6-17.7c-3.4-6.4-6.6-13.1-10.9-18.9c-0.2-0.2-0.7-0.1-0.6,0.2
				c1.9,6.2,5.1,12.1,7.8,17.9c3,6.3,5.8,13.8,10.1,19.3C156.6,390.4,158.3,390,158,388.7z"/>
		</g>
		<g>
			<path class="st0" d="M452.6,543.6c-18.8,0.7-37.5,2.7-56.3,3.5c-18.4,0.8-36.8,1.3-55.2,1.3c-37.2,0.1-74.5-1.5-111.6-4.5
				c-37.3-3.1-74.5-7.8-111.3-14.1c-30.5-5.2-64.4-10.6-88.2-32.1C8,477.9-1.3,438,23.2,416.4c0.2-0.2-0.1-0.4-0.3-0.3
				C2.4,431.4,2.3,460.6,13,481.8c13.8,27.5,45.3,39.6,73.5,46.3c36.9,8.7,75.2,13.5,112.8,17.7c39.9,4.4,80,6.9,120.2,7.5
				c22.6,0.3,45.2,0.1,67.8-0.7c21.9-0.8,44.1-1.4,65.8-4.4C455.9,547.8,455.4,543.5,452.6,543.6z"/>
		</g>
		<g>
			<path class="st0" d="M471.4,533.5c-4.6-5.2-10.8-9.3-16.2-13.7c-5.5-4.5-11.1-8.9-16.6-13.3c-8.6-6.8-17.3-14.5-26.7-20.5
				c1.6-1.5,0-4.8-2.8-4.4c-59.7,8.5-119.9,13.2-180.3,14.1c-29.7,0.4-59.3-0.1-88.9-1.5c-14.6-0.7-29.2-1.5-43.8-2.8
				c-12.8-1.1-25.8-2.9-37.7-7.8c-13-5.3-23.5-14.4-28.3-27.9c-4.3-11.9-3.4-26.6,6.4-35.6c0.1-0.1-0.1-0.3-0.2-0.2
				c-16.1,13.2-13.4,37.2-1.1,52.3c15.8,19.3,43.9,22.3,67,24.1c65.8,5.2,132,5.7,197.8,1.6c36.3-2.3,72.5-6,108.6-11
				c8.3,9,18.8,16.6,28.2,24.4c5.1,4.3,10.3,8.5,15.4,12.7c5.3,4.3,10.4,9.4,16.3,12.7C470.5,538,473.2,535.5,471.4,533.5z"/>
		</g>
		<g>
			<path class="st0" d="M42.7,394.2C30.3,399.9,16.5,405,5,412.5c-1.3-0.2-1.6,1.8-0.1,1.9c5.8,0.3,11.5,1.9,17.3,2
				c0.2,0,0.2-0.2,0-0.3c-5.3-1.7-10.9-2-16.2-3.4c12.9-4.1,25.4-11.3,37.6-17.1C44.7,395.1,43.7,393.7,42.7,394.2z"/>
		</g>
		<g>
			<path class="st0" d="M55.8,421.5c-1-4.8-3.2-9.5-4.9-14.1c-1.6-4.3-2.9-8.9-5.2-13c-0.6-1-2.2-0.4-1.9,0.7
				c1.1,5.1,3.6,10,5.5,14.8c1.5,3.8,2.8,7.7,4.7,11.2c-5.6-0.8-11.2-1.4-16.8-1.7c-0.2,0-0.2,0.2,0,0.2c6,1.4,12.1,2.6,18.2,3.4
				C56.5,423.3,57.1,421.7,55.8,421.5z"/>
		</g>
		<g>
			<path class="st0" d="M462.9,306c-24.9-3.2-49.9-4.7-75-4.4c-32.1,0.4-64.2,3.6-95.6,10.1c1.2,0.2,2.4,0.6,3.5,0.9
				c0.2,0.1,0.4,0.2,0.6,0.3c55.3-9.4,111.5-11.1,167.3-3.7C463.4,308.2,463.1,307.1,462.9,306z"/>
		</g>
		<g>
			<path class="st0" d="M618.9,358.6c0.7,1.9,1.2,4,1.5,6c8.4,7.9,15.3,17.2,20,28.3c6.6,15.4,7.7,32.8,0.7,48.2
				c-1.7,3.7-3.8,7.1-6.2,10.3c0.3,1.4,0.5,2.7,0.7,4.1c8.8-10.1,14-23.6,14-37C649.6,394.6,636.5,373.9,618.9,358.6z"/>
		</g>
		<g>
			<path class="st0" d="M459.8,289.1c-5.5-0.3-11-0.5-16.5-0.6c-26.5-0.6-53.1,0.5-79.5,3.3c-25.8,2.8-53,6-77.7,14
				c-0.5,0.2-0.9,0.5-1,0.8c-1.2-1.3-2.8-2.1-4.2-3.1c-2.2-1.4-4.4-3.1-6.8-4.2c-0.9-0.4-2.1,0.2-2.4,1c-5.3,5.4-9.1,12.5-13.3,18.7
				c-0.5,0.7,0,1.5,0.8,1.7c15.8,4.1,31.7,8.5,47.7,11.7c2,0.4,2.9-2.3,0.9-2.8c-15.2-4.3-30.8-7.4-46.2-10.8
				c3.6-5.7,7.8-11.5,10.2-17.7c0.1,0.1,0.2,0.3,0.4,0.4c2,1.5,4.3,2.5,6.5,3.7c2.1,1.1,4.2,2.5,6.6,2.8c0.3,0.5,1,0.8,1.8,0.7
				c21.7-3.6,43.1-8.8,65-11.6c22.4-2.9,44.9-4.5,67.5-4.9c13.7-0.2,27.3,0,40.9,0.7C460.2,291.6,460,290.3,459.8,289.1z"/>
		</g>
		<g>
			<path class="st0" d="M712.2,358.7c-19.7-12.4-41.7-21.5-63.4-29.8c-11.3-4.3-22.7-8.3-34.2-12c0.6,1.2,0.9,2.5,0.8,3.8
				c22.2,7,43.9,15.3,65.1,24.9c36.8,16.7,82.3,46.2,77.4,93.1c-4.5,43.2-50.6,61-85,76.2c-10.2-6.5-20.9-12.3-31.5-18.2
				c0.1,1.5,0.2,2.9,0.2,4.4c10.2,6.4,20.5,12.8,31.1,18.5c2.3,1.2,4.5-1.8,2.2-3.3c-0.6-0.4-1.2-0.7-1.7-1.1
				c31.1-9.6,68.6-26.5,82.5-58.1C773,417.8,744.3,378.9,712.2,358.7z"/>
		</g>
		<g>
			<path class="st0" d="M315,330.8c-2.9-3.7-6.9-6.7-10.4-9.8c-3.4-3.1-6.9-6.5-10.9-8.9c-0.2-0.1-0.5,0.1-0.4,0.3
				c2.4,3.6,5.6,6.8,8.6,9.9c3.3,3.4,6.5,7.5,10.3,10.4C313.6,333.6,316.3,332.4,315,330.8z"/>
		</g>
	</g>
</g>
</svg>
