<?xml version="1.0" encoding="utf-8"?>
<!-- Generator: Adobe Illustrator 26.2.1, SVG Export Plug-In . SVG Version: 6.00 Build 0)  -->
<svg version="1.1" id="Layer_1" xmlns="http://www.w3.org/2000/svg" xmlns:xlink="http://www.w3.org/1999/xlink" x="0px" y="0px"
	 viewBox="0 0 91.8 64.6" style="enable-background:new 0 0 91.8 64.6;" xml:space="preserve">
<style type="text/css">
	.st0{fill:#BB8760;}
</style>
<g>
	<g>
		<g>
			<path class="st0" d="M28.4,39.6c-4.7-2.9-9.6-5.7-14.3-8.6c-0.1-0.1-0.3,0-0.3,0.2c-0.6,6.8-1.2,13.6-1.7,20.4
				c0,0.2,0.3,0.2,0.3,0c0.7-6.7,1.2-13.4,1.8-20c4.7,2.8,9.3,5.7,14,8.5C28.5,40.1,28.7,39.8,28.4,39.6z"/>
			<path class="st0" d="M38.4,29.5c-1.7,1.9-7.7,10.7-9.2,12.7c-1.6,2-3.2,4-4.7,6c-0.1,0.1,0.1,0.2,0.1,0.1c1.6-2,3.2-3.9,4.9-5.9
				c1.6-2,7.7-10.6,9.2-12.7C38.8,29.6,38.5,29.4,38.4,29.5z"/>
			<path class="st0" d="M38.4,29.5c-3.1,1.8-11,6-14,8c-0.1,0.1,0,0.2,0.1,0.2c3.1-1.8,11-6,14-7.9C38.7,29.7,38.5,29.5,38.4,29.5z"
				/>
			<path class="st0" d="M35.1,31.9c-0.1,0,0,0.2,0.1,0.2C35.3,32,35.2,31.8,35.1,31.9z"/>
			<path class="st0" d="M24.2,47.1c-0.7-1.3-1.6-2.4-2.4-3.7s-1.7-2.7-2.5-4s-1.7-2.6-2.5-3.9c-0.9-1.3-1.7-2.7-2.6-4
				c-0.1-0.1-0.3,0-0.2,0.1c0.7,1.3,1.5,2.5,2.3,3.7c0.9,1.3,1.7,2.7,2.6,4c0.8,1.3,1.7,2.6,2.5,3.9c0.9,1.3,1.6,2.7,2.6,4
				C24.1,47.3,24.3,47.2,24.2,47.1z"/>
			<path class="st0" d="M30.3,40.5c-0.3-0.2-0.7-0.4-1-0.5c-0.1,0-0.2,0.1-0.1,0.2c0.3,0.2,0.6,0.4,1,0.6
				C30.3,40.9,30.5,40.6,30.3,40.5z"/>
			<path class="st0" d="M12.8,52c-0.1,0.4-0.2,0.7-0.2,1.1c0,0.2,0.3,0.3,0.3,0C13,52.7,13,52.3,13,52C13,51.9,12.8,51.9,12.8,52z"
				/>
			<path class="st0" d="M27.7,53.9c-0.4-0.9-1-1.7-1.5-2.6c-0.5-0.9-1.1-1.8-1.7-2.7c-0.1-0.1-0.3,0-0.2,0.1c0.4,1,1,1.9,1.5,2.8
				c0.5,0.8,1,1.7,1.5,2.5C27.4,54.2,27.8,54.1,27.7,53.9z"/>
			<path class="st0" d="M28.7,54.4c-1.6,0.6-3.2,1.4-4.8,2.1c-1.6,0.7-3.2,1.5-4.7,2.2c-0.1,0.1,0,0.2,0.1,0.2
				c1.7-0.7,3.3-1.4,4.9-2.1c1.6-0.7,3.2-1.3,4.7-2.1C29,54.6,28.8,54.4,28.7,54.4z"/>
			<path class="st0" d="M38.2,39.1C38.2,39.1,38.2,39,38.2,39.1C38.2,39,38.2,39,38.2,39.1c0-0.2,0-0.3,0.1-0.5
				c-0.3,0.4-0.5,0.8-0.8,1.3c0.2-1.5,0.3-2.9,0.4-4.4c0.2-1.8,0.4-3.6,0.5-5.4c0-0.1-0.2-0.2-0.2,0c-0.3,1.8-0.4,3.6-0.6,5.4
				c-0.2,1.8-0.4,3.5-0.6,5.3c-1.2,1.9-2.3,3.9-3.4,5.8c-1.7,2.9-3.4,5.7-5,8.6l0.3-0.3c0.1-0.1,0.1-0.1,0.2-0.1h0.1
				c1.6-2.7,3.1-5.4,4.7-8.1c1.1-1.9,2.2-3.8,3.3-5.7c0.1,0,0.2,0,0.2-0.2c0-0.1,0-0.2,0-0.3C37.7,40,37.9,39.6,38.2,39.1
				C38.2,39.2,38.2,39.1,38.2,39.1z"/>
			<path class="st0" d="M24.2,49c-0.9,0.4-1.8,1-2.7,1.5c-1,0.6-1.9,1.1-2.9,1.7c-2,1.2-3.9,2.3-5.9,3.5C8.8,58,5,60.3,1.1,62.6
				c-0.1,0.1,0,0.2,0.1,0.2c3.9-2.2,7.7-4.5,11.6-6.7c1.9-1.1,3.9-2.2,5.8-3.3c0.9-0.5,1.8-1.1,2.8-1.6c1-0.6,2.1-1.1,3-1.8
				C24.6,49.2,24.4,48.9,24.2,49z"/>
			<path class="st0" d="M12.4,47.1C8.3,52.4,4.2,57.6,0.2,63c-0.1,0.1,0.1,0.2,0.2,0.1C4.6,58,8.7,52.6,12.8,47.4
				C13,47.2,12.6,46.9,12.4,47.1z"/>
			<path class="st0" d="M12.3,54c-0.1,0.4-0.2,0.9-0.2,1.3c0,0.2,0.3,0.2,0.3,0c0.1-0.4,0.1-0.9,0.1-1.3C12.5,54,12.3,53.9,12.3,54z
				"/>
			<path class="st0" d="M19,58.3c-1.4,0.4-2.8,1-4.1,1.4c-1.4,0.5-2.9,0.9-4.3,1.2c-2.9,0.7-5.9,1.1-8.8,1.7c-0.2,0-0.1,0.2,0,0.2
				c2.9-0.1,5.9-0.8,8.7-1.4c2.9-0.7,6-1.4,8.8-2.6C19.6,58.7,19.3,58.2,19,58.3z"/>
			<path class="st0" d="M13.7,30.5c-0.4,2.7-0.6,5.4-0.9,8.1c-0.3,2.8-0.5,5.6-0.8,8.4c-0.1,0-0.1,0-0.2,0.1c-0.6,0.5-1,1.3-1.5,1.9
				c-0.5,0.7-1,1.4-1.6,2c-1,1.3-2,2.6-3,4c-1,1.3-2,2.6-2.9,3.9c-1,1.3-2.1,2.6-2.8,4c-0.1,0.2,0.2,0.3,0.3,0.2
				c1.1-1.2,2-2.6,3.1-3.9c1-1.3,2-2.6,3-4c1-1.3,2-2.6,3-3.8c0.5-0.7,1-1.4,1.6-2c0.5-0.6,1-1.2,1.4-1.9c0.2,0.1,0.4,0,0.4-0.3
				c0.2-2.8,0.5-5.7,0.7-8.5c0.2-2.7,0.5-5.4,0.5-8.1C13.9,30.6,13.8,30.6,13.7,30.5z"/>
			<path class="st0" d="M38.6,29.9c0-0.1,0-0.2,0-0.3c0-0.1-0.3-0.2-0.3-0.1s0,0.1-0.1,0.2c-0.1,0-0.1,0-0.2,0.1
				c-2.2,1.3-4.4,2.7-6.7,4c-2.1,1.1-4.4,2.1-6.5,3.2c-2-1.1-3.9-2.3-5.9-3.4c-1.7-1-3.4-2-5.2-2.9c-0.1,0.2-0.1,0.3-0.2,0.5
				c1.6,1.1,3.3,2,5,3c1.9,1.1,3.9,2.3,5.8,3.4c0.1,0.1,0.2,0.1,0.3,0.2c0.3,0.2,0.5,0,0.5-0.2c2.3-0.7,4.5-1.9,6.6-3S36,32.3,38,31
				c-0.2,1.2-0.2,2.5-0.4,3.7c-0.1,1.5-0.3,3-0.4,4.5c-0.1,0.1-0.1,0.2-0.1,0.3c0,0.2,0,0.4,0,0.6c-1.4,2.4-2.6,4.9-4.1,7.3
				c-0.7,1.2-1.5,2.3-2.2,3.5c-0.7,1.1-1.6,2.1-2.2,3.3c-4.6,2.1-9.1,4.1-13.9,5.6c-2.3,0.7-4.7,1.4-7.1,1.9C6.4,62,5.2,62.2,4,62.5
				s-2.6,0.4-3.8,0.8c-0.2,0.1-0.1,0.4,0.1,0.4c1.2,0.1,2.5-0.3,3.7-0.5s2.4-0.5,3.6-0.7c2.5-0.6,5-1.3,7.5-2
				c4.8-1.5,9.6-3.3,14-5.7c0.3-0.1,0.2-0.4,0-0.6c0.8-0.8,1.5-1.9,2.2-2.9c0.8-1.2,1.7-2.4,2.4-3.7c1.5-2.3,3-4.7,4.1-7.2
				c0,0,0.1-0.1,0.1-0.2l0,0c0-0.1,0-0.2,0-0.2c0.1-1.7,0.3-3.5,0.4-5.2c0.1-1.4,0.3-2.9,0.3-4.3C38.7,30.3,38.7,30.1,38.6,29.9z"/>
		</g>
		<g>
			<path class="st0" d="M62.8,18.8c-1.5-2.5-3-4.9-4.4-7.4c0-0.1-0.2-0.1-0.2,0c-1.1,3.3-2,6.6-3,9.9c0,0.1,0.1,0.2,0.2,0.1
				c0.9-3,2-6,2.8-9.1c0.3,1.2,0.7,2.4,1.1,3.7c0.4,1.4,0.8,2.8,1.3,4.1c0,0.1,0.3,0.1,0.3,0c-0.3-1.3-0.8-2.6-1.2-3.9
				c-0.5-1.4-0.9-2.7-1.4-4.1l0,0c0-0.1,0-0.2,0.1-0.3c1.5,2.3,2.8,4.8,4.2,7.1C62.7,19,62.9,18.9,62.8,18.8z"/>
			<path class="st0" d="M69.2,14.6c-1.2,0.8-2.4,1.8-3.6,2.7c-1.1,0.9-2.3,1.7-3.4,2.6V20c-3.7,1.3-7.4,2.3-11,3.7
				c-0.1,0,0,0.2,0.1,0.2c3.8-1.1,7.5-2.5,11.3-3.6c0.2,0,0.1-0.2,0-0.3c1.2-0.8,2.3-1.7,3.4-2.5c1.1-0.9,2.3-1.7,3.4-2.6
				C69.5,14.7,69.3,14.5,69.2,14.6z"/>
			<path class="st0" d="M55.8,19.2c-1.4,1.1-2.6,2.6-3.9,3.8c-0.1,0.1,0.1,0.2,0.2,0.1c1.3-1.2,2.8-2.3,4-3.7
				C56.2,19.3,56,19.1,55.8,19.2z"/>
			<path class="st0" d="M68.7,14.4c-2.5,0.6-5.1,1.3-7.6,2c-0.1,0,0,0.2,0.1,0.2c2.5-0.6,5.1-1.2,7.6-2C69,14.6,68.8,14.4,68.7,14.4
				z"/>
			<path class="st0" d="M63.1,20.1c0-0.1-0.2-0.2-0.2,0c-0.2,1.5-0.4,3-0.4,4.6c0,0.2,0.3,0.3,0.4,0.1
				C63.1,23.2,63.1,21.7,63.1,20.1z"/>
			<path class="st0" d="M56.8,26.5c-0.8-0.4-1.7-0.7-2.5-1s-1.5-0.6-2.3-0.8c-0.1,0-0.1,0.1-0.1,0.2c0.8,0.4,1.6,0.7,2.5,1.1
				c0.8,0.3,1.5,0.7,2.3,0.9C56.9,26.8,56.9,26.6,56.8,26.5z"/>
			<path class="st0" d="M62.4,24.9c-1.6,0.4-3.1,0.9-4.6,1.4c-0.1,0,0,0.2,0.1,0.2c1.5-0.4,3.1-0.8,4.6-1.3
				C62.7,25.1,62.5,24.9,62.4,24.9z"/>
			<path class="st0" d="M68.7,18.3c-1.8,2.1-3.7,4.3-5.4,6.5c-0.1,0.1,0.1,0.2,0.2,0.1c1.9-2,3.7-4.2,5.5-6.4
				C69.1,18.4,68.8,18.1,68.7,18.3z"/>
			<path class="st0" d="M69.8,14.9c-0.2,0.8-0.5,1.7-0.6,2.5c0,0.2,0.2,0.2,0.3,0.1c0.2-0.8,0.4-1.7,0.6-2.6
				C70,14.9,69.8,14.8,69.8,14.9z"/>
		</g>
		<g>
			<path class="st0" d="M56.5,41c-4,1.9-8,3.8-12,5.8c-0.1,0.1,0,0.2,0.1,0.1C48.6,45,52.6,43,56.5,41C56.8,41.1,56.6,40.9,56.5,41z
				"/>
			<path class="st0" d="M58.3,40.1C58.2,40.1,58.2,40.2,58.3,40.1C58.5,40.3,58.4,40.1,58.3,40.1z"/>
			<path class="st0" d="M50.9,30.4c-0.2,2.2-0.4,4.4-0.5,6.5c-0.1,1.1-0.2,2.1-0.3,3.2c-0.1,1.1-0.2,2.2-0.3,3.3
				c0,0.2,0.3,0.3,0.3,0.1c0.1-1.1,0.2-2.2,0.2-3.2c0.1-1.1,0.2-2.2,0.2-3.3C50.7,34.8,50.8,32.6,50.9,30.4
				C51.1,30.3,50.9,30.2,50.9,30.4z"/>
			<path class="st0" d="M58.5,37.4c-0.4-0.6-1-1.2-1.4-1.7c-0.5-0.6-1-1.2-1.5-1.8c-1-1.2-2-2.4-3-3.5c-0.1-0.1-0.2,0-0.1,0.1
				c1,1.2,2,2.5,3,3.7c0.5,0.6,1,1.2,1.4,1.7c0.5,0.6,0.9,1.2,1.5,1.8C58.5,37.7,58.6,37.5,58.5,37.4z"/>
			<path class="st0" d="M56.9,39.8c-1.6-2.7-3.3-5.4-4.9-8.1c0-0.1-0.2,0-0.1,0c1.6,2.7,3.2,5.5,4.8,8.2C56.8,40,57,39.9,56.9,39.8z
				"/>
			<path class="st0" d="M49.6,37.9c-0.6,1.4-1.2,2.7-1.8,4.1c-0.6,1.4-1.3,2.7-1.8,4.1c-0.1,0.2,0.2,0.3,0.3,0.1
				c0.7-1.3,1.2-2.8,1.8-4.1c0.6-1.4,1.2-2.8,1.8-4.1C49.8,37.9,49.6,37.8,49.6,37.9z"/>
			<path class="st0" d="M66.4,29.5c-3.4,1.4-6.7,2.9-10,4.3c-0.1,0,0,0.2,0.1,0.2c3-1.3,6.1-2.6,9.1-3.9c-1,1-2,2.1-2.9,3.1
				c-1.1,1.2-2.2,2.3-3.3,3.5c-0.1,0.1,0.1,0.2,0.2,0.1c1.1-1.1,2.2-2.3,3.3-3.4c1.1-1.1,2.3-2.2,3.3-3.5v-0.1
				c0.1,0,0.2-0.1,0.3-0.1C66.6,29.6,66.5,29.4,66.4,29.5z"/>
			<path class="st0" d="M59.9,41.4c-0.1-1.2-0.2-2.5-0.4-3.7c0-0.1-0.2-0.1-0.2,0c0.1,1.2,0.2,2.4,0.3,3.6c0.1,1.2,0.1,2.4,0.3,3.6
				c0,0.2,0.3,0.2,0.3,0C60.2,43.8,60,42.6,59.9,41.4z"/>
			<path class="st0" d="M60.2,45c-1.2,0.3-2.3,0.8-3.5,1.2c-0.7,0.3-1.5,0.5-2.3,0.8c-2.9,0-5.7,0.1-8.6,0.2c-0.1,0-0.1,0.2,0,0.2
				c2.6,0,5.2,0,7.8-0.1c-0.1,0-0.2,0.1-0.2,0.1c-0.1,0,0,0.2,0.1,0.2c0.4-0.1,0.7-0.2,1.1-0.3c0.5,0,1,0,1.5,0c0.2,0,0.1-0.3,0-0.3
				c-0.2,0-0.3,0-0.5,0c0.5-0.2,0.9-0.3,1.4-0.5c1.1-0.4,2.3-0.7,3.4-1.1C60.6,45.2,60.4,44.9,60.2,45z"/>
			<path class="st0" d="M65.7,36.9c-1.9,2.5-3.6,5.2-5.3,7.8c-0.1,0.1,0.1,0.2,0.2,0.1c1.8-2.6,3.7-5.1,5.3-7.8
				C66,36.9,65.8,36.8,65.7,36.9z"/>
			<path class="st0" d="M65.9,30.4c-0.5,2.5-1.1,4.9-1.6,7.4c0,0.2,0.2,0.2,0.3,0.1c0.6-2.4,1-4.9,1.5-7.4
				C66.1,30.3,65.9,30.2,65.9,30.4z"/>
		</g>
		<g>
			<path class="st0" d="M31.2,8.8c-2.2,0.6-4.4,1.2-6.5,1.9c-0.1,0,0,0.1,0,0.1C27,10.2,29.1,9.5,31.2,8.8
				C31.3,8.9,31.3,8.8,31.2,8.8z"/>
			<path class="st0" d="M32.2,8.5C32.1,8.5,32.2,8.6,32.2,8.5C32.3,8.6,32.3,8.5,32.2,8.5z"/>
			<path class="st0" d="M29.3,3c-0.3,1.1-0.6,2.2-0.8,3.2c-0.1,0.5-0.3,1.1-0.4,1.6s-0.3,1.1-0.4,1.7c0,0.1,0.1,0.2,0.2,0.1
				c0.2-0.5,0.3-1.1,0.4-1.6c0.1-0.6,0.3-1.1,0.4-1.7C28.9,5.2,29.2,4.1,29.3,3C29.4,2.9,29.3,2.9,29.3,3z"/>
			<path class="st0" d="M32.5,7.2c-0.1-0.3-0.4-0.7-0.6-1c-0.2-0.3-0.4-0.7-0.6-1c-0.4-0.7-0.8-1.4-1.2-2H30
				c0.4,0.7,0.8,1.4,1.2,2.1c0.2,0.3,0.4,0.7,0.6,1c0.2,0.3,0.4,0.7,0.6,1C32.5,7.3,32.6,7.2,32.5,7.2z"/>
			<path class="st0" d="M31.5,8.2c-0.6-1.5-1.2-3-1.8-4.5h-0.1c0.6,1.5,1.1,3,1.7,4.5C31.4,8.3,31.6,8.3,31.5,8.2z"/>
			<path class="st0" d="M28,6.7c-0.4,0.6-0.9,1.3-1.3,1.9c-0.4,0.6-0.9,1.3-1.3,1.9c0,0.1,0.1,0.2,0.1,0.1c0.5-0.6,0.8-1.3,1.3-1.9
				C27.3,8,27.7,7.4,28,6.7C28.1,6.7,28,6.6,28,6.7z"/>
			<path class="st0" d="M37.2,3.8c-1.8,0.4-3.6,0.9-5.4,1.3c-0.1,0,0,0.1,0,0.1c1.6-0.4,3.3-0.7,4.9-1.1C36.1,4.5,35.5,5,35,5.4
				c-0.7,0.5-1.3,1-1.9,1.5c0,0,0,0.1,0.1,0.1c0.7-0.5,1.3-1,2-1.4c0.7-0.5,1.4-0.9,2-1.5c0,0,0,0,0-0.1C37.1,4,37.2,3.9,37.2,3.8
				C37.3,3.9,37.2,3.8,37.2,3.8z"/>
			<path class="st0" d="M32.9,9.3C32.9,8.7,33,8,33,7.4c0-0.1-0.1-0.1-0.1,0c-0.1,0.6-0.1,1.2-0.2,1.8c-0.1,0.6-0.2,1.2-0.2,1.8
				c0,0.1,0.1,0.1,0.2,0C32.9,10.5,32.8,9.9,32.9,9.3z"/>
			<path class="st0" d="M32.7,11.1c-0.6,0-1.2,0.2-1.9,0.3c-0.4,0.1-0.8,0.1-1.2,0.2c-1.4-0.2-2.9-0.4-4.3-0.6c-0.1,0-0.1,0.1,0,0.1
				c1.3,0.2,2.6,0.4,3.9,0.6h-0.1c-0.1,0,0,0.1,0,0.1c0.2,0,0.4,0,0.6,0c0.3,0,0.5,0.1,0.8,0.1c0.1,0,0.1-0.1,0-0.1
				c-0.1,0-0.2,0-0.3,0c0.2,0,0.5-0.1,0.7-0.1c0.6-0.1,1.2-0.1,1.8-0.3C32.9,11.3,32.9,11.1,32.7,11.1z"/>
			<path class="st0" d="M36.2,7.5C35,8.6,34,9.8,32.9,11c0,0,0,0.1,0.1,0.1c1.1-1.1,2.3-2.3,3.3-3.4C36.4,7.6,36.3,7.5,36.2,7.5z"/>
			<path class="st0" d="M36.8,4.2c-0.5,1.2-1,2.4-1.4,3.6c0,0.1,0.1,0.1,0.1,0.1C36.1,6.7,36.5,5.5,36.8,4.2
				C37,4.2,36.9,4.2,36.8,4.2z"/>
		</g>
		<g>
			<path class="st0" d="M49.2,9.5c-2.8,0.8-5.7,1.5-8.5,2.4c-0.1,0,0,0.1,0.1,0.1C43.7,11.2,46.5,10.4,49.2,9.5
				C49.4,9.5,49.3,9.4,49.2,9.5z"/>
			<path class="st0" d="M50.5,9.1C50.4,9.1,50.4,9.2,50.5,9.1C50.6,9.2,50.6,9.1,50.5,9.1z"/>
			<path class="st0" d="M46,3.3c-0.2,1.2-0.5,2.3-0.7,3.5C45.2,7.4,45.1,8,45,8.5c-0.1,0.6-0.3,1.2-0.4,1.8c0,0.1,0.2,0.2,0.2,0.1
				C45,9.8,45,9.2,45.1,8.7c0.1-0.6,0.2-1.2,0.3-1.8c0.2-1.2,0.4-2.3,0.7-3.5C46.1,3.3,46,3.3,46,3.3z"/>
			<path class="st0" d="M50.8,7.7c-0.2-0.4-0.6-0.7-0.9-1c-0.3-0.4-0.6-0.7-1-1.1c-0.6-0.7-1.3-1.4-1.9-2.1h-0.1
				c0.6,0.7,1.2,1.5,1.9,2.2c0.3,0.3,0.6,0.7,0.9,1c0.3,0.4,0.6,0.7,0.9,1.1C50.7,7.8,50.8,7.7,50.8,7.7z"/>
			<path class="st0" d="M49.6,8.8c-0.9-1.6-2-3.2-2.9-4.7h-0.1c1,1.6,1.9,3.2,2.9,4.8C49.4,9,49.6,8.9,49.6,8.8z"/>
			<path class="st0" d="M44.6,7.4c-0.5,0.7-1,1.4-1.5,2.1s-1.1,1.4-1.5,2.1c0,0.1,0.1,0.2,0.2,0.1c0.6-0.7,1-1.4,1.4-2.1
				C43.7,8.9,44.1,8.2,44.6,7.4C44.8,7.4,44.7,7.3,44.6,7.4z"/>
			<path class="st0" d="M56.6,3.9c-2.4,0.5-4.7,1.1-7.1,1.7c-0.1,0,0,0.1,0,0.1c2.1-0.5,4.3-1,6.4-1.5c-0.8,0.5-1.4,1-2.2,1.5
				c-0.8,0.6-1.6,1.1-2.4,1.7c-0.1,0,0,0.1,0.1,0.1C52.2,7,53,6.4,53.9,5.9c0.8-0.7,1.7-1.2,2.5-1.8c0,0,0,0,0-0.1
				C56.5,4,56.5,4,56.6,3.9C56.7,4,56.6,3.9,56.6,3.9z"/>
			<path class="st0" d="M51.5,9.9c0-0.7,0-1.3-0.1-2c0-0.1-0.1-0.1-0.1,0c0,0.7,0,1.3,0,2c0,0.6-0.1,1.3,0,2c0,0.1,0.2,0.1,0.2,0
				C51.6,11.2,51.5,10.6,51.5,9.9z"/>
			<path class="st0" d="M51.5,11.9c-0.8,0.1-1.6,0.3-2.4,0.4c-0.5,0.1-1.1,0.2-1.6,0.3c-2-0.2-3.9-0.3-5.9-0.5c-0.1,0-0.1,0.1,0,0.1
				c1.8,0.2,3.6,0.3,5.3,0.5c-0.1,0-0.1,0-0.2,0c-0.1,0,0,0.1,0.1,0.1c0.3,0,0.5,0,0.8-0.1c0.3,0,0.7,0.1,1,0.1c0.1,0,0.1-0.1,0-0.2
				c-0.1,0-0.2,0-0.3,0c0.3-0.1,0.6-0.1,1-0.2c0.8-0.1,1.6-0.2,2.4-0.4C51.8,12,51.7,11.9,51.5,11.9z"/>
			<path class="st0" d="M55.7,7.9c-1.4,1.2-2.7,2.6-4,3.9c-0.1,0.1,0.1,0.1,0.1,0.1c1.4-1.3,2.8-2.5,4.1-3.8
				C55.9,7.9,55.8,7.8,55.7,7.9z"/>
			<path class="st0" d="M56.2,4.3c-0.5,1.3-1,2.6-1.5,3.9c0,0.1,0.2,0.1,0.2,0.1c0.5-1.3,0.9-2.6,1.4-3.9
				C56.3,4.3,56.2,4.3,56.2,4.3z"/>
		</g>
		<g>
			<path class="st0" d="M19.7,22.4c-2.5,1.3-5.1,2.5-7.5,3.8c-0.1,0,0,0.1,0.1,0.1C14.8,25,17.3,23.7,19.7,22.4
				C19.9,22.4,19.8,22.3,19.7,22.4z"/>
			<path class="st0" d="M20.8,21.8C20.8,21.8,20.8,21.9,20.8,21.8C20.9,21.9,20.9,21.8,20.8,21.8z"/>
			<path class="st0" d="M16.1,15.6c-0.1,1.4-0.2,2.8-0.3,4.2c0,0.7-0.1,1.4-0.1,2c0,0.7-0.1,1.4-0.1,2.1c0,0.1,0.2,0.2,0.2,0
				c0.1-0.7,0.1-1.4,0.1-2c0-0.7,0.1-1.4,0.1-2.1c0.1-1.4,0.2-2.8,0.2-4.2C16.2,15.6,16.1,15.6,16.1,15.6z"/>
			<path class="st0" d="M21,20.1c-0.3-0.4-0.6-0.7-0.9-1.1s-0.7-0.8-1-1.1c-0.6-0.7-1.3-1.5-2-2.2H17c0.6,0.8,1.3,1.5,1.9,2.3
				c0.3,0.4,0.6,0.7,0.9,1.1s0.6,0.8,1,1.1C20.9,20.3,21,20.2,21,20.1z"/>
			<path class="st0" d="M19.9,21.6c-1-1.7-2.1-3.4-3.2-5.1h-0.1c1,1.7,2,3.5,3.1,5.2C19.8,21.7,20,21.7,19.9,21.6z"/>
			<path class="st0" d="M15.3,20.5c-0.4,0.9-0.8,1.7-1.1,2.6c-0.4,0.9-0.8,1.7-1.1,2.6c0,0.1,0.1,0.2,0.2,0.1
				c0.4-0.8,0.8-1.8,1.1-2.6c0.4-0.9,0.7-1.8,1.1-2.6C15.4,20.5,15.3,20.4,15.3,20.5z"/>
			<path class="st0" d="M25.9,15c-2.1,0.9-4.2,1.9-6.3,2.8c-0.1,0,0,0.1,0,0.1c1.9-0.8,3.8-1.7,5.8-2.5c-0.6,0.6-1.2,1.3-1.8,2
				c-0.7,0.7-1.4,1.5-2.1,2.2c0,0.1,0,0.1,0.1,0.1c0.7-0.7,1.4-1.5,2.1-2.2s1.5-1.4,2.1-2.2v-0.1c0.1,0,0.1-0.1,0.2-0.1
				C26,15.1,25.9,15,25.9,15z"/>
			<path class="st0" d="M21.8,22.6c-0.1-0.8-0.2-1.6-0.3-2.3c0-0.1-0.1-0.1-0.1,0c0,0.8,0.1,1.5,0.2,2.3s0.1,1.5,0.2,2.3
				c0,0.1,0.2,0.1,0.2,0C22.1,24.1,21.9,23.4,21.8,22.6z"/>
			<path class="st0" d="M22.1,24.9c-0.7,0.2-1.5,0.5-2.2,0.8c-0.5,0.2-1,0.3-1.4,0.5c-1.8,0-3.6,0.1-5.4,0.2c-0.1,0-0.1,0.1,0,0.1
				c1.6,0,3.3-0.1,4.9-0.1c0,0-0.1,0-0.1,0.1c-0.1,0,0,0.1,0.1,0.1c0.2,0,0.5-0.1,0.7-0.2c0.3,0,0.6,0,0.9,0c0.1,0,0.1-0.2,0-0.2
				s-0.2,0-0.3,0c0.3-0.1,0.6-0.2,0.9-0.3c0.7-0.2,1.5-0.4,2.1-0.7C22.3,25,22.2,24.8,22.1,24.9z"/>
			<path class="st0" d="M25.5,19.7c-1.2,1.6-2.2,3.3-3.3,5c0,0.1,0.1,0.2,0.1,0.1c1.1-1.6,2.3-3.3,3.3-5
				C25.7,19.7,25.6,19.6,25.5,19.7z"/>
			<path class="st0" d="M25.6,15.6c-0.3,1.6-0.7,3.1-1,4.7c0,0.1,0.2,0.1,0.2,0c0.3-1.6,0.6-3.1,0.9-4.7
				C25.7,15.5,25.6,15.5,25.6,15.6z"/>
		</g>
		<g>
			<path class="st0" d="M31.8,14.3c0-0.1-0.2-0.1-0.2,0c-0.2,2.9-0.3,5.9-0.5,8.8c0,0.1,0.2,0.2,0.2,0
				C31.6,20.2,31.7,17.2,31.8,14.3z"/>
			<path class="st0" d="M37,21.2c-1.5-2.4-3.2-4.8-5-7c-0.1-0.1-0.2,0-0.1,0.1c1.5,2.4,3.2,4.8,4.9,7.1C36.9,21.4,37.1,21.3,37,21.2
				z"/>
			<path class="st0" d="M36.8,22.8c-1.2,0.4-2.3,0.8-3.5,1.2c-1,0.3-4.2,1.3-5.5,1.9c1-1.6,2.1-3.2,3.1-4.9c0.1-0.1-0.1-0.2-0.2-0.1
				c-1.1,1.6-2.1,3.3-3.1,5V26l0,0c-0.1,0.1,0,0.2,0.1,0.2c1.2-0.2,4.8-1.6,5.9-2c1.1-0.4,2.3-0.7,3.4-1.1
				C37.1,23,37,22.7,36.8,22.8z"/>
			<path class="st0" d="M42.6,15.7c-1.5,1.6-4,5.2-5.4,6.8c-0.1,0.1,0.1,0.2,0.1,0.1c1.5-1.6,4.1-5.1,5.5-6.8
				C42.9,15.8,42.7,15.6,42.6,15.7z"/>
			<path class="st0" d="M42.1,15.1c-2.2,0.5-4.3,1.4-6.3,2.6c-1.2-1.1-2.4-2.3-3.6-3.4c-0.1-0.1-0.2,0-0.1,0.1
				c1.1,1.2,2.3,2.3,3.4,3.5c-0.1,0-0.1,0.1-0.2,0.1c-0.1,0.1,0,0.2,0.1,0.1c0.1,0,0.1-0.1,0.2-0.1c0.6,0.6,1.2,1.2,1.8,1.8
				c0.2,0.2,0.5-0.1,0.3-0.3c-0.6-0.6-1.1-1.1-1.7-1.7c1.9-1.1,4-1.9,6.2-2.5C42.3,15.3,42.2,15,42.1,15.1z"/>
			<path class="st0" d="M31.7,23.8c0-0.1-0.2-0.1-0.2,0c0,0.2,0,0.5,0,0.7c0,0.1,0.2,0.2,0.2,0S31.7,24.1,31.7,23.8z"/>
			<path class="st0" d="M35.6,25.7c-2.5,0-5,0.1-7.5,0.2c-0.1,0-0.1,0.2,0,0.2c2.5,0,5,0,7.5-0.1C35.8,26,35.8,25.7,35.6,25.7z"/>
			<path class="st0" d="M38.1,24.4c-0.1-0.6-0.3-1.3-0.5-1.9c0-0.1-0.2-0.1-0.2,0c0.1,0.6,0.2,1.3,0.4,1.9
				C37.8,24.6,38.1,24.6,38.1,24.4z"/>
			<path class="st0" d="M42.5,15.6c0-0.1-0.2-0.2-0.2-0.1c-0.2,1.5-0.4,2.9-0.5,4.4c-0.9,1.5-1.8,3-2.7,4.5
				c-0.1,0.2,0.2,0.4,0.3,0.2c0.8-1.4,1.6-2.8,2.4-4.2c0,0.1,0.2,0.1,0.3,0C42.3,18.8,42.4,17.2,42.5,15.6z"/>
			<path class="st0" d="M38.2,24.9c-1.3,0.4-2.7,0.8-4,1.4c-0.2,0.1,0,0.4,0.2,0.3c1.3-0.4,2.6-1,3.9-1.6
				C38.4,25.1,38.3,24.9,38.2,24.9z"/>
		</g>
		<g>
			<path class="st0" d="M65.6,0.1c0-0.1-0.2-0.1-0.2,0c-0.1,2.5-0.2,4.9-0.3,7.4c0,0.1,0.2,0.1,0.2,0C65.4,5,65.5,2.5,65.6,0.1z"/>
			<path class="st0" d="M71.5,6c-1.8-2.1-3.7-4.1-5.7-6c-0.1-0.1-0.2,0-0.2,0.1c1.8,2,3.7,4,5.7,6C71.4,6.2,71.6,6.1,71.5,6z"/>
			<path class="st0" d="M71.3,7.3c-1.3,0.3-2.6,0.6-3.9,0.9c-1.1,0.2-4.7,1-6.1,1.5c1.1-1.3,2.3-2.6,3.3-4c0.1-0.1-0.1-0.2-0.2-0.1
				c-1.2,1.3-2.2,2.8-3.3,4.1c0,0,0,0,0,0.1l0,0c-0.1,0,0,0.2,0.1,0.2c1.3-0.1,5.3-1.2,6.5-1.5s2.5-0.6,3.8-0.9
				C71.7,7.5,71.5,7.3,71.3,7.3z"/>
			<path class="st0" d="M77.5,1.5c-1.7,1.3-4.3,4.2-5.9,5.6c-0.1,0.1,0.1,0.2,0.2,0.1c1.6-1.3,4.5-4.1,6-5.5
				C77.9,1.6,77.7,1.4,77.5,1.5z"/>
			<path class="st0" d="M76.9,1c-2.4,0.4-4.8,1.1-6.9,2c-1.4-1-2.7-2-4.1-2.9c-0.1-0.1-0.2,0-0.1,0.1c1.3,1,2.6,2,3.9,3
				c-0.1,0-0.1,0-0.2,0.1c-0.1,0,0,0.2,0.1,0.1c0.1,0,0.1-0.1,0.2-0.1c0.7,0.5,1.4,1,2,1.5C72,5,72.3,4.7,72.1,4.6
				c-0.6-0.5-1.3-1-2-1.5c2.1-0.9,4.4-1.5,6.9-1.9C77.2,1.2,77.1,1,76.9,1z"/>
			<path class="st0" d="M65.7,8.1c0-0.1-0.2-0.1-0.2,0c0,0.2,0,0.4,0,0.6c0,0.1,0.3,0.2,0.3,0C65.7,8.5,65.7,8.3,65.7,8.1z"/>
			<path class="st0" d="M70,9.8c-2.8,0-5.5,0-8.3-0.1c-0.2,0-0.1,0.2,0,0.2c2.8,0,5.5,0.1,8.3,0.1C70.3,10,70.2,9.8,70,9.8z"/>
			<path class="st0" d="M72.8,8.8c-0.2-0.6-0.4-1.1-0.6-1.7C72.2,7,72,7,72,7.1c0.1,0.5,0.3,1.1,0.5,1.6C72.5,8.9,72.8,8.9,72.8,8.8
				z"/>
			<path class="st0" d="M77.4,1.5c0-0.1-0.2-0.2-0.2-0.1c-0.2,1.2-0.4,2.5-0.5,3.7c-1,1.2-1.9,2.4-2.9,3.7C73.7,8.9,74,9.1,74.1,9
				c0.9-1.2,1.7-2.3,2.5-3.5c0.1,0.1,0.3,0.1,0.3,0C77.3,4.2,77.3,2.8,77.4,1.5z"/>
			<path class="st0" d="M72.9,9.2c-1.5,0.3-3,0.6-4.4,1.1c-0.2,0.1,0,0.3,0.2,0.3c1.5-0.3,2.9-0.8,4.3-1.2C73.1,9.3,73,9.2,72.9,9.2
				z"/>
		</g>
		<g>
			<path class="st0" d="M78.7,10.4c0-0.1-0.2-0.2-0.2,0c-0.7,3.5-1.5,7-2.1,10.5c0,0.1,0.2,0.2,0.2,0.1C77.4,17.4,78,13.9,78.7,10.4
				z"/>
			<path class="st0" d="M83.8,19.6c-1.5-3.2-3.1-6.3-4.8-9.3c-0.1-0.1-0.3-0.1-0.2,0.1c1.5,3.2,3,6.3,4.8,9.4
				C83.7,19.9,83.9,19.8,83.8,19.6z"/>
			<path class="st0" d="M83.3,21.5c-1.5,0.2-3,0.5-4.5,0.8c-1.3,0.2-5.4,0.8-7.1,1.3c1.6-1.7,3.2-3.5,4.6-5.3
				c0.1-0.1-0.1-0.3-0.2-0.2c-1.6,1.8-3.1,3.6-4.7,5.5v0.1c0,0,0,0-0.1,0s0,0.2,0.1,0.2c1.4,0,6.2-1.1,7.6-1.3
				c1.5-0.3,2.9-0.5,4.4-0.7C83.6,21.8,83.6,21.4,83.3,21.5z"/>
			<path class="st0" d="M91.6,14c-2.2,1.6-5.8,5.5-7.8,7.2c-0.1,0.1,0,0.3,0.1,0.2c2.1-1.7,5.9-5.3,7.9-7.2
				C91.9,14.2,91.7,13.9,91.6,14z"/>
			<path class="st0" d="M91.1,13.2c-2.8,0.2-5.6,0.9-8.1,2c-1.3-1.6-2.6-3.2-3.8-4.7c-0.1-0.1-0.2,0-0.2,0.1
				c1.2,1.6,2.4,3.2,3.5,4.8c-0.1,0-0.1,0.1-0.2,0.1c-0.1,0.1,0,0.2,0.1,0.2s0.2-0.1,0.2-0.1c0.6,0.8,1.2,1.6,1.9,2.4
				c0.2,0.3,0.6,0,0.4-0.3c-0.6-0.8-1.2-1.6-1.8-2.3c2.6-1,5.3-1.6,8.1-1.8C91.3,13.5,91.2,13.2,91.1,13.2z"/>
			<path class="st0" d="M76.8,21.8c0-0.1-0.2-0.2-0.2,0c0,0.3-0.1,0.6-0.1,0.9c0,0.2,0.3,0.3,0.3,0.1C76.8,22.4,76.8,22.1,76.8,21.8
				z"/>
			<path class="st0" d="M81.3,24.8c-3.1-0.4-6.1-0.8-9.2-1.2c-0.2,0-0.2,0.2,0,0.2c3.1,0.4,6.1,0.9,9.2,1.2
				C81.5,25.1,81.5,24.8,81.3,24.8z"/>
			<path class="st0" d="M84.6,23.7c0-0.8-0.1-1.6-0.3-2.4c0-0.1-0.2-0.2-0.2,0c0,0.8,0.1,1.6,0.2,2.4C84.2,23.9,84.6,23.9,84.6,23.7
				z"/>
			<path class="st0" d="M91.5,13.9c0-0.1-0.2-0.2-0.2-0.1c-0.5,1.7-1,3.5-1.4,5.2c-1.4,1.6-2.7,3.2-4.1,4.9
				c-0.2,0.2,0.2,0.5,0.3,0.3c1.2-1.5,2.4-3.1,3.7-4.7c0,0.1,0.3,0.2,0.3,0C90.7,17.7,91.1,15.8,91.5,13.9z"/>
			<path class="st0" d="M84.6,24.4c-1.7,0.3-3.5,0.5-5.1,1c-0.2,0.1-0.1,0.5,0.1,0.4c1.7-0.3,3.4-0.8,5.1-1.2
				C84.8,24.5,84.8,24.3,84.6,24.4z"/>
		</g>
	</g>
</g>
</svg>
