<svg id="Layer_1" data-name="Layer 1" xmlns="http://www.w3.org/2000/svg" viewBox="0 0 174.22 137.05"><defs><style>.cls-1{fill:#4e4e4e;}</style></defs><path class="cls-1" d="M71.35,89.19C65,86.13,56.25,92,50.61,95.94,41.27,84.8,35.94,71.26,32,57.38c5.94-1.74,13.4-3.49,17.55-7.73,3.83-3.9,2.13-8.71.9-13.6C48.07,26.71,41.59,5,28.83,5.49a2.25,2.25,0,0,0-1.38.12c-44.87,17.48-26,75.87-4.62,105C34.69,126.78,55,141.09,76.05,136c5.73-1.38,16.62-6.41,17.38-13,.56-4.91-5.42-13.09-7.74-16.87C82.25,100.48,77.56,92.2,71.35,89.19Zm11,38.56A26.37,26.37,0,0,1,74.67,131c-11.57,2.89-23.59-1.85-32.95-8.48C12.31,101.72-17.93,29.05,28.64,10.68,37.7,10.51,43.41,29.74,45.05,36c1.35,5.14,3.42,8.83-1.9,11.67-4.6,2.46-10.12,3.9-15,5.52a2.63,2.63,0,0,0-1.81,3.18c4.47,16.3,10.64,32.14,22,44.89a2.59,2.59,0,0,0,3.13.41c4-2.72,8.45-5.83,13.07-7.26,4.23-1.31,5.72,0,8.6,3.14,4.73,5.07,8.52,11.42,11.69,17.56.9,1.74,3.79,6,3.42,8.13C88.21,123.42,81.58,128.26,82.38,127.75Z"/><path class="cls-1" d="M140.25,1.7C121.68-2.49,101.58.76,87.93,14.83c-16,16.48-15.37,42,1.45,57.15a163.49,163.49,0,0,1-6,19.45c-.8,2.18,2,4,3.81,2.93,6.52-3.88,12.83-8.1,19.34-12a59.54,59.54,0,0,0,20.71,3.76c22.9.37,43.31-14.58,46.55-37.95C176.94,25.6,161.7,6.55,140.25,1.7ZM169,44.84c-1.57,22-20.54,36.42-41.73,36.08a54.37,54.37,0,0,1-20.11-3.87l-.27-.1a2,2,0,0,0-2.4.59c-4.64,2.77-9.18,5.71-13.75,8.58a141.6,141.6,0,0,0,4-14.2,2.11,2.11,0,0,0-.63-2.67c-16.77-14.11-16.61-38.52-.1-53,11.73-10.31,27.85-12.89,42.88-9.94C155.54,9.92,170.45,24.65,169,44.84Z"/><path class="cls-1" d="M108.23,37.26a1.87,1.87,0,0,0-.87-.47,1.84,1.84,0,0,0-.86-.15c-3.42-.54-7,.69-8.15,4.36s1.58,7,4.88,8a6.52,6.52,0,0,0,8.17-4C112.35,42.18,110.75,38.83,108.23,37.26ZM107.65,44a2.65,2.65,0,0,1-3.39,1.27c-1.32-.43-2.71-1.79-2.15-3.29.69-1.84,2.65-1.85,4.21-1.47A3.24,3.24,0,0,1,107.65,44Z"/><path class="cls-1" d="M128.83,37.26a2.9,2.9,0,0,0-1.72-.62c-3.43-.54-7,.69-8.15,4.36s1.57,7,4.88,8a6.52,6.52,0,0,0,8.16-4C133,42.18,131.36,38.83,128.83,37.26ZM128.25,44a2.64,2.64,0,0,1-3.38,1.27c-1.32-.43-2.71-1.79-2.15-3.29.69-1.84,2.65-1.85,4.21-1.47A3.24,3.24,0,0,1,128.25,44Z"/><path class="cls-1" d="M149.44,37.26a1.87,1.87,0,0,0-.87-.47,1.84,1.84,0,0,0-.86-.15c-3.42-.54-7,.69-8.15,4.36s1.58,7,4.88,8a6.53,6.53,0,0,0,8.17-4C153.56,42.18,152,38.83,149.44,37.26ZM148.86,44a2.65,2.65,0,0,1-3.39,1.27c-1.32-.43-2.71-1.79-2.15-3.29.69-1.84,2.65-1.85,4.21-1.47A3.24,3.24,0,0,1,148.86,44Z"/></svg>