<?xml version="1.0" encoding="utf-8"?>
<!-- Generator: Adobe Illustrator 26.2.1, SVG Export Plug-In . SVG Version: 6.00 Build 0)  -->
<svg version="1.1" id="Layer_1" xmlns="http://www.w3.org/2000/svg" xmlns:xlink="http://www.w3.org/1999/xlink" x="0px" y="0px"
	 viewBox="0 0 360 131.9" style="enable-background:new 0 0 360 131.9;" xml:space="preserve">
<style type="text/css">
	.st0{fill:#BB8760;}
</style>
<path class="st0" d="M157.6,75.4v9.2c0,7.7-2.7,11.2-10.4,11.2h-3.9c-7.7,0-10.4-3.8-10.4-11.2V43.1c0-7.7,2.7-11.2,10.4-11.2h3.9
	c7.7,0,10.4,3.8,10.4,11.2v9.2h31.2v23.1L157.6,75.4z M42,76.6l9.3-50.8h2.3l9.3,50.8H42z M0,125h33.1l3.9-21.5h31.2l3.9,21.5h34.3
	l-4.2-20.4h1.5c5.4,15,17.7,23.1,38.5,23.1h3.9c27.4,0,40.9-14.2,41.6-38.5h1.9V125h79.8v-22.3h1.2c6.2,16.9,19.3,25,40.1,25h4.6
	c29.3,0,44.7-15,44.7-43.9V2.7h-35.1v82.7c0,6.9-2.7,10.8-10,10.8h-3.9c-7.7,0-10-3.8-10-10.8V2.7H266v89.3h-42V2.7h-35.1v35.8h-1.9
	C186.9,15,174.6,0,146.9,0h-5.4c-30.1,0-43.6,15.4-43.6,43.1v45.8h-1.2L80.9,2.7H25.4L0,125z"/>
</svg>
