<svg id="SvgjsSvg1237" width="288" height="288" xmlns="http://www.w3.org/2000/svg" version="1.1" xmlns:xlink="http://www.w3.org/1999/xlink" xmlns:svgjs="http://svgjs.com/svgjs"><defs id="SvgjsDefs1238"></defs><g id="SvgjsG1239"><svg xmlns="http://www.w3.org/2000/svg" enable-background="new 0 0 250 250" viewBox="0 0 250 250" width="288" height="288"><switch><g fill="#000000" class="color000 svgShape"><polygon fill="#bb8760" points="50.2 49.8 250 49.8 200.2 200.2 50.2 200.2" class="color0066b3 svgShape"></polygon><rect width="50.3" height="150.3" y="49.8" fill="#000000" class="colorce1141 svgShape"></rect><path fill="#ffffff" d="M62.9 109h5.8l1.7-4.6h8.1l1.6 4.6h6.4l-8.4-21.5h-7.1L62.9 109zM77.2 100.4h-5.4l2.8-8.6 0 0L77.2 100.4zM88.2 92.8h5.1v3l0 0c1.1-2.2 3.4-3.5 5.9-3.4 2.2-.1 4.2 1.1 5.1 3.1 1.2-2 3.4-3.2 5.7-3.1 4.6 0 5.7 2.6 5.7 7v9.5h-5.6v-8.6c0-1.8-.6-3.2-2.2-3.2-1.6 0-3.2 1.6-3.2 5.1v6.8h-5.5v-8.6c0-1.8-.7-3.2-2.2-3.2s-3.2 1.6-3.2 5.1v6.8h-5.6L88.2 92.8zM129.6 99.4c0-1.8-.9-3.4-3.1-3.4-2.2 0-3 1.5-3.1 3.4H129.6zM123.5 102.5c.3 2.2 2 3.1 4.8 3.1 1.7 0 3.4-.4 4.9-1.2v3.9c-1.9.7-3.9 1.1-5.9 1-4.7.5-8.9-3-9.4-7.7 0-.3 0-.6 0-.9-.3-4.4 3-8.3 7.4-8.6.4 0 .8 0 1.2 0 6 0 8.2 4.3 8.2 9.1v1L123.5 102.5zM148.5 97.3c-.6-.1-1.3-.1-1.9 0-2.6 0-4 1.9-4 5.1v6.8H137V92.8h5.1v3l0 0c.7-2 2.7-3.4 4.8-3.4.6 0 1.3 0 1.9 0L148.5 97.3zM156.2 90.2h-5.6v-4.1h5.6V90.2zM150.6 92.8h5.6V109h-5.6V92.8zM171.2 97.4c-1-.6-2.2-.9-3.4-.9-2.4 0-4.3 1.9-4.3 4.3 0 2.4 1.9 4.3 4.3 4.3.1 0 .2 0 .3 0 1.2 0 2.4-.3 3.5-.8v4.3c-1.5.5-3 .8-4.6.7-4.7.9-9.2-2.2-10.1-6.8-.9-4.7 2.2-9.2 6.8-10.1 1.1-.2 2.1-.2 3.2 0 1.5 0 3 .3 4.3.9L171.2 97.4zM189.6 109c-.2-1.3-.3-2.5-.3-3.8v-5.8c0-4.9-3.6-6.7-7.7-6.7-2.2 0-4.4.3-6.4 1.2v3.8c1.6-.8 3.4-1.3 5.2-1.2 2 0 3.7.6 3.7 2.8-.9-.2-1.7-.2-2.6-.3-3 0-8.3.6-8.3 5.5 0 3.5 2.9 5.1 6.1 5.1 2.1.1 4.1-1.1 5.1-2.9l0 0c0 .9 0 1.7 0 2.6L189.6 109zM178.3 103.9c0-1.5 1.5-2.1 3.4-2.1h2.4c.1 2-1.4 3.7-3.4 3.8C179.4 105.6 178.3 104.9 178.3 103.9M192.3 92.8h5.1v3l0 0c1.1-2.2 3.4-3.5 5.9-3.4 3.2-.2 6 2.3 6.2 5.6 0 .3 0 .6 0 .9V109h-5.6v-7.8c0-3.1-1.1-4.1-2.6-4.1-2.3 0-3.5 1.6-3.5 5.1v6.8h-5.6L192.3 92.8zM82.1 135.1c-2.1.6-4.2.9-6.4.9-5.8 0-12.5-2.9-12.5-11.1s5.3-11.3 12.4-11.3c2.2.1 4.3.4 6.4 1.1l-.5 4.7c-1.7-1-3.7-1.5-5.6-1.5-3.8-.1-7 2.9-7.1 6.8-.1 3.8 2.9 7 6.8 7.1.3 0 .6 0 .9 0 1.8 0 3.7-.4 5.4-1.1L82.1 135.1zM100.1 135.6c-.2-1.2-.3-2.5-.3-3.8v-6c0-4.9-3.6-6.7-7.7-6.7-2.2 0-4.4.3-6.4 1.1v3.8c1.6-.9 3.4-1.3 5.2-1.2 2 0 3.6.6 3.7 2.8-.9-.1-1.7-.2-2.6-.2-3 0-8.3.6-8.3 5.5 0 3.5 2.8 5.1 6 5.1 2.1.1 4.1-1 5.1-2.9l0 0c0 .8 0 1.7 0 2.5L100.1 135.6zM88.8 130.5c0-1.5 1.5-2.1 3.4-2.1.8 0 1.6 0 2.3 0 .1 2-1.4 3.7-3.4 3.8-1.3 0-2.3-.7-2.3-1.8M102.6 119.4h5.1v3l0 0c1.1-2.2 3.4-3.5 5.9-3.4 3.2-.2 6 2.3 6.2 5.5 0 .3 0 .6 0 .9v10.1h-5.5v-7.8c0-3-1.1-4-2.6-4-2.3 0-3.5 1.6-3.5 5.1v6.8h-5.6L102.6 119.4zM135.4 124.1c-1-.6-2.2-.9-3.4-.9-2.4 0-4.3 1.9-4.3 4.3 0 2.4 1.9 4.3 4.3 4.3.1 0 .2 0 .3 0 1.2 0 2.4-.3 3.5-.8v4.3c-1.5.4-3 .7-4.6.7-4.7.9-9.2-2.2-10.1-6.8-.9-4.7 2.2-9.2 6.8-10.1 1.1-.2 2.1-.2 3.2 0 1.5 0 3 .3 4.3.9L135.4 124.1zM154.4 129.1v-1c0-4.9-2.1-9.1-8.2-9.1-4.4-.3-8.3 2.9-8.6 7.3 0 .4 0 .8 0 1.3 0 4.7 3.8 8.6 8.6 8.6.3 0 .6 0 .9 0 2 0 4-.3 5.9-1v-4c-1.5.8-3.2 1.3-4.9 1.3-2.8 0-4.3-.9-4.8-3.1L154.4 129.1zM143.2 126c0-1.9 1.1-3.4 3.1-3.4 2 0 3.1 1.5 3.1 3.4H143.2zM168.3 123.9c-.6-.1-1.3-.1-1.9 0-2.6 0-4.3 1.9-4.3 5.1v6.8h-5.6v-16.3h5.1v3l0 0c.7-2 2.6-3.4 4.8-3.4.6 0 1.3 0 1.9 0V123.9zM64.1 156.9c1.8 1 3.9 1.4 6 1.4 1.8 0 3.6-.4 3.6-2.1 0-4-10.2-1.5-10.2-9.4 0-5.2 5.1-6.6 9.4-6.6 1.9 0 3.8.2 5.6.8l-.4 4.3c-1.5-.7-3.1-1-4.8-1-1.5 0-3.9 0-3.9 2 0 3.5 10.2 1.2 10.2 9 0 5.6-4.7 7.1-9.5 7.1-2.2 0-4.4-.3-6.4-.9L64.1 156.9zM90.2 162.6c4.7.9 9.2-2.2 10.1-6.8.9-4.7-2.2-9.2-6.8-10.1-1.1-.2-2.1-.2-3.2 0-4.7-.9-9.2 2.2-10.1 6.8-.9 4.7 2.2 9.2 6.8 10.1C88 162.8 89.1 162.8 90.2 162.6M90.2 158.7c-2.5 0-3.6-2.1-3.6-4.6s1.1-4.6 3.6-4.6 3.7 2.1 3.7 4.6S92.8 158.7 90.2 158.7" class="colorfff svgShape"></path><path fill="#ffffff" d="M114.3 150.7c-1-.6-2.2-.9-3.4-.9-2.4 0-4.3 1.9-4.3 4.3 0 2.4 1.9 4.3 4.3 4.3.1 0 .2 0 .3 0 1.2 0 2.4-.2 3.5-.8v4.3c-1.5.5-3 .7-4.5.7-4.7.9-9.2-2.2-10.1-6.8s2.2-9.2 6.8-10.1c1.1-.2 2.1-.2 3.2 0 1.5 0 3 .3 4.3.9L114.3 150.7zM123 143.4h-5.6v-4.1h5.6V143.4zM117.4 146h5.6v16.2h-5.6V146zM142.2 155.7v-1c0-4.8-2.1-9-8.1-9-4.4-.3-8.3 2.9-8.6 7.3 0 .4 0 .8 0 1.3 0 4.7 3.8 8.6 8.6 8.6.3 0 .6 0 .9 0 2 0 4-.3 5.9-1v-4c-1.5.8-3.2 1.2-4.9 1.2-2.7 0-4.3-.9-4.7-3.1L142.2 155.7zM131 152.6c-.1-1.7 1.2-3.2 2.9-3.3.1 0 .1 0 .2 0 1.6-.1 3 1.1 3.1 2.7 0 .2 0 .4 0 .6H131zM142.7 146h3.3v-3.7l5.5-1.7v5.3h3.9v3.9h-3.9v6c0 1.9.5 2.9 2.2 2.9.6 0 1.1 0 1.7 0v3.6c-1.2.2-2.3.3-3.5.3-5 0-6.2-2.2-6.2-6.1v-6.8h-3.2L142.7 146zM158.3 164.5c.7.2 1.4.3 2.2.3 1.4 0 2.5-.9 2.8-2.2l-6.5-16.6h6l3.4 10.5 0 0 3.3-10.5h5.9l-5.9 15c-1.6 4.1-2.8 8-7.9 8-1.2 0-2.3-.1-3.5-.4L158.3 164.5zM181.7 148.6v-1.5h.9c.5 0 1.2 0 1.2.7 0 .7-.4.8-1 .8H181.7zM180.4 152.1h1.3v-2.5h.6l1.4 2.5h1.3l-1.5-2.5c.8.1 1.5-.6 1.6-1.4 0-.1 0-.1 0-.2 0-1.3-.8-1.7-2.3-1.7h-2.2L180.4 152.1zM177.3 149.2c0 2.9 2.4 5.3 5.3 5.2 2.9 0 5.3-2.4 5.2-5.3 0-2.9-2.4-5.2-5.3-5.2C179.6 143.9 177.3 146.3 177.3 149.2M178.8 149.2c-.2-2.1 1.3-3.9 3.4-4.2s3.9 1.3 4.2 3.4c0 .3 0 .5 0 .8.2 2.1-1.3 3.9-3.4 4.2s-3.9-1.3-4.2-3.4C178.8 149.7 178.8 149.5 178.8 149.2M31.2 150.1c1.2-1.1 3.1-1.1 4.3 0 1.1 1.2 1.1 3-.1 4.1-.1.1-.1.1-.2.2-1.3 1.2-11.3 9.1-13.2 10.6-1.2.6-2.7.4-3.7-.5-.9-1.1-.9-2.7 0-3.9C19.3 159.6 30.1 151 31.2 150.1M29.3 161c1.2-.9 2.8-.9 4 0 1 1.2.9 3-.3 4.1 0 0 0 0 0 0-1.5 1.4-8.6 6.8-9.7 7.5-1.2.7-2.7.5-3.7-.4-1-1.2-.9-2.9.3-3.9C21.1 167.2 28.4 161.8 29.3 161M28.6 170.8v4.3c1.8 1.3 2.2 3.8 1 5.6-.1.1-.2.3-.3.4-2 1.3-4.7.8-6-1.2-.1-.2-.2-.3-.3-.5v-4.3c1-.6 5.8-4.3 5.8-4.3" class="colorfff svgShape"></path><polygon fill="#ffffff" points="25.7 64.6 28.7 71.8 28.7 141 25.7 143.3 22.8 140.9 22.8 71.8" class="colorfff svgShape"></polygon><path fill="#ffffff" d="M37.1,129.5h-6.3l2,3.2l-2.2,3.2c2.6,1.3,5.3-1.2,6-0.5c0.7,0.7,0.7,1.1,0.3,1.5l-20.5,15.9			c-0.9,1.3-0.6,3,0.6,4c1,0.7,2.3,0.7,3.3,0l21-16.5c1.6-1.9,1.9-4.6,0.9-6.8C41.4,131.2,39.4,129.6,37.1,129.5" class="colorfff svgShape"></path><path fill="#ffffff" d="M14.2,129.5h6.4l-2,3.1l2.3,3.2c-2.7,1.3-5.6-1.2-6.3-0.5c-0.7,0.7-0.6,1.1,0,1.4l9.8,7.8l-4.3,3.5L10,140.2
			c-1.6-1.9-2-4.5-1-6.8C9.7,131.1,11.8,129.6,14.2,129.5" class="colorfff svgShape"></path></g></switch></svg></g></svg>