<svg id="SvgjsSvg1109" width="288" height="288" xmlns="http://www.w3.org/2000/svg" version="1.1" xmlns:xlink="http://www.w3.org/1999/xlink" xmlns:svgjs="http://svgjs.com/svgjs"><defs id="SvgjsDefs1110"></defs><g id="SvgjsG1111"><svg xmlns="http://www.w3.org/2000/svg" enable-background="new 0 0 250 250" viewBox="0 0 250 250" width="288" height="288"><switch><g fill="#000000" class="color000 svgShape"><path fill="#bb8760" d="M132.5,134.9c-1.7-0.1-3.3-0.8-4.6-1.9l0,0l-4.6-4.6l-0.7-0.7L91.8,96.5l4.2-4.2l41.3,41.7			C135.8,134.7,134.1,135,132.5,134.9 M116.9,134.9c-1.7-0.1-3.3-0.8-4.6-1.9l0,0l-4.6-4.7l-0.7-0.7L84,104.4l3.8-3.8l33.4,33.6
			C119.8,134.7,118.4,134.9,116.9,134.9 M101.3,134.9c-1.7-0.1-3.3-0.8-4.6-1.9l0,0l-4.6-4.6l-0.6-0.7l-15.3-15.4l3.8-3.8l25.5,25.8
			C104.3,134.8,102.9,135,101.3,134.9 M115.1,58.3c1.5-0.6,3.1-0.9,4.8-0.8c1.7,0.1,3.3,0.8,4.6,1.9l0,0l4.5,4.8l0.7,0.7l30.8,31.1
			l-4.2,4.2L115,58.3L115.1,58.3z M135.5,57.4c1.7,0.1,3.3,0.8,4.6,1.9l0,0l4.5,4.8l0.7,0.7l23.1,23.1l-3.8,3.8l-33.4-33.6
			c1.3-0.5,2.8-0.7,4.2-0.7 M151,57.5c1.7,0.1,3.3,0.8,4.6,1.9l0,0l4.6,4.7l0.7,0.7L176,80.2l-3.8,3.8l-25.6-25.9
			C148,57.6,149.5,57.3,151,57.5 M194.8,92.4l-39.9,40.6l0,0c-0.6,0.6-1.3,1-2.1,1.3c-1,0.4-2.1,0.6-3.2,0.6c-1.1,0-2.2-0.2-3.2-0.6
			c-0.8-0.3-1.5-0.8-2.1-1.3l0,0L100,88.3l1.8-1.8l0,0c1.4-1.5,3.3-2.5,5.4-2.8c1.1,0,2.2,0.2,3.1,0.8l0,0l26.4,26.7l0.1-0.1
			c2.1,2.2,5,3.5,8.1,3.5c3.7-0.3,7.2-2,9.7-4.7l29.1-29.1l-24.1-25.3c-2.2-2.2-5.3-3.4-8.4-3.3c-3.1-0.2-6.1,0.5-8.8,1.9
			c-2-1.2-4.4-1.9-6.8-1.9c-3.1-0.2-6.1,0.5-8.8,1.9c-2-1.2-4.4-1.9-6.8-1.9c-3.2-0.2-6.4,0.5-9.2,2.1c-2.1-1.4-4.6-2.1-7.1-2.1
			h-2.1c-3.1-0.1-6.2,1.1-8.4,3.3L53.3,95.9l4,4l39.9-40.6l0,0c0.6-0.6,1.3-1,2.1-1.3c2.1-0.8,4.4-0.8,6.5,0
			c0.8,0.3,1.5,0.8,2.1,1.3l0,0l44.4,44.7l-1.8,1.8l0,0c-1.4,1.5-3.3,2.5-5.4,2.8c-2.1-0.1-4.1-1.1-5.4-2.8l0,0l-23.1-23.4
			c-2.2-2.9-5.6-4.7-9.3-4.7c-3.6,0.3-7,2-9.4,4.7l-29.2,29.1L92.7,137c2.2,2.2,5.3,3.4,8.4,3.3c3.1,0.2,6.1-0.5,8.8-1.9
			c2,1.3,4.4,1.9,6.8,1.9c3.1,0.2,6.1-0.5,8.8-1.9c2,1.3,4.4,1.9,6.8,1.9c3.2,0.2,6.4-0.5,9.2-2.1c2.1,1.4,4.6,2.1,7.1,2.1h2.1
			c3.1,0.1,6.2-1.1,8.4-3.3L199,96.4l-4-4H194.8z" class="color0491d1 svgShape"></path><path fill="#231f20" d="M13.1 164.8c0 1.6-1 2.1-2.3 2.1H7.1c0 0 0-.1 0-.1v-10.4c0 0 0-.2 0-.2s.2 0 .2 0h3.5c.8 0 1.4.6 1.5 1.4v.9c0 .4-.7 1.6-1.6 1.5H9.2c-.3 0-.5.2-.5.5 0 0 0 0 0 0v1.7c0 .3.2.5.5.5 0 0 0 0 0 0H11c1.7 0 2.1 1.1 2.1 1.5L13.1 164.8 13.1 164.8zM13.6 161.1L13.6 161.1c-.1 0-.2-.1-.2-.1 0 0 0 0 0 0 0-.1.1-.2.2-.2l0 0h.5c1.5-.2 2.7-1.5 2.7-3v-1.1c0-1.7-1.4-3-3-3 0 0 0 0 0 0H1.3c-.1 0-.1.1-.1.1v1.9c0 .1 0 .1 0 .2h.2c.6 0 1.5.5 1.5.9v9.6c0 .4-.8.8-1.5.9-.1 0-.1 0-.2 0 0 .1 0 .1 0 .2v1.9c0 .1.1.1.1.1h12.3c2-.1 3.6-1.8 3.7-3.8v-1.6C17.3 162.4 16.3 161 13.6 161.1M232.8 164.8c0 1.6-1 2.1-2.3 2.1h-3.7c0 0 0-.1 0-.1v-10.4c0 0 0-.2 0-.2.1 0 .1 0 .2 0h3.5c.8 0 1.5.6 1.5 1.4v.9c0 .4-.7 1.6-1.6 1.5h-1.6c-.3 0-.5.2-.5.5v1.7c0 .3.2.5.5.5h1.8c1.7 0 2.1 1.1 2.1 1.5L232.8 164.8 232.8 164.8zM233.3 161.1L233.3 161.1c-.1 0-.2 0-.2-.1 0 0 0 0 0 0 0-.1.1-.2.1-.2 0 0 0 0 0 0h.5c1.5-.2 2.7-1.5 2.7-3v-1.1c0-1.7-1.4-3-3-3 0 0 0 0 0 0H221c-.1 0-.1.1-.1.1v1.9c0 .1 0 .1 0 .2h.2c.6 0 1.5.5 1.5.9v9.6c0 .4-.8.8-1.5.9-.1 0-.1 0-.2 0 0 .1 0 .1 0 .2v1.9c0 .1.1.1.1.1h12.3c2-.1 3.6-1.8 3.7-3.8v-1.6C237 162.4 236 161 233.3 161.1M50.1 153.4h-4.8c-.4 0-.5 0-.5.5v1.2c0 .3.5.1.5.1.2 0 .3.1.4.3v.2c0 .3-.1.5-.2.7-.2.4-1.2 2.1-1.7 2.8-.1.2-.3.4-.6.4l0 0c-.2 0-.4-.1-.5-.3l-1.9-2.6c-.2-.3-.2-.7 0-1.1.1-.2.4-.3.6-.3.2 0 .3 0 .3-.4v-1c0-.2 0-.4-.3-.4h-6.3c-.3 0-.5 0-.5.3v1.3c0 .5 0 .5.3.6.4.1.8.3 1.1.6l4.4 6.3v4.2c0 .2-.5.4-.9.4h-.4c-.1 0-.1.1-.1.1l0 0v2.1l0 0c0 .1.1.1.1.1H46c0 0 .1 0 .1-.1l0 0v-2.1l0 0c0 0 0-.1-.1-.1h-.2c-.5 0-1.3-.4-1.3-.7v-3.6l3.6-5.5c0 0 .6-.8.8-1.1.2-.2.4-.4.7-.4l.5-.1c.4 0 .4-.1.4-.4V154c0-.4-.1-.5-.5-.5M202.9 166.9v-3.3c0-.3-.2-.5-.5-.5 0 0 0 0 0 0h-1.3c-.3 0-.5.2-.5.5v0 .7c0 .3-.1.6-.2.8-.4.6-.9 1.1-1.5 1.4-.6.2-1.2.2-1.8.2h-1.7c-.2-.1-.3-.3-.3-.4v-9.6c0-.4.9-.8 1.5-.9 0 0 .1 0 .2 0 0 0 0-.1 0-.1v-1.9c0-.1-.1-.2-.1-.2H190c-.1 0-.1.1-.1.2v1.9c0 0 0 .1 0 .1h.2c.7.1 1.5.5 1.5.9v9.6c0 .4-.9.8-1.5.9 0 0-.1 0-.2 0 0 0 0 .1 0 .1v1.9c0 .1.1.2.1.2h12.4c.3 0 .5-.2.5-.5v-1.8C203 167 203 166.9 202.9 166.9M152.5 166.9v-3.3c0-.3-.2-.5-.5-.5 0 0 0 0 0 0h-1.3c-.3 0-.5.2-.5.5v0 .7c0 .3-.1.6-.2.8-.3.6-.9 1.1-1.5 1.4-.6.2-1.2.2-1.9.2H145c-.2-.1-.3-.3-.3-.4v-9.5c0-.4.9-.8 1.6-.9.1 0 .1 0 .2 0v-.1-2c0-.1-.1-.1-.1-.1h-6.6c-.1 0-.1.1-.1.1v2c0 0 0 .1 0 .1.1 0 .1 0 .2 0 .7 0 1.6.5 1.6.9v9.6c0 .4-.9.8-1.6.9-.1 0-.1 0-.2 0 0 0 0 .1 0 .1v1.9c0 .1.1.2.1.2h12.4c.3 0 .5-.2.5-.5v-1.8C152.6 167 152.6 166.9 152.5 166.9M211.1 166.9c-.4 0-1.3 0-1.6 0-.5-.1-1-.4-1.3-.8-.2-.7-.2-1.4-.1-2.1v-7.3c0-.4.9-.8 1.6-.9 0 0 .1 0 .1 0v-.1-2c0-.1-.1-.1-.1-.1h-7.3c-.1 0-.1.1-.1.1v2c0 0 0 .1 0 .1h.2c.7.1 1.5.5 1.5.9v6.8l0 0v1.4c0 .9.1 1.8.3 2.6.9 1.5 2.3 2.2 6.3 2.2h.8c4.2 0 5.7-.8 6.6-2.2.3-.8.4-1.7.3-2.6v-1.4l0 0v-6.8c0-.4.9-.8 1.5-.9 0 0 .1 0 .2 0 0 0 0-.1 0-.1v-2c0-.1-.1-.1-.2-.1h-7.3c-.1 0-.2.1-.2.1v2c0 0 0 .1 0 .1.1 0 .1 0 .2 0 .7.1 1.5.5 1.5.9v7.1c.1.7 0 1.4-.1 2.1-.3.5-.8.8-1.3.8-.3 0-1.2 0-1.7 0M188.9 165c0-.3-.2-.5-.5-.5h-1.3c-.3 0-.5.2-.5.5 0 0 0 0 0 0v.2c-.2.8-.7 1.4-1.4 1.7-.7.3-1.5.4-2.3.4l0 0c-.8 0-1.5-.1-2.2-.4-.7-.4-1.3-1.1-1.7-1.9-.4-1.2-.6-2.4-.5-3.7-.1-1.3 0-2.7.5-4 .7-1.2 2-1.8 3.3-1.7 1.1-.1 2.3.3 3 1.2.3.3.5.6.5 1.1v.2c0 .3.2.5.5.5 0 0 0 0 0 0h1.3c.3 0 .5-.2.5-.5v0-3.8c0 0 0-.3-.3-.5-1.6-.4-3.3-.6-4.9-.5-2-.1-4 .3-5.8 1.2-2.1 1.5-3.3 4.1-3.1 6.7 0 4.1.9 5.5 2 6.5 1.3 1.3 3.1 2 4.9 2.1.5.1.9.1 1.4.1h.5c.5 0 1 0 1.5 0 1.3.1 2.7-.1 4-.5.3 0 .5-.2.5-.5v0L188.9 165 188.9 165zM111.7 165L111.7 165v-3.8c0-.3-.2-.5-.5-.5 0 0 0 0 0 0h-5.8c-.3 0-.5.2-.5.5 0 0 0 0 0 0v1.7c0 .3.2.5.5.5 0 0 0 0 0 0h2.2v3.5l-.3.2c-.7.3-1.5.4-2.3.4l0 0c-.8 0-1.5-.1-2.3-.4-.7-.4-1.3-1.1-1.7-1.9-.4-1.2-.5-2.4-.5-3.7-.1-1.3 0-2.7.5-4 .7-1.2 2-1.8 3.3-1.7 1.1-.2 2.3.3 3 1.2.3.3.5.6.6 1.1v.2c0 .3.2.5.5.5 0 0 0 0 0 0h1.3c.3 0 .5-.2.5-.5 0 0 0 0 0 0v-3.8c0-.2-.1-.4-.3-.5-1.6-.4-3.3-.6-4.9-.5-2-.1-4 .3-5.8 1.2-2.1 1.5-3.3 4.1-3.1 6.7 0 4.1.9 5.5 2 6.6 1.4 1.2 3.1 2 4.9 2.1.4.1.9.1 1.4.1h.6c.5 0 1 0 1.5 0 1.6 0 3.2-.2 4.7-.5.3 0 .5-.2.5-.5 0 0 0 0 0 0v-3.8l0 0L111.7 165zM30.4 165c-.3.8-.9 1.4-1.7 1.9-.7.3-1.5.4-2.2.4-.8.1-1.5-.1-2.2-.3-.7-.4-1.3-1.1-1.7-1.9-.4-1.2-.5-2.4-.4-3.7-.1-1.3 0-2.7.5-4 .7-1.2 2-1.8 3.3-1.7h1.1c1.4-.2 2.7.5 3.3 1.7.4 1.3.6 2.6.5 4C31 162.6 30.8 163.8 30.4 165M32.2 154.5c-1.7-.8-3.6-1.3-5.5-1.2h-.4c-1.9 0-3.8.4-5.4 1.2-2.1 1.5-3.3 4.1-3.1 6.7 0 4.1.9 5.5 2 6.5 1.3 1.3 3.1 2 4.9 2.1.4.1.9.1 1.4.1h.7c.6 0 1.1-.1 1.7-.1 1.8-.1 3.6-.8 4.9-2.1 1.1-1 2-2.5 2-6.5C35.6 158.5 34.4 156 32.2 154.5M120.3 167.1c0 0-.1 0-.1 0-.7-.1-1.6-.5-1.6-.9v-9.5c0-.4.9-.8 1.6-.9 0 0 .1 0 .1 0v-.1-2c0-.1-.1-.1-.1-.1h-6.6c-.1 0-.2.1-.2.1v2c0 0 0 .1 0 .1h.2c.7 0 1.5.5 1.5.9v9.6c0 .4-.9.8-1.5.9 0 0-.1 0-.2 0 0 .1 0 .1 0 .2v1.9c0 .1.1.1.2.1h6.6c.1 0 .1-.1.1-.1v-1.9C120.4 167.3 120.4 167.3 120.3 167.1M138.8 167.1c0 0-.1 0-.1 0-.7-.1-1.6-.5-1.6-.9v-2.1c0-1.7-.5-3.1-3.2-3.1l0 0c-.1.1-.2.1-.3 0-.1-.1-.1-.2 0-.3l0 0c0-.1.1-.2.2-.2h.5c1.6-.2 2.7-1.6 2.7-3.2v-.9c0-1.7-1.4-3.1-3.1-3.1h-12.3c-.1 0-.1.1-.1.1v2c0 0 0 0 0 .1 0 0 .1 0 .1 0 .7 0 1.6.5 1.6.9v9.6c0 .4-.9.8-1.6.9 0 0-.1 0-.1 0v.2 1.9c0 .1.1.1.1.1h6.6c.1 0 .2 0 .2-.1 0 0 0 0 0 0v-1.9c0-.1 0-.1 0-.2h-.2c-.7-.1-1.5-.5-1.5-.9v-9.5c0-.2.3-.4.6-.5h3.8c.8 0 1.5.6 1.5 1.4v.7c0 .4-.7 1.7-1.6 1.7h-2.4c-.3 0-.5.2-.5.5v1.7c0 .3.2.5.5.5l0 0h2.5c1.7 0 1.6 1.1 1.6 1.5v4.5c0 .2 0 .3 0 .5 0 .3.7.4.7.4h5c.1 0 .1-.1.1-.1v-1.9C138.8 167.3 138.8 167.2 138.8 167.1M53.5 161.8c1.7.5 3.4 1 5.1 1.3 1.6.3 2.2 1 2.1 2.4-.1 1.4-1.9 1.7-2.7 1.7-.9.1-1.9 0-2.8-.2-.5-.4-1-.9-1.4-1.5l-.3-.8c0-.1-.2-.3-.4-.3h-1.3c-.3 0-.4 0-.4.3v4.5c0 .4.7.5 2.4.5h4.7c1.2 0 2.4-.3 3.5-.8 1.4-1 2.2-2.5 2.2-4.2 0-2.3-.2-3.5-1.5-4.3-1.6-.7-3.3-1.2-5.1-1.3-1.5-.2-2.8-.5-2.8-1.8s1.8-1.6 2.6-1.6c.6-.1 1.3 0 1.8.2.5.1.8.4 1.1.8.2.4.4.8.6 1.2 0 .3.2.5.5.5 0 0 0 0 0 0h1.3c.4 0 .5 0 .5-.5v-4.2c0-.3-1.6-.3-2.4-.3h-5.2c-1 0-2.1.4-2.9 1.1-1 1-1.5 2.3-1.6 3.7-.2 1.7.9 3.3 2.5 3.7M155.8 161.8c1.7.5 3.4 1 5.1 1.3 1.5.3 2.2 1 2 2.4-.3 1.4-1.8 1.6-2.6 1.6-.9.1-1.9 0-2.8-.2-.6-.4-1-.9-1.4-1.5l-.3-.8c0-.1-.2-.3-.4-.3h-1.4c-.3 0-.4 0-.4.3v4.5c0 .4.7.5 2.4.5h4.7c1.2 0 2.4-.3 3.5-.8 1.4-1 2.2-2.5 2.2-4.2 0-2.3-.3-3.5-1.6-4.3-1.6-.7-3.3-1.2-5.1-1.3-1.6-.2-2.8-.5-2.8-1.8s1.8-1.6 2.6-1.6c.6-.1 1.3 0 1.9.2.4.1.8.4 1.1.8.2.4.4.8.6 1.2 0 .3.2.5.5.5h1.3c.4 0 .5 0 .5-.5v-4.2c0-.3-1.6-.3-2.4-.3h-5.2c-1.1 0-2.1.4-2.9 1.1-1 1-1.5 2.3-1.5 3.7-.2 1.7.9 3.3 2.5 3.7M240.5 161.8c1.7.5 3.4 1 5.1 1.3 1.5.3 2.2 1 2 2.4-.3 1.4-1.8 1.7-2.6 1.7-.9.1-1.9 0-2.8-.2-.6-.4-1-.9-1.4-1.5l-.3-.8c0-.1-.2-.3-.4-.3h-1.3c-.3 0-.4 0-.4.3v4.5c0 .4.6.5 2.4.5h4.7c1.2 0 2.4-.3 3.5-.8 1.4-1 2.2-2.5 2.2-4.2-.1-2.3-.3-3.5-1.6-4.3-1.6-.7-3.3-1.2-5.1-1.3-1.5-.2-2.9-.5-2.9-1.8s1.8-1.6 2.6-1.6c.6-.1 1.3 0 1.9.2.4.1.8.4 1.1.8.2.4.4.8.6 1.2 0 .3.2.5.5.5l0 0h1.3c.4 0 .5 0 .5-.5v-4.2c0-.3-1.6-.3-2.4-.3h-5.2c-1 0-2.1.4-2.9 1.1-1 1-1.6 2.3-1.6 3.7-.2 1.7.9 3.3 2.5 3.7M79.1 167.4c-3.6 0-4.1-1.3-4.1-3.3 0-.9.4-1.8 1.2-2.4l6.3 5C81.5 167.3 80.3 167.5 79.1 167.4M78.4 155.4c1.5 0 2.3.7 2.3 1.5 0 .8-2 1.7-2.5 1.7h-.3c-.2-.1-.5-.2-.7-.3-.6-.3-1.3-.8-1.3-1.3C75.9 156.4 76.9 155.4 78.4 155.4M90.6 168.3c-.1-.2-.3-.1-.7-.2-.2 0-.4-.1-.6-.3l-1.9-1.4c.2-.4.4-.9.6-1.4.3-1 .4-2 .4-3 0-.6.1-1.7 0-1.9h-.3-2.8c-.1 0-.2.1-.3.1v.4c0 0 0 .9 0 1.3 0 .7-.1 1.4-.4 2.1l-4-3.3c1.8-.6 3.2-2.1 3.5-4 0-2.7-2.4-3.7-5.8-3.8-3.8 0-6.3 1.4-6.3 3.8 0 .6.2 1.3.5 1.8l0 0 .1.1c.3.4.6.7.9 1-1.6 1-2.6 2.7-2.7 4.6 0 3.3 1.5 5.6 7.9 5.7 2.1.1 4.2-.4 6.1-1.4l.7.3c.2.3.6.5 1 .5h3.6c.3 0 .4 0 .4-.4v-.2c0-.2 0-.5 0-.7M104.7 177.2c-.1 0-.1 0-.2 0l-.1.2M79.9 186.1c-.3.6-.7 1.1-1.3 1.4-.5.2-1.1.3-1.7.3-.6 0-1.2-.1-1.7-.3-.6-.3-1-.8-1.3-1.4-.3-.9-.4-1.9-.3-2.8-.1-1 0-2.1.3-3 .5-.9 1.5-1.4 2.6-1.3h.9c1-.1 2 .4 2.5 1.3.3 1 .5 2 .4 3C80.3 184.3 80.2 185.2 79.9 186.1M81.3 178c-1.3-.7-2.7-1-4.2-.9h-.3c-1.5 0-2.9.3-4.2.9-1.7 1.2-2.6 3.1-2.4 5.2 0 3.1.7 4.2 1.5 5 1 .9 2.4 1.5 3.8 1.6.4.1.7.1 1.1 0h.8c.4.1.7.1 1.1 0 1.4-.1 2.7-.7 3.7-1.6.8-.8 1.5-1.9 1.5-5C83.9 181 82.9 179.1 81.3 178M159.3 187.7c0 0-.1 0-.1 0-.5 0-1.2-.4-1.2-.7v-7.3c0-.3.7-.6 1.2-.7 0 0 .1 0 .1 0l0 0v-1.5l0 0H154l0 0v1.5l0 0 0 0c.5 0 1.2.4 1.2.7v7.4c0 .3-.7.6-1.2.7l0 0c0 0 0 .1 0 .1v1.5l0 0h5.1l0 0v-1.5c0 0 0-.1 0-.1M153.2 187.7c0 0-.1 0-.1 0-.5 0-1.2-.4-1.2-.7v-1.7c0-1.3-.4-2.4-2.4-2.4l0 0c-.1 0-.1-.1-.1-.1 0-.1.1-.1.1-.1 0 0 0 0 0 0h.3c1.2-.2 2.1-1.2 2.1-2.4v-.7c0-1.3-1.1-2.4-2.4-2.4H140l0 0v1.5l0 0c0 0 .1 0 .1 0 .5 0 1.2.4 1.2.7v7.3c0 .3-.7.6-1.2.7 0 0-.1 0-.1 0 0 0 0 .1 0 .1v1.5c0 0 0 .1 0 .1h5.1c0 0 0-.1 0-.1v-1.5c0 0 0-.1 0-.1 0 0-.1 0-.1 0-.5 0-1.2-.4-1.2-.7v-7c0-.2.2-.3.5-.4h2.9c.6 0 1.1.4 1.2 1.1v.5c0 .3-.5 1.3-1.2 1.3h-1.8c-.2 0-.4.2-.4.4v1.3c0 .2.2.4.4.4h2c1.3 0 1.2.8 1.2 1.1v3.4c0 .1 0 .3 0 .4 0 .3.5.3.5.3h3.9c.1 0 .1-.1.1-.1v-1.5c0 0 0-.1 0-.1M139.4 186c0-.2-.2-.4-.4-.4l0 0h-1c-.2 0-.4.2-.4.4l0 0-.2.6c0 .2-.3.4-.4.5-.2.5-4.8.2-4.8.2-.1-.1-.2-.2-.2-.3v-3.1h3.7c.2 0 .5.3.5.7l0 0 0 0h1.2.1v-3.7M137.4 180.9h-1.2l0 0 0 0c0 .4-.3.7-.5.7H132v-2.3c0-.1.3 0 .3 0s2.9 0 3.5 0c.3 0 1 0 1.1.2.1.1.1.3.2.4 0 .2.2.4.4.4h1c.2 0 .4-.2.4-.4v-2.3c0-.2-.2-.4-.4-.4H128c0 0-.1 0-.1 0v1.5c0 0 0 .1 0 .1l0 0c.5 0 1.2.4 1.2.7v7.4c0 .3-.7.6-1.2.7l0 0c0 0 0 .1 0 .1v1.5c0 .1.1.1.1.1h11c.2 0 .4-.2.4-.4l0 0v-3.1L137.4 180.9zM94.6 177.1h-10c-.1 0-.1.1-.1.1v1.5c0 0 0 0 0 .1s0 0 0 0c.5 0 1.2.4 1.2.7v7.4c0 .3-.7.6-1.2.7l0 0v.1 1.5c0 .1.1.1.1.1h5.1c.1 0 .1-.1.1-.1v-1.5c0 0 0-.1 0-.1 0 0-.1 0-.1 0-.3 0-.7-.2-.9-.4l0 0 0 0 0 0 0 0 0 0 0 0v-3.3h3.4c.2 0 .5.3.5.7l0 0h1l0 0v-3.5l0 0h-1.3v.1c0 .4-.3.7-.5.7h-3.4v-2.7c.1-.1.2-.1.4 0 0 0 2.4 0 3 0 .3 0 1 0 1.1.2.1.1.1.3.2.4 0 .2.2.4.4.4h1c.2 0 .4-.2.4-.4 0 0 0-.1 0-.1v-2.1c0-.2-.2-.4-.4-.4" class="color231f20 svgShape"></path><path fill="#231f20" d="M106.4 182.9h-.2-1.8c-.1 0-.1 0-.2 0v-.2l1.1-2.7 1 2.7c0 .1 0 .2 0 .3M127.3 187.8c0 0 0-.1 0-.1l0 0c-.5 0-1.2-.4-1.2-.7l-1.7-7.3c0-.3.3-.6.8-.7 0 0 0 0 .1 0s0 0 0 0v-1.5c0 0 0 0-.1 0h-3.8c-.2 0-.4 0-.5 0-.1.1-.2.3-.3.4l-.8 2.5c-.2.6-.4 1.1-.6 1.6-.2-.5-.4-1-.5-1.6l-.8-2.4c0 0-.2-.5-.3-.6-.2-.1-.4-.1-.6 0h-3.8l0 0v1.5l0 0c0 0 .1 0 .1 0 .5 0 .8.4.8.7l-1.5 7.3c0 .3-.2.4-.5.4-.3 0-.3-.1-.5-.4l-3.8-9.5c0 0 0-.2-.1-.2-.1 0-.1 0-.2 0H104c-.1 0-.1 0-.2 0v.2l-3.8 9.4c0 .3-.7.6-1.2.7 0 0-.1 0-.1 0 0 0 0 .1 0 .1v1.5c0 0 0 .1 0 .1h4.9c.1 0 .1-.1.1-.1v-1.5c0 0 0-.1 0-.1l0 0c-.5 0-1-.3-.9-.7l.8-1.9h3.9l.7 1.9c.2.3-.2.6-.7.7 0 0-.1 0-.1 0v.1 1.5c0 0 0 .1 0 .1h8.4c.1 0 .1-.1.1-.1v-1.5c0 0 0-.1 0-.1l0 0c-.5 0-.6-.4-.6-.7l.6-5.1c0 0 0-.5.1-.5s.3.8.3.8l1 3.7c.1.2.2.3.3.5.2.1.4.2.6.3h1.6c.1 0 .3-.1.4-.1.2-.2.3-.5.4-.8l1.1-4c0 0 0-.4.2-.4s.2.5.2.5l.7 5.2c0 .3-.1.6-.6.7 0 0 0 0-.1 0 0 0 0 .1 0 .1v1.5c0 .1.1.1.1.1h5.1c0 0 0-.1 0-.1v-1.5H127.3zM175.8 182.9h-.2-1.8c-.1 0-.1 0-.2 0v-.2l1.1-2.7 1 2.7c0 .1 0 .2 0 .3M181.9 187.7c0 0-.1 0-.1 0-.5 0-1.2-.4-1.2-.7l-3.8-9.5c0-.1-.1-.2-.1-.2-.1 0-.1 0-.2 0h-3.2c-.1 0-.1 0-.2 0 0 .1 0 .2 0 .2l-3.3 8.1c0 0-.6 1.6-1.6 1.8-.7.2-1.4.3-2.1.3l0 0c-.6 0-1.2-.1-1.7-.3-.6-.3-1.1-.8-1.3-1.4-.3-.9-.4-1.9-.3-2.8-.1-1 0-2.1.3-3.1.5-.9 1.5-1.4 2.6-1.3.9-.1 1.8.2 2.3.9.2.2.4.5.4.8v.1c0 .2.2.4.4.4h1c.2 0 .4-.2.4-.4v-2.9c0-.2-.1-.3-.2-.4-1.2-.3-2.5-.4-3.8-.4-1.5-.1-3.1.3-4.4.9-1.6 1.2-2.6 3.1-2.4 5.2 0 3.1.7 4.2 1.5 5 .9.8 2.1 1.3 3.3 1.3.5 0 1.1 0 1.6 0h.4c.4 0 .8 0 1.1 0 1.5 0 2.3 0 2.7 0h3c0 0 .1 0 .1 0v-1.5c0 0 0 0 0-.1s-.1 0-.1 0c-.5 0-1-.3-.9-.7l.8-1.9h3.9l.7 1.9c.2.3-.2.6-.7.7l0 0c0 0 0 .1 0 .1v1.5c0 0 .1 0 .1 0h5.1l0 0v-1.5C181.9 187.8 181.9 187.8 181.9 187.7" class="color231f20 svgShape"></path></g></switch></svg></g></svg>