<svg id="SvgjsSvg1186" width="288" height="288" xmlns="http://www.w3.org/2000/svg" version="1.1" xmlns:xlink="http://www.w3.org/1999/xlink" xmlns:svgjs="http://svgjs.com/svgjs"><defs id="SvgjsDefs1187"></defs><g id="SvgjsG1188"><svg xmlns="http://www.w3.org/2000/svg" enable-background="new 0 0 250 250" viewBox="0 0 250 250" width="288" height="288"><switch><g fill="#000000" class="color000 svgShape"><polygon fill="#bb8760" points="128.1 180.9 128.1 179.5 131 179.5 131 156.9 128.1 156.9 128.1 155.5 143.9 155.5 143.9 154.4 145.7 154.4 145.7 160.5 144 160.5 144 157.2 134.8 157.2 134.8 167.1 142.1 167.1 142.1 164.2 143.9 164.2 143.9 171.8 142.1 171.8 142.1 168.8 134.8 168.8 134.8 179.2 144.3 179.2 144.3 175.8 146.1 175.8 146.1 180.9" class="color807f86 svgShape"></polygon><polygon fill="#bb8760" points="247.1 156.9 247.1 181.4 245.5 181.4 230.6 161 230.6 179.5 233.6 179.5 233.6 180.9 225.8 180.9 225.8 179.5 228.7 179.5 228.7 158.3 227.7 156.9 225 156.9 225 155.4 231.4 155.4 245.2 174.4 245.2 156.9 242.2 156.9 242.2 155.4 250 155.4 250 156.9" class="color807f86 svgShape"></polygon><path fill="#bb8760" d="M208.5,181.4c-7.1,0-12.7-6-12.7-13.2c0-7.3,5.6-13.2,12.7-13.2c7,0,12.6,6,12.6,13.2			S215.5,181.4,208.5,181.4 M208.6,157c-5.1,0-8.5,4.6-8.5,11.2c0,6.6,3.4,11.2,8.4,11.2c4.9,0,8.3-4.7,8.3-11.2
			S213.5,157,208.6,157" class="color807f86 svgShape"></path><polygon fill="#bb8760" points="112.4 180.9 112.4 179.5 115.3 179.5 115.3 160.5 105.8 181.3 95.9 160.1 95.9 179.5 98.8 179.5 98.8 180.9 91 180.9 91 179.5 94 179.5 94 156.9 91 156.9 91 155.5 97.9 155.5 106.8 174.5 115.6 155.5 122 155.5 122 156.9 119.1 156.9 119.1 179.5 122 179.5 122 180.9" class="color807f86 svgShape"></polygon><polygon fill="#bb8760" points="152.9 180.9 152.9 179.5 155.8 179.5 155.8 156.9 152.9 156.9 152.9 155.5 162.5 155.5 162.5 156.9 159.6 156.9 159.6 179.2 168.7 179.2 168.7 175.8 170.5 175.8 170.5 180.9" class="color807f86 svgShape"></polygon><polygon fill="#bb8760" points="175.1 180.9 175.1 179.5 178 179.5 178 156.9 175.1 156.9 175.1 155.5 184.8 155.5 184.8 156.9 181.9 156.9 181.9 179.2 190.9 179.2 190.9 175.8 192.7 175.8 192.7 180.9" class="color807f86 svgShape"></polygon><polygon fill="#bb8760" points="73.6 156.9 66.2 169 66.2 179.5 69.1 179.5 69.1 180.9 59.5 180.9 59.5 179.5 62.4 179.5 62.4 169.2 54.4 156.9 52.2 156.9 52.2 155.5 62.1 155.5 62.1 156.9 58.9 156.9 65.4 166.8 71.4 156.9 67.9 156.9 67.9 155.5 75.6 155.5 75.6 156.9" class="color807f86 svgShape"></polygon><path fill="#bb8760" d="M13.3,167.5c2.8,0.3,6.9,1.9,6.9,6.8c0,4.1-3.2,6.6-7.9,6.6H0v-1.4h2.9v-22.6H0v-1.4h11.7
			c4.1,0,7.3,2.2,7.3,6.3C19,165.2,16.1,167.1,13.3,167.5L13.3,167.5z M10.2,157.2H6.7v9.6h3.2c2.4,0,5-1.5,5-4.9
			C14.9,158.5,12.8,157.2,10.2,157.2 M10.3,168.6H6.7v10.6h3.6c3.2,0,5.9-1.7,5.9-5.1C16.3,170.6,13.8,168.6,10.3,168.6" class="color807f86 svgShape"></path><polygon fill="#bb8760" points="46.8 156.9 46.8 181.4 45.1 181.4 30.3 161 30.3 179.5 33.2 179.5 33.2 180.9 25.4 180.9 25.4 179.5 28.4 179.5 28.4 158.3 27.3 156.9 24.7 156.9 24.7 155.4 31 155.4 44.8 174.4 44.8 156.9 41.9 156.9 41.9 155.4 49.7 155.4 49.7 156.9" class="color807f86 svgShape"></polygon><path fill="#bb8760" d="M133.2,84.2c-7.4,4-14.2,9-20.1,14.9c6,5.9,12.7,11,20.1,14.9l38.2-14.9L133.2,84.2z" class="colorab8244 svgShape"></path><path fill="#bb8760" d="M110.6,96.6c-8.6-9.2-14.5-19.4-17.4-28.1l38.9,15.2C124.4,87,117.1,91.3,110.6,96.6" class="colora0a3a9 svgShape"></path><path fill="#bb8760" d="M110.6,101.7c-8.6,9.1-14.4,19.4-17.4,28l38.9-15.2C124.4,111.3,117.1,107,110.6,101.7" class="colora0947a svgShape"></path></g></switch></svg></g></svg>