<svg id="SvgjsSvg1001" width="288" height="288" xmlns="http://www.w3.org/2000/svg" version="1.1" xmlns:xlink="http://www.w3.org/1999/xlink" xmlns:svgjs="http://svgjs.com/svgjs"><defs id="SvgjsDefs1002"></defs><g id="SvgjsG1008" transform="matrix(1,0,0,1,0,0)"><svg xmlns="http://www.w3.org/2000/svg" enable-background="new 0 0 250 250" viewBox="0 0 250 250" width="288" height="288"><switch><g fill="#000000" class="color000 svgShape"><path fill="#010101" d="M208.1,229.9c-3.3,0-6.1,2.7-6.1,6.1s2.7,6.1,6.1,6.1s6.1-2.7,6.1-6.1C214.2,232.7,211.5,230,208.1,229.9			C208.2,229.9,208.2,229.9,208.1,229.9z M208.1,240.8c-2.6,0-4.8-2.1-4.8-4.8l0,0l0,0c0-2.6,2.1-4.8,4.8-4.8s4.8,2.1,4.8,4.8l0,0
			C212.9,238.6,210.8,240.7,208.1,240.8z M210.6,234.6c0-1.1-0.9-2-2-2.1c0,0,0,0,0,0h-2.9v6.9h1.3v-2.8h0.9l1.3,2.8h1.4l-1.4-2.9
			C210.1,236.2,210.7,235.4,210.6,234.6z M208.6,235.4H207v-1.5h1.6c0.4,0,0.8,0.3,0.8,0.8S209,235.4,208.6,235.4L208.6,235.4z" class="color010101 svgShape"></path><path fill="#bb8760" d="M125,0C56,0,0,56,0,125s56,125,125,125s125-55.9,125-125S194.1,0,125,0z" class="colorffb81c svgShape"></path><path fill="#010101" d="M125,4.7C58.5,4.7,4.7,58.5,4.7,125S58.5,245.4,125,245.4S245.4,191.4,245.4,125S191.4,4.7,125,4.7z" class="color010101 svgShape"></path><path fill="#bb8760" d="M181.4,78.2l20.7-20.7c-3-3.4-6.2-6.6-9.6-9.6l-20.9,20.8L181.4,78.2z M131.8,22.8c-2.2-0.1-4.5-0.2-6.8-0.2
			s-4.6,0.1-6.8,0.2v33h13.6V22.8z M67.5,57.9l-10-10c-3.4,3-6.6,6.2-9.6,9.6l19.6,19.6V57.9z M67.5,172.9l-19.6,19.6
			c3,3.4,6.2,6.6,9.6,9.6l10-10V172.9z M76.2,118.2H22.8c-0.1,2.2-0.2,4.5-0.2,6.8s0.1,4.6,0.2,6.8h53.4V118.2z M227.2,118.2h-44.8
			l-7,6.8l7,6.8h44.8c0.1-2.2,0.2-4.5,0.2-6.8S227.4,120.4,227.2,118.2z M171.6,181.2l20.9,20.9c3.4-3,6.6-6.2,9.6-9.6l-20.7-20.7
			L171.6,181.2z M118.2,227.2c2.2,0.1,4.5,0.2,6.8,0.2s4.6-0.1,6.8-0.2v-32.9h-13.6V227.2z" class="colorffb81c svgShape"></path><path fill="#bb8760" d="M72.8,170.2V189h83.4l21.1-20.6V134l-9.3-9l9.3-9.1V81.5L156.1,61H72.8v18.7l8.7,8.4v73.8L72.8,170.2z" class="colorffb81c svgShape"></path><path fill="#010101" d="M148.7,93.4l-5.9-5.8h-34.2v24h34.2l5.9-5.8V93.4z M148.7,144.1l-5.9-5.8h-34.2v24h34.2l5.9-5.8V144.1z" class="color010101 svgShape"></path><path fill="#010101" d="M77.1,172.1v12.6h77.3l18.5-18v-30.8L161.7,125l11.2-10.9V83.3l-18.5-18.1H77.1v12.6l8.7,8.4v77.4L77.1,172.1
			L77.1,172.1z M104.2,83.3h40.3l8.5,8.2v16.2l-8.5,8.2h-40.3V83.3z M104.2,134h40.3l8.5,8.2v16.1l-8.5,8.2h-40.3V134z" class="color010101 svgShape"></path><path fill="#ffffff" d="M61.8,205.6c14.7,11.5,32.2,18.8,50.8,21.1v-32.4H73.2L61.8,205.6z M158.2,194.3h-20.9v32.4
			c18.5-2.2,36.1-9.5,50.8-21.1l-20.5-20.5L158.2,194.3L158.2,194.3z M76.2,137.4H23.3c2.2,18.5,9.5,36.1,21,50.8l31.8-31.9
			L76.2,137.4L76.2,137.4z M76.2,93.6L44.3,61.8c-11.5,14.7-18.8,32.3-21,50.8h52.9V93.6L76.2,93.6z M167.6,64.8l20.5-20.5
			c-14.7-11.5-32.3-18.8-50.8-21v32.4h20.9L167.6,64.8z M182.5,165l23.2,23.2c11.5-14.7,18.8-32.3,21.1-50.8h-44.2V165z M112.6,55.7
			V23.3c-18.5,2.2-36.1,9.5-50.8,21l11.4,11.4L112.6,55.7L112.6,55.7z M182.5,112.6h44.2c-2.2-18.5-9.5-36.1-21.1-50.8l-23.2,23.3
			V112.6L182.5,112.6z M113.8,92.9v13.4h26.8l2.8-2.7v-8.1l-2.8-2.7H113.8z M113.8,143.6v13.4h26.8l2.8-2.7v-8.1l-2.8-2.7H113.8z" class="colorfff svgShape"></path></g></switch></svg></g></svg>