<?xml version="1.0" encoding="utf-8"?>
<!-- Generator: Adobe Illustrator 26.2.1, SVG Export Plug-In . SVG Version: 6.00 Build 0)  -->
<svg version="1.1" id="SvgjsSvg1249" xmlns:svgjs="http://svgjs.com/svgjs"
	 xmlns="http://www.w3.org/2000/svg" xmlns:xlink="http://www.w3.org/1999/xlink" x="0px" y="0px" viewBox="0 0 232.9 119.2"
	 style="enable-background:new 0 0 232.9 119.2;" xml:space="preserve">
<style type="text/css">
	.st0{fill:#BB8760;}
	.st1{fill:#FFFFFF;}
</style>
<g>
	<rect x="0" width="119.2" height="119.2"/>
	<path class="st0" d="M91.3,69.5c6.3,1.7,15.2,2,27.5-10c0.2-0.2,0.4-0.4,0.6-0.7V30.5c-4.8-1.3-9.8-2.4-15-3
		c-7.8,0-15.3,2.2-21.6,6.7C85.2,31.8,98,18.3,92,0H59.1c-6.3,5.4-9.4,13.5-8.5,21.8l3.3,16.8v0.9c0.4,0.7-1.3,1.3-2,0.4l-1.1-3.1
		c-0.9-1.7-1.8-3.5-2.8-5.2c0,0-8.7-20-24.4-21.8c-4.8-0.6-9.6-0.6-14.4,0c-3,0.6-6.1,0.4-9.1-0.6v3.7C0.5,14,0.8,15.3,1.4,17
		c1.1,3.3,1.8,11.5,3.3,14.6c1.8,5.5,5.4,10.3,10.3,13.3c1.5,1.7,16.8,7.2,23.1,8.5c-7.4-1.7-22.7-7-31.8-6.8c-2,0-4.3,0.4-6.3,0.7
		v37.1c1.1,0.2,2.4,0.6,3.9,0.7c4.6,0.9,9.2,0.4,13.5-1.5c7.8-3.5,15.2-7.4,22.4-11.6l-8.1,8.5c-4.6,5.2-7.4,11.8-7.6,18.9
		c0,0-0.7,5.9,4.6,19.8h26.4c2.6-1.8,4.8-4.1,6.7-6.7c3.7-4.8,5.4-9.2,3-24.6c0-0.7,0.2,0,0.2,0s5.2,19.6,21.1,22.5
		c6.3,0.9,12.8,1.1,19.2,0.6c4.6,0,9.2-0.2,14-0.7v-3.5c-0.4-1.1-1.1-2.4-1.7-4.1c-2-9.4-6.3-18.1-12.4-25.5
		C105.3,77,103.1,73.5,91.3,69.5"/>
	<path class="st1" d="M68.6,30.8c-5.7-0.4-6.1,3.7-10.5,5c-3,0.9-2.8-3.1-10.7-2.2c-2.6,0.2-4.8,1.7-6.3,3.7c0,0-3.3,4.1,1.3,10.3
		c0.9,2,0.6,4.3-0.9,5.9c-2.4,2.8-7.2,2-7.6,9.4c0,3,2,5.4,4.8,5.9c1.5,0.4,2.6,1.5,3.3,2.8c0.4,1.8,0.2,3.7-0.4,5.4
		c-0.4,2.4,0.7,5,2.8,6.3c3.7,3.3,10.3-3.9,15.9,0.4c2,1.8,2,3.3,7,3.3c0,0,4.1,0.4,5.7-5c0.4-0.9,0.9-1.8,1.8-2.4
		c1.1-0.7,2.4-1.1,3.7-1.1c5.5-0.4,7.8-2,8.5-9.1c0.6-5.9-5.9-6.1-4.8-9.8s4.4-0.4,5.5-10c0-3.9-3-7-6.8-7.2c-0.4,0-0.6,0-0.9,0
		c-1.5,0-3.3,0.7-4.6-2.6C74.1,36.2,75.4,31.2,68.6,30.8"/>
	<path class="st0" d="M68.6,59.7l0.6-0.4l1.7-1.1c0.6-0.6,0.9-1.1,1.1-2c0.2-0.6,0-1.1-0.4-1.5c-0.7-0.6-1.7-0.7-2.6-0.4l-2,1.3
		l-0.2,0.2l-0.7,0.6l-0.4,0.4l0,0c0-0.2,0.6-1.1,0.6-1.1l1.1-2.8c0-0.2,0-0.4,0-0.7c0-0.7-0.2-1.3-0.7-1.8C66.3,50,66,49.8,65.4,50
		c-1.3,0.6-2.2,1.7-2.6,3l-1.1,3l-0.2,0.6l-0.7-0.2l-0.9-1.1l-0.7-1.1c-0.7-1.3-1.8-2.2-3.1-2.8c-0.6-0.2-1.3-0.2-1.8,0.2
		c-0.6,0.4-0.7,1.1-0.7,1.8c0.2,1.1,0.7,2.2,1.7,2.8l0.2,0.4l0.9,0.9l0.9,0.9l0.2,0.2l0,0h-0.4L54,59.9c-0.6,0.4-2,1.1-2.2,2.2
		l0.2,1.3c1.1,1.5,2.2,1.1,3.9,0.6l2.2-0.7l1.3-0.4H60c-0.4,1.7-0.6,3.3-0.2,4.8l0.9,1.5c0.6,0.4,1.3,0.4,1.8,0
		c0.9-0.4,1.5-1.8,1.5-4.4v-0.9c-0.2-0.6-0.2-1.1,0-1.5c0.2,0,0.7,0.7,1.1,1.1c1.1,1.1,2.4,2,3.9,2.6c0.9,0.4,2,0,2.6-0.7
		c0.6-0.6,0.6-1.5,0-2l-2.4-1.8l-1.5-1.1l0.9-0.4L68.6,59.7z"/>
	<path d="M145.1,68.9h-0.5l-0.3-1.6c-0.9-0.7-2-0.9-3.1-0.8c-1.9,0-3.3,2.3-3.4,5.2s1,5.6,3.7,5.8c1,0,2-0.3,2.9-1l0.6-1.7h0.5
		l-0.2,2.5c-1.5,0.6-2.9,0.9-4.5,0.8c-3.1,0-5.6-2-5.4-6.5c-0.2-3.2,2.2-5.9,5.3-6.1c0.1,0,0.3,0,0.5,0c1.5-0.1,2.9,0.1,4.3,0.8
		L145.1,68.9z M150.6,73.9c0.6-0.1,1.1-0.2,1.8-0.1c0,0.6,0,1.1,0,1.7c0,1-0.8,1.8-1.8,1.8c-0.7,0-1.1-0.5-1.2-1.4
		C149.2,75,149.7,74.1,150.6,73.9L150.6,73.9 M147.7,70.8l1,1.4c0.5-0.7,1-2,2.2-2c0.8,0,1.6,0.6,1.6,1.5v0.1V73
		c-0.7,0-1.5,0-2.2,0.1c-1.6,0.2-3.2,1.1-3.1,2.9c0.1,1.2,1.2,2.2,2.5,2c1,0,2-0.7,2.5-1.6l0.1,1.5c0,0,2.5-0.2,3.3-0.2v-0.3
		l-1.4-0.5v-4.4c0.1-0.8-0.1-1.5-0.6-2.2c-0.8-1-2.8-0.9-3.2-0.9c-1.1,0-2.3,0.5-3.2,1.2 M156.6,70.2v-0.3l3.2-0.3l0.2,1.2
		c0.6-1,1.7-1.6,2.8-1.5c2.8,0,2.7,1.5,2.7,3.6V77l1.4,0.5v0.3H162v-0.3l1.2-0.5v-3.4c0.1-0.8,0-1.7-0.1-2.5
		c-0.2-0.6-0.8-0.9-1.4-0.9c-0.8,0.1-1.5,0.7-1.7,1.5c-0.2,0.6-0.3,1.1-0.2,1.8v3.6l1.1,0.5v0.3h-4.5v-0.3l1.2-0.5v-6.3L156.6,70.2z
		 M171.7,73.9c0.6-0.1,1.1-0.2,1.8-0.1c0,0.6,0,1.1,0,1.7c0,1-0.8,1.8-1.8,1.8c-0.7,0-1.1-0.5-1.2-1.4
		C170.2,75,170.8,74.1,171.7,73.9C171.8,73.9,171.8,73.9,171.7,73.9 M168.8,70.8l1,1.4c0.5-0.7,1-2,2.2-2c0.8,0,1.6,0.7,1.6,1.5v0.1
		V73c-0.7,0-1.5,0-2.2,0.1c-1.6,0.2-3.2,1.1-3.1,2.9c0.1,1.2,1.2,2.2,2.5,2c1.1,0,2-0.7,2.5-1.6l0.2,1.5c0,0,2.5-0.2,3.3-0.2v-0.3
		l-1.4-0.5v-4.4c0.1-0.8-0.1-1.5-0.6-2.2c-0.8-1-2.8-0.9-3.2-0.9c-1.1,0-2.3,0.5-3.2,1.2 M180.3,73.7c0-2,0.7-3.7,2-3.6
		c1.4,0.1,1.9,1.4,1.9,3.6c0,2.7-1.5,3.7-2.2,3.7C180.8,77.4,180.2,75.9,180.3,73.7 M184.3,65.5v5.2c-0.5-0.8-1.2-1.2-2.3-1.2
		c-2-0.2-3.9,1.2-4.1,3.3c0,0.2,0,0.5,0,0.8c0,2.5,1,4.8,4,4.5c1-0.1,1.9-0.8,2.4-1.7l0.1,1.6c0,0,2.5-0.2,3.3-0.2v-0.3l-1.4-0.6
		V64.4l-3.4,0.3V65L184.3,65.5z M192.1,66.5c0,0.7-0.6,1.1-1.1,1.1c-0.7,0-1.1-0.6-1.1-1.1c0-0.7,0.6-1.1,1.1-1.1l0,0
		C191.5,65.2,192.1,65.8,192.1,66.5 M188.7,70.2v-0.3l3.4-0.2v7.4l1.2,0.5v0.3h-4.5v-0.3l1.2-0.5v-6.3L188.7,70.2z M198.2,73.9
		c0.6-0.1,1.1-0.2,1.8-0.1c0,0.6,0,1.1,0,1.7c0,1-0.8,1.8-1.8,1.8c-0.8,0-1.1-0.5-1.2-1.4C196.7,75,197.3,74.1,198.2,73.9
		C198.3,73.9,198.3,73.9,198.2,73.9 M195.3,70.8l1,1.4c0.5-0.7,1-2,2.2-2c0.8,0,1.6,0.6,1.6,1.5v0.1V73c-0.7,0-1.5,0-2.2,0.1
		c-1.6,0.2-3.2,1.1-3.1,2.9c0.1,1.2,1.2,2.2,2.5,2c1,0,2-0.7,2.5-1.6l0.1,1.5c0,0,2.5-0.2,3.3-0.2v-0.3l-1.4-0.5v-4.4
		c0.1-0.8-0.1-1.5-0.6-2.2c-0.8-1-2.8-0.9-3.2-0.9c-1.1,0-2.3,0.5-3.2,1.2 M204.2,70.2v-0.3l3.2-0.3l0.2,1.2c0.6-1,1.7-1.6,2.8-1.5
		c2.8,0,2.7,1.5,2.7,3.6V77l1.5,0.5v0.3h-4.9v-0.3l1.2-0.5v-3.4c0.1-0.8,0-1.7-0.1-2.5c-0.2-0.6-0.8-0.9-1.4-0.9
		c-0.8,0.1-1.5,0.7-1.7,1.5c-0.2,0.6-0.3,1.1-0.2,1.8v3.6l1.1,0.5v0.3h-4.5v-0.3l1.2-0.5v-6.3L204.2,70.2z M145.1,86.7h-0.5
		l-0.3-1.6c-0.9-0.6-2-0.9-3.1-0.8c-1.9,0-3.3,2.3-3.4,5.2c-0.2,2.9,1,5.7,3.7,5.8c1,0,2-0.3,2.9-1l0.6-1.7h0.5l-0.2,2.5
		c-1.4,0.7-2.9,0.9-4.5,0.8c-3.1,0-5.6-2-5.4-6.5c-0.2-3.2,2.2-5.9,5.3-6.1c0.1,0,0.3,0,0.5,0c1.5-0.1,2.9,0.1,4.3,0.8L145.1,86.7z
		 M150.6,91.6c0.6-0.1,1.1-0.2,1.8-0.1c0,0.6,0,1.1,0,1.7c0,1-0.8,1.8-1.8,1.8c-0.7,0-1.1-0.5-1.2-1.4
		C149.2,92.9,149.7,92,150.6,91.6C150.6,91.8,150.6,91.6,150.6,91.6 M147.7,88.7l1,1.4c0.5-0.7,1-2,2.2-2c0.8-0.1,1.5,0.6,1.6,1.4
		c0,0.1,0,0.1,0,0.2v1.2c-0.7,0-1.5,0-2.2,0.1c-1.6,0.2-3.2,1.1-3.1,2.8c0.1,1.2,1.2,2.2,2.5,2c1,0,2-0.6,2.5-1.6l0.1,1.5
		c0,0,2.5-0.2,3.3-0.2v-0.3l-1.4-0.5v-4.4c0.1-0.8-0.1-1.5-0.6-2.2c-0.8-1-2.8-0.9-3.2-0.9c-1.1,0-2.3,0.5-3.2,1.2 M156.6,88.1v-0.3
		l3.2-0.3l0.2,1.2c0.6-1,1.7-1.6,2.8-1.5c2.8,0,2.7,1.5,2.7,3.6v4.1l1.4,0.5v0.3H162v-0.3l1.2-0.5v-3.4c0.1-0.8,0-1.7-0.1-2.5
		c-0.2-0.6-0.8-0.9-1.4-0.9c-0.8,0.1-1.5,0.7-1.7,1.4c-0.2,0.6-0.3,1.1-0.2,1.8v3.6l1.1,0.5v0.3h-4.5v-0.3l1.2-0.5v-6.3L156.6,88.1z
		 M174.4,89.9l-0.5-1.4c-0.3-0.5-0.9-0.7-1.5-0.7c-1.6,0-2,2.4-2,3.4c0,1.8,0.5,3.7,2,3.7c1-0.1,1.9-0.6,2.5-1.4l0.3,0.5
		c-0.6,1-1.7,1.6-2.8,1.6c-2.2,0.2-4.1-1.5-4.3-3.6c0-0.3,0-0.7,0-1c0.1-2.3,1.9-4.1,4.2-4h0.1c0.9-0.1,1.8,0.1,2.5,0.7l-0.2,2
		L174.4,89.9z M178.9,90.7c0.1-1.2,0.7-2.9,2-2.8c1.4,0.1,1.4,1.5,1.4,2.8H178.9z M178.9,91.5h5.4c0.3-1.9-1-3.9-2.9-4.1
		c-0.1,0-0.2,0-0.3,0c-2.2-0.2-4.1,1.4-4.3,3.5c0,0.2,0,0.3,0,0.6c-0.3,2.2,1,4.2,3.2,4.5c0.3,0.1,0.8,0.1,1.1,0
		c1.2,0,2.5-0.7,3.2-1.7l-0.4-0.4c-0.7,0.8-1.6,1.4-2.7,1.4C179.1,95.3,178.9,93,178.9,91.5 M185.6,88.1v-0.3l3.1-0.3l0.2,1.2
		c0.3-0.7,1-1.1,1.7-1.2c0.7-0.2,1.5-0.1,2,0.3l-0.7,1.8c-0.5-0.7-0.8-1.1-1.4-1.1c-1.2,0-1.7,0.7-1.7,2.7v3.6l1.7,0.5v0.3h-5v-0.3
		l1.2-0.5v-6.3L185.6,88.1z M142.6,104.4h-0.3L142,103c-0.7-0.7-1.6-1.1-2.5-1.1c-1.1,0-2,0.7-1.9,1.9c0,1.2,1.2,1.5,2.3,1.8
		c1.8,0.6,3.9,1.2,3.6,4.4c-0.1,2.2-1.6,3.6-4.4,3.5c-1.2,0-2.5-0.3-3.5-1l0.2-2.9h0.3l0.5,1.8c0.7,0.9,1.7,1.4,2.8,1.4
		c1.2,0,2.2-0.9,2.3-2.2v-0.1c0-2.2-2-2.5-2.7-2.7c-1-0.3-3.4-0.9-3.1-3.7c0.2-1.9,1.6-2.7,4-2.8c1.1,0,2.3,0.2,3.3,0.7L142.6,104.4
		z M147.2,109.5c0-1.9,0.5-3.5,2-3.5s2,1.6,2,3.5c0,2-0.5,3.9-2,3.9C147.8,113.3,147.2,111.6,147.2,109.5 M149.3,105.3
		c-2-0.3-4.1,1.1-4.3,3.2c0,0.2,0,0.6,0,0.8c-0.2,2.5,1.7,4.6,4.1,4.8c2.5,0.2,4.6-1.7,4.8-4.1c0-0.2,0-0.5,0-0.7
		C153.8,106.5,151.9,105.3,149.3,105.3 M161.5,107.8l-0.5-1.2c-0.3-0.5-0.9-0.7-1.5-0.7c-1.6,0-2,2.4-2,3.4c0,1.8,0.3,3.7,2,3.7
		c1-0.1,1.9-0.6,2.5-1.4l0.5,0.5c-0.7,1-1.7,1.6-2.9,1.6c-2.2,0.2-4.1-1.4-4.3-3.5c0-0.3,0-0.7,0-1.1c0.1-2.3,2-4.1,4.3-4
		c0,0,0,0,0.1,0c0.9-0.1,1.8,0.1,2.5,0.7l-0.2,2H161.5z M167.1,102.2c0,0.7-0.6,1.1-1.1,1.1c-0.7,0-1.1-0.6-1.1-1.1
		c0-0.7,0.6-1.1,1.1-1.1S167.1,101.5,167.1,102.2 M163.7,105.9v-0.3l3.4-0.3v7.6l1.2,0.5v0.3h-4.5v-0.3l1.2-0.5v-6.6L163.7,105.9z
		 M171.9,108.6c0.1-1.2,0.7-2.9,2-2.8c1.3,0.1,1.4,1.5,1.4,2.8H171.9z M171.9,109.4h5.4c0.3-1.9-1-3.7-2.9-4.1c-0.1,0-0.2,0-0.5,0
		c-2.2-0.2-4.1,1.4-4.3,3.5c0,0.1,0,0.3,0,0.5c-0.3,2.2,1,4.2,3.2,4.5c0.5,0.1,0.8,0.1,1.2,0c1.2,0,2.5-0.7,3.2-1.7l-0.5-0.5
		c-0.7,0.8-1.6,1.2-2.5,1.4c-2.3,0-2.3-2.3-2.3-3.7 M182.1,103.2v2.4h2v0.7h-2v4.2c0,1.2,0,1.9,0.5,2.4c0.5,0.3,1.1,0.1,1.7,0
		l0.1,0.6c-0.9,0.7-3.3,0.9-4,0c-0.7-0.9-0.3-1.8-0.5-3.4v-3.7h-1.4v-0.7h1.4v-1.8L182.1,103.2z M189.6,105.6v0.3l-1,0.5l2,4.8
		c0,0,0.9-2,2-4.9l-1-0.3v-0.3h3.5v0.3l-1.1,0.5l-5.6,12.1l-1.6-0.2c1.6-2.5,2.5-4.8,2.5-4.8l-3.2-7.1L185,106v-0.3h4.6V105.6z
		 M144.7,5.6h-0.3l-0.3-1.4c-0.7-0.7-1.6-1.1-2.5-1.1c-1.1,0-2,0.7-1.9,1.9c0,1.2,1.2,1.5,2.3,1.8c1.8,0.6,3.9,1.2,3.6,4.4
		c-0.1,2-1.9,3.7-4,3.6c-0.1,0-0.3,0-0.5,0c-1.2,0-2.5-0.3-3.5-1.1l0.1-2.9h0.3l0.5,1.9c0.7,0.9,1.7,1.4,2.8,1.4
		c1.2,0,2.2-0.9,2.2-2.2v-0.1c0.1-2.2-2-2.5-2.7-2.7c-1.1-0.3-3.4-0.9-3.1-3.7c0.2-1.8,1.6-2.7,4-2.8c1.1,0,2.2,0.2,3.2,0.7
		L144.7,5.6z M149.3,10.5c0-1.9,0.5-3.6,2-3.6c1.6,0,2,1.6,2,3.6s-0.5,3.7-2,3.7C149.8,14.2,149.3,12.5,149.3,10.5 M151.3,6.3
		c-2.2-0.3-4.1,1.1-4.4,3.3c0,0.2,0,0.6,0,0.8c-0.2,2.5,1.7,4.6,4.1,4.8c2.5,0.2,4.6-1.7,4.8-4.1c0-0.2,0-0.5,0-0.7
		c0.1-2.2-1.5-4-3.6-4.1C151.8,6.2,151.6,6.2,151.3,6.3 M163.5,8.9L163,7.7c-0.3-0.5-0.9-0.7-1.5-0.7c-1.6,0-2,2.4-2,3.4
		c0,1.8,0.5,3.7,2,3.7c0.9,0,1.6-0.5,2.5-1.4l0.3,0.5c-0.6,1-1.7,1.6-2.9,1.6c-2.2,0.2-4.1-1.4-4.3-3.5c0-0.3,0-0.7,0-1.1
		c0.1-2.3,1.9-4.1,4.3-4.1l0,0c1.9,0,2.5,0.7,2.5,0.7l-0.2,2L163.5,8.9z M169.1,3.2c0,0.7-0.6,1.1-1.1,1.1c-0.7,0-1.1-0.6-1.1-1.1
		c0-0.7,0.6-1.1,1.1-1.1C168.7,2,169.1,2.6,169.1,3.2 M165.7,7V6.7l3.4-0.2v7.4l1.2,0.5v0.3h-4.5v-0.3l1.2-0.5V7.6L165.7,7z
		 M174,9.7c0.1-1.2,0.7-2.9,2-2.8c1,0,1.4,1.5,1.4,2.8H174z M174,4.9l0.3,0.5l3.2-2.3L176.8,2L174,4.9z M173.9,10.4h5.4
		c0.3-1.9-1-3.9-3.1-4.1c-0.1,0-0.2,0-0.3,0c-2.2-0.1-4.1,1.5-4.2,3.7c0,0.1,0,0.2,0,0.3c-0.3,2.2,1,4.2,3.2,4.5
		c0.3,0.1,0.8,0.1,1.1,0c1.2,0,2.4-0.7,3.2-1.7l-0.3-0.5c-0.7,0.8-1.6,1.2-2.7,1.4C174,14.1,173.9,12,173.9,10.4 M184.3,4.1v2.4h2
		v0.7h-2v4.2c0,1.2,0,1.9,0.5,2.3c0.5,0.3,1.1,0.1,1.7,0l0.1,0.6c-0.9,0.7-3.2,0.9-4,0c-0.7-0.9-0.3-1.7-0.5-3.4V7.3h-1.4V6.6h1.4
		V4.8L184.3,4.1z M190.1,9.7c0.1-1.2,0.7-2.9,2-2.8c1.4,0.1,1.4,1.5,1.4,2.8H190.1z M190.1,4.9l0.3,0.5l3.2-2.3L192.9,2L190.1,4.9z
		 M189.9,10.4h5.4c0.3-1.9-1-3.7-2.9-4.1c-0.1,0-0.2,0-0.3,0c-2.2-0.2-4.1,1.4-4.3,3.6c0,0.1,0,0.3,0,0.5c-0.2,2.4,1.6,4.3,3.9,4.5
		c1.4,0.1,2.8-0.5,3.6-1.6l-0.3-0.5c-0.6,0.8-1.5,1.2-2.5,1.4C190.1,14.1,190,12,189.9,10.4 M143.5,26.7l-0.5-1.4
		c-0.3-0.5-0.9-0.7-1.5-0.7c-1.6,0-2,2.4-2,3.4c0,1.8,0.5,3.7,2,3.7c0.9,0,1.6-0.5,2.5-1.4l0.3,0.5c-0.6,1-1.7,1.6-2.9,1.6
		c-2.2,0.2-4.1-1.4-4.3-3.5c0-0.3,0-0.8,0-1.1c0.1-2.3,2-4.1,4.3-4c0,0,0,0,0.1,0c0.9-0.1,1.8,0.1,2.5,0.7l-0.2,2L143.5,26.7z
		 M149.3,28.4c0.6-0.1,1.1-0.2,1.8-0.1c0,0,0,1.1,0,1.7c0,1-0.8,1.8-1.8,1.8c-0.7,0-1.1-0.5-1.2-1.4
		C147.8,29.6,148.4,28.7,149.3,28.4C149.3,28.5,149.4,28.4,149.3,28.4 M146.4,25.4l1,1.4c0.3-0.7,1-2,2.2-2c0.8,0,1.6,0.6,1.6,1.5
		v0.1v1.2c-0.7,0-1.5,0-2.2,0.1c-1.6,0.2-3.2,1.1-3.1,2.8c0.1,1.2,1.2,2.2,2.5,2c1.1,0,2-0.6,2.5-1.6l0.1,1.5c0,0,2.5-0.2,3.3-0.2
		v-0.3l-1.4-0.5V27c0.1-0.8-0.1-1.5-0.6-2.2c-0.8-1-2.8-0.9-3.2-0.9c-1.1,0-2.3,0.5-3.2,1.2 M155.3,24.9v-0.3l3.2-0.3l0.1,1.2
		c0.7-1,1.8-1.6,2.9-1.5c2.8,0,2.7,1.5,2.7,3.6v4.1l1.4,0.5v0.3h-4.7v-0.3l1.4-0.5v-3.4c0.1-0.8,0-1.7-0.2-2.5
		c-0.1-0.6-0.8-0.9-1.4-0.9c-0.7,0.1-1.2,0.7-1.6,1.4c-0.2,0.6-0.3,1.1-0.2,1.8v3.6l1.1,0.5v0.3h-4.5v-0.3l1.2-0.5v-6.2L155.3,24.9z
		 M170.4,28.4c0.6-0.1,1.1-0.2,1.8-0.1c0,0.6,0,1.1,0,1.7c0,1-0.8,1.8-1.8,1.8c-0.7,0-1.1-0.5-1.2-1.4
		C169,29.6,169.5,28.7,170.4,28.4C170.5,28.5,170.5,28.4,170.4,28.4 M167.4,25.4l1,1.4c0.5-0.7,1-2,2.2-2c0.8,0,1.6,0.6,1.6,1.5v0.1
		v1.2c-0.7,0-1.5,0-2.2,0.1c-1.6,0.2-3.2,1.1-3.1,2.8c0.1,1.2,1.2,2.2,2.5,2c1.1,0,2-0.6,2.5-1.6l0.1,1.5c0,0,2.5-0.2,3.3-0.2v-0.3
		l-1.4-0.5V27c0.1-0.8-0.1-1.5-0.6-2.2c-0.8-1-2.8-0.9-3.2-0.9c-1.1,0-2.3,0.5-3.2,1.2 M179,28.4c0-2,0.7-3.7,2-3.6
		c1.5,0.1,1.9,1.4,1.9,3.6c0,2.7-1.4,3.7-2.2,3.7C179.4,32,178.9,30.4,179,28.4 M182.9,20.1v5.2c-0.5-0.8-1.2-1.2-2.3-1.2
		c-2-0.1-3.9,1.5-4.1,3.5c0,0.2,0,0.3,0,0.6c0,2.5,1,4.8,4,4.5c1-0.1,1.9-0.8,2.4-1.7v1.6c0,0,2.5-0.2,3.3-0.2v-0.3l-1.4-0.5V19.1
		l-3.4,0.2v0.3L182.9,20.1z M190.8,21.1c0,0.7-0.6,1.1-1.2,1.1c-0.7,0-1.1-0.6-1.1-1.1c0-0.7,0.6-1.1,1.1-1.1
		C190.2,19.9,190.8,20.5,190.8,21.1 M187.4,24.9v-0.3l3.4-0.2v7.4l1.2,0.5v0.3h-4.5v-0.3l1.2-0.5v-6.5L187.4,24.9z M195.6,27.5
		c0.1-1.2,0.7-2.9,2-2.8c1.4,0.1,1.4,1.5,1.4,2.8H195.6z M195.6,28.3h5.4c0.3-1.9-1-3.7-2.9-4.1c-0.1,0-0.2,0-0.3,0
		c-2.2-0.2-4.1,1.4-4.3,3.6c0,0.1,0,0.3,0,0.5c-0.3,2.2,1.1,4.2,3.3,4.5c0.3,0.1,0.8,0.1,1.1,0c1.2,0,2.4-0.7,3.2-1.6l-0.5-0.5
		c-0.7,0.8-1.5,1.2-2.5,1.4C195.9,32,195.7,29.9,195.6,28.3 M202.3,24.9v-0.3l3.2-0.3l0.2,1.2c0.7-1,1.7-1.6,2.9-1.5
		c2.8,0,2.7,1.5,2.7,3.6v4.1l1.4,0.5v0.3h-4.8v-0.3l1.4-0.5v-3.4c0.1-0.8,0-1.7-0.2-2.5c-0.2-0.6-0.8-0.9-1.4-0.9
		c-0.8,0.1-1.5,0.7-1.7,1.4c-0.2,0.6-0.2,1.1-0.2,1.8v3.6l1.1,0.5v0.3h-4.5v-0.3l1.2-0.5v-6.3L202.3,24.9z M213.6,24.9v-0.3l3.3-0.3
		l0.2,1.2c0.6-1,1.7-1.6,2.9-1.5c2.8,0,2.7,1.5,2.7,3.6v4.1l1.4,0.5v0.3h-5v-0.3l1.4-0.5v-3.4c0.1-0.8,0-1.7-0.2-2.5
		c-0.1-0.6-0.8-0.9-1.4-0.9c-0.8,0.1-1.5,0.7-1.7,1.4c-0.2,0.6-0.3,1.1-0.2,1.8v3.6l1.1,0.5v0.3h-4.5v-0.3l1.2-0.5v-6.3L213.6,24.9z
		 M227.5,27.5c0.1-1.2,0.7-2.9,2-2.8c1,0,1.4,1.5,1.4,2.8H227.5z M227.5,28.3h5.4c0.3-1.9-1-3.9-2.9-4.1c-0.1,0-0.2,0-0.3,0
		c-2.2-0.2-4.1,1.5-4.3,3.6c0,0.1,0,0.3,0,0.5c-0.3,2.2,1,4.2,3.2,4.5c0.3,0.1,0.8,0.1,1.1,0c1.2,0,2.5-0.6,3.2-1.6l-0.5-0.5
		c-0.7,0.8-1.6,1.4-2.6,1.4C227.5,32,227.3,29.9,227.5,28.3 M139.7,46.3c0-2,0.7-3.7,2-3.6c1.3,0.1,1.9,1.4,1.9,3.6
		c0,2.7-1.4,3.7-2.2,3.7C140.1,49.9,139.7,48.3,139.7,46.3 M143.6,38v5.2c-0.5-0.8-1.2-1.2-2.3-1.2c-2-0.2-3.9,1.2-4.1,3.3
		c0,0.2,0,0.6,0,0.8c0,2.5,1,4.8,4,4.5c1-0.1,1.9-0.8,2.4-1.7l0.1,1.6c0,0,2.5-0.2,3.3-0.2v-0.4l-1.4-0.5V36.9l-3.4,0.2v0.3
		L143.6,38z M151.2,42.1v5c0,1.9,0,2.7,1.2,2.7c0.6,0,1.1-0.3,1.6-0.8c0.5-0.6,0.5-1.1,0.6-2.2c0-1.7,0-3.6,0-3.7l-1.2-0.3v-0.5
		l3.3-0.2c0,0,0,5.2,0,7.2l1.4,0.3v0.3c-0.7,0-3.3,0.3-3.3,0.3V49c-0.6,0.8-1.6,1.2-2.5,1.2c-2,0-2.9-0.6-2.9-2.8v-4.5l-1.2-0.5
		v-0.1l3.3-0.1 M170.5,44.6l-0.5-1.2c-0.3-0.5-0.9-0.7-1.5-0.7c-1.6,0-2,2.4-2,3.4c0,1.8,0.5,3.7,2,3.7c1-0.1,1.9-0.6,2.5-1.4
		l0.5,0.5c-0.7,1-1.7,1.6-2.9,1.6c-2.2,0.2-4.1-1.4-4.3-3.5c0-0.3,0-0.7,0-1.1c0.1-2.3,2-4.1,4.3-4c0,0,0,0,0.1,0
		c0.9-0.1,1.8,0.1,2.5,0.7l-0.2,2H170.5z M176.3,46.3c0.6-0.1,1.2-0.2,1.8-0.2c0,0.6,0,1.1,0,1.7c0,1-0.8,1.8-1.8,1.8
		c-0.7,0-1.1-0.5-1.2-1.4C174.8,47.4,175.4,46.5,176.3,46.3L176.3,46.3 M173.3,43.2l1,1.4c0.3-0.7,1-2,2.2-2c0.8,0,1.6,0.7,1.6,1.5
		v0.1v1.2c-0.7,0-1.5,0-2.2,0.1c-1.6,0.2-3.2,1.1-3.1,2.8c0.1,1.2,1.2,2.2,2.5,2c1.1,0,2-0.7,2.5-1.6l0.1,1.5c0,0,2.5-0.2,3.3-0.2
		v-0.3l-1.4-0.5v-4.3c0.1-0.8-0.1-1.6-0.6-2.2c-0.9-1-2.8-0.9-3.2-0.9c-1.1,0-2.3,0.5-3.2,1.2 M182.3,42.8v-0.3l3.2-0.3l0.2,1.2
		c0.6-1,1.7-1.6,2.8-1.5c2.8,0,2.7,1.5,2.7,3.6v4l1.4,0.5v0.3h-4.9v-0.4l1.4-0.5V46c0.1-0.8,0-1.7-0.2-2.5c-0.2-0.6-0.8-0.9-1.4-0.9
		c-0.8,0.1-1.5,0.7-1.7,1.5c-0.2,0.6-0.3,1.1-0.2,1.8v3.6l1.1,0.5v0.3h-4.5V50l1.2-0.5V43L182.3,42.8z M200,44.6l-0.5-1.2
		c-0.3-0.5-0.9-0.7-1.5-0.7c-1.6,0-2,2.4-2,3.4c0,1.8,0.5,3.7,2,3.7c1-0.1,1.9-0.6,2.5-1.4l0.3,0.5c-0.6,1-1.7,1.6-2.9,1.6
		c-2.2,0.2-4.1-1.4-4.3-3.5c0-0.3,0-0.8,0-1.1c0.1-2.3,1.9-4.1,4.2-4h0.1c1.9,0,2.5,0.7,2.5,0.7v2H200z M204.6,45.4
		c0.2-1.2,0.7-2.9,2-2.8c1.4,0.1,1.4,1.5,1.4,2.8H204.6z M204.6,46.2h5.4c0.3-1.9-1-3.7-2.9-4.1c-0.1,0-0.2,0-0.5,0
		c-2.2-0.2-4.1,1.4-4.3,3.6c0,0.1,0,0.3,0,0.5c-0.3,2.2,1.1,4.2,3.3,4.5c0.3,0.1,0.8,0.1,1.1,0c1.2,0,2.5-0.7,3.2-1.7l-0.5-0.5
		c-0.7,0.8-1.6,1.2-2.7,1.4C204.6,49.9,204.5,47.6,204.6,46.2 M211.3,42.8v-0.3l3.2-0.3l0.2,1.2c0.3-0.7,1-1.1,1.7-1.2
		c0.7-0.1,1.5,0,2,0.3l-0.7,1.8c-0.5-0.7-0.8-1-1.2-1.1c-1.2,0-1.7,0.8-1.7,2.7v3.6l1.7,0.5v0.3h-5v-0.4l1.2-0.6V43L211.3,42.8z"/>
</g>
</svg>
