<?xml version="1.0" encoding="utf-8"?>
<!-- Generator: Adobe Illustrator 26.2.1, SVG Export Plug-In . SVG Version: 6.00 Build 0)  -->
<svg version="1.1" id="SvgjsSvg1001" xmlns:svgjs="http://svgjs.com/svgjs"
	 xmlns="http://www.w3.org/2000/svg" xmlns:xlink="http://www.w3.org/1999/xlink" x="0px" y="0px" viewBox="0 0 163 219"
	 style="enable-background:new 0 0 163 219;" xml:space="preserve">
<style type="text/css">
	.st0{fill:#C1916E;}
	.st1{fill:#E4D0C0;}
	.st2{fill:#90603D;}
	.st3{fill:#AB7349;}
	.st4{fill:#BB8760;}
	.st5{fill:#D3B097;}
	.st6{fill:#3E3A39;}
</style>
<g id="SvgjsG1008" transform="matrix(1,0,0,1,0,0)">
	<g>
		<path class="st0" d="M51.9,25.2c-1.2-0.6-2.2,0.9-2.6,1.7c-1.5,2.6-2.4,6.3-2.6,9.4c-0.6,7.3,0.7,14.2,4.7,20.4
			c3.6,5.5,10.3,11.3,17.3,8.3c3.5-1.5,6.5-4.6,6.9-8.4c0.5-3.8-1.4-7.1-4-9.7c-5.9-5.5-17.2-7.1-18.2-16.6
			C52.7,26.5,52.7,25.7,51.9,25.2"/>
		<path class="st0" d="M120,36.3c0.6-1.2-1-2.1-2-2.5c-2.8-1.3-6.6-1.8-9.7-2c-7.3,0-14.2,1.8-19.9,6.3c-5.3,4-10.4,11.2-6.9,18
			c1.7,3.3,5.1,6.1,9,6.2c3.8,0.1,7-2,9.3-4.8c5-6.2,5.8-17.6,15.1-19.5C118.9,37.2,119.7,37.1,120,36.3"/>
		<path class="st1" d="M116.9,105.1c1.2,0.6,2.1-1,2.5-2c1.4-2.8,2-6.6,2-9.7c0.1-7.3-1.7-14.2-6.2-19.9c-4-5.3-11.1-10.4-17.9-7
			c-3.3,1.7-6.1,5.1-6.3,9s1.8,7,4.7,9.3c6.2,5,17.6,5.9,19.5,15.2C116.1,103.9,116.1,104.6,116.9,105.1"/>
		<path class="st2" d="M136.6,89c0.6,0.3,1.3-0.6,1.5-1c0.8-1.7,1.3-3.6,1.3-5.5c0.2-4.1-0.7-8.1-3.1-11.5
			c-2.2-3.1-6.1-6.2-10.1-4.4c-2,0.9-3.6,2.8-3.8,5c-0.2,2.2,0.9,4,2.5,5.5c3.5,3,9.9,3.8,10.7,9.1C136.1,88.4,136.1,88.8,136.6,89"
			/>
		<path class="st3" d="M118.3,19.3c0.6-0.5,0-1.4-0.5-1.7c-1.3-1.4-2.9-2.5-4.6-3.2c-3.8-1.7-7.8-2.3-11.9-1.4
			c-3.7,0.9-8.1,3.3-7.8,7.7c0.1,2.2,1.2,4.4,3.2,5.4c2.1,1,4.1,0.7,6-0.3c4-2.1,7.1-7.8,12.4-6.7C117.5,19.6,117.8,19.7,118.3,19.3
			"/>
		<path class="st1" d="M32.6,39.6C32,39.3,31.3,40,31,40.5c-1,1.6-1.7,3.3-2.1,5.2c-0.7,4-0.3,8.1,1.6,11.9c1.7,3.3,5.3,6.9,9.4,5.6
			c2.1-0.6,3.9-2.3,4.4-4.4c0.5-2.1-0.3-4.1-1.8-5.8c-3-3.5-9.3-5-9.6-10.4C32.9,40.4,33,40,32.6,39.6"/>
		<path class="st3" d="M53.2,114.5c-0.6,0.6,0.1,1.4,0.6,1.7c1.4,1.3,3,2.3,4.8,2.9c3.9,1.4,7.9,1.8,11.9,0.6
			c3.6-1.2,7.8-3.9,7.3-8.3c-0.2-2.2-1.5-4.3-3.6-5.2c-2.1-0.9-4.1-0.3-6,0.7c-3.9,2.4-6.6,8.3-12,7.5
			C54,114.3,53.5,114.2,53.2,114.5"/>
		<path class="st4" d="M47.9,96.8c-0.5,1.2,1.2,2.1,2.1,2.4c2.9,1.2,6.7,1.5,9.8,1.3c7.3-0.3,13.9-2.6,19.5-7.5
			c5-4.4,9.7-11.8,5.8-18.3c-2-3.2-5.4-5.8-9.3-5.6s-6.9,2.3-9,5.4c-4.6,6.6-4.7,18-13.8,20.4C49.1,95.7,48.2,95.8,47.9,96.8"/>
		<path class="st2" d="M25.2,72.8c-0.8,0.5-0.3,1.7,0.1,2.4c1.2,2.1,3.2,4,5.2,5.5c4.5,3.2,9.6,5.2,15.1,5
			c5.1-0.2,11.4-2.3,12.2-8.1c0.5-2.9-0.5-6-2.8-7.8c-2.3-1.8-5.2-2-7.9-1.2c-5.9,1.7-11.4,8.4-18,5.4
			C26.4,72.8,25.8,72.5,25.2,72.8"/>
		<path class="st5" d="M89.5,124.4c0.5,0.9,1.7,0.3,2.4,0c2.2-1.3,4-3,5.5-5c3.3-4.4,5.4-9.4,5.4-15c0-5.1-2.1-11.4-7.7-12.4
			c-2.9-0.6-6.1,0.2-7.9,2.5c-1.8,2.3-2.1,5.2-1.4,7.8c1.5,5.9,8.1,11.6,5,18.2C89.4,123.3,89.1,123.7,89.5,124.4"/>
		<path class="st4" d="M142.2,54.1c0.7-0.6,0-1.8-0.6-2.4c-1.5-1.7-3.9-3.3-6.1-4.4c-5-2.3-10.4-3.2-15.8-2
			c-5,1.2-10.7,4.4-10.5,10.3c0.1,2.9,1.6,5.8,4.3,7.1c2.6,1.4,5.5,0.9,8.1-0.3c5.4-2.8,9.6-10.4,16.7-8.6
			C141.2,54.4,141.8,54.7,142.2,54.1"/>
		<path class="st5" d="M86.7,7.6c-0.1-0.9-1.5-0.9-2.3-0.9c-2.5,0.3-4.8,1.3-7,2.6C72.7,12.2,69,16.2,67,21.4
			c-1.7,4.7-2.2,11.4,2.8,14.4c2.4,1.5,5.8,2,8.3,0.5c2.6-1.5,3.8-4,4.1-6.9c0.7-6.1-3.3-13.7,2-18.8C86.4,8.6,86.8,8.3,86.7,7.6"/>
		<path class="st6" d="M23.3,154.4c-4,0-6.6-2.6-6.6-6.9c0-4.3,2.6-6.9,6.5-6.9c1.3,0,2.6,0.2,3.8,0.9l-0.5,2.8c-0.9-0.7-2-1-3.1-1
			c-2.2,0-3.6,1.5-3.6,4.4c0,2.9,1.5,4.4,3.6,4.4c1.2,0,2.3-0.3,3.2-1l0.3,2.5C26,154.1,24.6,154.4,23.3,154.4 M36,143.1
			c-2.1,0-3.3,1.8-3.3,4.4c0,2.5,1.3,4.4,3.3,4.4s3.2-2,3.2-4.4S38.1,143.1,36,143.1 M36,154.4c-3.5,0-6.3-2.6-6.3-6.9
			c0-4.3,2.9-6.9,6.3-6.9c3.5,0,6.3,2.6,6.3,6.9C42.3,151.8,39.5,154.4,36,154.4"/>
		<polygon class="st6" points="58.7,154.2 58,143.9 54.8,154.2 51.8,154.2 48.6,143.9 47.9,154.2 45.2,154.2 46.1,140.8 50.4,140.8 
			53.4,150.5 56.5,140.8 60.7,140.8 61.7,154.2 		"/>
		<polygon class="st6" points="78.6,154.2 77.9,143.9 74.7,154.2 71.7,154.2 68.5,143.9 67.8,154.2 65.2,154.2 66.1,140.8 
			70.3,140.8 73.3,150.5 76.3,140.8 80.6,140.8 81.5,154.2 		"/>
		<path class="st6" d="M90.5,154.4c-3.5,0-5.5-2-5.5-5.4v-8.1h3v8.1c0,1.7,0.8,2.9,2.5,2.9c1.7,0,2.5-1,2.5-2.9v-8.2h3.1v8.1
			C96.1,152.6,94,154.4,90.5,154.4"/>
		<polygon class="st6" points="108.5,154.2 102.7,145.4 102.7,154.2 99.9,154.2 99.9,140.8 102.8,140.8 108.4,149.1 108.4,140.8 
			111.1,140.8 111.1,154.2 		"/>
		<rect x="115.7" y="140.8" class="st6" width="3.1" height="13.2"/>
		<polygon class="st6" points="129.4,143.5 129.4,154.2 126.3,154.2 126.3,143.5 122.4,143.5 122.4,140.8 133.4,140.8 133.4,143.5 
					"/>
		<polygon class="st6" points="11.5,171.3 11.5,174.3 15.6,174.3 15.6,176.9 11.5,176.9 11.5,182.2 8.5,182.2 8.5,168.9 16.9,168.9 
			16.9,171.3 		"/>
		<path class="st6" d="M25.6,171.1c-2.1,0-3.3,1.8-3.3,4.4c0,2.5,1.3,4.4,3.3,4.4s3.2-2,3.2-4.4C28.8,173.1,27.7,171.1,25.6,171.1
			 M25.6,182.4c-3.5,0-6.3-2.6-6.3-6.9c0-4.1,2.9-6.9,6.3-6.9s6.3,2.6,6.3,6.9C32,179.7,29.2,182.4,25.6,182.4 M40.9,182.4
			c-3.5,0-5.5-2-5.5-5.4v-8.1h3v8.1c0,1.7,0.8,2.9,2.5,2.9c1.7,0,2.5-1,2.5-2.9v-8.1h3.1v8.1C46.6,180.6,44.4,182.4,40.9,182.4"/>
		<polygon class="st6" points="59.3,182.2 53.4,173.4 53.4,182.2 50.6,182.2 50.6,168.9 53.6,168.9 59,177.2 59,168.9 61.9,168.9 
			61.9,182.2 		"/>
		<path class="st6" d="M84.6,176.9l1.7-5.4h0.1l1.7,5.4H84.6z M88.2,168.9h-3.5l-4.8,13.2h2.9l1-2.9h5.3l1,2.9H93L88.2,168.9z"/>
		<rect x="108.2" y="168.9" class="st6" width="3.1" height="13.2"/>
		<path class="st6" d="M121.4,171.1c-2.1,0-3.2,1.8-3.2,4.4c0,2.5,1.3,4.4,3.2,4.4c2.1,0,3.3-2,3.3-4.4
			C124.7,173.1,123.4,171.1,121.4,171.1 M121.4,182.4c-3.5,0-6.3-2.6-6.3-6.9c0-4.1,2.9-6.9,6.3-6.9c3.5,0,6.3,2.6,6.3,6.9
			C127.7,179.7,124.8,182.4,121.4,182.4"/>
		<polygon class="st6" points="139.9,182.2 134.1,173.4 134.1,182.2 131.3,182.2 131.3,168.9 134.3,168.9 139.8,177.2 139.8,168.9 
			142.6,168.9 142.6,182.2 		"/>
		<path class="st6" d="M151,182.4c-1.6,0-3.3-0.3-4.8-1l0.5-2.5c1.4,0.7,2.9,1,4.5,1.2c1.4,0,2.2-0.6,2.2-1.5s-0.6-1.2-2.2-1.7
			c-2.9-0.9-4.5-1.7-4.5-4c0-2.4,2-4,4.6-4c1.4,0,2.8,0.2,4.1,0.8l-0.5,2.6c-1.2-0.6-2.4-0.9-3.8-0.9c-1.2,0-1.8,0.6-1.8,1.3
			c0,0.8,0.6,1.2,2.3,1.7c3.1,0.9,4.4,1.8,4.4,4C156,180.8,154.1,182.4,151,182.4 M27.1,196.2c-2.1,0-3.2,1.8-3.2,4.4
			s1.3,4.4,3.2,4.4c2.1,0,3.3-2,3.3-4.4S29.2,196.2,27.1,196.2 M27.1,207.5c-3.5,0-6.3-2.6-6.3-6.9c0-4.3,2.9-6.9,6.3-6.9
			s6.3,2.6,6.3,6.9C33.4,204.7,30.7,207.5,27.1,207.5 M62.8,207.5c-4,0-6.6-2.6-6.6-6.9c0-4.1,2.6-6.9,6.5-6.9
			c1.3,0,2.6,0.2,3.8,0.9l-0.5,2.8c-0.9-0.7-2-1-3.1-1c-2.2,0-3.6,1.5-3.6,4.4c0,2.9,1.5,4.4,3.6,4.4c1.2,0,2.3-0.3,3.2-1l0.3,2.5
			C65.5,207.2,64.2,207.5,62.8,207.5"/>
		<polygon class="st6" points="93.8,207.3 88,198.5 88,207.3 85.3,207.3 85.3,193.9 88.3,193.9 93.7,202.2 93.7,193.9 96.5,193.9 
			96.5,207.3 		"/>
		<path class="st6" d="M120,196.4h-1.4v8.2h1.4c2.5,0,4-1.4,4-4C124,197.9,122.4,196.4,120,196.4 M120,207.3h-4.4V194h4.4
			c4.7,0,7.1,2.8,7.1,6.7S124.4,207.3,120,207.3"/>
		<polygon class="st6" points="145,140.8 141.9,146.3 138.9,140.8 135.7,140.8 140.5,149.1 140.5,154.2 143.4,154.2 143.4,149.1 
			148.2,140.8 		"/>
		<polygon class="st6" points="101,171.6 101,182.2 97.9,182.2 97.9,171.6 93.9,171.6 93.9,168.9 104.9,168.9 104.8,171.6 		"/>
		<polygon class="st6" points="40,196.4 40,199.4 44.2,199.4 44.2,202 40,202 40,207.3 37,207.3 37,193.9 45.4,193.9 45.4,196.4 		
			"/>
		<path class="st6" d="M74,201.9l1.7-5.4h0.1l1.7,5.4H74z M77.6,193.9h-3.5l-4.8,13.2h2.9l1-2.9h5.3l1,2.9h2.9L77.6,193.9z
			 M104.3,201.9l1.7-5.4h0.1l1.7,5.4H104.3z M107.9,193.9h-3.5l-4.8,13.2h2.9l1-2.9h5.3l1,2.9h2.9L107.9,193.9z M133.4,201.9
			l1.7-5.4h0.1l1.7,5.4H133.4z M137,193.9h-3.5l-4.8,13.2h2.9l1-2.9h5.3l1,2.9h2.9L137,193.9z M71,171.7h-1.4v8.2H71
			c2.5,0,4-1.5,4-4C75,173.2,73.4,171.7,71,171.7 M71,182.5h-4.4v-13.2H71c4.7,0,7.1,2.8,7.1,6.7C78.2,179.9,75.6,182.5,71,182.5"/>
	</g>
</g>
</svg>
