<svg id="Layer_1" data-name="Layer 1" xmlns="http://www.w3.org/2000/svg" viewBox="0 0 360 91.27"><defs><style>.cls-1{fill:#bb8760;fill-rule:evenodd;}</style></defs><path class="cls-1" d="M96.28,40.71l-15,15L57.73,32.11l2.53-2.53a18.47,18.47,0,0,0,24.59-1.27,1.83,1.83,0,0,0,.47-1.24,1.89,1.89,0,0,0-3.14-1.43,14.69,14.69,0,0,1-20.66,0,1.9,1.9,0,0,0-2.67,0l-17.6,17.6a3.06,3.06,0,0,1-2.18.91A3.11,3.11,0,0,1,36,41.06a3.07,3.07,0,0,1,.9-2.17L65.67,10.1a21.64,21.64,0,0,1,30.6,30.61ZM80.15,64.23a3.07,3.07,0,0,1-4.36,0L50.7,39.14l4.36-4.36L80.15,59.87A3.09,3.09,0,0,1,80.15,64.23Zm-7,7a3.11,3.11,0,0,1-4.36,0L43.65,46.16l.27-.24L48,41.81l25.1,25.1a3.09,3.09,0,0,1,0,4.36Zm-7,7a3.11,3.11,0,0,1-4.36,0L32.47,49.05a1.85,1.85,0,0,0-1.33-.56,1.9,1.9,0,0,0-1.34,3.23L59.05,81a3.08,3.08,0,0,1-2.18,5.26,3,3,0,0,1-2.17-.9L10.12,40.76a21.64,21.64,0,1,1,30.6-30.61l9.78,9.78L34.22,36.21a6.91,6.91,0,0,0,0,9.71A6.83,6.83,0,0,0,40,47.86L66.09,73.94a3.09,3.09,0,0,1,0,4.36Zm-20,7.12a3.09,3.09,0,0,1-.47-3.79l4.27,4.27A3.13,3.13,0,0,1,46.11,85.42Zm-4.87-6.16a3.11,3.11,0,0,1-2.68-4.71l4.27,4.27A3,3,0,0,1,41.24,79.26Zm-9.29-8a3.1,3.1,0,0,1-.46-3.8l4.26,4.27A3.13,3.13,0,0,1,32,71.27Zm-4.86-6.16A3.14,3.14,0,0,1,24,62a3.07,3.07,0,0,1,.44-1.59l4.27,4.26A3.06,3.06,0,0,1,27.09,65.11ZM63,7.43l-9.83,9.83L43.39,7.48a25.42,25.42,0,1,0-35.94,36L21.7,57.68a6.92,6.92,0,0,0,.51,9.18,6.82,6.82,0,0,0,4.88,2l.18,0v.2a6.8,6.8,0,0,0,2,4.87,6.89,6.89,0,0,0,4.87,2h.19v.19a6.9,6.9,0,0,0,6.9,6.9h.19v.19a6.9,6.9,0,0,0,11.25,5.35,6.86,6.86,0,0,0,11.07-5.42V83h.18a6.86,6.86,0,0,0,6.86-6.86v-.18h.18a6.85,6.85,0,0,0,6.86-6.85v-.18H78a6.79,6.79,0,0,0,4.85-2,6.87,6.87,0,0,0,1-8.41L99,43.38A25.42,25.42,0,0,0,63,7.43Z"/><path class="cls-1" d="M153.77,54.44h-22.4V33.58H114.79V91.27h16.58V68.72h22.4V91.27h16.59V33.58H153.77Z"/><path class="cls-1" d="M281.66,57.15a7,7,0,0,1-4.23,1.27h-12V47.86h12a6.9,6.9,0,0,1,4.23,1.28,4.75,4.75,0,0,1,1.8,4A4.69,4.69,0,0,1,281.66,57.15Zm13.39-17.8a18.61,18.61,0,0,0-6.45-4.23,24,24,0,0,0-8.87-1.54H248.89V91.27h16.58V72.7h14.26a24,24,0,0,0,8.87-1.54,18.33,18.33,0,0,0,6.45-4.23A18,18,0,0,0,299,60.74a22.24,22.24,0,0,0,0-15.15,17.8,17.8,0,0,0-3.93-6.24Z"/><path class="cls-1" d="M307.42,91.27h43.46V77H324V69.26h26.84V55H324V47.86h26.88V33.58H307.42Z"/><path class="cls-1" d="M182.86,14.39l9.91,14h7.83V1.13h-8.15V13.87L183.1,1.13h-8.38v27.3h8.14Z"/><path class="cls-1" d="M223.22,28.43l9.92-27.3H223.9l-5.8,18.1-5.81-18.1h-9.23L213,28.43h10.24"/><path class="cls-1" d="M269.72,28.43h8.15V17.33l10-16.2h-9.15L273.8,10.2l-5-9.07h-9.15l10.08,16.2v11.1"/><path class="cls-1" d="M330.48,28.43h8.14V19.25h12.26V12.16H338.62V8.22h12.26V1.13h-20.4Z"/><path class="cls-1" d="M157.5,21.41a6.63,6.63,0,1,1,6.63-6.62,6.65,6.65,0,0,1-6.63,6.62ZM167.79,4.92a13.78,13.78,0,0,0-4.59-2.79,16.9,16.9,0,0,0-11.4,0,13.57,13.57,0,0,0-4.58,2.79,12.69,12.69,0,0,0-3.05,4.31,13.64,13.64,0,0,0-1.11,5.56,13.55,13.55,0,0,0,1.11,5.55,12.73,12.73,0,0,0,3.05,4.32,13.83,13.83,0,0,0,4.58,2.79,16.9,16.9,0,0,0,11.4,0,13.78,13.78,0,0,0,4.59-2.79,12.84,12.84,0,0,0,3-4.32,13.39,13.39,0,0,0,1.11-5.55,13.44,13.44,0,0,0-1.11-5.56,12.8,12.8,0,0,0-3-4.31Z"/><path class="cls-1" d="M118.93,24.67a13.3,13.3,0,0,0,4.6,2.79,16.66,16.66,0,0,0,5.76,1,13.6,13.6,0,0,0,4.58-.71,12.37,12.37,0,0,0,3.42-1.82,11.17,11.17,0,0,0,2.41-2.49,17.42,17.42,0,0,0,1.57-2.69L135,17.85a6.73,6.73,0,0,1-12.74-3h0A6.74,6.74,0,0,1,135,11.76l6.29-2.92a16.8,16.8,0,0,0-1.57-2.73,10.75,10.75,0,0,0-2.43-2.47,12.63,12.63,0,0,0-3.42-1.77,13.41,13.41,0,0,0-4.56-.7,16.44,16.44,0,0,0-5.76,1A13.5,13.5,0,0,0,118.93,5a12.73,12.73,0,0,0-3.05,4.31,13.73,13.73,0,0,0-1.11,5.55,13.63,13.63,0,0,0,1.11,5.56,12.55,12.55,0,0,0,3.05,4.3"/><path class="cls-1" d="M246.47,21.4h-.14a6.63,6.63,0,0,1,0-13.26h.14a6.63,6.63,0,0,1,0,13.25Zm10.28,3.25a13.17,13.17,0,0,0,3.05-4.31,13.81,13.81,0,0,0,1.11-5.56,13.81,13.81,0,0,0-1.11-5.56,13,13,0,0,0-3.05-4.31,13.78,13.78,0,0,0-4.59-2.79,16.88,16.88,0,0,0-11.39,0,13.78,13.78,0,0,0-4.59,2.79,12.8,12.8,0,0,0-3,4.31A13.61,13.61,0,0,0,232,14.78a13.55,13.55,0,0,0,1.11,5.55,13.08,13.08,0,0,0,3,4.32,13.78,13.78,0,0,0,4.59,2.79,16.37,16.37,0,0,0,5.7,1,16,16,0,0,0,5.69-1,13.78,13.78,0,0,0,4.59-2.79Z"/><path class="cls-1" d="M314.06,8.17h.14a6.63,6.63,0,0,1,0,13.25h-.14a6.63,6.63,0,0,1,0-13.25Zm0,20.27a16.33,16.33,0,0,0,5.7-1,14,14,0,0,0,4.59-2.79,13,13,0,0,0,3-4.31,13.81,13.81,0,0,0,1.11-5.56,13.63,13.63,0,0,0-1.11-5.56,12.9,12.9,0,0,0-3-4.3,13.46,13.46,0,0,0-4.59-2.79,16.88,16.88,0,0,0-11.39,0,13.46,13.46,0,0,0-4.59,2.79,12.89,12.89,0,0,0-3,4.3,13.81,13.81,0,0,0-1.11,5.56,13.76,13.76,0,0,0,1.11,5.56,13.07,13.07,0,0,0,3,4.31,13.78,13.78,0,0,0,4.59,2.79A16.23,16.23,0,0,0,314.06,28.44Z"/><path class="cls-1" d="M217.34,75.27a14.15,14.15,0,0,1-1.68.89,15.26,15.26,0,0,1-11.72,0,13,13,0,0,1-1.65-.87,14.91,14.91,0,0,1,0-25.77,13.62,13.62,0,0,1,1.65-.87,15.38,15.38,0,0,1,11.72,0,14.95,14.95,0,0,1,1.68,26.62Zm14.25-33.73a29,29,0,0,0-9.71-5.9,36,36,0,0,0-24.18,0,29.1,29.1,0,0,0-9.7,5.9,27.43,27.43,0,0,0-6.44,9.11,29,29,0,0,0-2.34,11.76,29,29,0,0,0,2.34,11.75A27.47,27.47,0,0,0,188,83.28a29.18,29.18,0,0,0,9.7,5.89,35.85,35.85,0,0,0,24.18,0,29,29,0,0,0,9.71-5.89A27.47,27.47,0,0,0,238,74.16a29,29,0,0,0,2.33-11.75A29,29,0,0,0,238,50.65,27.43,27.43,0,0,0,231.59,41.54Z"/><path class="cls-1" d="M356.54,40.25h-.16a3,3,0,0,1,0-6.08h.16a3,3,0,0,1,0,6.07Zm0-6.67h-.18a3.64,3.64,0,1,0,0,7.27h.18a3.64,3.64,0,0,0,0-7.27Z"/><path class="cls-1" d="M355.77,37.11V35.67h1.06a.74.74,0,0,1,.75.74.73.73,0,0,1-.75.7Zm2.47-.7a1.35,1.35,0,0,0-1.41-1.27h-1.7v4.17h.64V37.66h.66l1.08,1.65h.78l-1.12-1.67a1.22,1.22,0,0,0,1.07-1.23Z"/></svg>