<?xml version="1.0" encoding="UTF-8"?><svg id="a" xmlns="http://www.w3.org/2000/svg" viewBox="0 0 76.59 76.25"><defs><style>.b{fill:#BB8760;}</style></defs><path class="b" d="M35.72,21.23s-1.75,1.65-1.78,6.48h0v5.05h-6.34v7.14h6.34v18.45h7.31v-18.45h6.29l.88-7.14h-7.17v-5.05h0c.02-.56,.27-3.05,3.21-3h4.28v-6.73h-6.41s-4.03-.1-6.6,3.24Z"/><g><path class="b" d="M64.7,61.85c-1.05,.31-1.63,1.48-2.13,2.38-.45,.82-1.32,1.78-1.32,2.74,0,.31,.32,.56,.62,.47,.93-.26,1.62-1.35,2.29-2,.74-.72,1.73-1.6,1.75-2.68,0-.61-.62-1.09-1.22-.92Z"/><path class="b" d="M75.91,40.84C80.45,22.5,61.5,3.95,44.26,.69c-9.48-1.79-19.34-.09-27.42,5.18C9.9,10.38,2.79,18.42,1.92,26.91c-.02,.19,.04,.34,.12,.47-5.47,14.03,.49,31.67,12.48,40.58,11.89,8.83,31.44,11.92,44.09,2.7,1.07-.78,.18-2.33-1.04-1.76-.46,.21-.92,.42-1.37,.63-.23-.4-.71-.66-1.31-.37-8.42,3.99-20.11,1.97-28.43-.99-.94-.33-1.58,1.16-.68,1.6,4.43,2.15,9.25,3.41,14.19,3.67,2.06,.11,4.13,.03,6.19-.18-3.14,.79-6.38,1.15-9.87,.84-7.09-.64-13.35-3.28-19.21-7.2-6.87-4.59-11.56-10.18-13.78-18.18-1.93-6.93-2.03-14.23,.1-21.09,.09-.07,.18-.15,.23-.26,.37-.7,.73-1.39,1.09-2.07-2.11,5.43-2.73,11.45-1.78,17.19,1.79,10.89,7.93,18.08,16.96,23.99,1.08,.71,2.17-1.11,1.02-1.72-8.02-4.25-14.38-13.92-15.73-22.76-1.49-9.76,2.06-18.92,7.87-26.69,.5-.66-.55-1.39-1.12-.86-.95,.89-1.83,1.85-2.65,2.86,1.33-2,2.82-3.88,4.61-5.63-.41,.69,.25,1.73,1.07,1.2,2.11-1.35,4.15-2.79,6.34-4.03,1.56-.88,3.22-1.58,4.82-2.39,.26,.08,.56,.1,.91,.01,11.62-2.95,23.19-1.68,32.24,6.81,.35,.33,.78,.18,1-.12-.08,.42,.15,.92,.71,.92,.98,0,.98-1.51,0-1.51-.28,0-.47,.12-.59,.3,.02-.17-.03-.35-.18-.52-3.02-3.19-6.83-5.85-11.02-7.71,12.24,4.48,22.42,15.44,23.89,28.09-.91-4.04-2.6-7.95-5.07-11.48-.63-.89-2.02-.12-1.49,.86,3.29,6.02,4.84,12.6,5.06,19.42,.23,7.12-2.54,13.2-6.33,19.07-.39,.6,.51,1.33,1,.83,.23,.12,.51,.12,.75-.1,5.47-5.1,9.47-12.74,8.93-20.39,0-.04-.02-.08-.03-.12Z"/><path class="b" d="M22.78,67.39c-.24,.56,.08,1.12,.64,1.31,.41,.14,.78,.28,1.21,.34,.74,.09,1.02-.92,.57-1.37-.29-.3-.68-.51-1.03-.74-.49-.33-1.18-.04-1.4,.47Z"/></g></svg>