<svg id="SvgjsSvg1229" width="288" height="288" xmlns="http://www.w3.org/2000/svg" version="1.1" xmlns:xlink="http://www.w3.org/1999/xlink" xmlns:svgjs="http://svgjs.com/svgjs"><defs id="SvgjsDefs1230"></defs><g id="SvgjsG1231"><svg xmlns="http://www.w3.org/2000/svg" enable-background="new 0 0 250 250" viewBox="0 0 250 250" width="288" height="288"><switch><g fill="#000000" class="color000 svgShape"><path fill="#bb8760" d="M120.2,122.8c-0.1-9.6-1.5-19.2-4.2-28.5c2.2,8.2,3.3,16.7,3.5,25.2c0.7,37.3-17,68.4-39.6,69.6			c-22.6,1.2-41.5-28.1-42.2-65.4c-0.7-37.3,17-68.4,39.6-69.6c1.3-0.1,2.6,0,4,0.1c-1.8-0.3-3.6-0.4-5.5-0.3
			C52,55.2,33.3,88,34.1,127.2c0.5,25.8,9.3,48,22,59.8c-17.1-7.3-30-32.6-30.6-63.3c-0.7-37.3,17-68.4,39.6-69.6
			c1.3-0.1,2.6,0,4,0.1c-1.8-0.3-3.6-0.4-5.5-0.3c-23.7,1.2-42.4,34-41.7,73.2s19.8,68.9,44.4,68.9c1.9,0,8.3,0.1,10.3,0
			c0.6,0,1.3,0,1.9,0C102.3,194.8,121,162,120.2,122.8" class="coloradafb2 svgShape"></path><path fill="#bb8760" d="M0,117c1.2-17,34-30.3,73.3-29.8c9.6,0.1,19.1,1.1,28.5,3c-8.3-1.6-16.8-2.4-25.2-2.5
			C39.3,87.3,8.1,99.9,6.9,116s28.1,29.6,65.4,30.1s68.4-12.2,69.6-28.3c0.1-0.9,0-1.9-0.1-2.8c0.3,1.3,0.4,2.6,0.3,3.9
			c-1.2,17-34,30.3-73.3,29.8c-27.2-0.4-50.3-7.3-61.6-17.1c3.6,14.2,31,25.5,65.1,26c37.3,0.5,68.4-12.2,69.6-28.3
			c0.1-0.9,0-1.9-0.1-2.8c0.3,1.3,0.4,2.6,0.3,3.9c-1.2,17-34,30.3-73.3,29.8C29.6,159.6,0,145.9,0,128.4v-9.7
			C0,118.2,0,117.6,0,117" class="coloradafb2 svgShape"></path><path fill="#231f20" d="M58.1 68.8c0-1.4-.1-2.8-.2-4.3l3 .1c1 0 2 0 3 0 1 0 2 0 3 0 1 0 2.1-.1 3.3-.1-.1.3-.1.7-.1 1 0 .3 0 .7.1 1-.6-.1-1.3-.1-2.2-.2l-2.6-.1c-.9 0-1.7 0-2.5-.1-.8 0-1.5 0-2 0 0 .8 0 1.5 0 2.2v6.3c1.5 0 2.9 0 4.3-.1 1.4-.1 2.8-.1 4.3-.3-.2.7-.2 1.3 0 2-.5-.1-1.2-.1-1.9-.2-.7 0-1.4 0-2.2-.1-.8 0-1.5 0-2.3 0h-2.2v2.8c0 1.5 0 2.9.1 4.3 0 1.4.1 2.8.2 4.2-.5 0-1-.1-1.6-.1-.5 0-1.1 0-1.6.1.1-1.4.1-2.8.2-4.2s.1-2.9.1-4.3V73C58.1 71.6 58.1 70.1 58.1 68.8M76.3 68.8c0-1.4-.1-2.8-.2-4.3.3 0 .6.1.8.1.5.1 1.1.1 1.6 0 .3 0 .5-.1.8-.1-.1 1.5-.1 2.9-.2 4.3s-.1 2.8-.1 4.3v5.7c0 1.5 0 2.9.1 4.3s.1 2.8.2 4.2c-.5 0-1-.1-1.6-.1-.5 0-1.1 0-1.6.1.1-1.4.1-2.8.2-4.2s.1-2.9.1-4.3V73C76.4 71.6 76.4 70.1 76.3 68.8M97.9 78.6c-2.9-3.1-5.8-6.2-8.6-9.2 0 .6 0 1.5-.1 2.5 0 1 0 2.5 0 4.3v1.8c0 .7 0 1.4 0 2.2 0 .8 0 1.5 0 2.3 0 .8 0 1.5.1 2.2s0 1.3.1 1.8 0 .8.1 1c-.4 0-.8-.1-1.2-.1-.4 0-.8 0-1.3.1 0-.2.1-.6.2-1.3.1-.6.1-1.3.2-2.1.1-.8.1-1.8.2-2.7.1-1 .1-2 .1-2.9s0-1.9.1-2.9c0-1 0-1.8 0-2.5v-5.5c0-1.5 0-2.7-.1-3.4h.5c1.3 1.5 2.8 3 4.3 4.7l4.6 5c1.5 1.6 3 3.2 4.3 4.6 1.4 1.5 2.5 2.7 3.6 3.7v-4.5c0-2.3 0-4.6 0-6.8 0-2.2-.1-4.3-.2-6.3.4.1.7.2 1.1.2.4 0 .7-.1 1-.2 0 .5-.1 1.2-.2 2.2s-.1 2-.2 3.1c0 1.1-.1 2.2-.2 3.3 0 1-.1 1.9-.1 2.5V80c0 .8 0 1.7 0 2.5 0 .8 0 1.6 0 2.3v3h-.5C103.5 84.8 100.8 81.8 97.9 78.6M132.6 87.3c-.3 0-.6-.1-.9-.1H130c-.3 0-.6 0-.9.1-.2-.5-.4-1.1-.6-1.8s-.5-1.5-.9-2.3l-1-2.4c-.3-.8-.6-1.6-.9-2.3-.7 0-1.4 0-2.2 0h-4.3c-.7 0-1.3 0-2 0-.7 1.8-1.3 3.4-1.9 4.9-.6 1.5-1 2.8-1.3 3.9-.4 0-.8-.1-1.2-.1-.4 0-.8 0-1.3.1 1.8-3.9 3.5-7.8 5.3-11.6 1.7-3.8 3.4-7.7 5.2-11.7h.6c.5 1.3 1.1 2.7 1.7 4.2s1.3 3 1.9 4.5 1.3 3 1.9 4.5c.6 1.5 1.3 2.9 1.8 4.2.5 1.3 1.1 2.5 1.5 3.5S132.3 86.8 132.6 87.3M117.9 76.9c.6 0 1.2 0 1.8 0 .6 0 1.2 0 1.8 0h1.9c.6 0 1.3 0 1.9 0l-3.7-8.5L117.9 76.9zM148.7 78.6c-2.9-3.1-5.8-6.2-8.6-9.2 0 .6 0 1.5-.1 2.5 0 1 0 2.5 0 4.3v1.8c0 .7 0 1.4 0 2.2 0 .8 0 1.5 0 2.3 0 .8 0 1.5.1 2.2s0 1.3.1 1.8c0 .5 0 .8.1 1-.4 0-.8-.1-1.2-.1-.4 0-.8 0-1.3.1 0-.2.1-.6.2-1.3.1-.6.1-1.3.2-2.1 0-.8.1-1.8.2-2.7s.1-2 .1-2.9 0-1.9.1-2.9 0-1.8 0-2.5v-5.5c0-1.5 0-2.7-.1-3.4h.5c1.3 1.5 2.8 3 4.3 4.7l4.6 5c1.5 1.6 3 3.2 4.3 4.6 1.4 1.5 2.5 2.7 3.6 3.7v-4.5c0-2.3 0-4.6 0-6.8s-.1-4.3-.2-6.3c.7.2 1.5.2 2.2 0 0 .5-.1 1.2-.2 2.2s-.1 2-.2 3.1c0 1.1-.1 2.2-.2 3.3 0 1-.1 1.9-.1 2.5V80c0 .8 0 1.7 0 2.5 0 .8 0 1.6 0 2.3s0 1.3 0 1.9v1.1h-.5C154.3 84.8 151.5 81.8 148.7 78.6M181.8 86.5c-.5.2-1 .4-1.5.6-.6.2-1.3.3-2 .5-.8.1-1.6.2-2.4.2-1.6 0-3.3-.2-4.8-.8-1.4-.5-2.7-1.2-3.8-2.3-1.1-1.1-2-2.3-2.5-3.8-.6-1.6-1-3.3-.9-5 0-1.7.3-3.4.9-5 .6-1.4 1.4-2.7 2.5-3.8 1.1-1 2.5-1.8 4-2.3 1.6-.5 3.3-.8 5-.8 1.3 0 2.7.1 4 .5 1.1.3 2.2.6 3.2 1.1-.2.4-.3.8-.4 1.3-.1.4-.2.9-.3 1.3l-.2.1c-.3-.3-.6-.6-.9-.9-.4-.4-.9-.7-1.4-1-.6-.3-1.2-.6-1.8-.8-.7-.2-1.5-.3-2.2-.3-1.2 0-2.5.2-3.6.6-1.1.4-2.1 1.1-2.9 2-.9 1-1.6 2.1-2 3.3-.5 1.5-.7 3.1-.7 4.8 0 1.6.2 3.2.7 4.8.4 1.2 1.1 2.4 2 3.3.8.9 1.8 1.5 2.9 2 1.2.4 2.4.6 3.6.6.7 0 1.5-.1 2.2-.3.6-.2 1.3-.4 1.9-.7.5-.3 1.1-.6 1.5-.9.5-.3.8-.6 1.2-.8l.1.1-.3 2C182.6 86.1 182.2 86.3 181.8 86.5M189.3 68.7c0-1.4-.1-2.8-.2-4.3l3 .1c1 0 2 0 3 0 1 0 2 0 3 0l3-.1c-.1.3-.1.7-.1 1 0 .3 0 .7.1 1-.7 0-1.4-.1-2-.1l-1.9-.1-2.1-.1c-.8 0-1.7 0-2.8 0 0 .7 0 1.4-.1 2 0 .7 0 1.4 0 2.2v4.4c1 0 1.8 0 2.6 0 .8 0 1.5 0 2.1-.1.6 0 1.3-.1 1.8-.1l1.5-.1c-.1.3-.1.7-.1 1 0 .3 0 .7.1 1-.6-.1-1.3-.1-2-.2-.8 0-1.5-.1-2.3-.1s-1.5 0-2.2 0h-1.6v8c0 .8 0 1.5 0 1.9h2.3c.8 0 1.7 0 2.5 0l2.3-.1c.6 0 1.3-.1 1.9-.3 0 .2-.1.3-.1.5v.5c0 .3 0 .6.1.9-1 0-2-.1-3-.1h-6c-1 0-2 0-3 .1.1-1.4.1-2.8.2-4.3 0-1.4.1-2.8.1-4.3V73C189.4 71.6 189.4 70.1 189.3 68.7M65.6 104c1.7 3.2 3.4 6.4 5.3 9.8.3-.5.6-1.1 1-2 .5-.9 1-1.8 1.5-2.9s1.2-2.3 1.9-3.5c.7-1.3 1.4-2.5 2-3.9.7-1.3 1.4-2.6 2.1-3.8.7-1.3 1.3-2.4 1.9-3.5h.5c.3 2.3.5 4.5.7 6.6.2 2.1.5 4.2.7 6.3s.5 4.1.7 6.1c.3 2 .5 4 .8 6-.3 0-.6-.1-.8-.1h-1.7c-.3 0-.6 0-.8.1-.3-3.2-.5-6.2-.8-9.2-.3-3-.6-6-1-9.1h-.1c-1.6 3-3.3 6-4.8 8.9-1.6 3-3.1 6-4.5 9.3h-.3c-1.4-3-2.9-6-4.5-9-1.5-3-3.1-6-4.7-9.2h-.1c-.2 1.5-.3 3-.5 4.8-.2 1.8-.4 3.4-.5 5.1s-.3 3.3-.4 4.7c-.1 1.5-.2 2.7-.2 3.6-.8-.1-1.7-.1-2.5 0 .3-1.9.6-4 1-6.1.3-2.1.7-4.3 1-6.4s.6-4.3.8-6.4.5-4.1.7-6h.6C62.3 97.6 63.9 100.9 65.6 104M90 101.6c.6-1.5 1.5-2.9 2.8-4 1.2-1.1 2.7-2 4.2-2.5 1.7-.6 3.6-.9 5.4-.8 1.8 0 3.7.3 5.4.8 1.6.5 3 1.4 4.2 2.5 1.2 1.1 2.1 2.5 2.8 4 .7 1.7 1 3.5 1 5.4 0 1.8-.3 3.7-1 5.4-1.2 3.1-3.8 5.4-7 6.4-3.5 1.1-7.3 1.1-10.8 0-3.2-1-5.7-3.3-7-6.4-.7-1.7-1-3.5-1-5.4C89 105.1 89.3 103.3 90 101.6M111.4 101.9c-.4-1.3-1.1-2.5-2.1-3.5-.9-.9-1.9-1.7-3.1-2.1-2.5-.9-5.2-.9-7.8 0-1.2.4-2.3 1.1-3.1 2.1-.9 1-1.6 2.2-2.1 3.5-.5 1.6-.8 3.4-.8 5.1 0 1.7.2 3.4.8 5.1.4 1.3 1.1 2.5 2.1 3.5.9.9 1.9 1.6 3.1 2.1 1.2.5 2.6.7 3.9.7 1.3 0 2.6-.2 3.9-.7 1.2-.4 2.3-1.1 3.1-2.1.9-1 1.6-2.2 2.1-3.5.5-1.6.8-3.4.8-5.1C112.2 105.2 111.9 103.5 111.4 101.9M132.9 109.9l-9.3-9.9c0 .7 0 1.5-.1 2.7 0 1.1 0 2.6 0 4.5v1.8c0 .8 0 1.5 0 2.3 0 .8 0 1.6 0 2.5 0 .8 0 1.6.1 2.3 0 .7 0 1.3.1 1.9 0 .5 0 .9.1 1.1-.4-.1-.8-.1-1.3-.1-.5 0-.9 0-1.3.1 0-.3.1-.7.2-1.3.1-.7.1-1.4.2-2.3 0-.9.1-1.8.2-2.9.1-1.1.1-2.1.1-3.1 0-1 .1-2 .1-3 0-1 0-1.9 0-2.7v-5.9c0-1.6 0-2.9-.1-3.7h.6c1.5 1.6 3 3.3 4.6 5l4.9 5.3c1.6 1.8 3.2 3.4 4.6 5 1.5 1.6 2.8 2.9 3.8 4v-4.8c0-2.5 0-4.9 0-7.3 0-2.3-.1-4.6-.3-6.7.4.1.8.2 1.2.2.4 0 .8-.1 1.1-.2 0 .5-.1 1.3-.2 2.3-.1 1-.1 2.2-.2 3.3s-.1 2.3-.2 3.5c0 1.2-.1 2-.1 2.8v4.7c0 .9 0 1.8 0 2.6 0 .9 0 1.7 0 2.5v3.2h-.5C138.9 116.4 136 113.2 132.9 109.9M155.1 96.5h-1.9c-.7 0-1.3 0-2 .1l-2 .1c-.6 0-1.2.1-1.7.2.1-.4.2-.7.2-1.1 0-.4-.1-.7-.2-1.1l4.6.1c1.5 0 3 0 4.6 0s3.1 0 4.6 0l4.6-.1c-.1.4-.2.7-.2 1.1 0 .4.1.7.2 1.1-.6-.1-1.1-.1-1.7-.2l-2-.1c-.7 0-1.4 0-2-.1h-1.9c-.1 2.5-.1 4.9-.1 7.4v6.1c0 1.5 0 3.1.1 4.6s.1 3 .2 4.5c-.5 0-1.1-.1-1.8-.1s-1.2 0-1.8.1c.1-1.5.1-3 .2-4.5s.1-3 .1-4.6v-6.1C155.2 101.4 155.2 99 155.1 96.5M170.9 99.3c0-1.5-.1-3-.2-4.6l2 .1c.7 0 1.3 0 2 0 .7 0 1.4 0 2-.1.7 0 1.3-.1 2-.1 1 0 1.9.1 2.8.3.8.2 1.7.5 2.4 1 .7.4 1.2 1 1.6 1.7.4.8.6 1.7.6 2.7 0 1-.2 2-.8 2.9-.5.8-1.1 1.5-1.9 2-.7.5-1.5 1-2.4 1.3-.7.3-1.5.5-2.3.6.3.4.7.8 1.2 1.5.5.7 1 1.3 1.7 2.1.6.8 1.3 1.6 1.9 2.4.7.8 1.3 1.7 1.9 2.4s1.2 1.5 1.8 2.1c.5.7 1 1.1 1.3 1.5-.4 0-.7-.1-1.1-.1h-2.1c-.3 0-.7 0-1 .1-.4-.5-.9-1.3-1.6-2.3s-1.5-2-2.4-3.2c-.9-1.2-1.8-2.3-2.7-3.4-.9-1.2-1.8-2.1-2.5-2.9h-1.3v2.6c0 1.6 0 3.1.1 4.6s.1 3 .2 4.5c-.5 0-1.1-.1-1.8-.1-.6 0-1.2 0-1.8.1.1-1.5.1-3 .2-4.5.1-1.5.1-3 .1-4.6v-6.1C171 102.3 171 100.8 170.9 99.3M175 106.1c.4 0 .9.1 1.3 0 .8 0 1.5-.1 2.3-.3.8-.2 1.5-.5 2.2-.9.7-.4 1.2-1 1.7-1.7.5-.8.7-1.7.7-2.7 0-.8-.1-1.6-.5-2.3-.3-.6-.8-1.1-1.3-1.4-.5-.4-1.2-.6-1.8-.8-.6-.1-1.2-.2-1.9-.2-.8 0-1.5 0-2.1 0-.6 0-1 .1-1.4.1L174 100c0 1.3-.1 2.5-.1 3.8v2C174.3 106 174.6 106 175 106.1M193.6 99.2c0-1.5-.1-3-.2-4.5l3.2.1c1 0 2.1 0 3.2 0s2.1 0 3.2 0l3.2-.1c-.2.7-.2 1.5 0 2.2l-2.1-.1-2-.1-2.3-.1c-.8 0-1.8 0-3 0 0 .8 0 1.5-.1 2.2 0 .7 0 1.5 0 2.3v4.7c1 0 2 0 2.8 0 .8 0 1.6 0 2.3-.1l1.9-.1 1.7-.1c-.2.7-.2 1.5 0 2.2-.6-.1-1.3-.1-2.2-.2-.8 0-1.6-.1-2.5-.1s-1.6 0-2.3 0h-1.7v8.5c0 .9 0 1.5 0 2h2.5c.9 0 1.8 0 2.7 0l2.5-.1c.7 0 1.3-.1 2-.3-.1.2-.1.4-.1.5v.5c0 .3 0 .6.1.9-1.1 0-2.1-.1-3.2-.1h-6.5c-1.1 0-2.2 0-3.3.1.1-1.5.1-3 .2-4.5s.1-3 .1-4.6v-6.3C193.8 102.3 193.7 100.7 193.6 99.2M204.1 86.9c.3 0 .5.1.8.3.3.2.4.5.4.8 0 .4-.1.7-.4 1-.3.3-.6.5-.8.7l-5.2 3.3h-1.5l5.2-5.3C203 87.2 203.5 86.9 204.1 86.9M232.2 119.1c-.3 0-.6-.1-1-.1h-1.9c-.3 0-.6 0-1 .1-.2-.5-.4-1.2-.7-2-.3-.8-.6-1.6-1-2.4-.4-.8-.7-1.7-1-2.5s-.7-1.7-1-2.5c-.8 0-1.5 0-2.3 0h-4.5c-.7 0-1.4 0-2.2 0-.8 1.8-1.5 3.6-2 5.3s-1.1 3-1.4 4.1c-.4-.1-.9-.1-1.3-.1-.5 0-.9 0-1.3.1 1.9-4.1 3.8-8.3 5.6-12.4 1.8-4.1 3.7-8.3 5.5-12.5h.7c.6 1.4 1.2 2.9 1.8 4.5s1.3 3.2 2 4.8 1.4 3.3 2.1 4.9c.7 1.6 1.3 3.1 1.9 4.5.6 1.4 1.2 2.6 1.6 3.7C231.4 117.7 231.9 118.5 232.2 119.1M216.4 108c.6 0 1.3 0 1.9 0 .7 0 1.3 0 1.9 0h2c.7 0 1.3 0 2 0l-4-9L216.4 108zM237.2 99.3c0-1.5-.1-3-.2-4.6.3 0 .6.1.9.1.3 0 .6 0 .8 0 .3 0 .6 0 .8 0l.9-.1c-.1 1.6-.1 3.1-.2 4.6-.1 1.5-.1 3-.1 4.6 0 3 0 5.6 0 7.8 0 2.2 0 4.2.1 5.9 1.7 0 3.3 0 4.8 0 1.7 0 3.3-.2 5-.4-.1.4-.2.7-.2 1.1 0 .3.1.6.2 1-1.1 0-2.2-.1-3.3-.1h-6.6c-1 0-2.2 0-3.3.1.1-1.5.1-3 .2-4.5s.1-3 .1-4.6v-6.1C237.2 102.3 237.2 100.8 237.2 99.3" class="color231f20 svgShape"></path></g></switch></svg></g></svg>