<?xml version="1.0" encoding="utf-8"?>
<!-- Generator: Adobe Illustrator 26.1.0, SVG Export Plug-In . SVG Version: 6.00 Build 0)  -->
<svg version="1.1" id="Layer_1" xmlns="http://www.w3.org/2000/svg" xmlns:xlink="http://www.w3.org/1999/xlink" x="0px" y="0px"
	 viewBox="0 0 453.1 345.9" style="enable-background:new 0 0 453.1 345.9;" xml:space="preserve">
<style type="text/css">
	.st0{fill:#BA8760;}
	.st1{font-family:'AbrilDisplay-Black';}
	.st2{font-size:141.2148px;}
	.st3{font-size:36px;}
</style>
<g>
	<g>
		<g>
			<path class="st0" d="M311.9,286.2c3.7-2,5.8-4.5,5.8-6.8c0-2.3-2.5-3.3-3-3.5c-4.5-1.7-13.3-0.1-23,10.3c0,0-0.1,0.1-0.1,0.1
				c1.6,4,4.4,9,9.2,12C300.3,290.7,311.3,286.5,311.9,286.2z"/>
			<path class="st0" d="M315.6,273.1c-0.6-3.6-2.2-7.2-2.4-7.9c-1.8,0.3-18,2.3-30.3,14.2c11.1-14,26.4-18.6,28-19.1
				c-0.3-0.6-0.6-1.2-0.9-1.7c-1.8,0.3-18.4,2.6-30.2,14.1c9.7-13.1,26.1-18.5,27.4-18.9c-0.4-0.6-0.7-1.1-1-1.6
				c-1.5,0.3-17.7,2.6-29.4,14c9.9-13,25.4-18.2,26.4-18.5c-0.4-0.6-0.8-1.1-1-1.4c-2.5,0-12.6,1.1-29,13.9
				c-18.7,14.6-42.6,16-46.4,16.1c-3.9-0.1-27.7-1.4-46.4-16.1c-16.4-12.8-26.6-13.9-29-13.9c-0.3,0.3-0.6,0.8-1,1.4
				c1,0.4,16.5,5.5,26.4,18.5c-11.7-11.3-27.9-13.7-29.4-14c-0.3,0.5-0.7,1.1-1,1.6c1.3,0.5,17.7,5.9,27.4,18.9
				c-11.8-11.5-28.5-13.8-30.2-14.1c-0.3,0.6-0.6,1.2-0.9,1.7c1.5,0.5,16.8,5.1,27.9,19.1c-12.3-11.9-28.5-13.9-30.2-14.2
				c-0.3,0.7-1.9,4.3-2.4,7.9c5.3-1.9,14.9-0.3,25.2,10.1c0.3,0.3,23.7,24.1,63.8,24.1c40.2-0.1,63.5-23.8,63.9-24.1
				C300.7,272.8,310.3,271.2,315.6,273.1z"/>
			<path class="st0" d="M377.7,269.6c-5.6,2.1-12.9,4.8-19-0.3c20.2-2.3,18.3-12,18-13.9c-0.2,0.2-7.2,8.1-30.8,2.8
				c-13.7-3.1-24.2,3-29.4,7c0.3,0.7,0.6,1.7,1,2.9c16-11.3,28.6-6.9,33.5-4.9c-5-1.6-17.4-5.4-32.7,7.4c0.3,1.1,0.7,2.1,1,3.2
				c15.4-12.4,27.9-8.9,32.9-7.3c-5.1-1.3-18-3.9-32.2,9.9c0.4,1.3,0.6,3.1,0.6,3.2c16.1-14.4,29.1-10.5,34.1-9
				c-5.2-1.2-17-3-29,7.8c-3.9,3.5-7.2,7.4-11.5,11.2c-1,0.9-2.1,1.7-3.4,2.3c1.8-0.1,3.7-0.9,5.5-2.1c4.1-2.8,8.2-6.5,12.6-9.5
				c14-9.7,25.8-6.2,30.7-4.4c-5.1-1.4-16.7-3.9-29.4,6.2c-4.1,3.3-7.6,7-12.1,10.5c-2.2,1.7-7.1,5.2-13.3,2c-2,3-0.9,5.1-0.8,5.2
				c2.4,0.9,5,1.3,8.2,1.1c7.9-0.6,11.9-5.1,16.1-9.9c6.1-6.9,12.9-14.8,32.4-10.4c13.2,2.9,18.2-1.8,22.9-6.5
				c3.6-3.5,6.9-6.1,11.5-6c-0.1,0-0.1-0.1-0.1-0.1C392.4,266.5,389,265.3,377.7,269.6z"/>
			<path class="st0" d="M138.5,276c-0.5,0.2-3,1.2-3,3.5c0,2.3,2.1,4.7,5.9,6.8c0.5,0.3,11.5,4.5,11.1,12.1c4.8-3,7.6-7.9,9.2-12
				c0,0-0.1-0.1-0.1-0.1C151.7,275.9,143,274.3,138.5,276z"/>
			<path class="st0" d="M134.8,292.8c-4.4-3.5-7.9-7.3-12.1-10.5c-12.8-10.1-24.3-7.7-29.4-6.2c5-1.8,16.7-5.3,30.7,4.4
				c4.4,3.1,8.5,6.8,12.6,9.5c1.8,1.2,3.7,2,5.5,2.1c-1.3-0.7-2.4-1.5-3.4-2.3c-4.2-3.8-7.6-7.6-11.5-11.2c-12-10.8-23.8-9-29-7.8
				c5.1-1.5,18-5.4,34.1,9c0-0.1,0.2-1.9,0.6-3.2c-14.1-13.8-27-11.2-32.2-9.9c5-1.6,17.6-5.2,32.9,7.3c0.3-1,0.7-2.1,1-3.2
				c-15.4-12.8-27.7-9-32.7-7.4c4.9-2,17.6-6.4,33.5,4.9c0.4-1.1,0.7-2.1,1-2.9c-5.2-4-15.7-10-29.4-7c-23.6,5.3-30.5-2.6-30.8-2.8
				c-0.3,1.9-2.2,11.6,18,13.9c-6.1,5-13.4,2.4-19,0.3c-11.3-4.3-14.7-3.1-17.5-1.5c0,0-0.1,0-0.1,0.1c4.6,0,7.9,2.5,11.5,6
				c4.8,4.6,9.7,9.4,22.9,6.5c19.5-4.3,26.3,3.5,32.4,10.4c4.2,4.8,8.2,9.3,16.1,9.9c3.2,0.2,5.8-0.3,8.2-1.1c0-0.1,1.2-2.2-0.8-5.2
				C142,297.9,137,294.4,134.8,292.8z"/>
			<path class="st0" d="M448.1,79.3c-12.2-8.9-21.9,0.5-22.1,1.8c-19.3,2.5-24.1,12.4-25.3,17.2c-2.2,9,2.7,19,11.3,23.3
				c8.2,4.1,11.2,14,10.5,21.9c-0.6,7-4.2,15.5-12.8,18.2c-9.3,2.9-16.4,1.5-21-0.4c-2.1-9.2-19.8-21.8-19.8-21.8
				c6.7-0.7,14.9-4.1,17.2-5.3c-12.8,1.4-18.4-5.3-18.5-5.4c6.8,0.9,11.8-2.1,13-2.8c-8.8-3.2-11-11.9-11.4-14.2
				c2.2,2.2,8.1,6.3,12.6,7c-3-3.9-4-13.1-3.7-17.3c1.4,0.9,5.4,3.1,9.4,3.3c-4.5-3.5-4.9-9.9-4.3-14c1.2-8.9-0.7-14.6-3.2-18.2
				c7.2-6,5.8-19.1,5.7-20.5c-3.7,8.6-21.2,2.3-21.2,2.3c-3.9-1.3-7.6-0.9-10.6,0.1c0.6-3.6,0.6-8.3,0.6-8.3s-14.8,1.4-18.9,11.9
				l-9.9,1.2l-3,8.2c-8.1-0.6-13.1,0.7-15,3.9c-1.8,3-0.2,6.6,0.6,8c-0.7,2.8,0.3,7.8,3.6,10c0.7-0.6,1.4-1.1,2.1-1.6
				c0.4,0.9,1.2,1.8,2.5,2.9c0,0-0.7-2.6,0.2-4.8c0.2-0.2,0.5-0.3,0.7-0.4c0.3,1,1.1,2.4,2.9,4c0,0-1-3.6,0.9-5.9
				c0.2-0.1,0.3-0.1,0.5-0.2c0.1,1,0.6,2.8,3.1,4.9c0,0-0.9-3.2,0.6-5.5c2.7,0.1,3.9,1.6,4,2c1.3,7.1-15.2,6.2-15.2,6.2
				s-1.9,10.6,2.3,15.5c1.6-7.4,12.1-9.3,16.8-8c-1.6,1.5-3.7,2.6-6.4,3.3c-5.8,1.3-8.1,5.3-9.2,10.2c-6.4-1.8-15.1-6.3-20.3-17.6
				c1.1-7.8,2.5-13.3,2.6-13.4l0.6-2l-2-0.7C274,69.7,269,54.8,268.9,54.6l-0.5-1.6h-41.9h-41.9l-0.5,1.6
				c-0.1,0.1-5.1,15.1-29.5,23.7l-2,0.7c0,0,2.1,8.2,3.1,15.6c-5.2,11.2-13.9,15.7-20.3,17.4c-1.1-4.9-3.4-9-9.2-10.2
				c-2.8-0.6-4.9-1.7-6.4-3.3c4.7-1.3,15.2,0.6,16.8,8c4.2-4.8,2.3-15.5,2.3-15.5s-16.6,0.8-15.2-6.2c0.1-0.4,1.2-2,4-2
				c1.5,2.3,0.6,5.5,0.6,5.5c2.5-2.1,3-3.9,3.1-4.9c0.2,0.1,0.3,0.1,0.5,0.2c1.9,2.3,0.9,5.9,0.9,5.9c1.9-1.6,2.6-3,2.9-4
				c0.2,0.1,0.5,0.3,0.7,0.4c0.9,2.2,0.2,4.8,0.2,4.8c1.3-1.1,2-2.1,2.5-2.9c0.7,0.5,1.4,1,2.1,1.6c3.3-2.2,4.3-7.2,3.6-10
				c0.8-1.4,2.4-5,0.6-8c-1.9-3.3-6.8-4.6-15-3.9l-3-8.2l-9.9-1.2c-4.2-10.4-18.9-11.9-18.9-11.9s0,4.6,0.6,8.3
				c-3.1-1-6.7-1.4-10.6-0.1c0,0-17.6,6.3-21.2-2.3c-0.2,1.3-1.5,14.5,5.7,20.5c-2.5,3.6-4.4,9.3-3.2,18.2c0.6,4.1,0.1,10.4-4.3,14
				c4-0.2,8.1-2.4,9.4-3.3c0.3,4.2-0.7,13.4-3.7,17.3c4.4-0.7,10.4-4.8,12.6-7c-0.3,2.3-2.5,11-11.4,14.2c1.2,0.7,6.2,3.7,13,2.8
				c-0.1,0.1-5.7,6.8-18.5,5.4c2.4,1.1,10.6,4.6,17.2,5.3c0,0-17.7,12.6-19.8,21.8c-4.6,1.9-11.8,3.3-21,0.4
				c-8.5-2.7-12.2-11.1-12.8-18.2c-0.6-8,2.3-17.9,10.5-21.9c8.6-4.3,13.5-14.3,11.3-23.3c-1.2-4.7-6-14.6-25.3-17.2
				C27,79.8,17.3,70.4,5,79.3c-6,4.3-5,14.5-5,14.5s2.2-2.4,7.2-1.5c2.3,0.4,13.7,2.7,19-5.4c5.4,0.7,16.6,3.7,16.6,16.6
				c0,5.7-3.7,7.8-8.3,10.5c-6.5,3.7-14.1,8.1-13.8,23.4c-0.6-0.7-5.1-7.9-6.2-11.7c-0.3,10.4,3,16.2,4,19c-1-1-5.6-7.2-6.8-9.6
				c0.2,2.8,1.8,24.4,19.9,33c-0.5,0-5.3-0.3-7.5-0.6c1.7,1.4,9.5,10.2,26.3,7.8c-0.9,0.7-3.7,3.4-8.6,5.4c0.7,0,15.2,1.3,24.3-6.1
				c0.9,1.8,1.9,3.7,3.2,5.6c2.9,4,2.8,8.8,0,12.9c-3.2,4.6-12.4,8.6-19.5,2c0.5,1.5,2.3,6.6,5.2,9.1c-2.5-0.1-4.4-1.3-6-2.1
				c0.6,1.3,2.8,6.9,7.4,10.6c-0.8,0-6-0.4-7.8-0.8c1.4,1.4,6.9,7.3,13.7,8.8c-0.9,3.4-1.8,10.9,4.9,18.2c-0.4-2-1.6-7.8,1.2-9.6
				c1.7,2.9,4.7,5.8,10.5,6.9c5.1,1,10,4.9,10.2,10c0.7-0.1,6.4-1.7,6.9-6.7c0.4,0.2,2.9-0.1,5.5,3.6c0.3-0.6,1.1-4.2,0-7.2
				c0.5,0.2,3.2,0.8,5.1,5.7c1.5-13.4-10.3-17.7-14.2-17.3c-10.3,0.7-15.2-3.8-16.4-8.3c-1.1-4.3,0.8-10.2,7.7-13.5
				c5.9-2.8,9.5-7.8,11.8-13.1c16.8,7.2,7.2,23.3-2.3,24.3c1.4,0.6,6.5,2.6,10.3,2.1c-1.7,1.8-3.9,2.5-5.5,3.1
				c1.4,0.4,7,2.4,12.9,1.4c-0.5,0.6-4.2,4.3-5.7,5.4c2-0.2,10.1-0.4,15.7-4.5c2,2.9,7,8.5,16.9,8.3c-1.8-1.1-6.9-3.9-6.5-7.2
				c3.3,0.6,7.5,0.3,12.1-3.3c2.6-2.1,6.1-3.2,9.3-2.9c5,5.9,12,11.1,21.6,14.7c41.3,15.4,52.4,41.7,52.4,41.7s11.6-27.2,52.4-41.7
				c9.7-3.4,16.6-8.8,21.6-14.7c3.2-0.3,6.6,0.8,9.3,2.9c4.6,3.6,8.8,4,12.1,3.3c0.4,3.3-4.7,6.1-6.5,7.2c9.9,0.3,14.9-5.3,16.9-8.3
				c5.6,4.1,13.7,4.4,15.7,4.5c-1.5-1.1-5.2-4.8-5.7-5.4c5.9,1,11.5-1.1,12.9-1.4c-1.6-0.6-3.8-1.3-5.5-3.1
				c3.7,0.5,8.8-1.5,10.3-2.1c-9.6-1-19.1-16.9-2.3-24.3c2.3,5.2,5.9,10.3,11.8,13.1c6.9,3.3,8.9,9.1,7.7,13.5
				c-1.2,4.5-6.1,9-16.4,8.3c-3.9-0.3-15.7,3.9-14.2,17.3c1.9-4.9,4.7-5.5,5.1-5.7c-1.1,3-0.3,6.6,0,7.2c2.6-3.8,5.1-3.4,5.5-3.6
				c0.5,5,6.1,6.5,6.9,6.7c0.2-5.1,5.1-9,10.2-10c5.8-1.1,8.8-4,10.5-6.9c2.7,1.9,1.5,7.6,1.2,9.6c6.7-7.3,5.8-14.8,4.9-18.2
				c6.8-1.5,12.3-7.4,13.7-8.8c-1.8,0.4-7.1,0.8-7.8,0.8c4.6-3.7,6.7-9.3,7.4-10.6c-1.6,0.8-3.5,2-6,2.1c2.8-2.5,4.7-7.7,5.2-9.1
				c-7.1,6.5-16.2,2.5-19.5-2c-2.9-4.1-2.9-8.9,0-12.9c1.3-1.9,2.4-3.7,3.2-5.6c9.1,7.3,23.6,6.1,24.4,6.1c-4.8-2-7.7-4.7-8.5-5.4
				c16.8,2.4,24.6-6.3,26.3-7.8c-2.1,0.3-7,0.6-7.5,0.6c18.1-8.6,19.7-30.1,19.9-33c-1.2,2.4-5.8,8.6-6.8,9.6c1-2.8,4.3-8.6,4-19
				c-1.1,3.8-5.6,11-6.2,11.7c0.2-15.3-7.4-19.7-13.8-23.4c-4.6-2.6-8.3-4.7-8.3-10.5c0-12.8,11.1-15.8,16.6-16.6
				c5.2,8.1,16.7,5.8,19,5.4c5-0.9,7.2,1.5,7.2,1.5S454.1,83.6,448.1,79.3z M21.3,83c0,0-3.7,10.6-12.9,4.9c4.6,1.3,7-0.6,7.6-1.1
				c-7.3,0.7-9.6-3.9-9.6-3.9s10.9-10.7,17.1,0c-5-5.3-11.2-1.5-12.8-0.1C14.5,86.2,21.3,83,21.3,83z M53.5,176.4
				c3.3-2.4,5.2-6.6,5.5-7.2c-0.5,0.3-8.9,5-22.2,1.8c0.5,0,7.1-1,8.6-1.4c-8.5-1.1-15.8-5.7-20-9.8c3.9,1.9,7.3,2,7.3,2
				c-10.4-6.3-15.2-14-15.2-14c1.3,1.2,8.2,5.5,9.3,5.9c-1.2-1.6-5.2-9.6-5.9-11.9c0.1,0.1,0.1,0.1,0.2,0.2c1.4,1.4,2.7,2.3,3.5,2.8
				c-0.2-1.5-0.4-3-0.5-4.3c-1.4-16.3,5.7-20.4,12.1-24c4.8-2.7,9.8-5.6,9.8-13.1c0-5.4-1.7-14.1-13.5-18.2
				c9.4,2.3,15.5,7,17.2,13.8c1.8,7.5-2.4,16.2-9.7,19.8c-8.2,4.1-13.1,14.1-12.2,24.9c0.8,10.2,6.5,18.2,14.9,20.8
				c4.1,1.3,12.3,3.3,21.5,0c-0.1,2.3,0.2,4.6,1,7C62.3,173.3,58.5,175.2,53.5,176.4z M374.5,148.5c-10.8,1.7-18.9,5.3-24.3,8.8
				c6.2-8,14.4-12.6,18-14.4L374.5,148.5z M332,193c2.1,7.4-0.9,12.9-5.1,14.7c-9.8,4.1-17.2-7.1-17.3-7.1c4.8-13.1,4.9-25.3,3-36.1
				c0.3,0.9,0.8,1.8,1.9,2.7c0.7-6.5,5.7-9.2,6.7-9.8c-1,3.1,1.6,6.1,1.6,6.1c-0.2-3.3,2.1-6.6,3.9-8.5c0.2,0.2,0.4,0.4,0.6,0.7
				c0,1.4,0,5.1-3.6,10.1c3.7-1.1,7.1-5.4,7.8-6.1c2.3,2.1,5.1,4.2,8.4,6.3C335.3,171.9,329,182.2,332,193z M331.4,136
				c-2.1-4.9-1-10.3-0.1-13.1c0.7-0.5,1.4-1,2.2-1.4c-0.3,3.5-0.1,7.1,1.2,10.5c3.3,8.5,0.1,21.1-4.3,24.7c1-3.4-3.2-16.2-4.5-18.7
				c-1.5-2.8-2.1-6-2.1-9.1c0.9-0.9,1.9-1.7,2.8-2.5c0,2.6,0.2,6.9,1.9,9.9c2.4,4.4,3.8,10.2,3.4,14.6
				C331.9,151,334.5,143,331.4,136z M339.9,140.5c-0.3-3.1-1.1-6.2-2.4-9.5c-0.6-1.5-0.8-3-1-4.6c0.5,1.4,2.5,9.3,10.1,13.4
				c-6.9-6.6-6.3-15.1-6.4-17.5c4.6,15.5,13.6,20.7,13.6,20.7C347.7,143.2,343.2,142,339.9,140.5z M350.8,145.9c2.6,0.1,4.9,0,7-0.1
				c-5.5,2.2-9.9,4.8-13.2,7.2C346.4,150.3,348.6,148,350.8,145.9z M356.2,141.3c0.9-0.7,1.8-1.3,2.7-1.8c3.2,0.4,5.7,0.3,5.8,0.3
				l3.2,2.8c-2.3,0.5-4.6,1.1-6.6,1.8C359.1,143.4,357.4,142.3,356.2,141.3z M373.6,135.6c-29.8,5.5-31.6-14.4-31.6-19.2
				c1.1-0.7,2.3-1.3,3.4-2c0.1,0.8,1.8,16.2,18.2,19.7c-15.8-9.1-13.2-21.2-13.1-22.7c1.2-0.7,2.4-1.5,3.6-2.2
				C349.8,127.8,373.6,135.6,373.6,135.6z M355,74.7c-1.7-5-4-8.4-6.4-10.8c5,1.8,10.5,4.8,14.1,9.9c4.4,6.2,5.2,14.3,2.4,24.3
				c-1,0.8-2,1.7-3.2,2.5c6.7-15.4-5.1-28.5-5.1-28.5c8,15.7,3.1,27-0.1,31.9c-2.7,1.7-5.4,3.3-8,4.8
				C356.3,98.3,358.5,84.9,355,74.7z M373.7,125.6c-18.8,1.5-16.7-14.5-15.8-18.8c0.5-0.3,0.9-0.6,1.4-0.9c0,1,0,12.6,8.5,17.6
				c-6.9-8.1-4.6-18.8-3.9-20.8c0.2-0.2,0.5-0.4,0.7-0.5C364.7,106.6,365.1,120,373.7,125.6z M367.9,99.7c0.6-0.6,1.3-1.1,1.9-1.7
				c0.1,4.4,1.5,8.6,4.1,11.7c-2.7-4.8-3-10.5-1.1-15.2c0.4-0.5,0.8-1.1,1.1-1.6c-0.6,3.4-1,10.3,1.9,20.3
				C375.5,113,368.2,109.4,367.9,99.7z M380.3,90.4c-0.5,3.4-0.3,6.4,0.4,9c-0.1-0.1-5.7-3.7-5.4-8.2v0c0.4-0.6,0.7-1.2,1-1.8
				c0.5,2.8,1.5,5.5,3.2,7.7c-1.8-3.7-2.2-7.8-1.3-11.6c0.9-2.3,1.4-4.4,1.7-6.3C380.6,82.1,380.9,85.7,380.3,90.4z M353.2,58.1
				c2.8-1.3,6.4-2.1,10.4-0.8c0,0,13.7,4.6,19.4,1.6c0.1,6.1-5.1,11.6-5.2,11.7c-4.3-8.4-15.7-10.3-15.7-10.3
				c16.2,6.2,15.4,17.2,12.2,25c0.2-18.7-17.9-24.1-17.9-24.1c21.2,10.8,12.7,32.9,12.7,32.9c1.5-8.7,0.3-16.2-3.9-22.1
				c-3.5-5-8.6-8.2-13.4-10.2C352.1,61,353.1,58.1,353.2,58.1z M351.4,49.6c0,0-0.9,7.6-2.4,11.2c-0.6-0.2-1.2-0.4-1.8-0.6
				c1.4-3.3,1.7-7.8,1.7-7.8c-3.5,1.2-6.3,4.6-7.7,6.4c-0.8-0.1-1.6-0.2-2.1-0.3C340.7,55.8,344.7,50.8,351.4,49.6z M328,62.1
				l8.3-0.7c0.4,0,7.6-0.2,13,8.2c-1.2-0.8-5.8-3.6-11.7-4.8c0.9,1.2,4.8,6.6,5.1,10.1c-4.6-3.5-8.4-4.7-10-5
				c9.6,7.8,7.6,16.6,6.1,19.9c0.5-4.7-0.2-9-2.1-12.6c-2-3.6-4.8-5.9-7.3-7.4l7.6-2.2l-6.2-1.8l6.7-3.8l-8.7,0.9l-2.1,5.5
				c-0.3-0.1-0.6-0.3-0.8-0.3L328,62.1z M311.1,78c-0.5-0.8-1.7-3.2-0.7-5c0.7-1.2,3.4-3.2,12.4-2.4C317.3,72.4,313.2,75.9,311.1,78
				z M316.4,77.4C316.4,77.4,316.4,77.4,316.4,77.4L316.4,77.4C316.4,77.4,316.4,77.4,316.4,77.4z M316.4,77.4
				c2.8-2.1,6.7-4.3,11.3-4.9c4.8,1.7,6.2,6.5,6.3,6.6C327.8,74.3,316.5,77.4,316.4,77.4z M327.4,104.8c3.4-0.8,6.1-2.2,8.1-4.2l0,0
				c0.3-0.3,8.5-8.1,7-18.9c-0.2-1.1-0.4-2.2-0.8-3.2c2.8,3.2,3.2,11.7,2.7,14.6c-0.9,5.4-4.8,9.8-9.4,13.3
				c-2.3,1.8-10.6,5.9-10.9,13.3c1.4-7.1,9.3-10.4,11.8-12.1c5.3-3.7,10.6-10.4,11.5-13.9c2.5-9.9-0.5-20.9-0.8-22.2
				c2.7,1.5,4.7,3.3,5.8,5.4c3.5,12.3-1.4,28.7-14.2,38.1c-0.5,0.3-7.8,4.9-7.8,4.9c-4.6,3.1-8.5,6.2-11.7,9.7
				C320.3,120,320.2,106.4,327.4,104.8z M296.7,99.9c5.8,9.4,14.1,13.5,20.4,15.2c-0.2,1.9-0.6,7-0.7,7.6c-0.1,0-0.1,0-0.2,0
				c-1.1-0.5-9.3-5-10.8-12c0,0-0.3,2.9,0.7,6.5c-2.3-2-4.6-4.8-5.3-8.2c0,0-0.3,2.8,0.7,6.4c-2.1-1.7-3.8-3.6-5.4-5.4
				C296.2,106.5,296.4,103.1,296.7,99.9z M312.2,134.6c-0.1,4.5-3.7,8.5-6.7,10c-0.5-0.8-5.5-7.7-6.5-17.6
				C303.1,129.4,309,133,312.2,134.6z M301.2,146.2c-0.9,0.3-2,0.5-3.1,0.7c-0.2-0.2-9.6-12.1-9.6-34.6c0.1-22.5,5.7-27.7,5.7-27.7
				C285.1,127.2,300.9,145.7,301.2,146.2z M290.4,148.8c-1,0.4-2,0.8-2.8,1.2c-5.3-8.5-8.1-18.1-9.2-27.8c-0.5-21,3.9-31.4,3.9-31.4
				C280,106,279,130.6,290.4,148.8z M282.8,119.6c-1.2-15.3,6.3-32.2,6.3-32.2c-2.5,13.9-5.3,41.6,7.4,59.9c-0.1,0-0.1,0-0.2,0.1
				c-1.4,0.2-2.6,0.5-3.7,0.8C285.8,140.9,283.5,126.9,282.8,119.6z M292.1,80.7l-3.5,1.8c-20.1-10.2-21.9-22-21.9-22
				C269.8,65.7,277,74.2,292.1,80.7z M286.9,83.4l-5.1,2.6c-15-10.9-17.6-21.1-17.6-21.1C267.8,70.2,274.7,77.5,286.9,83.4z
				 M280.2,86.8l-3.2,1.7c-12.2-7.6-16.1-17.8-16.1-17.8C264.6,75.6,270.8,81.6,280.2,86.8z M226.6,57.6h36.6l-1.8,3.1L190,57.6
				H226.6z M192.6,62.2h33.9h33.9l-2.6,4.6L192.6,62.2z M257,68.3l-1.8,3.1l-59-3.1h30.4H257z M192.3,70.7c0,0-3.9,10.1-16.1,17.7
				l-3.2-1.7C182.4,81.6,188.5,75.6,192.3,70.7z M170.8,90.9c0,0.1,4.4,10.5,3.9,31.4c-1.1,9.7-4,19.3-9.2,27.8
				c-0.8-0.5-1.8-0.9-2.8-1.3C174.1,130.6,173.1,106,170.8,90.9z M160.5,148.1c-1.1-0.3-2.3-0.6-3.7-0.8c-0.1,0-0.2,0-0.2-0.1
				c12.7-18.3,10-46,7.4-59.9c0.1,0.1,7.5,17,6.3,32.2C169.7,127,166.8,141.9,160.5,148.1z M171.3,86l-5.1-2.6
				c12.2-5.9,19.1-13.2,22.7-18.5C188.9,64.9,186.3,75.1,171.3,86z M186.4,60.5c0,0.1-1.9,11.8-21.9,22l-3.5-1.8
				C176.1,74.2,183.3,65.7,186.4,60.5z M164.6,112.1c0.1,21.8-9.5,34.6-9.6,34.8c-1.1-0.2-2.1-0.4-3.1-0.7c13.7-18,10-50,6.9-61.5
				C158.9,84.8,164.5,90.3,164.6,112.1z M147.6,144.5c-3-1.5-6.5-5.5-6.7-10c3.2-1.5,9.1-5.1,13.2-7.6
				C152.8,137.4,148.1,143.7,147.6,144.5z M156.5,99.9c0.3,3.2,0.5,6.6,0.5,10.1c-1.6,1.8-3.3,3.7-5.4,5.4c1-3.6,0.7-6.4,0.7-6.4
				c-0.7,3.4-3,6.1-5.3,8.2c1-3.7,0.7-6.5,0.7-6.5c-1.4,7-9.7,11.5-10.8,12c-0.1,0-0.1,0-0.2,0c0-0.6-0.4-5.7-0.7-7.6
				C142.3,113.4,150.7,109.3,156.5,99.9z M125.7,104.8c7.2,1.6,7.1,15.2,8.6,24.8c-3.1-3.5-7.1-6.6-11.7-9.7c0,0-7.3-4.7-7.8-4.9
				c-12.7-9.4-17.7-25.8-14.2-38.1c1.1-2.1,3.1-3.9,5.8-5.4c-0.4,1.3-3.3,12.4-0.8,22.2c0.9,3.5,6.2,10.1,11.5,13.9
				c2.4,1.7,10.3,5,11.7,12.1c-0.2-7.4-8.6-11.5-10.9-13.3c-4.6-3.5-8.5-7.9-9.4-13.3c-0.5-3-0.1-11.4,2.7-14.6
				c-0.3,1-0.6,2.1-0.8,3.2c-1.5,10.8,6.7,18.6,7,18.9l0,0C119.6,102.6,122.3,104.1,125.7,104.8z M131.9,157.4
				c1.1,0.6,6,3.1,6.7,9.8c1.1-0.9,1.6-1.8,1.9-2.7c-3.6,20.8,2.6,35,3,36.1c-0.1,0.1-7.4,11.2-17.3,7.2c-4.1-1.7-7.2-7.3-5.1-14.7
				c3.1-10.8-3.3-21.1-8-27c3.3-2.1,6.1-4.2,8.4-6.3c0.7,0.6,4.1,5,7.8,6.1c-3.6-5-3.5-8.7-3.6-10.1c0.2-0.2,0.5-0.5,0.7-0.7
				c1.7,1.9,4.1,5.2,3.9,8.5C130.3,163.5,132.9,160.5,131.9,157.4z M102.4,145.9c2.2,2.1,4.3,4.3,6.2,7.1c-3.3-2.5-7.7-5-13.2-7.2
				C97.4,146,99.8,146.1,102.4,145.9z M91.9,144.4c-2-0.7-4.3-1.3-6.6-1.8l3.2-2.8c0.1,0,2.6,0.1,5.8-0.3c0.9,0.5,1.8,1.2,2.7,1.8
				C95.7,142.3,94.1,143.4,91.9,144.4z M99.3,143.1c0,0,8.9-5.2,13.6-20.7c0,2.3,0.5,10.8-6.3,17.5c7.6-4.1,9.6-12.1,10.1-13.4
				c-0.1,1.6-0.4,3.1-1,4.6c-1.3,3.3-2.1,6.4-2.4,9.5C109.9,142,105.5,143.2,99.3,143.1z M122.7,156.8c-4.3-3.6-7.5-16.2-4.2-24.7
				c1.3-3.4,1.5-7,1.2-10.5c0.8,0.4,1.4,1,2.2,1.4c0.9,2.8,2.1,8.1-0.1,13.1c-3,7-0.5,15-0.5,15c-0.4-4.5,1-10.2,3.4-14.6
				c1.6-3,1.9-7.4,1.8-9.9c0.9,0.8,2,1.7,2.8,2.5c-0.1,3.1-0.6,6.3-2.1,9.1C125.9,140.5,121.7,153.4,122.7,156.8z M91.2,100.6
				c-1.1-0.8-2.2-1.6-3.1-2.5c-2.7-9.9-1.9-18.1,2.4-24.3c3.6-5.1,9.1-8.1,14.1-9.9c-2.4,2.4-4.7,5.8-6.4,10.8
				c-3.5,10.3-1.3,23.7,6.2,34.1c-2.6-1.5-5.3-3.2-8-4.8c-3.2-4.9-8.1-16.2-0.1-31.9C96.3,72,84.5,85.1,91.2,100.6z M136.7,77.4
				L136.7,77.4C136.7,77.4,136.7,77.4,136.7,77.4C136.7,77.4,136.7,77.4,136.7,77.4z M142.7,72.9c1.1,1.8-0.2,4.2-0.7,5
				c-2.1-2.1-6.2-5.6-11.7-7.4C139.4,69.8,142,71.7,142.7,72.9z M136.7,77.4c-0.1,0-11.4-3.1-17.6,1.6c0-0.1,1.5-4.8,6.3-6.6
				C130,73.1,133.9,75.3,136.7,77.4z M125.2,62.1l2.2,6c-0.2,0.1-0.5,0.2-0.8,0.3l-2.1-5.5l-8.7-0.9l6.7,3.8l-6.2,1.8l7.6,2.2
				c-2.5,1.5-5.3,3.8-7.3,7.4c-2,3.6-2.6,7.9-2.1,12.6c-1.5-3.3-3.5-12.1,6.1-19.9c-1.5,0.4-5.4,1.5-9.9,5c0.3-3.5,4.2-8.9,5.1-10.1
				c-6,1.1-10.5,4-11.7,4.8c5.3-8.5,12.6-8.2,13-8.2L125.2,62.1z M114.2,58.5c-0.6,0.1-1.3,0.2-2.1,0.3c-1.4-1.8-4.2-5.2-7.7-6.4
				c0,0,0.2,4.5,1.7,7.8c-0.6,0.2-1.2,0.4-1.8,0.6c-1.5-3.6-2.4-11.2-2.4-11.2C108.5,50.8,112.5,55.8,114.2,58.5z M70.1,58.9
				c5.7,3,19.4-1.6,19.4-1.6c3.9-1.3,7.5-0.5,10.4,0.8c0.1,0,1.1,2.8,1.4,3.8c-4.8,2-9.8,5.2-13.4,10.2c-4.2,5.9-5.5,13.4-3.9,22.1
				c0,0-8.5-22.1,12.7-32.9c0,0-18.1,5.4-17.9,24.1c-3.2-7.8-4-18.8,12.2-25c0,0-11.4,1.9-15.7,10.3C75.3,70.5,70,65,70.1,58.9z
				 M72.5,99.4c0.7-2.6,0.9-5.6,0.4-9c-0.7-4.7-0.3-8.3,0.5-11.1c0.3,1.8,0.8,4,1.7,6.3c0.8,3.7,0.4,7.8-1.3,11.6
				c1.6-2.2,2.7-4.9,3.1-7.7c0.3,0.6,0.6,1.2,1,1.8v0C78.2,95.7,72.6,99.3,72.5,99.4z M77.2,113.3c2.9-9.9,2.5-16.9,1.9-20.3
				c0.4,0.5,0.7,1,1.1,1.6c2,4.7,1.6,10.3-1,15.2c2.6-3.2,4.1-7.4,4.1-11.7c0.6,0.6,1.3,1.1,1.9,1.7C85,109.4,77.7,113,77.2,113.3z
				 M79.4,125.6c8.6-5.5,9-19,8.9-23.4c0.2,0.2,0.5,0.4,0.8,0.5c0.8,2,3,12.6-3.9,20.8c8.5-5,8.6-16.6,8.5-17.6
				c0.5,0.3,0.9,0.6,1.4,0.9C96.1,111.1,98.2,127.1,79.4,125.6z M79.5,135.6c0,0,23.8-7.8,19.5-26.5c1.2,0.7,2.4,1.5,3.6,2.2
				c0.1,1.5,2.7,13.7-13.1,22.7c16.4-3.5,18-18.9,18.2-19.7c1.2,0.7,2.3,1.4,3.4,2C111.1,121.2,109.4,141.1,79.5,135.6z M85,142.9
				c3.6,1.8,11.8,6.3,18,14.4c-5.5-3.5-13.5-7.1-24.3-8.8L85,142.9z M74.3,154.4c0,0,12.1,3.8,21.1,14.1c-5.5-2.9-12.9-5.7-22.3-6.9
				c0,0,12,3.8,20.9,13.9c-4.9-2.7-11-5.2-18.5-6.9c0,0,9.4,3.9,17.2,12.6c-4-2.2-8.8-4.2-14.4-5.8c0,0,7.6,3.7,14.5,11.2
				c-4-2.2-8.8-4.2-14.5-5.8c0,0,6.7,3.3,13.2,9.9c-0.1,0.2-0.2,0.4-0.3,0.6c-3.7-1.9-7.9-3.7-12.8-5.1c0,0,5.3,2.6,11,7.8
				c-0.3,0.4-0.7,0.9-1.1,1.3c-3-1.4-6.2-2.7-9.9-3.7c0,0,3.7,1.8,8.2,5.4c-0.6,0.5-1.2,1-1.9,1.5c-2.6-1.1-5.4-2.2-8.6-3.1
				c0,0,2.9,1.4,6.6,4.2c-0.1,0.1-0.2,0.2-0.4,0.2c-0.8,0.4-1.5,0.8-2.2,1.3c-2.2-0.9-4.5-1.7-7-2.4c0,0,2.4,1.2,5.6,3.4
				c-0.8,0.6-1.5,1.3-2.2,2c-2.1-0.8-4.2-1.6-6.6-2.3c0,0,2.4,1.2,5.6,3.5c-0.6,0.8-1.1,1.6-1.5,2.5c-1.9-0.7-3.8-1.4-6-2
				c0,0,2.3,1.2,5.4,3.3c-0.3,0.8-0.5,1.6-0.6,2.4c-1.3-0.5-2.6-0.9-4.1-1.3c0,0,1.6,0.8,3.9,2.3c-0.1,1.5,0,2.9,0.3,4.4
				c1.4,5.4,7.4,11.4,19.5,10.6c3-0.2,7.7,1.6,9.6,5.7c-1-0.3-2.1-0.4-3.1-0.4c-1.7-1.6-3.7-2.8-6-3.1c1,1.3,5.1,2.3,5.7,8.1
				c0,0-0.1,0-0.1-0.1c-1.1-0.7-2.3-1.1-3.6-1.2c-0.2-0.4-1.7-2.9-5.5-4.2c0.7,0.7,5.5,5.2,1.7,9.8c-1.8-4.3-6.2-7.7-11.8-8.8
				c-4.7-0.9-8.3-3.4-9.7-8.4c-3.5,0.8-4.3,3.7-4.6,4.3c-1.4-4,0.7-9.5,1-10.2c-0.7-0.3-5.6-2.4-7.2-3.3c0.3,0,5.2-0.4,6.5-0.7
				c-5.5-2.4-8.1-5.6-9.4-7.5c1.1,0.1,4.7,1,8.8-0.5c-5.5-1.5-7-4.3-7.9-5.4c4.2,1,11.7-2.4,14.9-6.8c3.7-5.2,3.7-11.3,0-16.4
				c-4-5.6-5.5-10.8-4.7-15.6c1.2-6.2,11.2-14,11.2-14c3.3,1.3,12.4,5.3,19.6,13.5C92.3,158.9,84.6,155.8,74.3,154.4z M141.4,216.5
				c-3.8,3-8.4,4-12.7,1.8c-1.7,3.1-0.1,5.7,0.2,6.3c-3.9-1.6-6.7-6.8-7-7.5c-0.7,0.4-5.5,2.6-7.2,3.2c0.2-0.2,3.1-4.2,3.8-5.4
				c-5.4,2.5-9.6,2.4-11.8,2.2c0.8-0.7,3.9-2.9,5.4-7c-4.7,3.1-7.8,2.5-9.3,2.4c11.9-15.2,2.7-25.3-2.1-29.1
				c10,2.8,11.8,13.7,11.8,13.7c1-9-4.1-15.5-8.6-19.5c9.1,1.6,11.5,13.6,11.5,13.6c2-8.7-4.9-16.6-8.7-20.1
				c14.3,3.6,12.4,18.2,11.6,21c-2.2,7.8,0.5,15.2,6.7,18.2c4.8,2.4,12.8,1.9,20-6.8c1.4,3,3.1,6.1,5.4,9.2
				C147.2,213.2,144.1,214.3,141.4,216.5z M148.6,182.5c-1.3-5.9-1-12,0.3-17.8c0.4,0.2,0.9,0.7,1.6,1.7
				C149.1,171,148.3,176.2,148.6,182.5z M147.4,160.4c-4.2-2.4-5.4-7.1-5.4-10c-2.8,5.2,1.1,9.7,1.4,10.1
				c-8.7-4-10.1-10.6-10.3-13.8c-0.9,2.4-1.1,5.2-0.3,7.8c-1.4-0.9-5.9-3.3-6.6-4.1c0.7-4,2.2-7.9,3.8-10.9c1.3-2.4,1.9-5,2.3-7.5
				c3,3.5,4.9,6.4,4.9,6.4c2.9,5.7,8.4,10.3,19.3,12c6.7,1,10.8,3.5,11.5,6.9c0.4,1.8-0.2,3.8-1.4,5.9c-0.5-5.2-6.4-6.9-6.4-6.9
				c5.9,5.6,1.5,12.3,1.2,12.7c0,0,0,0-0.1,0.1c0.5-6.3-4.7-9.2-4.7-9.2c4.3,6.1-1.5,13.2-1.5,13.2c0-0.6,0.1-1.1,0.2-1.7
				C155.5,163.7,148.2,161,147.4,160.4z M224.3,259.9c-6.6-8.6-21.3-23.8-48.6-33.5c-9.8-3.5-16.5-9.1-21.1-15.2
				c9.4,8.3,21.4,12,22.1,12.3c25.4,9.1,40.2,22.9,47.5,31.6V259.9z M224.3,252.7c-7.8-8.8-22.6-22-47-30.7
				c-9.4-3.4-16.9-12.7-21.5-20c8.7,11.2,22.3,15.5,23.1,15.7c22.2,7.9,36.8,19.5,45.5,28.4V252.7z M224.3,243.9
				c-9-8.9-23.4-20-45-27.6c-11.2-4-18.7-11.9-22.5-23.6c-1.7-5.3-2.3-10.8-2.3-16.1c0.8-0.3,1.9-0.7,3.1-1.3
				c-0.2,5.4,0.3,11,2.1,16.4c3.5,10.9,10.3,18,20.6,21.7c21.1,7.5,35.4,18.3,43.9,26.3V243.9z M226.6,235.5
				c-8.9-8.2-23.6-18.9-44.7-26.4c-8.9-3.2-14.8-9.3-17.8-18.8c-1.9-5.8-2.3-11.9-1.8-17.5c5.1-3.2,10.1-8.5,8.5-16.1
				c-0.2-1.1-0.8-2.4-1.7-3.6c11.9-18.8,12-42.9,9.7-60.7c7.7-4.6,14.2-10.1,19.2-16.4h28.6h28.6c5,6.3,11.5,11.9,19.2,16.4
				c-2.4,17.8-2.2,41.9,9.7,60.7c-1,1.2-1.5,2.5-1.7,3.6c-1.6,7.6,3.4,12.9,8.5,16.1c0.5,5.6,0.1,11.7-1.8,17.5
				c-3,9.5-8.8,15.6-17.8,18.8C250.2,216.6,235.5,227.4,226.6,235.5z M277.4,226.3c-27.2,9.7-42,24.9-48.6,33.5
				c0,0,8.8-14.3,21.2-23.3c7.1-4.7,15.7-9.3,26.3-13.1c0.8-0.3,12.7-4.1,22.1-12.3C293.9,217.2,287.2,222.9,277.4,226.3z
				 M228.9,252.7c0,0,7.7-15,22.7-24.3c6.5-3.9,14-7.6,22.8-10.7c0.7-0.3,14.4-4.5,23.1-15.7c-4.7,7.4-12.1,16.6-21.5,20
				C251.5,230.7,236.7,243.9,228.9,252.7z M296.3,192.7c-3.8,11.7-11.3,19.7-22.5,23.6c-21.6,7.7-36,18.8-45,27.6
				c0,0,8.3-12.1,23.2-21.1c6-3.4,12.9-6.6,20.8-9.4c10.4-3.7,17.1-10.8,20.6-21.7c1.7-5.4,2.3-11,2.1-16.4c1.3,0.6,2.3,1,3.1,1.3
				C298.7,181.9,298,187.3,296.3,192.7z M298.1,171.2c0,0.6,0.1,1.2,0.2,1.7c0,0-5.9-7.1-1.5-13.2c0,0-5.2,2.9-4.7,9.2
				c0,0,0,0-0.1-0.1c-0.3-0.4-4.7-7.1,1.2-12.7c0,0-5.9,1.7-6.4,6.9c-1.2-2.1-1.8-4.1-1.4-5.9c0.7-3.4,4.8-5.9,11.5-6.9
				c10.9-1.7,16.4-6.3,19.3-12c0,0,1.9-2.9,4.9-6.4c0.3,2.6,1,5.1,2.3,7.5c1.6,2.9,3,6.8,3.7,10.9c-0.8,0.8-5.3,3.2-6.6,4.1
				c0.7-2.6,0.5-5.4-0.3-7.8c-0.2,3.2-1.6,9.8-10.3,13.8c0.3-0.4,4.2-4.9,1.4-10.1c0,2.9-1.2,7.6-5.4,10
				C304.9,161,297.7,163.7,298.1,171.2z M304.2,164.7c1.4,5.8,1.7,12,0.3,17.9c0.4-6.4-0.5-11.5-1.9-16.1
				C303.3,165.4,303.9,164.9,304.2,164.7z M350.4,212.6c-1.5,0.1-4.5,0.7-9.3-2.4c1.5,4.1,4.5,6.3,5.4,7c-2.3,0.2-6.4,0.3-11.8-2.2
				c0.7,1.2,3.6,5.1,3.8,5.4c-1.7-0.6-6.5-2.9-7.2-3.2c-0.3,0.7-3.1,5.9-7,7.5c0.3-0.6,1.9-3.2,0.2-6.3c-4.5,2.2-8.9,1.2-12.7-1.8
				c-2.7-2.1-5.8-3.3-8.8-3.6c2.2-3.1,4-6.2,5.4-9.3c7.1,8.7,15.1,9.2,20,6.8c6.2-3.1,8.9-10.4,6.7-18.2c-0.8-2.8-2.7-17.4,11.6-21
				c-3.8,3.5-10.7,11.4-8.7,20.1c0,0,2.3-12,11.4-13.6c-4.5,4-9.6,10.5-8.6,19.5c0,0,1.8-10.9,11.8-13.7
				C347.7,187.3,338.5,197.2,350.4,212.6z M381.3,178.2c-3.6,5.1-3.6,11.2,0,16.4c3.2,4.4,10.7,7.8,14.9,6.8
				c-0.9,1.1-2.4,3.9-7.9,5.4c4,1.6,7.7,0.7,8.8,0.5c-1.4,1.8-4,5-9.4,7.5c1.4,0.2,6.2,0.7,6.5,0.7c-1.6,0.9-6.4,3-7.2,3.3
				c0.3,0.7,2.5,6.2,1.1,10.2c-0.3-0.6-1.2-3.5-4.6-4.3c-1.5,5.1-5,7.5-9.7,8.4c-5.6,1.1-10,4.4-11.8,8.8c-3.8-4.5,1-9.1,1.7-9.8
				c-3.8,1.2-5.3,3.7-5.6,4.2c-1.3,0.1-2.6,0.5-3.6,1.2c0,0-0.2-4.6,5.6-8.1c-2.3,0.4-4.3,1.5-6,3.1c-1,0-2.1,0.2-3.1,0.4
				c1.9-4.1,6.6-5.9,9.6-5.7c12.1,0.9,18.1-5.1,19.5-10.6c0.4-1.5,0.5-3,0.3-4.4c2.3-1.5,4-2.3,4-2.3c-1.4,0.4-2.8,0.9-4.1,1.3
				c-0.1-0.8-0.3-1.6-0.6-2.4c3.1-2.2,5.4-3.3,5.4-3.3c-2.2,0.6-4.1,1.3-6,2c-0.4-0.9-0.9-1.7-1.5-2.5c3.2-2.3,5.6-3.5,5.6-3.5
				c-2.4,0.7-4.6,1.5-6.6,2.3c-0.7-0.7-1.4-1.4-2.2-2c3.2-2.3,5.6-3.4,5.6-3.4c-2.5,0.7-4.8,1.5-7,2.4c-0.7-0.5-1.4-0.9-2.2-1.3
				c-0.1-0.1-0.2-0.2-0.4-0.2c3.8-2.8,6.6-4.2,6.6-4.2c-3.2,0.9-6,1.9-8.6,3.1c-0.7-0.5-1.3-1-1.9-1.5c4.5-3.6,8.2-5.4,8.2-5.4
				c-3.7,1-6.9,2.4-9.9,3.7c-0.4-0.4-0.7-0.9-1.1-1.3c5.7-5.2,11-7.8,11-7.8c-5,1.4-9.1,3.2-12.8,5.1c-0.1-0.2-0.2-0.4-0.3-0.6
				c6.5-6.6,13.2-9.9,13.2-9.9c-5.6,1.6-10.4,3.6-14.5,5.8c6.8-7.5,14.5-11.2,14.5-11.2c-5.6,1.6-10.3,3.6-14.4,5.8
				c7.8-8.7,17.2-12.6,17.2-12.6c-7.6,1.7-13.7,4.2-18.5,6.9c8.9-10.1,20.9-13.9,20.9-13.9c-9.4,1.2-16.8,4-22.3,6.9
				c9-10.2,21.1-14.1,21.1-14.1c-10.3,1.4-18,4.5-23.7,7.7c7.2-8.2,16.3-12.2,19.6-13.5c0,0,10,7.8,11.2,14
				C386.8,167.5,385.3,172.7,381.3,178.2z M407.3,103.4c0,7.5,5,10.4,9.8,13.1c6.4,3.7,13.5,7.8,12.1,24c-0.1,1.4-0.3,2.8-0.5,4.3
				c0.8-0.5,2-1.5,3.5-2.8c0.1-0.1,0.1-0.1,0.2-0.2c-0.8,2.3-4.8,10.3-5.9,11.9c1.1-0.4,7.9-4.7,9.3-5.9c0,0-4.9,7.7-15.2,14
				c0,0,3.4-0.2,7.3-2c-4.2,4.1-11.5,8.7-20,9.8c1.6,0.5,8.1,1.4,8.6,1.4c-13.3,3.2-21.7-1.5-22.2-1.8c0.2,0.6,2.2,4.8,5.5,7.2
				c-5-1.2-8.9-3.1-11.6-4.8c0.8-2.4,1.1-4.7,1-7c9.2,3.2,17.4,1.3,21.5,0c8.4-2.6,14.1-10.6,14.9-20.8c0.9-10.8-4-20.8-12.2-24.9
				c-7.3-3.6-11.5-12.3-9.7-19.8c1.7-6.8,7.8-11.5,17.2-13.8C409,89.5,407.3,98,407.3,103.4z M437.2,86.8c0.6,0.5,3,2.5,7.6,1.1
				c-9.3,5.7-13-4.9-13-4.9s6.9,3.2,10.7-0.3c-1.7-1.3-7.9-5.1-12.8,0.1c6.1-10.9,17.1,0,17.1,0S444.5,87.6,437.2,86.8z"/>
			<path class="st0" d="M216,43.1l-25.7,1.2V46l31.8,1.4l-31.8,1.4v1.9h72.5v-1.9l-31.8-1.4l31.8-1.4v-1.8l-25.7-1.2l25.7-1.2
				l11.2-34.6l-11.3,9.8l2.2,9.4l-3.4,10.5c-0.6,1.5-2.4,4.1-7,2.9c-6.1-1.6-5.3-6.4-5.3-6.6l1.5-10.1l6.1-7.5l-5.8-13.8l-9.5,11.6
				l3.7,8.9l-1.5,10c0,0-0.8,5.3-8,4.6c-5.8-0.6-6.5-4.2-6.6-5.7V21.1l5-8.2L226.6,0l-7.7,12.8l5,8.2v10.2c-0.1,1.5-0.8,5.1-6.6,5.7
				c-7.3,0.7-8-4.6-8-4.6l-1.5-10l3.7-8.9L202,1.9l-5.8,13.8l6.1,7.5l1.5,10.1c0,0.2,0.8,5-5.3,6.6c-4.6,1.2-6.4-1.4-7-2.9
				l-3.4-10.5l2.2-9.4l-11.3-9.8l11.2,34.6L216,43.1z"/>
		</g>
		<text transform="matrix(1 0 0 1 177.5861 195.2593)" class="st0 st1 st2">G</text>
	</g>
	<text transform="matrix(1 0 0 1 75.1791 345.9447)" class="st0 st1 st3">GOTHAM CAPITAL</text>
</g>
</svg>
