<?xml version="1.0" encoding="utf-8"?>
<!-- Generator: Adobe Illustrator 26.1.0, SVG Export Plug-In . SVG Version: 6.00 Build 0)  -->
<svg version="1.1" id="Layer_1" xmlns="http://www.w3.org/2000/svg" xmlns:xlink="http://www.w3.org/1999/xlink" x="0px" y="0px"
	 viewBox="0 0 76.6 76.2" style="enable-background:new 0 0 76.6 76.2;" xml:space="preserve">
<style type="text/css">
	.st0{fill:#BB8760;}
</style>
<g>
	<path class="st0" d="M22.3,54.8H30V30.1h-7.7V54.8z M26.1,17.8c-2.5,0-4.5,2-4.5,4.5c0,2.8,2.6,5.1,5.6,4.3
		c1.5-0.4,2.7-1.6,3.1-3.1C31.2,20.5,29,17.8,26.1,17.8z M49.5,29.5c-3.7,0-6.2,2-7.3,4h-0.1v-3.4h-7.4v24.7h7.7V42.6
		c0-3.2,0.6-6.4,4.6-6.4c3.9,0,4,3.7,4,6.6v12h7.7V41.3C58.8,34.6,57.3,29.5,49.5,29.5z"/>
	<g>
		<path class="st0" d="M64.7,61.9c-1,0.3-1.6,1.5-2.1,2.4c-0.5,0.8-1.3,1.8-1.3,2.7c0,0.3,0.3,0.6,0.6,0.5c0.9-0.3,1.6-1.3,2.3-2
			c0.7-0.7,1.7-1.6,1.7-2.7C65.9,62.2,65.3,61.7,64.7,61.9z"/>
		<path class="st0" d="M75.9,40.8C80.5,22.5,61.5,4,44.3,0.7c-9.5-1.8-19.3-0.1-27.4,5.2c-6.9,4.5-14,12.6-14.9,21
			c0,0.2,0,0.3,0.1,0.5c-5.5,14,0.5,31.7,12.5,40.6c11.9,8.8,31.4,11.9,44.1,2.7c1.1-0.8,0.2-2.3-1-1.8c-0.5,0.2-0.9,0.4-1.4,0.6
			c-0.2-0.4-0.7-0.7-1.3-0.4c-8.4,4-20.1,2-28.4-1c-0.9-0.3-1.6,1.2-0.7,1.6c4.4,2.1,9.3,3.4,14.2,3.7c2.1,0.1,4.1,0,6.2-0.2
			c-3.1,0.8-6.4,1.2-9.9,0.8c-7.1-0.6-13.4-3.3-19.2-7.2C10.2,62.3,5.5,56.7,3.3,48.7c-1.9-6.9-2-14.2,0.1-21.1
			c0.1-0.1,0.2-0.1,0.2-0.3C4,26.7,4.4,26,4.7,25.3C2.6,30.7,2,36.7,2.9,42.5c1.8,10.9,7.9,18.1,17,24c1.1,0.7,2.2-1.1,1-1.7
			C12.9,60.5,6.5,50.8,5.2,42c-1.5-9.8,2.1-18.9,7.9-26.7c0.5-0.7-0.6-1.4-1.1-0.9c-1,0.9-1.8,1.9-2.6,2.9c1.3-2,2.8-3.9,4.6-5.6
			c-0.4,0.7,0.2,1.7,1.1,1.2c2.1-1.4,4.1-2.8,6.3-4c1.6-0.9,3.2-1.6,4.8-2.4c0.3,0.1,0.6,0.1,0.9,0c11.6-3,23.2-1.7,32.2,6.8
			c0.4,0.3,0.8,0.2,1-0.1c-0.1,0.4,0.1,0.9,0.7,0.9c1,0,1-1.5,0-1.5c-0.3,0-0.5,0.1-0.6,0.3c0-0.2,0-0.4-0.2-0.5
			c-3-3.2-6.8-5.8-11-7.7c12.2,4.5,22.4,15.4,23.9,28.1c-0.9-4-2.6-7.9-5.1-11.5c-0.6-0.9-2-0.1-1.5,0.9c3.3,6,4.8,12.6,5.1,19.4
			c0.2,7.1-2.5,13.2-6.3,19.1c-0.4,0.6,0.5,1.3,1,0.8c0.2,0.1,0.5,0.1,0.8-0.1c5.5-5.1,9.5-12.7,8.9-20.4
			C75.9,40.9,75.9,40.9,75.9,40.8z"/>
		<path class="st0" d="M22.8,67.4c-0.2,0.6,0.1,1.1,0.6,1.3c0.4,0.1,0.8,0.3,1.2,0.3c0.7,0.1,1-0.9,0.6-1.4c-0.3-0.3-0.7-0.5-1-0.7
			C23.7,66.6,23,66.9,22.8,67.4z"/>
	</g>
</g>
</svg>
