<?xml version="1.0" encoding="utf-8"?>
<!-- Generator: Adobe Illustrator 26.2.1, SVG Export Plug-In . SVG Version: 6.00 Build 0)  -->
<svg version="1.1" id="Layer_1" xmlns="http://www.w3.org/2000/svg" xmlns:xlink="http://www.w3.org/1999/xlink" x="0px" y="0px"
	 viewBox="0 0 436 96" style="enable-background:new 0 0 436 96;" xml:space="preserve">
<style type="text/css">
	.st0{fill:#BB8760;}
</style>
<path class="st0" d="M344.8,82V48.4h-10.2l-0.9,3.2c3.6,0,4,1.2,4,3.9l0,0V82c-0.1,2.6-0.5,3.9-4,3.9v3.2h15.2v-3.2
	C345.3,85.9,344.8,84.6,344.8,82 M334.8,35.6h-16.1v3.1h1.7c1.7,0,2.9,0.3,3.7,0.9c0.8,0.6,1.2,1.5,1.2,2.8c0,0.9-0.6,3.1-0.8,3.9
	l-9.8,33.4l-12.6-43.6h-5.4l-12,44.7l-10-35.7c-0.1-0.6-0.3-1.1-0.4-1.5c-0.4-1.3-0.2-3.1,0.9-4c0.7-0.6,1.9-0.9,3.4-0.9h1.7v-3.1
	h-20.6v3.1c1.5,0,3.1-0.1,4.4,0.8c1,0.7,1.5,2,1.9,3.1l13.7,46.4h6.9l11.4-41.9l12.2,41.9h6.7l12.8-44.5c0.4-1.2,0.7-2.2,1.1-3
	c1-2.1,2.1-2.6,3.9-2.8L334.8,35.6L334.8,35.6z M263.4,66h-7.5c-0.6,0-1,0.5-1,1v1.1c0,0.6,0.5,1,1,1h7.5c0.6,0,1-0.5,1-1v-1.1
	C264.4,66.5,264,66,263.4,66 M376.7,70.5c-0.9-1-2.1-1.9-3.5-2.7c-1.4-0.8-3.1-1.6-5.2-2.5c-1.7-0.7-3.1-1.3-4.3-1.9
	c-1.2-0.6-2.2-1.1-2.9-1.7c-0.8-0.6-1.3-1.2-1.6-1.9c-0.3-0.7-0.5-1.5-0.5-2.5c0-0.9,0.1-1.7,0.4-2.4c0.3-0.7,0.7-1.4,1.3-1.9
	c0.6-0.5,1.3-1,2.2-1.3c0.9-0.3,2-0.4,3.3-0.4c2.2,0,3.9,0.7,4.9,2.1c1,1.4,1.6,3.4,1.6,5.9c1.8,0,3.1-0.4,4.1-1.2
	c1-0.8,1.4-1.9,1.4-3.3c0-0.9-0.2-1.8-0.7-2.7c-0.5-0.9-1.2-1.6-2.1-2.2c-0.9-0.6-2.1-1.1-3.5-1.5c-1.4-0.4-3-0.6-4.8-0.6
	c-2.1,0-4.1,0.2-5.9,0.7c-1.8,0.5-3.3,1.2-4.5,2.1c-1.3,0.9-2.2,2-2.9,3.4c-0.7,1.3-1,2.9-1,4.6c0,1.7,0.2,3.1,0.7,4.3
	c0.5,1.2,1.2,2.3,2.1,3.2c0.9,0.9,2.1,1.8,3.6,2.6c1.4,0.8,3.1,1.6,5.1,2.5c1.8,0.8,3.3,1.5,4.6,2.1c1.2,0.6,2.2,1.2,2.9,1.8
	c0.7,0.6,1.2,1.2,1.5,1.9c0.3,0.7,0.4,1.5,0.4,2.4c0,1-0.2,1.9-0.6,2.8c-0.4,0.9-0.9,1.6-1.6,2.2s-1.6,1.1-2.6,1.4
	c-1,0.3-2.2,0.5-3.6,0.5c-1.5,0-2.8-0.3-3.9-0.8c-1.1-0.5-1.9-1.2-2.5-2.1c-0.6-0.9-1.1-1.9-1.4-3.1c-0.3-1.2-0.4-2.4-0.4-3.7
	c-0.4,0-0.9,0.1-1.5,0.2s-1.1,0.4-1.6,0.8c-0.5,0.4-0.9,0.9-1.2,1.6c-0.3,0.7-0.5,1.5-0.5,2.5c0,1.3,0.3,2.5,0.9,3.5
	c0.6,1,1.4,1.8,2.5,2.5c1.1,0.7,2.4,1.2,3.9,1.5c1.5,0.3,3.3,0.5,5.2,0.5c2.2,0,4.3-0.2,6.1-0.7c1.8-0.5,3.4-1.2,4.7-2.2
	c1.3-1,2.3-2.2,3-3.7c0.7-1.5,1.1-3.2,1.1-5.2c0-1.6-0.2-3-0.7-4.2C378.3,72.5,377.6,71.4,376.7,70.5 M345.5,24.6
	c-0.2-0.2-0.3-0.6-0.3-0.9l1.1-5.1c0.1-0.3-0.3-0.6-0.6-0.4l-4.6,2.4c-0.3,0.2-0.6,0.1-0.9,0l-4.5-2.6c-0.3-0.2-0.7,0.1-0.6,0.4
	l0.9,5.1c0.1,0.3-0.1,0.6-0.3,0.9l-3.9,3.5c-0.3,0.2-0.1,0.6,0.2,0.7l5.2,0.7c0.3,0,0.6,0.3,0.7,0.5l2.1,4.8c0.1,0.3,0.6,0.3,0.7,0
	l2.3-4.7c0.1-0.3,0.4-0.5,0.7-0.5l5.2-0.6c0.3,0,0.5-0.5,0.2-0.7L345.5,24.6z M435.1,85c0-2.3-1.8-4.1-4.2-4.1
	c-2.4,0-4.2,1.8-4.2,4.1c0,2.3,1.9,4.1,4.2,4.1C433.2,89.1,435.1,87.3,435.1,85 M436,85c0,2.8-2.3,5-5.1,5c-2.9,0-5.2-2.2-5.2-5
	s2.3-5,5.2-5h0C433.7,80,436,82.2,436,85 M235.6,71.1l-9.6-27.3l-9.6,26.5c3.2,1.3,6.7,2,10.5,2C230,72.4,232.9,71.9,235.6,71.1
	 M253,86.7h1v3.2h-20.9v-3.2h1.7c3.9,0,5.1-2.2,4.4-4.9c-0.1-0.4-0.3-1-0.5-1.5l-2.2-6.2c-3.4,1.2-7.1,1.9-11.3,1.9
	c-3.8,0-7.3-0.6-10.5-1.7l-2,5.5c-0.2,0.6-0.4,1.2-0.5,1.8c-0.5,2.4,0.1,3.7,1.1,4.3c0.8,0.6,2.1,0.9,3.8,0.9h1.7v3.2h-18.5v-3.2
	h1.4c0.7,0,1.4-0.1,1.9-0.2c1.2-0.4,2-1.6,2.6-2.7c0.4-0.8,0.8-1.8,1.3-3l3.1-8.3c-10.6-5.6-16.5-17.1-16.5-29
	c0-32.7,36.4-43.4,67.4-43.4c27.2,0,54,10.2,68.8,21.2c0.1,0.1,0.1,0.2,0.1,0.4c-0.1,0.1-0.2,0.2-0.4,0.1
	C319.5,16,296,5.1,263.5,5.1c-28.4,0-64.1,9-64.1,39c0,10.2,5,19.2,12.9,24.1l12.2-32.7h5.9l11.9,32.4c4.7-3,8.3-7.5,10.4-12.7
	c0-0.1,0.2-0.2,0.3-0.1c0.1,0,0.2,0.1,0.2,0.3c-0.9,6-4.5,11.4-9.9,15.2l4.4,12c0.3,0.8,0.6,1.4,0.9,2C249.5,86.3,251,86.7,253,86.7
	 M431.8,84.1c0-0.5-0.3-0.8-1.1-0.8c-0.3,0-0.5,0-0.6,0.1v1.4h0.6C431.3,84.8,431.8,84.6,431.8,84.1 M432.9,86.4
	c0.2,0.8,0.3,1,0.4,1.2h-1.2c-0.2-0.2-0.2-0.6-0.4-1.2c-0.1-0.5-0.4-0.8-1-0.8h-0.6v2h-1.2v-5c0.5-0.1,1.1-0.2,1.9-0.2
	c0.9,0,1.4,0.2,1.7,0.4c0.3,0.2,0.5,0.6,0.5,1.1c0,0.6-0.5,1-1,1.2v0.1C432.5,85.3,432.8,85.7,432.9,86.4 M418.5,81.5v-19
	c0-9.4-4-14.9-13.3-14.9c-4.9,0-9.2,1.9-11.4,6.5V31.4h-11.2v3.2c3.6,0,4,1.2,4,3.9V82c-0.1,2.6-0.5,3.9-4,3.9v3.2h15.2v-3.2
	c-3.6,0-4-1.2-4-3.9V65.7c0-6.8,2.8-13.2,9.2-13.2c6.3,0,8.3,4,8.3,10.4v20.4c0,2.7,1.6,6.8,7.3,6.8c4.1,0,4.8-3.1,4.8-3.1
	S418.5,87.7,418.5,81.5 M91.4,68.6c-3.7,0-10.3-0.4-13.7,2.6c-0.9,0.8-1.5,1.7-1.9,2.9c-0.4,1.1-0.6,2.4-0.6,3.9
	c0,2.4,0.5,4.1,1.5,5.3c1,1.2,2.6,1.8,4.7,1.8c1.5,0,2.9-0.2,4.2-0.7c1.2-0.5,2.3-1.2,3.2-2.1c0.9-0.9,1.6-2,2-3.3
	c0.5-1.3,0.7-2.8,0.7-4.4L91.4,68.6z M103.5,85.8V86c0,0.8-0.4,3.8-5.1,3.8c-5,0-6.2-6.2-6.3-7.2l0-0.1c-0.8,1.1-2.4,7.3-12.5,7.3
	c-1.7,0-3.2-0.2-4.7-0.7c-1.4-0.5-2.7-1.2-3.7-2.2c-1.1-1-1.9-2.3-2.5-3.8c-0.6-1.5-0.9-3.3-0.9-5.4c0-4,1.4-7,4.3-9
	c5.8-3.9,14-3.4,19.3-3.4v-4.6c0-1.4-0.1-2.6-0.2-3.8c-0.1-1.1-0.5-2.1-1-3c-0.5-0.8-1.2-1.5-2.1-1.9c-0.9-0.5-2.2-0.7-3.7-0.7
	c-1.5,0-2.6,0.2-3.5,0.6c-0.9,0.4-1.6,1-2.1,1.7c-0.5,0.7-0.8,1.6-1,2.6c-0.2,1-0.3,2.1-0.3,3.3c-2.1,0-3.7-0.4-4.8-1.1
	c-1.1-0.7-1.6-2-1.6-3.7c0-1.3,0.4-2.4,1.1-3.3c0.7-0.9,1.7-1.7,2.9-2.2c1.2-0.6,2.7-1,4.4-1.3c1.7-0.3,3.4-0.4,5.3-0.4
	c2.3,0,4.3,0.2,6.1,0.7c1.7,0.5,3.2,1.2,4.3,2.2c1.2,1,2,2.4,2.6,4.1c0.6,1.7,0.9,3.7,0.9,6.1v19.7c0,1.1,0.1,1.8,0.2,2.5
	C99.5,87.3,103.5,85.8,103.5,85.8 M140.9,84.3c-1.3-1.1-2.6-2.6-3.9-4.6l-10.1-15l5.3-6c2-2.2,3.8-4,5.5-5.2
	c1.7-1.2,3.4-1.9,5.2-1.9v-3.2h-15.1v3.2c3.4,0,4.3,1,2.2,3.5c-2.1,2.3-4,4.4-4.3,4.8l-8.6,9.4V31.4h-11.2v3.2c3.6,0,4,1.2,4,3.9V82
	c-0.1,2.6-0.5,3.9-4,3.9v3.2h15.2v-3.2c-3.6,0-4-1.2-4-3.9v0v-6.7l5-5.5l7.2,11.1c1.1,1.7,2.1,3,2.9,4c2.6,3.1,3.9,5,8.1,5
	c4.7,0,5.3-4,5.3-4h-0.2C143.7,85.9,142.2,85.3,140.9,84.3 M35.9,78.3L20.2,34.9H6v3.2c3.6,0,4,1.2,4,3.9V82c-0.1,2.6-0.5,3.9-4,3.9
	v3.2h12.7v-3.2c-3.6,0-4-1.2-4-3.9l0,0V40.7l17.6,48.4h4.1l17.4-48.5V82c-0.1,2.6-0.5,3.9-4,3.9v3.2h15.4v-3.2c-3.6,0-4-1.2-4-3.9
	V41.9c0.1-2.6,0.5-3.9,4-3.9v-3.2H51.4L35.9,78.3z M169.2,65.2c0-2-0.1-3.8-0.4-5.5c-0.3-1.7-0.8-3.1-1.4-4.3
	c-0.6-1.2-1.5-2.1-2.5-2.7c-1.1-0.6-2.3-1-3.9-1c-2.8,0-5,1.1-6.5,3.4s-2.4,5.6-2.7,10H169.2z M175.8,57.9c0.7,2.3,1.1,4.9,1.1,7.9
	v3.5h-25.3c0,2.8,0.3,5.1,0.8,7.1c0.5,2,1.2,3.6,2.2,4.9c1,1.3,2.1,2.2,3.5,2.8c1.4,0.6,3,0.9,4.8,0.9c1.3,0,2.5-0.1,3.7-0.4
	c1.1-0.3,2.1-0.7,3.1-1.2c0.9-0.5,1.7-1.1,2.4-1.7c0.7-0.6,1.3-1.3,1.7-2c0.3,0.1,0.7,0.5,1,0.9c0.3,0.5,0.5,1,0.5,1.7
	c0,0.8-0.3,1.6-0.8,2.5c-0.5,0.9-1.4,1.7-2.5,2.4c-1.1,0.7-2.5,1.4-4.2,1.9c-1.7,0.5-3.6,0.7-5.9,0.7c-2.7,0-5.2-0.5-7.4-1.4
	c-2.2-0.9-4-2.3-5.5-4.1c-1.5-1.8-2.7-4-3.5-6.5c-0.8-2.6-1.2-5.5-1.2-8.8c0-7.1,1.5-12.4,4.4-16c2.9-3.6,7.1-5.4,12.5-5.4
	c2.4,0,4.6,0.4,6.6,1.1c2,0.8,3.6,1.9,5,3.4C174,53.7,175.1,55.6,175.8,57.9 M193.9,67.1v1.1c0,0.6-0.5,1-1,1h-7.5c-0.6,0-1-0.5-1-1
	v-1.1c0-0.6,0.5-1,1-1h7.5C193.4,66,193.9,66.5,193.9,67.1"/>
</svg>
