<?xml version="1.0" encoding="utf-8"?>
<!-- Generator: Adobe Illustrator 26.2.1, SVG Export Plug-In . SVG Version: 6.00 Build 0)  -->
<svg version="1.1" id="Layer_1" xmlns="http://www.w3.org/2000/svg" xmlns:xlink="http://www.w3.org/1999/xlink" x="0px" y="0px"
	 viewBox="0 0 200 222" style="enable-background:new 0 0 200 222;" xml:space="preserve">
<style type="text/css">
	.st0{fill:#BB8760;}
	.st1{fill:#050E13;}
</style>
<g transform="matrix(3.39447 0 0 3.39447 180.004 90.2172)">
	<path class="st0" d="M-3,5.9h-17.4v9.8c0,4.5,1.6,7.6,4.3,9.8l0-1.4c-1.6-2-2.5-4.6-2.3-7.2v-2.6h3.3v11.2c0,4.1-1.1,9.3-8.4,12.6
		c-6.9-3.1-8.3-8-8.4-11.9c3.3-2.2,5.2-5.5,5.2-10.5v-1.4h5.3v-2h-5.3v0h-2v0H-34v11.8c0,0.4,0,0.8,0,1.2v0c0.7-0.5,1.4-1,2-1.6
		v-9.3h3.2v2.6c0,3.4-0.6,7.6-6.7,10.3c-6.1-2.7-6.7-6.9-6.7-10.3v-9h13.4v3.5h2V5.9h-17.4v9.8c0,6.6,3.3,10.2,8.7,12.3
		c0.6-0.2,1.2-0.5,1.7-0.8c0.9,6,4.7,9.5,10.2,11.6c5.6-2.1,9.3-5.6,10.2-11.6c0.5,0.3,1.1,0.5,1.6,0.7c5.4-2,8.7-5.7,8.7-12.3V5.9z
		 M-5,16.9c0,3.4-0.6,7.6-6.7,10.3c-0.5-0.2-1-0.5-1.5-0.8c0.1-0.8,0.1-1.6,0.1-2.4V12.3h-5.3V7.9H-5V16.9z"/>
	<g>
		<path class="st1" d="M-40.3,0.6V0.2c0.2-0.1,0.4-0.2,0.6-0.4c0.1,0,0.1-0.1,0.1-0.2c0.1-0.3,0.1-0.6,0.1-0.9c0-0.7,0-1.1,0-1.3
			v-4.2c0-0.7,0-1.4,0-2.1c0-0.3,0-0.6-0.1-0.9c-0.1-0.1-0.2-0.2-0.3-0.2C-40.2-10-40.6-10-41-10v-0.5c1.3,0,2.1,0,2.4,0
			c0.3,0,1.1,0,2.3,0v0.5c-0.4,0-0.8,0-1.2,0.1c-0.1,0-0.2,0.1-0.3,0.2c-0.1,0.2-0.1,0.5-0.1,0.8c0,0.1,0,0.8,0,2.2v5.2
			c0,0.5,0,1,0,1.3c0.6,0,0.7,0,1.3,0c1.1,0,2.2,0,3.3-0.3c0.1-0.2,0.1-0.4,0.2-0.5l0.3-1.3h0.5c-0.1,0.8-0.2,1.7-0.4,2.7
			c-0.2,0-0.3,0.1-0.5,0.1c-0.3,0-0.7,0-1.3,0l-4.3,0C-39.2,0.5-39.7,0.5-40.3,0.6"/>
		<path class="st1" d="M-26.4,0.1v0.5c-1.1,0-1.9,0-2.3,0l-2.5,0V0.1c0.4,0,0.8,0,1.1-0.1c0.1,0,0.2-0.1,0.3-0.2
			c0.1-0.2,0.1-0.5,0.1-0.8c0-0.1,0-0.8,0-2.2v-3.6c0-0.7,0-1.4,0-2.1c0-0.3,0-0.6-0.1-0.9c-0.1-0.1-0.2-0.2-0.3-0.2
			c-0.4-0.1-0.8-0.1-1.1-0.1v-0.5c1,0,1.8,0,2.4,0c0.5,0,1.3,0,2.4,0v0.5c-0.4,0-0.8,0-1.2,0.1c-0.1,0-0.2,0.1-0.3,0.2
			C-27.9-9.5-28-9.2-28-9c0,0.1,0,0.8,0,2.2v3.6c0,0.7,0,1.4,0,2.1c0,0.3,0,0.6,0.1,0.9c0.1,0.1,0.2,0.2,0.3,0.2
			C-27.2,0.1-26.8,0.1-26.4,0.1 M-28-9c0,0.1,0,0.8,0,2.2v3.6"/>
		<path class="st1" d="M-24.6,0.6V0.1c0.4,0,0.8,0,1.1-0.1c0.1,0,0.1-0.1,0.2-0.1c0.1-0.3,0.1-0.5,0.1-0.8c0-0.7,0-1.3,0-1.8v-6.3
			c0-0.1,0-0.2,0-0.3c-0.1-0.1-0.2-0.2-0.3-0.3c-0.1-0.1-0.2-0.1-0.3-0.2c-0.3,0-0.6,0-0.8,0v-0.5c0.9,0,1.5,0,1.8,0
			c0.4,0,0.8,0,1.2,0c0.5,0.6,0.8,1,1,1.3l1.7,2l2.4,2.8c0.8,0.9,1.4,1.6,1.9,2.1c0.3,0.3,0.5,0.6,0.8,0.8v-5.7c0-0.5,0-1.1,0-1.8
			c0-0.3,0-0.5-0.1-0.8c0-0.1-0.1-0.1-0.2-0.2c-0.4-0.1-0.7-0.1-1.1-0.1v-0.5c0.6,0,1.3,0,1.9,0c0.6,0,1.2,0,1.7,0v0.5
			c-0.4,0-0.8,0-1.1,0.1c-0.1,0-0.1,0.1-0.2,0.2c-0.1,0.3-0.1,0.5-0.1,0.8c0,0.7,0,1.3,0,1.8v3.7c0,0.8,0,2.2,0,4.2H-14l-0.2-0.2
			c0,0-0.1-0.1-0.1-0.1c-0.1-0.1-0.2-0.2-0.3-0.3c-0.4-0.5-0.8-0.9-1-1.1l-1-1.3l-5.7-6.7v6c0,0.5,0,1.1,0.1,1.8
			c0,0.3,0,0.5,0.1,0.8c0,0.1,0.1,0.1,0.2,0.2c0.4,0.1,0.7,0.1,1.1,0.1v0.5c-0.5,0-1,0-1.6,0C-23.2,0.5-23.9,0.5-24.6,0.6"/>
		<path class="st1" d="M-5.7,0.1v0.5c-1.1,0-1.9,0-2.3,0l-2.5,0V0.1c0.4,0,0.8,0,1.2-0.1C-9.2,0-9.1-0.1-9-0.2
			c0.1-0.2,0.1-0.5,0.1-0.8c0-0.1,0-0.8,0-2.2v-3.6c0-0.7,0-1.4,0-2.1c0-0.3,0-0.6-0.1-0.9c-0.1-0.1-0.2-0.2-0.3-0.2
			C-9.7-10-10-10-10.4-10v-0.5c1,0,1.8,0,2.4,0c0.5,0,1.3,0,2.4,0v0.5c-0.4,0-0.8,0-1.2,0.1c-0.1,0-0.2,0.1-0.3,0.2
			C-7.2-9.5-7.3-9.2-7.2-9c0,0.1,0,0.8,0,2.2v3.6c0,0.7,0,1.4,0,2.1c0,0.3,0,0.6,0.1,0.9C-7.1-0.1-7,0-6.8,0
			C-6.5,0.1-6.1,0.1-5.7,0.1"/>
		<path class="st1" d="M5.9-0.8L5.6-0.1C5,0.2,4.4,0.4,3.7,0.6c-0.7,0.1-1.3,0.2-2,0.2c-0.8,0-1.6-0.1-2.3-0.3
			C-1.3,0.3-1.9,0-2.5-0.4C-3.5-1-4.2-2-4.6-3.2C-4.8-3.7-4.9-4.3-4.9-5C-4.9-6.5-4.2-8-3.1-9c1.4-1.1,3.1-1.7,4.9-1.6
			c0.5,0,0.9,0,1.4,0.1c0.5,0.1,1,0.2,1.5,0.3c0.6,0.2,1,0.2,1.1,0.3C5.8-9.7,5.7-9.5,5.6-9.2c-0.1,0.5-0.2,1-0.2,1.5H5l0-0.9
			c-0.1-0.5-0.4-1-0.9-1.1C3.3-10,2.5-10.1,1.7-10c-0.7,0-1.3,0.1-2,0.3c-0.5,0.2-1,0.5-1.4,0.8c-0.4,0.4-0.8,0.9-1,1.5
			C-3-6.8-3.1-6-3.1-5.2c-0.1,1.4,0.5,2.8,1.5,3.8c1.1,1,2.5,1.5,4,1.4c0.7,0,1.4-0.1,2.1-0.3C4.9-0.5,5.4-0.7,5.8-1L5.9-0.8z"/>
		<path class="st1" d="M-42.3-0.8l-0.3,0.7c-0.6,0.3-1.2,0.5-1.9,0.7c-0.7,0.1-1.3,0.2-2,0.2c-0.8,0-1.6-0.1-2.3-0.3
			c-0.7-0.2-1.3-0.5-1.9-0.9c-0.5-0.3-1-0.8-1.3-1.3c-0.3-0.5-0.6-1-0.8-1.5C-52.9-3.7-53-4.3-53-5c0-1.6,0.6-3.1,1.8-4.1
			c1.4-1.1,3.1-1.7,4.9-1.6c0.5,0,0.9,0,1.4,0.1c0.5,0.1,1,0.2,1.5,0.3c0.6,0.2,1,0.2,1.1,0.3c-0.1,0.3-0.2,0.5-0.3,0.8
			c-0.1,0.5-0.2,1-0.2,1.5h-0.5l0-0.9c-0.1-0.5-0.4-1-0.9-1.1c-0.7-0.3-1.5-0.4-2.3-0.4c-0.7,0-1.3,0.1-2,0.3
			c-0.5,0.2-1,0.5-1.4,0.8c-0.4,0.4-0.8,0.9-1,1.5c-0.3,0.7-0.4,1.5-0.4,2.2c-0.1,1.4,0.5,2.8,1.5,3.8c1.1,1,2.5,1.5,4,1.4
			c0.7,0,1.4-0.1,2.1-0.3c0.5-0.1,0.9-0.4,1.3-0.6L-42.3-0.8z"/>
		<path class="st1" d="M-48.4-24.6v-0.5c0.6,0,1.1,0.1,1.6,0.1c0.5,0,1,0,1.5-0.1c0.5,1,0.9,1.9,1.3,2.7l3.1,6l2.8-5.5
			c0.8-1.5,1.3-2.6,1.5-3.2c0.6,0,1.1,0.1,1.5,0.1c0.4,0,0.9,0,1.8-0.1v0.5c-0.4,0-0.8,0-1.2,0.1c-0.1,0-0.2,0.1-0.3,0.2
			c-0.1,0.2-0.1,0.5-0.1,0.7c0,0.1,0,0.8,0,2.2v3.6c0,0.7,0,1.4,0,2c0,0.3,0,0.6,0.1,0.9c0.1,0.1,0.2,0.2,0.3,0.2
			c0.4,0.1,0.8,0.1,1.2,0.1v0.5c-1.1,0-1.9-0.1-2.3-0.1c-0.4,0-1.2,0-2.4,0.1v-0.5c0.4,0,0.8,0,1.2-0.1c0.1,0,0.2-0.1,0.3-0.2
			c0.1-0.2,0.1-0.5,0.1-0.7c0-0.1,0-0.8,0-2.2v-5.7l-2.8,5.6c-0.4,0.9-0.8,1.6-1,2.1c-0.2,0.4-0.4,1-0.8,1.8h-0.3
			c-0.1-0.2-0.1-0.3-0.2-0.5l-0.6-1.1l-3.9-7.7v5.4c0,0.7,0,1.4,0.1,2.1c0,0.3,0,0.6,0.1,0.9c0.1,0.1,0.2,0.2,0.3,0.2
			c0.4,0.1,0.8,0.1,1.2,0.1v0.5l-2-0.1l-2,0.1v-0.5c0.4,0,0.8,0,1.2-0.1c0.1,0,0.2-0.1,0.3-0.2c0.1-0.2,0.1-0.5,0.1-0.7
			c0-0.1,0-0.8,0-2.2v-3.6c0-0.7,0-1.4,0-2c0-0.3,0-0.6-0.1-0.9c-0.1-0.1-0.2-0.2-0.3-0.2C-47.6-24.6-48-24.7-48.4-24.6"/>
		<path class="st1" d="M-31.1-14.2c0.5,0,1.1,0,2.1,0.1v-0.5c-0.4,0-0.7,0-1.1-0.1c-0.1,0-0.2-0.1-0.3-0.1c0,0-0.1-0.1-0.1-0.2
			c0-0.3,0.1-0.5,0.2-0.8l0.9-2h4.7l1,2.4c0.1,0.1,0.1,0.3,0.1,0.4c0,0.1,0,0.1-0.1,0.2c-0.1,0.1-0.2,0.1-0.3,0.1
			c-0.4,0-0.7,0.1-1.1,0.1v0.5l2.6-0.1c0.3,0,0.9,0,1.8,0.1v-0.5c-0.3,0-0.6,0-0.8-0.1c-0.1-0.1-0.3-0.2-0.3-0.4
			c-0.2-0.3-0.6-1.1-1.1-2.4l-3.5-7.8h-0.5c-0.7,1.7-1.2,2.7-1.4,3.2l-2,4.4c-0.6,1.3-1,2-1.1,2.2c-0.1,0.2-0.2,0.4-0.4,0.6
			c-0.1,0.1-0.2,0.1-0.3,0.2c-0.3,0-0.5,0.1-0.8,0.1v0.5C-32.2-14.2-31.6-14.2-31.1-14.2 M-27-23.1l2,4.7H-29L-27-23.1z"/>
		<path class="st1" d="M-13.8-23.5c0.2-0.3,0.4-0.6,0.5-0.9c0-0.1-0.1-0.2-0.2-0.2c-0.4-0.1-0.8-0.1-1.2-0.1v-0.5c1,0,1.6,0,2.2,0
			c0.5,0,0.8,0,1.9,0v0.5c-0.3,0-0.7,0-1,0.1c-0.1,0-0.3,0.1-0.4,0.2c-0.2,0.2-0.5,0.5-0.6,0.8l-2.4,3.4c-0.3,0.4-0.5,0.9-0.8,1.3
			c-0.1,0.1-0.1,0.3-0.1,0.5v0.6c0,0.7,0,1.4,0,2c0,0.3,0,0.6,0.1,0.9c0.1,0.1,0.2,0.2,0.3,0.2c0.4,0.1,0.8,0.1,1.1,0.1v0.5
			c-0.9,0-1.6-0.1-2.3-0.1c-0.6,0-1.4,0-2.4,0.1v-0.5c0.4,0,0.8,0,1.2-0.1c0.1,0,0.2-0.1,0.3-0.2c0.1-0.2,0.1-0.5,0.1-0.7
			c0-0.1,0-0.8,0-2.2v-0.9c-0.1-0.2-0.2-0.4-0.3-0.6c-0.1-0.1-0.4-0.6-0.8-1.3l-2.1-2.9c-0.2-0.3-0.3-0.5-0.6-0.8
			c-0.1-0.1-0.3-0.2-0.4-0.2c-0.3-0.1-0.7-0.1-1-0.1v-0.5c1.1,0,1.4,0,1.9,0c0.6,0,2,0,3,0v0.5c-0.4,0-0.9,0-1.3,0.1
			c-0.1,0-0.2,0.1-0.2,0.2c0.1,0.3,0.2,0.6,0.4,0.9l2.4,3.9L-13.8-23.5z"/>
		<path class="st1" d="M-8.9-22.6c0.3-0.7,0.8-1.2,1.5-1.6c0.7-0.4,1.5-0.6,2.3-0.5c0.6,0,1.1,0.1,1.7,0.3c0.5,0.1,0.9,0.4,1.2,0.6
			c0.3,0.3,0.6,0.6,0.8,0.9c0.2,0.4,0.4,0.7,0.6,1.1c0.2,0.7,0.3,1.5,0.3,2.3c0,0.9-0.1,1.7-0.5,2.5c-0.3,0.7-0.8,1.3-1.4,1.7
			c-0.7,0.4-1.5,0.6-2.3,0.6c-0.6,0-1.2-0.1-1.7-0.3c-0.5-0.2-1-0.5-1.4-0.9c-0.4-0.4-0.8-1-1-1.6c-0.2-0.4-0.3-0.9-0.4-1.3
			c-0.1-0.5-0.2-1-0.2-1.5C-9.4-21.1-9.3-21.9-8.9-22.6 M-10.7-17.4c0.2,0.7,0.6,1.4,1.2,1.9c0.5,0.5,1.2,0.9,1.9,1.2
			c0.8,0.3,1.6,0.4,2.4,0.4c1.7,0.1,3.4-0.6,4.6-1.7c1.2-1.1,1.9-2.7,1.8-4.3c0-0.5-0.1-1-0.2-1.5c-0.1-0.4-0.3-0.9-0.5-1.2
			c-0.3-0.5-0.7-0.9-1.1-1.3c-0.5-0.4-1.1-0.8-1.8-0.9c-0.8-0.2-1.6-0.4-2.4-0.4c-0.9,0-1.7,0.1-2.6,0.4c-0.7,0.3-1.4,0.7-2,1.2
			c-0.6,0.5-1,1.2-1.3,1.9C-11.2-20.4-11.2-18.9-10.7-17.4"/>
	</g>
</g>
</svg>
