<?xml version="1.0" encoding="utf-8"?>
<!-- Generator: Adobe Illustrator 26.2.1, SVG Export Plug-In . SVG Version: 6.00 Build 0)  -->
<svg version="1.1" id="SvgjsSvg1203" xmlns:svgjs="http://svgjs.com/svgjs"
	 xmlns="http://www.w3.org/2000/svg" xmlns:xlink="http://www.w3.org/1999/xlink" x="0px" y="0px" viewBox="0 0 239 188"
	 style="enable-background:new 0 0 239 188;" xml:space="preserve">
<style type="text/css">
	.st0{fill:#FFFFFF;}
	.st1{fill:none;stroke:#000000;stroke-width:1.0138;stroke-miterlimit:4.4467;}
	.st2{fill:#BB8760;}
	.st3{fill:none;stroke:#000000;stroke-width:0.7373;stroke-miterlimit:4.4467;}
	.st4{fill:none;stroke:#FFFFFF;stroke-width:0.6106;stroke-miterlimit:4.4467;}
	.st5{fill:none;stroke:#000000;stroke-width:1.0829;stroke-miterlimit:4.4467;}
	.st6{fill:none;stroke:#000000;stroke-width:1.0944;stroke-miterlimit:4.4467;}
	.st7{fill:none;stroke:#000000;stroke-width:2.3846;stroke-miterlimit:4.4467;}
	.st8{fill:none;stroke:#000000;stroke-width:1.0368;stroke-miterlimit:4.4467;}
</style>
<g id="SvgjsG1205">
	<g>
		<path class="st0" d="M115.9,140.9c-57.5-30.1-58-71.1-58-135h115.7C173.6,69.8,173.6,110.9,115.9,140.9"/>
		<path class="st1" d="M115.9,140.9c-57.5-30.1-58-71.1-58-135h115.7C173.6,69.8,173.6,110.9,115.9,140.9z"/>
		<path class="st2" d="M115.9,135.8C60.1,107.1,62.2,59,62.2,10.5h107.4C169.6,59.9,171.2,107.1,115.9,135.8"/>
		<path class="st3" d="M115.9,135.8C60.1,107.1,62.2,59,62.2,10.5h107.4C169.6,59.9,171.2,107.1,115.9,135.8z"/>
		<path class="st0" d="M96.9,87.8c0.3-0.3,0.3,0.3,0.3,0.8V98c0,0.8-0.5,1.1-1.3,1.1h-1.6v0.8c2.4,0,3.5,0,4.3,0c0.8,0,1.9,0,3.8,0
			V99h-1.3c-0.8,0-1.3-0.3-1.3-1.1v-7c0-2.7,0.3-4.3,0.3-5.4l-0.3-0.3c-2.1,0.8-4.3,1.6-6.4,2.1c0,0.5,0,1.1,0.3,1.6L96.9,87.8z
			 M110.3,93.9c1.3,0.5,2.4,1.1,2.4,2.7c0,1.3-1.1,2.4-2.1,2.4l0,0c-1.6,0-2.7-1.3-2.7-2.7l0,0c0-1.1,0.5-2.1,1.6-3L110.3,93.9z
			 M110.3,91c-1.1-0.5-2.1-1.1-2.1-2.4c0-1.1,0.8-1.9,1.9-1.9h0.3c1.1,0,2.1,1.1,2.1,2.1v0.3c0,0.8-0.5,1.9-1.3,2.1L110.3,91z
			 M110.6,85.6c-3,0-4.6,1.6-4.6,4c0,1.3,0.8,2.7,2.1,3.2c-1.3,0.5-2.4,1.9-2.7,3.5c0,1.9,1.3,3.8,4.3,3.8c2.7,0,4.8-1.9,5.1-4.6
			v-0.3c0-1.6-1.1-3.2-2.7-3.8c1.1-0.5,1.9-1.6,2.1-3C114.3,86.7,112.4,85.6,110.6,85.6 M121,87.8c0.3-0.3,0.3,0.3,0.3,0.8V98
			c0,0.8-0.5,1.1-1.3,1.1h-1.6v0.8c2.4,0,3.5,0,4.3,0s1.9,0,3.8,0V99H125c-0.8,0-1.3-0.3-1.3-1.1v-7c0-2.7,0.3-4.3,0.3-5.4l-0.3-0.3
			c-2.1,0.8-4.3,1.6-6.4,2.1c0,0.5,0,1.1,0.3,1.6L121,87.8z M132.3,87.8c0.3-0.3,0.3,0.3,0.3,0.8V98c0,0.8-0.5,1.1-1.3,1.1h-1.6v0.8
			c2.4,0,3.5,0,4.3,0c0.8,0,1.9,0,3.8,0V99h-1.3c-0.8,0-1.3-0.3-1.3-1.1v-7c0-2.7,0.3-4.3,0.3-5.4l-0.3-0.3
			c-2.1,0.8-4.3,1.6-6.4,2.1c0,0.5,0,1.1,0.3,1.6L132.3,87.8z M128.8,66.8c0-0.8,0.5-1.1,1.6-1.1v-1.1c-1.6,0-3.5,0-5.1,0
			c-1.6,0-3.2,0-4.8,0V66h1.6c1.1,0,1.9,0.3,1.9,1.3v4.3c-1.3,0.5-2.7,0.8-4.3,0.8c-5.9,0-8.9-5.1-8.9-10.7c0-5.1,3-9.1,8.3-9.1
			c2.7,0,5.6,0.8,7,2.1l0.3,3h1.3c0.3-1.6,0.5-3.5,0.8-5.1l-0.3-0.3c-3-1.1-5.9-1.6-9.1-1.6c-7,0-13.2,3.8-13.2,11.3
			c0,7.8,5.4,12.1,12.9,12.1c3.2,0,6.4-0.8,9.7-1.9L128.8,66.8z"/>
		<path class="st4" d="M128.8,66.8c0-0.8,0.5-1.1,1.6-1.1v-1.1c-1.6,0-3.5,0-5.1,0c-1.6,0-3.2,0-4.8,0V66h1.6c1.1,0,1.9,0.3,1.9,1.3
			v4.3c-1.3,0.5-2.7,0.8-4.3,0.8c-5.9,0-8.9-5.1-8.9-10.7c0-5.1,3-9.1,8.3-9.1c2.7,0,5.6,0.8,7,2.1l0.3,3h1.3
			c0.3-1.6,0.5-3.5,0.8-5.1l-0.3-0.3c-3-1.1-5.9-1.6-9.1-1.6c-7,0-13.2,3.8-13.2,11.3c0,7.8,5.4,12.1,12.9,12.1
			c3.2,0,6.4-0.8,9.7-1.9L128.8,66.8z"/>
		<path class="st0" d="M102.8,33c0-5.6,6.2-10.2,13.7-10.2c7.5,0,13.7,4.6,13.7,10.2c0,5.6-6.2,10.2-13.7,10.2
			C108.9,43.2,102.8,38.6,102.8,33"/>
		<path class="st5" d="M102.8,33c0-5.6,6.2-10.2,13.7-10.2c7.5,0,13.7,4.6,13.7,10.2c0,5.6-6.2,10.2-13.7,10.2
			C108.9,43.2,102.8,38.6,102.8,33z"/>
		<rect x="100.3" y="29.5" class="st0" width="32.8" height="8.9"/>
		<rect x="100.3" y="29.5" class="st6" width="32.8" height="8.9"/>
		<polygon class="st0" points="84.2,43.2 116.5,33.3 148.7,43.2 		"/>
		<polygon class="st7" points="84.2,43.2 116.5,33.3 148.7,43.2 		"/>
		<path class="st0" d="M112.4,23.1h8.1c0-2.7-2.1-4.8-4-6.7C114.6,18.2,112.4,20.4,112.4,23.1"/>
		<path class="st8" d="M112.4,23.1h8.1c0-2.7-2.1-4.8-4-6.7C114.6,18.2,112.4,20.1,112.4,23.1z"/>
		<path class="st0" d="M101.7,55.6c0-0.8,0-1.9,0.3-2.7c0.3-0.3,0.5-0.5,1.3-0.5h1.3v-1.1c-1.6,0-3,0-3.8,0c-0.8,0-2.1,0-3.8,0
			c-0.5,1.1-1.1,2.4-1.6,3.8l-5.9,12.3l-5.1-10.7c-0.8-1.6-1.9-4-2.4-5.4c-1.3,0-2.7,0-4,0c-1.3,0-2.7,0-4,0v1.1h1.3
			c0.8,0,1.1,0.3,1.3,0.5c0.3,0.8,0.3,1.9,0.3,2.7V69c0,0.8,0,1.9-0.3,2.7c-0.3,0.3-0.5,0.5-1.3,0.5h-1.1v1.3c1.3,0,2.4,0,3.8,0
			c1.3,0,2.4,0,3.8,0v-1.3h-1.3c-0.8,0-1.1-0.3-1.3-0.5c-0.3-0.8-0.3-1.9-0.3-2.7V55.3l0,0l7.5,15.6c0.5,0.8,0.8,1.9,1.1,2.7h1.1
			c0.5-1.3,1.3-3,1.9-4.3l6.7-14l0,0v13.4c0,0.8,0,1.9-0.3,2.7c0,0.3-0.5,0.3-1.3,0.5h-1.3v1.3c1.3,0,3.2,0,5.1,0c1.9,0,3.8,0,5.1,0
			v-1.3H103c-0.8,0-1.3-0.3-1.3-0.5c-0.3-0.8-0.3-1.9-0.3-2.7L101.7,55.6z"/>
		<path class="st4" d="M101.7,55.6c0-0.8,0-1.9,0.3-2.7c0.3-0.3,0.5-0.5,1.3-0.5h1.3v-1.1c-1.6,0-3,0-3.8,0c-0.8,0-2.1,0-3.8,0
			c-0.5,1.1-1.1,2.4-1.6,3.8l-5.9,12.3l-5.1-10.7c-0.8-1.6-1.9-4-2.4-5.4c-1.3,0-2.7,0-4,0c-1.3,0-2.7,0-4,0v1.1h1.3
			c0.8,0,1.1,0.3,1.3,0.5c0.3,0.8,0.3,1.9,0.3,2.7V69c0,0.8,0,1.9-0.3,2.7c-0.3,0.3-0.5,0.5-1.3,0.5h-1.1v1.3c1.3,0,2.4,0,3.8,0
			c1.3,0,2.4,0,3.8,0v-1.3h-1.3c-0.8,0-1.1-0.3-1.3-0.5c-0.3-0.8-0.3-1.9-0.3-2.7V55.3l0,0l7.5,15.6c0.5,0.8,0.8,1.9,1.1,2.7h1.1
			c0.5-1.3,1.3-3,1.9-4.3l6.7-14l0,0v13.4c0,0.8,0,1.9-0.3,2.7c0,0.3-0.5,0.3-1.3,0.5h-1.3v1.3c1.3,0,3.2,0,5.1,0c1.9,0,3.8,0,5.1,0
			v-1.3H103c-0.8,0-1.3-0.3-1.3-0.5c-0.3-0.8-0.3-1.9-0.3-2.7L101.7,55.6z"/>
		<path class="st0" d="M140.4,55.6c0-0.8,0-1.9,0.3-2.7c0.3-0.3,0.5-0.3,1.3-0.5h1.3V51c-1.3,0-3.2,0-5.1,0s-3.8,0-5.1,0v1.3h1.3
			c0.8,0,1.3,0.3,1.3,0.5c0.3,0.8,0.3,1.9,0.3,2.7V69c0,0.8,0,1.9-0.3,2.7c0,0.3-0.5,0.3-1.3,0.5h-1.3v1.3c1.3,0,3.2,0,5.1,0
			c1.9,0,3.8,0,5.1,0v-1.3H142c-0.8,0-1.3-0.3-1.3-0.5c-0.3-0.8-0.3-1.9-0.3-2.7v-6.2c0.5,0,1.1,0,2.7,0h4.8c1.6,0,2.1,0,2.7,0V69
			c0,0.8,0,1.9-0.3,2.7c-0.3,0.3-0.5,0.3-1.3,0.5h-1.3v1.3c1.3,0,3.2,0,5.1,0c1.9,0,3.8,0,5.1,0v-1.3h-1.3c-0.8,0-1.3-0.3-1.3-0.5
			c-0.3-0.8-0.3-1.9-0.3-2.7V55.6c0-0.8,0-1.9,0.3-2.7c0-0.3,0.5-0.3,1.3-0.5h1.3V51c-1.3,0-3.2,0-5.1,0c-1.9,0-3.8,0-5.1,0v1.3h1.3
			c0.8,0,1.3,0.3,1.3,0.5c0.3,0.8,0.3,1.9,0.3,2.7v5.1c-0.5,0-1.1,0-2.7,0H143c-1.6,0-2.1,0-2.7,0C140.4,60.7,140.4,55.6,140.4,55.6
			z"/>
		<path class="st4" d="M140.4,55.6c0-0.8,0-1.9,0.3-2.7c0.3-0.3,0.5-0.3,1.3-0.5h1.3V51c-1.3,0-3.2,0-5.1,0s-3.8,0-5.1,0v1.3h1.3
			c0.8,0,1.3,0.3,1.3,0.5c0.3,0.8,0.3,1.9,0.3,2.7V69c0,0.8,0,1.9-0.3,2.7c0,0.3-0.5,0.3-1.3,0.5h-1.3v1.3c1.3,0,3.2,0,5.1,0
			c1.9,0,3.8,0,5.1,0v-1.3H142c-0.8,0-1.3-0.3-1.3-0.5c-0.3-0.8-0.3-1.9-0.3-2.7v-6.2c0.5,0,1.1,0,2.7,0h4.8c1.6,0,2.1,0,2.7,0V69
			c0,0.8,0,1.9-0.3,2.7c-0.3,0.3-0.5,0.3-1.3,0.5h-1.3v1.3c1.3,0,3.2,0,5.1,0c1.9,0,3.8,0,5.1,0v-1.3h-1.3c-0.8,0-1.3-0.3-1.3-0.5
			c-0.3-0.8-0.3-1.9-0.3-2.7V55.6c0-0.8,0-1.9,0.3-2.7c0-0.3,0.5-0.3,1.3-0.5h1.3V51c-1.3,0-3.2,0-5.1,0c-1.9,0-3.8,0-5.1,0v1.3h1.3
			c0.8,0,1.3,0.3,1.3,0.5c0.3,0.8,0.3,1.9,0.3,2.7v5.1c-0.5,0-1.1,0-2.7,0H143c-1.6,0-2.1,0-2.7,0C140.4,60.7,140.4,55.6,140.4,55.6
			z"/>
		<path d="M18.8,181.4c0,0.3,0,0.6-0.1,0.9c-0.1,0.3-1.4,0.8-3.1,0.8c-4.5,0-7.1-3.1-7.1-7.5c0-3.9,2.2-6.7,6.3-6.7
			c1,0,2.1,0.1,3.1,0.3c1,0.3,1.8,0.7,1.8,1.7v1.2h0.7c0-1.2,0.1-2.3,0.5-3.3c-1.7-0.6-3.6-0.9-5.4-0.9c-5.3,0-9.3,3.1-9.3,7.9
			c0,5.5,3.9,8.1,8.9,8.1c1.5,0,3.9-0.6,5.8-1.2v-3.7c0-0.7,0-0.7,0.2-0.8l0.7-0.2l-0.1-0.6c-0.9,0-1.8,0-2.6,0c-0.9,0-1.7,0-2.6,0
			v0.7l1.8,0.1c0.6,0,0.7,0.2,0.7,0.8V181.4z M25.5,180.8c0,0.6,0,1.2-0.2,1.6c-0.1,0.2-0.3,0.2-0.9,0.3l-0.8,0.1v0.7
			c0.8,0,1.5-0.1,2.3-0.1c1.4,0,3.1,0,4.8,0.1c1.7,0.1,3.3,0,4.4-0.1c0-1.3,0.1-2.4,0.3-3.6h-0.8c-0.1,1.3-0.5,2.3-0.8,2.4
			c-0.3,0.1-2.6,0.2-4.5,0.2c-0.6,0-1.3,0-1.8-0.1v-6.2c0.7-0.1,1.5-0.1,2.5-0.1c1.4,0,2.1,0.1,2.3,0.2c0.1,0.1,0.1,0.2,0.2,0.6
			l0.1,1.3h0.7c0-0.8-0.1-1.6-0.1-2.4c0-0.8,0-1.6,0.1-2.5h-0.7l-0.1,1.2c0,0.2-0.1,0.5-0.2,0.6c-0.2,0.1-1,0.2-2.3,0.2
			c-1,0-1.8,0-2.5-0.1v-5.9c0.6-0.1,1.3-0.2,1.8-0.2c1.4,0,3.1,0,4.3,0.5c0.2,0.1,0.2,0.3,0.2,0.6v1.4h0.8c0-1.2,0.1-2.3,0.3-3.3
			c-0.8,0-1.8-0.1-2.9-0.1c-1.3,0-3.2,0.1-5.2,0.1c-1.3,0-2.5,0-3.7-0.1v0.7l1,0.1c0.6,0,0.8,0.1,0.9,0.3c0.2,0.6,0.2,1,0.2,1.6
			L25.5,180.8z M39.5,180.8c0,0.6,0,1.2-0.2,1.6c-0.1,0.2-0.3,0.2-0.9,0.3l-0.9,0.1v0.7c0.9,0,1.7-0.1,2.5-0.1c0.9,0,1.7,0,2.6,0.1
			v-0.7l-0.9-0.1c-0.6,0-0.8-0.1-0.9-0.3c-0.2-0.6-0.2-1.2-0.2-1.6v-10.1l0,0l10.4,12.9l2,0.3c0-0.2-0.1-0.6-0.1-0.8V171
			c0-0.8,0-1.4,0.2-1.6c0.1-0.2,0.3-0.2,0.9-0.3l0.9-0.1v-0.7c-0.9,0-1.7,0.1-2.6,0.1c-0.8,0-1.7,0-2.5-0.1v0.7l0.9,0.1
			c0.6,0,0.8,0.1,0.9,0.3c0.2,0.6,0.2,1.2,0.2,1.7v10.3h-0.1l-10.6-13c-0.3,0-0.8,0.1-1.2,0.1c-0.8,0-1.7,0-2.6-0.1v0.7l0.9,0.1
			c0.6,0,0.8,0.1,0.9,0.3c0.1,0.2,0.2,0.8,0.2,1.6L39.5,180.8z M58.8,180.8c0,0.6,0,1.2-0.2,1.6c-0.1,0.2-0.3,0.2-0.9,0.3l-0.8,0.1
			v0.7c0.8,0,1.5-0.1,2.3-0.1c1.4,0,3.1,0,4.8,0.1c1.7,0,3.3,0,4.4-0.1c0-1.3,0.1-2.4,0.3-3.6h-0.8c-0.1,1.3-0.5,2.3-0.8,2.4
			c-0.3,0.2-2.6,0.2-4.5,0.2c-0.6,0-1.3,0-1.8-0.1v-6.2c0.7-0.1,1.5-0.1,2.5-0.1c1.4,0,2.1,0.1,2.3,0.2c0.1,0.1,0.1,0.2,0.2,0.6
			l0.1,1.3h0.7c0-0.8-0.1-1.6-0.1-2.4c0-0.8,0-1.6,0.1-2.5h-0.7l-0.1,1.2c0,0.2-0.1,0.5-0.2,0.6c-0.2,0.1-1,0.2-2.3,0.2
			c-1,0-1.8,0-2.5-0.1v-5.9c0.6-0.1,1.3-0.2,1.8-0.2c1.4,0,3.1,0,4.3,0.5c0.1,0.1,0.2,0.3,0.2,0.6v1.4h0.8c0-1.2,0.1-2.3,0.3-3.3
			c-0.8,0-1.8-0.1-2.9-0.1c-1.3,0-3.2,0.1-5.2,0.1c-1.3,0-2.5,0-3.7-0.1v0.7l1,0.1c0.6,0,0.8,0.1,0.9,0.3c0.2,0.6,0.2,1.2,0.2,1.7
			v10H58.8z M75.2,169.4c0.7-0.2,1.5-0.2,2.2-0.2c1.7,0,3.5,0.7,3.5,3c0,1.6-1.3,2.8-2.9,3.1c-0.7,0.1-1.3,0.1-2,0.1l-0.1,0.2
			c0.3,0.5,0.8,0.9,1.2,1.4l4,5.4c0.2,0.3,0.6,0.8,0.9,1.2c0.5,0,1-0.1,1.5-0.1c0.5,0,1,0,1.6,0.1v-0.7c-0.5,0-1-0.2-1.4-0.6l-5-6.6
			c2.2-0.5,4.3-1.8,4.3-4.3c0-1.6-0.9-3.3-4.5-3.3c-1.3,0-2.5,0.1-3.8,0.1s-2.5,0-3.7-0.1v0.7l0.9,0.1c0.6,0,0.8,0.1,0.9,0.3
			c0.1,0.2,0.2,0.8,0.2,1.6v9.9c0,0.8,0,1.4-0.2,1.6c-0.1,0.2-0.3,0.3-0.9,0.3l-1,0.1v0.7c1.2,0,2.2-0.1,3.2-0.1c1,0,2.1,0,3.2,0.1
			v-0.7l-1-0.1c-0.6,0-0.8-0.1-0.9-0.3s-0.2-0.8-0.2-1.6L75.2,169.4z"/>
		<path d="M93.7,168.1H93c-0.6,1.6-1.4,3.2-2.1,4.7l-3.9,8.9c-0.1,0.6-0.6,0.9-1.2,1l-0.8,0.1v0.7c0.8,0,1.7-0.1,2.5-0.1
			c0.7,0,1.5,0,2.5,0.1v-0.7l-0.8-0.1c-0.7-0.1-1-0.1-1-0.6c0.2-0.8,0.5-1.6,0.8-2.3l0.6-1.5H96l1,2.5c0.2,0.5,0.3,0.9,0.5,1.4
			c0,0.2-0.5,0.5-0.9,0.5l-1,0.1v0.7c1.2,0,2.2-0.1,2.9-0.1c1,0,2,0,2.9,0.1v-0.7l-0.7-0.1c-0.3,0-0.7-0.3-0.9-0.7
			c-0.2-0.5-0.5-1-0.7-1.5L93.7,168.1z M90,177.6l2.8-6.6l2.8,6.6H90z M106.8,171c0-0.6,0-1.2,0.2-1.6c0.1-0.2,0.3-0.3,0.9-0.3
			l1-0.1v-0.7c-1.2,0-2.2,0.1-3.2,0.1c-1,0-2.1,0-3.2-0.1v0.7l1,0.1c0.6,0,0.8,0.1,0.9,0.3c0.2,0.6,0.2,1.2,0.2,1.6v10.5
			c0.1,0.5-0.1,1-0.6,1.3l-0.7,0.3v0.5c0.6,0,1.2-0.1,1.8-0.1c1.4,0,2.8,0,4.8,0.1c1.6,0,3.3,0,4.4-0.1c0.2-1.2,0.3-2.5,0.5-3.8
			h-0.7l-0.2,1.2c-0.1,0.5-0.2,1.3-0.5,1.4c-0.3,0.3-3.1,0.5-4.8,0.5c-0.6,0-1.3,0-1.8-0.1L106.8,171z M136.5,171
			c0-0.6,0-1.2,0.2-1.6c0.1-0.2,0.3-0.3,0.9-0.3l1-0.1v-0.7c-1.2,0-2.2,0.1-3.2,0.1c-1,0-2.1,0-3.2-0.1v0.7l1,0.1
			c0.6,0,0.8,0.1,0.9,0.3c0.2,0.6,0.2,1,0.2,1.6v3.9c-0.2,0-0.8,0-1.8,0h-5.2c-0.9,0-1.6,0-1.8,0V171c0-0.6,0-1.2,0.2-1.6
			c0.1-0.2,0.3-0.3,0.9-0.3l1-0.1v-0.7c-1.2,0-2.2,0.1-3.2,0.1c-1,0-2.1,0-3.2-0.1v0.7l1,0.1c0.6,0,0.8,0.1,0.9,0.3
			c0.2,0.6,0.2,1,0.2,1.6v9.9c0,0.6,0,1.2-0.2,1.6c-0.1,0.2-0.3,0.3-0.9,0.3l-1,0.1v0.7c1.2,0,2.2-0.1,3.2-0.1c1,0,2.1,0,3.2,0.1
			V183l-1-0.1c-0.6,0-0.8-0.1-0.9-0.3c-0.2-0.6-0.2-1-0.2-1.6v-5c0.2,0,0.8,0,1.8,0h5.2c0.9,0,1.6,0,1.8,0v5c0,0.6,0,1.2-0.2,1.6
			c-0.1,0.2-0.3,0.3-0.9,0.3l-1,0.1v0.7c1.2,0,2.2-0.1,3.2-0.1c1,0,2.1,0,3.2,0.1V183l-1-0.1c-0.6,0-0.8-0.1-0.9-0.3
			c-0.2-0.6-0.2-1-0.2-1.6V171z M147.5,183.9c4.6,0,8.4-3.7,8.5-8.3c0-0.1,0-0.1,0-0.2c0-4.8-3.3-7.5-8.1-7.5
			c-5.1,0-8.3,3.5-8.3,8.1C139.6,180.8,143,183.9,147.5,183.9 M147.6,168.8c4.1,0,6.1,2.9,6.1,7.3c0,4-1.7,6.9-5.4,6.9
			c-4.4,0-6.2-4-6.2-7.9C142.1,171.5,143.8,168.8,147.6,168.8 M167.4,171.9c0-1,0.1-2.1,0.3-3.1c-1.3-0.6-2.6-0.9-4-0.9
			c-2.6,0-5.6,1.6-5.6,5c0,2.3,1.4,3.3,4.8,3.8c2.2,0.2,3.9,0.8,3.9,3c0,2.2-2,3.3-3.9,3.3c-1.7,0-3.5-0.8-3.6-1.7l-0.2-1.5h-0.7
			c0,1.2,0,2.3-0.1,3.3c1.2,0.6,2.4,0.8,3.8,0.8c3.2,0,6.7-1.8,6.7-5.5c0-2.5-2-3.3-5.1-3.6c-3.2-0.4-3.9-1.5-3.6-3.4
			c0.2-1.5,1.5-2.5,2.9-2.5h0.2c0.8,0,1.6,0.1,2.4,0.6c0.8,0.5,0.9,0.7,0.9,1.3l0.1,1.3L167.4,171.9z M174.9,169.4
			c0.7-0.2,1.5-0.2,2.2-0.2c2.2,0,3.6,0.9,3.6,3.2c0.1,1.7-1.3,3.2-3.1,3.2h-0.1c-0.5,0-1-0.1-1.5-0.2l0.2,0.8
			c0.5,0.1,0.9,0.1,1.3,0.1c2.9,0,5.3-2,5.3-4.7c0-2.5-2.4-3.5-4.6-3.3c-1.2,0-2.4,0.1-3.8,0.1c-1.4,0-2.5,0-3.9-0.1v0.7l1,0.1
			c0.6,0,0.8,0.1,0.9,0.3c0.2,0.5,0.2,1,0.2,1.6v9.9c0,0.6,0,1.2-0.2,1.6c-0.1,0.2-0.3,0.3-0.9,0.3l-1,0.1v0.7
			c1.2,0,2.2-0.1,3.2-0.1c1,0,2.1,0,3.2,0.1V183l-1-0.1c-0.6,0-0.8-0.1-0.9-0.3c-0.2-0.6-0.2-1-0.2-1.6L174.9,169.4z M188.5,171
			c0-0.6,0-1.2,0.2-1.6c0.1-0.2,0.3-0.3,0.9-0.3l1-0.1v-0.7c-1.2,0-2.2,0.1-3.2,0.1c-1,0-2.1,0-3.2-0.1v0.7l1,0.1
			c0.6,0,0.8,0.1,0.9,0.3c0.2,0.6,0.2,1.2,0.2,1.6v9.9c0,0.6,0,1.2-0.2,1.6c-0.1,0.2-0.3,0.3-0.9,0.3l-1,0.1v0.7
			c1.2,0,2.2-0.1,3.2-0.1s2.1,0,3.2,0.1V183l-1-0.1c-0.6,0-0.8-0.1-0.9-0.3c-0.2-0.6-0.2-1.2-0.2-1.6V171z M197.3,180.8
			c0,0.6,0,1.2-0.2,1.6c-0.1,0.2-0.3,0.3-0.9,0.3l-1,0.1v0.7c1.2,0,2.2-0.1,3.2-0.1s2.1,0,3.2,0.1v-0.7l-1-0.1
			c-0.6,0-0.8-0.1-0.9-0.3c-0.2-0.6-0.2-1.2-0.2-1.6v-9.3c0-0.7,0-1.5,0.1-2.2h3.5c0.7,0,0.8,0.2,0.9,0.7l0.1,1.7h0.7
			c0-1.2,0-2.4,0.1-3.6c-1.6,0-3.2,0.1-4.7,0.1h-3.2c-1.6,0-3.2-0.1-4.7-0.1c0.1,1.2,0.1,2.3,0.1,3.6h0.7l0.1-1.7
			c0-0.6,0.2-0.7,0.9-0.7h3.5c0.1,0.7,0.1,1.4,0.1,2.2L197.3,180.8z M212.1,168.1h-0.7c-0.6,1.6-1.4,3.2-2.1,4.7l-3.9,8.9
			c-0.1,0.6-0.6,0.9-1.2,1l-0.8,0.1v0.7c0.8,0,1.7-0.1,2.5-0.1c0.7,0,1.5,0,2.5,0.1v-0.7l-0.8-0.1c-0.7-0.1-1-0.1-1-0.6
			c0.2-0.8,0.5-1.6,0.8-2.3l0.6-1.5h6.3l1,2.5c0.2,0.5,0.3,0.9,0.5,1.4c0,0.2-0.5,0.5-0.9,0.5l-1,0.1v0.7c1.2,0,2.2-0.1,2.9-0.1
			c1,0,2,0,2.9,0.1v-0.7l-0.8-0.1c-0.3,0-0.7-0.3-0.9-0.7c-0.2-0.5-0.5-1-0.7-1.5L212.1,168.1z M208.4,177.6l2.8-6.6l2.8,6.6H208.4z
			 M224.8,171c0-0.6,0-1.2,0.2-1.6c0.1-0.2,0.3-0.3,0.9-0.3l1-0.1v-0.7c-1.2,0-2.2,0.1-3.2,0.1c-1,0-2.1,0-3.2-0.1v0.7l1,0.1
			c0.6,0,0.8,0.1,0.9,0.3c0.2,0.6,0.2,1.2,0.2,1.6v10.5c0.1,0.5-0.1,1-0.6,1.3l-0.7,0.3v0.5c0.6,0,1.2-0.1,1.8-0.1
			c1.4,0,2.8,0,4.8,0.1c1.6,0,3.3,0,4.4-0.1c0.2-1.2,0.3-2.5,0.5-3.8h-0.7l-0.2,1.2c-0.1,0.5-0.2,1.3-0.5,1.4
			c-0.3,0.3-3.1,0.5-4.8,0.5c-0.6,0-1.3,0-1.8-0.1L224.8,171z M38.9,149.9c0-0.6,0-1.2,0.2-1.6c0.1-0.2,0.3-0.2,0.9-0.3l0.9-0.1
			v-0.7c-0.7,0-1.4,0.1-2.1,0.1s-1.4,0-2.1-0.1L31,159.3l-5.8-12.2c-0.7,0-1.4,0.1-2.1,0.1s-1.4,0-2.1-0.1v0.7l0.9,0.1
			c0.6,0,0.8,0.1,0.9,0.3c0.2,0.6,0.2,1,0.2,1.6v9.9c0,0.6,0,1.2-0.2,1.6c-0.1,0.2-0.3,0.2-0.9,0.3l-0.9,0.1v0.7
			c0.9,0,1.7-0.1,2.5-0.1c0.9,0,1.7,0,2.6,0.1v-0.7l-0.9-0.1c-0.6,0-0.8-0.1-0.9-0.3c-0.2-0.6-0.2-1-0.2-1.6v-10l0,0l6.1,12.9h0.5
			c0.3-0.9,0.8-1.8,1.2-2.8l3.9-8.3c0.3-0.6,0.6-1.3,0.9-1.8l0,0v10c0,0.6,0,1.2-0.2,1.6c-0.1,0.2-0.3,0.2-0.9,0.3l-0.7,0.1v0.7
			c0.8,0,1.8-0.1,3-0.1c1,0,2.1,0,3.2,0.1v-0.7l-1-0.1c-0.6,0-0.8-0.1-0.9-0.3c-0.2-0.6-0.2-1-0.2-1.6L38.9,149.9z"/>
		<path d="M50.1,146.7h-0.7c-0.6,1.6-1.4,3.2-2.1,4.7l-3.9,8.9c-0.1,0.6-0.6,0.9-1.2,1l-0.8,0.1v0.7c0.8,0,1.7-0.1,2.5-0.1
			c0.7,0,1.5,0,2.5,0.1v-0.7l-0.8-0.1c-0.7-0.1-1-0.1-1-0.6c0.2-0.8,0.5-1.6,0.8-2.3l0.6-1.5h6.3l1,2.5c0.2,0.5,0.3,0.9,0.5,1.4
			c0,0.2-0.5,0.5-0.9,0.5l-1,0.1v0.7c1.2,0,2.2-0.1,2.9-0.1c1,0,2,0,2.9,0.1v-0.7l-0.7-0.1c-0.3,0-0.7-0.3-0.9-0.7
			c-0.2-0.5-0.5-1-0.7-1.5L50.1,146.7z M46.4,156.2l2.8-6.6l2.8,6.6H46.4z M67.8,150.5c0-1,0.1-2.1,0.3-3.1c-1.3-0.6-2.6-0.9-4-0.9
			c-2.6,0-5.6,1.6-5.6,5c0,2.3,1.4,3.3,4.8,3.8c2.2,0.2,3.9,0.8,3.9,3s-2,3.3-3.9,3.3c-1.7,0-3.5-0.8-3.6-1.7l-0.2-1.5h-0.7
			c0,1.2,0,2.3-0.1,3.3c1.2,0.6,2.4,0.8,3.8,0.8c3.2,0,6.7-1.8,6.7-5.5c0-2.5-2-3.2-5.1-3.6c-2.8-0.3-3.7-1.3-3.7-2.8
			c0-1.7,1.3-3.2,3-3.2c0.1,0,0.1,0,0.2,0c0.8,0,1.6,0.1,2.4,0.6s0.9,0.7,0.9,1.4l0.1,1.3L67.8,150.5z M80.4,150.5
			c0-1,0.1-2.1,0.3-3.1c-1.3-0.6-2.6-0.9-4-0.9c-2.6,0-5.6,1.6-5.6,5c0,2.3,1.4,3.3,4.8,3.8c2.2,0.2,3.9,0.8,3.9,3s-2,3.3-3.9,3.3
			c-1.7,0-3.5-0.8-3.6-1.7l-0.2-1.5h-0.7c0,1.2,0,2.3-0.1,3.3c1.2,0.6,2.4,0.8,3.8,0.8c3.2,0,6.7-1.8,6.7-5.5c0-2.5-2-3.2-5.1-3.6
			c-2.8-0.3-3.7-1.3-3.7-2.8c0-1.7,1.3-3.2,3-3.2c0.1,0,0.1,0,0.2,0c0.8,0,1.6,0.1,2.4,0.6s0.9,0.7,0.9,1.4l0.1,1.3L80.4,150.5z
			 M90.4,146.7h-0.7c-0.6,1.6-1.4,3.2-2.1,4.7l-3.9,8.9c-0.1,0.6-0.6,0.9-1.2,1l-0.8,0.1v0.7c0.8,0,1.7-0.1,2.5-0.1
			c0.7,0,1.5,0,2.5,0.1v-0.7l-0.8-0.1c-0.7-0.1-1-0.1-1-0.6c0.2-0.8,0.5-1.6,0.8-2.3l0.6-1.5h6.3l1,2.5c0.2,0.5,0.3,0.9,0.5,1.4
			c0,0.2-0.5,0.5-0.9,0.5l-1,0.1v0.7c1.2,0,2.2-0.1,2.9-0.1c1,0,2,0,2.9,0.1v-0.7l-0.8-0.1c-0.3,0-0.7-0.3-0.9-0.7
			c-0.2-0.3-0.5-1-0.7-1.5L90.4,146.7z M86.6,156.2l2.8-6.6l2.8,6.6H86.6z M112.2,160.2L112,160c-1.4,0.8-2.9,1.3-4.5,1.3
			c-4.4,0-7.3-2.8-7.3-7.1c0-3.8,2.2-6.8,6.3-6.8c0.8,0,1.6,0.1,2.4,0.3c1,0.3,1.8,0.8,1.8,1.4v1.6h0.7c0-1.2,0.1-2.3,0.5-3.3
			c-1.6-0.6-3.3-0.9-5.1-0.9c-2.3,0-4.5,0.7-6.3,2.1c-1.7,1.5-2.8,3.7-2.6,5.9c0,5,3.6,8.1,8.9,8.1c1.4,0,3.6-0.5,4.8-1.2
			L112.2,160.2z M129.1,149.6c0-0.6,0-1.2,0.2-1.6c0.1-0.2,0.3-0.3,0.9-0.3l1-0.1v-0.7c-1.2,0-2.2,0.1-3.2,0.1c-1,0-2.1,0-3.2-0.1
			v0.7l1,0.1c0.6,0,0.8,0.1,0.9,0.3c0.2,0.6,0.2,1,0.2,1.6v3.9c-0.2,0-0.8,0-1.8,0H120c-0.9,0-1.6,0-1.8,0v-3.9c0-0.8,0-1.4,0.2-1.6
			c0.1-0.2,0.3-0.3,0.9-0.3l1-0.1v-0.7c-1.2,0-2.2,0.1-3.2,0.1c-1,0-2.1,0-3.2-0.1v0.7l1,0.1c0.6,0,0.8,0.1,0.9,0.3
			c0.2,0.6,0.2,1,0.2,1.6v9.9c0,0.6,0,1.2-0.2,1.6c-0.1,0.2-0.3,0.3-0.9,0.3l-1,0.1v0.7c1.2,0,2.2-0.1,3.2-0.1c1,0,2.1,0,3.2,0.1
			v-0.7l-1-0.1c-0.6,0-0.8-0.1-0.9-0.3c-0.2-0.6-0.2-1-0.2-1.6v-5c0.2,0,0.8,0,1.8,0h5.2c0.9,0,1.6,0,1.8,0v5c0,0.6,0,1.2-0.2,1.6
			c-0.1,0.2-0.3,0.3-0.9,0.3l-1,0.1v0.7c1.2,0,2.2-0.1,3.2-0.1c1,0,2.1,0,3.2,0.1v-0.7l-1-0.1c-0.6,0-0.8-0.1-0.9-0.3
			c-0.2-0.6-0.2-1-0.2-1.6V149.6z M135,157.3c0,4,2.2,5.2,6,5.2c4.5,0,6.2-1.8,6.2-6.6v-6.3c0-0.8,0-1.4,0.2-1.6
			c0.1-0.2,0.3-0.2,0.9-0.3l0.9-0.1v-0.7c-0.9,0-1.7,0.1-2.6,0.1c-0.8,0-1.7,0-2.5-0.1v0.7l0.9,0.1c0.6,0,0.8,0.1,0.9,0.3
			c0.1,0.2,0.2,0.8,0.2,1.6v7c0,3.7-2.2,4.6-4.5,4.6c-2.9,0-4.5-0.9-4.5-4v-7.6c0-0.6,0-1.2,0.2-1.6c0.1-0.2,0.3-0.3,0.9-0.3l1-0.1
			v-0.7c-1.2,0-2.2,0.1-3.2,0.1c-1,0-2.1,0-3.2-0.1v0.7l1,0.1c0.6,0,0.8,0.1,0.9,0.3c0.2,0.6,0.2,1,0.2,1.6L135,157.3z M160,150.5
			c0-1,0.1-2.1,0.3-3.1c-1.3-0.6-2.6-0.9-4-0.9c-2.6,0-5.6,1.6-5.6,5c0,2.3,1.4,3.3,4.8,3.8c2.3,0.2,3.9,0.8,3.9,3s-2,3.3-3.9,3.3
			c-1.7,0-3.5-0.8-3.6-1.7l-0.2-1.5H151c0,1.2,0,2.3-0.1,3.3c1.2,0.6,2.4,0.8,3.8,0.8c3.2,0,6.7-1.8,6.7-5.5c0-2.5-2-3.2-5.1-3.6
			c-2.8-0.3-3.7-1.3-3.7-2.8c0-1.7,1.3-3.2,3-3.2c0.1,0,0.1,0,0.2,0c0.8,0,1.6,0.1,2.4,0.6c0.8,0.5,0.9,0.7,0.9,1.4l0.1,1.3
			L160,150.5z M165.1,159.4c0,0.6,0,1.2-0.2,1.6c-0.1,0.2-0.3,0.2-0.9,0.3l-0.8,0.1v0.7c0.8,0,1.5-0.1,2.3-0.1c1.4,0,3.1,0,4.8,0.1
			c1.7,0.1,3.3,0,4.4-0.1c0-1.3,0.1-2.4,0.3-3.6h-0.8c-0.1,1.4-0.5,2.3-0.8,2.4c-0.3,0.2-2.6,0.2-4.5,0.2c-0.6,0-1.3,0-1.8-0.2v-6.1
			c0.7-0.1,1.5-0.1,2.5-0.1c1.4,0,2.1,0.1,2.3,0.2c0.1,0.1,0.1,0.2,0.2,0.6l0.1,1.3h0.7c0-0.8-0.1-1.6-0.1-2.4s0-1.6,0.1-2.5h-0.7
			l-0.1,1.2c0,0.2,0,0.5-0.2,0.6c-0.2,0.1-1,0.2-2.3,0.2c-1,0-1.8,0-2.5-0.1v-5.9c0.6-0.1,1.3-0.2,1.8-0.1c1.4,0,3.1,0,4.3,0.5
			c0.2,0.1,0.2,0.3,0.2,0.6v1.4h0.8c0-1.2,0.1-2.3,0.3-3.3c-0.8,0-1.8-0.1-2.9-0.1c-1.3,0-3.2,0.1-5.2,0.1c-1.3,0-2.5,0-3.7-0.1v0.7
			l1,0.1c0.6,0,0.8,0.1,0.9,0.3c0.2,0.6,0.2,1,0.2,1.6L165.1,159.4z M181.9,159.4c0,0.6,0,1.2-0.2,1.6c-0.1,0.2-0.3,0.3-0.9,0.3
			l-1,0.1v0.7c1.2,0,2.2-0.1,3.2-0.1c1,0,2.1,0,3.2,0.1v-0.7l-1-0.1c-0.6,0-0.8-0.1-0.9-0.3c-0.2-0.6-0.2-1-0.2-1.6V150
			c0-0.8,0-1.5,0.1-2.2h3.5c0.7,0,0.8,0.2,0.9,0.7l0.1,1.7h0.7c0-1.2,0-2.4,0.1-3.6c-1.6,0-3.2,0.1-4.7,0.1h-3.2
			c-1.6,0-3.2-0.1-4.7-0.1c0.1,1.2,0.1,2.3,0.1,3.6h0.7l0.1-1.7c0-0.6,0.2-0.7,0.9-0.7h3.5c0.1,0.7,0.1,1.4,0.1,2.2L181.9,159.4z
			 M195.8,159.4c0,0.6,0,1.2-0.2,1.6c-0.1,0.2-0.3,0.3-0.9,0.3l-1,0.1v0.7c1.2,0,2.2-0.1,3.2-0.1c1,0,2.1,0,3.2,0.1v-0.7l-1-0.1
			c-0.6,0-0.8-0.1-0.9-0.3c-0.2-0.6-0.2-1.2-0.2-1.6V150c0-0.7,0-1.5,0.1-2.2h3.5c0.7,0,0.8,0.2,0.9,0.7l0.1,1.7h0.7
			c0-1.2,0-2.4,0.1-3.6c-1.6,0-3.2,0.1-4.7,0.1h-3.2c-1.6,0-3.2-0.1-4.7-0.1c0.1,1.2,0.1,2.3,0.1,3.6h0.7l0.1-1.7
			c0-0.6,0.2-0.7,0.9-0.7h3.5c0.1,0.7,0.1,1.4,0.1,2.2L195.8,159.4z M214,150.5c0-1,0.1-2.1,0.3-3.1c-1.3-0.6-2.6-0.9-4-0.9
			c-2.6,0-5.6,1.6-5.6,5c0,2.3,1.4,3.3,4.8,3.8c2.3,0.2,3.9,0.8,3.9,3s-2,3.3-3.9,3.3c-1.7,0-3.5-0.8-3.6-1.7l-0.2-1.5H205
			c0,1.2,0,2.2-0.1,3.3c1.2,0.6,2.4,0.8,3.8,0.8c3.2,0,6.7-1.8,6.7-5.5c0-2.5-2-3.2-5.1-3.6c-2.8-0.3-3.7-1.3-3.7-2.8
			c0-1.7,1.3-3.2,3-3.2c0.1,0,0.1,0,0.2,0c0.8,0,1.6,0.1,2.4,0.6c0.8,0.5,0.9,0.7,0.9,1.4l0.1,1.3L214,150.5z"/>
	</g>
</g>
</svg>
