<svg id="图层_1" data-name="图层 1" xmlns="http://www.w3.org/2000/svg" viewBox="0 0 232 182.44"><defs><style>.cls-1{fill:#ba8760;}.cls-2{fill:#0c1215;}</style></defs><polygon class="cls-1" points="116.26 51.75 127.55 39.16 127.55 67.71 116.26 80.2 116.26 61.14 116.26 51.75"/><polygon class="cls-1" points="113.75 80.2 102.47 67.72 102.47 59.01 102.47 39.16 113.75 51.76 113.75 61 113.75 80.2"/><path class="cls-1" d="M144.51,46.35c-30.15,0-51.84,21.68-51.84,51.84,0,24.71,13.62,42.24,37.26,49.47V84.12l-12.6-14-.06,56.1c-8-7-11.86-17.47-11.86-28a39.1,39.1,0,1,1,78.2,0,42,42,0,0,1-11.56,28.12l-.11-55.94-12.43,13.8v63.56c22.41-6.81,38.22-24.91,38.22-49.54,0-30.16-23.06-51.84-53.22-51.84" transform="translate(-29.57 -46.35)"/><polygon class="cls-1" points="86.2 120.82 114.07 120.82 111.61 127.18 92.91 127.18 92.91 135.33 105.95 135.33 105.95 141.69 92.91 141.69 92.91 157.13 86.2 157.13 86.2 120.82"/><polygon class="cls-1" points="119.27 120.82 147.13 120.82 144.66 127.18 125.98 127.18 125.98 135.33 139.01 135.33 139.01 141.69 125.98 141.69 125.98 157.13 119.27 157.13 119.27 120.82"/><rect class="cls-1" x="152.91" y="120.82" width="6.71" height="36.31"/><polygon class="cls-1" points="1.93 120.07 18.06 136.37 34.19 120.07 34.19 157.13 27.48 157.13 27.48 134.7 18.06 144.47 8.63 134.7 8.63 157.13 1.93 157.13 1.93 120.07"/><path class="cls-1" d="M89.72,166.49c10.87,0,19.48,8.27,19.48,18.9s-8.61,18.91-19.48,18.91S70.24,196,70.24,185.39s8.61-18.9,19.48-18.9m0,31.45a12.55,12.55,0,1,0-12.43-12.55,12.62,12.62,0,0,0,12.43,12.55" transform="translate(-29.57 -46.35)"/><polygon class="cls-1" points="177.69 127.18 167.05 127.18 167.05 120.82 196.65 120.82 194.18 127.18 184.4 127.18 184.4 157.13 177.69 157.13 177.69 127.18"/><polygon class="cls-1" points="213.04 127.18 202.4 127.18 202.4 120.82 232 120.82 229.53 127.18 219.75 127.18 219.75 157.13 213.04 157.13 213.04 127.18"/><path class="cls-2" d="M54.79,214.18H56.4l6.06,14.31H59.61l-1.09-2.69H52.45l-1.09,2.69H48.53Zm2.79,9.25-2.07-5.14-2.1,5.14Z" transform="translate(-29.57 -46.35)"/><path class="cls-2" d="M43.36,225.82a7.67,7.67,0,0,1-6.12,2.94,7.46,7.46,0,1,1,0-14.91,7.68,7.68,0,0,1,6.12,3l-2.19,1.64a4.64,4.64,0,0,0-3.93-2.08,4.95,4.95,0,0,0,0,9.89,4.91,4.91,0,0,0,4-2Z" transform="translate(-29.57 -46.35)"/><path class="cls-2" d="M168.71,225.82a7.67,7.67,0,0,1-6.11,2.94,7.46,7.46,0,1,1,0-14.91,7.68,7.68,0,0,1,6.11,3l-2.19,1.64a4.64,4.64,0,0,0-3.92-2.08,4.95,4.95,0,0,0,0,9.89,4.91,4.91,0,0,0,4-2Z" transform="translate(-29.57 -46.35)"/><path class="cls-2" d="M100.39,225.82a7.67,7.67,0,0,1-6.11,2.94,7.46,7.46,0,1,1,0-14.91,7.68,7.68,0,0,1,6.11,3l-2.19,1.64a4.64,4.64,0,0,0-3.92-2.08,4.95,4.95,0,0,0,0,9.89,4.89,4.89,0,0,0,4-2Z" transform="translate(-29.57 -46.35)"/><polygon class="cls-2" points="77.89 167.83 88.88 167.83 87.9 170.34 80.53 170.34 80.53 173.55 85.68 173.55 85.68 176.06 80.53 176.06 80.53 179.63 88.88 179.63 87.9 182.14 77.89 182.14 77.89 167.83"/><polygon class="cls-2" points="41.2 173.37 41.2 182.15 38.56 182.15 38.56 167.53 47.79 176.6 47.79 167.83 50.44 167.83 50.44 182.44 41.2 173.37"/><polygon class="cls-2" points="166.36 173.37 166.36 182.15 163.72 182.15 163.72 167.53 172.95 176.6 172.95 167.83 175.59 167.83 175.59 182.44 166.36 173.37"/><path class="cls-2" d="M125.39,214.18h6.81c3.2,0,5.15,2.09,5.15,4.9a4.54,4.54,0,0,1-3.35,4.3l3.58,5.11h-3.32l-3-4.51H128v4.51h-2.64Zm2.64,7.29h4c1.88,0,2.72-1.12,2.72-2.39s-.84-2.4-2.72-2.4h-4Z" transform="translate(-29.57 -46.35)"/><polygon class="cls-2" points="200.03 167.83 211.02 167.83 210.05 170.34 202.68 170.34 202.68 173.55 207.82 173.55 207.82 176.06 202.68 176.06 202.68 179.63 211.02 179.63 210.05 182.14 200.03 182.14 200.03 167.83"/><polygon class="cls-2" points="145.96 167.83 156.95 167.83 155.97 170.34 148.6 170.34 148.6 173.55 153.74 173.55 153.74 176.06 148.6 176.06 148.6 179.63 156.95 179.63 155.97 182.14 145.96 182.14 145.96 167.83"/><path class="cls-2" d="M247.5,214.18h6.81c3.2,0,5.16,2.09,5.16,4.9a4.55,4.55,0,0,1-3.36,4.3l3.59,5.11h-3.33l-3-4.51h-3.24v4.51H247.5Zm2.65,7.29h4c1.87,0,2.72-1.12,2.72-2.39s-.85-2.4-2.72-2.4h-4Z" transform="translate(-29.57 -46.35)"/><polygon class="cls-2" points="186.29 170.34 182.1 170.34 182.1 167.83 193.76 167.83 192.79 170.34 188.93 170.34 188.93 182.14 186.29 182.14 186.29 170.34"/><path class="cls-1" d="M194.21,137.75H193v1.6h1.19c.67,0,1-.25,1-.8s-.33-.8-.92-.8m.46,2.14,1.06,2H195l-1-2h-1v2h-.62v-4.73h1.91c.86,0,1.52.42,1.52,1.36a1.31,1.31,0,0,1-1.09,1.34m-.8-4a3.73,3.73,0,1,0,3.69,3.73,3.59,3.59,0,0,0-3.69-3.73m0,8a4.28,4.28,0,1,1,4.27-4.28,4.13,4.13,0,0,1-4.27,4.28" transform="translate(-29.57 -46.35)"/></svg>