<svg id="图层_1" data-name="图层 1" xmlns="http://www.w3.org/2000/svg" viewBox="0 0 190.88 150.1"><defs><style>.cls-1{fill:#ba8760;}.cls-2{fill:#0c1215;}</style></defs><polygon class="cls-1" points="95.65 42.58 104.94 32.22 104.94 55.71 95.65 65.98 95.65 50.3 95.65 42.58"/><polygon class="cls-1" points="93.59 65.98 84.3 55.72 84.3 48.55 84.3 32.22 93.59 42.58 93.59 50.19 93.59 65.98"/><path class="cls-1" d="M141.89,55c-24.81,0-42.65,17.84-42.65,42.65,0,20.34,11.21,34.76,30.66,40.71V86.11l-10.37-11.5,0,46.15c-6.6-5.79-9.76-14.37-9.76-23.08a32.17,32.17,0,0,1,64.34,0,34.49,34.49,0,0,1-9.51,23.14l-.09-46L154.24,86.15v52.29c18.43-5.6,31.45-20.49,31.45-40.76,0-24.81-19-42.65-43.8-42.65" transform="translate(-47.33 -55.03)"/><polygon class="cls-1" points="70.92 99.4 93.85 99.4 91.82 104.63 76.44 104.63 76.44 111.34 87.17 111.34 87.17 116.58 76.44 116.58 76.44 129.28 70.92 129.28 70.92 99.4"/><polygon class="cls-1" points="98.13 99.4 121.05 99.4 119.02 104.63 103.65 104.63 103.65 111.34 114.37 111.34 114.37 116.58 103.65 116.58 103.65 129.28 98.13 129.28 98.13 99.4"/><rect class="cls-1" x="125.81" y="99.4" width="5.52" height="29.87"/><polygon class="cls-1" points="1.58 98.79 14.86 112.2 28.13 98.79 28.13 129.28 22.61 129.28 22.61 110.82 14.86 118.86 7.1 110.82 7.1 129.28 1.58 129.28 1.58 98.79"/><path class="cls-1" d="M96.82,153.88c8.94,0,16,6.8,16,15.55S105.76,185,96.82,185s-16-6.81-16-15.56,7.08-15.55,16-15.55m0,25.88a10.33,10.33,0,1,0-10.23-10.33,10.39,10.39,0,0,0,10.23,10.33" transform="translate(-47.33 -55.03)"/><polygon class="cls-1" points="146.19 104.63 137.44 104.63 137.44 99.4 161.79 99.4 159.76 104.63 151.71 104.63 151.71 129.28 146.19 129.28 146.19 104.63"/><polygon class="cls-1" points="175.28 104.63 166.52 104.63 166.52 99.4 190.88 99.4 188.85 104.63 180.8 104.63 180.8 129.28 175.28 129.28 175.28 104.63"/><path class="cls-2" d="M68.08,193.11H69.4l5,11.78H72.05l-.9-2.22h-5l-.9,2.22H62.93Zm2.3,7.62-1.71-4.23-1.73,4.23Z" transform="translate(-47.33 -55.03)"/><path class="cls-2" d="M58.67,202.69a6.31,6.31,0,0,1-5,2.42,6.14,6.14,0,1,1,0-12.27,6.32,6.32,0,0,1,5,2.43l-1.8,1.35a3.82,3.82,0,0,0-3.23-1.71,4.07,4.07,0,0,0,0,8.14,4,4,0,0,0,3.27-1.63Z" transform="translate(-47.33 -55.03)"/><path class="cls-2" d="M161.8,202.69a6.31,6.31,0,0,1-5,2.42,6.14,6.14,0,1,1,0-12.27,6.32,6.32,0,0,1,5,2.43l-1.8,1.35a3.82,3.82,0,0,0-3.23-1.71,4.07,4.07,0,1,0,3.28,6.51Z" transform="translate(-47.33 -55.03)"/><path class="cls-2" d="M105.6,202.69a6.32,6.32,0,0,1-5,2.42,6.14,6.14,0,1,1,0-12.27,6.33,6.33,0,0,1,5,2.43l-1.81,1.35a3.82,3.82,0,0,0-3.22-1.71,4.07,4.07,0,1,0,3.27,6.51Z" transform="translate(-47.33 -55.03)"/><polygon class="cls-2" points="64.09 138.08 73.12 138.08 72.32 140.14 66.26 140.14 66.26 142.79 70.49 142.79 70.49 144.85 66.26 144.85 66.26 147.79 73.12 147.79 72.32 149.86 64.09 149.86 64.09 138.08"/><polygon class="cls-2" points="33.9 142.64 33.9 149.86 31.73 149.86 31.73 137.84 39.32 145.3 39.32 138.08 41.5 138.08 41.5 150.1 33.9 142.64"/><polygon class="cls-2" points="136.87 142.64 136.87 149.86 134.7 149.86 134.7 137.84 142.29 145.3 142.29 138.08 144.47 138.08 144.47 150.1 136.87 142.64"/><path class="cls-2" d="M126.16,193.11h5.61a3.91,3.91,0,0,1,4.23,4,3.74,3.74,0,0,1-2.75,3.55l2.94,4.2h-2.73L131,201.17h-2.66v3.72h-2.18Zm2.18,6h3.26a2,2,0,1,0,0-3.94h-3.26Z" transform="translate(-47.33 -55.03)"/><polygon class="cls-2" points="164.58 138.08 173.62 138.08 172.81 140.14 166.75 140.14 166.75 142.79 170.98 142.79 170.98 144.85 166.75 144.85 166.75 147.79 173.62 147.79 172.81 149.86 164.58 149.86 164.58 138.08"/><polygon class="cls-2" points="120.09 138.08 129.13 138.08 128.33 140.14 122.26 140.14 122.26 142.79 126.49 142.79 126.49 144.85 122.26 144.85 122.26 147.79 129.13 147.79 128.33 149.86 120.09 149.86 120.09 138.08"/><path class="cls-2" d="M226.63,193.11h5.61a3.93,3.93,0,0,1,4.24,4,3.76,3.76,0,0,1-2.76,3.55l2.94,4.2h-2.73l-2.46-3.72h-2.66v3.72h-2.18Zm2.18,6h3.26a2,2,0,1,0,0-3.94h-3.26Z" transform="translate(-47.33 -55.03)"/><polygon class="cls-2" points="153.27 140.14 149.82 140.14 149.82 138.08 159.42 138.08 158.62 140.14 155.44 140.14 155.44 149.86 153.27 149.86 153.27 140.14"/><path class="cls-1" d="M182.78,130.23h-1v1.32h1c.56,0,.82-.21.82-.66s-.27-.66-.76-.66m.38,1.76.87,1.67h-.6l-.84-1.63h-.84v1.63h-.51v-3.89h1.57a1.1,1.1,0,0,1,1.25,1.12,1.07,1.07,0,0,1-.9,1.1m-.66-3.28a3.07,3.07,0,1,0,3,3.07,2.95,2.95,0,0,0-3-3.07m0,6.59a3.52,3.52,0,1,1,3.52-3.52,3.39,3.39,0,0,1-3.52,3.52" transform="translate(-47.33 -55.03)"/></svg>