<svg id="SvgjsSvg1149" width="288" height="288" xmlns="http://www.w3.org/2000/svg" version="1.1" xmlns:xlink="http://www.w3.org/1999/xlink" xmlns:svgjs="http://svgjs.com/svgjs"><defs id="SvgjsDefs1150"></defs><g id="SvgjsG1151"><svg xmlns="http://www.w3.org/2000/svg" enable-background="new 0 0 250 250" viewBox="0 0 250 250" width="288" height="288"><switch><g fill="#000000" class="color000 svgShape"><path d="M30,30h190v190H30V30z" fill="#000000" class="color000 svgShape"></path><path d="M30,30h190v190H30V30z" fill="#000000" class="color000 svgShape"></path><path d="M30,30h190v190H30V30z" fill="#000000" class="color000 svgShape"></path><path d="M30,30h190v190H30V30z" fill="#000000" class="color000 svgShape"></path><path d="M30,30h190v190H30V30z" fill="#000000" class="color000 svgShape"></path><path fill="#bb8760" d="M30,30h190v190H30V30z" class="color52840e svgShape"></path><path fill="#ffffff" d="M101,80.1h-4.3V77h12.5v3.1h-4.3v12.7H101L101,80.1L101,80.1z M117.2,86.5v-9.6h3.9v9.3			c0,2.5,0.8,3.6,3.2,3.6c2.4,0,3-1.3,3-3.5v-9.5h3.6v9.2c0,4.5-2.2,6.9-6.6,6.9c-4.6,0-7-2.2-7-6.5 M150.7,88.3
			c-0.5-0.9-1.1-1.7-1.9-2.4c2.1-0.4,3.6-2.2,3.5-4.3c0-3-2.2-4.6-6.1-4.6h-5.6v15.8h3.9v-6.2h0.2c0.6,0,0.9,0.2,1.9,1.7l2.8,4.6
			h4.2L150.7,88.3z M146.1,83.8h-1.7v-4h1.5c1.7,0,2.5,0.7,2.5,2S147.6,83.8,146.1,83.8L146.1,83.8z M170.1,77h-3.7l-6.1,15.8h3.9
			l0.9-2.7h6.1l0.9,2.7h4.2L170.1,77z M166.2,87.1l1.1-3.3c0.5-1.3,0.7-2.5,0.8-2.7c0.2,0.9,0.5,1.8,0.8,2.7l1.2,3.3H166.2z M185,77
			h3.9v12.8h7v3H185V77z M54.1,105.5h3.8v6h6.5v-6h3.8v15.8h-3.8v-6.6h-6.5v6.6h-3.8V105.5z M81,105.5h3.9v15.8H81L81,105.5z
			 M96,120l1.5-2.7c1,0.7,2.1,1.1,3.3,1.1c1.5,0,2.3-0.7,2.3-1.5c0-1.2-1.6-1.5-3.5-2.4c-2-0.7-3.4-2.6-3.3-4.8
			c0-2.7,2.3-4.6,5.3-4.6c1.7-0.1,3.4,0.4,4.8,1.4l-1.5,2.7c-0.9-0.6-2-0.9-3-1c-1.2,0-1.9,0.5-1.9,1.4c0,1,1.3,1.4,2.9,2.2
			c2.1,0.9,3.9,2,3.9,4.9c0,2.9-2.2,4.9-5.9,4.9c-1.8,0.1-3.6-0.5-5-1.5 M120.4,108.6h-4.3v-3.1h12.5v3.1h-4.3v12.7h-3.8
			C120.4,121.3,120.4,108.6,120.4,108.6L120.4,108.6z M136.6,113.4c-0.2-4.3,3.2-8,7.5-8.2c0,0,0,0,0.1,0h0.7c4.5,0,8.2,3.6,8.2,8.1
			c0,4.5-3.6,8.2-8.1,8.2c-4.4,0.2-8.1-3.1-8.4-7.5C136.6,113.8,136.5,113.6,136.6,113.4 M149.1,113.4c0-2.7-1.2-5.2-4.1-5.2
			c-3,0-4.3,2.3-4.3,5.1s1.3,5.2,4.2,5.2C147.8,118.5,149.1,116.1,149.1,113.4 M162.2,105.5h5.6c3.8,0,6.1,1.6,6.1,4.6
			c0.1,2.1-1.4,3.9-3.5,4.3c0.8,0.6,1.5,1.5,1.9,2.4l2.8,4.5h-4.2l-2.8-4.6c-1-1.6-1.3-1.7-1.9-1.7H166v6.2h-3.8L162.2,105.5z
			 M167.7,112.4c1.5,0,2.4-0.7,2.4-2c0-1.3-0.8-2-2.5-2H166v4H167.7z M188,115.3l-5.2-9.8h4.3l3.1,6.3l0,0l3-6.3h3.7l-5,9.8v6H188
			C188,121.3,188,115.3,188,115.3L188,115.3z M54.1,77H58l5.1,7.4c1,1.5,1.6,2.6,1.7,2.8c0-0.2-0.1-1.4-0.1-2.6v-7.6h3.5v15.8h-3.5
			l-5.6-8c-1-1.4-1.4-2.2-1.6-2.5c0,0.2,0.1,1.1,0.1,2.2v8.2h-3.5V77z M81.9,77h3.7l6.2,15.8h-4.2l-0.9-2.7h-6.1l-0.9,2.7h-3.8
			L81.9,77z M85.6,87.1l-1.1-3.3c-0.3-0.9-0.6-1.8-0.8-2.7c-0.1,0.3-0.3,1.5-0.8,2.7l-1.1,3.3H85.6z M55.3,134H59l3,9.4
			c0.3,1.1,0.6,2.4,0.8,2.7c0.1-0.3,0.4-1.5,0.8-2.7l3-9.4h3.7l2.2,15.8h-3.9l-0.9-7.4c-0.2-1.2-0.3-2.1-0.3-2.3
			c-0.1,0.3-0.3,1.2-0.6,2.3l-2.4,7.5h-3.8l-2.3-7.5c-0.3-1-0.5-2.1-0.6-2.3c0,0.3-0.1,1.3-0.2,2.4l-1,7.4h-3.5L55.3,134z
			 M83.2,143.6V134h3.8v9.3c0,2.5,0.8,3.6,3.2,3.6c2.4,0,3-1.3,3-3.5V134h3.5v9.2c0,4.5-2.3,6.8-6.6,6.8
			C85.6,150.1,83.2,147.9,83.2,143.6 M107.9,148.5l1.5-2.7c1,0.7,2.1,1.1,3.3,1.1c1.5,0,2.3-0.7,2.3-1.5c0-1.2-1.6-1.5-3.5-2.4
			c-2-0.7-3.3-2.6-3.3-4.8c0-2.7,2.3-4.6,5.3-4.6c1.7-0.1,3.4,0.4,4.8,1.4l-1.5,2.7c-0.9-0.6-2-0.9-3-0.9c-1.2,0-1.9,0.5-1.9,1.4
			c0,1,1.3,1.4,2.9,2.2c2.2,0.9,4,2,4,4.9c0,2.9-2.2,4.8-5.9,4.8C111.1,150.1,109.4,149.6,107.9,148.5 M130.6,134h9.5v3.1h-5.7v3.1
			h5v3h-5v3.5h5.8v3.1h-9.6L130.6,134z M152.2,143.6V134h3.8v9.3c0,2.5,0.8,3.6,3.2,3.6c2.4,0,3-1.3,3-3.5V134h3.6v9.2
			c0,4.5-2.2,6.8-6.6,6.8c-4.6,0-7-2.2-7-6.5 M178.7,134h3.7l3,9.4c0.3,1.1,0.6,2.4,0.7,2.7c0.1-0.3,0.4-1.5,0.8-2.7l3-9.4h3.7
			l2.2,15.8H192l-0.9-7.4c-0.2-1.2-0.3-2.1-0.3-2.3c-0.1,0.3-0.3,1.2-0.6,2.3l-2.4,7.5h-3.7l-2.3-7.5c-0.3-1-0.5-2.1-0.6-2.3
			c0,0.8-0.1,1.6-0.2,2.4l-1.1,7.4h-3.4L178.7,134z M64.4,163.3c-2.3,0-4.2,1.9-4.2,4.2c0,2.3,1.9,4.2,4.2,4.2
			c2.3,0,4.2-1.9,4.2-4.2C68.6,165.2,66.8,163.3,64.4,163.3z M64.4,170.1c-1.5,0-2.2-1.3-2.2-2.7c0-1.4,0.7-2.6,2.2-2.6
			c1.6,0,2.1,1.2,2.1,2.7S66,170.1,64.4,170.1z M70.2,170.9l0.8-1.4c0.5,0.4,1.1,0.6,1.7,0.6c0.8,0,1.2-0.3,1.2-0.8
			c0-0.5-0.8-0.8-1.8-1.3c-1.1-0.3-1.8-1.4-1.7-2.5c0-1.3,1.2-2.4,2.5-2.3c0,0,0,0,0.1,0c0.1,0,0.2,0,0.2,0c0.9,0,1.7,0.2,2.5,0.7
			l-0.8,1.4c-0.5-0.3-1-0.5-1.5-0.5c-0.6,0-1,0.2-1,0.7c0,0.5,0.6,0.8,1.5,1.1c0.9,0.4,2,1,2,2.5s-1.1,2.5-3,2.5
			C71.9,171.8,71,171.5,70.2,170.9 M86,163.3h-1.9l-3,8.1h2l0.5-1.4h3l0.5,1.4h2.1L86,163.3z M84,168.5l0.6-1.7
			c0.2-0.7,0.4-1.3,0.4-1.4c0.1,0.5,0.2,1,0.4,1.4l0.6,1.7H84z M91,163.3h2l2.6,3.8c0.5,0.8,0.8,1.3,0.9,1.4c0-0.4,0-0.9,0-1.3v-3.9
			h1.8v8.1h-1.8l-2.9-4.1c-0.5-0.7-0.8-1.1-0.8-1.3v5.4H91L91,163.3z M100.5,167.4c0-2.3,1.9-4.2,4.2-4.2h0.3c1-0.1,1.9,0.2,2.7,0.7
			l-0.8,1.5c-0.5-0.4-1.2-0.6-1.9-0.6c-1.2-0.1-2.3,0.8-2.4,2.1v0.4c0,1.5,0.7,2.7,2.3,2.7c0.4,0,0.9-0.1,1.3-0.2v-1.4h-1.4v-1.5
			h3.3v4c-0.9,0.5-2,0.8-3.1,0.8c-2.3,0.2-4.3-1.4-4.5-3.7C100.5,167.7,100.5,167.6,100.5,167.4 M110.9,163.3h4.9v1.6h-2.9v1.6h2.6
			v1.5h-2.6v1.8h3v1.6H111C110.9,171.5,110.9,163.3,110.9,163.3z M118.6,163.3h2v6.5h3v1.6h-4.9V163.3z M125.8,163.3h4.9v1.6h-2.9
			v1.6h2.6v1.5h-2.6v1.8h3v1.6h-4.9L125.8,163.3L125.8,163.3z M132.6,170.8l0.8-1.4c0.5,0.4,1.1,0.6,1.7,0.6c0.8,0,1.2-0.3,1.2-0.8
			s-0.8-0.8-1.8-1.2c-1-0.4-1.7-1.4-1.7-2.5c0-1.3,1.2-2.4,2.5-2.4c0,0,0,0,0,0h0.2c0.9,0,1.7,0.2,2.4,0.7l-0.8,1.4
			c-0.5-0.3-1-0.5-1.5-0.5c-0.6,0-1,0.2-1,0.7c0,0.5,0.6,0.7,1.5,1.1c0.9,0.4,2,1,2,2.5c0,1.5-1.1,2.5-3,2.5
			C134.3,171.7,133.3,171.4,132.6,170.8 M143.8,167.4c-0.1-2.2,1.6-4.1,3.8-4.2c0,0,0,0,0,0h0.4c0.9,0,1.8,0.2,2.5,0.6l-0.9,1.4
			c-0.5-0.3-1.1-0.5-1.7-0.5c-1.4,0-2.1,1.1-2.1,2.5s0.7,2.6,2.2,2.6c0.6,0,1.3-0.2,1.8-0.6l0.8,1.4c-0.8,0.6-1.7,0.9-2.6,0.9
			c-2.2,0.1-4.1-1.5-4.3-3.7c0,0,0,0,0,0C143.7,167.7,143.7,167.6,143.8,167.4 M152,167.4c-0.1-2.2,1.6-4.1,3.8-4.2c0,0,0,0,0.1,0
			h0.4c2.3,0,4.2,1.9,4.2,4.2s-1.9,4.2-4.2,4.2c-2.2,0.1-4.2-1.6-4.3-3.8L152,167.4 M158.4,167.4c0-1.4-0.6-2.7-2.1-2.7
			c-1.5,0-2.2,1.2-2.2,2.6s0.6,2.7,2.2,2.7C157.7,170,158.4,168.8,158.4,167.4 M162.4,168.3v-4.9h1.9v4.8c0,1.3,0.4,1.9,1.6,1.9
			s1.5-0.7,1.5-1.8v-4.9h1.8v4.8c0.3,1.6-0.8,3.2-2.5,3.5c-0.3,0.1-0.6,0.1-0.9,0C163.5,171.6,162.4,170.5,162.4,168.3 M171.9,163.3
			h2l2.7,3.8c0.3,0.5,0.6,0.9,0.9,1.4c0-0.4,0-0.9,0-1.3v-3.9h1.8v8.1h-1.8l-2.9-4.1c-0.3-0.4-0.6-0.8-0.8-1.3v5.4h-1.7V163.3z
			 M183.5,164.9h-2.2v-1.6h6.4v1.6h-2.2v6.5h-2L183.5,164.9L183.5,164.9z M191.8,168.4l-2.7-5.1h2.2l1.6,3.2l0,0l1.6-3.2h1.9
			l-2.6,5.1v3h-2V168.4z M54.1,163.3h2v6.5h3v1.6h-4.9V163.3z" class="colorfff svgShape"></path></g></switch></svg></g></svg>