<svg id="SvgjsSvg1058" width="288" height="288" xmlns="http://www.w3.org/2000/svg" version="1.1" xmlns:xlink="http://www.w3.org/1999/xlink" xmlns:svgjs="http://svgjs.com/svgjs"><defs id="SvgjsDefs1059"></defs><g id="SvgjsG1060"><svg xmlns="http://www.w3.org/2000/svg" enable-background="new 0 0 250 241.7" viewBox="0 0 250 241.7" width="288" height="288"><switch><g fill="#bb8760" class="color000 svgShape"><polyline points="75.7 80.1 68.3 70.5 66 70.5 66 84.4 68.4 84.4 68.4 74.5 76.1 84.4 78.1 84.4 78.1 70.5 75.7 70.5 75.7 80.1" fill="#bb8760" class="color000 svgShape"></polyline><polyline points="85.8 78.5 92.8 78.5 92.8 76.3 85.8 76.3 85.8 72.7 93.7 72.7 93.7 70.5 83.3 70.5 83.3 84.4 93.8 84.4 93.8 82.2 85.8 82.2 85.8 78.5" fill="#bb8760" class="color000 svgShape"></polyline><polyline points="110.4 80.7 107 70.5 104.9 70.5 101.5 80.7 98.1 70.6 95.5 70.6 100.4 84.4 102.5 84.4 105.9 74.5 109.4 84.4 111.5 84.4 116.4 70.6 113.8 70.6 110.4 80.7" fill="#bb8760" class="color000 svgShape"></polyline><polyline points="128.5 76.7 124.5 70.5 121.6 70.5 127.2 79 127.2 84.4 129.8 84.4 129.8 78.9 135.4 70.5 132.6 70.5 128.5 76.7" fill="#bb8760" class="color000 svgShape"></polyline><path d="M144.1 82.2c-2.6 0-4.5-2.2-4.5-4.8s1.8-4.8 4.5-4.8c2.6 0 4.5 2.2 4.5 4.8C148.6 80.1 146.8 82.2 144.1 82.2zM144.1 70.5c-3.8-.1-6.9 2.9-7 6.7 0 .1 0 .2 0 .2-.1 3.7 2.9 6.8 6.6 6.9.1 0 .2 0 .3 0 3.8.1 6.9-2.9 7-6.7 0-.1 0-.2 0-.2.1-3.7-2.9-6.8-6.6-6.9C144.3 70.5 144.2 70.5 144.1 70.5zM158.4 77.4v-4.7h3.1c1.6 0 2.5.8 2.5 2.3 0 1.4-1 2.3-2.5 2.3L158.4 77.4zM166.3 74.9c0-2.7-1.8-4.4-4.5-4.4h-5.5v13.9h2.2v-4.8h2.7l3 4.8h2.5l-3.3-5.3C165.1 78.6 166.3 77.2 166.3 74.9z" fill="#bb8760" class="color000 svgShape"></path><polyline points="178.1 76.5 183.8 70.5 180.9 70.5 174.3 77.5 174.3 70.5 171.9 70.5 171.9 84.4 174.3 84.4 174.3 80.4 176.4 78.2 181.2 84.4 184.1 84.4 178.1 76.5" fill="#bb8760" class="color000 svgShape"></polyline><path d="M33,102.5c-3.3-2.8-8-4.3-13.6-4.3H0v45.1h2.4v-42.7h17c5.2,0,9.3,1.3,12,3.7s4.3,5.7,4.4,10.1v0.1			c0,4.8-1.8,8.1-4.7,10.5c-3,2.4-7.3,3.7-12.3,3.7h-7v14.6h2.4v-12.2h4.6c5.5,0,10.3-1.4,13.8-4.2s5.6-7.1,5.6-12.4v-0.1
			C38.2,109.6,36.3,105.4,33,102.5" fill="#bb8760" class="color000 svgShape"></path><path d="M13 120.1v-9h4.6c2.1 0 3.6.5 4.5 1.2.9.7 1.4 1.7 1.4 3.3v.1c-.1 2.7-1.8 4.3-5.9 4.4L13 120.1 13 120.1zM23.7 120.8c1.5-1.2 2.4-3.1 2.4-5v-.1c0-2.1-.8-4-2.4-5.2-1.5-1.2-3.7-1.7-6.1-1.7h-7.2v13.9h7.2C20 122.6 22.2 122 23.7 120.8zM86.1 123.9c0 6.8-1.9 11.4-5 14.3s-7.8 4.5-13.5 4.5c-5.8 0-10.3-1.5-13.4-4.5-3.1-3-4.9-7.5-4.9-14V98.3h-2.4v25.9c0 7 2 12.3 5.6 15.8 3.7 3.5 8.9 5.1 15.1 5.1s11.5-1.6 15.2-5.1c3.7-3.5 5.8-9 5.8-16.2V98.3h-2.4L86.1 123.9" fill="#bb8760" class="color000 svgShape"></path><path d="M67.7 133L67.7 133c2.5 0 4.8-.8 6.3-2.5 1.5-1.7 2.4-4.2 2.4-7.3v-25h-2.3v25c0 2.7-.7 4.5-1.8 5.6-1.1 1.1-2.6 1.7-4.6 1.7-2 0-3.5-.6-4.6-1.8-1.1-1.2-1.8-3-1.8-5.9V98.3H59V123c0 3.2.8 5.7 2.4 7.5S65.2 133 67.7 133M104.9 126.8h7.9c1.8 0 3 .4 3.7.8.6.4.9 1.1.9 1.8v.1c0 .8-.3 1.5-1 1.9-.7.5-1.9.8-3.5.8h-8L104.9 126.8 104.9 126.8zM102.4 134.8h10.4c2 0 3.6-.4 4.9-1.3 1.3-.9 2.1-2.4 2-3.9v-.1c0-1.5-.7-3-1.9-3.8-1.3-.9-3-1.3-5.1-1.3h-10.3L102.4 134.8 102.4 134.8zM104.9 116.6v-5.3h6.5c1.6 0 2.8.3 3.3.8.6.4.9 1.1.8 1.8v.1c0 1-.3 1.4-.9 1.9-.6.5-1.8.8-3.5.8L104.9 116.6 104.9 116.6zM116 118c1.3-.9 2.1-2.4 2-4v-.1c.1-1.5-.7-3-1.9-3.9-1.2-.9-2.8-1.3-4.8-1.3h-9v10.4h8.8C113.1 119.1 114.8 118.8 116 118L116 118z" fill="#bb8760" class="color000 svgShape"></path><path d="M125.3,119.6c5.3-3.9,4.8-9.4,4.8-9.4c0-9.8-9.9-12.1-15.5-11.9h-12v2.4h12c11.8,0,13.1,6.9,13.1,9.5c0,0,0.4,7.4-7.5,9.5
			c0,0,9.4,2.4,9.4,10.2c0,0,1.4,11.1-14.9,11.1h-12.2v2.4h12.1c5.3,0,9.5-1.1,12.6-3.4c3.1-2.3,4.8-5.9,4.8-9.7c0-0.3,0-0.5,0-0.8
			C131.9,128.3,131.5,122.8,125.3,119.6" fill="#bb8760" class="color000 svgShape"></path><polyline points="144.7 98.3 142.4 98.3 142.4 143.5 173.7 143.5 173.7 141 144.7 141 144.7 98.3" fill="#bb8760" class="color000 svgShape"></polyline><polyline points="155.2 98.3 152.8 98.3 152.8 133 173.7 133 173.7 130.6 155.2 130.6 155.2 98.3" fill="#bb8760" class="color000 svgShape"></polyline><polygon points="194.5 143.5 197.9 143.5 197.9 98.3 194.5 98.3" fill="#bb8760" class="color000 svgShape"></polygon><polygon points="182.3 143.5 185.8 143.5 185.8 98.3 182.3 98.3" fill="#bb8760" class="color000 svgShape"></polygon><path d="M239.3 126.3l-.7.9c-2.5 3-4.6 4.7-8.6 4.8-5.2 0-8.8-4.3-8.9-10.2v-.1c0-5.7 3.7-10.1 8.9-10.1 3.6 0 6 1.7 8.3 4.5l1.9-1.5c-2.5-3.2-5.7-5.5-10.2-5.5-3.1 0-6.1 1.3-8.2 3.7-2.1 2.5-3.2 5.6-3.1 8.8v.1c-.1 3.3 1 6.4 3.1 8.9 2 2.4 5 3.7 8.2 3.7 4.4 0 7.3-2 9.8-4.8l6.9 5c-3.8 4.8-8.6 8.1-17 8.2-11.5 0-20.6-8.8-20.6-20.9v-.1c0-11.8 8.9-21 21.1-21 8.3 0 13.4 3.4 17 8.4l2-1.4c-3.9-5.5-9.9-9.5-18.9-9.4-12.7-.2-23.3 9.9-23.5 22.6 0 .3 0 .5 0 .8v.1c-.1 6.2 2.3 12.3 6.7 16.7 4.3 4.3 10.2 6.7 16.3 6.6h.1c9.7 0 15.5-4.4 19.6-10.2l.7-1L239.3 126.3M90.7 164.2v-4.7h3.1c1.6 0 2.5.8 2.5 2.3 0 1.4-1 2.3-2.5 2.3H90.7zM98.6 161.8c0-2.7-1.8-4.4-4.5-4.4h-5.5v13.9h2.2v-4.8h2.7l3 4.8H99l-3.3-5.3C97.4 165.4 98.6 164.1 98.6 161.8zM108.8 165.8l2.3-5.5 2.3 5.5H108.8zM110.1 157.4l-5.9 13.9h2.4l1.4-3.3h6.3l1.3 3.3h2.5l-5.9-13.9L110.1 157.4zM126.6 169h-2.7v-9.5h2.7c2.8 0 4.7 2 4.7 4.8S129.4 169 126.6 169zM126.6 157.3h-5v13.9h5c4.2 0 7.1-3 7.1-7C133.7 160.3 130.8 157.3 126.6 157.3z" fill="#bb8760" class="color000 svgShape"></path><polygon points="138.9 171.2 142.4 171.2 142.4 157.3 138.9 157.3" fill="#bb8760" class="color000 svgShape"></polygon><path d="M152.8,169.1c-2.6,0-4.5-2.2-4.5-4.8c0-2.6,1.8-4.8,4.5-4.8c2.6,0,4.5,2.2,4.5,4.8C157.3,166.9,155.4,169.1,152.8,169.1z
			 M152.8,157.3c-3.8-0.1-6.9,2.9-7,6.7c0,0.1,0,0.2,0,0.2c-0.1,3.7,2.9,6.8,6.6,6.9c0.1,0,0.2,0,0.3,0c3.8,0.1,6.9-2.9,7-6.7
			c0-0.1,0-0.2,0-0.2c0.1-3.7-2.9-6.8-6.6-6.9C153,157.3,152.9,157.3,152.8,157.3z" fill="#bb8760" class="color000 svgShape"></path></g></switch></svg></g></svg>