<svg id="SvgjsSvg1161" width="288" height="288" xmlns="http://www.w3.org/2000/svg" version="1.1" xmlns:xlink="http://www.w3.org/1999/xlink" xmlns:svgjs="http://svgjs.com/svgjs"><defs id="SvgjsDefs1162"></defs><g id="SvgjsG1163"><svg xmlns="http://www.w3.org/2000/svg" enable-background="new 0 0 250 250" viewBox="0 0 250 250" width="288" height="288"><switch><g fill="#bb8760" class="color000 svgShape"><polyline fill="#bb8760" points="234.4 67.5 182.3 67.5 166.7 83.1 166.7 135.2 182.3 150.8 234.4 150.8 250 135.2 250 119.6 244.8 114.4 218.7 114.4 218.7 119.6 197.9 119.6 197.9 98.8 218.7 98.8 218.7 103.9 244.8 103.9 250 98.8 250 83.1" class="color231f20 svgShape"></polyline><polyline fill="#bb8760" points="78.1 67.5 57.3 67.5 52.1 72.7 52.1 93.5 26 67.5 5.2 67.5 0 72.7 0 145.6 5.2 150.8 26 150.8 31.3 145.6 31.3 124.8 57.3 150.8 78.1 150.8 83.3 145.6 83.3 72.7" class="color231f20 svgShape"></polyline><polyline fill="#bb8760" points="114.6 150.8 135.4 150.8 140.6 145.6 140.6 130 166.7 104 166.7 72.7 161.5 67.5 140.6 67.5 135.4 72.7 135.4 83.1 125 93.5 114.6 83.1 114.6 72.7 109.4 67.5 88.5 67.5 83.3 72.7 83.3 104 109.4 130 109.4 145.6" class="color231f20 svgShape"></polyline><path fill="#bb8760" d="M240.7,68.3v-0.7h3.8v0.7H243v3.7h-0.9v-3.7 M246.5,67.5l1.1,3.2l1.1-3.2h1.3v4.4h-0.8v-3.6l-1.2,3.6h-0.7			l-1.2-3.6v3.6h-0.8v-4.4L246.5,67.5z" class="color231f20 svgShape"></path><polyline fill="#bb8760" points=".2 161.5 5.6 161.5 5.6 169 12.6 169 12.6 161.5 18 161.5 18 182.1 12.6 182.1 12.6 173.6 5.6 173.6 5.6 182.1 .2 182.1" class="color231f20 svgShape"></polyline><path fill="#bb8760" d="M25 175.8c.1 2 1.3 3.4 3.3 3.4 1.2 0 2.3-.5 2.8-1.6h4.6c-.9 3.4-4.1 4.9-7.4 4.9-4.9 0-8.2-2.9-8.2-7.9 0-4.6 3.7-7.9 8.1-7.9 5.3 0 8 4 7.8 9.1M31.1 173.1c-.1-1.7-1.3-3.1-2.9-3.1-1.7 0-2.9 1.2-3.2 3.1H31.1zM37.6 171.7c0-1.7.9-3.2 2.3-4 1.3-.7 3-1 4.7-1 3.5 0 7 .8 7 5v6.5c0 1.3 0 2.6.6 3.8h-4.9c-.2-.5-.3-.9-.3-1.4-1.3 1.3-3.1 1.8-4.9 1.8-2.8 0-5.1-1.4-5.1-4.5 0-4.9 5.3-4.5 8.7-5.2.8-.2 1.3-.5 1.3-1.4 0-1.1-1.4-1.5-2.4-1.5-1.4 0-2.2.6-2.4 1.9M43.9 179.5c2.3 0 3.1-1.3 3-4.4-.7.4-2 .5-3 .8s-2 .7-2 1.9S42.8 179.5 43.9 179.5z" class="color231f20 svgShape"></path><rect width="4.9" height="20.5" x="54.5" y="161.5" fill="#bb8760" class="color231f20 svgShape"></rect><path fill="#bb8760" d="M71.2 170.3h-3v6.8c0 1.2.7 1.4 1.8 1.4.4 0 .8-.1 1.3-.1v3.6c-.9 0-1.8.1-2.7.1-4.2 0-5.2-1.2-5.2-5.3v-6.7h-2.5v-3.2h2.5v-4.5h4.9v4.5h3M72.8 161.5h4.9v7.7h.1c.7-1.5 2.8-2.5 4.5-2.5 5 0 5.4 3.6 5.4 5.8v9.6h-4.9v-7.2c0-2 .2-4.1-2.4-4.1-1.8 0-2.6 1.6-2.6 3.2v8.1h-4.9" class="color231f20 svgShape"></path></g></switch></svg></g></svg>