<svg id="SvgjsSvg1019" width="288" height="288" xmlns="http://www.w3.org/2000/svg" version="1.1" xmlns:xlink="http://www.w3.org/1999/xlink" xmlns:svgjs="http://svgjs.com/svgjs"><defs id="SvgjsDefs1020"></defs><g id="SvgjsG1021"><svg xmlns="http://www.w3.org/2000/svg" enable-background="new 0 0 250 250" viewBox="0 0 250 250" width="288" height="288"><path fill="#bb8760" d="M45.6 197.4h5.7c2-.2 3.8 1.3 3.9 3.4 0 .1 0 .2 0 .3 0 1.9-1.1 3.6-2.7 4.4l1.9 3.2c.7 1.3 1.6 2.5 2.7 3.6v.3h-2c-1.2 0-1.8-2.4-4.1-6.7h-1.8v3.8c0 2 0 1.9 1.7 2.1v.6h-5.3v-.6c1.8 0 1.7 0 1.7-2.1v-9.6c0-2 0-1.9-1.7-2.2V197.4M49.2 205.1h1.6c1.7 0 2.5-1.4 2.5-3.9 0-2.5-1.2-3.2-2.6-3.2h-1.5V205.1zM114.2 200.9L114.2 200.9v8.8c0 .4 0 .8 0 1.2 0 .8.7 1.1 1.5 1.2v.6h-3.9v-.6c.8 0 1.4-.4 1.5-1.2.1-.8 0-.7 0-1.2v-9.6c-.2-1-1-1.7-2-1.9v-.6h3.3l4.8 12.1 4.8-12.1h2.8v.6c-1.3 0-1.7.9-1.7 2.2v9.6c0 2 0 1.9 1.5 2.1v.6H122v-.6c1.5 0 1.5 0 1.5-2.1v-9.3l0 0-4.8 12h-.2l-4.8-11.9M137.9 197.5h5.7c4.2 0 6.4 2.7 6.4 7.1.4 4-2.4 7.5-6.4 8-.1 0-.3 0-.4 0h-5.3v-.6c1.5 0 1.5 0 1.5-2.1v-9.8c0-2 0-1.9-1.5-2.2V197.5M141.1 209.4c0 2.4.4 2.4 2.1 2.4 2.7 0 4.8-1.8 4.8-7.3 0-4.1-1.8-6.5-5.1-6.5H141L141.1 209.4zM56.8 206.4c-.4-3.4 2-6.4 5.4-6.8 3.1 0 4.8 3.4 4.8 6.3 0 3.9-2.3 7-5.4 7S56.8 210 56.8 206.4M65.5 206.4c0-4.4-1.8-6.1-3.6-6.1s-3.4 2.7-3.4 5.3c0 4.4 1.8 6.7 3.6 6.7C64.7 212.2 65.5 208.9 65.5 206.4M76.4 212.6c-2.3-3.4-4.8-7-7-10.5v8.1c0 .4 0 .7 0 1s.6.9 1.5 1v.5h-3.2v-.5c.7 0 1.2-.3 1.2-1 0-.3 0-.7 0-1v-8.6c-.4-.6-.8-1.2-1.6-1.2v-.5h2.6l6.4 9.9 0 0v-7.5c0-.3 0-.6 0-1 0-.7-.5-.9-1.5-1v-.5h3.5v.3c-.7 0-1.2.3-1.3 1-.1.7 0 .6 0 1v10.3h-.5M80 208.3l-.7 2.5c0 .7 0 1.3.7 1.3v.5h-2.7v-.5c.4 0 .8-.3 1-.9.6-1.6 2.3-7.6 3.5-11.6h.8c1 3.7 2.5 9.3 2.9 10.9.5 1.6.5 1.6 1.2 1.6v.5h-3.4v-.5c.9 0 1-.6.8-1.4l-.6-2.4L80 208.3M83.4 207.7l-1.2-5.9 0 0-1.7 5.9L83.4 207.7zM87.3 212.1c1.3 0 1.3 0 1.3-1.8v-8.2c0-1.7 0-1.6-1.3-1.8v-.5h3.9v.3c-1.3 0-1.3 0-1.3 1.8v8.5c0 1.3.6 1.4 1.9 1.4 2.1 0 2-.7 2.6-2.7h.4l-.4 3.3h-7v-.5M95.6 199.8h4.8c3.5 0 5.3 2.3 5.3 6 .4 3.3-2 6.3-5.4 6.7-.1 0-.2 0-.3 0h-4.3v-.5c1.3 0 1.2 0 1.2-1.8v-8.2c0-1.7 0-1.6-1.2-1.8L95.6 199.8M98.2 210c0 2 .4 2 1.7 2 2.3 0 4-1.5 4-6.1 0-3.5-1.5-5.5-4.2-5.5h-1.5L98.2 210zM151.7 206.4c-.4-3.4 2-6.4 5.4-6.8 3.1 0 4.8 3.4 4.8 6.3 0 3.9-2.3 7-5.4 7C153.2 212.8 151.6 210 151.7 206.4M160.3 206.4c0-4.4-1.9-6.1-3.6-6.1s-3.4 2.7-3.4 5.3c0 4.4 1.8 6.7 3.6 6.7C159.5 212.2 160.3 208.9 160.3 206.4" class="colored1c2e svgShape"></path><path fill="#bb8760" d="M171.2 212.6c-2.3-3.4-4.8-7-7-10.5v8.1c0 .4 0 .7 0 1s.6.9 1.5 1v.5h-3.5v-.5c.7 0 1.2-.3 1.2-1 0-.3 0-.7 0-1v-8.6c-.3-.7-.9-1.1-1.7-1.2v-.5h2.7l6.7 9.9 0 0v-7.5c0-.3 0-.6 0-1 0-.7-.5-.9-1.5-1v-.5h3.5v.3c-.7 0-1.2.3-1.3 1-.1.7 0 .6 0 1v10.3h-.5M174.8 208.3l-.6 2.5c0 .7 0 1.3.7 1.3v.5h-2.6v-.5c.4 0 .8-.3 1-.9.6-1.6 2.3-7.6 3.5-11.6h.8c1 3.7 2.4 9.3 2.9 10.9.5 1.6.5 1.6 1.2 1.6v.5h-3.4v-.5c.9 0 1-.6.8-1.4l-.5-2.4h-3.7M178.5 207.7l-1.5-5.9 0 0-1.7 5.9H178.5zM182.2 212.1c1.3 0 1.2 0 1.2-1.8v-8.2c0-1.7 0-1.6-1.2-1.8v-.5h3.9v.3c-1.3 0-1.3 0-1.3 1.8v8.5c0 1.3.6 1.4 1.8 1.4 2.1 0 2-.7 2.7-2.7h.4l-.4 3.3h-7v-.5M190.4 199.8h4.8c3.5 0 5.3 2.3 5.3 6 .4 3.3-1.9 6.3-5.2 6.7-.1 0-.3 0-.4 0h-4.3v-.5c1.3 0 1.2 0 1.2-1.8v-8.2c0-1.7 0-1.6-1.2-1.8L190.4 199.8M193.1 210c0 2 .4 2 1.7 2 2.3 0 4-1.5 4-6.1 0-3.5-1.5-5.5-4.2-5.5h-1.5V210zM137 209.4l-.4 2.3c0 .4-.3.5-.7.6-.9.4-1.8.6-2.8.6-2.9 0-5.6-1.8-5.6-6.7-.2-3.4 2.4-6.3 5.7-6.6 1 0 1.9.2 2.7.6.4.2.6.4.6.7v2.4h-.4c.1-1.6-1.1-2.9-2.6-3-.2 0-.3 0-.5 0-2.7 0-4 2.5-4 5.7s1.3 6.2 4.2 6.2c1.6-.1 3-1.2 3.3-2.8L137 209.4M62.5 227.5c0 2 0 1.9 1.5 2.2v.5h-4.8v-.5c1.5 0 1.4 0 1.4-2.2v-9.6c0-2 0-1.9-1.4-2.1v-.6H64v.6c-1.5 0-1.5 0-1.5 2.1v3.8h6.1v-3.8c0-2 0-1.9-1.5-2.1v-.6h4.8v.6c-1.5 0-1.5 0-1.5 2.1v9.6c0 2 0 1.9 1.5 2.2v.5h-4.8v-.5c1.5 0 1.5 0 1.5-2.2v-5.1h-6.1V227.5M124.4 226.4l-.5 2.7c0 .5-.3.5-.8.7-1.1.4-2.2.7-3.4.7-3.6 0-6.8-2.1-6.8-8-.2-4 2.9-7.5 6.9-7.8 1.2 0 2.3.3 3.3.8.5 0 .7.5.7.8v3h-.4c.1-1.9-1.3-3.5-3.2-3.6-.2 0-.3 0-.5 0-3.2 0-4.8 2.9-4.8 6.8s1.6 7.3 5.1 7.3c1.9-.1 3.6-1.4 4-3.3h.4" class="colored1c2e svgShape"></path><path fill="#bb8760" d="M71.6 223.7c-.4-3.4 2-6.4 5.3-6.8 0 0 0 0 0 0 3.1 0 4.8 3.4 4.8 6.2 0 3.9-2.3 7-5.4 7C73.1 230.1 71.5 227.3 71.6 223.7M80.2 223.7c0-4.4-1.9-6.2-3.6-6.2-1.7 0-3.4 2.8-3.4 5.3 0 4.4 1.8 6.7 3.6 6.7C79.4 229.5 80.2 226.2 80.2 223.7M85 224.7c0 2.6.5 4.5 2.7 4.5 2.2 0 3-1.7 3-4.8v-5.1c0-.3 0-.7 0-1 0-.6-.6-.9-1.3-1v-.4h3.4v.4c-.7 0-1.2.4-1.3 1 0 .3 0 .7 0 1v5.2c0 3.9-2 5.4-3.8 5.4-3 0-4-2-4-5.3v-5.3c0-1.7 0-1.6-1.3-1.8v-.4h3.9v.4c-1.3 0-1.2 0-1.2 1.8v5.4M97.6 219.8c0-1.3-.7-2.3-1.8-2.3-1.2 0-1.5.6-1.5 1.9 0 1.3 1 2 2.4 3.4 1.3.9 2 2.3 2 3.9 0 1.9-1.5 3.4-3.3 3.4 0 0-.1 0-.1 0-.9 0-1.7-.2-2.5-.6l0 0v-2.9h.4c0 2.1 1.2 2.8 2.3 2.8 1.1-.1 2-1.1 1.8-2.3 0 0 0 0 0 0 0-1.2-.5-2.2-2.7-4-1.1-.7-1.8-2-1.7-3.4.1-1.7 1.4-3 3.1-2.9.7 0 1.4.1 2 .3l0 0v2.4h-.4M99.5 229.4c1.3 0 1.2 0 1.2-1.8v-8.2c0-1.7 0-1.6-1.2-1.8v-.4h6.4v2.9h-.4c0-1.3-.4-2.4-1.4-2.4h-2v5.2h1.2c.9 0 1.3-.4 1.3-1.6h.3v3.9h-.3c0-1.1-.4-1.7-1.3-1.7h-1.2v4.1c0 1.5.6 1.7 1.9 1.7 2.1 0 2-.8 2.6-2.7h.4l-.4 3.3h-7V229.4M128.1 227.6c0 1.7 0 1.6 1.3 1.8v.5h-3.8v-.5c1.3 0 1.2 0 1.2-1.8v-8.2c0-1.7 0-1.6-1.2-1.8v-.4h3.9v.4c-1.3 0-1.3 0-1.3 1.8v3.2h5.1v-3.2c0-1.7 0-1.6-1.3-1.8v-.4h3.9v.4c-1.3 0-1.2 0-1.2 1.8v8.2c0 1.7 0 1.6 1.2 1.8v.5H132v-.5c1.3 0 1.3 0 1.3-1.8v-4.3h-5.2V227.6M139.1 225.6l-.6 2.5c0 .7 0 1.3.7 1.3v.5h-2.7v-.5c.5-.1.9-.4 1.1-.9.6-1.6 2.3-7.6 3.5-11.6h.8c1 3.7 2.4 9.3 2.9 10.9s.6 1.6 1.2 1.6v.5h-3.4v-.5c.9 0 1-.6.8-1.4l-.6-2.4L139.1 225.6M142.5 225l-1.5-6 0 0-1.7 6H142.5zM146.7 217.1h4.1c1.6 0 2.9 1.2 2.9 2.8 0 .1 0 .2 0 .3.1 1.5-.7 3-2 3.7l1.4 2.7c.5 1.1 1.2 2.1 2 3v.2h-1.5c-.8 0-1.3-2-3-5.7h-1.3v3.4c0 1.7 0 1.6 1.3 1.8v.5h-3.9v-.5c1.3 0 1.2 0 1.2-1.8v-8.2c0-1.7 0-1.6-1.2-1.8L146.7 217.1M149.3 223.6h1.2c1.3 0 1.8-1.2 1.8-3.3 0-2.1-.9-2.7-1.9-2.7h-1.1V223.6zM158.4 227.6c0 1.7 0 1.6 1.2 1.8v.5h-3.9v-.5c1.3 0 1.3 0 1.3-1.8v-8.2c0-1.7 0-1.6-1.3-1.8v-.4h3.9v.4c-1.3 0-1.2 0-1.2 1.8L158.4 227.6M165.3 227.6c0 1.7 0 1.6 1.2 1.8v.5h-3.9v-.5c1.3 0 1.3 0 1.3-1.8v-9.9h-1.3c-1.3 0-1.5 1-2 2.2h-.3l.4-2.8h8l.4 2.8h-.4c-.5-1.2-.8-2.2-2-2.2h-1.3L165.3 227.6M172.2 227.6c0 1.7 0 1.6 1.2 1.8v.5h-3.9v-.5c1.3 0 1.3 0 1.3-1.8v-8.2c0-1.7 0-1.6-1.3-1.8v-.4h3.9v.4c-1.3 0-1.2 0-1.2 1.8V227.6M174.6 229.4c1.3 0 1.3 0 1.3-1.8v-8.2c0-1.7 0-1.6-1.3-1.8v-.4h6.4v2.9h-.4c0-1.3-.4-2.4-1.4-2.4h-2v5.2h1.4c.9 0 1.3-.4 1.3-1.6h.4v3.9H180c0-1.1-.4-1.7-1.3-1.7h-1.4v4.1c0 1.5.6 1.7 1.9 1.7 2.1 0 2-.8 2.7-2.7h.3l-.4 3.3h-7V229.4M187.8 219.8c0-1.3-.7-2.3-1.8-2.3-1.1 0-1.6.6-1.6 1.9 0 1.3 1 2 2.4 3.4 1.3.9 2 2.3 2 3.9 0 1.9-1.5 3.4-3.3 3.4 0 0-.1 0-.1 0-.9 0-1.7-.2-2.5-.6l0 0v-2.9h.5c0 2.1 1.2 2.8 2.3 2.8 1.1-.1 2-1.1 1.8-2.3 0 0 0 0 0 0 0-1.2-.5-2.2-2.7-4-1.1-.7-1.8-2-1.7-3.4.1-1.7 1.4-3 3.1-2.9.7 0 1.4.1 2 .3l0 0v2.4h-.5" class="colored1c2e svgShape"></path><path d="M148.2,19.8c8.2,11.8,21,19.6,35.2,21.4c2.1,0,4.2-0.2,6.3-0.5c0.8,0,1.4,0.7,1.4,1.5l-0.6,1.8l-22,33	c-1.1,2.2-4.1,0.6-4.6,3.1l-1,2.1c1.5,2.7,1.9,6,0.9,9c-3.2,4.9-7.9,8.4-9.6,14c1.2,3.9,2.7,7.8,4.5,11.4c1.1,2.8,1.6,5.8,1.5,8.8
	c2.2-0.9,5.3-2.6,7.4-0.3c1.5,2.3,1.5,5.3,0,7.6c-2.3,3.2-5.5,5.6-9.2,7.1c-0.7,2.6-0.8,5.8-3.5,7.4c-1.8,1-3.9,1.5-6,1.7
	c-0.5,2.5-2.5,4.5-5.1,5.1c0,1.9,0,4.5-1.8,5.7c-1.4,1.2-3.2,1.7-5,1.2c-0.2,2.7-1.9,5.1-4.5,6.1H130c-2.3,2.1-5.5,2.8-8.4,1.9
	c-1.8-0.5-3.4-1.5-4.6-2.8c-2.6,0.2-5.1-0.9-6.6-2.9c-0.8-1.2-1.5-2.6-2-4c-3.7-0.7-6.6-3.5-7.4-7.2l-0.6-3.8
	c-6.7-5.9-5.3-16.3-2.6-23.8l3.2-7.2c-2.4-5-5.3-9.7-8.1-14.6c-1.5-0.3-3.6,0-4.5-1.5l-7.4-13.6c-1.5-0.7-3.4-1-4.3-2.7L58.3,51.3
	c-0.3-1.2-0.2-2.4,0.4-3.4l2.1-1.4c7.2-0.4,14-3.4,19.1-8.5c2.3-2.1,4.9-6.1,8.5-4.2l1.1,1.2l19.4,35.3c0.3,1.4-1.5,2.3-0.5,3.6
	l6.1,12.2c0.9,2.1-1.8,3.9,0.4,5.3l0.6-0.8c2-4.7,2.7-9.9,1.9-15c0.4-5.3,6.5-7.6,10.7-9l2-3.6c-1.2-1.5-1.5-3.6-0.7-5.3
	c5.3-12.7,11-25.3,16.5-37.9c0.6-0.6,1.6-0.6,2.2,0" fill="#000000" class="color000 svgShape"></path><path fill="#bb8760" d="M185,45.4c-0.4,1-0.9,2-1.6,2.9c-14.8,2.1-27.6-6.8-37.4-17.5c0.3-1.3,0.8-2.6,1.5-3.8
	c9.7,10.7,21.4,19.8,37.4,18.4" class="colored1c2e svgShape"></path><path fill="#ffffff" d="M180.1,52.7c-0.4,1-0.9,1.9-1.6,2.7c-14.4,0.6-26.1-6.9-35.5-17.2c0.3-1.1,0.8-2.1,1.4-3
	C153.9,45.3,165.4,53.3,180.1,52.7" class="colorfff svgShape"></path><path fill="#bb8760" d="M175.7 59.3c-.6.9-1 3-2.6 2.8-12.8-.6-24.9-6.3-33.6-15.8.3-1.3.8-2.6 1.5-3.7C150.5 51.6 161.4 59.7 175.7 59.3M103.6 69.8c0 4.3-4.7 6.3-7.6 8.8L89.6 82c-.5.7-.6 1.6-.3 2.3 2.5 2.8 5.3-1 7.8-1.8 2.9-1.7 5.6-3.6 8.1-5.8l5.9 10.7c-1.7 3.4-4.5 6.1-7.9 7.7-3.3 2.3-7.3 3.5-11.3 3.3-3-4.9-5.3-9.9-8.5-14.8-1.6.1-3.1-.8-3.7-2.2l-16-29.5c0-1.1 1-1.1 1.6-1.4 8.1-1.5 15.5-5.6 21-11.7l1 .3L103.6 69.8" class="colored1c2e svgShape"></path><path fill="#ffffff" d="M171.4,65.5c-0.4,1.1-1,2.1-1.8,3c-12.6-0.3-24.5-5.6-33.2-14.7c0.1-1.4,0.6-2.7,1.4-3.8
	C146.6,59.2,158.6,64.8,171.4,65.5" class="colorfff svgShape"></path><path fill="#bb8760" d="M166.8 71.9c0 1-.9 1.6-1.5 2.4-11.8-.4-23-5.1-31.6-13.2-.6-1.1 0-2.3.6-3.2C143.2 66.2 154.7 71.1 166.8 71.9M160.1 78.4c-.6 2.6-2.3 4.8-4.6 6-5.1 2.3-11.1 2.1-16-.6-3.7-2.4-7.5-4.8-7.8-9.7 0-2.6.7-5.1 2.2-7.2 7.7 5.9 16.8 9.8 26.4 11.5" class="colored1c2e svgShape"></path><path fill="#ffffff" d="M126.9,73.2c-0.4,5.1,2.1,9.9,6.5,12.5c6.8,5.1,15.7,6.2,23.5,2.9l2.7-1.5c0.6,0.7,0.8,1.7,0.4,2.6
	c-3.4,4.5-6.5,9.2-9.3,14c-1,7.8,6.3,13.5,5.3,21.4c-0.3,5.4-0.9,10.7-2,16c-0.8-6.8-4.7-12.9-10.7-16.4c-1.4-0.3-2.8-0.1-4.1,0.6
	c-1,0.8-1.8,1.9-2.2,3.2c-1.5-0.5-3.1-0.4-4.5,0.3c-2.4,1.3-3.8,3.9-3.6,6.6c-2.3,0.8-3.9,2.9-4.2,5.3c0,1.5,0,3.4,0.5,4.7
	c-3.3,5.6-3.3,12.6,0,18.2l1.5,1.9c-1.1,0.6-2.5,0.6-3.7,0c-5-2.3-4.8-8.5-4.4-13.5c0-3.1,2-7.1,0-9.5c-0.9-0.4-2,0.1-2.4,1
	c0,0,0,0.1,0,0.1c-2,6.1-2.4,12.5-1.1,18.8c-3.2-2.7-4.6-6.9-3.7-11c0.4-5,1.3-9.9,2.7-14.7c0.1-0.8-0.3-1.6-1-2.1
	c-1-0.6-2.1,0.3-2.5,1.1c-2.1,6.3-3,12.9-2.7,19.5c-2-0.4-2.7-2.9-3.3-4.7c-0.3-5.9,0.6-11.9,2.5-17.5c0-0.9,0-2.3-1.3-2.5
	c-3.2,0-2.9,4.1-4,6.5l-0.9,5.9c-2.7-3.6-1.3-9.3-0.4-13.7c4.7-10.7,10-21.2,16-31.2c3.4-5.7,5.3-12.1,5.6-18.7
	c-0.4-1.8-0.2-3.7,0.7-5.3c1.1-1,2.6-1.7,4.1-1.9v1.3" class="colorfdb927 svgShape"></path><path fill="#ffffff" d="M112.7,96.3c-2.7,5.9-5.8,11.6-9.1,17.1l0,0l-5.9-10.7c5.1-2,9.8-4.8,14-8.3c0.6,0.4,0.9,1.4,1.3,2.1" class="colorfff svgShape"></path><path d="M123.9,107.4c0,2-0.9,3.9-0.9,5.7c1.7-3.3,4.2-6.1,7.3-8.1c0.9,0.2,1.6,0.8,1.9,1.7c0.5,7.6-0.8,15.2-3.7,22.2
	c-0.9-0.4-1.7-0.9-2.5-1.6c1.9-5.2,3.4-10.6,4.5-16c0-1.3,1-3.3,0-4.2c-2.4,1.3-3.5,4-5,6c-1.7,3-3.2,6.3-4.6,9.3
	c-0.8-1-4.3-1.6-2.7-3.6c2.4-4.8,3.9-10.1,4.5-15.4c-0.3-0.3-0.8-0.3-1.1,0c-3.9,4.1-7.1,8.9-9.5,14l-2.3-1.7
	c2.7-5.8,7-10.7,12.2-14.4c0.6,0,1.1,0.2,1.5,0.6c1,1.6,0.3,3.9,0.3,5.7" fill="#000000" class="color000 svgShape"></path><path fill="#ffffff" d="M165.7 129c0 3-3 4.6-5.3 5.7 0 0-.9 0-.7 0l.4-4.3c1.5-1 3.1-1.8 4.9-2.1l.6.9M148.9 136.9c.8 2.2 2.8 5.3.5 7.3-.4 0-.6.4-1 0-1.8-5.1-4.7-9.8-8.5-13.7.3-.9 0-1.9 1.3-2.4 4.3.4 5.8 5.3 7.7 8.5M141.6 139c1.1 3.7 6.4 8.2 1.8 11.7-2.7-5.4-6.3-10.2-10.7-14.4-.4-.9-.4-2 0-2.9.5-.6 1.2-1 1.9-1.2C138.1 132.8 140 136.4 141.6 139M136.9 145.9c2 2.8 3.4 5.9 4.1 9.2-.1 1-.8 1.9-1.8 2.3l-2-.4c-1.5-4.4-2.4-10.7-8.1-12.2-.9-1.5-1.1-3.3-.5-5 .8-.7 2.1-.7 2.9 0 2.4 1.5 4.3 3.6 5.6 6.1M131.1 151.1c1.4 3.1 2.1 6.4 2.1 9.8-.3.9-.9 2.1-2.1 2.1-3.3-.4-3.4-4.4-4.5-6.8-.6-2.3-.4-4.8.7-6.9C128.8 148 130.5 149.7 131.1 151.1M223.7 179.1c3.4 0 6.2 2.7 6.2 6.1 0 3.4-2.7 6.2-6.1 6.2-3.4 0-6.2-2.7-6.2-6.1 0 0 0-.1 0-.1-.1-3.3 2.6-6.1 5.9-6.1C223.6 179.1 223.6 179.1 223.7 179.1L223.7 179.1M223.7 180c-2.9-.2-5.5 2-5.7 5-.2 2.9 2 5.5 5 5.7 2.9.2 5.5-2 5.7-5 0-.1 0-.2 0-.4.1-2.8-2-5.2-4.8-5.3C223.8 180 223.8 180 223.7 180zM222.6 188.8h-1.1V182c.7-.1 1.3-.1 2 0 .7 0 1.5.1 2.1.5.4.4.6.9.6 1.4 0 .8-.5 1.5-1.3 1.7l0 0c.6 0 1 .7 1.2 1.7.1.6.2 1.2.4 1.7h-1.1c-.3-.5-.5-1.1-.5-1.8 0-.9-.6-1.2-1.5-1.2h-.7L222.6 188.8zM222.6 185h.8c.9 0 1.7-.3 1.7-1.2 0-.9-.4-1.2-1.7-1.2h-.8V185z" class="colorfff svgShape"></path></svg></g></svg>