<?xml version="1.0" encoding="utf-8"?>
<!-- Generator: Adobe Illustrator 26.2.1, SVG Export Plug-In . SVG Version: 6.00 Build 0)  -->
<svg version="1.1" id="Layer_1" xmlns="http://www.w3.org/2000/svg" xmlns:xlink="http://www.w3.org/1999/xlink" x="0px" y="0px"
	 viewBox="0 0 672 230" style="enable-background:new 0 0 672 230;" xml:space="preserve">
<style type="text/css">
	.st0{fill-rule:evenodd;clip-rule:evenodd;fill:#91928E;}
	.st1{fill-rule:evenodd;clip-rule:evenodd;fill:#BB8760;}
	.st2{fill-rule:evenodd;clip-rule:evenodd;fill:#050E13;}
	.st3{fill-rule:evenodd;clip-rule:evenodd;fill:#EFB78E;}
	.st4{fill-rule:evenodd;clip-rule:evenodd;fill:#0A0B09;}
</style>
<g transform="translate(2)">
	<polyline class="st0" points="68.9,197.6 68.9,161.5 84.8,161.5 84.8,166.7 74.9,166.7 74.9,176.6 83.2,176.6 83.2,181.9 
		74.9,181.9 74.9,192.3 84.9,192.3 84.9,197.6 68.9,197.6 	"/>
	<polyline class="st0" points="114.7,192.3 111.3,192.3 105.9,175.5 105.9,197.6 100.3,197.6 100.3,161.5 106,161.5 113,182.5 
		120,161.5 125.9,161.5 125.9,197.6 120.1,197.6 120.1,175.5 114.7,192.3 	"/>
	<path class="st0" d="M154.4,170c0-2.6-1.3-3.3-3.3-3.3h-3.2v11.6h3.2c2,0,3.3-0.7,3.3-3.3V170z M160.4,169.1v6.9
		c0,5.5-3.6,7.6-9.1,7.6h-3.4v14h-6v-36.1h9.4C156.7,161.5,160.4,163.7,160.4,169.1L160.4,169.1z"/>
	<polyline class="st0" points="190.8,197.6 175.5,197.6 175.5,161.5 181.5,161.5 181.5,192.2 190.8,192.2 190.8,197.6 	"/>
	<path class="st0" d="M214.9,192.7c2,0,3.3-0.7,3.3-3.3v-19.8c0-2.6-1.3-3.3-3.3-3.3c-2,0-3.3,0.7-3.3,3.3v19.8
		C211.5,192,212.9,192.7,214.9,192.7z M214.6,161.1h0.4c5.5,0,9.1,2.2,9.1,7.6v21.7c0,5.5-3.6,7.6-9.1,7.6h-0.4
		c-5.5,0-9.1-2.2-9.1-7.6v-21.7C205.5,163.2,209.2,161.1,214.6,161.1L214.6,161.1z"/>
	<polyline class="st0" points="251.4,197.6 245.4,197.6 245.4,184.7 238.1,161.5 244.4,161.5 248.4,178.2 252.5,161.5 258.7,161.5 
		251.4,184.7 251.4,197.6 	"/>
	<polyline class="st0" points="273.5,197.6 273.5,161.5 289.3,161.5 289.3,166.7 279.5,166.7 279.5,176.6 287.7,176.6 287.7,181.9 
		279.5,181.9 279.5,192.3 289.5,192.3 289.5,197.6 273.5,197.6 	"/>
	<polyline class="st0" points="304.9,197.6 304.9,161.5 320.8,161.5 320.8,166.7 310.9,166.7 310.9,176.6 319.2,176.6 319.2,181.9 
		310.9,181.9 310.9,192.3 320.9,192.3 320.9,197.6 304.9,197.6 	"/>
	<path class="st0" d="M347.9,174.4v-5.1c0-2.3-1.3-3.1-3.1-3.1s-3.1,0.8-3.1,3.1v2.5c0,1.9,0.6,2.7,2.3,3.7l4.2,2.4
		c3.5,2,5.5,3.6,5.5,7.4v5.2c0,5.6-3.5,7.5-9,7.5h-0.1c-5.5,0-8.9-1.9-8.9-7.5v-6.3h5.9v5.5c0,2.2,1.3,3.2,3.1,3.2
		c1.8,0,3.1-1,3.1-3.2v-2.8c0-1.9-0.6-2.8-2.4-3.8l-4.2-2.4c-3.5-2-5.5-3.7-5.5-7.4v-4.7c0-5.4,3.9-7.4,8.9-7.4h0.1
		c5,0,8.9,2.1,8.9,7.4v5.9H347.9 M375,166.6c0,3.2-1.6,6.3-3.4,8.4l-2.2-1.1c1.2-1.6,2.2-3.9,2.4-5.7h-2.7v-6.7h5.9V166.6
		 M428.2,190.4c0,5.6-3.6,7.6-9.1,7.6h-0.1c-5.5,0-9.1-2-9.1-7.6v-21.7c0-5.4,3.6-7.6,9.1-7.6h0.1c5.5,0,9.1,2.3,9.1,7.6v6.6h-6
		v-5.7c0-2.5-1.2-3.3-3.2-3.3c-1.9,0-3.2,0.8-3.2,3.3v19.8c0,2.5,1.2,3.3,3.2,3.3c1.9,0,3.2-0.8,3.2-3.3v-6.5h6V190.4"/>
	<polyline class="st0" points="449.8,161.5 449.8,176.5 456.7,176.5 456.7,161.5 462.7,161.5 462.7,197.6 456.7,197.6 456.7,181.9 
		449.8,181.9 449.8,197.6 443.8,197.6 443.8,161.5 449.8,161.5 	"/>
	<path class="st0" d="M487.8,192.7c2,0,3.3-0.7,3.3-3.3v-19.8c0-2.6-1.3-3.3-3.3-3.3c-2,0-3.3,0.7-3.3,3.3v19.8
		C484.5,192,485.8,192.7,487.8,192.7z M487.6,161.1h0.4c5.5,0,9.1,2.2,9.1,7.6v21.7c0,5.5-3.6,7.6-9.1,7.6h-0.4
		c-5.5,0-9.1-2.2-9.1-7.6v-21.7C478.5,163.2,482.1,161.1,487.6,161.1L487.6,161.1z"/>
	<polygon class="st0" points="513,197.6 519,197.6 519,161.5 513,161.5 	"/>
	<path class="st0" d="M553.2,190.4c0,5.6-3.6,7.6-9.1,7.6h-0.1c-5.5,0-9.1-2-9.1-7.6v-21.7c0-5.4,3.6-7.6,9.1-7.6h0.1
		c5.5,0,9.1,2.3,9.1,7.6v6.6h-6v-5.7c0-2.5-1.2-3.3-3.2-3.3c-1.9,0-3.2,0.8-3.2,3.3v19.8c0,2.5,1.2,3.3,3.2,3.3
		c1.9,0,3.2-0.8,3.2-3.3v-6.5h6V190.4"/>
	<polyline class="st0" points="568.8,197.6 568.8,161.5 584.7,161.5 584.7,166.7 574.8,166.7 574.8,176.6 583.1,176.6 583.1,181.9 
		574.8,181.9 574.8,192.3 584.8,192.3 584.8,197.6 568.8,197.6 	"/>
	<path class="st1" d="M98.1,103.3c6.4,0,10.7-2.3,10.7-10.7v-64c0-8.3-4.4-10.7-10.7-10.7c-6.4,0-10.7,2.3-10.7,10.7v64
		C87.4,100.9,91.8,103.3,98.1,103.3z M97.4,0.9h1.3c17.7,0,29.4,7,29.4,24.7v70.1c0,17.7-11.7,24.7-29.4,24.7h-1.3
		c-17.7,0-29.4-7-29.4-24.7V25.5C68,7.7,79.7,0.9,97.4,0.9L97.4,0.9z M181.3,29.9c0-8.3-4.3-10.7-10.7-10.7h-10.2v37.5h10.2
		c6.4,0,10.7-2.3,10.7-10.7V29.9z M200.7,26.9v22.2c0,17.7-11.7,24.7-29.4,24.7h-10.9v45.2h-19.4V2.2h30.3
		C189,2.2,200.7,9.2,200.7,26.9L200.7,26.9z M298.4,95.6c0,18-11.7,24.7-29.4,24.7h-0.3c-17.7,0-29.4-6.5-29.4-24.7V25.5
		c0-17.3,11.7-24.7,29.4-24.7h0.3c17.7,0,29.4,7.3,29.4,24.7v21.3H279V28.5c0-8.2-4-10.7-10.2-10.7c-6.2,0-10.2,2.5-10.2,10.7v64
		c0,8.2,4,10.7,10.2,10.7c6.2,0,10.2-2.5,10.2-10.7V71.4h19.4V95.6"/>
	<polyline class="st1" points="310.6,118.9 310.6,2.2 362,2.2 362,19.2 330,19.2 330,51.2 356.8,51.2 356.8,68.2 330,68.2 
		330,101.9 362.5,101.9 362.5,118.9 310.6,118.9 	"/>
	<path class="st1" d="M403.7,103.3c6.4,0,10.7-2.3,10.7-10.7v-64c0-8.3-4.4-10.7-10.7-10.7c-6.4,0-10.7,2.3-10.7,10.7v64
		C393,100.9,397.3,103.3,403.7,103.3z M403,0.9h1.3c17.7,0,29.4,7,29.4,24.7v70.1c0,17.7-11.7,24.7-29.4,24.7H403
		c-17.7,0-29.4-7-29.4-24.7V25.5C373.6,7.7,385.3,0.9,403,0.9L403,0.9z M478.3,54.1V40c0-6.3-3.6-8.6-8.5-8.6
		c-4.9,0-8.5,2.3-8.5,8.6v6.9c0,5.2,1.7,7.5,6.5,10.2l11.8,6.6c9.7,5.5,15.5,9.9,15.5,20.7v14.6c0,15.6-9.7,21-25,21h-0.3
		c-15.3,0-25-5.3-25-21V81.5h16.5v15.3c0,6.2,3.6,8.9,8.7,8.9c5.1,0,8.7-2.7,8.7-8.9v-7.9c0-5.2-1.6-7.8-6.6-10.5l-11.7-6.6
		c-9.8-5.6-15.5-10.2-15.5-20.7V37.7c0-15,11-20.7,24.9-20.7h0.3c13.9,0,24.9,5.8,24.9,20.7v16.4H478.3"/>
	<path class="st2" d="M642.4,67.9v34.8h18.9V38C661.3,51.8,652.7,58.3,642.4,67.9 M661.3,24.1V1.3h-10.6c-0.2,0.6-0.3,1.1-0.5,1.7
		C657.4,6.5,661.3,13.2,661.3,24.1 M605.4,43.3v48.3c0-12.7,8.9-21.5,18.9-30.8V43.3H605.4 M585.2,24.2v3.7
		c0-8.4,3.9-10.7,10.1-10.7c6.2,0,10.1,2.4,10.1,10.7v2.6c0-2.5,0-4.8,0-6.3c0.1-9.8,3.3-16.2,9.2-20C609.9,1.3,603.6,0,596,0h-1.3
		c-7.5,0-13.8,1.3-18.5,4.1C582.1,7.9,585.2,14.3,585.2,24.2 M605.4,92.4c0,8.4-3.9,10.7-10.1,10.7c-6.2,0-10.1-2.3-10.1-10.7V37.9
		c0,13.9-8.6,20.3-18.9,30v27.4c0,2.7,0.2,5.2,0.7,7.4h18.1v16.1h-2.3c3.4,0.9,7.4,1.3,11.7,1.3h1.3c4.4,0,8.3-0.4,11.7-1.3h-2.3
		V92.4"/>
	<path class="st3" d="M629.5,55.9c-1.7,1.7-3.5,3.3-5.2,4.9V92c0-6.4,6.4-12.8,16.2-22.2c0.7-0.7,1.4-1.3,2-1.9V37.6
		C642.4,43.8,638.4,47.3,629.5,55.9 M624.2,102.7v-7.4c0,13.4-6,20.7-16.6,23.5h34.7v-16.1H624.2 M624.2,24.8v1.3
		c0-8,3.5-10.1,8.9-10.1c5.4,0,9.3,2,9.3,10.1V15.1c3.2-3.3,6.1-7.2,7.7-12.1c-4.3-2.1-9.8-3-16.5-3h-0.3c-7.8,0-14.1,1.3-18.8,4.2
		C620.8,8.1,624.2,14.7,624.2,24.8"/>
	<path class="st1" d="M642.4,26.2C642.4,26.2,642.4,26.2,642.4,26.2v11.4c0,0,0,0,0,0v30.3c10.2-9.6,18.8-16.1,18.9-29.9V24.1
		c0-10.9-3.9-17.6-11.1-21.1c-1.7,4.9-4.6,8.8-7.7,12.1V26.2"/>
	<polygon class="st1" points="642.4,118.9 661.3,118.9 661.3,102.7 642.4,102.7 	"/>
	<path class="st1" d="M624.2,95.4V92c0,0,0,0,0,0V60.8c-9.9,9.3-18.8,18.1-18.9,30.8v0.7c0,0,0,0,0,0v26.5h2.3
		C618.2,116.1,624.2,108.8,624.2,95.4 M605.4,24.2c0,1.4,0,3.8,0,6.3v12.9h18.9V26.2c0,0,0,0,0,0v-1.3c0-10.1-3.4-16.8-9.7-20.6
		C608.7,8,605.5,14.4,605.4,24.2"/>
	<path class="st3" d="M567,102.7h-18.9V92c0-6.4,6.4-12.8,16.2-22.2c0.7-0.7,1.4-1.3,2-1.9V37.6c0,6.2-4,9.7-13,18.3
		c-11.8,11.2-24.1,20.8-24.1,35.8v27.2h53.6C574.5,116.6,568.9,111.5,567,102.7 M576.1,4.1C571.6,1.3,565.3,0,557.6,0h-0.3
		c-17.9,0-27.6,6.7-27.6,24.2v19.1h18.5V26.2c0-8.1,3.5-10.1,8.9-10.1c5.4,0,9.3,2,9.3,10.1v-1.3C566.3,14.6,569.8,8,576.1,4.1"/>
	<path class="st1" d="M585.2,102.7H567c1.9,8.8,7.4,13.9,15.8,16.1h2.3V102.7 M585.2,37.9V24.2c0-9.9-3.1-16.3-9.1-20
		c-6.3,3.8-9.8,10.5-9.8,20.7v43.1C576.6,58.3,585.2,51.8,585.2,37.9"/>
	<path class="st4" d="M666.5,117.5C666.6,117.5,666.6,117.5,666.5,117.5C666.6,117.4,666.6,117.4,666.5,117.5c0.1,0,0.1,0,0.1,0
		c0,0,0,0,0,0l0.2,0.2c-0.1,0.1-0.2,0.2-0.4,0.3s-0.4,0.1-0.6,0.1c-0.2,0-0.4,0-0.5-0.1c-0.2-0.1-0.3-0.2-0.4-0.3
		c-0.1-0.1-0.2-0.3-0.3-0.4c-0.1-0.2-0.1-0.3-0.1-0.5c0-0.2,0-0.4,0.1-0.5c0.1-0.2,0.2-0.3,0.3-0.4c0.1-0.1,0.3-0.2,0.4-0.3
		c0.2-0.1,0.3-0.1,0.5-0.1c0.2,0,0.4,0,0.5,0.1c0.1,0.1,0.3,0.2,0.4,0.3l-0.1,0.2c0,0,0,0,0,0c0,0,0,0-0.1,0c0,0-0.1,0-0.1,0
		c0,0-0.1,0-0.1-0.1c0,0-0.1-0.1-0.2-0.1c-0.1,0-0.2,0-0.3,0c-0.1,0-0.3,0-0.4,0.1c-0.1,0-0.2,0.1-0.3,0.2c-0.1,0.1-0.1,0.2-0.2,0.3
		c0,0.1-0.1,0.2-0.1,0.4c0,0.1,0,0.3,0.1,0.4c0,0.1,0.1,0.2,0.2,0.3c0.1,0.1,0.2,0.1,0.3,0.2c0.1,0,0.2,0.1,0.3,0.1
		c0.1,0,0.2,0,0.2,0c0.1,0,0.1,0,0.2,0c0,0,0.1,0,0.1-0.1C666.5,117.5,666.5,117.5,666.5,117.5z M664,116.7c0,0.2,0,0.3,0.1,0.5
		c0,0.2,0.1,0.3,0.2,0.4c0.1,0.1,0.2,0.3,0.3,0.4c0.1,0.1,0.2,0.2,0.4,0.3c0.1,0.1,0.3,0.1,0.4,0.2c0.2,0,0.3,0.1,0.5,0.1
		c0.3,0,0.5,0,0.7-0.1c0.2-0.1,0.4-0.2,0.6-0.4c0.2-0.2,0.3-0.4,0.4-0.6c0.1-0.2,0.1-0.5,0.1-0.7c0-0.2,0-0.3-0.1-0.5
		c0-0.2-0.1-0.3-0.2-0.4c-0.1-0.1-0.2-0.3-0.3-0.4c-0.1-0.1-0.2-0.2-0.4-0.3c-0.1-0.1-0.3-0.1-0.4-0.2s-0.3-0.1-0.5-0.1
		c-0.3,0-0.5,0-0.7,0.1c-0.2,0.1-0.4,0.2-0.6,0.4c-0.2,0.2-0.3,0.4-0.4,0.6C664.1,116.2,664,116.5,664,116.7z M663.7,116.7
		c0-0.2,0-0.4,0.1-0.6c0.1-0.2,0.1-0.4,0.2-0.5c0.1-0.2,0.2-0.3,0.3-0.4s0.3-0.2,0.4-0.3s0.3-0.2,0.5-0.2c0.2-0.1,0.4-0.1,0.6-0.1
		c0.2,0,0.4,0,0.6,0.1c0.2,0.1,0.4,0.1,0.5,0.2c0.2,0.1,0.3,0.2,0.4,0.3c0.1,0.1,0.2,0.3,0.3,0.4c0.1,0.2,0.2,0.3,0.2,0.5
		c0.1,0.2,0.1,0.4,0.1,0.6c0,0.2,0,0.4-0.1,0.6c0,0.2-0.1,0.4-0.2,0.5c-0.1,0.2-0.2,0.3-0.3,0.4c-0.1,0.1-0.3,0.2-0.4,0.3
		c-0.2,0.1-0.3,0.2-0.5,0.2c-0.2,0.1-0.4,0.1-0.6,0.1c-0.2,0-0.4,0-0.6-0.1c-0.2-0.1-0.4-0.1-0.5-0.2c-0.2-0.1-0.3-0.2-0.4-0.3
		c-0.1-0.1-0.2-0.3-0.3-0.4c-0.1-0.2-0.2-0.3-0.2-0.5C663.8,117.1,663.7,116.9,663.7,116.7L663.7,116.7z"/>
	<polyline class="st1" points="58.6,19.2 39,19.2 39,118.9 19.6,118.9 19.6,19.2 0,19.2 0,2.2 58.6,2.2 58.6,19.2 	"/>
</g>
</svg>
