<svg id="SvgjsSvg1117" width="288" height="288" xmlns="http://www.w3.org/2000/svg" version="1.1" xmlns:xlink="http://www.w3.org/1999/xlink" xmlns:svgjs="http://svgjs.com/svgjs"><defs id="SvgjsDefs1118"></defs><g id="SvgjsG1119"><svg xmlns="http://www.w3.org/2000/svg" enable-background="new 0 0 250 250" viewBox="0 0 250 250" width="288" height="288"><switch><g fill="#000000" class="color000 svgShape"><path fill="#bb8760" fill-rule="evenodd" d="M229.2,85.8c1.9,3.6,3.5,7.3,5,11.2l-7.4,10.9c1.6,0.7,3.4,0.8,5.1,0.3c8.3,10.8,9.2,28.5,2.4,40.1l15.2,16.9			l-24.7,0.3l-0.1-10.1c-2.1-0.8-4.3-0.9-6.5-0.3c-0.4,4.2-2.2,8.7-6.3,10.5c-2.1,0.6-4.4-0.1-5.7-1.9c-1.7-2.2-1.5-6.1-0.9-8.9
			l-0.5-0.4l-12-0.4c-1.1-2.5-0.5-5.6-1.4-8.1c-2.3-0.6-4.8-0.7-7.1-0.4c1.2,7.1-1.7,14.3-7.6,18.5c-2.1,1-4.4,1.3-6.7,0.8
			c-3.4-1.5-5.6-5-5.5-8.7c-0.3-3.9,0.4-7.9,2.1-11.5l-12-0.5c-2,1.8-3.8,4.8-7,3.3l-2.1-0.9l-11.9-0.6c1,6.7-0.8,13.6-6.9,17.3
			c-1.7,1-3.8,1.1-5.7,0.4c-3.2-1.9-4.9-5.5-4.5-9.1c0.1-3.3,1.1-6.6,3-9.4l-11.2-0.8c0.9,6.3-1.3,12.7-5.8,17.2
			c-2.3,2-5.5,2.7-8.4,1.8c-2.5-1.6-4.2-4.2-4.8-7.1c-0.7-4.4,0.2-8.8,2.7-12.5c-1.9-0.7-4-1-6.1-0.8c-1.6,1.2-3.4,3.1-5.5,2.2
			c-1.7-1.9-2.9-4.2-3.5-6.7H60.2c1.9,7.5-1,15.4-7.4,19.7c-2.4,1.1-5.1,1-7.4-0.3c-3.9-3-4.2-8.3-3.5-12.9c0.3-2.1,2-3.8,1.3-5.6
			l-12.5,0.7c1.2,5.9-0.5,12-4.5,16.5c-1.8,1.9-4.4,3-7,3c-2.2-0.2-4.2-1.6-5.2-3.6c-2.4-4.5-1.4-10.1,0.4-14.4L4,141.1
			c-0.3-13.4-0.1-27.7-0.1-41.1l-3.4-0.3c-0.5-2.9-0.7-5.9-0.6-8.8l2.7-0.4L81.2,86c0.5,2.8,0.6,5.7,0.4,8.6c-1.2,0.3-2.8,0-3.6,1
			l0.4,44.2c0.3,1.9,1.4,3.5,3,4.6c1.8,0.3,2.8-1.5,3.9-2.5l3.5-44.4l0.8-0.4l43.8,3.4c1,5.7,4.9,10.6,10.2,12.8
			c1.9,0.8,4,1.1,6.1,0.8c0,10.6-2,21-2,31.7c0.8,0.9,2.1,1,3.1,0.4l2.2-2.2c0.1-15.1,2.4-29.1,2.7-44.1l-0.7-0.5l-16.1-1.7V97
			l5.3-8.3l43.3,1.4l0.5,16.9l0.5,0.3l21-0.3l-8.2-14.2c1.9-3,4-5.8,6.2-8.6" clip-rule="evenodd" class="colored1c24 svgShape"></path><path fill="none" stroke="#bb8760" stroke-miterlimit="2.61" stroke-width=".64" d="M229.2,85.8c1.9,3.6,3.5,7.3,5,11.2l-7.4,10.9c1.6,0.7,3.4,0.8,5.1,0.3c8.3,10.8,9.2,28.5,2.4,40.1l15.2,16.9
			l-24.7,0.3l-0.1-10.1c-2.1-0.8-4.3-0.9-6.5-0.3c-0.4,4.2-2.2,8.7-6.3,10.5c-2.1,0.6-4.4-0.1-5.7-1.9c-1.7-2.2-1.5-6.1-0.9-8.9
			l-0.5-0.4l-12-0.4c-1.1-2.5-0.5-5.6-1.4-8.1c-2.3-0.6-4.8-0.7-7.1-0.4c1.2,7.1-1.7,14.3-7.6,18.5c-2.1,1-4.4,1.3-6.7,0.8
			c-3.4-1.5-5.6-5-5.5-8.7c-0.3-3.9,0.4-7.9,2.1-11.5l-12-0.5c-2,1.8-3.8,4.8-7,3.3l-2.1-0.9l-11.9-0.6c1,6.7-0.8,13.6-6.9,17.3
			c-1.7,1-3.8,1.1-5.7,0.4c-3.2-1.9-4.9-5.5-4.5-9.1c0.1-3.3,1.1-6.6,3-9.4l-11.2-0.8c0.9,6.3-1.3,12.7-5.8,17.2
			c-2.3,2-5.5,2.7-8.4,1.8c-2.5-1.6-4.2-4.2-4.8-7.1c-0.7-4.4,0.2-8.8,2.7-12.5c-1.9-0.7-4-1-6.1-0.8c-1.6,1.2-3.4,3.1-5.5,2.2
			c-1.7-1.9-2.9-4.2-3.5-6.7H60.2c1.9,7.5-1,15.4-7.4,19.7c-2.4,1.1-5.1,1-7.4-0.3c-3.9-3-4.2-8.3-3.5-12.9c0.3-2.1,2-3.8,1.3-5.6
			l-12.5,0.7c1.2,5.9-0.5,12-4.5,16.5c-1.8,1.9-4.4,3-7,3c-2.2-0.2-4.2-1.6-5.2-3.6c-2.4-4.5-1.4-10.1,0.4-14.4L4,141.1
			c-0.3-13.4-0.1-27.7-0.1-41.1l-3.4-0.3c-0.5-2.9-0.7-5.9-0.6-8.8l2.7-0.4L81.2,86c0.5,2.8,0.6,5.7,0.4,8.6c-1.2,0.3-2.8,0-3.6,1
			l0.4,44.2c0.3,1.9,1.4,3.5,3,4.6c1.8,0.3,2.8-1.5,3.9-2.5l3.5-44.4l0.8-0.4l43.8,3.4c1,5.7,4.9,10.6,10.2,12.8
			c1.9,0.8,4,1.1,6.1,0.8c0,10.6-2,21-2,31.7c0.8,0.9,2.1,1,3.1,0.4l2.2-2.2c0.1-15.1,2.4-29.1,2.7-44.1l-0.7-0.5l-16.1-1.7V97
			l5.3-8.3l43.3,1.4l0.5,16.9l0.5,0.3l21-0.3l-8.2-14.2c1.9-3,4-5.8,6.2-8.6L229.2,85.8z" class="colorStrokeed1c24 svgStroke"></path><path fill="#ffffff" fill-rule="evenodd" d="M58.8 97.9c-2.4 9.1-5.8 18.5-5.7 29.2l-5.8.1-.5-12.1c-2.7-5.3-6.2-10.5-8.6-15.9l7.8-1.2c1.5 2.2 1.8 4.9 3.4 7.1l3.4-8.5M71.2 103.5l-1.1 4.5c-.7-1.2-2.2-1.7-3.5-1.1-3.2 3.9 3.6 6.4 4.7 9.7 1.4 2.9 1.8 6.2 1.1 9.4-1.2 3.1-4.1 5.1-7.4 5.3-2.9-.2-5.6-1.9-7-4.5l1.8-5.6c1.9 1.4 3.8 4.5 6.7 3.1.9-1.3.9-2.9 0-4.2-3.4-4.9-11.2-8.6-7.5-15.3 1.2-2 3.1-3.5 5.4-3.9C66.9 100.5 69.6 101.5 71.2 103.5M25 102c-.8 2.7 2.2 8.3-2.5 8.2-.8 6.8-.3 13.9-.4 21l-4.9.1c-1.5-6.4-2.6-13.1-3.8-19.6H8.8c-.6-2.1-.9-4.3-.8-6.5C13.5 103.7 19.3 103 25 102" clip-rule="evenodd" class="colorfff svgShape"></path><path fill="#ffffff" fill-rule="evenodd" d="M40.4 106.7c4.7 5.3 4.7 14.4 1.6 20.6-1.4 2.5-3.7 4.5-6.3 5.7-2.5.4-5-.2-7-1.7-4.2-4.2-4.7-10.3-4.1-16.1.8-4.6 4.1-10.3 9.2-11.2C36.3 103.7 38.8 104.7 40.4 106.7M37.5 112.5c1.7 4.6 1.1 9.7-1.5 13.9-.7.7-1.7 1-2.7.8-3.4-2.5-2.7-7.5-2.2-11.3 1-1.8 1.1-4.1 3.3-5.3C35.7 110.3 37 111.2 37.5 112.5L37.5 112.5zM106.1 112.7c-2.6 1.6-7.4-1.8-7.4 3 .1.8-.7 1.8.7 2.1l3.5-.3-.9 4.9c-1.6 1.1-4.7-.4-5.1 2.1-2 2.6.4 11.2-5.9 7.9l-1.3-.4 3.8-25.6h13.6M122.2 115.9c1.5 5.3 1.6 11.8-1.6 16.3-1.6 2.5-4.2 4.2-7.1 4.6-3.4-.3-6.3-2.5-7.4-5.7-1.6-6.5-1.1-14 4.2-18.6 2-1.9 4.8-2.5 7.4-1.6 2 1.1 3.5 2.8 4.5 4.9M117.6 118.3c1.6 4.7.3 9.9-3.2 13.4-1.8.7-2.8-1-3.1-2.2-1-4.1-.2-8.4 2.2-11.8.8-1 2.3-1.2 3.3-.4C117.2 117.5 117.5 117.9 117.6 118.3L117.6 118.3zM177.3 111.6c.4 2 .5 4.1.3 6.1-4.6.1-3.2 5.2-3.2 8.2 0 3 .4 6 .5 8.9l-5.3 2.1c-1.5-5.2-2.6-10.6-3.4-15.9-2-.8-4.2.6-6.5.4l-.9-5.7c5.5-1.9 12-2.6 17.8-4.1M192 115c3.4 4.4 4.6 10.1 3.2 15.5-.8 3.1-2.8 5.9-5.5 7.7-1.9.9-4.2.9-6.1 0-4.9-3-5.9-8.3-5.9-13.8.1-4.7 2.6-9 6.7-11.4C187.1 111.9 190.3 112.7 192 115M189.7 121c1.2 4.2 1.5 9.4-1.8 12.5-1.8.5-2.8-.8-3.5-2.1-1.1-4.1-1.6-10.1 2-13.1C188.2 117.7 188.9 119.9 189.7 121L189.7 121zM214.4 113.9c-.7 2.2 0 6.5-3 6.9-1.8-.3-2.4 1-2.7 2.2l-3 17.1c-1.6.4-3.2.6-4.9.4l.4-19.3c-.9-1.6-2.8-.4-4.3-1.1v-6.8C202.8 113.3 208.5 113.7 214.4 113.9M138.9 118.5c1.8 1.9 2.5 4.6 1.9 7.1-.8 2.7-3.3 4.6-5 6.8v8c-7.1 2.2-2.8-7.1-6.7-8.7-2.2 1.8 0 8.9-5.1 6h-.7c.6-7.6 1.7-15.1 3.1-22.6C131.1 114.8 135.5 115.2 138.9 118.5M134.7 121.7c1 1.1 1.2 2.6.5 3.9-1.4 1.3-3.2 2-5.1 1.8.2-2.4.5-4.7 1.1-7.1C132.7 120.1 133.6 121 134.7 121.7zM227.5 120.1c-.2 1.5-.5 3-1.1 4.5-.8-.5-2.4-2.6-4.1-1.2-.5 1.2-.5 2.6 0 3.8 3.7 3.9 6.2 9.4 4.2 14.7-1 2.9-3.6 4.9-6.7 5-3.5.1-6.6-2-8-5.2l2.4-5.3c2.2 1.1 3.8 5 6.3 3.7 2.7-6.7-7.6-9.8-6.5-16.7-.3-2.5 1.9-4.3 3.6-5.7C221.1 115.8 225.3 116.8 227.5 120.1M55.6 144.8c-4.3.4 0 10.2-5.4 4.2l-3.2.8c.1-2.5 2.6-5.3-.1-7.6 2.7.5 4.5-1.7 5.9-3.4C53.4 140.9 51.9 145.1 55.6 144.8M22.9 144.8h2.4c.1 1.8-1.8 3-2.2 4.6l-.2 4.1-2.4-2.7c-1.3.3-2.2 1.8-3.2 2.6 0-2.2 2.2-5.4-1.3-6.9 3.6.1 4-3.7 5.4-6.1.5 1.5.3 3.4 1.8 4.5M178.7 151.1c-.9 1.9-3.8 1.9-4.3 4.1-.3 1.6-.8 3.2-1.6 4.6l-1.8-3.7c-1.1.2-2.1.6-3.1 1.1l1.9-4.5c-.3-1.5-1.2-2.9-1.3-4.5l3.4.6c1.1-.8 1.2-2.5 2-3.7C175 147.4 174.9 151.1 178.7 151.1M103.3 150.2c-2.6 1.1-2.2 4.2-2.6 6.7-1.1.3-2.4-1.1-3.8-1.5l-4.2.7 2.4-4.1-2.4-3.1c3.3.4 6.6-.9 8.8-3.4C101.6 147.3 101.3 149.4 103.3 150.2M130.1 154.5c-1.8 1.2-3 3-3.5 5l-2.7-2.6-3.5.8c-.3-2.2 4.6-4.1 1.3-6.4-.5-.4-.8-1-.9-1.7l3.4 1 3.1-3.4C127.8 149.7 127.7 152.7 130.1 154.5M215.2 158c-2 0-2.8 2-3.8 3.4-.5-.7 0-2.2-1.2-2.4-1.2-.2-1.5.4-2.4.1 1.2-1.9 2.5-3.8 1.2-6.1 1.8.7 3.6 1.4 5.3-.7C214 154.2 213.6 156.7 215.2 158" clip-rule="evenodd" class="colorfff svgShape"></path><path fill="#231f20" fill-rule="evenodd" d="M243.7 156.2c.2.2.5.3.8.3.4 0 .5-.1.5-.6 0-.4-.1-.4-.5-.5s-1-.4-1-1 .4-1 1.2-1c.4 0 .7 0 .8.1l-.1.6c-.2-.1-.4-.2-.7-.1-.4 0-.5.1-.5.4s.1.3.5.6c.4.3.9.5.9.9 0 .4-.4 1.1-1.3 1.1-.3 0-.6-.1-.8-.3M249.3 155.6v-1.4h-.1c0 .4-.1.8-.3 1.2l-.5 1.5h-.5l-.4-1.5c-.2-.4-.2-.8-.3-1.2H247v1.4l-.2 1.4h-.5l.3-3.4h.8l.4 1.4c.2.4.2.8.3 1.2h0c0-.4.1-.8.3-1.2l.4-1.4h.8l.3 3.4h-.7" clip-rule="evenodd" class="color231f20 svgShape"></path></g></switch></svg></g></svg>