<?xml version="1.0" encoding="utf-8"?>
<!-- Generator: Adobe Illustrator 26.1.0, SVG Export Plug-In . SVG Version: 6.00 Build 0)  -->
<svg version="1.1" id="Layer_1" xmlns="http://www.w3.org/2000/svg" xmlns:xlink="http://www.w3.org/1999/xlink" x="0px" y="0px"
	 viewBox="0 0 77 77" style="enable-background:new 0 0 77 77;" xml:space="preserve">
<style type="text/css">
	.st0{fill:#BB8760;}
</style>
<g>
	<path class="st0" d="M56.3,22.7c-1.5,0.9-3.2,1.6-5,1.9c-1.4-1.5-3.5-2.5-5.8-2.5c-4.4,0-7.9,3.5-7.9,7.9c0,0.6,0.1,1.2,0.2,1.8
		c-6.6-0.3-12.4-3.5-16.3-8.3c-0.7,1.2-1.1,2.5-1.1,4c0,2.7,1.4,5.2,3.5,6.6c-1.3,0-2.5-0.4-3.6-1c0,0,0,0.1,0,0.1
		c0,3.8,2.7,7,6.3,7.8c-0.7,0.2-1.4,0.3-2.1,0.3c-0.5,0-1-0.1-1.5-0.1c1,3.1,3.9,5.4,7.4,5.5c-2.7,2.1-6.1,3.4-9.8,3.4
		c-0.6,0-1.3,0-1.9-0.1c3.5,2.2,7.7,3.6,12.1,3.6c14.5,0,22.5-12.1,22.5-22.5c0-0.3,0-0.7,0-1c1.5-1.1,2.9-2.5,3.9-4.1
		c-1.4,0.6-2.9,1.1-4.5,1.2C54.4,26.1,55.7,24.5,56.3,22.7z"/>
	<g>
		<path class="st0" d="M64.5,61.4c-1,0.3-1.6,1.5-2.1,2.4c-0.5,0.8-1.3,1.8-1.3,2.7c0,0.3,0.3,0.6,0.6,0.5c0.9-0.3,1.6-1.3,2.3-2
			c0.7-0.7,1.7-1.6,1.7-2.7C65.7,61.7,65.1,61.2,64.5,61.4z"/>
		<path class="st0" d="M75.7,40.4C80.2,22,61.3,3.5,44,0.2c-9.5-1.8-19.3-0.1-27.4,5.2c-6.9,4.5-14,12.6-14.9,21
			c0,0.2,0,0.3,0.1,0.5c-5.5,14,0.5,31.7,12.5,40.6c11.9,8.8,31.4,11.9,44.1,2.7c1.1-0.8,0.2-2.3-1-1.8c-0.5,0.2-0.9,0.4-1.4,0.6
			c-0.2-0.4-0.7-0.7-1.3-0.4c-8.4,4-20.1,2-28.4-1c-0.9-0.3-1.6,1.2-0.7,1.6c4.4,2.1,9.3,3.4,14.2,3.7c2.1,0.1,4.1,0,6.2-0.2
			c-3.1,0.8-6.4,1.2-9.9,0.8C29,73,22.7,70.3,16.8,66.4C10,61.8,5.3,56.2,3.1,48.2C1.1,41.3,1,34,3.2,27.1c0.1-0.1,0.2-0.1,0.2-0.3
			c0.4-0.7,0.7-1.4,1.1-2.1C2.4,30.2,1.8,36.3,2.7,42c1.8,10.9,7.9,18.1,17,24c1.1,0.7,2.2-1.1,1-1.7C12.7,60,6.3,50.3,5,41.5
			C3.5,31.7,7,22.6,12.8,14.8c0.5-0.7-0.6-1.4-1.1-0.9c-1,0.9-1.8,1.9-2.6,2.9c1.3-2,2.8-3.9,4.6-5.6c-0.4,0.7,0.2,1.7,1.1,1.2
			c2.1-1.4,4.1-2.8,6.3-4c1.6-0.9,3.2-1.6,4.8-2.4c0.3,0.1,0.6,0.1,0.9,0C38.4,3,50,4.3,59.1,12.8c0.4,0.3,0.8,0.2,1-0.1
			c-0.1,0.4,0.1,0.9,0.7,0.9c1,0,1-1.5,0-1.5c-0.3,0-0.5,0.1-0.6,0.3c0-0.2,0-0.4-0.2-0.5C57,8.7,53.2,6,49,4.2
			c12.2,4.5,22.4,15.4,23.9,28.1c-0.9-4-2.6-7.9-5.1-11.5c-0.6-0.9-2-0.1-1.5,0.9c3.3,6,4.8,12.6,5.1,19.4
			c0.2,7.1-2.5,13.2-6.3,19.1c-0.4,0.6,0.5,1.3,1,0.8c0.2,0.1,0.5,0.1,0.8-0.1c5.5-5.1,9.5-12.7,8.9-20.4
			C75.7,40.4,75.7,40.4,75.7,40.4z"/>
		<path class="st0" d="M22.6,66.9c-0.2,0.6,0.1,1.1,0.6,1.3c0.4,0.1,0.8,0.3,1.2,0.3c0.7,0.1,1-0.9,0.6-1.4c-0.3-0.3-0.7-0.5-1-0.7
			C23.5,66.1,22.8,66.4,22.6,66.9z"/>
	</g>
</g>
</svg>
