<svg id="SvgjsSvg1080" width="288" height="288" xmlns="http://www.w3.org/2000/svg" version="1.1" xmlns:xlink="http://www.w3.org/1999/xlink" xmlns:svgjs="http://svgjs.com/svgjs"><defs id="SvgjsDefs1081"></defs><g id="SvgjsG1082"><svg xmlns="http://www.w3.org/2000/svg" enable-background="new 0 0 250 250" viewBox="0 0 250 250" width="288" height="288"><switch><g fill="#000000" class="color000 svgShape"><path fill="#bb8760" d="M215.3 90.4c-13.1 0-23.6 10.6-23.6 23.6s10.6 23.6 23.6 23.6c13.1 0 23.6-10.6 23.6-23.6C238.9 101 228.3 90.4 215.3 90.4M233.7 100.8c-1.2.9-2.5 1.6-3.8 2.3-.8-1.6-1.7-3-2.8-4.4 1-.6 1.9-1.3 2.7-2 1.5 1.2 2.8 2.6 3.9 4.2M223.8 93.1c1.9.8 3.7 1.8 5.3 3-.8.7-1.7 1.3-2.6 1.8-1.2-1.3-2.5-2.5-3.9-3.6C223 94 223.4 93.6 223.8 93.1M225.6 98.5c-1.3.7-2.6 1.2-4 1.7-.6-1.3-1.2-2.6-2-3.9.8-.3 1.5-.8 2.2-1.3C223.2 96 224.5 97.2 225.6 98.5M222.8 92.7c-.3.4-.7.7-1 1.1-1.3-.9-2.6-1.7-4-2.3C219.5 91.7 221.2 92.1 222.8 92.7M221 94.3c-.6.4-1.2.8-1.8 1-.7-1.1-1.5-2.2-2.3-3.2C218.3 92.8 219.7 93.5 221 94.3M215.8 92.3c.9 1.1 1.7 2.2 2.4 3.3-.8.2-1.6.4-2.4.4V92.3zM215.8 97.1c1 0 2-.2 3-.6.7 1.2 1.4 2.5 1.9 3.8-1.6.4-3.3.6-4.9.7V97.1zM214.8 92.5v3.7c-.8-.1-1.6-.2-2.3-.4C213.2 94.6 214 93.5 214.8 92.5M211.4 95.5c-.6-.3-1.3-.6-1.8-1 1.3-.8 2.7-1.5 4.1-2.1C212.9 93.3 212.1 94.4 211.4 95.5M212.8 91.6c-1.4.6-2.7 1.3-4 2.2-.4-.3-.7-.7-1-1.1C209.4 92.2 211 91.8 212.8 91.6M228.9 132.2c-2-.8-3.2-2.9-3-5.1.2-.9.8-.5 1.2-.5 2.7-.1 5.2-1.3 6.9-3.3 3.6-4.2 3.4-10.5-.6-14.4-5-4.8-10.3-4-13.8.4-1 1-2.4 1.5-3.9 1.5-2.3 0-.8 1.7-.8 2s-.3.6-.5.6c-.8-.2-.5.9-.5 1.2 0 .3-.2.5-.5.5-.9 0-.7.8-.6 1 0 .3-.1.6-.4.8-.4.4-.6.9-.6 1.5 0 1 .9 1.7 2.5 2.9 1.1.6 1.7 1.8 1.8 3 0 1 .1 2 .4 2.9.5.9.2 2.1-.7 2.7-.3.2-.7.3-1.1.3-2.6.4-5.2 1.2-7.6 2.3-1.6.6-3.3.7-4.9.3-.8-.6-1.6-1.2-2.3-1.9-.2-1 .1-2.1.8-2.9.8.6 1.8.9 2.9.8 1.6-.1 3.2-.4 4.8-.7.3-.2.7-.2 1 0 1.3.7 2.9.2 3.6-1 .2-.3.3-.6.3-.9.8-2.6-1-1.9-1.2-1.8-.2.1-.5 0-.4-.1.3-.7-.2-.6-.4-.6-.8.1-1.5.4-2 1-.2.2-.5.3-.7.2-1-.5-3.8.2-4.6-1.3-.2-2.6-.6-5.2-1.2-7.8-.2-.3-.2-.7 0-1 .7-1.1 2.7 0 3.8 0 .8.1 1.5-.3 1.9-1 .3-.4.6-.2.8-.3s0-.5 0-.6.2 0 .4-.3c.2-.3 0-.6 0-.8s1.2 0 .7-1.4c-.2-.7 0-1.4.5-2 1.9-2.1 1.8-5.4-.4-7.3-.2-.2-.3-.3-.5-.4-4.1-3.4-8.3-3.1-11-.2-2.7 2.9-1.3 7.1-1.1 8.3.2 1.1-.4 2.2-1.5 2.6-1.3.8-2.6 1.6-3.7 2.7.2-9.1 5.8-17.2 14.2-20.5.4.5.8.9 1.2 1.3-.9.7-3 2.5-3 2.5h.6l.6.2c0 0 1.8-1.6 2.7-2.2.7.5 1.4.9 2.1 1.3-.4.7-1.5 2.6-1.5 2.6l.5.3.3.3c0 0 1.1-2.1 1.5-2.8 1 .3 1.9.5 3 .6v3.9c-.6 0-2 0-2.6-.1h-.4l.2.3c.1.2.3.4.4.7l0 0 0 0c.4 0 1.7 0 2.3.1v7.1h1v-1.6c1.4 0 2.6-.2 4.1-.3l0 0 1.3-1.1h-.7c-1.5.2-2.9.3-4.1.4h-.5v-4.4c1.8 0 3.6-.3 5.3-.7.5 1.2 1.4 4 1.4 4l.9-.3c0 0-.9-2.8-1.4-4 1.5-.5 2.9-1.1 4.2-1.8 1.1 1.3 2 2.8 2.8 4.4-.7.3-2 .8-2 .8.6.1 1.2.2 1.8.3l.6-.3.3.6 1.3.6-.1-.4c0 0-.4-1-.5-1.2 1.4-.7 2.7-1.4 3.9-2.3 6.5 10 4.2 23.2-5.3 30.4M189.5 96.7l-.4.3c-1.4 1.2-4.6 4.5-4.1 8v.3l.1.7.5-.4c2.2-2.3 3.6-5.1 4-8.3l.2-1L189.5 96.7zM183.1 102.8l-.2.4c-.4 1.1-.7 2.3-.8 3.4-.5 2.8.1 5.8 1.8 8.1l.2.3.2.3.3-1.5c.3-3.6-.1-7.2-1.1-10.7l-.3-.9L183.1 102.8zM180.8 112.4v.4c-.2 2.3 0 8.3 4.6 11.4l.6.4V124c-.8-4-2.3-7.9-4.6-11.3l-.6-.7V112.4zM181.6 122.9v.4c1.1 4.7 4.4 8.6 8.9 10.5l.7.2-.2-.7c-2.1-4.1-5.1-7.6-8.8-10.4l-.7-.4L181.6 122.9zM191.6 101.8l-.4.2c-3.7 2.3-5.4 5-5.3 8.3v.8l.5-.5c2.3-2.3 4.1-5.2 5.2-8.3l.3-.9L191.6 101.8zM189.4 109.2l-.3.3c-2.3 2.1-3.7 5.1-3.7 8.2.1.7.2 1.3.4 2l.2.6.4-.6c1.9-3 3-6.5 3.3-10V109L189.4 109.2zM189.5 116.1l-.2.3c-1.5 2-2.3 4.4-2.3 6.9 0 1.7.5 3.3 1.5 4.6l.3.5.3-.5c.9-2.8 1.3-5.6 1.1-8.5 0-.9-.1-1.8-.3-2.7l-.2-.8L189.5 116.1zM191.4 123.6v.3c-.5 1.4-.7 2.8-.6 4.3 0 3 1.6 5.7 4.1 7.3l.5.3v-.6-.5c-.4-3.8-1.6-7.5-3.5-10.9l-.5-.5V123.6zM186.1 133.5l.2.3c2 3.3 5.3 7.6 11.7 6.5h.5l-.3-.5c-3.3-3-7.3-5.2-11.5-6.5l-.7-.1L186.1 133.5zM195.4 142L195.4 142l-1 .3.9.4c3.8 1.6 8 2 12 1.2 1-.4 1.9-1 2.6-1.8 5.1.5 9.9 4.8 12.8 8.3l.1.2h.2c.4-.2.7-.4 1-.7l.2-.2-.2-.2c-2.1-2.6-4.7-4.7-7.7-6.3C209.7 140.2 202.3 139.8 195.4 142" class="color2aa5de svgShape"></path><path fill="#bb8760" d="M195.7 131.3v.3c.6 3.8 2.1 8.7 8.5 8.2h.4v-.4c-.4-1.7-6.3-6.7-8.3-8.1l-.6-.3L195.7 131.3zM240.8 96.3l.2 1c.4 3.1 1.8 6 4 8.3l.5.4.2-.7V105c.5-3.6-2.7-6.8-4.1-8l-.4-.3L240.8 96.3zM247.5 102.4l-.3.9c-1 3.5-1.4 7.1-1.1 10.7l.3 1.5.2-.3.2-.3c1.7-2.4 2.3-5.3 1.8-8.1-.1-1.2-.4-2.4-.8-3.5l-.2-.4L247.5 102.4zM249.9 112l-.6.7c-2.3 3.4-3.9 7.3-4.6 11.3v.7l.6-.4c4.8-3.1 4.9-9 4.6-11.4L249.9 112 249.9 112zM249.2 122.5l-.7.4c-3.7 2.8-6.7 6.3-8.8 10.4l-.3.7.7-.2c4.5-1.9 7.7-5.8 8.8-10.5v-.4L249.2 122.5zM239 101.4l.2.9c1 3.1 2.8 6 5.1 8.4l.5.5v-.8c.2-3.4-1.5-6.1-5.1-8.4l-.4-.3L239 101.4zM241.1 109v.8c.3 3.5 1.5 6.9 3.3 9.9l.4.6.2-.6c.2-.6.4-1.3.4-2-.1-3.1-1.4-6.1-3.7-8.2l-.3-.3L241.1 109zM241 115.9l-.2.7c-.2.9-.3 1.8-.3 2.7-.1 2.9.2 5.8 1.1 8.5l.3.5.3-.5c.9-1.4 1.5-3 1.5-4.6 0-2.5-.8-4.9-2.3-6.9l-.2-.3L241 115.9zM239.3 123.3l-.4.5c-1.9 3.4-3 7.1-3.5 10.9v.5.6l.5-.3c2.5-1.5 4.1-4.3 4.1-7.3 0-1.5-.2-2.9-.6-4.3v-.3L239.3 123.3zM244.8 133.2l-.7.1c-4.3 1.3-8.2 3.5-11.5 6.5l-.3.5h.5c6.3 1.1 9.7-3.2 11.7-6.5l.2-.3L244.8 133.2zM214.4 143c-2.9 1.6-5.6 3.7-7.7 6.3l-.2.2.2.2c.3.3.6.5 1 .7h.2l.1-.2c2.8-3.5 7.6-7.8 12.8-8.3.7.8 1.6 1.4 2.6 1.8 4 .9 8.2.5 12-1.2l.9-.4-1-.3C228.5 139.7 221.1 140.1 214.4 143M235.2 131l-.6.3c-2.1 1.4-7.9 6.4-8.3 8.1v.4h.4c6.4.5 7.9-4.4 8.5-8.2v-.3L235.2 131zM73.8 92.8h8v7.1h-8V92.8zM74.4 108.4h6.7v35.3h-6.7V108.4zM23.8 108.3h6.7v35.5h-6.6v-5.2h-.1c-2.6 4.2-7.3 6.6-12.2 6.3C4.1 144.8 0 139.1 0 132v-23.7h6.7v21c0 6.1 1.4 10.7 7.8 10.7 3.4.1 6.6-1.9 7.9-5.1.9-2.7 1.3-5.5 1.3-8.3L23.8 108.3zM43.8 113.6h.1c2.2-3.9 6.3-6.3 10.7-6.3 2.5 0 13.4.6 13.4 12v24.4h-6.6v-22.3c0-5.9-2.5-9-8.1-9-2.4 0-4.8.9-6.5 2.6-1 1-2.8 2.5-2.8 9.5v19.3h-6.7v-35.5h6.5V113.6zM109.2 119.6c-.4-4.4-2.5-7.5-7.2-7.5-6.4 0-8.8 5.5-8.8 13.8s2.5 13.8 8.8 13.8c4.4 0 7.2-2.9 7.5-7.9h6.7c-.3 7.4-6.6 13.1-14 12.8-.1 0-.2 0-.3 0-11.3 0-15.8-8-15.8-18.4s5.2-19 16.3-19c6.9-.4 12.9 4.8 13.3 11.7 0 .2 0 .4 0 .6L109.2 119.6zM126.2 127.2c-.5 6.2 2 12.6 8.8 12.6 5.2 0 7.8-2 8.6-7.2h6.9c-1.1 8-7.2 12-15.7 12-11.3 0-15.8-8-15.8-18.4s5.2-18.9 16.3-18.9c10.5.2 15.5 6.9 15.5 16.6v3.3L126.2 127.2zM144 122.6c.2-5.9-2.5-10.4-9-10.4-5.6 0-8.8 4.6-8.8 10.4H144zM158.6 143.6V113h-6.1v-4.6h6.1v-7.6c.2-7.7 6-9.8 11-9.8 1.6.1 3.2.3 4.8.7v5.5c-1.1 0-2.3-.2-3.4-.2-3.8 0-6 1-5.8 4.8v6.5h8.1v4.6h-8.1v30.6H158.6z" class="color2aa5de svgShape"></path></g></switch></svg></g></svg>