<svg id="SvgjsSvg1087" width="288" height="288" xmlns="http://www.w3.org/2000/svg" version="1.1" xmlns:xlink="http://www.w3.org/1999/xlink" xmlns:svgjs="http://svgjs.com/svgjs"><defs id="SvgjsDefs1088"></defs><g id="SvgjsG1089"><svg xmlns="http://www.w3.org/2000/svg" xmlns:xlink="http://www.w3.org/1999/xlink" enable-background="new 0 0 250 250" viewBox="0 0 250 250" width="288" height="288"><switch><g fill="#bb8760" class="color000 svgShape"><defs><path id="a" d="M218.8,44.7h-67.7c-5-0.1-9.2,3.8-9.3,8.8c0,0.1,0,0.2,0,0.3c0,1.5,0.4,3,1.1,4.3l34,58.9					c1.6,2.9,4.6,4.6,7.9,4.6c3.3,0,6.3-1.8,7.9-4.6L226.9,58c0.7-1.3,1.1-2.8,1.1-4.3C228,48.8,223.9,44.7,218.8,44.7
					C218.9,44.7,218.9,44.7,218.8,44.7" fill="#bb8760" class="color000 svgShape"></path></defs><clipPath id="b"><use overflow="visible" xlink:href="#a"></use></clipPath><g clip-path="url(#b)" fill="#bb8760" class="color000 svgShape"><radialGradient id="c" cx="-181.928" cy="-236.882" r="6.287" gradientTransform="translate(3739.598 4728.572) scale(19.91)" gradientUnits="userSpaceOnUse"><stop offset="0" stop-color="#bb8760" class="stopColorea5631 svgShape"></stop><stop offset=".01" stop-color="#bb8760" class="stopColorea5631 svgShape"></stop><stop offset=".48" stop-color="#bb8760" class="stopColord82128 svgShape"></stop><stop offset="1" stop-color="#bb8760" class="stopColor9d1f2b svgShape"></stop></radialGradient><rect width="85.9" height="76.8" x="142" y="44.7" fill="url(#c)"></rect></g><path fill="#bb8760" d="M232.8,49.6c0-2.7,2.2-5,5-5s5,2.2,5,5c0,2.7-2.2,5-5,5S232.8,52.4,232.8,49.6 M233.8,49.6c0,2.2,1.8,4,4,4
			c2.2,0,4-1.8,4-4c0-2.2-1.8-4-4-4C235.6,45.6,233.8,47.4,233.8,49.6C233.8,49.6,233.8,49.6,233.8,49.6z" class="colorc1272d svgShape"></path><path fill="#bb8760" d="M239.6,52.1h-0.4c-0.1,0.1-0.3,0.1-0.4,0l-1.3-1.6H237v1.6l0,0h-0.3l0,0v-4.7l0,0h1.4c0.8,0,1,0,1.3,0.4
			c0.3,0.4,0.4,0.9,0.4,1.4c0,0.8,0,1.3-1.1,1.3L240,52l0,0 M238.8,47.8c-0.5-0.1-0.9-0.1-1.4,0v1.6h0.9c0.4,0,0.5,0,0.6,0
			c0.1,0,0,0,0-0.5s-0.4-1-0.6-1.1L238.8,47.8z" class="colorc1272d svgShape"></path><defs><path id="d" d="M113.4,128.3L113.4,128.3 M173.1,129.5l-0.4-0.6L130.6,56l-0.7-1.3c-3.8-6.3-10.7-10.1-18-10H77.2
					c-3.9,0-7,3.1-7,6.9c0,0,0,0,0,0.1c0,1.2,0.3,2.3,0.9,3.3l42.3,73.3c3.9,6.9,3.9,15.3,0,22.1l-36.7,63.8c-0.6,1-0.8,2.1-0.8,3.3
					c0,3.9,3.1,7,7,7h35.6c7.4,0.1,14.2-3.7,18-10l0.7-1.3l35.4-61.4l0.6-0.9c1.8-3.2,2.7-6.8,2.6-10.5c0.1-3.9-0.8-7.7-2.6-11.1
					H173.1z" fill="#BB8760" class="color000 svgShape"></path></defs><clipPath id="e"><use overflow="visible" xlink:href="#d"></use></clipPath><g clip-path="url(#e)" fill="#bb8760" class="color000 svgShape"><radialGradient id="f" cx="-183.499" cy="-222.509" r="6.287" gradientTransform="matrix(37.45 0 0 37.46 6893.686 8370.193)" gradientUnits="userSpaceOnUse"><stop offset="0" stop-color="#bb8760" class="stopColorbe268a svgShape"></stop><stop offset=".58" stop-color="#bb8760" class="stopColor8c2b8a svgShape"></stop><stop offset="1" stop-color="#bb8760" class="stopColor582f89 svgShape"></stop></radialGradient><rect width="105.7" height="179.9" x="70.2" y="44.7" fill="url(#f)"></rect></g><path fill="#bb8760" d="M75.3 159.1c-.6.1-1.3.2-1.9.4-2.1.5-4.2.8-6.3.9-1.1 0-2.2-.2-3.2-.6-1.7-.8-1.8-2.8-1.8-5.5h13.1c1.9 0 2.3 0 2.3-3.3.3-3.2-.4-6.5-2-9.3-2.3-2.6-5.8-3.7-9.2-3.1-3.5-.4-7 .9-9.3 3.6-1.8 3.1-2.5 6.7-2.1 10.2-.5 3.9.5 7.9 3 10.9 2.5 1.9 5.6 2.8 8.7 2.5 2.7 0 5.4-.2 8.1-.7 1.1 0 2-.9 2-2 0-.1 0-.2 0-.3.1-.6.1-1.2 0-1.8 0-.7-.6-1.6-1.4-1.6M61.8 149.2c0-4 .8-5.3 4.7-5.3 3.8 0 4.1 1.4 4.1 4.7v1h-8.8V149.2zM42.6 138.5c-2.5 0-5 .7-7.3 1.8v-10.2c.1-1.1-.7-2.2-1.8-2.3-.1 0-.2 0-.3 0h-2.4c-1.6 0-2.4.4-2.4 2.3v32.6c0 1.3.4 2.1 1.9 2.1h2.8c1.7 0 2.1-.9 2.1-2.4v-12.6c0-3.8.8-5.2 4.6-5.2 3.8 0 4.1 1.4 4.1 4.7v1l0 0v11.9c0 1.6.5 2.4 1.9 2.4h2.8c1.7 0 2.1-.9 2.1-2.4v-16.3c.1-4-3-7.3-7-7.5C43.5 138.4 43.1 138.4 42.6 138.5zM22.8 144.8H17v10.8c-.2 1.3-.2 2.6 0 4 .2.3.5.4.8.4 1.5 0 3.1-.8 4.4-.8.8 0 1.4.5 1.5 1.3 0 .1 0 .1 0 .2v1.9c0 2-.5 2.6-2.3 2.7-1.5.2-3.1.3-4.7.3-5.7 0-7-2.1-7-8.6v-12.3H8.6c-1 0-1.3-.7-1.3-1.6v-2.3c0-1.3.6-1.8 1.5-1.8h1.3v-4.4c0-1.8.8-2.3 2.3-2.3h2.4c1.2 0 2.2.9 2.2 2.1 0 .1 0 .2 0 .3v4.4h5.3c1.2 0 1.8 0 1.8 1.7v1.9C24.2 144.5 24.2 144.8 22.8 144.8" class="coloraa248c svgShape"></path><path fill="#bb8760" d="M149.6 207.7l4.1 7 3.9 2.3c.4.1.6.5.5.9 0 .1-.1.2-.1.3l-.5.8c-.3.6-.6.8-1.3.4l-3.8-2.1H144c-.2.1-.4.1-.6 0-.3-.2-.3-.6-.1-.9 0 0 .1-.1.1-.1l.6-1c.2-.4.6-.7 1.1-.6h5.8l-3-5.1c0-.3-.3-.6 0-1.2l.5-.8c0-.5.6-.6.9-.4.3.2.5.4.6.7M167.9 200.9l-.4.8c-.1.4-.5.6-.9.5-.1 0-.2-.1-.3-.1l-7.7-3.8 1.1 1.3c1.3 1.6 2.8 3.3 3.7 4.4.4.4.4 1 0 1.4v.4c-.2.5-.8.7-1.3.6-1.4 0-3.6-.6-5.7-1l-1.6-.3 7.1 4.7c.4.2.6.7.4 1.1 0 .1-.1.1-.1.2l-.4.8c-.3.6-.7.8-1.3.4l-10.1-7c-.6-.4-.4-.8 0-1.3l.6-1c.3-.5.6-.7 1.1-.6l8.5 1.5c-1.8-2.1-4.3-5-5.5-6.6-.3-.4-.3-.9 0-1.3l.6-.9c0-.4.6-.8 1.3-.5l11.1 5.2C168.6 199.9 168.6 200.3 167.9 200.9M173.6 191.4c-.4.8-.6 1.3-1.1 2.1-.4.8-.9 1.5-1.4 2.1-2.1 2.1-4.6 1.4-7.7-.4-5.3-3.1-5.3-5.3-3.3-8.9.5-.9.8-1.3 1.3-2s.8-.8 1.2-.6h.6c.7.4.8.6.5 1.2-.3.6-.7.9-1.3 1.9-.4.7-.7 1.4-.9 2.1 0 1.3 1.3 2.2 3.4 3.4 2.1 1.2 3.7 2 4.9.6.3-.4.6-.9.9-1.4.6-.9.6-1.3 1.1-2 .4-.7.6-.6 1.3 0l.6.4c.4 0 .5.5 0 1.3M180.3 179.5l-.6 1c-.2.4-.7.6-1.1.5l-2.8-.6-1.2 2.2-1.3 2.1 1.8 1.9c.4.4.6.8 0 1.4l-.5.8c-.3.6-.6.6-.8.5l-.6-.6-8.2-9.7c-.4-.4-.4-1.1 0-1.5l.4-.8c.4-.7.8-.8 1.4-.6l12.6 2.2h.3c.4 0 .3.6 0 .9M168 178.9l3.4 3.9c0-.4.5-.9.8-1.4l.9-1.4L168 178.9z" class="colore22128 svgShape"></path></g></switch></svg></g></svg>