<?xml version="1.0" encoding="utf-8"?>
<!-- Generator: Adobe Illustrator 26.2.1, SVG Export Plug-In . SVG Version: 6.00 Build 0)  -->
<svg version="1.1" id="Layer_1" xmlns="http://www.w3.org/2000/svg" xmlns:xlink="http://www.w3.org/1999/xlink" x="0px" y="0px"
	 viewBox="0 0 155.3 118.7" style="enable-background:new 0 0 155.3 118.7;" xml:space="preserve">
<style type="text/css">
	.st0{fill:#010101;}
	.st1{fill:#FFFFFF;}
	.st2{fill:#BA8760;}
	.st3{opacity:0.1294;}
</style>
<g>
	<g>
		<path class="st0" d="M1.9,107.3c-0.5,0-0.8-0.4-0.8-0.8c0-0.5,0.4-0.9,0.8-0.9l151.4-0.8c0,0,0,0,0,0c0.5,0,0.8,0.4,0.8,0.8
			c0,0.5-0.4,0.9-0.8,0.9L1.9,107.3C1.9,107.3,1.9,107.3,1.9,107.3z"/>
	</g>
	<g>
		<path class="st0" d="M85.7,117.3C85.7,117.3,85.7,117.3,85.7,117.3c-22-0.5-44.3-0.6-66.2-0.2c0,0,0,0,0,0c-0.5,0-0.8-0.4-0.8-0.8
			c0-0.5,0.4-0.9,0.8-0.9c22-0.4,44.3-0.4,66.3,0.2c0.5,0,0.8,0.4,0.8,0.9C86.6,116.9,86.2,117.3,85.7,117.3z"/>
	</g>
	<g>
		<path class="st1" d="M33.2,94.1c-3.3-2.3-8.2-5.1-11.4-7.5C29.9,74.6,50.9,43,58.8,30.9c-1.5-0.9-6.3-4.1-6.3-4.1L79,14.1
			l-3.5,27.7c0,0-4.6-2.7-5.2-3.4C62.3,50.1,42.4,79.9,33.2,94.1z"/>
		<path class="st0" d="M33.2,95c-0.2,0-0.3-0.1-0.5-0.2c-1.6-1.2-3.7-2.5-5.7-3.7c-2-1.3-4.1-2.6-5.8-3.8c-0.4-0.3-0.5-0.8-0.2-1.2
			c8.3-12.4,28.5-42.7,36.6-55c-1.9-1.2-5.4-3.6-5.6-3.7c-0.3-0.2-0.4-0.5-0.4-0.8c0-0.3,0.2-0.6,0.5-0.7l26.5-12.7
			c0.3-0.1,0.6-0.1,0.9,0.1c0.3,0.2,0.4,0.5,0.3,0.8l-3.5,27.7c0,0.3-0.2,0.5-0.5,0.7c-0.3,0.1-0.6,0.1-0.8,0
			c-0.6-0.4-3.2-1.9-4.6-2.9c-8.2,12-27.3,40.8-36.6,55c-0.1,0.2-0.3,0.3-0.6,0.4C33.3,95,33.2,95,33.2,95z M22.9,86.4
			c1.5,1,3.3,2.1,5,3.2c1.7,1.1,3.5,2.2,5,3.3c9.6-14.8,28.9-43.7,36.6-55c0.1-0.2,0.4-0.3,0.6-0.4c0.3,0,0.5,0.1,0.7,0.3
			c0.3,0.3,2.1,1.5,3.9,2.6L78,15.5L54.2,26.9c1.5,1,4.1,2.7,5.1,3.3c0.2,0.1,0.3,0.3,0.4,0.5c0,0.2,0,0.5-0.1,0.6
			C51.9,43,31.7,73.4,22.9,86.4z"/>
	</g>
	<g>
		<path class="st2" d="M112.6,94.1c-3.3-2.3-8.2-5.1-11.4-7.5c8.1-12.1,15.2-21.8,23.1-34c-1.5-0.9-6.3-4.1-6.3-4.1l26.5-12.7
			l-3.5,27.7c0,0-4.6-2.7-5.2-3.4C127.6,71.9,121.8,79.9,112.6,94.1z"/>
		<path class="st0" d="M112.6,95c-0.2,0-0.3-0.1-0.5-0.2c-1.6-1.2-3.7-2.5-5.7-3.7c-2-1.3-4.1-2.6-5.8-3.8c-0.4-0.3-0.5-0.8-0.2-1.2
			c3.1-4.6,6-8.9,8.9-13c4.6-6.7,9-13,13.7-20.2c-1.9-1.2-5.4-3.6-5.6-3.7c-0.3-0.2-0.4-0.5-0.4-0.8c0-0.3,0.2-0.6,0.5-0.7L144,35.1
			c0.3-0.1,0.6-0.1,0.9,0.1c0.3,0.2,0.4,0.5,0.3,0.8l-3.5,27.7c0,0.3-0.2,0.5-0.5,0.7c-0.3,0.1-0.6,0.1-0.8,0
			c-0.6-0.4-3.2-1.9-4.6-2.9c-2.2,3.2-4.2,6.2-6.3,9.1c-5.1,7.3-9.8,14.2-16.3,24.1c-0.1,0.2-0.3,0.3-0.6,0.4
			C112.7,95,112.6,95,112.6,95z M102.3,86.4c1.5,1,3.3,2.1,5,3.2c1.7,1.1,3.5,2.2,5,3.3c6.3-9.6,10.9-16.3,15.9-23.4
			c2.2-3.1,4.4-6.3,6.8-9.8c0.1-0.2,0.4-0.3,0.6-0.4c0.3,0,0.5,0.1,0.7,0.3c0.3,0.3,2.1,1.5,3.9,2.6l3.2-24.8l-23.8,11.4
			c1.5,1,4.1,2.7,5.1,3.3c0.2,0.1,0.3,0.3,0.4,0.5c0,0.2,0,0.5-0.1,0.6c-4.9,7.5-9.4,14.1-14.2,21C108,78.1,105.2,82.1,102.3,86.4z"
			/>
	</g>
	<g>
		<path class="st1" d="M73.9,94.4l-13.3-8.7c0,0,33.3-51.6,42.4-65.6c-1.7-1.1-7.4-4.8-7.4-4.8l30.7-14.4l-4,32.1
			c0,0-5.1-3.5-5.9-4.3C107.2,42.2,73.9,94.4,73.9,94.4z"/>
		<path class="st0" d="M73.9,95.3c-0.2,0-0.3,0-0.5-0.1l-13.3-8.7c-0.4-0.3-0.5-0.8-0.2-1.2c0.3-0.5,32.3-50.1,42-64.9
			c-2.2-1.4-6.4-4.2-6.6-4.4c-0.3-0.2-0.4-0.5-0.4-0.8c0-0.3,0.2-0.6,0.5-0.7L126,0.1c0.3-0.1,0.6-0.1,0.9,0.1
			c0.3,0.2,0.4,0.5,0.3,0.8l-4,32.1c0,0.3-0.2,0.5-0.5,0.7c-0.3,0.1-0.6,0.1-0.8-0.1c-0.4-0.3-3.6-2.5-5.2-3.7
			c-9.8,14.5-41.7,64.5-42,65c-0.1,0.2-0.3,0.3-0.5,0.4C74,95.3,74,95.3,73.9,95.3z M61.7,85.5l11.9,7.8
			c4.1-6.4,33.5-52.5,42.1-65.1c0.1-0.2,0.4-0.3,0.6-0.4c0.3,0,0.5,0.1,0.7,0.3c0.4,0.4,2.7,2.1,4.6,3.4l3.6-29.2L97.4,15.4
			c1.8,1.2,4.9,3.2,6.1,4c0.2,0.1,0.3,0.3,0.4,0.5c0,0.2,0,0.5-0.1,0.6C95.3,33.5,65.8,79.2,61.7,85.5z"/>
	</g>
	<g>
		<path class="st0" d="M26.3,87c-0.1,0-0.2-0.1-0.3-0.2l-0.8-2.6c0-0.1,0-0.3,0.2-0.4c0.2,0,0.3,0,0.4,0.2l0.8,2.6
			C26.6,86.8,26.5,86.9,26.3,87C26.4,87,26.3,87,26.3,87z"/>
	</g>
	<g>
		<path class="st0" d="M30.9,90.2c-0.1,0-0.2-0.1-0.3-0.2c-0.9-3-1.7-6.1-2.5-9.1c0-0.2,0-0.3,0.2-0.3c0.2,0,0.3,0.1,0.3,0.2
			c0.8,3,1.7,6.1,2.5,9.1C31.2,90,31.1,90.1,30.9,90.2C30.9,90.2,30.9,90.2,30.9,90.2z"/>
	</g>
	<g>
		<path class="st0" d="M34.6,88c-0.1,0-0.2-0.1-0.3-0.2c-1.2-3.7-2.4-7.5-3.6-11.2c0-0.1,0-0.3,0.2-0.4c0.1,0,0.3,0,0.4,0.2
			c1.1,3.7,2.3,7.5,3.6,11.2C35,87.8,34.9,88,34.6,88C34.7,88,34.7,88,34.6,88z"/>
	</g>
	<g>
		<path class="st0" d="M37.3,84.2c-0.1,0-0.2-0.1-0.3-0.2c-1-3.8-2.2-7.6-3.4-11.4c0-0.1,0-0.3,0.2-0.4c0.1,0,0.3,0,0.4,0.2
			c1.2,3.8,2.3,7.6,3.4,11.4C37.6,84,37.5,84.1,37.3,84.2C37.4,84.2,37.3,84.2,37.3,84.2z"/>
	</g>
	<g>
		<path class="st0" d="M40.9,78.2c-0.1,0-0.2-0.1-0.3-0.2c-1-3.4-2.1-6.8-3.4-10.1c-0.1-0.1,0-0.3,0.2-0.4c0.1-0.1,0.3,0,0.4,0.2
			c1.3,3.3,2.4,6.7,3.4,10.1C41.2,78,41.2,78.2,40.9,78.2C41,78.2,41,78.2,40.9,78.2z"/>
	</g>
	<g>
		<path class="st0" d="M44.5,72.8c-0.1,0-0.2-0.1-0.3-0.2l-3.5-9.7c-0.1-0.1,0-0.3,0.2-0.4c0.1-0.1,0.3,0,0.4,0.2l3.5,9.7
			C44.8,72.6,44.7,72.7,44.5,72.8C44.5,72.8,44.5,72.8,44.5,72.8z"/>
	</g>
	<g>
		<path class="st0" d="M47.9,67c-0.1,0-0.2-0.1-0.3-0.2l-3.4-9.3c-0.1-0.1,0-0.3,0.2-0.4c0.1-0.1,0.3,0,0.4,0.2l3.4,9.3
			C48.2,66.8,48.1,67,47.9,67C48,67,47.9,67,47.9,67z"/>
	</g>
	<g>
		<path class="st0" d="M51.1,63.3c-0.1,0-0.2-0.1-0.3-0.2c-1.1-3.2-2.2-6.6-3.1-9.9c0-0.1,0-0.3,0.2-0.4c0.1,0,0.3,0,0.4,0.2
			c1,3.3,2,6.6,3.1,9.9C51.4,63.1,51.3,63.2,51.1,63.3C51.1,63.3,51.1,63.3,51.1,63.3z"/>
	</g>
	<g>
		<path class="st0" d="M54.2,57.7c-0.1,0-0.2-0.1-0.3-0.2c-1.2-2.9-2.3-6-3.3-9c0-0.1,0-0.3,0.2-0.4c0.2,0,0.3,0,0.4,0.2
			c1,3,2.1,6,3.3,9c0.1,0.1,0,0.3-0.2,0.4C54.3,57.7,54.3,57.7,54.2,57.7z"/>
	</g>
	<g>
		<path class="st0" d="M57.3,52.7c-0.1,0-0.2-0.1-0.3-0.2l-3-8.8c-0.1-0.1,0-0.3,0.2-0.4c0.1,0,0.3,0,0.4,0.2l3,8.8
			C57.6,52.5,57.5,52.6,57.3,52.7C57.3,52.7,57.3,52.7,57.3,52.7z"/>
	</g>
	<g>
		<path class="st0" d="M60.4,48.4c-0.1,0-0.2-0.1-0.3-0.2L57,39.1c-0.1-0.1,0-0.3,0.2-0.4c0.1-0.1,0.3,0,0.4,0.2l3.1,9.1
			C60.8,48.1,60.7,48.3,60.4,48.4C60.5,48.4,60.5,48.4,60.4,48.4z"/>
	</g>
	<g>
		<path class="st0" d="M63.5,43.6c-0.1,0-0.2-0.1-0.3-0.2c-0.9-3.1-2-6.3-3.1-9.4c-0.1-0.1,0-0.3,0.2-0.4c0.1-0.1,0.3,0,0.4,0.2
			c1.2,3.1,2.2,6.3,3.1,9.4C63.9,43.3,63.8,43.5,63.5,43.6C63.6,43.6,63.6,43.6,63.5,43.6z"/>
	</g>
	<g>
		<path class="st0" d="M66.6,39.7c-0.1,0-0.2-0.1-0.3-0.2c-1.4-4.9-2.7-9.9-4-14.8c0-0.2,0.1-0.3,0.2-0.3c0.2,0,0.3,0.1,0.3,0.2
			c1.3,4.9,2.6,9.9,4,14.8C67,39.5,66.9,39.7,66.6,39.7C66.7,39.7,66.7,39.7,66.6,39.7z"/>
	</g>
	<g>
		<path class="st0" d="M69.9,35.2c-0.1,0-0.2-0.1-0.3-0.2l-3.4-12.2c0-0.2,0-0.3,0.2-0.3c0.2,0,0.3,0,0.3,0.2l3.4,12.2
			C70.2,35,70.2,35.1,69.9,35.2C70,35.2,70,35.2,69.9,35.2z"/>
	</g>
	<g>
		<path class="st0" d="M73.7,34c-0.1,0-0.3-0.1-0.3-0.2c-0.8-4.5-1.8-9-3-13.4c0-0.2,0.1-0.3,0.2-0.3c0.2,0,0.3,0.1,0.3,0.2
			c1.1,4.4,2.1,9,3,13.4C74,33.8,73.9,34,73.7,34C73.7,34,73.7,34,73.7,34z"/>
	</g>
	<g>
		<path class="st0" d="M75.7,25.1c-0.1,0-0.2-0.1-0.3-0.2c-0.5-1.8-0.9-3.6-1.2-5.4c0-0.2,0.1-0.3,0.2-0.3c0.2,0,0.3,0.1,0.3,0.2
			c0.3,1.8,0.7,3.6,1.2,5.4C76,24.9,75.9,25,75.7,25.1C75.7,25.1,75.7,25.1,75.7,25.1z"/>
	</g>
	<g>
		<path class="st0" d="M59.3,28.6c-0.1,0-0.2-0.1-0.3-0.2l-0.5-1.8c0-0.2,0.1-0.3,0.2-0.3c0.2,0,0.3,0.1,0.3,0.2l0.5,1.8
			C59.6,28.4,59.5,28.6,59.3,28.6C59.3,28.6,59.3,28.6,59.3,28.6z"/>
	</g>
	<g class="st3">
		<path class="st0" d="M75.3,38c-1.1-1.3-2.5-2.4-4-3.3c-0.8-0.4-1.6-1.1-2.6-1c-0.9,0.1-1.4,0.8-1.5,1.5c-0.5,0.4-0.9,1-1.3,1.6
			c-1,1.3-1.4,1.9-2.9,4c-3,4.2-5.8,8.7-8.6,13.1c-4.9,7.3-9.6,14.7-14.4,22.1c-2.1,3.2-4.4,6.3-6.4,9.5c-0.8,1.2-1.6,2.4-2.5,3.5
			c0.1-0.2,0.2-0.3,0.4-0.5c-0.4,0.7-1.1,1.2-1.4,2c-1,2.2,1.9,4.2,3.6,2.5c2.5-3,4.5-6.4,6.5-9.8c1.5-2.6,3.2-5.1,4.7-7.7
			c1.5-2.4,3.2-4.6,4.7-6.9c1.3-2,2.5-4.1,3.8-6.1c4.7-7,9.6-14,14.4-20.9c0.6-0.9,1.2-1.9,1.9-2.8c0.2-0.2,0.3-0.4,0.5-0.6
			c0.2,0.1,0.4,0.3,0.5,0.3c0,0,0.1,0.1,0.1,0.1c0.9,0.7,1.6,1.8,2.6,2.3C75.4,41.7,76.8,39.2,75.3,38z"/>
	</g>
	<g class="st3">
		<path class="st0" d="M123,29.8c-0.7-1.5-1-1.5-1.5-2c-1.4-1-2.8-2-4.4-2.6c-0.7-0.3-1.4-0.8-2.2-0.5c-0.2,0.1-0.4,0.1-0.5,0.3
			c-0.8,0.2-1.3,0.9-1.8,1.6c-0.6,0.8-0.4,0.5-1.8,2.3c-2.3,3.1-7,9.4-10,14.1c-4,5.6-7.7,11.5-11.3,17.4c-1.6,2.8-3.5,5.4-5.2,8.1
			c-2,3.3-3.8,6.7-5.7,10.1c-1.7,3.1-3.6,6.1-5.4,9.2c-0.4,0.7-0.9,1.4-1.4,2.1c-0.3,0.5-0.7,0.9-0.7,1.4c-0.2,1.2,0.7,2,1.6,2.1
			c0.6,0.3,1.4,0.3,2.1-0.3c2.3-2.7,4.1-5.6,5.9-8.6C84.9,78,88.2,71,92.2,64.3C96,58,100,52,104.1,45.9c0,0,0,0,0,0c0,0,0,0,0,0
			c1.6-3,3.8-5.8,5.5-8.7c0.4-0.7,0.9-1.4,1.4-2.1c0.8-1.1,1.6-2.2,2.3-3.3c0.3-0.4,1-1.3,1-1.4c0.8-1,0.9-1.2,1.4-1.8
			c1.6,0.7,2.3,1.2,3.5,2.4c0.1,0.1,0.1,0.2,0.2,0.3c0,0,0,0,0,0c0.3,0.5,0.8,0.9,1.4,1C122.2,32.5,123.4,31.1,123,29.8z"/>
	</g>
	<g class="st3">
		<path class="st0" d="M141.4,59.6c-0.4-1.1-1.5-1.6-2.4-2.3c-1.2-0.6-2.3-1.5-3.6-1.8c-0.3-0.1-0.6,0-0.9,0.1c-0.2,0-0.4,0-0.6,0
			c-0.5,0.2-0.9,0.4-1.2,0.9c0,0,0,0,0,0c-0.3,0.4-0.7,0.9-0.9,1.4c-2.8,4.4-5.7,8.7-8.7,13c-2.2,3.8-4.6,7.5-7.1,11.1
			c-1.6,2.4-3.5,4.6-5.1,7c-0.5,0.8-1.3,1.5-1.4,2.5c-0.4,2.2,2.7,3.2,3.8,1.3c1.6-2.4,3.3-4.8,5-7.2c2-3.2,4-6.4,6-9.6
			c1.9-2.8,3.2-4.4,5.3-7.8c1.9-2.6,3.9-5.9,5.4-8c0.1,0,0.2,0.1,0.4,0.2c0.3,0.1,1.1,0.6,1.4,0.8c0.5,0.4,0.9,0.9,1.3,1.4
			c0.6,0.6,1.8,0.7,2.4,0.1c0.6-0.5,0.8-1.1,0.7-1.7C141.5,60.7,141.6,60.2,141.4,59.6z"/>
	</g>
</g>
</svg>
