<svg id="Layer_1" data-name="Layer 1" xmlns="http://www.w3.org/2000/svg" viewBox="0 0 150 97.17"><defs><style>.cls-1{fill:#BB8760;}</style></defs><path class="cls-1" d="M76.45,48.71c11.18-1.38,16.61-9.83,16.34-20.52-.31-12.25-11.21-19-22.42-18,0,0-.07,0-.11,0l-.32,0A19.26,19.26,0,0,0,54,31.66C55.38,42.65,65.63,50,76.45,48.71ZM70.63,13.47c4.81-.4,9.3-.11,13.06,3.34,3.19,2.91,5.71,7,5.82,11.38.25,9.47-5,17.13-15,17.41C54.49,46.14,51,17.2,70.63,13.47Z"/><path class="cls-1" d="M149.57,93.79C145,88,140.48,82.09,136.25,76q-3-4.33-5.89-8.76c-1-1.57-2-4.45-3.76-5.35-3.25-1.69-10.51-.69-14.16-.82a123.57,123.57,0,0,0-16.1.21,58.31,58.31,0,0,0,7.52-29.36C103.58,13,88.48-2.86,68.77.44c-16.6,2.77-26.7,17.88-26.21,34.13A55.86,55.86,0,0,0,51,62.28l-17.48.09c-3.5,0-7.14-.56-10.13,1.48-4.09,2.78-7.22,8.68-10.22,12.64C8.64,82.41,4.37,88.47.24,94.63A1.65,1.65,0,0,0,1.66,97.1c23.73-.13,47.47.18,71.2-.2,25.16-.4,50.41,1,75.56-.31A1.66,1.66,0,0,0,149.57,93.79ZM67.86,5.06a25.44,25.44,0,0,1,24.6,7.58c7.19,7.57,7.8,18.45,6.35,28.3C96.35,57.7,86.52,70.18,74.71,81.51,60.65,70.79,50.14,57.67,47.47,39.75,45.22,24.65,51.84,8.8,67.86,5.06Zm5,88.56c-22.7.36-45.4.11-68.1.2C7.32,90,9.93,86.29,12.63,82.61c3.53-4.82,7-11.3,11.65-15.07,3.56-2.87,9.45-1.89,13.92-1.92l14.46-.08a2.09,2.09,0,0,0,.36-.07A90.32,90.32,0,0,0,73.77,86.25a1.73,1.73,0,0,0,2.44-.18l.21-.16A107.68,107.68,0,0,0,94.34,64.74h0a111.13,111.13,0,0,1,16.92-.43c4.72.16,11.12-.73,14.75,2.28,2.33,2,4.16,6.41,5.9,9,1.44,2.11,2.92,4.2,4.41,6.28,2.85,3.94,5.81,7.8,8.81,11.62C121.1,94.49,96.94,93.24,72.86,93.62Z"/><path class="cls-1" d="M29.06,72.06a42.49,42.49,0,0,0-6.41,7.74c-1.15,1.77,1.68,3.42,2.83,1.65a38.8,38.8,0,0,1,5.9-7.08C32.91,72.92,30.59,70.6,29.06,72.06Z"/><path class="cls-1" d="M32.22,78.31l-3.26,2c-1.79,1.1-.15,3.93,1.66,2.83l3.25-2C35.67,80,34,77.21,32.22,78.31Z"/></svg>