<?xml version="1.0" encoding="utf-8"?>
<!-- Generator: Adobe Illustrator 26.2.1, SVG Export Plug-In . SVG Version: 6.00 Build 0)  -->
<svg version="1.1" id="Layer_1" xmlns="http://www.w3.org/2000/svg" xmlns:xlink="http://www.w3.org/1999/xlink" x="0px" y="0px"
	 viewBox="0 0 300 270.9" style="enable-background:new 0 0 300 270.9;" xml:space="preserve">
<style type="text/css">
	.st0{fill:#050E13;}
</style>
<path class="st0" d="M167.7,135.2c1.8-4.8-2-2.9-4-2.8c-3,0.1-6.6,3.4-7.3,7.6c-0.7,3.6,4.9,12.2,7.1,12.2c2.1,0,1.4-1.7,2.8-9.2
	C166.3,142.7,167.5,135.8,167.7,135.2z M162.8,147.3c-0.5,0.1-3.4-3.5-3.7-7.4c-0.3-3.7,7.1-7.9,6.3-4.3c-0.2,1.1-0.6,2.4-1.1,4.7
	C164.2,141.5,163.7,147.1,162.8,147.3L162.8,147.3z M173,163.4c-1.9,0.2-3.6-1.1-4.2,1.4c-0.6,2.8-2.3,13-4.8,27.7
	c-0.2,1.3,0.9,1.3,4.9,2c16.2,2.9,18.9-11.9,15.5-18.8C182.8,172.9,176,163.1,173,163.4z M179.3,191.8c-1.4,0.5-6.4,2.7-11.9-0.1
	c-1.2-0.6,2.7-23,3.8-25.6c1-2.3,15.1,10,11.7,19.9C182.5,187.1,181.1,191.1,179.3,191.8z M175.3,155.7c-1.5-0.8-2.5-0.9-2.3-1.8
	c2-9.4,3.3-9.8,3.7-15.1c0.2-2.8,1-2.6,2.7-1.4c1,0.7,4.8,4.5,5.5,5.7c0.3,0.6,0.8,1.3,1.4,1.1c1.3-0.4,7.5-4.5,6.5-6.2
	c-2.4-4.2-2.3-6.7-11.4-13.4c-1-0.7-0.6-0.5-2.7-1.1c-2.1-0.7,3.1-10.4-1.1-10.8c-1.6-0.2-6.9-1.5-7.9-0.1c-1.2,1.7-0.2,2-0.6,4.2
	c-0.1,0.7-0.9,3.7-0.9,3.7c-0.2,0.7-0.4,1.2-6.5,3.5c-4.2,1.6-7.4,3.7-9.9,10c-4.5,11-1,13.7,1.3,18.4c0.4,0.7,0,0.3,1.8,2.1
	c4,3.9,0.2,1.3,5.5,5.3c1.7,1.3-2.3,13.2-2.6,14.4c-2.5,9.6-0.9,14.2-2.8,13.8c-5-1.2-10.7-7.6-10.3-13.2c0.1-1.1-0.7-1.6-3,0.4
	c-4.6,3.9-6.7,5.4-5.8,6.9c0.1,0.8,0.4,1.6,0.9,2.3c0.4,0.6,4.8,7.3,5.1,8.1c0.9,2.4,8,7.1,10.4,7.8c1.9,0.6,3-0.4,1.3,6.3
	c-1.1,4.5-1.8,5.2-0.2,5.1c2.9-0.2,10.1,2.1,11.5-0.2c0.4-0.8,0.6-1.6,0.6-2.5c0.1-1.8,0.6-3.5,0.8-5.2c0.1-0.8,0.4-0.3,2.6-0.4
	c3.9-0.1,8.6,0.2,12-1.4c1.7-0.8,7.3-2.2,11-8.8C197.6,182.6,191.5,163.9,175.3,155.7L175.3,155.7z M190.2,191.6
	c-2.8,7.6-12.5,10.7-20.3,9.7c-1.2-0.1-2.4-0.4-3.5-0.9c-0.8-0.5-1.9-0.2-2.3,0.6c-0.2,0.3-0.2,0.6-0.2,1c-0.4,9.9-1.2,8.4-4.4,8
	c-3.8-0.4-4.5,0.3-4-2.6c0.4-2.3,1-4.5,1.8-6.7c0.4-1.3,0-1.4-0.3-1.5c-10.3-3.1-12.2-7.6-15.1-11.9c-1.3-2-4.2-5.9-3.3-7
	c7.1-8.6-0.1,3.4,13.4,8.8c1.9,0.8,6,2.6,6.1,0c0.1-0.9,0.3-6.9,0.4-7.6c2.1-12.7,6.2-21.8,4.5-22.9c-2.2-1.4-2-1.2-2.9-2.2
	c-4.7-5.2-4.4-4.8-5.1-6c-0.4-0.9-0.8-1.7-1.3-2.5c-4.1-5.4,1.3-24.8,14.1-23.4c0.5,0.1,1.9-0.5,2.2-2.5l0.8-3.6
	c0.8-4.6,0.5-4.7,3.1-4.3c3.1,0.5,3-0.2,2,4.7c-0.6,3-1.7,6.4,2,6.9c1.1,0.2,9.1,5.2,12,13c0.3,0.7-0.3,0.9-0.8,1.2
	c-0.2,0.1-1.7,1.3-1.8,1.3c-2.4-2.3-4.9-4.4-7.6-6.3c-1.6-1.1-1.6-1.6-3.3-1.7c-2.1-0.1-2.9,7.2-4.1,13.9c-0.3,1.6-2.5,5.2-1.7,9
	c0,0.1,6,3.6,6.2,3.7C187.1,166.6,194.6,180,190.2,191.6z M79.9,188.5c-0.2-0.1-4.6-0.5-5.2-0.2c-2,0.9-0.9,1-1.9,2.5
	c-0.5,0.7-3.2,3.5-4.1,3.9c-1.1,0.5-1.7,1.8-1,2.5c0.6,0.8,1.3,1.5,2.1,2.1c0.6,0,1.1-0.2,1.6-0.6c0.3-0.2,0.5,0.7,0.3,1.3
	c-2.7,8.7-5,7.4-0.1,8.8c0,0,3,0.2,3.2,0.2c3.4,0,0.5-2,4.9-14.6C82.1,187.6,83,189.6,79.9,188.5L79.9,188.5z M78.9,191.6
	c-1.4,1.7-3.4,12-4.2,14.7c-0.3,0.9-1.8,0.5-2.7,0.1s-0.3-1.3,0-2.1c0.6-1.9,1.8-6.5,2.6-7.5c0.9-1.2,0.8-2.2,0.3-2.5
	c-0.6-0.3-1.1-0.1-1.7,0.6c-0.4,0.5-0.8,0.9-1.2,1.4c-1,0.9-2.5,0.2-1.3-0.9c4.5-4.4,3.7-5.2,7.4-5
	C78.9,190.4,79.5,190.9,78.9,191.6z M90.2,241.4c-6.1-0.6-4.5-0.6-5.8,2c-0.3,0.7-0.7,1.3-1.3,1.8c0,0-1.5,1.6-1.9,2
	c-1.1,1-3,1.2-3.6,1.7c-1.1,0.9,0.3,1.9,0.9,4.1c0.6,2,4.2-1.5,3.9,0.4c-0.7,3.9,0.6,1.9-2.3,7.3c-0.4,0.7-0.6,1.4,0.1,1.6
	c2.4,0.9,1.8,0.3,3.9,1.1c0.8,0.4,1.7,0,2.1-0.8c0,0,0,0,0-0.1c0.3-0.6,0.4-1.3,0.4-2c0.1-0.9,3.7-14.1,4.9-16.4
	c0.3-0.5,0.7-0.8,0.6-1.3C91.9,241.6,91.4,241.5,90.2,241.4L90.2,241.4z M86.8,252.6c-1.1,2.8-1.4,8.7-3,8.6
	c-1.6-0.1-1.9-0.8-1.3-1.4c1-1.1,1.4-4,3-10.3c0.1-0.6,0-0.8-0.5-0.8c-1.4-0.1-0.9,0.3-3.9,2.5c-0.6,0.5-1.4-0.6-1.2-1.4
	c0.1-0.5,0.9-0.5,1.3-0.8c1.9-1.5,3.5-3.3,4.8-5.3c0.7-1.1,3.9-0.5,3.3,0.6C87.5,247.4,88,249.5,86.8,252.6z M92.2,211.6
	c5.5-8.7,2.1-14.4,0.7-21.9c-0.2-1-2.5-3.7-3.1-4.4c-3.3-3.6-3.2-5.1-9.2-7.2c-20.8-7.1-30.1,24.2-25.5,30.8
	c0.4,0.6,2.3,3.9,2.9,4.4c2.9,2.3,6.6,5.5,11.3,6.8c1.8,0.5,3.7,0.9,5.6,1.1C85.1,220.9,89.2,216.3,92.2,211.6L92.2,211.6z
	 M66.9,217.1c-1.7-0.8-4.2-3.1-5.7-4.2c-1.9-1.5-2.4-2-4.5-6c-0.5-1.2-0.8-2.5-0.9-3.8c-1.3-8.1,7.7-26.7,21.4-23.3
	c1.8,0.5,3.8-0.1,8,4.2c1.5,1.2,2.8,2.6,3.9,4.2c2.6,3.8,4,8.4,4.1,13.1c-0.2,4-1,9.4-3.9,12c-4.7,4.4-5.3,4.8-12.8,6.4
	C74.9,220.1,68.3,217.8,66.9,217.1L66.9,217.1z M84.8,211.8c3.7-2.8,5.2-8.1,5.2-8.1c0-0.7,0.1-1.4,0.3-2.1c0.4-1.1,0.2-2.4,0-4.4
	c-0.5-3.3-0.4-4.7-1.6-6.3l-1.8-2.3c-1.2-2-3.3-5-6.4-5.2c-3.7-0.3-9-0.2-12.9,2.1c-1.8,1.1-3.5,2.4-5,4c-1,1.1-4.2,7.7-4.2,11.9
	c0,3.5-0.3,5.4,2.7,8.4c1.3,1.3,3.1,4.8,10.4,5.8c1.1,0.1,1.6,0.7,3.6,0.4S78.5,216.6,84.8,211.8L84.8,211.8z M78.7,213.8
	c-3,1.2-5.8,0.3-10.4-1.1c-2.3-0.7-3.3-1.4-4.2-2.8c-2.2-3.3-3.6-3.7-4.1-7c-0.1-0.8,0.9-6.1,1-6.8c0.1-0.8,0.6-1.3,1.7-3.4
	c0.5-0.9,0.9-1.7,2.9-3.4c3.6-3.2,4.3-3.1,8.1-3.9c0.2-0.1,1.6-0.1,1.8-0.2c0.6-0.2,1.3-0.2,2,0c1.1,0.2,3.6,0.1,4.9,1.5
	c1.9,1.8,1.7,3.4,3.2,4.5C88.2,193.3,92.4,208.2,78.7,213.8L78.7,213.8z M101.8,239.7c-3.7-4-4.8-6.4-10.8-8.7
	c-2.2-1-4.5-1.4-6.9-1.2c-3.7,0.3-13.4-3.2-20.2,17.4c-1.4,3.3,1.6,17,8.5,20.8c4,2.2,11.2,3.4,14.4,3.5c9.3,0.3,12.6-4.8,14.5-7.2
	c2.3-3.1,3.9-6.7,4.6-10.5C106.3,251,104,242.1,101.8,239.7L101.8,239.7z M95.4,268.2c-1.4,0.9-2.2,0.7-3.5,1.2
	c-3.1,1.1-10.3-0.1-14.8-1.8c-2-0.7-4.5,0.1-9.6-9.8c-0.6-1.4-1-2.9-1.2-4.4c-1-5,0.3-10.3,3.6-14.2c0.9-1,4.5-7.6,9.7-7.6
	c1.1,0,6.5,0,7.6,0.2c3.1,0.8,6,2.1,8.6,3.8c3,2.4,5.5,4.6,7.7,12.6c1,3.6-0.6,9.3-0.6,9.3C102.6,261.1,98.8,265.9,95.4,268.2
	L95.4,268.2z M190,82.5c1.1,0.2,1.2-2.5,1.5-4.3c0.9-5.3,3.7-8.1,4.7-19.5c0-0.2,0.1-0.3,0.3-0.3c0.1,0,0.2,0.1,0.2,0.2
	c1.6,4.3,0.1,9.4,2.4,8.5c2.3-0.9-0.4-9.5-0.2-11c0.2-2.2-1-4.7-2.7-3.3c-2.2,1.8-2.5,3.5-2.9,10.8C193,69.7,187.6,81.9,190,82.5z
	 M98.4,241.4c-5-6.9-14.5-8.3-17.3-6.9c-3.5,1.7-9.9,3.8-11.7,12.7c-0.4,1.8-2.3,5.5,2.3,13.3c5.7,9.5,25.3,9.8,29.1-3.2
	c0.8-2.8,1.4-3.3,1.3-6.5C101.7,247.3,100.4,244.1,98.4,241.4z M91.7,265c-2.9,1.5-7.4,0.2-10.5-0.7c-1.1-0.3-5.3-2.5-6.7-4.6
	c-4.8-7.3-4.9-11.1-0.9-17.7c3.3-5.3,10-6.3,12.3-5.6c1.7,0.5,4.2-0.2,8.3,4c1.4,1.4,2.3,1.9,3.6,3.8c1.4,2.2,1.7,2.5,2,4.3
	c0.6,4.5,0.1,4.8-0.6,8.3C97.9,262.2,94.6,263.5,91.7,265z M171.2,65.1c0.2-0.2,1.8-2.2,1.9-2.1c-0.3,0.8-0.6,1.5-0.8,2.3
	c-3.1,8.5-8.9,19.6-6.4,19.1c1.2-0.2,0.7-0.3,1.2-1c0.6-1.3,0.7-2.2,2-6c1.4-4,4-8.4,5.2-12.1c0.9-2.9,6.9-12.7,7.3-14.7
	c0.2-1.4-2-1.1-2.9,1.4c-1.1,3-8.2,11.2-9.5,12.9c-0.4,0.5-0.8,1.1-0.3,1.5C169.6,67.1,170.5,65.9,171.2,65.1z M234.1,181.9
	c-0.5-3.8-1.3-6.1-1.4-7.3c-1.2-14.1-6-29.7-9.8-40.1c-0.5-1.4-7.3-31.3-8.9-33.3c-0.2-0.4-0.4-0.9-0.5-1.3c-2.9-10-1.2-7.2-3.3-10
	c-0.3-0.4-3.9-21.6-4-22c-1.4-8.3-3.1-17.5,3.2-13c2.4,1.7,5.4,13.4,8.1,20c0.7,1.7,0.3,4.3,4.2,8.3c1.1,1.2,3.5,3.7,5.7,4.8
	c3.4,1.6,14.3,4.5,15.7,3.3c1.1-0.9-0.2-1.6-1.5-2.1c-12.3-4-15-7.2-17.6-14.1c-3.3-8.7-0.4-13.9-5.7-19.1c-0.3-0.3-0.3-0.5-0.1-0.6
	c0.4-0.3,5.3,3,5.7,3.2c2.1,1,4.3,1.9,6.6,2.5c3.7,0.5,8.7-2.6,9.8-4.7c0.1-0.2,0.3-0.4,0.5-0.5c3.4-2.8,2.1-14.7-10.7-14.9
	c-14-0.3-14.3,1.8-19.6,3.9c-0.2,0-0.3-0.1-0.4-0.2c0-0.1,0-0.1,0-0.2c1.2-3.6,14.6-22.9,24.3-33.2c1.5-1.6,1.2-2.8,0.5-3.3
	c-1.8-1.2-4.1-0.7-7.5-1c-4.5-0.4-11.5,3.2-12.8,0.3c-2.5-5.5,1.3-4-16.9-5.4c-3.4-0.3-5.1,1-8.6,2.1c-0.8,0.2-0.9,0.9-1.8,1.2
	c-1.2,0.4-1.7,1.6-2.4,3c-0.1,0.1-0.2,0.2-0.4,0.2c-3.7-1.5-12.9,0.2-17.8,2.3c-0.6,0.4-1.3,0.6-2,0.7c-0.5,0-0.5,0.4-0.6,0.9
	c-0.1,0.8,0.6,0.6,0.8,1.3l2.5,6.2c0.6,1.4,0.7,3.3,1.4,4.4c0.2,0.4,2.4,7.3,2.5,7.7c0,1.2,1.8,5.7,1.9,6.9c0,0.6,0,1.2,0.2,1.8
	c0.1,0.2,0,0.5-0.2,0.6c-2,1.3-0.4,6.4-0.8,7.6c-2,6-22.9,28.9-35.7,40c-11.3,9.8-17,17.2-24.5,28.5c-22.5,33.7-18.9,42.1-20,46
	c-0.1,0.6,0.3,1.2,0.9,1.4c0.4,0.2,2.7,5.7,2.2,10c-0.3,0.9-0.2,1.8,0.1,2.7c0.2,0.3-0.1,0.7-0.4,0.9c-9.5,5-3.8,4.8-2.8,4.2
	c0.5-0.5,1.1-0.9,1.8-1.2c1.8-0.7,1.7-1,2.3-0.3c1.4,1.7,2.6,1.8,3.7,2.7c1.3,1-5.3,3.6-2.7,4.8c0.9,0.4,1.9,0.1,2.4-0.8
	c0.5-0.7,2.7-2.8,3.4-2.4c1.5,0.8,4,2,3.5,3.8s0.2,3,0.2,4.3c0,1.9,2.6,1,1.5,3c-2.6,3.8-4.3,8.2-5,12.9c-0.2,1.2,1.5,8.4,5.1,11.5
	c6.3,5.5,10.3,6.8,11.9,7.4c0.5,0.2-0.3,5.4-1.1,5.4c-1.1-0.1-4.8,0.3-5.2,1.8c-1.3,4.5,17.4,14.9,20.5,16.6
	c3.3,0.9,6.5,1.9,9.7,3.1c1.3,0.6,1.1,0.9,14.3,2.2c0,0,11.1,0.9,18.5,0.3c9.7-0.9,16.3-1.7,25.5-9.2c7.9-6.5,8-6,13.3-11.6
	c9-9.6,15-30.6,15.4-31.8C233,199.6,234.5,184.8,234.1,181.9z M210.9,46.4c0.9-0.3,0.5-0.6,1.4-1c2-1,4-1.8,6.1-2.4
	c1.3-0.5,11.1-1.2,15.6,0.3c2.5,0.9,6.2,4.7,5.8,7.2c-0.3,1.8,0.1,2.8-1.1,4.4c-7.8,10.5-18.3-2.5-22-3.2c8.2,1.7,13.8,7.3,19.7,1.3
	c0.9-1,0.4-6.7-5.8-7.5c-0.1,0-6.2-0.9-6.7-0.9c-3.5-0.1-7,0.4-10.4,1.4c-3.9,1-1,0.4-3.8,1.4C209.4,47.1,210.4,46.5,210.9,46.4
	L210.9,46.4z M214.4,49c-1.8-0.6,2.3-2,7.8-2.2c1,0,2.3-0.5,3.5,0s8.4-0.9,8.7,5.2c0,1.2-1.1,1.3-2.7,2.1s-7.8-2-9.5-2.8
	C220.8,50.7,215.3,49.3,214.4,49L214.4,49z M209,51.1c2,0,2,1.1,3.8,1.9c0.3,0.1,0.6,0.4,0.8,0.7c0.3,0.6,0.7,1.1,1.3,1.5
	c0.6,0.7,1.1,1.4,1.5,2.1c3,4.4,2.4,2.8,3.9,14.3c0.2,1.3,3,7.7,3.6,8.6c1.6,2.4,3.6,4.3,6,5.8c0.1,0.1,0.1,0.2,0.1,0.4
	c-0.1,0.3-0.7,0.1-1.1,0c-1.9-0.3-5.7-4.5-7-6.6c-3-4.9-1.1-4.8-3.7-9.2c-1.8-3.1-4.8-14.8-6.4-16.5c-1.4-1.6-1.7-1.1-2.7-1.9
	c-0.4-0.3-0.8-0.6-1.2-0.8c-0.1,0-0.1-0.1-0.1-0.1C207.9,50.9,208.8,51.1,209,51.1L209,51.1z M167.7,14.3c-0.2-0.5-0.9-1.6-0.7-2
	c0.4-1.4,12.5-4.2,15.6-2.8c2.5,1.1,4,0.1,4.4-1.8c1.3-5.9,23.7-4.7,24.2-2.6c2.3,9,9.1,2.6,15.7,3.3c4.5,0.4,7.5-0.3,5.1,2.5
	c-11,12.4-21.4,27.9-24.6,34.3c-0.3,0.7-1,0.4-1.6,0c-1.3-0.9-20.2-5.2-28.4-4.9c-0.4,0-1.4,0.4-1.7,0.2
	C175.7,40.4,169.3,17.7,167.7,14.3L167.7,14.3z M203.6,51.1c-0.4,0.3-3.9-0.8-4.5-1c-4-1.7-15.7-3.2-19-3.5c-0.4,0-4.5,0.1-4.7,0.1
	c-1,0.2-1.1-0.9-1.2-1.5c-0.2-1.3-0.1-2.8,0.7-2.9c3.9-0.7,2.8-0.8,6.6-0.3c10.7,1.3,12.1,2.2,13.7,2.6c2.1,0.5,10,0.7,9.9,3.2
	c0,1.5-1.1,1-1.2,2.2C203.9,50.4,203.9,50.9,203.6,51.1z M105.8,183.7c-0.2-0.1-0.2-0.2-0.2-0.4c0-0.1,0.1-0.1,0.2-0.2
	c2.7-1.3,5.9-0.8,6.2-2.4c0.3-2.1-7.1,0.9-8.4,1.4c-0.8,0.3-2.3-0.5-2.8-1s-1.1-0.5-1.5-1.1c-1.1-1.8,5-2.1,7.1-1.7
	c1,0.2,2-0.3,1.7-1.5c-0.3-1.1-5.2-0.9-6.2-0.4c-1.2,0.5-2.6,0.7-3.9,0.7c-0.2-0.1-0.2-0.6-0.1-0.8c0.2-1.2,0.3-5.3-1.7-12
	c-0.1-0.4,0.1-0.8,0.4-0.9c0.8-0.4,6.5-3.5,7.3-3.6c0.5-0.1,1.2,0.5,0.9,1.8c-0.8,3.7-0.6,3.9-0.1,7c0.3,2.1,0.4,3,1.1,4
	c1.1,1.6,2.6,1,10.3,2.9c2.6,0.6,5.1,1.6,7.3,3.1c0.5,0.3,0.5,2.4-0.2,3c-1.8,1.3-3.3,3-4.5,5c-0.4,0.7-1.7,2.5-2,2.5
	c-1.9,0.6-3.7,1.6-5.2,3c-0.6,0.5-1.9,0.6-2.1-0.1C107.7,186.4,112.1,186.6,105.8,183.7z M116.6,216.7c0,0.5,0.2,0.9,0.5,1.3
	c0.2,0.2,0.3,0.5,0.1,0.8c-0.2,0.2-0.5,0.3-0.7,0.1c0,0-0.1,0-0.1-0.1c-10-8-6.4-15.1-3.8-19c0.8-0.9,2.7-3.3,3.8-3.6
	c1.6-0.5,1.5-2.7,4.3,3.6c1.7,3.7,5.1,4.6,4.9,11.9c0,0.8-0.7,1.4-1.5,1.4c-0.1,0-0.2,0-0.3,0c-1.2-0.1-2.5-1.6-5-0.8
	C117.2,212.8,116.3,214,116.6,216.7L116.6,216.7z M116.3,223.4c-0.2-0.1-6.3-4.7-6.9-5.3c-1.8-2.2-3.1-4.9-3.6-7.8
	c-0.2-1.4-1.7-1.6,2.3-10.8c0.9-1.7,1.9-3.3,3-4.8c0.8-1,1.7-1.9,2.8-2.5c3.6-2.1,2.7-0.8,3.3,1c0.3,0.8-0.4,0.9-1.1,1.2
	s-1.1,0.7-3.2,2.6c-1.8,1.7-3.2,3.7-4.1,6c-0.4,1.2-0.7,2.4-0.9,3.6c-1.3,5.6,1.3,8.3,3.2,10.6c2.2,2.7,3.5,3.1,7,4.8
	c1,0.5,1.1-0.1,1.6,1.3C120.4,224.8,119.2,224.5,116.3,223.4z M223.4,219.7c-1.3,2.3-4.5,10.6-17.2,22.5c-1.1,0.9-1.8,1.7-5,4.3
	c-7.9,6.6-16.9,8-22.8,8.5c-4.9,0.5-6.1,0.8-8.2,0.4c-1.3-0.2-3.9,0.1-5,0.1c0.5,0.1-15.7-1.3-18.3-2c0,0-2-0.8-11.2-4.1
	c-2.9-1-6.7-3.9-8.8-4.9c-2.1-1-1.9-0.3-7.3-6c-0.8-0.8-1.3-0.7-1.9-1.9c-0.1-0.1-0.7-0.9-0.7-0.9c0-0.2,0.2-0.6,0.7-0.7
	c1.5-0.3,1.6,0.5,3.7-1.7c0.9-1,1.6-5.4,0.5-10.9c-0.3-1.6-3.1-6.5-3.2-6.8c-0.1-1.6,1.9-1.8,3-1.3c3.6,1.7,8.2-2.2,5.4-8.6
	c-0.7-1.5-4.2-7.2-4.2-7.3c-0.7-1.8-6-7.7-2.5-12c1-1.4,2.2-2.6,3.5-3.8c2.4-1.4,2.3-4.9,0.8-6c-3.5-2.5-13.4-4.8-14.9-4.9
	c-3.3-0.3-2.6-3.8-3.4-6.3c-0.1-1.9,0.1-3.7,0.7-5.5c0.5-1.2-0.7-2.4-1.6-2.4c-6.1-0.1-12.4,9.6-11.4-0.2
	c1.4-15.1,21-46.8,41.8-66.9c-1,0.9,11.5-9.7,13-12.1c2.4-3.8,16.5-15.5,22.3-25.5c0.1-0.1,1.6-2.6,1.6-2.6c0.7-0.8,0.5-1.7,1.8-1.8
	c2.1-0.1,4.2-0.7,7.9-0.1c3.2,0.5,17.4,3.1,20,5.1c1,0.7,0.4,3.2,0.5,6c0.1,2.3,4.6,28.7,6.1,32.3c0.4,0.9,0.8,0.3,1,1.6
	c0.7,5.7,5,14.7,7.4,25.4c0.3,1.9,0.8,3.7,1.4,5.5c1.2,2.7,0.4,3.5,1.3,6.1c0.7,2.2,0.8,3.7,1.6,6.5c3.7,10.1,6.4,20.6,8.1,31.2
	c1,4.8,1.5,9.7,1.5,14.6c0.5,8.5-0.9,13.5-2.2,19.5C227.7,208.3,225.7,214.1,223.4,219.7L223.4,219.7z M181.8,34.3
	c0.3,1.8,1.4,2.2,2,1.6c1.3-1.3,0.6-0.5,0.8-3.6c1.1-11.9,1.6-13.5,3.9-17.2c0.1-0.2,0.2-0.5,0.1-0.7c-0.2-0.4-0.3-0.5-1.1-0.5
	c-0.8,0-1.4,1.5-1.6,2.1c-0.9,2-1.6,4.2-1.9,6.5c-0.2,1.2-1.3,9.9-1.6,7.2l-2.8-7.6c-0.3-0.7-1-1-1.7-0.8c0,0,0,0,0,0
	c-1.3,0.5,0.1,2.1,1.6,6.7C180.1,30.2,181.8,34.3,181.8,34.3z M202.4,38.5c0.3-0.1,0.4-0.4,0.4-0.8c0-1.6,0.8-3.2,3.2-8.2
	c7.8-16.4,10.8-17.4,7.3-17C212.2,12.7,196.6,42.1,202.4,38.5z M105.6,220.1c-3.2-0.7-7.1,3.8-11.9,7.8c-1,0.8,0.4,2.5,2.8,0.7
	c1.2-0.9,2.6-4.5,6.8-5.8C105.9,221.8,106.4,220.2,105.6,220.1z M104.5,232.4c1.4-2.6,3.6-4.6,6.2-5.7c0.4-0.2,0.7-0.6,0.8-1
	c0.4-1.1-1.2-1.1-1.8-0.6c-0.9,0.4-1.7,0.9-2.5,1.5c-2.3,1.7-5.6,6-5.9,6.2C99.5,234.2,102.1,236.2,104.5,232.4z"/>
</svg>
