<?xml version="1.0" encoding="UTF-8"?><svg id="a" xmlns="http://www.w3.org/2000/svg" viewBox="0 0 157.61 93.99"><defs><style>.b{fill:#010101;}</style></defs><g><path class="b" d="M137.84,93.99c-.25,0-.49-.12-.64-.34-.23-.35-.13-.82,.22-1.05,9.24-6.05,15.38-16.65,16.03-27.67,.02-.42,.38-.74,.81-.72,.42,.02,.74,.39,.72,.81-.68,11.49-7.08,22.55-16.71,28.86-.13,.08-.27,.12-.42,.12Z"/><path class="b" d="M156.85,72.58c-.37,0-.69-.27-.75-.64-.33-2.06-.95-4.05-1.85-5.92-1.39,1.62-2.93,3.12-4.58,4.47-.33,.27-.8,.22-1.07-.11-.27-.32-.22-.8,.11-1.07,1.87-1.53,3.58-3.26,5.1-5.14,.16-.2,.4-.3,.66-.28,.25,.02,.48,.17,.6,.39,1.27,2.31,2.12,4.81,2.54,7.41,.07,.42-.22,.81-.63,.87-.04,0-.08,0-.12,0Z"/></g><g><path class="b" d="M4.21,28.39c-.37,0-.7-.28-.75-.66C2.03,17.39,6.43,6.57,14.66,.16c.33-.26,.81-.2,1.07,.13,.26,.33,.2,.81-.13,1.07C7.79,7.44,3.61,17.71,4.97,27.52c.06,.42-.23,.8-.65,.86-.04,0-.07,0-.11,0Z"/><path class="b" d="M4.22,28.88c-.29,0-.55-.16-.68-.42L.08,21.68c-.19-.37-.04-.83,.33-1.02,.37-.19,.83-.04,1.02,.33l2.76,5.4c.9-1.85,1.89-3.67,2.97-5.42,.22-.36,.69-.47,1.05-.25,.36,.22,.47,.69,.25,1.05-1.31,2.14-2.5,4.39-3.54,6.67-.12,.27-.38,.44-.68,.45h-.02Z"/></g></svg>