<svg id="Layer_1" data-name="Layer 1" xmlns="http://www.w3.org/2000/svg" viewBox="0 0 120.06 116.77"><defs><style>.cls-1{fill:#fff;}.cls-2{fill:#010101;}.cls-3{fill:#0c1215;}.cls-4{opacity:0.13;}</style></defs><path class="cls-1" d="M60,3.05c-.28,8.3-.22,17.25-.42,25.82,12.1-2.68,23.85-6,35.94-8.7C84.32,14.17,73,8.64,60,3.05Z"/><path class="cls-2" d="M59.54,29.73a.84.84,0,0,1-.86-.88c.08-3.61.12-7.35.15-11,.05-4.94.1-10,.27-14.86a.86.86,0,0,1,.4-.7.84.84,0,0,1,.8-.06c12.68,5.45,24,10.9,35.59,17.15a.86.86,0,0,1,.45.88.87.87,0,0,1-.67.72c-6,1.34-12.09,2.87-18,4.35s-11.93,3-18,4.35A.58.58,0,0,1,59.54,29.73ZM60.79,4.35c-.14,4.41-.18,9.05-.23,13.55,0,3.25-.06,6.61-.13,9.88,5.68-1.27,11.36-2.71,16.87-4.1,5.14-1.3,10.42-2.63,15.73-3.85C82.53,14.26,72.2,9.3,60.79,4.35Z"/><path class="cls-2" d="M59.2,60.33h0a.87.87,0,0,1-.85-.89c.23-9.75.29-19.67.35-29.27S58.79,10.62,59,.84A.87.87,0,0,1,59.89,0h0a.86.86,0,0,1,.84.89c-.23,9.76-.29,19.69-.34,29.29s-.12,19.54-.35,29.31A.86.86,0,0,1,59.2,60.33Z"/><path class="cls-1" d="M118.93,76.55l.26,39.36c-14.55-.38-31.77-.2-44.36-.2-.64-12.89,0-25.61-.53-38.82C88.9,76.75,103.49,76.53,118.93,76.55Z"/><path class="cls-2" d="M119.19,116.77h0c-11.14-.29-23.73-.25-34.83-.22l-9.51,0a.88.88,0,0,1-.87-.83c-.33-6.86-.32-13.81-.32-20.53,0-6,0-12.12-.21-18.29a.86.86,0,0,1,.24-.63.85.85,0,0,1,.62-.27L85,75.92c11-.12,22.28-.25,34-.24a.87.87,0,0,1,.86.86l.27,39.36a.9.9,0,0,1-.26.62A.88.88,0,0,1,119.19,116.77Zm-23.2-2c7.5,0,15.19,0,22.33.22l-.25-37.61c-11.36,0-22.41.12-33.09.24l-9.79.1c.2,5.91.19,11.79.18,17.48,0,6.42,0,13.06.28,19.62l8.68,0C88.09,114.81,92,114.8,96,114.8Z"/><path class="cls-3" d="M38.65,89.24c.09,8.89.57,17.64.65,26.53-14.55-.25-23.43-.2-37.9.08,0-7.78-.44-17.18-.53-26.39C15.47,89.37,23.22,89.23,38.65,89.24Z"/><path class="cls-2" d="M1.4,116.71a.86.86,0,0,1-.61-.25.83.83,0,0,1-.26-.61c0-4.16-.12-8.74-.26-13.58C.16,98.08,0,93.76,0,89.47a.86.86,0,0,1,.25-.61.83.83,0,0,1,.61-.26l12.58-.1c7.94-.07,14.8-.13,25.21-.13a.88.88,0,0,1,.87.86c0,4.44.18,8.92.32,13.25s.28,8.83.33,13.29a.87.87,0,0,1-.26.62.86.86,0,0,1-.62.25c-15.13-.27-24.27-.19-37.88.07Zm.34-26.39c.05,4,.16,8,.26,11.9.13,4.52.24,8.81.26,12.75,12.88-.25,21.86-.32,36.17-.08,0-4.14-.19-8.31-.32-12.36s-.26-8.25-.31-12.43c-9.93,0-16.63.06-24.34.13Z"/><path class="cls-3" d="M39.3,116.64a.86.86,0,0,1-.86-.84c-.37-12-.61-24.14-.84-35.92-.14-7.21-.28-14.66-.46-22.09a.9.9,0,0,1,.25-.62.87.87,0,0,1,.61-.26l10.08-.17c10.34-.18,21-.37,32.06-.35a.86.86,0,0,1,.86.86c0,9.77,0,19.64,0,29.19s0,19.48,0,29.26a.9.9,0,0,1-.25.62.86.86,0,0,1-.61.25l-19,0C54,116.62,46.53,116.64,39.3,116.64Zm-.41-58c.17,7.15.31,14.3.44,21.23.22,11.5.45,23.38.81,35.06,7,0,14.11,0,21,0l18.15,0c0-9.5,0-19.1,0-28.4s0-18.84,0-28.32c-10.7,0-21.11.17-31.17.35Z"/><path class="cls-2" d="M60.64,102a.86.86,0,0,1-.86-.84c-.18-6.19-.28-12.45-.3-18.68a21.75,21.75,0,0,1-5.85,7.12.87.87,0,1,1-1.07-1.36A19.91,19.91,0,0,0,59.5,77.62a.87.87,0,0,1,1.71.21c0,7.75.08,15.59.3,23.32a.87.87,0,0,1-.84.89Z"/><path class="cls-2" d="M93.25,113.14a.27.27,0,0,1-.12,0,67.53,67.53,0,0,1-10-5.62.29.29,0,0,1,.33-.48,67.28,67.28,0,0,0,9.94,5.58.3.3,0,0,1,.14.38A.28.28,0,0,1,93.25,113.14Z"/><path class="cls-2" d="M108.21,114l-.11,0a171,171,0,0,1-25.61-13.17.28.28,0,0,1-.09-.4.3.3,0,0,1,.4-.09,169.41,169.41,0,0,0,25.52,13.13.28.28,0,0,1,.16.37A.3.3,0,0,1,108.21,114Z"/><path class="cls-2" d="M115.2,111.56a.27.27,0,0,1-.12,0c-10.64-5.1-21.27-10.6-31.6-16.33a.29.29,0,0,1,.28-.51c10.32,5.74,20.94,11.23,31.57,16.32a.29.29,0,0,1,.13.39A.29.29,0,0,1,115.2,111.56Z"/><path class="cls-2" d="M113.8,104.86a.31.31,0,0,1-.13,0L83.72,89.33a.29.29,0,0,1-.13-.39.28.28,0,0,1,.39-.12l30,15.5a.28.28,0,0,1,.12.38A.29.29,0,0,1,113.8,104.86Z"/><path class="cls-2" d="M114.65,99.4a.31.31,0,0,1-.13,0c-10.35-5.2-20.65-10.86-30.59-16.8a.29.29,0,0,1-.1-.4.28.28,0,0,1,.39-.1c9.94,5.94,20.22,11.59,30.56,16.79a.28.28,0,0,1,.13.38A.29.29,0,0,1,114.65,99.4Z"/><path class="cls-2" d="M115.3,93.35a.31.31,0,0,1-.13,0C107,89.08,98.78,84.65,90.75,80.14a.29.29,0,1,1,.28-.5c8,4.5,16.23,8.93,24.41,13.17a.29.29,0,0,1,.12.39A.3.3,0,0,1,115.3,93.35Z"/><path class="cls-2" d="M114,85.86a.18.18,0,0,1-.1,0,101.45,101.45,0,0,1-11.49-5.58.29.29,0,0,1-.11-.39.28.28,0,0,1,.39-.11,101.07,101.07,0,0,0,11.42,5.55.28.28,0,0,1,.16.37A.27.27,0,0,1,114,85.86Z"/><g class="cls-4"><path class="cls-2" d="M38.37,112.5c-.24-5.68.2-11.37-.12-17-.06-1.58-.06-3.17-.09-4.75A3.23,3.23,0,0,0,38,89.28a2,2,0,0,0-3.93.79c-.1,3.12-.06,6.23.05,9.35s-.14,6.17-.2,9.26c-.06,1.45.09,2.89.13,4.33a2.64,2.64,0,0,0,.65,2.08,2.19,2.19,0,0,0,3.41-.44A3.93,3.93,0,0,0,38.37,112.5Z"/></g></svg>