<?xml version="1.0" encoding="utf-8"?>
<!-- Generator: Adobe Illustrator 26.3.1, SVG Export Plug-In . SVG Version: 6.00 Build 0)  -->
<svg version="1.1" id="Layer_1" xmlns="http://www.w3.org/2000/svg" xmlns:xlink="http://www.w3.org/1999/xlink" x="0px" y="0px"
	 viewBox="0 0 79.2 97.9" style="enable-background:new 0 0 79.2 97.9;" xml:space="preserve">
<style type="text/css">
	.st0{fill:#F3F3F4;}
	.st1{fill:#050E13;}
	.st2{fill:#EFB78E;}
	.st3{fill:#BA8760;}
</style>
<g>
	<g>
		<path class="st0" d="M34.1,63C26,60.1,20.4,52,20.5,42.5c0-9.5,6.9-20.5,14.2-27.3c-0.2,5.1-0.3,7.2-1,11.8
			c7.3-5.7,7-21.5,5.9-26.4c3.9,3.1,5.2,15.6,5.2,20.8c2-2.1,4.4-8.4,4.9-11.5c2.4,3.5,3.2,8.9,2.9,13.3c-0.2,3.2-1.5,8,0.2,9.2
			c0.9-3.8,2.3-5.4,6.2-8c-1.5,2.9-0.8,6.6,0.4,9.6c1.2,3.1,2.9,5.9,3.5,9.1c1.4,7.1-2.9,14.5-8.7,17.8C48.1,64.1,42,65.8,34.1,63z"
			/>
		<path class="st1" d="M41.8,64.9c-2.4,0-5.1-0.4-7.9-1.4c-8.4-3-14-11.4-14-21c0.1-9.8,7.2-21,14.3-27.7c0.1-0.1,0.4-0.2,0.6-0.1
			c0.2,0.1,0.3,0.3,0.3,0.5L35,16.4c-0.2,3.8-0.3,5.9-0.8,9.3c5.9-6,5.8-20.1,4.7-25c0-0.2,0-0.4,0.2-0.5s0.4-0.1,0.6,0
			c3.8,3,5.2,13.9,5.4,19.8c1.7-2.6,3.5-7.4,3.9-10.1c0-0.2,0.2-0.4,0.4-0.4s0.4,0,0.5,0.2c2.6,3.8,3.2,9.5,3,13.6
			c0,0.7-0.2,1.7-0.3,2.7c-0.3,1.9-0.5,4-0.2,5.2c0.9-3.1,2.4-4.8,6.2-7.3c0.2-0.1,0.4-0.1,0.6,0c0.2,0.2,0.2,0.4,0.1,0.6
			c-1.5,2.9-0.6,6.6,0.4,9.2c0.4,1,0.8,2,1.3,2.9c0.9,2,1.8,4.1,2.3,6.3c1.3,6.8-2.5,14.7-9,18.3C51,63.1,46.9,64.9,41.8,64.9z
			 M34,16.4c-6.6,6.6-13.1,17-13.1,26.1s5.3,17.2,13.3,20c8.6,3,14.9,0.5,19.5-2.1c5.2-2.9,9.9-10,8.5-17.3C61.8,41,60.9,39,60,37
			c-0.4-1-0.9-2-1.3-3c-0.9-2.3-1.7-5.5-0.9-8.5c-2.9,2.1-4,3.7-4.7,6.8c0,0.2-0.2,0.3-0.3,0.4c-0.2,0.1-0.3,0-0.5-0.1
			c-1.5-1.1-1.1-3.9-0.7-6.9c0.1-1,0.3-1.9,0.3-2.7c0.2-3.4-0.3-8.3-2.2-11.9c-0.8,3.3-2.9,8.4-4.7,10.4c-0.1,0.2-0.4,0.2-0.6,0.1
			c-0.2-0.1-0.3-0.3-0.3-0.5C44.1,16,43,6,40.2,1.9c0.7,5.9,0.7,19.7-6.3,25.2c-0.2,0.1-0.6,1.6-0.8,1.5s0-1.8,0-2
			C33.7,22.7,33.8,20.7,34,16.4z"/>
	</g>
	<g>
		<path class="st2" d="M33.5,62.3c-1.8-2.5-3.1-5.4-3.5-8.5s0.1-6.3,1.8-8.9c1.5-2.4,3.9-4.1,5.8-6.2c2.4-2.6,4.1-5.9,4.9-9.4
			c0.6,2.3,0.3,4.7,0.2,7.1s0.1,4.9,1.6,6.8c0.2-2,1.4-3.9,3.1-5c-0.7,2.4,0.7,4.9,2.3,6.9s2.9,5.7,2.9,8.2c0,6.2-4.5,8.5-7.3,10.1
			c-1.6,0.9-2.9,0.1-4.7,0.4C38.8,64.2,36.7,63.6,33.5,62.3z"/>
		<path class="st3" d="M39.7,64.5c-1.6,0-3.5-0.5-6.4-1.7c-0.1,0-0.2-0.1-0.2-0.2c-2-2.8-3.2-5.8-3.6-8.7c-0.5-3.4,0.2-6.7,1.9-9.3
			c1-1.6,2.4-2.9,3.7-4.2c0.7-0.7,1.4-1.4,2.1-2.1c2.4-2.6,4-5.7,4.8-9.1c0.1-0.2,0.2-0.4,0.5-0.4c0.2,0,0.4,0.1,0.5,0.4
			c0.5,1.9,0.4,4,0.3,5.9c0,0.5-0.1,0.9-0.1,1.4c-0.1,1.6,0,3.7,0.9,5.5c0.5-1.7,1.6-3.2,3.1-4.1c0.2-0.1,0.4-0.1,0.6,0
			C48,38,48,38.2,48,38.4c-0.5,1.8,0.2,4,2.2,6.4c1.7,2.1,3,5.9,3,8.5c0,6.3-4.4,8.8-7.4,10.4L45.5,64c-1.1,0.6-2.1,0.5-3.1,0.5
			c-0.6,0-1.1-0.1-1.8,0C40.3,64.4,40,64.5,39.7,64.5z M41.4,63.3c0.4,0,0.8,0,1.1,0.1c0.9,0.1,1.6,0.1,2.5-0.3l0.2-0.1
			c2.9-1.6,6.9-3.8,6.9-9.6c0-2.4-1.3-6-2.8-7.9c-1.8-2.2-2.7-4.2-2.6-6c-1.1,1-1.7,2.4-1.9,3.8c0,0.2-0.2,0.4-0.4,0.4
			c-0.2,0.1-0.4,0-0.5-0.2c-1.7-2.1-1.8-5.1-1.7-7.1c0-0.5,0-0.9,0.1-1.4c0.1-1.1,0.1-2.3,0.1-3.4c-1,2.7-2.5,5.3-4.4,7.4
			c-0.7,0.7-1.4,1.5-2.1,2.1c-1.3,1.3-2.6,2.5-3.6,4c-1.5,2.4-2.2,5.5-1.7,8.6c0.4,2.7,1.5,5.5,3.4,8.2c3.2,1.3,5.1,1.7,6.7,1.5
			C40.8,63.4,41.1,63.3,41.4,63.3z"/>
	</g>
	<g>
		<path class="st0" d="M6.3,84.5c-2.1,2.3-4.4,4.7-4.9,7.6c-0.1,0.6-0.1,1.3,0.3,1.8c0.3,0.3,0.7,0.5,1.1,0.6
			c4.5,1.3,8.9-2.1,12.2-5.2c5-4.6,10-9.2,15-13.8c2.2-2,4.5-4.2,5.4-6.9c0.9-2.8-0.1-6.3-2.9-7.4C30.4,60.4,12.2,78.2,6.3,84.5z"/>
		<path class="st1" d="M4.8,95.2c-0.7,0-1.4-0.1-2.1-0.3c-0.4-0.1-1-0.3-1.4-0.7C0.8,93.7,0.7,93,0.9,92c0.6-3.2,3-5.8,5-7.9l0,0
			c3-3.1,9.1-9.2,14.6-14.3c10.5-9.7,11.6-9.3,12.1-9.1c3.2,1.3,4.2,5.1,3.2,8s-3.4,5.2-5.5,7.1l-15,13.8
			C12.4,92.3,8.7,95.2,4.8,95.2z M6.6,84.8c-1.9,2-4.2,4.5-4.8,7.4c-0.1,0.6-0.1,1.1,0.2,1.3c0.2,0.2,0.6,0.4,0.9,0.4
			c4.3,1.2,8.5-2.1,11.7-5.1l15-13.8c2-1.9,4.4-4,5.2-6.7c0.8-2.4,0-5.7-2.6-6.8l0,0C30.2,61.7,14.1,76.9,6.6,84.8L6.6,84.8z"/>
	</g>
	<g>
		<path class="st0" d="M54.1,66.5c-2.3-2.1-4.8-4.2-8-4.9c-0.7-0.1-1.4-0.2-2,0.2c-0.4,0.2-0.6,0.6-0.7,1c-1.7,4.1,1.6,8.2,4.7,11.5
			c4.7,4.8,9.3,9.6,14,14.5c2.1,2.1,4.2,4.3,7.2,5.3s6.9,0.3,8.4-2.3C78.6,89.9,60.5,72.2,54.1,66.5z"/>
		<path class="st1" d="M71.9,94.9c-1,0-2-0.2-2.9-0.4c-3.1-1-5.4-3.4-7.4-5.4l-14-14.5c-3.2-3.3-6.7-7.7-4.8-12
			c0.2-0.4,0.4-0.9,0.9-1.2C44.3,61,45,61,46,61.2c3.5,0.7,6.1,3.1,8.3,5l0,0c3.2,2.9,9.4,8.8,14.6,14.1c10,10.2,9.4,11.1,9.1,11.7
			C76.9,94,74.4,94.9,71.9,94.9z M45.1,62c-0.3,0-0.6,0.1-0.8,0.2c-0.2,0.1-0.4,0.4-0.6,0.8c-1.6,3.8,1.6,7.8,4.6,10.9l14,14.5
			c1.9,2,4.1,4.2,7,5.2c2.7,0.9,6.4,0.3,7.7-2c0.1-2.1-15.4-17.6-23.3-24.7c-2.1-1.8-4.6-4.1-7.8-4.8C45.6,62,45.4,62,45.1,62z
			 M77.1,91.6L77.1,91.6L77.1,91.6z"/>
	</g>
	<g>
		<path class="st0" d="M44.4,69.2c0-2.6-0.6-5.4-2.6-7.6c-0.4-0.4-1-0.9-1.7-0.9c-0.5,0-0.9,0.1-1.4,0.3c-4.6,1.8-5.1,6.4-5.1,10.2
			c0,5.7,0,11.4,0,17.1c0,2.5,0,5.2,1.6,7.4c1.6,2.2,5.7,2,7.6,0C45.8,92.5,44.4,77.8,44.4,69.2z"/>
		<path class="st1" d="M38.8,97.9c-0.1,0-0.2,0-0.4,0c-1.6-0.1-2.9-0.7-3.6-1.8c-1.7-2.4-1.7-5.3-1.7-7.7V71.3c0-4,0.6-8.8,5.4-10.7
			c0.4-0.2,1-0.3,1.6-0.3c0.7,0.1,1.4,0.4,2,1.1c1.9,1.9,2.8,4.5,2.8,7.9c0,2,0.1,4.3,0.2,6.7c0.3,8.6,0.6,17.4-1.9,20.1
			C42.2,97.2,40.5,97.9,38.8,97.9z M39.9,61.2c-0.4,0-0.7,0.1-1,0.2c-4.2,1.7-4.8,5.9-4.8,9.8v17.1c0,2.3,0,4.9,1.6,7.1
			c0.6,0.8,1.6,1.3,2.9,1.4c1.5,0.1,3.1-0.5,4-1.5c2.1-2.4,1.8-11.8,1.6-19.4c-0.1-2.4-0.2-4.7-0.2-6.8c0-3.1-0.8-5.5-2.5-7.2
			c-0.5-0.5-0.9-0.7-1.4-0.8C40,61.2,39.9,61.2,39.9,61.2z"/>
	</g>
	<g>
		<path class="st1" d="M3.5,92.2C3.5,92.2,3.4,92.2,3.5,92.2c-0.1,0-0.2-0.1-0.2-0.2c0.4-1.5,1.2-2.8,2.3-3.8c0.1-0.1,0.2-0.1,0.2,0
			c0.1,0.1,0.1,0.2,0,0.2c-1,1-1.8,2.3-2.2,3.7C3.6,92.2,3.5,92.2,3.5,92.2z"/>
	</g>
	<g>
		<path class="st1" d="M37.1,95.5C37.1,95.5,37,95.5,37.1,95.5c-0.9-1.1-1.3-2.3-1.3-3.6c0-0.1,0.1-0.2,0.2-0.2l0,0
			c0.1,0,0.2,0.1,0.2,0.2c0,1.2,0.4,2.3,1.1,3.3c0.1,0.1,0,0.2,0,0.2C37.2,95.5,37.2,95.5,37.1,95.5z"/>
	</g>
	<g>
		<path class="st1" d="M75.3,91.6C75.2,91.6,75.2,91.6,75.3,91.6c-0.8-1.3-1.7-2.4-2.6-3.5c-0.1-0.1-0.1-0.2,0-0.2
			c0.1-0.1,0.2-0.1,0.2,0c1,1,1.8,2.2,2.6,3.4C75.5,91.4,75.5,91.5,75.3,91.6C75.4,91.6,75.3,91.6,75.3,91.6z"/>
	</g>
	<g>
		<path class="st1" d="M73.8,92.3C73.7,92.3,73.7,92.3,73.8,92.3l-1.4-2c-0.1-0.1,0-0.2,0-0.2c0.1-0.1,0.2,0,0.2,0L74,92
			C74,92.1,74,92.2,73.8,92.3C73.9,92.3,73.9,92.3,73.8,92.3z"/>
	</g>
	<g>
		<path class="st1" d="M49,65.6L49,65.6c-1.2-0.9-2.5-1.5-3.8-1.9c-0.1,0-0.1-0.1-0.1-0.2c0-0.1,0.1-0.1,0.2-0.1
			c1.4,0.4,2.7,1.1,3.8,2c0.1,0.1,0.1,0.2,0,0.2C49.1,65.6,49.1,65.6,49,65.6z"/>
	</g>
	<g>
		<path class="st1" d="M25.1,34.6C25,34.6,25,34.6,25.1,34.6c-0.1,0-0.2-0.1-0.2-0.2c0.7-3,2-5.9,4-8.4c0.1-0.1,0.2-0.1,0.2,0
			c0.1,0.1,0.1,0.2,0,0.2c-1.9,2.4-3.2,5.3-3.9,8.3C25.2,34.6,25.1,34.6,25.1,34.6z"/>
	</g>
	<g>
		<path class="st1" d="M29.7,24.8C29.7,24.8,29.6,24.8,29.7,24.8c-0.2-0.1-0.2-0.2-0.1-0.3l1.4-2.1c0.1-0.1,0.2-0.1,0.2,0
			c0.1,0.1,0.1,0.2,0,0.2l-1.4,2.1C29.8,24.7,29.8,24.8,29.7,24.8z"/>
	</g>
	<g>
		<path class="st1" d="M59.3,48.9L59.3,48.9c-0.1,0-0.2-0.1-0.2-0.2c0.5-2.7,0.4-5.6-0.4-8.3c0-0.1,0-0.2,0.1-0.2s0.2,0,0.2,0.1
			c0.8,2.7,0.9,5.7,0.4,8.5C59.5,48.8,59.4,48.9,59.3,48.9z"/>
	</g>
</g>
</svg>
