<?xml version="1.0" encoding="utf-8"?>
<!-- Generator: Adobe Illustrator 26.2.1, SVG Export Plug-In . SVG Version: 6.00 Build 0)  -->
<svg version="1.1" id="Layer_1" xmlns="http://www.w3.org/2000/svg" xmlns:xlink="http://www.w3.org/1999/xlink" x="0px" y="0px"
	 viewBox="0 0 77.8 66.6" style="enable-background:new 0 0 77.8 66.6;" xml:space="preserve">
<style type="text/css">
	.st0{fill:#010101;}
	.st1{fill:#EFB78E;}
	.st2{opacity:0.1294;}
	.st3{fill:#BA8760;}
</style>
<g>
	<g>
		<path class="st0" d="M17.8,30c-0.1,0-0.1,0-0.2-0.1c-0.2-0.1-0.2-0.3-0.1-0.5c1.1-1.6,1-3.7,1-5.8c0-0.2,0-0.4,0-0.6
			c-0.1-3.6,0.3-7.3,1.2-10.8c0.6-2.3,1.2-4,2.1-5.5c0.8-1.3,1.8-1.9,2.8-1.6c1.1,0.3,1.6,1.6,1.3,3.3c-0.1,0.5-0.1,1-0.2,1.5
			c0,0.3-0.1,0.6-0.1,0.8c0,0.2-0.2,0.3-0.4,0.3c-0.2,0-0.3-0.2-0.3-0.4c0-0.3,0.1-0.6,0.1-0.8c0.1-0.5,0.2-1,0.2-1.5
			c0.1-0.4,0.2-2.3-0.8-2.6c-0.7-0.2-1.5,0.6-2,1.3c-0.8,1.4-1.5,3.1-2,5.3c-0.9,3.5-1.2,7-1.1,10.6c0,0.2,0,0.4,0,0.6
			c0.1,2.1,0.1,4.4-1.1,6.2C18,29.9,17.9,30,17.8,30z"/>
	</g>
	<g>
		<path class="st0" d="M36.8,7.4c-0.1,0-0.1,0-0.2-0.1c-0.2-0.1-0.2-0.3-0.1-0.5C36.8,6.6,37,6.3,37.2,6c0.1-0.2,0.3-0.2,0.5-0.1
			c0.2,0.1,0.2,0.3,0.1,0.5c-0.2,0.3-0.4,0.6-0.7,0.9C37.1,7.4,37,7.4,36.8,7.4z"/>
	</g>
	<g>
		<path class="st0" d="M41.9,6.5c0,0-0.1,0-0.1,0c-0.2-0.1-0.2-0.3-0.2-0.5c0.7-1.4,1.2-2.6,1.6-3.6C43.2,2.2,43.6,1,43,0.7
			c-0.6-0.3-1.3,0.6-1.6,0.9c-0.4,0.5-0.8,1.1-1.3,1.6c-0.1,0.1-0.3,0.2-0.5,0.1c-0.1-0.1-0.2-0.3-0.1-0.5c0.4-0.6,0.8-1.1,1.3-1.6
			c0.8-1,1.7-1.4,2.4-1c0.7,0.4,0.9,1.3,0.5,2.6c-0.4,1.1-0.9,2.3-1.6,3.7C42.1,6.5,42,6.5,41.9,6.5z"/>
	</g>
	<g>
		<path class="st0" d="M46.4,13.1c-0.1,0-0.2,0-0.2-0.1c-0.1-0.1-0.2-0.3,0-0.5c0.6-0.7,1.3-1.5,2.2-1.9c0.2-0.1,0.4,0,0.4,0.2
			c0.1,0.2,0,0.4-0.2,0.4c-0.8,0.3-1.4,1-2,1.7C46.6,13.1,46.5,13.1,46.4,13.1z"/>
	</g>
	<g>
		<path class="st0" d="M33.9,3.2c-0.1,0-0.1,0-0.2-0.1c-0.2-0.1-0.2-0.3-0.1-0.5l1-1.5c0.7-1.1,1.6-1.6,2.3-1.2
			c0.2,0.1,0.2,0.3,0.1,0.5c-0.1,0.2-0.3,0.2-0.5,0.1c-0.5-0.2-1.1,0.4-1.4,1l-1,1.5C34.1,3.2,34,3.2,33.9,3.2z"/>
	</g>
	<g>
		<path class="st0" d="M36.1,6.4c0,0-0.1,0-0.1,0c-0.2-0.1-0.3-0.3-0.2-0.4c0.2-0.7,0.5-1.4,0.7-2.2c0-0.2,0.2-0.3,0.4-0.2
			c0.2,0,0.3,0.2,0.2,0.4c-0.2,0.7-0.4,1.5-0.7,2.2C36.4,6.3,36.3,6.4,36.1,6.4z"/>
	</g>
	<g>
		<path class="st0" d="M27.5,13.3c-0.1,0-0.1,0-0.2-0.1c-0.2-0.1-0.2-0.3-0.1-0.5c0.2-0.3,0.3-0.5,0.4-0.7c0.1-0.2,0.3-0.4,0.4-0.7
			c0.1-0.2,0.3-0.2,0.5-0.1c0.2,0.1,0.2,0.3,0.1,0.5c-0.2,0.3-0.3,0.5-0.4,0.7c-0.1,0.2-0.3,0.4-0.4,0.7
			C27.7,13.2,27.6,13.3,27.5,13.3z"/>
	</g>
	<g>
		<path class="st0" d="M30.7,8.3c-0.1,0-0.1,0-0.2-0.1c-0.2-0.1-0.2-0.3-0.1-0.5c0.2-0.3,0.3-0.5,0.5-0.8c0.2-0.3,0.3-0.5,0.5-0.8
			C31.5,6,31.7,5.9,31.9,6C32,6.1,32.1,6.4,32,6.5c-0.2,0.3-0.3,0.6-0.5,0.8c-0.2,0.2-0.3,0.5-0.5,0.8C30.9,8.2,30.8,8.3,30.7,8.3z"
			/>
	</g>
	<g>
		<path class="st0" d="M45.2,11.9c0,0-0.1,0-0.1,0c-0.2-0.1-0.2-0.3-0.2-0.5c0.9-1.9,1.7-3.8,2.4-5.7c0.2-0.6,0.4-1.4,0-1.7
			c-0.3-0.2-0.7-0.1-0.9,0c-0.4,0.2-0.6,0.6-0.9,0.9C44.8,5.9,44,7,43.3,8c-0.1,0.2-0.3,0.2-0.5,0.1c-0.2-0.1-0.2-0.3-0.1-0.5
			c0.7-1.1,1.5-2.1,2.2-3.1c0.3-0.4,0.6-0.8,1.1-1.1c0.5-0.3,1.2-0.4,1.7,0c0.4,0.3,0.8,1,0.3,2.4c-0.7,2-1.6,3.9-2.5,5.8
			C45.5,11.8,45.4,11.9,45.2,11.9z"/>
	</g>
	<g>
		<path class="st0" d="M31.5,37.4c-0.1,0-0.1,0-0.2,0c-0.2-0.1-0.2-0.3-0.1-0.5c1.3-2.2,3-4.4,5.3-7c0.1-0.1,0.3-0.2,0.5,0
			c0.1,0.1,0.2,0.3,0,0.5c-2.4,2.6-4,4.8-5.3,6.9C31.7,37.3,31.6,37.4,31.5,37.4z"/>
	</g>
	<g>
		<path class="st1" d="M57.3,66.2c-4.4-8.2-9-16.4-13.8-24.5c4.8-3.4,9.9-6.3,15.2-8.6c4.5,8.2,9.4,16.2,14.7,23.8
			c-2.4,2.3-5.8,3.1-8.8,4.5C62,62.7,59.7,64.5,57.3,66.2z"/>
	</g>
	<g class="st2">
		<path class="st0" d="M54.7,17c0.1,0.1,0.2,0.2,0.3,0.2c0-0.4-0.1-0.8-0.1-1.2c-0.1-0.7-0.1-1.4-0.1-2.2c-0.1-0.3-0.1-0.5-0.2-0.8
			C54,11.5,53.5,9.9,53,8.2c-0.3-0.6-0.5-1.1-0.8-1.7c-0.2-0.2-0.3-0.5-0.6-0.6c-0.4-0.2-0.8,0.2-0.8,0.6c-0.1,0.2-0.2,0.4,0,0.6
			c0.6,1.1,0.9,2.1,1.2,3.6c0.4,1.4,0.6,2.7,0.7,3.7c0,0.1,0.3,2.5,0.3,3.8c0.1,1.9,0,3.9-0.1,5.8c-0.2,1.9-0.1,4,0.8,5.7
			c0.1,0.1,0.3,0.4,0.3,0.5c0,0,0-0.1-0.1-0.1c0.1,0.2,0.3,0.4,0.6,0.4c0.1,0,0.2,0,0.2,0c0,0,0,0.1,0,0.1c0.5,1,1.1,1.9,1.8,2.8
			c0.1,0.1,0.2,0.1,0.4,0.1c-0.3,0.2-0.4,0.6-0.2,1c0.9,1.7,2,3.3,3,5c0.8,1.4,1.7,2.8,2.5,4.2c0.6,1,1.3,2,2,2.9
			c0.6,0.9,1.1,1.9,1.7,2.8c0.2,0.3,0.3,0.6,0.5,0.8c0.7,1.2,1.2,2.3,1.8,3.1c0.3,0.5,0.6,0.9,0.9,1.4c0.1,0.3,0.3,0.6,0.5,0.9
			c0.3,0.5,0.6,0.9,0.8,1.2c0.1,0.2,0.2,0.4,0.3,0.6c0.1,0.2,0.2,0.3,0.4,0.5c0.1,0.1,0.3,0.2,0.5,0.2c0.3-0.3,0.7-0.6,1.1-0.8
			c0-0.1,0-0.2,0-0.4c0,0,0-0.1,0-0.1c0-0.2,0,0,0,0.1c0,0,0,0,0,0c0,0,0,0,0-0.1c-0.1-0.4-0.1-0.4-0.5-1.1c-0.2-0.3-0.3-0.6-0.5-1
			c0-0.2-0.1-0.5-0.3-0.7c-0.5-0.7-0.6-0.8-1.1-1.5c-0.5-0.7-0.9-1.4-1.4-2.2c-0.4-0.6-0.7-1.3-1.1-1.9c0-0.1-0.1-0.2-0.1-0.3
			c-0.1-0.1-0.2-0.3-0.2-0.4c-0.3-0.5-0.7-0.9-0.9-1.3c-0.4-0.6-0.8-1.2-1.2-1.8c-0.6-0.9-1.2-1.8-1.8-2.7c0-0.1-0.1-0.1-0.2-0.2
			c-0.2-0.3-0.5-0.6-0.7-1c-0.8-1.4-1.5-2.8-2.3-4.2c-0.5-0.8-1-1.7-1.5-2.5c-0.3-0.3-0.4-0.8-0.9-0.9c-0.1,0-0.3,0-0.4,0
			c0-0.1,0-0.2,0-0.2c-0.1-0.6-0.6-1-0.9-1.5c-0.4-0.5-0.5-1.2-1-1.6c-0.1-0.1-0.2-0.1-0.2-0.1c-0.2-0.8-1-2.2-0.8-4.6
			C54.9,22.4,55,19.7,54.7,17z"/>
	</g>
	<g>
		<path class="st0" d="M42.2,37.4c-0.1,0-0.2-0.1-0.3-0.2c-2.3-3.8-5.4-7.1-8.4-10.3c-4-4.3-8.1-8.7-10.3-14.1
			c-0.4-0.9-0.3-1.6,0.2-2c0.2-0.2,0.6-0.3,1-0.2c1.3,0.1,2.3,1.1,3.1,2.1c0.9,1,1.8,2.1,2.7,3.1c-1.8-3.1-3.3-6.4-4.6-9.8
			c-0.5-1.5-0.2-2.1,0.3-2.4c0.5-0.4,1.2-0.3,1.7,0c0.5,0.3,0.8,0.7,1.1,1.1c2,2.7,4,5.6,6,8.6c-0.6-1.6-1.4-3.1-2.2-4.7
			c-1-1.9-1.9-3.8-2.7-5.9c-0.4-1.2-0.3-2.2,0.5-2.6c0.7-0.4,1.6,0,2.4,1c1.8,2.2,3.5,4.6,5.1,6.9c-0.8-1.9-1.4-3.8-1.7-5.8
			c-0.3-1.4,0.2-2,0.6-2.2c0.7-0.4,1.6,0.1,2.3,1.2l9.3,14.7c0.3-1.9,0-3.9-0.3-5.8c-0.1-0.5-0.2-1-0.2-1.5c-0.2-1.8,0.3-3,1.3-3.3
			c0.9-0.3,2,0.3,2.8,1.6c0.9,1.4,1.5,3.2,2.1,5.5c0.9,3.5,1.3,7.1,1.2,10.8c0,0.2,0,0.4,0,0.6c-0.1,2-0.1,4.1,1,5.8
			c0.1,0.2,0.1,0.4-0.1,0.5c-0.2,0.1-0.4,0.1-0.5-0.1c-1.2-1.8-1.2-4-1.1-6.2c0-0.2,0-0.4,0-0.6c0.1-3.6-0.3-7.1-1.1-10.6
			c-0.5-2.2-1.2-3.9-2-5.3c-0.5-0.8-1.2-1.6-2-1.3c-1.1,0.3-0.9,2.2-0.8,2.6c0.1,0.5,0.1,1,0.2,1.5c0.3,2.3,0.7,4.6,0.2,6.9
			c0,0.1-0.1,0.2-0.3,0.3c-0.1,0-0.3,0-0.3-0.2L38.5,1.6c-0.4-0.6-1-1.2-1.4-1c-0.4,0.2-0.4,1-0.3,1.5c0.6,3.4,1.9,6.5,3.7,9.5
			c0.1,0.2,0.1,0.4-0.1,0.5c-0.2,0.1-0.4,0.1-0.5-0.1c-0.8-1-1.5-2.1-2.3-3.1c-1.7-2.4-3.6-4.9-5.4-7.3c-0.2-0.3-1-1.2-1.6-0.9
			C30,1,30.4,2.2,30.5,2.4c0.7,2,1.7,3.9,2.6,5.8c1.2,2.3,2.4,4.7,3.1,7.2c0,0.2,0,0.3-0.2,0.4c-0.2,0.1-0.3,0-0.4-0.1
			c-2.5-3.8-5-7.4-7.5-10.8c-0.2-0.3-0.5-0.7-0.9-0.9c-0.3-0.2-0.7-0.2-0.9,0c-0.4,0.3-0.2,1.1,0,1.7c1.6,4.4,3.7,8.7,6.3,12.7
			c0.1,0.1,0.1,0.3-0.1,0.5c-0.1,0.1-0.3,0.1-0.5,0c-1.7-1.8-3.4-3.8-5.1-5.7c-0.8-0.9-1.6-1.8-2.7-1.8c-0.2,0-0.4,0-0.5,0.1
			c-0.3,0.3-0.1,1,0,1.2C26,17.8,30,22.2,34,26.4c3,3.3,6.2,6.6,8.5,10.5c0.1,0.2,0,0.4-0.1,0.5C42.3,37.4,42.2,37.4,42.2,37.4z"/>
	</g>
	<g>
		<path class="st0" d="M57.4,66.6c-0.1,0-0.2-0.1-0.3-0.2c-4.5-8.3-9.2-16.5-14-24.5c-0.1-0.1-0.1-0.3,0.1-0.4
			c2.7-2.4,5.8-4,8.7-5.5l0.2-0.1c2.2-1.1,4.3-2.3,6.5-3.4c0.1,0,0.2-0.1,0.3,0c0.1,0,0.2,0.1,0.2,0.2c1.8,4,4.1,7.7,6.4,11.3
			l8.2,12.8c0.1,0.2,0.1,0.4-0.1,0.5c-0.2,0.1-0.4,0.1-0.5-0.1l-8.2-12.8c-2.2-3.5-4.6-7.1-6.3-11c-2,1.1-4.1,2.1-6.2,3.2l-0.2,0.1
			c-2.9,1.5-5.8,3-8.4,5.2c4.8,8,9.5,16.1,13.9,24.3c0.1,0.2,0,0.4-0.1,0.5C57.5,66.6,57.4,66.6,57.4,66.6z"/>
	</g>
	<g>
		<path class="st0" d="M43.8,41.5c-0.1,0-0.2-0.1-0.3-0.2l-1.9-3.5c-0.1-0.2,0-0.4,0.1-0.5c4.7-3,9.6-5.7,14.5-8.1
			c0.2-0.1,0.4,0,0.4,0.1c0.6,1,1.1,2.1,1.6,3.2c0.1,0.2,0,0.4-0.2,0.4c-0.2,0.1-0.4,0-0.4-0.2c-0.4-1-0.9-1.9-1.4-2.8
			c-4.8,2.3-9.5,4.9-13.9,7.7l1.8,3.2c0.1,0.2,0,0.4-0.1,0.5C43.9,41.5,43.9,41.5,43.8,41.5z"/>
	</g>
	<g>
		<path class="st0" d="M16.3,66.6c-0.1,0-0.1,0-0.2,0c-0.2-0.1-0.2-0.3-0.1-0.5c4.4-8.2,9.1-16.4,13.9-24.3
			c-2.6-2.2-5.5-3.7-8.4-5.2l-0.2-0.1c-2.1-1.1-4.1-2.1-6.2-3.2c-1.8,3.9-4.1,7.5-6.3,11L0.6,57c-0.1,0.2-0.3,0.2-0.5,0.1
			C0,57,0,56.8,0.1,56.6l8.1-12.8c2.3-3.6,4.7-7.3,6.4-11.3c0-0.1,0.1-0.2,0.2-0.2c0.1,0,0.2,0,0.3,0c2.1,1.1,4.3,2.3,6.5,3.4
			l0.2,0.1c3,1.5,6,3.1,8.7,5.5c0.1,0.1,0.2,0.3,0.1,0.4c-4.8,8-9.6,16.3-14,24.5C16.5,66.5,16.4,66.6,16.3,66.6z"/>
	</g>
	<g>
		<path class="st0" d="M29.8,41.5c-0.1,0-0.1,0-0.2,0c-0.2-0.1-0.2-0.3-0.1-0.5l1.8-3.2c-4.5-2.8-9.1-5.4-13.9-7.7
			c-0.5,0.9-1,1.9-1.4,2.8c-0.1,0.2-0.3,0.3-0.4,0.2c-0.2-0.1-0.3-0.3-0.2-0.4c0.5-1.1,1-2.2,1.6-3.2c0.1-0.2,0.3-0.2,0.4-0.1
			c5,2.4,9.9,5.1,14.5,8.1c0.2,0.1,0.2,0.3,0.1,0.5l-1.9,3.5C30,41.4,29.9,41.5,29.8,41.5z"/>
	</g>
	<g>
		<path class="st0" d="M57.1,10.7C57,10.7,57,10.7,57.1,10.7c-0.2,0-0.4-0.2-0.3-0.4c0.7-3.7-0.4-7.7-2.9-10.6
			c-0.1-0.1-0.1-0.4,0-0.5c0.1-0.1,0.4-0.1,0.5,0c2.6,3.1,3.7,7.2,3,11.2C57.4,10.6,57.2,10.7,57.1,10.7z"/>
	</g>
	<g>
		<path class="st0" d="M61.6,10.2C61.6,10.2,61.5,10.2,61.6,10.2c-0.2,0-0.4-0.2-0.3-0.4c0.4-2.8,0.2-5.5-0.4-8.2
			c0-0.2,0.1-0.4,0.3-0.4c0.2,0,0.4,0.1,0.4,0.3c0.7,2.8,0.8,5.7,0.4,8.5C61.9,10,61.7,10.2,61.6,10.2z"/>
	</g>
	<g>
		<path class="st0" d="M12.9,25.5c-0.1,0-0.3-0.1-0.3-0.2c-1.1-3.8-0.9-7.8,0.4-11.5c0.1-0.2,0.3-0.3,0.4-0.2
			c0.2,0.1,0.3,0.3,0.2,0.4c-1.3,3.5-1.4,7.5-0.4,11.1C13.3,25.3,13.2,25.5,12.9,25.5C12.9,25.5,12.9,25.5,12.9,25.5z"/>
	</g>
	<g>
		<path class="st3" d="M17.8,30c-0.1,0-0.1,0-0.2-0.1c-0.2-0.1-0.2-0.3-0.1-0.5c1.1-1.6,1-3.7,1-5.8c0-0.2,0-0.4,0-0.6
			c-0.1-3.6,0.3-7.3,1.2-10.8c0.6-2.3,1.2-4,2.1-5.5c0.8-1.3,1.8-1.9,2.8-1.6c1.1,0.3,1.6,1.6,1.3,3.3c-0.1,0.5-0.1,1-0.2,1.5
			c0,0.3-0.1,0.6-0.1,0.8c0,0.2-0.2,0.3-0.4,0.3c-0.2,0-0.3-0.2-0.3-0.4c0-0.3,0.1-0.6,0.1-0.8c0.1-0.5,0.2-1,0.2-1.5
			c0.1-0.4,0.2-2.3-0.8-2.6c-0.7-0.2-1.5,0.6-2,1.3c-0.8,1.4-1.5,3.1-2,5.3c-0.9,3.5-1.2,7-1.1,10.6c0,0.2,0,0.4,0,0.6
			c0.1,2.1,0.1,4.4-1.1,6.2C18,29.9,17.9,30,17.8,30z"/>
	</g>
	<g>
		<path class="st0" d="M36.8,7.4c-0.1,0-0.1,0-0.2-0.1c-0.2-0.1-0.2-0.3-0.1-0.5C36.8,6.6,37,6.3,37.2,6c0.1-0.2,0.3-0.2,0.5-0.1
			c0.2,0.1,0.2,0.3,0.1,0.5c-0.2,0.3-0.4,0.6-0.7,0.9C37.1,7.4,37,7.4,36.8,7.4z"/>
	</g>
	<g>
		<path class="st3" d="M41.9,6.5c0,0-0.1,0-0.1,0c-0.2-0.1-0.2-0.3-0.2-0.5c0.7-1.4,1.2-2.6,1.6-3.6C43.2,2.2,43.6,1,43,0.7
			c-0.6-0.3-1.3,0.6-1.6,0.9c-0.4,0.5-0.8,1.1-1.3,1.6c-0.1,0.1-0.3,0.2-0.5,0.1c-0.1-0.1-0.2-0.3-0.1-0.5c0.4-0.6,0.8-1.1,1.3-1.6
			c0.8-1,1.7-1.4,2.4-1c0.7,0.4,0.9,1.3,0.5,2.6c-0.4,1.1-0.9,2.3-1.6,3.7C42.1,6.5,42,6.5,41.9,6.5z"/>
	</g>
	<g>
		<path class="st3" d="M46.4,13.1c-0.1,0-0.2,0-0.2-0.1c-0.1-0.1-0.2-0.3,0-0.5c0.6-0.7,1.3-1.5,2.2-1.9c0.2-0.1,0.4,0,0.4,0.2
			c0.1,0.2,0,0.4-0.2,0.4c-0.8,0.3-1.4,1-2,1.7C46.6,13.1,46.5,13.1,46.4,13.1z"/>
	</g>
	<g>
		<path class="st3" d="M33.9,3.2c-0.1,0-0.1,0-0.2-0.1c-0.2-0.1-0.2-0.3-0.1-0.5l1-1.5c0.7-1.1,1.6-1.6,2.3-1.2
			c0.2,0.1,0.2,0.3,0.1,0.5c-0.1,0.2-0.3,0.2-0.5,0.1c-0.5-0.2-1.1,0.4-1.4,1l-1,1.5C34.1,3.2,34,3.2,33.9,3.2z"/>
	</g>
	<g>
		<path class="st3" d="M36.1,6.4c0,0-0.1,0-0.1,0c-0.2-0.1-0.3-0.3-0.2-0.4c0.2-0.7,0.5-1.4,0.7-2.2c0-0.2,0.2-0.3,0.4-0.2
			c0.2,0,0.3,0.2,0.2,0.4c-0.2,0.7-0.4,1.5-0.7,2.2C36.4,6.3,36.3,6.4,36.1,6.4z"/>
	</g>
	<g>
		<path class="st0" d="M27.5,13.3c-0.1,0-0.1,0-0.2-0.1c-0.2-0.1-0.2-0.3-0.1-0.5c0.2-0.3,0.3-0.5,0.4-0.7c0.1-0.2,0.3-0.4,0.4-0.7
			c0.1-0.2,0.3-0.2,0.5-0.1c0.2,0.1,0.2,0.3,0.1,0.5c-0.2,0.3-0.3,0.5-0.4,0.7c-0.1,0.2-0.3,0.4-0.4,0.7
			C27.7,13.2,27.6,13.3,27.5,13.3z"/>
	</g>
	<g>
		<path class="st3" d="M30.7,8.3c-0.1,0-0.1,0-0.2-0.1c-0.2-0.1-0.2-0.3-0.1-0.5c0.2-0.3,0.3-0.5,0.5-0.8c0.2-0.3,0.3-0.5,0.5-0.8
			C31.5,6,31.7,5.9,31.9,6C32,6.1,32.1,6.4,32,6.5c-0.2,0.3-0.3,0.6-0.5,0.8c-0.2,0.2-0.3,0.5-0.5,0.8C30.9,8.2,30.8,8.3,30.7,8.3z"
			/>
	</g>
	<g>
		<path class="st3" d="M45.2,11.9c0,0-0.1,0-0.1,0c-0.2-0.1-0.2-0.3-0.2-0.5c0.9-1.9,1.7-3.8,2.4-5.7c0.2-0.6,0.4-1.4,0-1.7
			c-0.3-0.2-0.7-0.1-0.9,0c-0.4,0.2-0.6,0.6-0.9,0.9C44.8,5.9,44,7,43.3,8c-0.1,0.2-0.3,0.2-0.5,0.1c-0.2-0.1-0.2-0.3-0.1-0.5
			c0.7-1.1,1.5-2.1,2.2-3.1c0.3-0.4,0.6-0.8,1.1-1.1c0.5-0.3,1.2-0.4,1.7,0c0.4,0.3,0.8,1,0.3,2.4c-0.7,2-1.6,3.9-2.5,5.8
			C45.5,11.8,45.4,11.9,45.2,11.9z"/>
	</g>
	<g>
		<path class="st3" d="M31.5,37.4c-0.1,0-0.1,0-0.2,0c-0.2-0.1-0.2-0.3-0.1-0.5c1.3-2.2,3-4.4,5.3-7c0.1-0.1,0.3-0.2,0.5,0
			c0.1,0.1,0.2,0.3,0,0.5c-2.4,2.6-4,4.8-5.3,6.9C31.7,37.3,31.6,37.4,31.5,37.4z"/>
	</g>
	<g class="st2">
		<path class="st0" d="M54.7,17c0.1,0.1,0.2,0.2,0.3,0.2c0-0.4-0.1-0.8-0.1-1.2c-0.1-0.7-0.1-1.4-0.1-2.2c-0.1-0.3-0.1-0.5-0.2-0.8
			C54,11.5,53.5,9.9,53,8.2c-0.3-0.6-0.5-1.1-0.8-1.7c-0.2-0.2-0.3-0.5-0.6-0.6c-0.4-0.2-0.8,0.2-0.8,0.6c-0.1,0.2-0.2,0.4,0,0.6
			c0.6,1.1,0.9,2.1,1.2,3.6c0.4,1.4,0.6,2.7,0.7,3.7c0,0.1,0.3,2.5,0.3,3.8c0.1,1.9,0,3.9-0.1,5.8c-0.2,1.9-0.1,4,0.8,5.7
			c0.1,0.1,0.3,0.4,0.3,0.5c0,0,0-0.1-0.1-0.1c0.1,0.2,0.3,0.4,0.6,0.4c0.1,0,0.2,0,0.2,0c0,0,0,0.1,0,0.1c0.5,1,1.1,1.9,1.8,2.8
			c0.1,0.1,0.2,0.1,0.4,0.1c-0.3,0.2-0.4,0.6-0.2,1c0.9,1.7,2,3.3,3,5c0.8,1.4,1.7,2.8,2.5,4.2c0.6,1,1.3,2,2,2.9
			c0.6,0.9,1.1,1.9,1.7,2.8c0.2,0.3,0.3,0.6,0.5,0.8c0.7,1.2,1.2,2.3,1.8,3.1c0.3,0.5,0.6,0.9,0.9,1.4c0.1,0.3,0.3,0.6,0.5,0.9
			c0.3,0.5,0.6,0.9,0.8,1.2c0.1,0.2,0.2,0.4,0.3,0.6c0.1,0.2,0.2,0.3,0.4,0.5c0.1,0.1,0.3,0.2,0.5,0.2c0.3-0.3,0.7-0.6,1.1-0.8
			c0-0.1,0-0.2,0-0.4c0,0,0-0.1,0-0.1c0-0.2,0,0,0,0.1c0,0,0,0,0,0c0,0,0,0,0-0.1c-0.1-0.4-0.1-0.4-0.5-1.1c-0.2-0.3-0.3-0.6-0.5-1
			c0-0.2-0.1-0.5-0.3-0.7c-0.5-0.7-0.6-0.8-1.1-1.5c-0.5-0.7-0.9-1.4-1.4-2.2c-0.4-0.6-0.7-1.3-1.1-1.9c0-0.1-0.1-0.2-0.1-0.3
			c-0.1-0.1-0.2-0.3-0.2-0.4c-0.3-0.5-0.7-0.9-0.9-1.3c-0.4-0.6-0.8-1.2-1.2-1.8c-0.6-0.9-1.2-1.8-1.8-2.7c0-0.1-0.1-0.1-0.2-0.2
			c-0.2-0.3-0.5-0.6-0.7-1c-0.8-1.4-1.5-2.8-2.3-4.2c-0.5-0.8-1-1.7-1.5-2.5c-0.3-0.3-0.4-0.8-0.9-0.9c-0.1,0-0.3,0-0.4,0
			c0-0.1,0-0.2,0-0.2c-0.1-0.6-0.6-1-0.9-1.5c-0.4-0.5-0.5-1.2-1-1.6c-0.1-0.1-0.2-0.1-0.2-0.1c-0.2-0.8-1-2.2-0.8-4.6
			C54.9,22.4,55,19.7,54.7,17z"/>
	</g>
	<g>
		<path class="st3" d="M42.2,37.4c-0.1,0-0.2-0.1-0.3-0.2c-2.3-3.8-5.4-7.1-8.4-10.3c-4-4.3-8.1-8.7-10.3-14.1
			c-0.4-0.9-0.3-1.6,0.2-2c0.2-0.2,0.6-0.3,1-0.2c1.3,0.1,2.3,1.1,3.1,2.1c0.9,1,1.8,2.1,2.7,3.1c-1.8-3.1-3.3-6.4-4.6-9.8
			c-0.5-1.5-0.2-2.1,0.3-2.4c0.5-0.4,1.2-0.3,1.7,0c0.5,0.3,0.8,0.7,1.1,1.1c2,2.7,4,5.6,6,8.6c-0.6-1.6-1.4-3.1-2.2-4.7
			c-1-1.9-1.9-3.8-2.7-5.9c-0.4-1.2-0.3-2.2,0.5-2.6c0.7-0.4,1.6,0,2.4,1c1.8,2.2,3.5,4.6,5.1,6.9c-0.8-1.9-1.4-3.8-1.7-5.8
			c-0.3-1.4,0.2-2,0.6-2.2c0.7-0.4,1.6,0.1,2.3,1.2l9.3,14.7c0.3-1.9,0-3.9-0.3-5.8c-0.1-0.5-0.2-1-0.2-1.5c-0.2-1.8,0.3-3,1.3-3.3
			c0.9-0.3,2,0.3,2.8,1.6c0.9,1.4,1.5,3.2,2.1,5.5c0.9,3.5,1.3,7.1,1.2,10.8c0,0.2,0,0.4,0,0.6c-0.1,2-0.1,4.1,1,5.8
			c0.1,0.2,0.1,0.4-0.1,0.5c-0.2,0.1-0.4,0.1-0.5-0.1c-1.2-1.8-1.2-4-1.1-6.2c0-0.2,0-0.4,0-0.6c0.1-3.6-0.3-7.1-1.1-10.6
			c-0.5-2.2-1.2-3.9-2-5.3c-0.5-0.8-1.2-1.6-2-1.3c-1.1,0.3-0.9,2.2-0.8,2.6c0.1,0.5,0.1,1,0.2,1.5c0.3,2.3,0.7,4.6,0.2,6.9
			c0,0.1-0.1,0.2-0.3,0.3c-0.1,0-0.3,0-0.3-0.2L38.5,1.6c-0.4-0.6-1-1.2-1.4-1c-0.4,0.2-0.4,1-0.3,1.5c0.6,3.4,1.9,6.5,3.7,9.5
			c0.1,0.2,0.1,0.4-0.1,0.5c-0.2,0.1-0.4,0.1-0.5-0.1c-0.8-1-1.5-2.1-2.3-3.1c-1.7-2.4-3.6-4.9-5.4-7.3c-0.2-0.3-1-1.2-1.6-0.9
			C30,1,30.4,2.2,30.5,2.4c0.7,2,1.7,3.9,2.6,5.8c1.2,2.3,2.4,4.7,3.1,7.2c0,0.2,0,0.3-0.2,0.4c-0.2,0.1-0.3,0-0.4-0.1
			c-2.5-3.8-5-7.4-7.5-10.8c-0.2-0.3-0.5-0.7-0.9-0.9c-0.3-0.2-0.7-0.2-0.9,0c-0.4,0.3-0.2,1.1,0,1.7c1.6,4.4,3.7,8.7,6.3,12.7
			c0.1,0.1,0.1,0.3-0.1,0.5c-0.1,0.1-0.3,0.1-0.5,0c-1.7-1.8-3.4-3.8-5.1-5.7c-0.8-0.9-1.6-1.8-2.7-1.8c-0.2,0-0.4,0-0.5,0.1
			c-0.3,0.3-0.1,1,0,1.2C26,17.8,30,22.2,34,26.4c3,3.3,6.2,6.6,8.5,10.5c0.1,0.2,0,0.4-0.1,0.5C42.3,37.4,42.2,37.4,42.2,37.4z"/>
	</g>
	<g>
		<path class="st3" d="M57.4,66.6c-0.1,0-0.2-0.1-0.3-0.2c-4.5-8.3-9.2-16.5-14-24.5c-0.1-0.1-0.1-0.3,0.1-0.4
			c2.7-2.4,5.8-4,8.7-5.5l0.2-0.1c2.2-1.1,4.3-2.3,6.5-3.4c0.1,0,0.2-0.1,0.3,0c0.1,0,0.2,0.1,0.2,0.2c1.8,4,4.1,7.7,6.4,11.3
			l8.2,12.8c0.1,0.2,0.1,0.4-0.1,0.5c-0.2,0.1-0.4,0.1-0.5-0.1l-8.2-12.8c-2.2-3.5-4.6-7.1-6.3-11c-2,1.1-4.1,2.1-6.2,3.2l-0.2,0.1
			c-2.9,1.5-5.8,3-8.4,5.2c4.8,8,9.5,16.1,13.9,24.3c0.1,0.2,0,0.4-0.1,0.5C57.5,66.6,57.4,66.6,57.4,66.6z"/>
	</g>
	<g>
		<path class="st3" d="M43.8,41.5c-0.1,0-0.2-0.1-0.3-0.2l-1.9-3.5c-0.1-0.2,0-0.4,0.1-0.5c4.7-3,9.6-5.7,14.5-8.1
			c0.2-0.1,0.4,0,0.4,0.1c0.6,1,1.1,2.1,1.6,3.2c0.1,0.2,0,0.4-0.2,0.4c-0.2,0.1-0.4,0-0.4-0.2c-0.4-1-0.9-1.9-1.4-2.8
			c-4.8,2.3-9.5,4.9-13.9,7.7l1.8,3.2c0.1,0.2,0,0.4-0.1,0.5C43.9,41.5,43.9,41.5,43.8,41.5z"/>
	</g>
	<g>
		<path class="st3" d="M16.3,66.6c-0.1,0-0.1,0-0.2,0c-0.2-0.1-0.2-0.3-0.1-0.5c4.4-8.2,9.1-16.4,13.9-24.3
			c-2.6-2.2-5.5-3.7-8.4-5.2l-0.2-0.1c-2.1-1.1-4.1-2.1-6.2-3.2c-1.8,3.9-4.1,7.5-6.3,11L0.6,57c-0.1,0.2-0.3,0.2-0.5,0.1
			C0,57,0,56.8,0.1,56.6l8.1-12.8c2.3-3.6,4.7-7.3,6.4-11.3c0-0.1,0.1-0.2,0.2-0.2c0.1,0,0.2,0,0.3,0c2.1,1.1,4.3,2.3,6.5,3.4
			l0.2,0.1c3,1.5,6,3.1,8.7,5.5c0.1,0.1,0.2,0.3,0.1,0.4c-4.8,8-9.6,16.3-14,24.5C16.5,66.5,16.4,66.6,16.3,66.6z"/>
	</g>
	<g>
		<path class="st3" d="M29.8,41.5c-0.1,0-0.1,0-0.2,0c-0.2-0.1-0.2-0.3-0.1-0.5l1.8-3.2c-4.5-2.8-9.1-5.4-13.9-7.7
			c-0.5,0.9-1,1.9-1.4,2.8c-0.1,0.2-0.3,0.3-0.4,0.2c-0.2-0.1-0.3-0.3-0.2-0.4c0.5-1.1,1-2.2,1.6-3.2c0.1-0.2,0.3-0.2,0.4-0.1
			c5,2.4,9.9,5.1,14.5,8.1c0.2,0.1,0.2,0.3,0.1,0.5l-1.9,3.5C30,41.4,29.9,41.5,29.8,41.5z"/>
	</g>
	<g>
		<path class="st3" d="M57.1,10.7C57,10.7,57,10.7,57.1,10.7c-0.2,0-0.4-0.2-0.3-0.4c0.7-3.7-0.4-7.7-2.9-10.6
			c-0.1-0.1-0.1-0.4,0-0.5c0.1-0.1,0.4-0.1,0.5,0c2.6,3.1,3.7,7.2,3,11.2C57.4,10.6,57.2,10.7,57.1,10.7z"/>
	</g>
	<g>
		<path class="st3" d="M61.6,10.2C61.6,10.2,61.5,10.2,61.6,10.2c-0.2,0-0.4-0.2-0.3-0.4c0.4-2.8,0.2-5.5-0.4-8.2
			c0-0.2,0.1-0.4,0.3-0.4c0.2,0,0.4,0.1,0.4,0.3c0.7,2.8,0.8,5.7,0.4,8.5C61.9,10,61.7,10.2,61.6,10.2z"/>
	</g>
	<g>
		<path class="st3" d="M12.9,25.5c-0.1,0-0.3-0.1-0.3-0.2c-1.1-3.8-0.9-7.8,0.4-11.5c0.1-0.2,0.3-0.3,0.4-0.2
			c0.2,0.1,0.3,0.3,0.2,0.4c-1.3,3.5-1.4,7.5-0.4,11.1C13.3,25.3,13.2,25.5,12.9,25.5C12.9,25.5,12.9,25.5,12.9,25.5z"/>
	</g>
</g>
</svg>
