<?xml version="1.0" encoding="utf-8"?>
<!-- Generator: Adobe Illustrator 26.3.1, SVG Export Plug-In . SVG Version: 6.00 Build 0)  -->
<svg version="1.1" id="Layer_1" xmlns="http://www.w3.org/2000/svg" xmlns:xlink="http://www.w3.org/1999/xlink" x="0px" y="0px"
	 viewBox="0 0 63.3 76.1" style="enable-background:new 0 0 63.3 76.1;" xml:space="preserve">
<style type="text/css">
	.st0{fill:#050E13;}
	.st1{fill:#F3F3F4;}
	.st2{fill:#0C1215;}
	.st3{fill:#EFB78E;}
	.st4{opacity:0.1294;}
	.st5{fill:#010101;}
</style>
<g>
	<g>
		<path class="st0" d="M59.2,2.9L59.2,2.9h-19c-0.3,0-0.5-0.2-0.5-0.5s0.2-0.5,0.5-0.5l0,0h19c0.3,0,0.5,0.2,0.5,0.5
			S59.5,2.9,59.2,2.9z"/>
	</g>
	<g>
		<path class="st0" d="M59.2,74.3L59.2,74.3H41c-0.3,0-0.5-0.2-0.5-0.5s0.2-0.5,0.5-0.5l0,0h18.2c0.3,0,0.5,0.2,0.5,0.5
			C59.7,74.1,59.5,74.3,59.2,74.3z"/>
	</g>
	<g>
		<g>
			<polygon class="st1" points="1.5,0.5 0.5,75.6 42.1,75.6 42.6,0.5 			"/>
			<path class="st0" d="M42.1,76.1H0.5c-0.1,0-0.3-0.1-0.3-0.1C0,75.9,0,75.8,0,75.6L1,0.5C1,0.2,1.2,0,1.5,0h41.1
				c0.1,0,0.3,0.1,0.3,0.1C43,0.2,43,0.3,43,0.4l-0.5,75.2C42.6,75.9,42.4,76.1,42.1,76.1z M1,75.2h40.6L42.1,1H2L1,75.2z"/>
		</g>
		<g>
			<rect x="10.4" y="12.5" class="st2" width="7.5" height="9.1"/>
			<path class="st3" d="M17.9,22.1h-7.5c-0.3,0-0.5-0.2-0.5-0.5v-9.1c0-0.3,0.2-0.5,0.5-0.5h7.5c0.3,0,0.5,0.2,0.5,0.5v9.1
				C18.3,21.9,18.1,22.1,17.9,22.1z M10.8,21.1h6.5V13h-6.5C10.8,13,10.8,21.1,10.8,21.1z"/>
		</g>
		<g>
			<rect x="26.3" y="12.5" class="st2" width="7.5" height="9.1"/>
			<path class="st3" d="M33.8,22.1h-7.5c-0.3,0-0.5-0.2-0.5-0.5v-9.1c0-0.3,0.2-0.5,0.5-0.5h7.5c0.3,0,0.5,0.2,0.5,0.5v9.1
				C34.2,21.9,34,22.1,33.8,22.1z M26.7,21.1h6.5V13h-6.5V21.1z"/>
		</g>
		<g>
			<rect x="9.8" y="32.6" class="st2" width="7.5" height="9.1"/>
			<path class="st3" d="M17.3,42.2H9.8c-0.3,0-0.5-0.2-0.5-0.5v-9.1c0-0.3,0.2-0.5,0.5-0.5h7.5c0.3,0,0.5,0.2,0.5,0.5v9.1
				C17.8,42,17.6,42.2,17.3,42.2z M10.3,41.3h6.5v-8.2h-6.5C10.3,33.1,10.3,41.3,10.3,41.3z"/>
		</g>
		<g>
			<rect x="25.7" y="32.6" class="st2" width="7.5" height="9.1"/>
			<path class="st3" d="M33.2,42.2h-7.5c-0.3,0-0.5-0.2-0.5-0.5v-9.1c0-0.3,0.2-0.5,0.5-0.5h7.5c0.3,0,0.5,0.2,0.5,0.5v9.1
				C33.7,42,33.5,42.2,33.2,42.2z M26.2,41.3h6.5v-8.2h-6.5V41.3z"/>
		</g>
		<g>
			<rect x="9.8" y="52.8" class="st2" width="7.5" height="9.1"/>
			<path class="st3" d="M17.3,62.4H9.8c-0.3,0-0.5-0.2-0.5-0.5v-9.1c0-0.3,0.2-0.5,0.5-0.5h7.5c0.3,0,0.5,0.2,0.5,0.5v9.1
				C17.8,62.2,17.6,62.4,17.3,62.4z M10.3,61.4h6.5v-8.2h-6.5C10.3,53.2,10.3,61.4,10.3,61.4z"/>
		</g>
		<g>
			<rect x="25.7" y="52.8" class="st2" width="7.5" height="9.1"/>
			<path class="st3" d="M33.2,62.4h-7.5c-0.3,0-0.5-0.2-0.5-0.5v-9.1c0-0.3,0.2-0.5,0.5-0.5h7.5c0.3,0,0.5,0.2,0.5,0.5v9.1
				C33.7,62.2,33.5,62.4,33.2,62.4z M26.2,61.4h6.5v-8.2h-6.5V61.4z"/>
		</g>
		<g>
			<path class="st0" d="M41.9,71.5L41.9,71.5c-13.6-0.2-27.4-0.3-41-0.3c-0.1,0-0.2-0.1-0.2-0.2s0.1-0.2,0.2-0.2l0,0
				c13.6,0,27.4,0.1,41,0.3c0.1,0,0.2,0.1,0.2,0.2C42.1,71.4,42,71.5,41.9,71.5z"/>
		</g>
		<g class="st4">
			<path class="st5" d="M41,73.8c0,0-0.1,0-0.2,0c-1,0-3.8,0-5.6,0.1c-2.4,0.1-4.7,0.3-7.1,0.3c-4.9,0.1-9.8-0.1-14.7-0.2
				c-4-0.1-7.9,0-11.9,0.2c-1-0.1-1.1,1-0.1,1.1c3.5,0,6.9-0.1,10.4-0.1c3.2,0.1,6.4,0.2,9.6,0.2c4.1,0,8.3-0.1,12.4-0.1
				c2,0,5.3-0.2,6.5-0.1c0.1,0,0.4,0,0.5,0.1c0.2,0,0.4,0,0.6,0C42.6,74.9,42.1,73.7,41,73.8z"/>
		</g>
	</g>
	<g>
		<g>
			<path class="st0" d="M59.2,73.4c-0.3,0-0.5-0.2-0.5-0.5V2.4c0-0.3,0.2-0.5,0.5-0.5s0.5,0.2,0.5,0.5v70.5
				C59.7,73.2,59.5,73.4,59.2,73.4z"/>
		</g>
		<g>
			<path class="st0" d="M62.8,8.9c-0.2,0-0.3-0.1-0.4-0.2l-3.2-5.4l-3.9,5.1c-0.2,0.2-0.5,0.3-0.7,0.1S54.3,8,54.5,7.8l4.4-5.7
				C59,2,59.2,1.9,59.3,1.9c0.2,0,0.3,0.1,0.4,0.2l3.5,6c0.1,0.2,0.1,0.5-0.2,0.7C63,8.9,62.9,8.9,62.8,8.9z"/>
		</g>
		<g>
			<path class="st0" d="M59.3,74.3c-0.2,0-0.3-0.1-0.4-0.2l-4.4-5.7c-0.2-0.2-0.1-0.5,0.1-0.7c0.2-0.2,0.5-0.1,0.7,0.1l3.9,5.1
				l3.2-5.4c0.1-0.2,0.4-0.3,0.7-0.2c0.2,0.1,0.3,0.4,0.2,0.7l-3.5,6C59.6,74.2,59.5,74.3,59.3,74.3L59.3,74.3z"/>
		</g>
	</g>
</g>
</svg>
