<?xml version="1.0" encoding="utf-8"?>
<!-- Generator: Adobe Illustrator 26.2.1, SVG Export Plug-In . SVG Version: 6.00 Build 0)  -->
<svg version="1.1" id="Layer_1" xmlns="http://www.w3.org/2000/svg" xmlns:xlink="http://www.w3.org/1999/xlink" x="0px" y="0px"
	 viewBox="0 0 108.1 108.1" style="enable-background:new 0 0 108.1 108.1;" xml:space="preserve">
<style type="text/css">
	.st0{fill:#F3F3F3;}
	.st1{fill:#0C1215;}
	.st2{fill:#010101;}
	.st3{opacity:0.1294;}
	.st4{fill:#BB8760;}
</style>
<g>
	<g>
		<path class="st0" d="M54.9,82.4c-6.6,0-13.7-2.1-20.5-8.2c-15.5-14.1-10.9-25.9-6.1-33.6c4.3-6.8,15-14.8,24.2-15.9
			c8.4-1,20.4,2.4,27.6,8.4c13.1,11,9.7,30.2-1,40.7l0,0C79,73.9,68.2,82.4,54.9,82.4z"/>
		<path class="st0" d="M95.4,19.2C83.6,6.1,64.8,0,47.4,2.9C30.1,5.7,14.5,17,5.6,32.2c-2.5,4.3-4.6,9-5.4,13.9
			C-0.7,51.8,0,57.6,1.4,63.2C4.6,75.5,10.9,86,20.6,93.6c8.4,6.5,18.7,11.6,29.2,12.7c10.6,1,21.6-1.2,30.3-7.3
			c3.3-2.3,6.2-5.3,7.4-6.8c6.5-7.3,13.1-14.8,16.8-23.8C111,52.2,107.1,32.3,95.4,19.2z M74.9,73.6c-0.6,0.6-21.6,18.2-39.4,0.4
			c-14.4-14.4-9-26.3-5.4-32.6c3.8-6.8,13.5-14.5,21.3-15.5c7.8-1.1,18.8,2.1,24.3,8.2C87.5,47,84,64.5,74.9,73.6z"/>
		<path class="st1" d="M55.3,107c-1.7,0-3.4-0.1-5.1-0.3c-9.7-1-20.3-5.5-29.7-12.8C10.9,86.4,4.3,76,1,63
			c-1.7-6.5-2.1-12.2-1.3-17.4c0.8-4.5,2.6-9.2,5.6-14.2C14.6,15.6,30.4,4.5,47.7,1.7c17.9-2.9,37,3.6,48.7,16.6l0,0
			c12.2,13.6,15.9,33.8,9.1,50.1c-3.9,9.5-11.2,17.5-17,24c-1.4,1.6-4.3,4.6-7.6,6.9C73.8,104.3,64.8,107,55.3,107z M56.3,2.7
			c-2.8,0-5.6,0.2-8.3,0.7C31.2,6.1,15.8,16.9,6.7,32.3c-2.8,4.8-4.5,9.3-5.3,13.6C0.6,50.8,1,56.3,2.6,62.6
			c3.2,12.6,9.6,22.7,18.9,29.9c9.1,7.1,19.4,11.6,28.8,12.5c11,1.1,21.6-1.4,29.7-7.1c3.2-2.2,5.9-5.1,7.3-6.6
			c5.7-6.4,12.8-14.3,16.6-23.5c6.5-15.8,3-35.2-8.8-48.3C85.6,8.8,71.1,2.7,56.3,2.7z M75.3,73.2L75.3,73.2L75.3,73.2z"/>
	</g>
	<g>
		<path class="st2" d="M8,67.3c-0.1,0-0.2-0.1-0.3-0.2c-3.1-5.7-4.1-12.6-2.8-18.9c0-0.2,0.2-0.3,0.3-0.2c0.2,0,0.3,0.2,0.2,0.3
			c-1.2,6.2-0.2,12.9,2.8,18.5C8.3,66.9,8.2,67.1,8,67.3C8.1,67.3,8,67.3,8,67.3z"/>
	</g>
	<g>
		<path class="st2" d="M11.8,65c-0.1,0-0.2,0-0.2-0.1c-1.3-2.1-2-4.5-2-7c0-0.2,0.1-0.3,0.3-0.3s0.3,0.1,0.3,0.3
			c0,2.3,0.6,4.7,1.9,6.7c0.1,0.1,0,0.3-0.1,0.4C11.9,64.9,11.9,65,11.8,65z"/>
	</g>
	<g>
		<path class="st2" d="M16.8,63.7c-0.1,0-0.2-0.1-0.3-0.2c-0.6-1.3-1-2.6-1.3-3.9c0-0.2,0.1-0.3,0.2-0.3c0.2,0,0.3,0.1,0.3,0.2
			c0.3,1.3,0.7,2.6,1.3,3.8C17.1,63.4,17,63.6,16.8,63.7C16.9,63.7,16.9,63.7,16.8,63.7z"/>
	</g>
	<g>
		<path class="st2" d="M54.1,103.6c-3.8,0-7.7-0.5-11.4-1.4c-1.9-0.5-4.1-1.2-5.7-2.7c-0.1-0.1-0.1-0.3,0-0.4s0.3-0.1,0.4,0
			c1.5,1.4,3.6,2.1,5.5,2.6c5,1.3,10.2,1.7,15.3,1.2c0.2,0,0.3,0.1,0.3,0.3c0,0.2-0.1,0.3-0.3,0.3C56.9,103.6,55.5,103.6,54.1,103.6
			z"/>
	</g>
	<g>
		<path class="st2" d="M51.3,98.9L51.3,98.9c-4-0.2-7.9-1-11.7-2.4c-0.1-0.1-0.2-0.2-0.2-0.4c0.1-0.1,0.2-0.2,0.4-0.2
			c3.7,1.4,7.5,2.2,11.5,2.3c0.2,0,0.3,0.1,0.3,0.3C51.6,98.8,51.5,98.9,51.3,98.9z"/>
	</g>
	<g>
		<path class="st2" d="M46.8,94.1C46.7,94.1,46.7,94.1,46.8,94.1l-3.5-1c-0.2,0-0.2-0.2-0.2-0.4c0-0.2,0.2-0.2,0.4-0.2l3.4,1
			c0.2,0,0.2,0.2,0.2,0.4C47,94,46.9,94.1,46.8,94.1z"/>
	</g>
	<g>
		<path class="st2" d="M97.7,72.5c-0.1,0-0.1,0-0.2,0c-0.1-0.1-0.2-0.3-0.1-0.4c2.1-3.5,3.6-7.2,4.4-11.2c0-0.2,0.2-0.3,0.3-0.2
			c0.2,0,0.3,0.2,0.2,0.3c-0.8,4-2.4,7.9-4.5,11.4C97.9,72.5,97.8,72.5,97.7,72.5z"/>
	</g>
	<g>
		<path class="st2" d="M93.7,70.1L93.7,70.1c-0.2-0.1-0.3-0.2-0.2-0.4l2-4.5c0.1-0.1,0.2-0.2,0.4-0.1c0.1,0.1,0.2,0.2,0.1,0.4L94,70
			C93.9,70,93.8,70.1,93.7,70.1z"/>
	</g>
	<g>
		<path class="st2" d="M88.9,69.7L88.9,69.7c-0.2-0.1-0.3-0.2-0.2-0.4l1.7-3.2c0.1-0.1,0.2-0.2,0.4-0.1c0.1,0.1,0.2,0.2,0.1,0.4
			l-1.7,3.2C89.1,69.6,89,69.7,88.9,69.7z"/>
	</g>
	<g class="st3">
		<path class="st2" d="M107.4,54.8c-0.2-0.6-0.8-0.9-1.4-0.9c-1.1,0-1.5,1-1.6,1.9c-0.1,1-0.3,2.1-0.6,3.1c-0.5,1.6-1.2,3.1-1.8,4.7
			c-1.5,4.3-2.3,6.5-4.6,10.6c-4.6,7.5-6.8,11.3-14.2,17.1c-1.4,1.1-7.7,5.8-11.3,7.2c-1.4,0.9-5.8,2-9.1,2.6
			c-4.3,0.7-7.4,1.2-13.2,1c-2.4-0.2-1.3-0.2-4.7-0.7c-1.9-0.3-3.8-0.5-5.7-1c-2-0.5-3.9-1.3-5.8-2c-2.7-1-3.3-1.2-5.9-2.6
			c-1.2-0.6-2.3-1.3-3.4-1.9c-0.4-0.2-0.8-0.3-1.2-0.2c-0.9,0.2-1.3,1.1-1.1,1.9c-0.6,0.6-0.6,1.7,0.3,2.2c2.2,1.3,4.5,2.8,6.9,3.7
			c0.5,0.1,1-0.1,1.3-0.5c2.3,1.1,4.7,2,6.1,2.5c3,0.9,5.4,1.2,7,1.4c0.1,0.2,0.4,0.4,0.7,0.5c3.9,0.9,7.8,1.6,11.8,1.6
			c5.7-0.4,13.4-2.1,17.5-4.2c0.2-0.1,0.3-0.2,0.3-0.4c0.5-0.2,1-0.4,1.4-0.6c0.2,0.6,0.8,1.1,1.5,1.1c1,0,1.6-0.9,2.4-1.4
			c4-3.1,7.1-5.2,11.3-8.8c1.9-1.9,2.3-2.3,3.9-4c2.2-2.4,4.6-5,5.6-8.1c0.1-0.7-0.2-1.3-0.7-1.6c1.1-1.9,2.1-3.8,3.1-5.6
			c1.6-3.1,2.4-6.5,3.5-9.8c0.8-2.4,1.7-4.7,1.9-7.2C107.5,55.8,107.7,55.3,107.4,54.8z"/>
	</g>
</g>
<g>
</g>
<g>
	<g id="LkW7Tg.tif_4_">
		<g>
			<g>
				<path class="st4" d="M44.8,83.4c0-1.7,0-3.4,0-5.1c0-0.8,0.1-1.6,0-2.4c0-0.4-0.1-0.6-0.4-0.8C44,74.9,43.5,75,43.2,75
					c-0.9,0-1.8,0-2.8,0c-1.7,0-3.4,0-5,0c-0.9,0-1.8,0-2.8,0c-0.7,0-1.7,0.2-2.3,0c-0.6-0.2-0.1,0.2-0.3-0.2c-0.1-0.2,0-0.5,0-0.7
					c0-1.1,0-2.2,0-3.2c0-0.3,0-0.6,0-0.9c0-0.2,0-0.3,0-0.5c0.2-0.7-0.1-0.8-0.6-0.1c0.1,0.1,1.6,0,1.9,0c1.2,0,2.4-0.1,3.3-0.8
					c1.9-1.5,1.3-5,1.3-7.1c0-3.6,0-7.1,0-10.7c0-3.5,0-7,0-10.4c0-1.7,0.1-3.5-0.1-5.2c-0.1-1.2-0.5-2.2-1.7-2.7
					c-0.5-0.2-1.1-0.2-1.7-0.3c-0.6,0-1.6,0.2-2.2,0c-0.4-0.2-0.3,0.3-0.3-0.6c0-0.3,0-0.7,0-1.1c0-0.9,0-1.8,0-2.7
					c0-0.4,0-0.9,0-1.3c-0.1,0-0.3,0-0.4,0c0.2,0,0.5,0,0.7,0c0.8,0,1.7,0,2.5,0c1.8,0,3.7,0,5.5,0c1.5,0,3.1,0,4.6,0
					c0.8,0,1.7-0.3,1.8-1.2c0.3-1.3,0-2.9,0-4.2c0-0.7,0.2-1.6,0-2.2c0-0.1,0-0.3,0-0.4c-0.6-0.1-0.6-0.1,0-0.1c0.4,0,0.9,0,1.3,0
					c0.9,0,1.8,0,2.7,0c0.3,0,0.9-0.1,1.2,0.1c0.1,0,0.2,0,0.3,0.1c0,0.3,0,0.7,0,1c0,1.8,0,3.6,0,5.4c0,1,0.1,1.5,1.2,1.6
					c0.7,0,1.4,0,2.1,0c0.5,0,1.1,0.1,1.6-0.1c0.8-0.3,1-0.9,1-1.7c0-1.9,0-3.8,0-5.7c0-0.3,0.1-0.8,0-1.1c0-0.1,0-0.1,0-0.2
					c-0.7,0.4-0.8,0.6-0.2,0.5c0.5,0.3,1.7,0,2.3,0c0.9,0,1.8,0,2.7,0c0.9,0,0.8,0,0.8,0.9c0,2.1-0.2,4.3,0,6.4
					c0.1,1.3,1.1,1.2,2.2,1.4c3.3,0.6,6.6,2.1,8.6,4.8c2.2,2.9,2.8,7,1.4,10.4c-0.7,1.6-1.7,3.1-3.1,4.2c-1.3,1-2.8,1.6-4.3,2.4
					c-0.4,0.2-1.1,1-0.4,1.2c2.2,0.7,4.3,1.3,6.1,2.7c1.6,1.2,2.8,2.9,3.5,4.8c1.3,3.5,0.9,7.7-1.2,10.8c-2.4,3.5-6.3,5.4-10.4,6
					c-1.6,0.2-2.4,0.7-2.4,2.4c0,2.5,0,4.9,0,7.4c0.4-0.4,0.7-0.7,1.1-1.1c-2.4,0-4.7,0-7.1,0c0.2,0.1,0.3,0.2,0.5,0.3
					c-0.1-2.4,0.2-4.9,0-7.4c0-0.6-0.2-0.9-0.8-1c-1-0.2-2.3,0-3.4,0c-1.2,0-1.8,0.6-1.8,1.7c0,2.5,0,4.9,0,7.4
					c0.4-0.4,0.7-0.7,1.1-1.1c-2.4,0-4.7,0-7.1,0c-0.7,0-1.7,1.4-0.6,1.4c2.4,0,4.7,0,7.1,0c0.5,0,1.1-0.5,1.1-1.1
					c0-1.7,0-3.4,0-5.1c0-0.5,0.2-1.9,0-2.3c0.1-0.4,0-0.3-0.3,0.1c-0.4,0.3-0.5,0.4-0.1,0.3c0.3,0.1,0.9,0,1.2,0c0.4,0,0.9,0,1.3,0
					c0.5,0,0.5-0.1,0.6,0.4c0.2,0.6,0,1.6,0,2.2c0,1.7-0.1,3.5,0,5.2c0,0.2,0.3,0.3,0.5,0.3c2.4,0,4.7,0,7.1,0
					c0.5,0,1.1-0.5,1.1-1.1c0-2,0-4,0-6c0-0.4-0.1-1.1,0-1.4c0.1-0.3-0.1,0,0.2-0.3c0.1-0.1,0.4-0.1,0.6-0.1
					c0.8-0.1,1.7-0.3,2.5-0.6c3-0.9,5.8-2.5,7.9-4.9c3.8-4.2,4.9-10.7,1.7-15.7c-2.2-3.4-5.5-4.7-9.2-5.9c-0.1,0.4-0.3,0.8-0.4,1.2
					c2.5-1.4,4.9-2.4,6.8-4.7c1.9-2.3,3-5.3,2.8-8.3c-0.2-3.1-1.7-6-4-8c-1.2-1-2.5-1.8-3.9-2.3c-1.4-0.6-2.8-0.8-4.2-1.1
					c-0.7-0.2-0.7,0-0.8-0.8c0-0.4,0-0.7,0-1.1c0-0.8,0-1.6,0-2.3c0-0.9,0-1.9,0-2.8c0-0.4,0.1-1.1-0.3-1.4c-0.3-0.2-0.7-0.2-1-0.2
					c-0.8,0-1.5,0-2.3,0c-0.9,0-1.8,0-2.7,0c-0.6,0-1.2-0.1-1.7,0.3c-0.8,0.5-0.7,1.3-0.7,2.1c0,0.9,0,1.9,0,2.8c0,0.5,0,0.9,0,1.4
					c0,0.3-0.2,1.8,0,2c0.2-0.2,0.4-0.3,0.7-0.5c-0.1,0-0.2,0-0.3,0c-0.3-0.1-1,0-1.3,0c-0.4,0-0.9,0-1.3,0c-0.6,0-0.6,0.1-0.6-0.6
					c0-1.8,0-3.7,0-5.5c0-1.1,0.1-1.9-1.2-2c-1.7-0.1-3.6,0-5.3,0c-1,0-2,0.2-2.2,1.3c-0.2,0.7,0,1.5,0,2.2c0,0.9,0,1.8,0,2.7
					c0,0.4,0,0.9,0,1.3c0,0.1,0,0.3,0,0.4c-0.2,0.7,0.1,0.8,0.6,0.1c0-0.1-2.3,0-2.6,0c-1.8,0-3.7,0-5.5,0c-1.8,0-3.7-0.2-5.5,0
					c-0.9,0.1-1.7,0.6-1.8,1.5c-0.2,1.5,0,3.1,0,4.6c0,0.5-0.2,1.4,0.1,1.9c0.3,0.4,0.9,0.4,1.4,0.4c1.4,0,3.6-0.3,4.1,1.3
					c0.3,0.7,0.2,1.7,0.2,2.5c0,1.1,0,2.2,0,3.3c0,7.5,0,15,0,22.5c0,1,0,2.1,0,3.1c-0.1,0.9-0.1,1.5-1.1,1.7
					c-1.2,0.2-3-0.4-4.1,0.4C28,69,28.4,70.9,28.4,72c0,0.9,0,1.8,0,2.8c0,0.4-0.1,1.1,0.3,1.4c0.4,0.3,1.4,0.1,1.9,0.1
					c0.9,0,1.8,0,2.8,0c2.1,0,4.3,0,6.4,0c0.9,0,1.8,0,2.8,0c0.1,0,0.8,0.1,0.6,0c0.2,0.2,0,1.2,0,1.4c0,2.2,0,4.3,0,6.5
					C43.2,84.9,44.8,84.1,44.8,83.4z"/>
				<path class="st4" d="M47.3,60.5C47.3,60.5,47.3,60.5,47.3,60.5c-0.1-0.1-0.3-0.2-0.5-0.3c0,1.2,0,2.5,0,3.7c0,1-0.2,2.3,0.3,3.3
					c0.3,0.6,0.8,0.9,1.4,1c1.3,0.2,2.6,0.1,3.9,0.1c3.8,0,8.1-0.1,10.8-3.2c1.9-2.2,2.5-5.5,1.3-8.2c-1.7-3.9-6.3-4.1-10-4.2
					c-1.3,0-2.7,0-4,0c-1,0-2.3-0.3-3.2,0.3c-0.8,0.6-0.6,1.6-0.6,2.5c0,1.5,0,3.1,0,4.6c0,0.7,1.6-0.1,1.6-0.8c0-1,0-2,0-3
					c0-0.5,0-0.9,0-1.4c0-0.1-0.1-1.4-0.1-1.3c-0.3,0.1-0.5,0.3-0.8,0.4c1.1-0.2,2.3,0,3.3,0c1,0,2.1,0,3.1,0
					c2.1,0.1,4.3,0.1,6.2,0.9c2.8,1.3,4,4.6,3.1,7.5c-1.1,3.8-4.9,4.4-8.3,4.4c-1.2,0-2.5,0.1-3.7,0c-1,0-2.3,0.2-2.6-0.9
					c-0.3-0.9-0.1-2-0.1-2.9c0-1.2,0-2.5,0-3.7c0-0.2-0.3-0.3-0.5-0.3c0,0,0,0,0,0C47.2,59.1,46.2,60.5,47.3,60.5z"/>
				<path class="st4" d="M46.8,40.3c0,1.1,0,2.2,0,3.3c0,0.6-0.3,2,0.1,2.6c0.4,0.5,1.2,0.4,1.7,0.4c1.2,0,2.3,0,3.5,0
					c3.4,0,7.6-0.1,10.1-2.7c2-2,2.5-5.5,0.9-7.9c-2.2-3.2-7.1-2.8-10.5-2.8c-1.2,0-2.5,0-3.7,0c-0.7,0-1.4,0.1-1.9,0.7
					c-0.5,0.7-0.3,1.6-0.3,2.4C46.8,37.6,46.8,39,46.8,40.3c0,0.7,1.6-0.1,1.6-0.8c0-1,0-2.1,0-3.1c0-0.6,0-1.2,0-1.8
					c-0.2,0-0.3,0-0.5,0c0.3,0,0.6,0,0.9,0c2.1,0,4.3,0,6.4,0c1.9,0.1,4,0.2,5.6,1.5c1.2,1,1.8,2.6,1.7,4.2
					c-0.3,4.1-4.2,4.7-7.6,4.8c-1,0.1-2,0-3.1,0c-0.5,0-0.9,0-1.4,0c-0.3,0-1.6,0.2-1.9,0c-0.5-0.4-0.2-2-0.2-2.6c0-1,0-2.1,0-3.1
					C48.4,38.8,46.8,39.6,46.8,40.3z"/>
			</g>
		</g>
	</g>
	<path class="st4" d="M32.2,75c-0.6-1.3-1.2-2.8-2.2-3.9c-0.2-0.2-0.7,0.2-0.7,0.4c0.3,1.4,1.2,2.8,1.9,4.1
		C31.5,76,32.3,75.4,32.2,75z"/>
	<path class="st4" d="M34.4,75.1c0-0.1-0.1-0.3-0.1-0.4c0-0.1-0.1-0.1-0.2-0.1c-0.5-0.9-1.1-1.8-1.6-2.6c-0.6-0.9-1.7-2.1-1.8-3.2
		c0-0.3-0.5,0.1-0.6,0.3c-0.2,1.1,0.7,2.1,1.2,3c0.7,1.2,1.4,2.5,2.2,3.7C33.7,75.9,34.4,75.3,34.4,75.1z"/>
	<path class="st4" d="M36.2,75.4c-0.4-1.2-1.1-2.4-1.8-3.5c-0.7-1.2-1.4-2.5-2.2-3.6c-0.1-0.2-0.7,0.2-0.5,0.4
		c0.6,1.2,1.3,2.4,1.9,3.6c0.6,1.2,1.1,2.5,1.8,3.6C35.6,76.2,36.3,75.7,36.2,75.4z"/>
	<path class="st4" d="M38.3,74.9c-0.3-1.2-1-2.4-1.6-3.5c-0.6-1.2-1.2-2.6-2.1-3.6c-0.2-0.2-0.6,0.2-0.5,0.3c0.4,1.2,1,2.3,1.6,3.5
		c0.6,1.3,1,2.6,1.7,3.8C37.6,75.9,38.4,75.3,38.3,74.9z"/>
	<path class="st4" d="M40,74.8c-0.6-1.4-1.5-2.8-2.3-4.1c-0.8-1.3-1.5-2.8-2.4-4c-0.1-0.2-0.6,0.2-0.5,0.3c0.5,1.4,1.3,2.8,2,4.1
		c0.8,1.5,1.4,3,2.3,4.4C39.3,75.9,40.2,75.2,40,74.8z"/>
	<path class="st4" d="M42.5,75.9c-0.2-1-0.9-2-1.4-2.9c-0.6-1.1-1.1-2.1-1.7-3.2c-0.9-1.7-1.7-3.8-3.3-5c-0.2-0.2-0.9,0.4-0.7,0.6
		c0,0,0,0,0,0c0.1,0.1,0.1,0.2,0.2,0.3c0,0,0,0.1,0,0.1c1,1.5,1.9,3.1,2.8,4.8c0.5,0.9,1,1.9,1.4,2.8c0.5,1,1,2.3,1.8,3.1
		C42,76.7,42.6,76.2,42.5,75.9z"/>
	<path class="st4" d="M50.8,81.8c-0.1-0.1-0.1-0.1-0.2-0.2c0.1-0.1,0.1-0.3,0.1-0.4c-0.5-1.1-1.3-2.1-1.9-3
		c-0.7-1.1-1.4-2.1-2.1-3.2c-1.3-2.1-2.7-4.2-3.9-6.3c-2.6-4.2-4.9-8.5-7.5-12.7c-0.2-0.2-0.7,0.2-0.6,0.5c2,4.5,4.6,8.8,7.1,13
		c1.2,2.1,2.5,4.1,3.8,6.1c0.7,1.1,1.4,2.1,2.1,3.2c0.1,0.1,0.1,0.2,0.2,0.3c-0.3-0.5-0.7-0.9-1-1.3c-1.2-1.8-2.4-3.5-3.5-5.3
		c-2.3-3.4-4.3-7-6.5-10.5c-0.1-0.2-0.3-0.5-0.4-0.7c-0.2-0.4-0.3-0.9-0.5-1.3c-0.2-0.4-1,0.1-0.9,0.5c0.1,0.5,0.3,0.9,0.5,1.3
		c0.2,0.3,0.4,0.6,0.6,0.8c1.5,3.6,3.8,7,5.9,10.3c1.1,1.8,2.3,3.5,3.4,5.3c0.6,0.9,1.1,1.8,1.7,2.6c0.6,0.9,1.1,1.9,1.8,2.6
		c0.3,0.3,1.2-0.3,1-0.7c-0.2-0.4-0.4-0.8-0.6-1.2c0.1,0.1,0.2,0.3,0.4,0.4C49.8,82,49.9,82,50,82c0.1,0.1,0.1,0.2,0.2,0.3
		c0.1,0.2,0.2,0.4,0.4,0.5c0.2,0.1,0.7-0.2,0.6-0.5C51.2,82,51,81.9,50.8,81.8z"/>
	<path class="st4" d="M47.9,82.7c-0.8-2.1-2.9-4-4.5-5.4c-0.2-0.2-0.7,0.2-0.5,0.4c0.8,0.8,1.6,1.7,2.3,2.6c0.3,0.4,0.6,0.9,0.8,1.4
		c-0.1-0.1-0.2-0.3-0.3-0.4c-0.5-0.6-0.9-1.2-1.4-1.9c-0.2-0.3-0.8,0.2-0.7,0.5c0.4,0.7,0.8,1.3,1.2,2c0.4,0.6,0.7,1.3,1.3,1.7
		c0.2,0.2,0.8-0.2,0.7-0.5c0.1,0.1,0.1,0.2,0.2,0.2C47.3,83.6,48,83,47.9,82.7z"/>
	<path class="st4" d="M53.6,74.9C53.6,74.9,53.6,74.9,53.6,74.9c-0.1,0-0.1-0.1-0.2-0.1c-0.4-0.4-0.7-1.5-1-1.9
		c-0.5-0.8-1-1.6-1.5-2.3c-0.9-1.3-1.9-3-3.2-4c0.3-0.2,0.5-0.5,0.3-0.7c-2.4-3.1-5-6-7.1-9.3c-2-3.2-3.3-6.7-5.3-9.9
		c-0.1-0.2-0.8,0.2-0.7,0.4c0.6,1.7,1.4,3.4,2.2,5c0.7,1.5,1.3,3,2.1,4.4c-1-1.8-2-3.6-3.2-5.2c-0.2-0.2-0.7,0.2-0.6,0.5
		c1.9,4.3,4.7,8.5,7.1,12.5c1.2,1.9,2.3,3.8,3.5,5.7c-1-1.5-1.9-3-2.9-4.5c-1.2-1.9-2.4-3.8-3.6-5.7c-0.6-0.9-1.1-1.8-1.7-2.7
		c-0.6-1-1.2-2.2-2.1-3c-0.2-0.1-0.6,0.1-0.5,0.3c0.3,1.1,0.9,2,1.5,3c0.5,0.9,1.1,1.9,1.6,2.8c1.2,2,2.4,4,3.6,5.9
		c2.4,3.9,4.9,7.8,7.4,11.7c0,0.1,0,0.1,0,0.2c0.1,0.2,0.2,0.4,0.3,0.6c0.1,0.2,0.2,0.3,0.4,0.5c0,0,0,0,0,0c0,0,0,0,0,0
		c0,0,0,0,0.1,0.1c0.3,0.2,1-0.4,0.8-0.7c0,0,0,0,0-0.1c0.1-0.1,0.1-0.2,0.1-0.2c-0.1-0.3-0.2-0.6-0.4-0.8c0.1-0.1,0.1-0.3,0-0.4
		c-0.1-0.1-0.2-0.3-0.3-0.4c0.4,0.2,1.2-0.5,1-0.9c-1.1-2.1-2.7-4.1-4-6.1c-1.3-2-2.5-4-3.8-6c-1.2-1.9-2.3-3.7-3.5-5.6
		c2,3.1,4.5,6,6.8,8.9c0,0,0.1,0.1,0.1,0.1c0,0,0,0.1,0,0.1c0,0.1,0.1,0.2,0.1,0.3c-0.2,0.1-0.3,0.3-0.2,0.4
		c0.6,1.3,1.5,2.6,2.2,3.8c0.8,1.3,1.5,2.6,2.3,3.7c0.1,0.2,0.4,0.1,0.6-0.1c0.2,0.3,0.3,0.6,0.7,0.7c0.3,0.1,0.6-0.3,0.7-0.5
		c0,0,0-0.1,0-0.1C53.7,75.1,53.8,75,53.6,74.9z"/>
	<path class="st4" d="M55.5,75.3c-1.3-2.6-2.8-5.2-4.2-7.7c-0.1-0.3-0.8,0.2-0.6,0.5c1.3,2.7,2.5,5.4,3.8,8
		C54.7,76.4,55.7,75.7,55.5,75.3z"/>
	<path class="st4" d="M59.1,81.9c-0.4-0.6-0.9-1.1-1.3-1.7c-0.4-0.6-0.8-1.2-1.1-1.8c-0.1-0.2-0.6,0.1-0.6,0.3
		c-0.2-0.1-0.5,0.2-0.5,0.4c0.1,0.4,0.3,0.8,0.4,1.2c0,0,0,0.1,0,0.1c0.6,1.1,1.2,2.4,2,3.3c0.2,0.3,0.9-0.3,0.8-0.6
		c-0.1-0.2-0.2-0.5-0.4-0.7C58.7,82.5,59.2,82.1,59.1,81.9z"/>
	<path class="st4" d="M48.1,62.5c0,0-0.1-0.1-0.1-0.1c-0.1-0.1-0.2-0.1-0.4-0.1c-0.5-0.5-1-1.5-1.3-2c-0.5-0.7-1-1.5-1.5-2.2
		c-1.1-1.5-2.1-3.1-3.1-4.7c-1-1.5-1.9-3-2.8-4.6c-0.9-1.7-1.8-3.5-2.8-5.1c-0.1-0.2-0.7,0.2-0.6,0.4c1.1,3.6,3.3,7,5.3,10.2
		c1,1.7,2.1,3.3,3.2,4.9c0.5,0.8,1.1,1.6,1.6,2.4c0.3,0.5,0.8,1.6,1.4,1.8c0.3,0.1,0.6-0.1,0.8-0.3c0,0,0.1-0.1,0.1-0.1
		C48,62.9,48.2,62.6,48.1,62.5z"/>
	<path class="st4" d="M47.9,57.6c-0.1-0.2-0.3-0.5-0.4-0.7c0,0-0.1-0.1-0.1-0.1c-1.8-2.8-3.9-5.2-5.9-7.8c-2.2-2.9-3.9-6-6-9
		c-0.2-0.2-0.7,0.2-0.6,0.5c1.5,3.3,3.4,6.4,5.6,9.3c2.2,2.9,4.4,5.6,6.3,8.6C47.1,58.9,48.2,58.1,47.9,57.6z"/>
	<path class="st4" d="M48.5,54.3c-0.1-0.1-0.2-0.1-0.4-0.1c-0.5-0.4-1.2-1.4-1.4-1.7c-0.6-0.7-1.2-1.4-1.8-2.1
		c-1.2-1.4-2.3-2.8-3.4-4.2c-1.1-1.4-2-2.9-2.9-4.5c-0.8-1.6-1.6-3.3-2.9-4.6c-0.2-0.2-0.7,0.2-0.6,0.5c1.8,3.4,3.4,6.8,5.7,9.9
		c1.1,1.5,2.3,2.9,3.5,4.4c0.6,0.8,1.3,1.5,1.9,2.3c0.3,0.4,0.7,1.1,1.3,1.2c0.4,0,0.8-0.3,0.9-0.7C48.6,54.5,48.6,54.4,48.5,54.3z"
		/>
	<path class="st4" d="M49.5,53c-2.4-3.2-4.9-6.3-7.2-9.6c-1.9-2.8-3.7-5.7-5.6-8.5c0-0.1,0.1-0.1,0-0.2c0,0,0-0.1,0-0.1
		c0-0.2-0.2-0.2-0.3-0.1c-0.2-0.3-0.4-0.6-0.6-0.8c-0.7-1.1-1.7-2.9-1.9-3.2c-1-1.6-1.9-3.3-3-4.8c-0.1-0.2-0.6,0.2-0.5,0.3
		c0.5,1.2,1.1,2.4,1.7,3.5c-0.8-1.2-1.7-2.4-2.5-3.6c-0.1-0.2-0.7,0.2-0.6,0.4c0.6,1.5,1.4,3.1,2.4,4.5c-0.4-0.5-0.7-1-1.3-1.3
		c-0.2-0.1-0.6,0.2-0.5,0.4c0.1,0.6,0.6,1.2,1,1.7c0.4,0.6,0.8,1.2,1.3,1.7c0.3,0.3,1.1-0.3,0.9-0.7c-0.1-0.2-0.2-0.4-0.3-0.5
		c0,0,0.1,0.1,0.1,0.1c0,0,0,0,0,0c0.2,0.2,0.7,0,0.8-0.3c0,0.1,0.1,0.1,0.1,0.2c0.3,0.5,0.6,1,0.9,1.6c0.3,0.4,0.6,1.2,1,1.5
		c0.1,0.1,0.2,0.1,0.2,0.2c1.6,3.1,3.6,6,5.5,8.8c2.3,3.3,4.6,6.7,7.2,9.6C48.8,54.1,49.8,53.4,49.5,53z"/>
	<path class="st4" d="M52.1,52.2c-1.7-2.6-3.5-5.1-5.3-7.6c0.2-0.1,0.3-0.3,0.3-0.4c-0.1-0.4-0.5-0.8-0.8-1.1
		c-1.2-3.2-2.5-6.3-4.5-9c-1.1-1.4-1.9-2.9-2.7-4.5c-0.7-1.4-1.4-3.1-2.7-4.2c-0.4-0.3-1.4,0.4-1.1,0.8c0,0,0.1,0.1,0.1,0.1
		c-0.2-0.1-0.5,0.1-0.5,0.3c-0.2,0.4,0.1,0.8,0.3,1.2c0.4,1,0.9,1.9,1.4,2.8c0.9,1.6,1.9,3.2,3.1,4.6c-0.2,0.1-0.3,0.3-0.2,0.5
		c1.3,2.1,2.7,4.2,4,6.3c-0.7-1.1-1.4-2.1-2.1-3.2c-1.4-2.1-2.7-4.3-4-6.4c-1.3-2.2-2.5-4.6-4-6.7c-0.2-0.2-0.8,0.2-0.7,0.4
		c0.8,2.3,2.2,4.5,3.5,6.6c1.3,2.3,2.7,4.5,4.1,6.7c2.8,4.4,5.9,8.6,9.1,12.8c0.1,0.1,0.1,0.1,0.2,0.1c0,0,0,0,0,0
		c0.1,0.2,0.3,0.5,0.5,0.6c0.2,0.2,0.7-0.1,0.8-0.4c0.1,0.2,0.2,0.3,0.4,0.5C51.4,53.3,52.4,52.6,52.1,52.2z M40.5,35.5
		c0.2-0.1,0.4-0.4,0.3-0.5c-1-1.4-2.1-2.8-3-4.2c-0.4-0.7-0.8-1.4-1.2-2.2c-0.2-0.4-0.9-1.4-1-1.9c0,0,0-0.1,0-0.1c0,0,0,0,0,0
		c0.9,1.3,1.7,2.5,2.4,3.9c0.8,1.5,1.6,2.9,2.6,4.3c1.6,2.1,2.8,4.4,4,6.7C43.2,39.4,41.9,37.5,40.5,35.5z"/>
	<path class="st4" d="M48.1,40.4c-0.5-1.2-1.3-2.3-2.1-3.4c-0.8-1.2-1.7-2.4-2.5-3.6c-1.7-2.5-3.5-5-5.3-7.4
		c-0.2-0.2-0.8,0.2-0.7,0.5c1.5,2.4,3.1,4.8,4.8,7.2c0.8,1.2,1.6,2.3,2.4,3.5c0.8,1.2,1.8,2.4,2.3,3.8
		C47.2,41.5,48.3,40.8,48.1,40.4z"/>
	<path class="st4" d="M54.6,52.4c-0.7-1.2-1.4-2.4-2.1-3.6c-0.3-0.5-0.6-1.1-0.9-1.6c-0.2-0.4-0.8-1-1-1.5c0,0,0-0.1,0-0.1
		c0,0,0-0.1,0-0.1c0,0,0-0.1-0.1-0.1c0,0,0,0-0.1,0c-0.2-0.1-0.4,0.1-0.5,0.2c-0.5,0.7,0.7,2.2,1.1,2.8c0.8,1.5,1.7,3.1,2.5,4.6
		C53.9,53.5,54.9,52.8,54.6,52.4z"/>
	<path class="st4" d="M58.8,54.2c-0.1-0.2-0.1-0.3-0.2-0.5c0-0.1-0.1-0.1-0.2-0.1c-1.8-2.5-3.4-5.1-4.7-7.9
		c-0.1-0.2-0.7,0.2-0.6,0.4c0.9,2.2,1.9,4.3,3.1,6.4c-0.1,0-0.1,0-0.2,0c-1.2-2.2-2.4-4.3-3.6-6.5c-0.1-0.2-0.7,0.2-0.6,0.4
		c1.1,2.5,2.3,5,3.6,7.4c0.2,0.3,0.8-0.2,0.9-0.3c0.1-0.2,0.2-0.4,0.2-0.6c0.4,0.7,0.8,1.3,1.3,2C58,55.2,58.9,54.5,58.8,54.2z"/>
	<path class="st4" d="M60.9,53.8c-0.1-0.2-0.2-0.3-0.3-0.5c0-0.1-0.1-0.1-0.2-0.1c-1.9-2.2-3.5-4.6-4.9-7.2
		c-0.1-0.2-0.7,0.2-0.6,0.4c1.1,3,2.8,5.7,4.9,8.1C60.2,55,61.2,54.2,60.9,53.8z"/>
	<path class="st4" d="M74.7,66c0.1,0.1,0.2,0.2,0.3,0.3c0.2,0.2,0.9-0.2,0.8-0.5c-0.6-1.5-1.8-2.9-2.7-4.4c-1-1.6-1.9-3.1-2.8-4.7
		c-0.2-0.3-0.8,0.2-0.7,0.5c0.7,1.6,1.6,3.2,2.5,4.7c0.5,0.9,1,1.8,1.6,2.8c-0.6-0.9-1.2-1.7-1.8-2.6c-1.2-2-2.2-4-3.4-5.9
		c-2.4-4.2-5.1-8.2-8.1-12c-0.2-0.2-0.8,0.2-0.7,0.5c2.7,4,5.3,8.1,7.7,12.3c0.4,0.7,0.7,1.3,1.1,2c-0.5-0.7-1-1.4-1.4-2.2
		c-2.7-4-5.3-8.1-8.3-11.8c-0.2-0.3-0.9,0.3-0.7,0.5c2.4,4.1,5.3,8.1,7.9,12.1c2.6,4,5.3,8.1,7.9,12.1c0.3,0.4,1.4-0.4,1.1-0.9
		c-0.1-0.2-0.2-0.4-0.3-0.5c0.5,0.2,1.4-0.6,1.1-1C75.4,66.9,75.1,66.4,74.7,66z"/>
	<path class="st4" d="M77.3,64.5c-4.8-7.2-9.8-14.4-14.7-21.5c-0.2-0.3-0.8,0.2-0.7,0.5c4.7,7.3,9.4,14.7,14.2,21.9
		C76.4,65.9,77.6,65,77.3,64.5z"/>
	<path class="st4" d="M77.3,61c-1-1.8-2.4-3.4-3.5-5c-1.1-1.7-2.2-3.4-3.5-5c-0.2-0.3-0.8,0.2-0.7,0.5c0.9,1.8,2.1,3.5,3.2,5.3
		c1.1,1.7,2.1,3.6,3.5,5C76.7,62.1,77.5,61.4,77.3,61z"/>
	<path class="st4" d="M77.5,58.4c-1.5-2.1-3-4.1-4.2-6.4c-0.1-0.2-0.8,0.2-0.6,0.5c1.1,2.3,2.4,4.6,4,6.6
		C76.9,59.4,77.7,58.8,77.5,58.4z"/>
	<path class="st4" d="M63.9,80.1c-2.4-2.9-4.7-5.9-6.7-9c-0.5-0.7-0.9-1.5-1.4-2.2c-0.2-0.4-0.5-1.1-1-1c-0.2,0-0.6,0.3-0.5,0.6
		c0,0,0,0.1,0,0.1c0.6,2,1.4,4.1,2.2,6c-1.2-2.2-2.3-4.4-3.4-6.6c-0.1-0.2-0.8,0.2-0.7,0.4c2.2,5.3,4.7,10.5,7.9,15.4
		c0.3,0.4,1.4-0.4,1.2-0.9c-0.3-0.5-0.6-0.9-0.9-1.4c0.4,0.5,0.9,1,1.4,1.3c0.2,0.1,0.8-0.3,0.6-0.6c-0.6-1-1.6-1.9-2.3-2.9
		c-0.8-1.1-1.5-2.3-2.1-3.5c-0.7-1.4-1.4-2.8-2-4.2c0.6,1,1.2,2,1.9,2.9c1.5,2.1,3,4.2,4.7,6.2C63.2,81.2,64.2,80.4,63.9,80.1z"/>
	<path class="st4" d="M65.5,74.1c-0.8-1.2-1.8-2.3-2.7-3.5c-0.9-1.2-1.6-2.5-2.6-3.6c-0.2-0.2-0.7,0.2-0.6,0.4
		c0,0.1,0.1,0.2,0.1,0.3c-0.2,0-0.5,0.3-0.5,0.5c0,0,0,0.1,0,0.1c-0.2-0.3-0.4-0.6-0.7-0.8c-0.1-0.1-0.3-0.1-0.5,0.1
		c-0.1-0.3-0.3-0.5-0.4-0.8c-0.2-0.3-0.9,0.2-0.8,0.5c1.2,3.5,3.2,7.1,5.2,10.1c0.3,0.4,1.2-0.4,1-0.8c-0.1-0.3-0.2-0.5-0.3-0.8
		c0-0.1-0.1-0.2-0.3-0.1c-0.3-0.6-0.7-1.1-1-1.7c0.3,0.4,0.6,0.9,0.8,1.3c0.2,0.3,1.1-0.3,0.9-0.7c-0.3-0.4-0.5-0.9-0.8-1.3
		c0.3,0.4,0.7,0.8,1.1,1.1c0.1,0.1,0.2,0,0.3,0c0.2,0.2,0.3,0.4,0.5,0.5C64.9,75.1,65.8,74.5,65.5,74.1z"/>
	<path class="st4" d="M68.3,73.4C68.2,73.4,68.2,73.3,68.3,73.4c-0.1-0.1-0.1-0.1-0.2-0.1c-2.2-2.5-3.6-5.6-5.8-8.1
		c-0.2-0.2-0.7,0.2-0.6,0.5c0.8,1.6,1.9,3.1,2.9,4.7c0.1,0.1,0.2,0.3,0.3,0.4c-0.3-0.3-0.5-0.7-0.8-1c-1-1.3-1.9-2.6-3.1-3.7
		c-0.2-0.2-0.6,0.2-0.5,0.4c0.8,1.4,1.8,2.7,2.7,4c0.9,1.3,1.7,2.8,2.7,4c0.3,0.3,0.9-0.2,0.9-0.6c0.2,0.2,0.4,0.4,0.6,0.5
		c0.3,0.1,0.7-0.2,0.8-0.4c0,0,0,0,0-0.1C68.2,73.7,68.4,73.5,68.3,73.4z"/>
	<path class="st4" d="M70.6,72.9c-1.1-1.6-2.3-3.1-3.4-4.7c-1.1-1.5-2.1-3.3-3.5-4.6c-0.2-0.2-0.7,0.2-0.6,0.4c0.7,1.7,2,3.2,3,4.7
		c1.1,1.6,2.3,3.3,3.4,4.9C69.8,74.1,70.9,73.3,70.6,72.9z"/>
	<path class="st4" d="M71.8,71.7c-0.3-0.9-1-1.6-1.5-2.4c-0.6-0.9-1.2-1.8-1.8-2.6c-1.2-1.8-2.4-3.5-3.8-5.2
		c-0.2-0.3-0.8,0.2-0.7,0.5c1,1.8,2.2,3.5,3.3,5.2c0.5,0.8,1.1,1.7,1.6,2.5c0.6,0.9,1.1,1.9,1.9,2.6C71.2,72.5,71.9,72,71.8,71.7z"
		/>
	<path class="st4" d="M72.8,70.1C72.8,70.1,72.7,70,72.8,70.1C72.7,70,72.7,70,72.7,70c0.3-0.1,0.7-0.5,0.6-0.8
		c-1.2-2.6-3-5-4.6-7.3c-1.6-2.4-3.2-4.7-4.9-7c0-0.1-0.1-0.1-0.1-0.2c-0.1-0.2-0.2-0.2-0.4-0.1c-1-1.4-2.1-2.9-3.1-4.4
		c-1.1-1.6-2.1-3.3-3.3-4.8c-0.2-0.2-0.7,0.2-0.6,0.5c1.6,3.5,4,6.8,6.3,9.8c0.2,0.2,0.5,0.1,0.7-0.1c0.6,0.9,1.2,1.8,1.8,2.7
		c-0.1-0.2-0.2-0.3-0.4-0.5c-0.2-0.2-0.8,0.2-0.6,0.5c2.5,4.5,5.1,9.1,8,13.4c0.3,0.4,1.3-0.4,1.1-0.8C73,70.5,72.9,70.3,72.8,70.1z
		"/>
	<path class="st4" d="M47.8,36.6c-2.3-3.6-4.7-7.2-7.2-10.7c-0.2-0.3-0.8,0.2-0.7,0.5c2,3.7,4.4,7.5,6.9,10.9
		C47.1,37.7,48.1,37,47.8,36.6z"/>
	<path class="st4" d="M48.3,34.1c-0.9-1.4-1.7-2.8-2.6-4.2c-0.8-1.4-1.6-2.9-2.6-4.1c-0.2-0.2-0.8,0.2-0.7,0.5
		c0.5,1.5,1.4,2.9,2.2,4.2c0.9,1.5,1.8,2.9,2.7,4.4C47.5,35.2,48.5,34.5,48.3,34.1z"/>
	<path class="st4" d="M49.8,34C49,32.4,47.9,31,47,29.6c-0.9-1.5-1.6-3-2.6-4.5c-0.1-0.2-0.5,0.1-0.5,0.3c0.5,1.6,1.3,3.1,2.1,4.6
		c0.8,1.5,1.7,3.3,2.9,4.6C49.2,34.9,50,34.3,49.8,34z"/>
	<path class="st4" d="M51.2,33.3c-0.8-1.9-2.1-3.7-3.1-5.5c-1.1-1.9-2.3-3.9-3.4-5.8c-0.1-0.2-0.7,0.2-0.6,0.5c1,1.9,2,3.9,3.1,5.8
		c1,1.9,1.9,4,3.2,5.7C50.5,34.3,51.3,33.7,51.2,33.3z"/>
	<path class="st4" d="M52.8,33.1c-0.2-1.2-1-2.3-1.5-3.3c-0.6-1.2-1.2-2.4-1.9-3.5c-1.3-2.3-2.7-4.6-4.2-6.8
		c-0.2-0.2-0.7,0.2-0.6,0.4c1.2,2.3,2.5,4.6,3.7,6.9c0.6,1.1,1.2,2.3,1.7,3.4c0.6,1.1,1,2.6,1.8,3.6C52.2,34,52.9,33.4,52.8,33.1z"
		/>
	<path class="st4" d="M55,33.9c-2.6-5.7-5.5-11.3-8.7-16.7c-0.2-0.3-1,0.3-0.8,0.6c2.8,5.6,5.6,11.2,8.3,16.9
		C54.1,35.1,55.2,34.3,55,33.9z"/>
	<path class="st4" d="M51.2,22.3c-0.3-0.8-0.8-1.6-1.3-2.4c-0.5-0.8-0.8-1.8-1.4-2.6c-0.2-0.2-0.6,0.2-0.5,0.3
		c0.1,0.9,0.6,1.7,1,2.5c0.4,0.9,0.8,1.9,1.5,2.6C50.6,23.1,51.3,22.6,51.2,22.3z"/>
	<path class="st4" d="M56.3,32.8c0-0.2-0.1-0.2-0.3-0.1c-0.5-1-1-2-1.5-2.9c-0.5-1.1-1-2.4-1.8-3.3c-0.2-0.2-0.6,0.2-0.6,0.4
		c0.2,1.2,0.9,2.3,1.4,3.4c0.6,1.2,1.2,2.4,1.8,3.6c0.2,0.4,1-0.3,1-0.6C56.4,33.1,56.4,32.9,56.3,32.8z"/>
	<path class="st4" d="M58.7,33.3c-0.1-0.1-0.1-0.1-0.3-0.1c-1.3-2.5-2.4-5.1-3.7-7.6c-0.1-0.2-0.6,0.2-0.6,0.4
		c0.8,2.9,2.1,5.8,3.5,8.5c0.2,0.4,0.9-0.2,1-0.5C58.8,33.7,58.8,33.7,58.7,33.3z"/>
	<path class="st4" d="M61.4,34.4c-2.1-3-4.1-6.1-5.9-9.3c-0.1-0.2-0.7,0.2-0.6,0.4c1.4,3.4,3.2,6.7,5.5,9.6
		C60.6,35.6,61.6,34.8,61.4,34.4z"/>
	<path class="st4" d="M68.4,47.1c-0.1-0.1-0.1-0.3-0.2-0.4c0,0,0-0.1,0-0.1c-1.4-3-2.9-6-4.4-9c-0.1-0.3-0.8,0.2-0.6,0.5
		c1.2,2.6,2.3,5.2,3.5,7.8c-0.1,0.1-0.2,0.2-0.2,0.3c0,0,0,0.1,0,0.1c-0.9-1.7-1.9-3.4-2.7-5.1c-0.1-0.2-0.7,0.2-0.6,0.4
		c0.9,2.2,1.7,4.6,3,6.5c0.2,0.2,0.6-0.1,0.8-0.3c0.1,0.3,0.2,0.6,0.4,0.7c0.2,0.2,0.7-0.2,0.7-0.4c0-0.2,0-0.3-0.1-0.5
		C68.2,47.5,68.4,47.3,68.4,47.1z"/>
	<path class="st4" d="M72.1,45.5c-1.9-4.8-4.1-9.4-6.5-13.9c-2.5-4.6-5.1-9.2-8.3-13.3c0-0.1-0.1-0.1-0.2-0.1
		C57,18.1,56.9,18,56.9,18c-0.2-0.1-0.5,0.2-0.5,0.4c0.1,0.8,0.7,1.6,1,2.3c0.4,0.8,0.8,1.7,1.4,2.4c0.1,0.1,0.2,0.1,0.3,0
		c1.8,3,3.6,5.9,5.2,9c1.1,2,2.1,4,3,6.1c-1.1-2-2.3-4-3.4-6c-2.3-4-4.6-8.1-7.2-12c0,0,0-0.1,0-0.1c0-0.2,0-0.4-0.1-0.5
		c-0.1-0.2-0.1-0.3-0.3-0.4c-0.2-0.1-0.6,0.2-0.6,0.4c0,0.1,0,0.1,0,0.2c-0.1,0.1-0.2,0.2-0.1,0.3c0,0,0.1,0,0.2,0l0,0
		c0,0.1,0.1,0.2,0.2,0.3c2.1,4.3,4.6,8.4,6.9,12.5c0.7,1.2,1.3,2.4,1.9,3.6c-1.4-1.7-2.7-3.5-3.9-5.4c-0.8-1.2-1.5-2.3-2.2-3.5
		c-0.7-1.1-1.3-2.6-2.5-3.3c-0.1-0.1-0.5,0.2-0.4,0.3c0.5,1.2,1.3,2.3,1.9,3.4c0.7,1.3,1.4,2.5,2.2,3.8c1.4,2.2,3,4.4,4.6,6.5
		c1.4,2.9,2.8,5.9,4.3,8.8c0.1,0.2,0.5,0,0.6,0c0.1-0.1,0.3-0.2,0.4-0.3c0.1,0.1,0.2,0.2,0.2,0.4c0.2,0.3,1.1-0.3,0.8-0.6
		c-0.1-0.1-0.1-0.1-0.2-0.2c0.1-0.1,0.1-0.1,0.2-0.2c0,0,0,0,0,0C71.1,46.8,72.3,45.9,72.1,45.5z M69,44.7c-1-2-2.1-4-3.3-5.9
		c0.1-0.1,0.2-0.1,0.2-0.2c1,2,2.1,4,3.1,5.9C69.1,44.6,69,44.7,69,44.7z"/>
	<path class="st4" d="M63.6,25.3c-0.4-1.2-1.2-2.3-1.9-3.3c0.3-0.1,0.6-0.4,0.5-0.6c-0.2-0.6-0.5-1.2-0.8-1.7
		c-0.3-0.6-0.6-1.3-0.9-1.8c-0.2-0.2-0.7,0.2-0.7,0.4c0.1,0.3,0.2,0.7,0.3,1c-0.3-0.5-0.6-1-1-1.4c-0.1-0.2-0.6,0.2-0.6,0.4
		c0.5,1.3,1.2,2.5,1.9,3.7c0.7,1.3,1.3,2.8,2.3,3.9C63,26.1,63.7,25.6,63.6,25.3z"/>
	<path class="st4" d="M74.2,41.9c-0.3-1.2-1-2.4-1.5-3.5c-0.6-1.3-1.2-2.5-1.7-3.8c-1.1-2.4-2.1-5.2-3.6-7.4
		c-0.1-0.2-0.7,0.2-0.6,0.4c0.7,2.5,2,4.9,3.1,7.3l1.6,3.6c0.2,0.4,0.4,0.9,0.6,1.4c-0.8-1.7-1.6-3.3-2.4-5c-1.5-2.9-3-6.1-5-8.7
		c-0.2-0.3-0.8,0.2-0.7,0.5c1.3,2.9,3.1,5.7,4.5,8.5c1.5,3,2.9,6,4.2,9c0.2,0.5,1.3-0.2,1.1-0.6c-0.3-0.7-0.6-1.3-0.9-2
		c0.1,0.3,0.3,0.5,0.5,0.8C73.5,42.9,74.3,42.2,74.2,41.9z"/>
	<path class="st4" d="M75.8,40.2c-0.9-1.9-2-3.8-3-5.7c-0.9-1.9-1.7-3.9-2.7-5.8c-0.1-0.3-0.7,0.2-0.7,0.4c0.6,2,1.5,4,2.4,5.9
		c0.9,2,1.9,4.1,3,6C75,41.4,76,40.7,75.8,40.2z"/>
	<path class="st4" d="M76.1,37.9c-1.5-2.5-3-5-4.1-7.8c-0.1-0.3-0.8,0.1-0.7,0.4c0.9,2.8,2.1,5.6,3.9,8
		C75.4,38.9,76.3,38.2,76.1,37.9z"/>
</g>
</svg>
