<svg id="Layer_1" data-name="Layer 1" xmlns="http://www.w3.org/2000/svg" viewBox="0 0 146.75 75.97"><defs><style>.cls-1{fill:#BB8760;}</style></defs><path class="cls-1" d="M146.54,51.31c.3-12.8.48-26.12-.86-38.87C144.57,1.84,135.36,1.4,126.44.8c-12.63-.84-25.32.09-38-.7A219,219,0,0,0,47,2.58c-10.06,1.67-8.77,11.16-9.31,19.88a313.45,313.45,0,0,0,.14,41.46c.2,2.7,0,5.79,2.17,7.73,3.46,3.14,10.6,2.49,14.86,2.9a349.61,349.61,0,0,0,43.66,1.24c7-.2,14.09-.55,21.12-1,6.32-.41,13.48-.08,19.64-1.61C148.29,70.94,146.36,58.73,146.54,51.31Zm-5.13,8.17a12.65,12.65,0,0,1-1,4.6A217.57,217.57,0,0,0,112.71,37.5C122,29,130.87,20.07,139.9,11.33c1.53,3.31,1.29,7.56,1.45,11.72C141.83,35.18,142.11,47.36,141.41,59.48ZM67.25,5.3C74.33,4.86,81.4,4.8,88.48,5c9.91.62,19.84.18,29.76.38,4.79.1,12.14-.58,16.68,1.31a11.57,11.57,0,0,1,1.79,1L115.56,28C107.78,35.48,98.64,46.92,87,41.3,71.76,33.92,55.67,22.4,45.48,8.52,50.06,4.89,61.38,5.66,67.25,5.3ZM42.37,64.23c-.13-2.21,0-5.09,0-6.07Q42.07,53,42,47.82q-.18-9.72.21-19.45c.16-3.68-.26-10.39.82-15.15a97.6,97.6,0,0,0,19.6,18.36c3.91,2.83,8,5.44,12.1,7.94A213.86,213.86,0,0,0,42.37,64.23Zm80.28,5.46c-6.53.45-13.06.82-19.59,1.06a383.11,383.11,0,0,1-39.23-.36c-3.24-.21-13.89.15-18.81-2a208.08,208.08,0,0,1,34.31-26c3,2,6.12,4.21,9.3,5.3,7.32,2.52,14.76-2.14,20.45-6.93A209.4,209.4,0,0,1,137,67.46,23.36,23.36,0,0,1,131.62,69,72.72,72.72,0,0,1,122.65,69.69Z"/><path class="cls-1" d="M7.16,20.69A190.44,190.44,0,0,1,28,21.05c2.32.16,2.31-3.5,0-3.67A188,188,0,0,0,7.16,17C4.85,17.12,4.84,20.78,7.16,20.69Z"/><path class="cls-1" d="M22.22,39.75c2.32,0,2.32-3.61,0-3.66Q12,35.86,1.74,36.1c-2.32,0-2.32,3.71,0,3.66Q12,39.53,22.22,39.75Z"/><path class="cls-1" d="M28.19,53.61c-6.64.2-13.28.28-19.93.19-2.32,0-2.32,3.64,0,3.67,6.65.08,13.29,0,19.93-.19C30.51,57.21,30.52,53.55,28.19,53.61Z"/></svg>