<?xml version="1.0" encoding="utf-8"?>
<!-- Generator: Adobe Illustrator 26.2.1, SVG Export Plug-In . SVG Version: 6.00 Build 0)  -->
<svg version="1.1" id="Layer_1" xmlns="http://www.w3.org/2000/svg" xmlns:xlink="http://www.w3.org/1999/xlink" x="0px" y="0px"
	 viewBox="0 0 200 200" style="enable-background:new 0 0 200 200;" xml:space="preserve">
<style type="text/css">
	.st0{fill:#FFFFFF;}
	.st1{fill:#010101;}
	.st2{fill:#AED3F0;}
</style>
<g>
	<g>
		<path class="st0" d="M94.1,114.4c-8.1-2.9-13.7-11-13.6-20.5c0-9.5,6.9-20.5,14.2-27.3c-0.2,5.1-0.3,7.2-1,11.8
			c7.3-5.7,7-21.5,5.9-26.4c3.9,3.1,5.2,15.6,5.2,20.8c2-2.1,4.4-8.4,4.9-11.5c2.4,3.5,3.2,8.9,2.9,13.3c-0.2,3.2-1.5,8,0.2,9.2
			c0.9-3.8,2.3-5.4,6.2-8c-1.5,2.9-0.8,6.6,0.4,9.6c1.2,3.1,2.9,5.9,3.5,9.1c1.4,7.1-2.9,14.5-8.7,17.8
			C108.1,115.5,102,117.2,94.1,114.4z"/>
		<path class="st1" d="M101.8,116.3c-2.4,0-5.1-0.4-7.9-1.4c-8.4-3-14-11.4-14-21c0.1-9.8,7.2-21,14.3-27.7c0.1-0.1,0.4-0.2,0.6-0.1
			c0.2,0.1,0.3,0.3,0.3,0.5l-0.1,1.2c-0.2,3.8-0.3,5.9-0.8,9.3c5.9-6,5.8-20.1,4.7-25c0-0.2,0-0.4,0.2-0.5c0.2-0.1,0.4-0.1,0.6,0
			c3.8,3,5.2,13.9,5.4,19.8c1.7-2.6,3.5-7.4,3.9-10.1c0-0.2,0.2-0.4,0.4-0.4c0.2,0,0.4,0,0.5,0.2c2.6,3.8,3.2,9.5,3,13.6
			c-0.1,0.9-0.2,1.8-0.3,2.8c-0.3,1.9-0.5,4-0.2,5.2c0.9-3.1,2.4-4.8,6.2-7.3c0.2-0.1,0.4-0.1,0.6,0c0.2,0.2,0.2,0.4,0.1,0.6
			c-1.5,2.9-0.6,6.6,0.4,9.2c0.4,1,0.8,2,1.3,2.9c0.9,2,1.8,4.1,2.3,6.3c1.3,6.8-2.5,14.7-9,18.3C111,114.5,106.9,116.3,101.8,116.3
			z M94,67.9c-6.6,6.6-13.1,17-13.1,26.1c0,9.1,5.3,17.2,13.3,20c8.6,3,14.9,0.5,19.5-2.1c5.2-2.9,9.9-10,8.5-17.3
			c-0.4-2.1-1.3-4.1-2.2-6.1c-0.4-1-0.9-2-1.3-3c-0.9-2.3-1.7-5.5-0.9-8.5c-2.9,2.1-4,3.7-4.7,6.8c0,0.2-0.2,0.3-0.3,0.4
			c-0.2,0.1-0.3,0-0.5-0.1c-1.5-1.1-1.1-3.9-0.7-6.9c0.1-1,0.3-1.9,0.3-2.7c0.2-3.4-0.3-8.3-2.2-11.9c-0.8,3.3-2.9,8.4-4.7,10.4
			c-0.1,0.2-0.4,0.2-0.6,0.1c-0.2-0.1-0.3-0.3-0.3-0.5c0-5.1-1.1-15.1-3.9-19.2c0.7,5.9,0.7,19.7-6.3,25.2c-0.2,0.1-0.4,0.1-0.6,0
			c-0.2-0.1-0.3-0.3-0.2-0.5C93.7,74.1,93.8,72.1,94,67.9z"/>
	</g>
	<g>
		<path class="st2" d="M93.5,113.7c-1.8-2.5-3.1-5.4-3.5-8.5c-0.4-3.1,0.1-6.3,1.8-8.9c1.5-2.4,3.9-4.1,5.8-6.2
			c2.4-2.6,4.1-5.9,4.9-9.4c0.6,2.3,0.3,4.7,0.2,7.1c-0.1,2.4,0.1,4.9,1.6,6.8c0.2-2,1.4-3.9,3.1-5c-0.7,2.4,0.7,4.9,2.3,6.9
			c1.6,2,2.9,5.7,2.9,8.2c0,6.2-4.5,8.5-7.3,10.1c-1.6,0.9-2.9,0.1-4.7,0.4C98.8,115.6,96.7,115.1,93.5,113.7z"/>
		<path class="st1" d="M99.7,115.9c-1.6,0-3.5-0.5-6.4-1.7c-0.1,0-0.2-0.1-0.2-0.2c-2-2.8-3.2-5.8-3.6-8.7c-0.5-3.4,0.2-6.7,1.9-9.3
			c1-1.6,2.4-2.9,3.7-4.2c0.7-0.7,1.4-1.4,2.1-2.1c2.4-2.6,4-5.7,4.8-9.1c0.1-0.2,0.2-0.4,0.5-0.4c0.2,0,0.4,0.1,0.5,0.4
			c0.5,1.9,0.4,4,0.3,5.9c0,0.5-0.1,0.9-0.1,1.4c-0.1,1.6,0,3.7,0.9,5.5c0.5-1.7,1.6-3.2,3.1-4.1c0.2-0.1,0.4-0.1,0.6,0
			c0.2,0.1,0.2,0.3,0.2,0.5c-0.5,1.8,0.2,4,2.2,6.4c1.7,2.1,3,5.9,3,8.5c0,6.3-4.4,8.8-7.4,10.4l-0.2,0.1c-1.1,0.6-2.1,0.5-3.1,0.5
			c-0.6,0-1.1-0.1-1.8,0C100.3,115.9,100,115.9,99.7,115.9z M101.4,114.8c0.4,0,0.8,0,1.1,0.1c0.9,0.1,1.6,0.1,2.5-0.3l0.2-0.1
			c2.9-1.6,6.9-3.8,6.9-9.6c0-2.4-1.3-6-2.8-7.9c-1.8-2.2-2.7-4.2-2.6-6c-1.1,1-1.7,2.4-1.9,3.8c0,0.2-0.2,0.4-0.4,0.4
			c-0.2,0.1-0.4,0-0.5-0.2c-1.7-2.1-1.8-5.1-1.7-7.1c0-0.5,0-0.9,0.1-1.4c0.1-1.1,0.1-2.3,0.1-3.4c-1,2.7-2.5,5.3-4.4,7.4
			c-0.7,0.7-1.4,1.5-2.1,2.1c-1.3,1.3-2.6,2.5-3.6,4c-1.5,2.4-2.2,5.5-1.7,8.6c0.4,2.7,1.5,5.5,3.4,8.2c3.2,1.3,5.1,1.7,6.7,1.5
			C100.8,114.8,101.1,114.8,101.4,114.8z"/>
	</g>
	<g>
		<path class="st0" d="M66.3,135.9c-2.1,2.3-4.4,4.7-4.9,7.6c-0.1,0.6-0.1,1.3,0.3,1.8c0.3,0.3,0.7,0.5,1.1,0.6
			c4.5,1.3,8.9-2.1,12.2-5.2c5-4.6,10-9.2,15-13.8c2.2-2,4.5-4.2,5.4-6.9c0.9-2.8-0.1-6.3-2.9-7.4C90.4,111.8,72.2,129.6,66.3,135.9
			z"/>
		<path class="st1" d="M64.8,146.7c-0.7,0-1.4-0.1-2.1-0.3c-0.4-0.1-1-0.3-1.4-0.7c-0.5-0.5-0.6-1.2-0.4-2.2c0.6-3.2,3-5.8,5-7.9
			l0,0c3-3.1,9.1-9.2,14.6-14.3c10.5-9.7,11.6-9.3,12.1-9.1c3.2,1.3,4.2,5.1,3.2,8c-1,2.9-3.4,5.2-5.5,7.1l-15,13.8
			C72.4,143.8,68.7,146.7,64.8,146.7z M66.6,136.2c-1.9,2-4.2,4.5-4.8,7.4c-0.1,0.6-0.1,1.1,0.2,1.3c0.2,0.2,0.6,0.4,0.9,0.4
			c4.3,1.2,8.5-2.1,11.7-5.1l15-13.8c2-1.9,4.4-4,5.2-6.7c0.8-2.4,0-5.7-2.6-6.8c0,0,0,0,0,0C90.2,113.1,74.1,128.4,66.6,136.2
			L66.6,136.2z"/>
	</g>
	<g>
		<path class="st0" d="M114.1,117.9c-2.3-2.1-4.8-4.2-8-4.9c-0.7-0.1-1.4-0.2-2,0.2c-0.4,0.2-0.6,0.6-0.7,1
			c-1.7,4.1,1.6,8.2,4.7,11.5c4.7,4.8,9.3,9.6,14,14.5c2.1,2.1,4.2,4.3,7.2,5.3c3,1,6.9,0.3,8.4-2.3
			C138.6,141.4,120.5,123.7,114.1,117.9z"/>
		<path class="st1" d="M131.9,146.3c-1,0-2-0.2-2.9-0.4c-3.1-1-5.4-3.4-7.4-5.4l-14-14.5c-3.2-3.3-6.7-7.7-4.8-12
			c0.2-0.4,0.4-0.9,0.9-1.2c0.6-0.4,1.3-0.4,2.3-0.2c3.5,0.7,6.1,3.1,8.3,5l0,0c3.2,2.9,9.4,8.8,14.6,14.1
			c9.9,10.2,9.4,11.2,9.1,11.7C136.9,145.4,134.4,146.3,131.9,146.3z M105.1,113.4c-0.3,0-0.6,0.1-0.8,0.2c-0.2,0.1-0.4,0.4-0.6,0.8
			c-1.6,3.8,1.6,7.8,4.6,10.9l14,14.5c1.9,2,4.1,4.2,7,5.2c2.7,0.9,6.4,0.3,7.7-2c-0.1-2.1-15.5-17.5-23.4-24.7
			c-2.1-1.8-4.6-4.1-7.8-4.8C105.6,113.4,105.4,113.4,105.1,113.4z M137.1,143L137.1,143L137.1,143z"/>
	</g>
	<g>
		<path class="st0" d="M104.4,120.6c0-2.6-0.6-5.4-2.6-7.6c-0.4-0.4-1-0.9-1.7-0.9c-0.5,0-0.9,0.1-1.4,0.3
			c-4.6,1.8-5.1,6.4-5.1,10.2c0,5.7,0,11.4,0,17.1c0,2.5,0,5.2,1.6,7.4c1.6,2.2,5.7,2,7.6,0C105.8,143.9,104.4,129.3,104.4,120.6z"
			/>
		<path class="st1" d="M98.8,149.3c-0.1,0-0.2,0-0.4,0c-1.6-0.1-2.9-0.7-3.6-1.8c-1.7-2.4-1.7-5.3-1.7-7.7l0-17.1
			c0-4,0.6-8.8,5.4-10.7c0.4-0.2,1-0.3,1.6-0.3c0.7,0.1,1.4,0.4,2,1.1c1.9,1.9,2.8,4.5,2.8,7.9c0,2,0.1,4.3,0.2,6.7
			c0.3,8.6,0.6,17.4-1.9,20.1C102.2,148.6,100.5,149.3,98.8,149.3z M99.9,112.6c-0.4,0-0.7,0.1-1,0.2c-4.2,1.7-4.8,5.9-4.8,9.8
			l0,17.1c0,2.3,0,4.9,1.6,7.1c0.6,0.8,1.6,1.3,2.9,1.4c1.5,0.1,3.1-0.5,4-1.5c2.1-2.4,1.8-11.8,1.6-19.4c-0.1-2.4-0.2-4.7-0.2-6.8
			c0-3.1-0.8-5.5-2.5-7.2c-0.5-0.5-0.9-0.7-1.4-0.8C100,112.6,99.9,112.6,99.9,112.6z"/>
	</g>
	<g>
		<path class="st1" d="M63.5,143.6C63.5,143.6,63.4,143.6,63.5,143.6c-0.1,0-0.2-0.1-0.2-0.2c0.4-1.5,1.2-2.8,2.3-3.8
			c0.1-0.1,0.2-0.1,0.2,0c0.1,0.1,0.1,0.2,0,0.2c-1,1-1.8,2.3-2.2,3.7C63.6,143.6,63.5,143.6,63.5,143.6z"/>
	</g>
	<g>
		<path class="st1" d="M97.1,146.9c0,0-0.1,0-0.1-0.1c-0.8-1-1.2-2.2-1.2-3.5c0-0.1,0.1-0.2,0.2-0.2c0,0,0,0,0,0
			c0.1,0,0.2,0.1,0.2,0.2c0,1.2,0.4,2.3,1.1,3.3c0.1,0.1,0,0.2,0,0.2C97.2,146.9,97.2,146.9,97.1,146.9z"/>
	</g>
	<g>
		<path class="st1" d="M135.3,143c-0.1,0-0.1,0-0.1-0.1c-0.7-1.2-1.6-2.3-2.5-3.4c-0.1-0.1-0.1-0.2,0-0.2c0.1-0.1,0.2-0.1,0.2,0
			c1,1,1.8,2.2,2.6,3.4C135.5,142.9,135.5,143,135.3,143C135.4,143,135.3,143,135.3,143z"/>
	</g>
	<g>
		<path class="st1" d="M133.8,143.7c-0.1,0-0.1,0-0.1-0.1l-1.3-1.9c-0.1-0.1,0-0.2,0-0.2c0.1-0.1,0.2,0,0.2,0l1.3,1.9
			C134,143.5,134,143.6,133.8,143.7C133.9,143.7,133.9,143.7,133.8,143.7z"/>
	</g>
	<g>
		<path class="st1" d="M109,117.1c0,0-0.1,0-0.1,0c-1.1-0.9-2.4-1.5-3.7-1.9c-0.1,0-0.1-0.1-0.1-0.2c0-0.1,0.1-0.1,0.2-0.1
			c1.4,0.4,2.7,1.1,3.8,2c0.1,0.1,0.1,0.2,0,0.2C109.1,117,109.1,117.1,109,117.1z"/>
	</g>
	<g>
		<path class="st1" d="M85.1,86C85,86,85,86,85.1,86c-0.1,0-0.2-0.1-0.2-0.2c0.7-3,2-5.9,4-8.4c0.1-0.1,0.2-0.1,0.2,0
			c0.1,0.1,0.1,0.2,0,0.2c-1.9,2.4-3.2,5.3-3.9,8.3C85.2,86,85.1,86,85.1,86z"/>
	</g>
	<g>
		<path class="st1" d="M89.7,76.2C89.7,76.2,89.6,76.2,89.7,76.2c-0.2-0.1-0.2-0.2-0.1-0.3l1.4-2.1c0.1-0.1,0.2-0.1,0.2,0
			c0.1,0.1,0.1,0.2,0,0.2l-1.4,2.1C89.8,76.2,89.8,76.2,89.7,76.2z"/>
	</g>
	<g>
		<path class="st1" d="M119.3,100.3C119.3,100.3,119.3,100.3,119.3,100.3c-0.1,0-0.2-0.1-0.2-0.2c0.5-2.7,0.4-5.6-0.4-8.3
			c0-0.1,0-0.2,0.1-0.2c0.1,0,0.2,0,0.2,0.1c0.8,2.7,0.9,5.7,0.4,8.5C119.5,100.2,119.4,100.3,119.3,100.3z"/>
	</g>
</g>
</svg>
