<?xml version="1.0" encoding="utf-8"?>
<!-- Generator: Adobe Illustrator 26.2.1, SVG Export Plug-In . SVG Version: 6.00 Build 0)  -->
<svg version="1.1" id="a" xmlns="http://www.w3.org/2000/svg" xmlns:xlink="http://www.w3.org/1999/xlink" x="0px" y="0px"
	 viewBox="0 0 167.6 114.8" style="enable-background:new 0 0 167.6 114.8;" xml:space="preserve">
<style type="text/css">
	.st0{fill:#FFFFFF;}
	.st1{fill:#BB8760;}
	.st2{fill:#010101;}
	.st3{opacity:0.13;}
</style>
<path class="st0" d="M147,78.4c0.8-3-0.4-6.3-2.5-8.5c-1.6-1.8-3.8-3.1-6.2-3.6s-4.9-0.2-7.1,1c-0.9,0.4-1.6,1-2.4,1.7
	c-1.2,1.2-2.2,2.8-2.7,4.4c-1,3.4-0.2,7.3,2,10s5.8,4.2,9.3,3.8c2.1-0.4,4.3-0.8,6.1-2.2C145.6,83.5,146.7,80.9,147,78.4L147,78.4z"
	/>
<path class="st0" d="M99.2,43.7c0.4-1.7,0.2-3.4-0.2-5.1c-0.6-2.2-1.6-4.4-3.1-6.1s-3.6-3.1-5.8-3.5c-1.6-0.3-3.3-0.2-4.9,0
	c-1.6,0.1-3.2,0.3-4.6,1c-0.6,0.3-1.1,0.7-1.6,1c-1.5,1.1-2.9,2.4-3.9,4c-1.3,2-1.8,4.5-1.6,6.9c0.2,2.4,1,4.7,2.2,6.8
	c0.6,1,1.2,1.9,2,2.6c1.3,1.2,3.1,1.8,4.8,2.3c2.3,0.7,4.9,1.1,7.2,0.5c2.8-0.8,5.1-2.9,7-5.1C98,47.2,99.4,45.2,99.2,43.7
	L99.2,43.7z"/>
<path class="st1" d="M76.9,107.1c0.2-1.7,0.4-3.4-0.2-4.9c-0.7-1.8-2.3-2.9-3.9-3.9c-1.1-0.7-2.2-1.3-3.4-1.7
	c-2.7-0.8-5.8-0.3-8.1,1.4c-2.2,1.7-3.5,4.7-3.1,7.5c0.2,1.1,0.6,2.2,1,3.2c0.6,1.4,1.2,2.9,2.4,3.9c0.8,0.6,1.7,1,2.6,1.2
	c2.7,0.7,5.7,0.2,8.1-1.3C74.7,111,76.4,108.6,76.9,107.1L76.9,107.1z"/>
<path class="st2" d="M96.9,38.2c-0.1,0-0.1,0-0.2-0.1c-3-2.6-6.2-5-9.5-7.2c-0.1-0.1-0.2-0.3-0.1-0.4c0.1-0.1,0.3-0.2,0.4-0.1
	c3.3,2.2,6.5,4.7,9.5,7.3c0.1,0.1,0.1,0.3,0,0.4C97,38.2,96.9,38.2,96.9,38.2L96.9,38.2z"/>
<path class="st2" d="M97.5,43.4c-0.1,0-0.1,0-0.2-0.1c-5-3.7-10-7.7-14.8-11.6c-0.1-0.1-0.1-0.3,0-0.4c0.1-0.1,0.3-0.1,0.4,0
	c4.8,4,9.8,7.8,14.8,11.6c0.1,0.1,0.2,0.3,0.1,0.4C97.7,43.3,97.6,43.4,97.5,43.4z"/>
<path class="st2" d="M96.3,47.2c-0.1,0-0.1,0-0.2,0C90,43.1,84.1,38.7,78.4,34c-0.1-0.1-0.1-0.3,0-0.4c0.1-0.1,0.3-0.1,0.4,0
	c5.6,4.7,11.6,9.1,17.7,13.1c0.1,0.1,0.2,0.3,0.1,0.4C96.5,47.1,96.4,47.2,96.3,47.2L96.3,47.2z"/>
<path class="st2" d="M93.5,50.2c-0.1,0-0.1,0-0.2,0c-6.1-3.7-12-7.9-17.4-12.6c-0.1-0.1-0.1-0.3,0-0.4c0.1-0.1,0.3-0.1,0.4,0
	c5.4,4.6,11.2,8.8,17.3,12.5c0.1,0.1,0.2,0.3,0.1,0.4C93.7,50.1,93.6,50.2,93.5,50.2L93.5,50.2z"/>
<path class="st2" d="M89.1,52c-0.1,0-0.1,0-0.2,0c-4.8-2.9-9.3-6.2-13.5-9.9c-0.1-0.1-0.1-0.3,0-0.4c0.1-0.1,0.3-0.1,0.4,0
	c4.2,3.7,8.7,7,13.4,9.9c0.1,0.1,0.2,0.2,0.1,0.4C89.3,51.9,89.2,52,89.1,52L89.1,52z"/>
<path class="st2" d="M83.1,52.1c-0.1,0-0.1,0-0.2,0c-2.2-1.5-4.4-3.3-6.4-5.1c-0.1-0.1-0.1-0.3,0-0.4c0.1-0.1,0.3-0.1,0.4,0
	c2,1.8,4.2,3.5,6.4,5c0.1,0.1,0.2,0.3,0.1,0.4C83.3,52.1,83.2,52.1,83.1,52.1L83.1,52.1z"/>
<path class="st2" d="M136.4,88.3c-1.2,0-2.4-0.2-3.5-0.5c-5.7-1.9-9.1-8.6-7.5-14.4c0.8-2.9,2.9-5.4,5.8-6.9
	c2.7-1.4,5.7-1.7,8.3-0.9c1.9,0.6,3.7,1.8,5.5,3.6c0.8,0.8,1.7,1.8,2.3,3.2c1.3,2.9,0.5,6.2,0,8.7l0,0c-0.5,2.3-2.1,4.3-4.6,5.7
	C140.8,87.7,138.5,88.3,136.4,88.3L136.4,88.3z M136.4,66.7c-1.5,0-3,0.4-4.5,1.2c-2.4,1.3-4.2,3.4-4.9,5.9
	c-1.4,4.9,1.6,10.8,6.4,12.3c2.6,0.9,5.9,0.5,8.4-1c2-1.1,3.3-2.8,3.7-4.6l0,0c0.6-2.9,1.1-5.4,0.1-7.6c-0.4-0.8-1-1.7-2-2.7
	c-1.6-1.6-3.2-2.6-4.9-3.2C138.1,66.8,137.3,66.7,136.4,66.7L136.4,66.7z"/>
<path class="st0" d="M22,82.3c0.8-3-0.4-6.3-2.5-8.5c-1.6-1.8-3.8-3.1-6.2-3.6s-4.9-0.2-7.1,1c-0.8,0.4-1.7,1-2.3,1.7
	c-1.2,1.2-2.2,2.8-2.7,4.4c-1,3.4-0.2,7.3,2,10s5.8,4.2,9.3,3.8c2.1-0.4,4.3-0.8,6.1-2.2C20.6,87.4,21.7,84.8,22,82.3L22,82.3z"/>
<path class="st2" d="M11.4,92.2c-1.2,0-2.4-0.2-3.5-0.5C2.2,89.8-1.2,83,0.4,77.2c0.8-2.9,2.9-5.4,5.8-6.9c2.7-1.4,5.7-1.7,8.3-0.9
	c1.9,0.6,3.7,1.8,5.5,3.6c0.8,0.8,1.7,1.8,2.3,3.2c1.3,2.9,0.5,6.2,0,8.7l0,0c-0.5,2.3-2.1,4.3-4.5,5.7
	C15.8,91.6,13.6,92.2,11.4,92.2z M11.4,70.6c-1.5,0-3,0.4-4.5,1.2c-2.4,1.3-4.2,3.4-4.9,5.9C0.7,82.6,3.7,88.4,8.4,90
	c2.6,0.9,5.9,0.5,8.5-1c2-1.1,3.3-2.8,3.7-4.6l0,0c0.6-2.9,1.1-5.4,0.1-7.6c-0.4-0.8-1-1.7-2-2.7c-1.6-1.6-3.2-2.6-4.9-3.2
	C13.1,70.8,12.3,70.6,11.4,70.6L11.4,70.6z M21.4,84.6L21.4,84.6z"/>
<path class="st2" d="M86.7,55.2c-4.4,0-8.8-2-11.4-5.4c-1.3-1.7-2.3-3.8-2.7-5.9c-1.1-5.7,1.8-11.8,6.8-14.6
	c5-2.8,11.8-2.1,16.1,1.8c4.3,3.8,5.8,10.4,3.7,15.7l0,0c-1.8,4.6-5.9,7.8-10.7,8.4C87.9,55.2,87.3,55.2,86.7,55.2L86.7,55.2z
	 M86.1,29.2c-2.1,0-4.1,0.5-5.9,1.5c-4.4,2.5-6.9,7.9-6,12.8c0.4,1.9,1.2,3.7,2.4,5.2c2.7,3.4,7.2,5.2,11.7,4.7
	c4.2-0.5,7.7-3.3,9.3-7.3c1.9-4.7,0.5-10.5-3.3-13.8C92.1,30.3,89.1,29.2,86.1,29.2L86.1,29.2z M98.4,46.4L98.4,46.4z"/>
<path class="st2" d="M67,114.8c-1.4,0-2.7-0.3-4-0.9c-4.3-2.1-6.8-7.3-5.8-12c0.3-1.1,0.7-2.1,1.2-2.9c1.2-1.7,3.2-3,5.8-3.6
	c4.4-1,9,0.4,11.6,3.4c3,3.4,2.9,8.9-0.1,11.9l0,0C73.3,113.4,70.1,114.8,67,114.8L67,114.8z M67.1,96.9c-0.8,0-1.6,0.1-2.5,0.3
	c-2.1,0.5-3.8,1.5-4.8,2.9c-0.4,0.6-0.8,1.4-1,2.3c-0.9,3.9,1.2,8.3,4.8,10.1c3.8,1.8,8.2-0.1,10.9-2.8l0,0c2.3-2.4,2.3-6.8,0-9.6
	C72.9,98,70.1,96.9,67.1,96.9L67.1,96.9z M75.3,110.2L75.3,110.2z"/>
<path class="st1" d="M166.3,14.9c0.3-2.1,0.6-4.3-0.1-6.3c-0.8-2.2-2.6-3.7-4.5-4.9c-1.3-0.8-2.6-1.6-4-2.1c-3.2-1-6.8-0.3-9.5,1.9
	s-4.2,6.1-3.8,9.7c0.2,1.4,0.6,2.8,1.1,4.1c0.6,1.8,1.4,3.7,2.8,4.9c0.9,0.8,1.9,1.2,3,1.5c3.2,0.8,6.7,0.1,9.5-1.8
	C163.7,20,165.8,16.8,166.3,14.9L166.3,14.9z"/>
<path class="st2" d="M154.4,24.7c-1.6,0-3.1-0.3-4.4-1c-4.9-2.5-7.8-9.1-6.5-15c0.3-1.4,0.8-2.6,1.5-3.6c1.4-2.2,3.8-3.8,6.8-4.6
	c5.2-1.3,10.4,0.3,13.5,4.2c3.3,4.2,3.2,11.1-0.2,14.9l0,0C161.9,22.8,158,24.7,154.4,24.7L154.4,24.7z M155.3,1.7
	c-1,0-2.1,0.1-3.1,0.4c-2.5,0.7-4.6,2-5.8,3.9c-0.6,0.9-1,1.9-1.2,3.1c-1.2,5.1,1.3,10.9,5.6,13.1c4.5,2.3,9.7-0.3,13-3.8l0,0
	c2.9-3.2,3-9.1,0.2-12.7C161.9,3.2,158.7,1.7,155.3,1.7L155.3,1.7z"/>
<path class="st2" d="M58,102.6c-0.1,0-0.2,0-0.3-0.1C45.2,97.7,32.9,92.2,21.1,86c-0.4-0.2-0.6-0.7-0.4-1.1c0.2-0.4,0.7-0.6,1.1-0.4
	c11.8,6.1,24,11.7,36.4,16.5c0.4,0.2,0.7,0.7,0.5,1.1C58.6,102.4,58.3,102.6,58,102.6z"/>
<path class="st2" d="M71.6,96.8c-0.1,0-0.2,0-0.2,0c-0.4-0.1-0.7-0.6-0.6-1.1c3.9-13.8,8.1-27.8,12.4-41.6c0.1-0.5,0.6-0.7,1.1-0.5
	s0.7,0.6,0.6,1.1c-4.3,13.7-8.5,27.7-12.4,41.5C72.3,96.6,71.9,96.8,71.6,96.8L71.6,96.8z"/>
<path class="st2" d="M128,70.6c-0.2,0-0.4-0.1-0.5-0.2C117.9,62.8,108,55.5,98,48.5c-0.4-0.3-0.5-0.8-0.2-1.2
	c0.3-0.4,0.8-0.5,1.2-0.2c10,7,20,14.4,29.6,21.9c0.4,0.3,0.4,0.8,0.1,1.2C128.5,70.5,128.2,70.6,128,70.6z"/>
<path class="st2" d="M141.6,68.2c-0.1,0-0.1,0-0.2,0c-0.5-0.1-0.8-0.6-0.6-1c3.2-14.5,7.1-29.1,11.6-43.3c0.1-0.5,0.6-0.7,1.1-0.5
	c0.4,0.1,0.7,0.6,0.6,1.1c-4.5,14.2-8.4,28.7-11.6,43.2C142.3,67.9,141.9,68.2,141.6,68.2L141.6,68.2z"/>
<g class="st3">
	<path class="st2" d="M20.9,78.7c-0.6-0.3-1.4-0.1-1.9,0.4c-0.3,0.3-0.5,0.7-0.5,1.2c0,0.1,0,0.3,0,0.4c0,0.1-0.1,0.7-0.2,0.9
		c-0.5,1.9-1,2.6-1.8,3.5c-1,1.1-3.1,2.1-4,2.4c-0.8,0.4-1.8,0.3-2.5,0.9c-1.8,1.3-0.3,4.2,1.8,3.6c2.8-0.5,5.6-1.7,7.6-3.9
		c1.3-1.7,1.4-2.4,1.9-3.6c0.4-1,0.6-2.1,0.8-3.2C22.1,80.2,22,79,20.9,78.7L20.9,78.7z"/>
</g>
<g class="st3">
	<path class="st2" d="M77.6,103.4c-0.4-1.2-2.1-1.5-3-0.6c-0.4,0.4-0.5,0.8-0.6,1.3c-0.1,0.5-0.2,0.9-0.3,1.4
		c-0.2,0.5-1,1.9-2.5,3.3c-0.2,0.3-1.9,1.4-2.1,1.4c-1.7,0.5-1.3,0.5-2.9,0.4c-0.6-0.1-1.1-0.2-1.7-0.4c-0.5-0.1-1-0.4-1.4-0.2
		c-1.9,0.2-2.1,3-0.2,3.5c3.5,1.1,6.7,1,9.7-1.2c2.3-1.6,4.4-3.9,5-6.7C77.7,104.9,77.9,104.1,77.6,103.4L77.6,103.4z"/>
</g>
<g>
	<g class="st3">
		<path class="st2" d="M98.9,40.1c0-0.3-0.1-0.6-0.1-0.9c0-0.1-0.1-0.2-0.1-0.2c-0.1-0.2-0.2-0.4-0.3-0.5c-0.6-0.7-1.8-0.7-2.4,0
			c-0.8,1.1-0.4,0.8-0.6,1.6c0.2-1.1-0.1,0.8-0.2,1.2c0,0.1,0,0.1,0,0.2c-0.5,2.5-0.5,2.8-1.7,4.4c-0.1,0.1-0.1,0.1-0.2,0.2
			c-0.7,0.9-1.4,1.7-2.3,2.4c-0.5,0.5-3.8,2-5.8,1.8c-1.5-0.1-0.5,0-2.2-0.2c-0.5-0.1-1.1-0.1-1.5,0.2C80,51,80.3,53.4,82,53.8
			c5,1.3,10.7-0.3,13.9-4.5c0.9-1.1,1.8-2.3,2.3-3.7C99,43.9,99,42,98.9,40.1z"/>
	</g>
	<g class="st3">
		<path class="st2" d="M98.8,39.2L98.8,39.2L98.8,39.2L98.8,39.2z"/>
	</g>
	<g class="st3">
		<path class="st2" d="M98.8,39.2c0,0.1,0,0.3,0.1,0.4C98.9,39.5,98.8,39.3,98.8,39.2z"/>
	</g>
</g>
<g>
	<g class="st3">
		<path class="st2" d="M146.9,78.9c0-0.4-0.2-0.8-0.5-1c0.2-1,0.4-1.9,0.4-2.9c0.4-2.2-2-3.3-3.3-1.5c-0.1,0.2-0.2,0.3-0.2,0.5
			c0,0,0,0.1,0,0.2c-0.2,1.1-0.3,2.2-0.7,3.2l0,0.1c-0.1,0.3-0.7,1.2-1,1.5c-1.1,1.4-2.6,2.8-2.8,2.8c-0.2,0.1-0.5,0.3-0.7,0.4
			c-0.3,0.1-0.5,0.2-0.8,0.3c-1.9,0.4-0.7,0.2-2.4,0.4l0.4-0.1c-0.1,0-0.3,0.1-0.4,0.1c-0.2,0-0.1,0,0,0c-0.9,0.1-1.9-0.1-2.7,0.3
			c-2.3,0.9-1.6,4.4,0.9,4.3c1.3,0,2.7,0.2,4-0.1c1.4-0.3,2.8-1,4-1.8c0.2-0.1,0.4-0.3,0.6-0.4c0.4,0.5,1.1,0.7,1.7,0.6
			c1.1-0.3,1.6-1.7,2.2-2.5c0.5-0.9,0.9-1.9,1.2-2.9C146.7,79.8,147,79.4,146.9,78.9L146.9,78.9z"/>
	</g>
	<g class="st3">
		<path class="st2" d="M134.9,82.9L134.9,82.9z"/>
	</g>
</g>
<g>
	<g class="st3">
		<path class="st2" d="M166.8,13.1l0-0.1v0c0.1-0.9,0.4-2-0.4-2.7c-0.8-0.8-2.2-0.6-2.7,0.4c-0.1,0.1-0.1,0.3-0.2,0.5
			c-0.1,0.2-0.1,0.5-0.2,0.7c0,0.2-0.2,0.6-0.3,0.8c-1.1,2.1-1.1,2-2.9,3.8c-1.1,0.9-0.8,0.9-3.5,2.2c-0.4,0.3-3.2,1.2-3.5,1.1
			c0.5-0.1-0.3,0-0.7,0.1c-0.9,0.1-1.9-0.3-2.8,0.1c-1.8,0.7-1.2,3.4,0.7,3.3c3.9,0.7,8-0.6,11.3-2.7c2-1.5,4.1-3.4,4.9-5.9
			c0.1-0.5,0.2-0.9,0.3-1.4C166.7,13.4,166.7,13.3,166.8,13.1L166.8,13.1z"/>
	</g>
	<g class="st3">
		<path class="st2" d="M166.8,13.1c0,0.1,0,0.1,0,0.2c0-0.1,0-0.2,0-0.3L166.8,13.1L166.8,13.1z"/>
	</g>
</g>
</svg>
