<?xml version="1.0" encoding="utf-8"?>
<!-- Generator: Adobe Illustrator 26.2.1, SVG Export Plug-In . SVG Version: 6.00 Build 0)  -->
<svg version="1.1" id="a" xmlns="http://www.w3.org/2000/svg" xmlns:xlink="http://www.w3.org/1999/xlink" x="0px" y="0px"
	 viewBox="0 0 146.4 112.7" style="enable-background:new 0 0 146.4 112.7;" xml:space="preserve">
<style type="text/css">
	.st0{fill:#BB8760;}
	.st1{fill:#010101;}
	.st2{fill:#FFFFFF;}
	.st3{opacity:0.13;}
</style>
<g>
	<path class="st0" d="M86,71.2c-1.1-5,1.1-10.6,5.3-13.6c-3.6-5-7.7-9.7-12-14c-2.1,2.5-8.4,8.1-18,3.3c-4.2-2.1-7.3-7.3-6.9-8.9
		c-6.5,1.9-13.1,3.6-16.7,5.3c1.5,3.3,2.7,9.4-1.8,14.7c-3.2,3.7-10.7,3.6-13.6,2.5c-2.1,5.2-3.6,10.4-4.5,15.8
		c2.5,0.4,5,1.1,7.3,2.2c2,1,4,2.4,4.7,4.5c0.4,1.2,0.3,2.4,0.1,3.6c-0.7,3.7-2.7,7-5.6,9.4c3.1,3.9,6.8,7.3,10.8,10.3
		c1.6-2.4,4.1-3.6,6.5-4.5c1.6-0.6,3.3-1.2,5-1c1.8,0.2,3.4,1.1,4.7,2.3c2.4,2.2,4,5.4,4.1,8.7c5.5-0.1,10.9-0.8,16.2-1.9
		c0.4-3.1,0.6-6.1,1.6-8.8s3.1-5.2,5.9-6.2c3.6-1.2,7.4,0.3,10.9,1.8c2.7-4.5,5-9.7,6.6-15C91.5,80.4,87.1,76.2,86,71.2L86,71.2z
		 M62.4,85.8c-4.6,1.5-10.1-0.2-13-4.1c-0.9-1.1-1.5-2.4-1.7-3.8s-0.1-2.8,0.3-4.2c0.8-3.4,2.8-6.5,5.7-8.4s6.9-2.4,10-0.8
		c3.9,2,6.3,6.2,6.5,10.3C70.3,79.6,67,84.3,62.4,85.8z"/>
	<path class="st1" d="M55.5,112.7c-0.5,0-0.8-0.4-0.9-0.8c-0.2-3.1-1.6-6-3.9-8.1c-0.9-0.9-2.4-1.9-4.2-2.1
		c-1.5-0.2-3.1,0.4-4.6,0.9c-2.3,0.9-4.7,2-6.1,4.2c-0.1,0.2-0.3,0.3-0.6,0.4s-0.5,0-0.7-0.2c-4.6-3.4-8.2-6.9-11-10.4
		c-0.3-0.4-0.2-0.9,0.1-1.2c2.7-2.2,4.6-5.5,5.3-8.9c0.2-1.3,0.2-2.3,0-3.2c-0.5-1.5-1.9-2.8-4.3-3.9c-2.2-1-4.5-1.8-7.1-2.1
		c-0.2,0-0.4-0.2-0.6-0.3c-0.1-0.2-0.2-0.4-0.1-0.7c0.9-5.3,2.4-10.7,4.6-16c0.2-0.4,0.7-0.7,1.1-0.5c2.8,1,9.9,1.1,12.7-2.2
		c4.7-5.6,2.5-11.9,1.7-13.8c-0.2-0.4,0-0.9,0.4-1.1c2.8-1.3,7.4-2.6,12.2-4c1.5-0.4,3-0.9,4.6-1.3c0.3-0.1,0.6,0,0.9,0.2
		s0.3,0.5,0.2,0.9c-0.3,0.9,2.4,5.8,6.4,7.8c9.4,4.7,15.3-1.2,16.9-3.1c0.2-0.2,0.4-0.3,0.6-0.3c0.2,0,0.5,0.1,0.7,0.2
		c4.7,4.7,8.6,9.3,12.1,14.1c0.1,0.2,0.2,0.4,0.2,0.7c0,0.2-0.2,0.4-0.4,0.6c-4,2.8-6,8-5,12.7c1,4.7,5.1,8.7,10.1,9.9
		c0.2,0.1,0.4,0.2,0.5,0.4c0.1,0.2,0.1,0.4,0.1,0.7c-1.6,5.4-3.9,10.6-6.7,15.2c-0.2,0.4-0.7,0.5-1.1,0.3c-3.6-1.5-7.1-2.8-10.3-1.7
		c-2.3,0.8-4.3,2.9-5.3,5.6c-0.8,2.2-1.1,4.5-1.4,7c-0.1,0.5-0.1,1.1-0.2,1.6c-0.1,0.4-0.3,0.7-0.7,0.8
		C66.2,112,60.8,112.6,55.5,112.7L55.5,112.7L55.5,112.7z M46,99.9c0.2,0,0.5,0,0.7,0c1.8,0.2,3.6,1.1,5.2,2.6
		c2.4,2.2,4,5.2,4.3,8.5c4.8-0.2,9.6-0.7,14.6-1.7c0-0.3,0.1-0.7,0.1-1c0.3-2.6,0.6-5.1,1.5-7.4c1.3-3.3,3.6-5.7,6.4-6.7
		c3.5-1.2,7.3,0,10.8,1.5c2.4-4.1,4.4-8.6,5.9-13.3c-5.2-1.7-9.4-6-10.5-11c-1.1-5.1,0.9-10.7,5-14c-3.1-4.3-6.7-8.4-10.8-12.6
		c-2.2,2.3-8.8,7.7-18.4,2.8c-3.5-1.8-6.7-5.9-7.3-8.5c-1.2,0.3-2.4,0.7-3.5,1c-4.4,1.3-8.5,2.5-11.2,3.6c1,2.7,2.5,9.1-2.3,14.8
		c-3.2,3.8-10.1,4-13.8,3c-1.8,4.6-3.2,9.3-4,14c2.4,0.4,4.6,1.2,6.7,2.1c2.8,1.3,4.5,3,5.2,5c0.4,1.2,0.4,2.4,0.1,4.1
		c-0.7,3.6-2.5,6.9-5.2,9.4c2.5,3,5.6,6,9.4,8.9c1.7-2.1,4.1-3.2,6.4-4.1C42.8,100.4,44.4,99.9,46,99.9L46,99.9z M58.9,87.3
		c-3.9,0-7.8-1.8-10.2-5c-1-1.3-1.7-2.8-1.9-4.2c-0.2-1.4-0.1-2.9,0.3-4.6c1-3.8,3.2-7.1,6.1-9c3.3-2.2,7.6-2.5,10.9-0.8
		c4,2,6.7,6.4,6.9,11c0.2,5.1-3.3,10.3-8.3,11.9C61.4,87.1,60.2,87.3,58.9,87.3z M59.5,64.4c-1.8,0-3.7,0.6-5.4,1.6
		c-2.5,1.7-4.5,4.6-5.3,7.9c-0.4,1.5-0.5,2.8-0.3,3.9c0.2,1.2,0.7,2.4,1.6,3.5c2.7,3.6,7.8,5.2,12.1,3.8l0,0
		c4.3-1.4,7.3-5.8,7.1-10.2c-0.2-4.1-2.5-7.8-6-9.6C62.1,64.7,60.8,64.4,59.5,64.4L59.5,64.4z"/>
</g>
<g>
	<g>
		<path class="st2" d="M106.4,67c6.1,6,12.2,11.9,18.2,17.9c3.2,3.2,6.4,6.3,9.9,9.1c1.9,1.5,4,2.9,6.3,2.9c2.3,0,4.7-1.9,4.7-4.5
			c0-2-1.4-3.7-2.7-5c-9.7-10.2-19.8-19.9-30.3-29C110.6,61.1,108.7,63.9,106.4,67L106.4,67z"/>
		<path class="st1" d="M140.8,97.7L140.8,97.7c-2.6,0-4.8-1.5-6.8-3.1c-3.5-2.8-6.8-6-10-9.1l-18.2-17.9c-0.3-0.3-0.3-0.8-0.1-1.2
			c2.3-3,4.2-5.9,6.1-8.6c0.1-0.2,0.4-0.3,0.6-0.4c0.2,0,0.5,0,0.7,0.2c10.5,9.1,20.7,18.9,30.3,29c1.4,1.5,2.9,3.3,3,5.6
			c0,1.3-0.5,2.7-1.6,3.7C143.8,97,142.3,97.7,140.8,97.7L140.8,97.7z M107.6,66.9l17.7,17.4c3.1,3.1,6.4,6.3,9.8,9
			c1.8,1.4,3.7,2.7,5.7,2.7l0,0c1,0,2-0.5,2.8-1.2c0.7-0.7,1.1-1.6,1-2.4c0-1.7-1.2-3.1-2.5-4.4c-9.4-9.9-19.3-19.4-29.5-28.3
			C111.1,61.9,109.4,64.3,107.6,66.9z"/>
	</g>
	<g>
		<path class="st2" d="M82.7,0.9c-20.9,0-37.9,17-37.9,37.9s17,37.9,37.9,37.9s37.9-17,37.9-37.9S103.6,0.9,82.7,0.9z M82.7,67.5
			c-15.9,0-28.8-12.9-28.8-28.8S66.8,10,82.7,10s28.8,12.9,28.8,28.8S98.6,67.5,82.7,67.5z M82.7,67.5c-15.9,0-28.8-12.9-28.8-28.8
			S66.8,10,82.7,10s28.8,12.9,28.8,28.8S98.6,67.5,82.7,67.5z"/>
		<path class="st1" d="M82.7,77.5c-21.4,0-38.8-17.4-38.8-38.8S61.3,0,82.7,0s38.8,17.4,38.8,38.8S104.1,77.5,82.7,77.5L82.7,77.5z
			 M82.7,1.7c-20.4,0-37,16.6-37,37s16.6,37,37,37s37-16.6,37-37S103.1,1.7,82.7,1.7z M82.7,68.4c-16.3,0-29.6-13.3-29.6-29.6
			S66.4,9.1,82.7,9.1s29.6,13.3,29.6,29.6S99,68.4,82.7,68.4z M54.8,38.8c0,15.4,12.5,27.9,27.9,27.9s27.9-12.5,27.9-27.9
			S98.1,10.9,82.7,10.9S54.8,23.4,54.8,38.8z"/>
	</g>
	<g>
		<circle class="st2" cx="67.9" cy="38.4" r="3"/>
		<path class="st1" d="M67.9,42.2c-2.1,0-3.8-1.7-3.8-3.8s1.7-3.8,3.8-3.8s3.8,1.7,3.8,3.8S70,42.2,67.9,42.2z M67.9,36.3
			c-1.2,0-2.1,0.9-2.1,2.1s0.9,2.1,2.1,2.1s2.1-0.9,2.1-2.1S69.1,36.3,67.9,36.3z"/>
	</g>
	<g>
		<circle class="st2" cx="82.3" cy="38.4" r="3"/>
		<path class="st1" d="M82.3,42.2c-2.1,0-3.8-1.7-3.8-3.8s1.7-3.8,3.8-3.8s3.8,1.7,3.8,3.8S84.4,42.2,82.3,42.2z M82.3,36.3
			c-1.2,0-2.1,0.9-2.1,2.1s0.9,2.1,2.1,2.1s2.1-0.9,2.1-2.1S83.5,36.3,82.3,36.3z"/>
	</g>
	<g>
		<circle class="st2" cx="96.7" cy="38.4" r="3"/>
		<path class="st1" d="M96.7,42.2c-2.1,0-3.8-1.7-3.8-3.8s1.7-3.8,3.8-3.8s3.8,1.7,3.8,3.8S98.8,42.2,96.7,42.2z M96.7,36.3
			c-1.2,0-2.1,0.9-2.1,2.1s0.9,2.1,2.1,2.1s2.1-0.9,2.1-2.1S97.9,36.3,96.7,36.3z"/>
	</g>
	<path class="st1" d="M111.3,68C111.3,68,111.2,68,111.3,68c-0.2-0.1-0.3-0.2-0.3-0.4l0.7-2.3c0-0.2,0.2-0.2,0.4-0.2
		c0.2,0,0.2,0.2,0.2,0.4l-0.7,2.3C111.5,68,111.4,68,111.3,68z"/>
	<path class="st1" d="M114.5,72.1C114.5,72.1,114.4,72.1,114.5,72.1c-0.2,0-0.3-0.2-0.3-0.3c0.4-2.7,0.8-5.5,1.3-8.2
		c0-0.2,0.2-0.3,0.3-0.2c0.2,0,0.3,0.2,0.2,0.3c-0.5,2.7-0.9,5.4-1.3,8.2C114.7,72,114.6,72.1,114.5,72.1L114.5,72.1z"/>
	<path class="st1" d="M118.6,76.1c-0.2,0-0.3-0.1-0.3-0.3c0-1.4,0.2-3.7,0.4-5.7c0.1-1.2,0.2-2.3,0.2-3c0-0.2,0.1-0.3,0.3-0.3
		c0.2,0,0.3,0.1,0.3,0.3c0,0.7-0.1,1.8-0.2,3c-0.2,2-0.4,4.3-0.4,5.6C118.9,76,118.8,76.1,118.6,76.1L118.6,76.1z"/>
	<path class="st1" d="M122.8,80c-0.2,0-0.3-0.1-0.3-0.3l-0.2-9.7c0-0.2,0.1-0.3,0.3-0.3c0.2,0,0.3,0.1,0.3,0.3l0.2,9.7
		C123.1,79.9,123,80,122.8,80L122.8,80L122.8,80z"/>
	<path class="st1" d="M126.9,84.3c-0.2,0-0.3-0.1-0.3-0.3l-0.4-10.1c0-0.2,0.1-0.3,0.3-0.3c0.2,0,0.3,0.1,0.3,0.3l0.4,10.1
		C127.2,84.1,127,84.3,126.9,84.3L126.9,84.3z"/>
	<path class="st1" d="M131,87.9c-0.1,0-0.3-0.1-0.3-0.3l-0.5-9.5c0-0.2,0.1-0.3,0.3-0.3c0.2,0,0.3,0.1,0.3,0.3l0.5,9.5
		C131.3,87.7,131.2,87.9,131,87.9L131,87.9z"/>
	<path class="st1" d="M135,91.2c-0.1,0-0.3-0.1-0.3-0.3l-0.7-9.2c0-0.2,0.1-0.3,0.3-0.3c0.1,0,0.3,0.1,0.3,0.3l0.7,9.2
		C135.3,91.1,135.2,91.2,135,91.2L135,91.2z"/>
	<path class="st1" d="M138.9,94.2c-0.1,0-0.3-0.1-0.3-0.3l-0.8-8.1c0-0.2,0.1-0.3,0.3-0.3c0.1,0,0.3,0.1,0.3,0.3l0.8,8.1
		C139.2,94.1,139.1,94.2,138.9,94.2L138.9,94.2L138.9,94.2z"/>
	<path class="st1" d="M142.6,93.8c-0.1,0-0.3-0.1-0.3-0.2l-0.6-3.6c0-0.2,0.1-0.3,0.2-0.3c0.2,0,0.3,0.1,0.3,0.2l0.6,3.6
		C143,93.6,142.9,93.8,142.6,93.8C142.7,93.8,142.7,93.8,142.6,93.8L142.6,93.8z"/>
	<g class="st3">
		<path class="st1" d="M109.5,47.9c-0.9,0.8-1.4,2.1-2.2,3c-0.2,0.3-2.1,2.5-3.2,3.5c-0.9,0.8-1.9,1.6-2.8,2.3
			c-0.2,0-0.3,0.1-0.5,0.2c-4.7,3.4-8.3,4.7-14.3,5.8c-2.8,0.5-6.1,1-10.6-0.1c-3.1-0.7-4.7-1.6-7.9-3.8c-1.4-1-4.5-3.7-6.6-6.3l0,0
			c-2.3-3.1-3-5.8-3.5-7c-0.5-1.3-0.8-2.6-1.2-3.9c-0.5-1.8-0.7-2.4-0.7-3.9c-0.3-1-0.7-1.9-1-2.9c-0.3-0.1-0.6-0.2-0.9-0.2
			c-0.5,3.9-0.4,7.8,0.1,11.7c0.8,3.4,1.9,7,5.1,10.7c2.6,2.9,4.4,3.9,5.5,4.8c2.6,1.9,5.4,3.6,8.5,4.6c1.7,0.5,3.4,0.7,5.2,0.9h0
			c1.9,0.3,3.8,0.4,5.7,0.1c1.5-0.1,2.9-0.6,4.4-0.9c3-0.7,6-1.7,8.7-3.1c1.1-0.7,1.5-1,2-1.3c3.3-2.1,6.8-5,8.6-7
			c0.5-1,0.9-1.9,1.3-2.9c0.5-1.5,1.1-2.9,1.6-4.3C110.3,47.6,109.9,47.6,109.5,47.9L109.5,47.9z"/>
	</g>
	<g class="st3">
		<path class="st1" d="M115.7,60.3c-1.4-0.4-2.4,0.6-3.1,1.7l-0.1,0.1c-1.3,1.5-1.6,1.3-3.7,3.2l0,0c-0.4,0.3-0.9,0.5-1.2,0.9
			c-1.8,2.2,0.9,5.2,3.3,3.8c1.7-0.9,3.1-2.2,4.2-3.7c0.7-0.8,1.4-1.6,2-2.6C117.9,62.5,117.1,60.7,115.7,60.3L115.7,60.3z"/>
	</g>
</g>
<g>
	<path class="st2" d="M32,16.5l-1.5-4.9l3-4.4L26,1.9c-1,1.6-1.9,3.2-2.9,4.8c0,0.1-0.1,0.2-0.2,0.2c-0.1,0.1-0.2,0.1-0.4,0.1
		c-1.7,0-3.4-0.1-5-0.1c-0.8-1.6-1.6-3.1-2.5-4.6c-0.1-0.1-0.2-0.2-0.3-0.3s-0.3,0-0.4,0.1c-2,1.2-4,2.4-6,3.7C8.3,6,8.3,6,8.2,6
		c-0.1,0.1,0,0.3,0.1,0.4C9,7.8,9.9,9.1,11,10.3c-0.9,1.7-1.9,3.3-2.9,4.8c-0.2,0.4-0.5,0.8-0.9,0.9c-0.3,0.1-0.7,0-1.1-0.1
		c-1.4-0.4-2.8-0.9-4.2-1.4c-1.2,2.8-1.4,6-0.6,9c0.1,0.2,5.3-0.5,5.3-0.5l3.1,5.5l-2.5,4.2l5.7,4.2l3-4.4l5.2,0.1l2,4.7l7.8-2.8
		L29,29.7l2.8-4.6l5.3-0.4l0.2-6.6L32,16.5L32,16.5z M23,19c0,0.2-0.1,0.7-0.2,0.9c-0.1,0.2-0.1,0.4-0.3,0.5
		c-0.2,0.3-0.5,0.6-0.7,0.9c-0.6,0.5-1.2,0.9-1.9,1.2c-0.3,0.1-0.6,0.2-0.9,0.2c-0.3,0-0.5,0.1-0.8,0c-0.2,0-0.3-0.1-0.5-0.1
		c0.5,0,0,0-0.2,0c-0.8-0.2-1.6-0.9-2-1.6c-0.2-0.5-0.4-1-0.5-1.5c0-0.5,0.1-1,0.3-1.4c0.2-0.6,0.5-1.2,0.9-1.8
		c0.4-0.6,0.9-1.2,1.6-1.6c0.7-0.3,1.4-0.4,2.1-0.1c0.3-0.1,0.6-0.2,0.8-0.1c0.5,0.2,0.9,0.4,1.2,0.8c0.3,0.4,0.5,0.8,0.7,1.3
		c0.1,0.1,0.1,0.3,0.1,0.5c0,0.1,0,0.2,0,0.3c0,0.1,0,0.3,0.1,0.4v-0.1c0-0.1,0-0.1,0,0c0,0.1,0,0.3,0.1,0.5c0,0.1,0,0.1,0,0.2
		C23,18.7,23,18.9,23,19L23,19z"/>
	<g class="st3">
		<path class="st1" d="M24,20c-0.1-0.8-1.3-0.9-1.5-0.1c-0.2,0.8-0.1,0.6-1,1.4c-0.8,0.6-0.5,0.5-1.7,0.9c-1.1,0.4-0.7,0.3-1.6,0.3
			c-0.1,0-0.3-0.1-0.4-0.1c-0.5-0.2-0.3-0.1-1.2-0.6c-0.4-0.2-0.7-0.5-1.1-0.6c-1.3-0.2-1.9,1.7-0.8,2.3c2,1.4,4.1,2.1,6.4,0.9
			c1.2-0.7,2.1-1.8,2.5-3.1C23.8,21,24.1,20.5,24,20L24,20z"/>
	</g>
	<g class="st3">
		<path class="st1" d="M28.3,33c-0.8,0.3-1,0.5-2.5,0.7c-0.7,0.2-1.5,0.1-2.1,0.6c-1.2,0.9-0.2,2.9,1.2,2.5c1.7-0.4,3.7-0.4,5-1.7
			C30.9,33.9,29.6,32.3,28.3,33L28.3,33z"/>
	</g>
	<g class="st3">
		<path class="st1" d="M37.7,21.9C37.7,21.9,37.7,21.9,37.7,21.9L37.7,21.9c0-0.3-0.1-0.6-0.2-0.8c-0.6-1.1-2.3-0.9-2.7,0.2
			c0,0-0.1,0.1-0.1,0.2c-0.1,0.2-0.2,0.5-0.3,0.7c-0.1,0.2-0.2,0.4-0.2,0.6c-0.2,0.3-0.2,0.5-0.2,0.8c0,1.9,2.7,2.3,3.2,0.4
			c0.3-0.6,0.5-1.2,0.5-1.9C37.7,22.1,37.7,22,37.7,21.9L37.7,21.9z"/>
	</g>
	<path class="st1" d="M23,38c-0.4,0-0.7-0.2-0.8-0.5c-0.5-1.4-1.1-2.7-1.9-4.1c-1.5,0.2-3.1,0.1-4.5-0.1c-0.4,0.8-0.8,1.6-1.3,2.4
		c-0.3,0.5-0.6,1-0.8,1.6c-0.2,0.4-0.7,0.6-1.1,0.4c-2.6-1-4.8-2.7-6.5-4.8c-0.2-0.3-0.2-0.7,0-1c0.8-1.2,1.7-2.4,2.6-3.8
		c-0.9-1.2-1.8-2.7-2.5-4.5c-0.3,0.1-0.6,0.1-0.9,0.2c-1.2,0.3-2.5,0.5-3.9,0.7c-0.4,0.1-0.9-0.2-1-0.6c-0.8-2.9-0.6-6.2,0.7-9.8
		c0.1-0.4,0.6-0.7,1-0.6c1.7,0.4,3.3,0.9,5.1,1.3c0.7-1.5,1.5-2.8,2.4-4.2C8.8,9.4,7.9,8.2,7.1,6.7C6.9,6.3,7,5.9,7.3,5.6
		c1.9-1.7,4.3-3.2,7.1-4.5c0.4-0.2,0.9,0,1.1,0.4c0.8,1.5,1.6,3,2.2,4.6c1.6-0.2,3.3-0.3,4.9-0.2c0.8-1.5,1.6-3,2.6-4.6
		c0.2-0.4,0.7-0.5,1.1-0.3c2.1,1.1,4,2.4,5.8,3.9c0.5,0.4,0.9,0.8,1.4,1.2c0.2,0.2,0.6,0.5,0.7,1c0.1,0.2,0,0.5-0.1,0.7
		c-0.4,0.6-0.8,1.2-1.2,1.8c-0.5,0.8-1.1,1.6-1.7,2.5c0.5,1.2,1,2.4,1.4,3.7c1.5,0.1,3.3,0.5,5.3,1.3c0.3,0.1,0.5,0.4,0.5,0.8
		c0.2,2.7-0.2,5.2-1.1,7.6c-0.1,0.4-0.5,0.6-0.8,0.6l-0.6,0c-1.3,0-2.6-0.1-3.9,0c-0.5,1.3-1.3,2.6-2.5,4c0.8,1.3,1.5,2.7,2.2,4.4
		c0.2,0.4,0,0.9-0.4,1.1c-2.7,1.5-5.5,2.4-8.3,2.7C23.1,38,23.1,38,23,38L23,38z M20.8,31.6c0.3,0,0.6,0.1,0.7,0.4
		c0.9,1.4,1.5,2.8,2.1,4.2c2.1-0.3,4.2-1,6.3-2c-0.6-1.5-1.4-2.7-2.1-4c-0.2-0.3-0.1-0.7,0.1-1c1.4-1.6,2.2-3.1,2.8-4.5
		c0.1-0.3,0.4-0.5,0.7-0.6c1.7-0.2,3.2-0.1,4.6,0c0.6-1.8,0.9-3.7,0.8-5.7c-1.8-0.7-3.5-0.9-4.9-1c-0.3,0-0.6-0.2-0.8-0.6
		c-0.5-1.5-1.2-3.1-1.8-4.6c-0.1-0.3-0.1-0.6,0.1-0.8c0.7-1.1,1.3-2,2-2.9c0.3-0.4,0.6-0.8,0.9-1.3c-0.4-0.4-0.9-0.8-1.3-1.2
		c-1.5-1.2-3.1-2.3-4.8-3.3c-0.9,1.5-1.6,2.9-2.4,4.3c-0.2,0.3-0.5,0.5-0.9,0.5c-1.9-0.2-3.9-0.1-5.8,0.2c-0.4,0.1-0.8-0.2-1-0.5
		c-0.6-1.5-1.3-2.9-2-4.3C12.3,4,10.5,5.1,9,6.4c0.8,1.3,1.6,2.5,2.4,3.6c0.2,0.3,0.2,0.7,0,1c-1.1,1.8-2.2,3.4-2.9,5.2
		c-0.2,0.4-0.6,0.6-1,0.5c-1.7-0.4-3.4-0.8-5-1.2c-0.8,2.6-1,5.1-0.5,7.3c1-0.2,2-0.4,3-0.6C5.4,22,6,21.9,6.5,21.8
		c0.4-0.1,0.8,0.1,1,0.5c0.9,2.1,1.8,3.8,2.9,5.2c0.2,0.3,0.2,0.7,0.1,1c-0.9,1.5-1.7,2.7-2.6,3.8c1.3,1.4,2.8,2.6,4.6,3.4
		c0.2-0.3,0.3-0.6,0.5-0.9c0.5-1,1-2,1.6-2.9c0.2-0.3,0.5-0.5,0.9-0.4c1.7,0.2,3.5,0.3,5.2,0C20.7,31.5,20.8,31.5,20.8,31.6
		L20.8,31.6z M32.7,7.6L32.7,7.6z"/>
	<path class="st1" d="M18.4,23.1c-0.8,0-1.5-0.1-2.2-0.5c-0.6-0.3-1.1-0.6-1.4-1.1c-0.4-0.6-0.5-1.3-0.6-1.8
		c-0.1-1.8,0.3-3.5,1.2-4.6c1.2-1.5,3.1-2.1,4.7-1.6c0.1,0,0.2,0.1,0.3,0.2c1.7,0.6,2.9,2.3,3,4.1c0.1,1.8-0.8,3.5-2.4,4.5
		C20.3,22.9,19.4,23.2,18.4,23.1L18.4,23.1z M19,15.1c-0.8,0-1.6,0.4-2.1,1.1c-0.7,0.9-1,2.1-0.9,3.5c0,0.3,0.1,0.7,0.2,0.9
		c0.1,0.2,0.3,0.3,0.6,0.5c1.1,0.5,2.4,0.4,3.3-0.2c1-0.6,1.6-1.8,1.5-2.9c-0.1-1.1-0.8-2.2-1.9-2.6l-0.1,0
		c-0.2-0.1-0.3-0.1-0.5-0.2C19.2,15.1,19.2,15.1,19,15.1L19,15.1z"/>
</g>
<g>
	<path class="st2" d="M32,16.5l-1.5-4.9l3-4.4L26,1.9c-1,1.6-1.9,3.2-2.9,4.8c0,0.1-0.1,0.2-0.2,0.2c-0.1,0.1-0.2,0.1-0.4,0.1
		c-1.7,0-3.4-0.1-5-0.1c-0.8-1.6-1.6-3.1-2.5-4.6c-0.1-0.1-0.2-0.2-0.3-0.3s-0.3,0-0.4,0.1c-2,1.2-4,2.4-6,3.7C8.3,6,8.3,6,8.2,6
		c-0.1,0.1,0,0.3,0.1,0.4C9,7.8,9.9,9.1,11,10.3c-0.9,1.7-1.9,3.3-2.9,4.8c-0.2,0.4-0.5,0.8-0.9,0.9c-0.3,0.1-0.7,0-1.1-0.1
		c-1.4-0.4-2.8-0.9-4.2-1.4c-1.2,2.8-1.4,6-0.6,9c0.1,0.2,5.3-0.5,5.3-0.5l3.1,5.5l-2.5,4.2l5.7,4.2l3-4.4l5.2,0.1l2,4.7l7.8-2.8
		L29,29.7l2.8-4.6l5.3-0.4l0.2-6.6L32,16.5L32,16.5z M23,19c0,0.2-0.1,0.7-0.2,0.9c-0.1,0.2-0.1,0.4-0.3,0.5
		c-0.2,0.3-0.5,0.6-0.7,0.9c-0.6,0.5-1.2,0.9-1.9,1.2c-0.3,0.1-0.6,0.2-0.9,0.2c-0.3,0-0.5,0.1-0.8,0c-0.2,0-0.3-0.1-0.5-0.1
		c0.5,0,0,0-0.2,0c-0.8-0.2-1.6-0.9-2-1.6c-0.2-0.5-0.4-1-0.5-1.5c0-0.5,0.1-1,0.3-1.4c0.2-0.6,0.5-1.2,0.9-1.8
		c0.4-0.6,0.9-1.2,1.6-1.6c0.7-0.3,1.4-0.4,2.1-0.1c0.3-0.1,0.6-0.2,0.8-0.1c0.5,0.2,0.9,0.4,1.2,0.8c0.3,0.4,0.5,0.8,0.7,1.3
		c0.1,0.1,0.1,0.3,0.1,0.5c0,0.1,0,0.2,0,0.3c0,0.1,0,0.3,0.1,0.4v-0.1c0-0.1,0-0.1,0,0c0,0.1,0,0.3,0.1,0.5c0,0.1,0,0.1,0,0.2
		C23,18.7,23,18.9,23,19L23,19z"/>
	<g class="st3">
		<path class="st1" d="M24,20c-0.1-0.8-1.3-0.9-1.5-0.1c-0.2,0.8-0.1,0.6-1,1.4c-0.8,0.6-0.5,0.5-1.7,0.9c-1.1,0.4-0.7,0.3-1.6,0.3
			c-0.1,0-0.3-0.1-0.4-0.1c-0.5-0.2-0.3-0.1-1.2-0.6c-0.4-0.2-0.7-0.5-1.1-0.6c-1.3-0.2-1.9,1.7-0.8,2.3c2,1.4,4.1,2.1,6.4,0.9
			c1.2-0.7,2.1-1.8,2.5-3.1C23.8,21,24.1,20.5,24,20L24,20z"/>
	</g>
	<g class="st3">
		<path class="st1" d="M28.3,33c-0.8,0.3-1,0.5-2.5,0.7c-0.7,0.2-1.5,0.1-2.1,0.6c-1.2,0.9-0.2,2.9,1.2,2.5c1.7-0.4,3.7-0.4,5-1.7
			C30.9,33.9,29.6,32.3,28.3,33L28.3,33z"/>
	</g>
	<g class="st3">
		<path class="st1" d="M37.7,21.9C37.7,21.9,37.7,21.9,37.7,21.9L37.7,21.9c0-0.3-0.1-0.6-0.2-0.8c-0.6-1.1-2.3-0.9-2.7,0.2
			c0,0-0.1,0.1-0.1,0.2c-0.1,0.2-0.2,0.5-0.3,0.7c-0.1,0.2-0.2,0.4-0.2,0.6c-0.2,0.3-0.2,0.5-0.2,0.8c0,1.9,2.7,2.3,3.2,0.4
			c0.3-0.6,0.5-1.2,0.5-1.9C37.7,22.1,37.7,22,37.7,21.9L37.7,21.9z"/>
	</g>
	<path class="st1" d="M23,38c-0.4,0-0.7-0.2-0.8-0.5c-0.5-1.4-1.1-2.7-1.9-4.1c-1.5,0.2-3.1,0.1-4.5-0.1c-0.4,0.8-0.8,1.6-1.3,2.4
		c-0.3,0.5-0.6,1-0.8,1.6c-0.2,0.4-0.7,0.6-1.1,0.4c-2.6-1-4.8-2.7-6.5-4.8c-0.2-0.3-0.2-0.7,0-1c0.8-1.2,1.7-2.4,2.6-3.8
		c-0.9-1.2-1.8-2.7-2.5-4.5c-0.3,0.1-0.6,0.1-0.9,0.2c-1.2,0.3-2.5,0.5-3.9,0.7c-0.4,0.1-0.9-0.2-1-0.6c-0.8-2.9-0.6-6.2,0.7-9.8
		c0.1-0.4,0.6-0.7,1-0.6c1.7,0.4,3.3,0.9,5.1,1.3c0.7-1.5,1.5-2.8,2.4-4.2C8.8,9.4,7.9,8.2,7.1,6.7C6.9,6.3,7,5.9,7.3,5.6
		c1.9-1.7,4.3-3.2,7.1-4.5c0.4-0.2,0.9,0,1.1,0.4c0.8,1.5,1.6,3,2.2,4.6c1.6-0.2,3.3-0.3,4.9-0.2c0.8-1.5,1.6-3,2.6-4.6
		c0.2-0.4,0.7-0.5,1.1-0.3c2.1,1.1,4,2.4,5.8,3.9c0.5,0.4,0.9,0.8,1.4,1.2c0.2,0.2,0.6,0.5,0.7,1c0.1,0.2,0,0.5-0.1,0.7
		c-0.4,0.6-0.8,1.2-1.2,1.8c-0.5,0.8-1.1,1.6-1.7,2.5c0.5,1.2,1,2.4,1.4,3.7c1.5,0.1,3.3,0.5,5.3,1.3c0.3,0.1,0.5,0.4,0.5,0.8
		c0.2,2.7-0.2,5.2-1.1,7.6c-0.1,0.4-0.5,0.6-0.8,0.6l-0.6,0c-1.3,0-2.6-0.1-3.9,0c-0.5,1.3-1.3,2.6-2.5,4c0.8,1.3,1.5,2.7,2.2,4.4
		c0.2,0.4,0,0.9-0.4,1.1c-2.7,1.5-5.5,2.4-8.3,2.7C23.1,38,23.1,38,23,38L23,38z M20.8,31.6c0.3,0,0.6,0.1,0.7,0.4
		c0.9,1.4,1.5,2.8,2.1,4.2c2.1-0.3,4.2-1,6.3-2c-0.6-1.5-1.4-2.7-2.1-4c-0.2-0.3-0.1-0.7,0.1-1c1.4-1.6,2.2-3.1,2.8-4.5
		c0.1-0.3,0.4-0.5,0.7-0.6c1.7-0.2,3.2-0.1,4.6,0c0.6-1.8,0.9-3.7,0.8-5.7c-1.8-0.7-3.5-0.9-4.9-1c-0.3,0-0.6-0.2-0.8-0.6
		c-0.5-1.5-1.2-3.1-1.8-4.6c-0.1-0.3-0.1-0.6,0.1-0.8c0.7-1.1,1.3-2,2-2.9c0.3-0.4,0.6-0.8,0.9-1.3c-0.4-0.4-0.9-0.8-1.3-1.2
		c-1.5-1.2-3.1-2.3-4.8-3.3c-0.9,1.5-1.6,2.9-2.4,4.3c-0.2,0.3-0.5,0.5-0.9,0.5c-1.9-0.2-3.9-0.1-5.8,0.2c-0.4,0.1-0.8-0.2-1-0.5
		c-0.6-1.5-1.3-2.9-2-4.3C12.3,4,10.5,5.1,9,6.4c0.8,1.3,1.6,2.5,2.4,3.6c0.2,0.3,0.2,0.7,0,1c-1.1,1.8-2.2,3.4-2.9,5.2
		c-0.2,0.4-0.6,0.6-1,0.5c-1.7-0.4-3.4-0.8-5-1.2c-0.8,2.6-1,5.1-0.5,7.3c1-0.2,2-0.4,3-0.6C5.4,22,6,21.9,6.5,21.8
		c0.4-0.1,0.8,0.1,1,0.5c0.9,2.1,1.8,3.8,2.9,5.2c0.2,0.3,0.2,0.7,0.1,1c-0.9,1.5-1.7,2.7-2.6,3.8c1.3,1.4,2.8,2.6,4.6,3.4
		c0.2-0.3,0.3-0.6,0.5-0.9c0.5-1,1-2,1.6-2.9c0.2-0.3,0.5-0.5,0.9-0.4c1.7,0.2,3.5,0.3,5.2,0C20.7,31.5,20.8,31.5,20.8,31.6
		L20.8,31.6z M32.7,7.6L32.7,7.6z"/>
	<path class="st1" d="M18.4,23.1c-0.8,0-1.5-0.1-2.2-0.5c-0.6-0.3-1.1-0.6-1.4-1.1c-0.4-0.6-0.5-1.3-0.6-1.8
		c-0.1-1.8,0.3-3.5,1.2-4.6c1.2-1.5,3.1-2.1,4.7-1.6c0.1,0,0.2,0.1,0.3,0.2c1.7,0.6,2.9,2.3,3,4.1c0.1,1.8-0.8,3.5-2.4,4.5
		C20.3,22.9,19.4,23.2,18.4,23.1L18.4,23.1z M19,15.1c-0.8,0-1.6,0.4-2.1,1.1c-0.7,0.9-1,2.1-0.9,3.5c0,0.3,0.1,0.7,0.2,0.9
		c0.1,0.2,0.3,0.3,0.6,0.5c1.1,0.5,2.4,0.4,3.3-0.2c1-0.6,1.6-1.8,1.5-2.9c-0.1-1.1-0.8-2.2-1.9-2.6l-0.1,0
		c-0.2-0.1-0.3-0.1-0.5-0.2C19.2,15.1,19.2,15.1,19,15.1L19,15.1z"/>
</g>
<g>
	<path class="st2" d="M32,16.5l-1.5-4.9l3-4.4L26,1.9c-1,1.6-1.9,3.2-2.9,4.8c0,0.1-0.1,0.2-0.2,0.2c-0.1,0.1-0.2,0.1-0.4,0.1
		c-1.7,0-3.4-0.1-5-0.1c-0.8-1.6-1.6-3.1-2.5-4.6c-0.1-0.1-0.2-0.2-0.3-0.3s-0.3,0-0.4,0.1c-2,1.2-4,2.4-6,3.7C8.3,6,8.3,6,8.2,6
		c-0.1,0.1,0,0.3,0.1,0.4C9,7.8,9.9,9.1,11,10.3c-0.9,1.7-1.9,3.3-2.9,4.8c-0.2,0.4-0.5,0.8-0.9,0.9c-0.3,0.1-0.7,0-1.1-0.1
		c-1.4-0.4-2.8-0.9-4.2-1.4c-1.2,2.8-1.4,6-0.6,9c0.1,0.2,5.3-0.5,5.3-0.5l3.1,5.5l-2.5,4.2l5.7,4.2l3-4.4l5.2,0.1l2,4.7l7.8-2.8
		L29,29.7l2.8-4.6l5.3-0.4l0.2-6.6L32,16.5L32,16.5z M23,19c0,0.2-0.1,0.7-0.2,0.9c-0.1,0.2-0.1,0.4-0.3,0.5
		c-0.2,0.3-0.5,0.6-0.7,0.9c-0.6,0.5-1.2,0.9-1.9,1.2c-0.3,0.1-0.6,0.2-0.9,0.2c-0.3,0-0.5,0.1-0.8,0c-0.2,0-0.3-0.1-0.5-0.1
		c0.5,0,0,0-0.2,0c-0.8-0.2-1.6-0.9-2-1.6c-0.2-0.5-0.4-1-0.5-1.5c0-0.5,0.1-1,0.3-1.4c0.2-0.6,0.5-1.2,0.9-1.8
		c0.4-0.6,0.9-1.2,1.6-1.6c0.7-0.3,1.4-0.4,2.1-0.1c0.3-0.1,0.6-0.2,0.8-0.1c0.5,0.2,0.9,0.4,1.2,0.8c0.3,0.4,0.5,0.8,0.7,1.3
		c0.1,0.1,0.1,0.3,0.1,0.5c0,0.1,0,0.2,0,0.3c0,0.1,0,0.3,0.1,0.4v-0.1c0-0.1,0-0.1,0,0c0,0.1,0,0.3,0.1,0.5c0,0.1,0,0.1,0,0.2
		C23,18.7,23,18.9,23,19L23,19z"/>
	<g class="st3">
		<path class="st1" d="M24,20c-0.1-0.8-1.3-0.9-1.5-0.1c-0.2,0.8-0.1,0.6-1,1.4c-0.8,0.6-0.5,0.5-1.7,0.9c-1.1,0.4-0.7,0.3-1.6,0.3
			c-0.1,0-0.3-0.1-0.4-0.1c-0.5-0.2-0.3-0.1-1.2-0.6c-0.4-0.2-0.7-0.5-1.1-0.6c-1.3-0.2-1.9,1.7-0.8,2.3c2,1.4,4.1,2.1,6.4,0.9
			c1.2-0.7,2.1-1.8,2.5-3.1C23.8,21,24.1,20.5,24,20L24,20z"/>
	</g>
	<g class="st3">
		<path class="st1" d="M28.3,33c-0.8,0.3-1,0.5-2.5,0.7c-0.7,0.2-1.5,0.1-2.1,0.6c-1.2,0.9-0.2,2.9,1.2,2.5c1.7-0.4,3.7-0.4,5-1.7
			C30.9,33.9,29.6,32.3,28.3,33L28.3,33z"/>
	</g>
	<g class="st3">
		<path class="st1" d="M37.7,21.9C37.7,21.9,37.7,21.9,37.7,21.9L37.7,21.9c0-0.3-0.1-0.6-0.2-0.8c-0.6-1.1-2.3-0.9-2.7,0.2
			c0,0-0.1,0.1-0.1,0.2c-0.1,0.2-0.2,0.5-0.3,0.7c-0.1,0.2-0.2,0.4-0.2,0.6c-0.2,0.3-0.2,0.5-0.2,0.8c0,1.9,2.7,2.3,3.2,0.4
			c0.3-0.6,0.5-1.2,0.5-1.9C37.7,22.1,37.7,22,37.7,21.9L37.7,21.9z"/>
	</g>
	<path class="st1" d="M23,38c-0.4,0-0.7-0.2-0.8-0.5c-0.5-1.4-1.1-2.7-1.9-4.1c-1.5,0.2-3.1,0.1-4.5-0.1c-0.4,0.8-0.8,1.6-1.3,2.4
		c-0.3,0.5-0.6,1-0.8,1.6c-0.2,0.4-0.7,0.6-1.1,0.4c-2.6-1-4.8-2.7-6.5-4.8c-0.2-0.3-0.2-0.7,0-1c0.8-1.2,1.7-2.4,2.6-3.8
		c-0.9-1.2-1.8-2.7-2.5-4.5c-0.3,0.1-0.6,0.1-0.9,0.2c-1.2,0.3-2.5,0.5-3.9,0.7c-0.4,0.1-0.9-0.2-1-0.6c-0.8-2.9-0.6-6.2,0.7-9.8
		c0.1-0.4,0.6-0.7,1-0.6c1.7,0.4,3.3,0.9,5.1,1.3c0.7-1.5,1.5-2.8,2.4-4.2C8.8,9.4,7.9,8.2,7.1,6.7C6.9,6.3,7,5.9,7.3,5.6
		c1.9-1.7,4.3-3.2,7.1-4.5c0.4-0.2,0.9,0,1.1,0.4c0.8,1.5,1.6,3,2.2,4.6c1.6-0.2,3.3-0.3,4.9-0.2c0.8-1.5,1.6-3,2.6-4.6
		c0.2-0.4,0.7-0.5,1.1-0.3c2.1,1.1,4,2.4,5.8,3.9c0.5,0.4,0.9,0.8,1.4,1.2c0.2,0.2,0.6,0.5,0.7,1c0.1,0.2,0,0.5-0.1,0.7
		c-0.4,0.6-0.8,1.2-1.2,1.8c-0.5,0.8-1.1,1.6-1.7,2.5c0.5,1.2,1,2.4,1.4,3.7c1.5,0.1,3.3,0.5,5.3,1.3c0.3,0.1,0.5,0.4,0.5,0.8
		c0.2,2.7-0.2,5.2-1.1,7.6c-0.1,0.4-0.5,0.6-0.8,0.6l-0.6,0c-1.3,0-2.6-0.1-3.9,0c-0.5,1.3-1.3,2.6-2.5,4c0.8,1.3,1.5,2.7,2.2,4.4
		c0.2,0.4,0,0.9-0.4,1.1c-2.7,1.5-5.5,2.4-8.3,2.7C23.1,38,23.1,38,23,38L23,38z M20.8,31.6c0.3,0,0.6,0.1,0.7,0.4
		c0.9,1.4,1.5,2.8,2.1,4.2c2.1-0.3,4.2-1,6.3-2c-0.6-1.5-1.4-2.7-2.1-4c-0.2-0.3-0.1-0.7,0.1-1c1.4-1.6,2.2-3.1,2.8-4.5
		c0.1-0.3,0.4-0.5,0.7-0.6c1.7-0.2,3.2-0.1,4.6,0c0.6-1.8,0.9-3.7,0.8-5.7c-1.8-0.7-3.5-0.9-4.9-1c-0.3,0-0.6-0.2-0.8-0.6
		c-0.5-1.5-1.2-3.1-1.8-4.6c-0.1-0.3-0.1-0.6,0.1-0.8c0.7-1.1,1.3-2,2-2.9c0.3-0.4,0.6-0.8,0.9-1.3c-0.4-0.4-0.9-0.8-1.3-1.2
		c-1.5-1.2-3.1-2.3-4.8-3.3c-0.9,1.5-1.6,2.9-2.4,4.3c-0.2,0.3-0.5,0.5-0.9,0.5c-1.9-0.2-3.9-0.1-5.8,0.2c-0.4,0.1-0.8-0.2-1-0.5
		c-0.6-1.5-1.3-2.9-2-4.3C12.3,4,10.5,5.1,9,6.4c0.8,1.3,1.6,2.5,2.4,3.6c0.2,0.3,0.2,0.7,0,1c-1.1,1.8-2.2,3.4-2.9,5.2
		c-0.2,0.4-0.6,0.6-1,0.5c-1.7-0.4-3.4-0.8-5-1.2c-0.8,2.6-1,5.1-0.5,7.3c1-0.2,2-0.4,3-0.6C5.4,22,6,21.9,6.5,21.8
		c0.4-0.1,0.8,0.1,1,0.5c0.9,2.1,1.8,3.8,2.9,5.2c0.2,0.3,0.2,0.7,0.1,1c-0.9,1.5-1.7,2.7-2.6,3.8c1.3,1.4,2.8,2.6,4.6,3.4
		c0.2-0.3,0.3-0.6,0.5-0.9c0.5-1,1-2,1.6-2.9c0.2-0.3,0.5-0.5,0.9-0.4c1.7,0.2,3.5,0.3,5.2,0C20.7,31.5,20.8,31.5,20.8,31.6
		L20.8,31.6z M32.7,7.6L32.7,7.6z"/>
	<path class="st1" d="M18.4,23.1c-0.8,0-1.5-0.1-2.2-0.5c-0.6-0.3-1.1-0.6-1.4-1.1c-0.4-0.6-0.5-1.3-0.6-1.8
		c-0.1-1.8,0.3-3.5,1.2-4.6c1.2-1.5,3.1-2.1,4.7-1.6c0.1,0,0.2,0.1,0.3,0.2c1.7,0.6,2.9,2.3,3,4.1c0.1,1.8-0.8,3.5-2.4,4.5
		C20.3,22.9,19.4,23.2,18.4,23.1L18.4,23.1z M19,15.1c-0.8,0-1.6,0.4-2.1,1.1c-0.7,0.9-1,2.1-0.9,3.5c0,0.3,0.1,0.7,0.2,0.9
		c0.1,0.2,0.3,0.3,0.6,0.5c1.1,0.5,2.4,0.4,3.3-0.2c1-0.6,1.6-1.8,1.5-2.9c-0.1-1.1-0.8-2.2-1.9-2.6l-0.1,0
		c-0.2-0.1-0.3-0.1-0.5-0.2C19.2,15.1,19.2,15.1,19,15.1L19,15.1z"/>
</g>
<g class="st3">
	<path class="st1" d="M52.6,62.2c-1.4-1.5-3.1-4-4.5-7c-1.4-2.9-2-4-2.6-7.6c-0.2-1.8-0.3-1.4-0.3-3.3c0.2-0.8,0.2-1.8-0.5-2.4
		c-1.2-1.2-3.4-0.2-3.3,1.5c0,0.2,0,0.3,0,0.5c0,0.1,0,0.2,0,0.3c0,0,0,0,0,0.2c-0.1,0.8,0.3,3.7,0.3,3.7c0.3,2.8,1.3,5.5,2.5,8
		c1.4,3.2,3.2,6.2,5.5,8.8C51.7,66.7,54.3,64,52.6,62.2z"/>
</g>
<g class="st3">
	<path class="st1" d="M87,76.1c-2.7,0.7-3.7,0.6-7,0.5c-3.7-0.3-5.5-0.3-9.2-1.8l-0.1-0.1c-1.4-0.9-3.4,0.7-2.6,2.3
		c0.4,1.1,1.7,1.2,2.7,1.6c4.1,1.4,8.6,1.4,12.9,1.7c1.1,0,2.1-0.2,3.2-0.4c0.6-0.2,1.3-0.2,1.8-0.6C90.2,78.1,88.9,75.5,87,76.1
		L87,76.1z"/>
</g>
</svg>
