<?xml version="1.0" encoding="utf-8"?>
<!-- Generator: Adobe Illustrator 26.3.1, SVG Export Plug-In . SVG Version: 6.00 Build 0)  -->
<svg version="1.1" id="Layer_1" xmlns="http://www.w3.org/2000/svg" xmlns:xlink="http://www.w3.org/1999/xlink" x="0px" y="0px"
	 viewBox="0 0 245 244.1" style="enable-background:new 0 0 245 244.1;" xml:space="preserve">
<style type="text/css">
	.st0{fill:none;stroke:#F3F3F3;stroke-miterlimit:10;}
	.st1{fill:#F3F3F3;}
</style>
<path class="st0" d="M119.3,84l36.8,38.8l-36.8,38.8 M64.5,122.8h91.7"/>
<path class="st1" d="M36.9,66.5c2.4-3,4.6-7.9,5.8-11.6l-0.5-0.2L40.6,57l-7.1-5.6c-0.2-0.1-0.1-0.6,0.6-1.7l1.2-1.9l-0.5-0.5
	l-7.2,9l0.6,0.2l1.8-1.9c1.2-1.3,1.4-1.4,1.7-1.3l7.7,6.1c-0.2,1.7-1.6,4.2-3,6.1c-4.8,6.1-12.6,6.5-19.3,1.2
	c-6.6-5.3-8.4-13.1-3.7-19c2.3-2.9,4.6-4.1,6-4.6l6.5,2l0.4-0.5L19.6,40l-0.8,2.6c-1.9,1-4.1,2.3-6,4.8c-5.9,7.4-4.6,16.7,2.6,22.4
	C22.3,75.2,31.1,73.7,36.9,66.5z M53.9,49.9c2.9-2.3,3.7-5.5,3.1-9.2h-0.6c0.2,3.2-0.6,5.3-2.9,7.1c-3.4,2.6-8.4,1.4-11.8-2.9
	c-0.5-0.6-1.1-1.6-1.4-2.2l11-8.4c-0.2-0.4-0.4-0.6-0.7-1.1c-2-2.6-5.9-3.4-9.5-0.6c-4.6,3.5-4.8,10-1.1,14.8
	C43.9,52.1,49.8,53,53.9,49.9z M40.1,42.1c-1.3-3.4-0.7-7.1,1.4-8.6c2.4-1.9,5.3-0.8,7.3,1.9L40.1,42.1z M68.6,40.7
	c2-1.1,2.8-3.1,3.5-5.3l-0.5-0.2c-0.7,1.3-1.2,2.8-2.8,3.6c-1.4,0.8-3,0.6-4.1-1.6l-6.4-12.7l5.5-2.9L63.4,20l-5.9,3.1l-1.8-3.6
	l-2,1.1l1.7,3.6l-2.8,1.7l0.4,1.3l3.2-1.6l6.5,13.1C64.6,42,66.9,41.6,68.6,40.7L68.6,40.7z M93.2,31.9c4.4-1,6.7-4.3,6-7.7
	c-0.8-4-4.1-4.4-7.3-4.8c-3-0.4-5.3-0.8-5.8-3.4c-0.5-2.2,0.8-4,3.4-4.6c1.6-0.4,2.8,0,3.7,0.4l2.5,3.4l0.7-0.1l-1.4-5l-1.3,0.7
	c-1.3-0.2-2.6-0.4-4.1,0c-3.6,0.7-5.8,3.8-5.2,7c0.7,3.4,3.8,4.1,6.6,4.3c3.5,0.4,5.8,1.1,6.4,3.7c0.5,2.5-1.1,4.7-4.1,5.3
	c-1.8,0.4-3.8-0.2-5.4-1.9l-1.4-2.4l-0.6,0.1l1.6,5.2C89.3,32.4,91.3,32.3,93.2,31.9L93.2,31.9z M110.3,29.8
	c2.3-0.1,3.8-1.7,5.4-3.4l-0.4-0.4c-1.2,1-2.3,2-4,2c-1.7,0.1-3-0.7-3-3.1l-0.5-14.3l6.2-0.4l0.4-1.6L107.8,9l-0.4-4L105,5.1v4.1
	l-3.2,0.4l-0.2,1.3l3.6-0.1l0.6,14.6C106,29.2,108.2,29.8,110.3,29.8L110.3,29.8z M131.4,30.7c1.6,0.1,2.9-1.2,4.1-2.3l-0.4-0.5
	c-0.8,0.7-1.8,1.3-2.5,1.2c-0.8-0.1-1.3-0.5-1.1-1.7l1.7-11.2c0.8-5.2-1.3-6.8-4.9-7.3c-3.6-0.4-8.6,1.8-8.9,4
	c-0.1,1.2,0.6,1.8,1.6,1.9c1.1,0.1,1.9-0.6,2-1.4c0.1-1.1-0.8-1.7-0.7-2c0.1-0.6,2.3-1.7,4.4-1.4c2.5,0.2,4.8,1.6,4.1,6.2l-0.2,2
	c-8.9,1.3-11.8,3.1-12.1,6.5c-0.2,2.5,1.6,4.7,4.4,5c2,0.2,4.2-1,6.4-2.5v0.1C128.9,29.3,130.1,30.6,131.4,30.7L131.4,30.7z
	 M124.1,28.3c-2.2-0.2-3.4-1.7-3.1-3.8c0.2-2.8,2.3-4.3,9.4-5.4l-1.1,7.3C127.8,27.4,126,28.4,124.1,28.3L124.1,28.3z M135.8,31.1
	l9.1,2.6V33l-2.2-0.7c-1.4-0.5-1.3-0.5-1.3-0.8l2.9-10.1c2.4-3.7,4.4-5.6,6.7-5.6c-0.2,1.4,0.4,2.5,1.3,2.8c1.1,0.4,2-0.5,2.3-1.4
	c0.2-1-0.2-2.3-1.7-2.6c-2.4-0.7-5.2,1.3-8.3,5.8l2.3-7.3l-5.9-0.4l-0.2,0.5l1.7,0.7c1.1,0.4,1.2,1,0.6,3L139,31.1
	c-0.1,0.5-0.5,0.4-1.6,0.1l-1.6-0.4C136,30.6,135.8,31.1,135.8,31.1L135.8,31.1z M157.3,39.2c2,1,4.2,0.2,6.2-0.5l-0.1-0.5
	c-1.4,0.2-2.9,0.7-4.4,0c-1.6-0.7-2.3-2-1.3-4.1l6.1-12.8l5.6,2.6l1.1-1.2l-6-2.8l1.7-3.6l-2.2-1l-1.8,3.6l-3-1.2l-1,1.1l3.2,1.6
	L155,33.7C153.7,36.7,155.4,38.4,157.3,39.2L157.3,39.2z M172,47.6c3,2,6.4,1.8,9.7,0.1l-0.2-0.6c-3,1.2-5.3,1.1-7.7-0.6
	c-3.5-2.4-4-7.6-0.8-12c0.5-0.6,1.2-1.4,1.7-2l11.4,7.9c0.2-0.4,0.5-0.6,0.7-1c1.8-2.8,1.4-6.6-2.3-9.2c-4.8-3.2-10.9-1.4-14.4,3.6
	C166.8,38.9,167.8,44.8,172,47.6L172,47.6z M175.1,32.2c2.8-2.4,6.5-2.9,8.6-1.3c2.5,1.8,2.4,4.8,0.5,7.4L175.1,32.2z M190.4,64.3
	l4.7,3.5l0.4-0.4l-1.4-1.7c-0.6-0.8-0.4-1.2,0.1-1.8l21.4-20.5l-5.2-3.6l-0.5,0.2l1.4,1.9c0.8,1,0.6,1.4-0.7,2.6l-6.2,5.9l-0.1-0.1
	c-0.5-1.7-1.1-3.2-2.6-4.9c-3.8-4-10.4-4.3-15.1,0.1c-4.3,4.2-4.7,9.7-1.4,13.1c2.2,2.3,5.2,2.6,7.7,2.6v0.1L190.4,64.3L190.4,64.3z
	 M187.6,58.7c-2.9-3-1.9-7.9,1.9-11.5c4.1-3.8,8.6-4.4,11.6-1.4c1.7,1.8,2.2,4.4,1.8,6.6l-8.9,8.5C191.6,61,189.4,60.6,187.6,58.7
	L187.6,58.7z M204.7,85.6c1.8,4.4,6.1,5.8,11.2,7.3c-4.8,5.3-5.3,7.3-4.4,9.5c1,2.4,3.8,3.4,5.4,4l0.2-0.6c-1.1-0.4-3-1.2-3.7-2.8
	c-0.8-2,0.6-3.8,5.2-9.2l8.2,2.4c2.3,0.6,2.9,0.6,3.7,2.5l0.6,1.1l0.7-0.1l-3.8-9.4l-0.6,0.4l0.4,1.3c0.6,2.2,0.5,3,0,3.1
	c-0.5,0.2-4.7-0.6-8.8-1.9c2.3-2.9,4.3-7.3,4.6-10.9c2.9,3.4,6,4.1,8,3.2c2.4-1,4.3-4.2,2.6-8.3c-1.6-4-6.2-5.2-8.9-4.1
	c-2.4,1-3.5,3.4-3.8,6.4c-3.7-4.2-8.6-5.6-12.5-4.1S203,81.4,204.7,85.6L204.7,85.6z M223.7,81.5c0.2-3.7,1.2-5.6,3.7-6.7
	c2.4-1,5.2,0,6.1,2.4c1,2.4-0.5,5.2-2.9,6.1C228.5,84.1,226.3,84,223.7,81.5L223.7,81.5z M207.2,86.4c-1.6-3.8,0.2-7.6,4.2-9.1
	c3-1.2,7-0.5,10.2,2.9c0,4-2,8.3-5.3,12.1C211.9,91,208.7,89.8,207.2,86.4L207.2,86.4z M214.9,129.2c0.1,3.6,2.2,6.2,5.5,8l0.4-0.5
	c-2.8-1.7-4-3.6-4-6.6c-0.1-4.3,3.8-7.6,9.2-7.7c0.8,0,1.9,0.1,2.6,0.2l0.1,13.9c0.5,0,0.7,0.1,1.2,0.1c3.2,0,6.2-2.6,6.1-7.2
	c-0.1-5.8-5.2-9.7-11.3-9.6C219.1,119.9,214.8,124.1,214.9,129.2L214.9,129.2z M229.3,122.8c3.5,1,6.1,3.6,6.1,6.2
	c0,3.1-2.5,4.7-5.9,4.8L229.3,122.8z M215.6,138.4l-1.4,7.6h0.7l0.5-1.6c0.2-1.2,1.1-1.1,1.8-0.4l5.6,5.5l-7.7,3.5
	c-0.7,0.4-1.2,0-1.2-1l0.1-1.3l-0.6-0.2l-1.6,8.4h0.7l0.2-1.1c0.2-1,0.7-1.2,1.9-1.7l9.7-4.6l5,5.3c1.3,1.3,1.8,2.3,1.7,3.4
	l-0.1,1.3l0.6,0.2l1.4-7.4h-0.3l-0.5,1.6c-0.4,1.1-1.1,1.1-1.8,0.4l-5-5l7.1-3.4c0.8-0.2,1.2,0.1,1.1,1.1l-0.1,1.3l0.6,0.2l1.6-8.5
	H235l-0.4,1.1c-0.2,1-0.7,1.3-1.8,1.8l-9.2,4.2l-5.5-5.9c-1.3-1.2-1.7-2.3-1.6-3.2l0.1-1.4L215.6,138.4L215.6,138.4z"/>
<path class="st1" d="M201.2,154l-3.8,9l0.6,0.1l1-2c0.6-1.3,0.8-1.6,1.1-1.3l10.4,4.3v0.1c-1.2,1.1-2.6,2.6-3.5,4.7
	c-2,4.8,0.5,11,6.5,13.6c5.5,2.3,10.7,0.4,12.5-4c1.2-2.9,0.4-5.9-0.7-8.2l0.1-0.1l3.5,1.6l1.1-5.9l-0.4-0.2l-1,1.7
	c-0.5,1.1-1.1,1.1-3,0.2l-24.5-10.2c-0.4-0.1-0.2-0.6,0.1-1.6l0.5-1.6L201.2,154L201.2,154z M207.7,169.3c1-2.3,3.1-3.8,5-4.3
	l11.6,4.9c0.8,2,1.4,4.3,0.5,6.7c-1.7,4-6.4,4.9-11.2,2.9C208.7,177.2,206,173.3,207.7,169.3L207.7,169.3z M202.3,180.1l-4.8,7.6
	l0.6,0.2l0.8-1.2c0.8-1.3,1-1.3,1.3-1.2l25.9,16.3l2-5.6l-0.4-0.4l-1.2,1.6c-0.8,1-1.3,1-3.1-0.2l-22-13.8c-0.4-0.2-0.2-0.6,0.2-1.6
	l0.7-1.3V180.1L202.3,180.1z M189.7,196.6c-3.7,4.2-3.2,10.7,1.4,14.8c4.6,4,10.8,3.6,14.5-0.6c3.8-4.3,3.2-10.8-1.3-14.9
	C199.8,191.9,193.4,192.2,189.7,196.6L189.7,196.6z M190.2,197c1.2-1.3,2.8-2.2,4.3-2.3c2.5-0.1,5.6,1.2,8.4,3.6
	c4,3.5,5,8.8,2.3,11.9c-1.2,1.4-2.9,2.2-4.7,2.2c-2.5,0.1-5.3-1.2-7.8-3.5C188.6,205.3,187.4,200,190.2,197z M181.8,205.7l-7.4,5.8
	l0.5,0.5l1.8-1.3c1.2-0.8,1.2-0.7,1.4-0.5l6.5,8.3c1.6,4.2,1.9,7,0.6,8.8c-1.1-1.1-2.3-1.2-3-0.6c-0.8,0.7-0.8,1.9-0.2,2.6
	c0.6,0.8,1.9,1.2,3.2,0.2c2-1.6,1.9-4.9,0.2-10.1l4.6,6.1l3.7-4.6l-0.2-0.5l-1.7,1c-1,0.6-1.4,0.4-2.8-1.2l-9-11.6
	c-0.2-0.4,0-0.6,0.8-1.3l1.2-1.1L181.8,205.7L181.8,205.7z M160.8,219.1c-3.2,1.7-4.6,4.8-4.7,8.5h0.6c0.4-3.2,1.4-5.2,4.1-6.5
	c3.7-2,8.5,0,11,4.8c0.4,0.7,0.7,1.7,1,2.4l-12.4,6.4c0.1,0.4,0.2,0.7,0.5,1.1c1.6,2.9,5.2,4.3,9.2,2.3c5.2-2.6,6.4-9,3.5-14.4
	C171,218.8,165.4,216.8,160.8,219.1L160.8,219.1z M173,229.2c0.7,3.6-0.5,7.1-2.9,8.3c-2.8,1.4-5.4-0.1-6.8-3.1L173,229.2L173,229.2
	z"/>
</svg>
