<?xml version="1.0" encoding="UTF-8"?><svg id="a" xmlns="http://www.w3.org/2000/svg" viewBox="0 0 126.25 112.51"><defs><style>.b{fill:#010101;}.c{fill:#fff;}.d{fill:#aed3f0;}.e{opacity:.13;}</style></defs><g><rect class="c" x=".87" y="11.3" width="124.51" height="100.34"/><path class="b" d="M125.38,112.51H.87c-.48,0-.87-.39-.87-.87V11.3c0-.48,.39-.87,.87-.87H125.38c.48,0,.87,.39,.87,.87V111.64c0,.48-.39,.87-.87,.87ZM1.74,110.77H124.51V12.17H1.74V110.77Z"/></g><g><rect class="d" x=".87" y=".87" width="124.51" height="16.82"/><path class="b" d="M125.38,18.56H.87c-.48,0-.87-.39-.87-.87V.87C0,.39,.39,0,.87,0H125.38c.48,0,.87,.39,.87,.87V17.69c0,.48-.39,.87-.87,.87ZM1.74,16.82H124.51V1.74H1.74v15.08Z"/></g><g><g><path class="c" d="M21.17,37.59c0-1.7,1.38-3.07,3.07-3.07s3.07,1.38,3.07,3.07-1.38,3.07-3.07,3.07-3.07-1.38-3.07-3.07Z"/><path class="b" d="M24.25,41.53c-2.17,0-3.94-1.77-3.94-3.94s1.77-3.94,3.94-3.94,3.94,1.77,3.94,3.94-1.77,3.94-3.94,3.94Zm0-6.14c-1.21,0-2.2,.99-2.2,2.2s.99,2.2,2.2,2.2,2.2-.99,2.2-2.2-.99-2.2-2.2-2.2Z"/></g><g><path class="c" d="M36.05,37.59c0-1.7,1.38-3.07,3.07-3.07s3.07,1.38,3.07,3.07-1.38,3.07-3.07,3.07-3.07-1.38-3.07-3.07Z"/><path class="b" d="M39.12,41.53c-2.17,0-3.94-1.77-3.94-3.94s1.77-3.94,3.94-3.94,3.94,1.77,3.94,3.94-1.77,3.94-3.94,3.94Zm0-6.14c-1.21,0-2.2,.99-2.2,2.2s.99,2.2,2.2,2.2,2.2-.99,2.2-2.2-.99-2.2-2.2-2.2Z"/></g><g><path class="c" d="M50.92,37.59c0-1.7,1.38-3.07,3.07-3.07s3.07,1.38,3.07,3.07-1.38,3.07-3.07,3.07-3.07-1.38-3.07-3.07Z"/><path class="b" d="M53.99,41.53c-2.17,0-3.94-1.77-3.94-3.94s1.77-3.94,3.94-3.94,3.94,1.77,3.94,3.94-1.77,3.94-3.94,3.94Zm0-6.14c-1.21,0-2.2,.99-2.2,2.2s.99,2.2,2.2,2.2,2.2-.99,2.2-2.2-.99-2.2-2.2-2.2Z"/></g></g><path class="b" d="M23.08,84.16c-.25,0-.49-.1-.66-.31-.31-.37-.26-.92,.1-1.23l21.18-17.9c.29-.24,.7-.27,1.02-.07l21.55,13.47,33.05-39.02c.16-.19,.39-.3,.64-.31,.26,0,.49,.09,.66,.28l14.12,15.13c.33,.35,.31,.9-.04,1.23-.35,.33-.9,.31-1.23-.04l-13.45-14.42-32.91,38.84c-.28,.33-.76,.4-1.12,.18l-21.65-13.53-20.7,17.49c-.16,.14-.36,.21-.56,.21Z"/><path class="b" d="M44.11,104.03c-.16,0-.29-.13-.29-.29v-37.44c0-.16,.13-.29,.29-.29s.29,.13,.29,.29v37.44c0,.16-.13,.29-.29,.29Z"/><path class="b" d="M25.91,104.03h0c-.16,0-.29-.13-.29-.29l.22-23.78c0-.16,.13-.29,.29-.29h0c.16,0,.29,.13,.29,.29l-.22,23.78c0,.16-.13,.29-.29,.29Z"/><path class="b" d="M66.27,104.13h0c-.16,0-.29-.13-.29-.29l.22-25.27c0-.16,.13-.29,.29-.29h0c.16,0,.29,.13,.29,.29l-.22,25.27c0,.16-.13,.29-.29,.29Z"/><path class="b" d="M99.88,103.73h0c-.16,0-.29-.13-.29-.29l.22-63.78c0-.16,.13-.29,.29-.29,.16-.02,.29,.13,.29,.29l-.22,63.78c0,.16-.13,.29-.29,.29Z"/><g class="e"><path class="b" d="M122.82,17.99c-2.87,0-5.74-.19-8.61-.3-10.61-.45-21.24,.09-31.85-.36-6.05-.34-12.1-.41-18.16-.25-8.33-.1-16.66-.11-24.99-.33-5.54-.27-11.06,.34-16.6,.35-5.44,.26-10.91-.08-16.33,.48-1.47,.16-2.92,.36-4.38,.61-.61,.16-1.12,.57-1.44,1.11-1.09,1.79,.69,4.14,2.72,3.54,1.72-.25,3.47-.52,6.55-.6,3.78,0,7.56,.15,11.34,.01,4.6,0,9.18-.3,13.78-.4,4.05-.04,8.09,.17,12.14,.19,5.9-.01,11.79,.11,17.69,.11,3.41-.02,6.82-.28,10.23-.19,9.07,.31,18.13,.56,27.2,.44,5.24,.03,10.48,.13,15.71,.33,1.37,.04,2.74,.1,4.11,.06,.91,.02,1.91,.01,2.58-.71,1.48-1.43,.4-4.13-1.69-4.08Z"/></g><g class="e"><path class="b" d="M28.28,40.23c-.44-1.24-2.23-1.42-3.02-.41h-.02c-.11,.09-.22,.17-.34,.23h0c-.14,.05-.29,.09-.44,.12h-.08c-.06,0-.12,0-.18,0-.06-.01-.13-.03-.21-.05-.16-.04-.28-.09-.36-.11-.09-.05-.18-.1-.27-.15-.11-.11-.23-.21-.38-.3-1.35-.92-3.18,.42-2.73,1.99,.42,1.25,1.91,1.8,3.1,2.09,1.83,.52,5.86-1.06,4.92-3.41Z"/></g><g class="e"><path class="b" d="M43.56,40.07c-.38-1.08-1.93-1.36-2.7-.54-.09,.09-.18,.17-.28,.26l-.09,.06c-.63,.28-.52,.23-1.34,.31-.11,0-.21,0-.32-.02-.12-.03-.25-.07-.34-.1-.18-.09-.36-.18-.53-.29l-.07-.05c-.2-.18-.38-.37-.64-.44-1.57-.74-3.01,1.43-1.77,2.62,1.45,1.47,3.64,1.89,5.59,1.32,1.27-.42,3.18-1.56,2.49-3.14Z"/></g><g class="e"><path class="b" d="M58.34,40.4c-.31-1.16-1.79-1.49-2.65-.74-.11,.07-.23,.13-.35,.18-.06,.03-.12,.05-.18,.08-.06,.02-.22,.08-.4,.13-.07,.02-.14,.03-.2,.05-.14,0-.28,0-.42,0-.82-.17-.81-.24-1.04-.34-.72-.38-1.49-1.02-2.36-.78-1.3,.31-1.55,2.22-.37,2.86,.68,.32,1.27,.8,1.99,1.05,.81,.3,1.7,.38,2.56,.34,1.51-.06,3.89-.93,3.43-2.82Z"/></g></svg>