<?xml version="1.0" encoding="utf-8"?>
<!-- Generator: Adobe Illustrator 26.3.1, SVG Export Plug-In . SVG Version: 6.00 Build 0)  -->
<svg version="1.1" id="Layer_1" xmlns="http://www.w3.org/2000/svg" xmlns:xlink="http://www.w3.org/1999/xlink" x="0px" y="0px"
	 viewBox="0 0 72.4 78.9" style="enable-background:new 0 0 72.4 78.9;" xml:space="preserve">
<style type="text/css">
	.st0{fill:#050E13;}
	.st1{fill:#FFFFFF;}
	.st2{fill:#010101;}
	.st3{fill:#BA8760;}
</style>
<g>
	<g>
		<path class="st0" d="M69.1,34.2c-0.2,0-0.5-0.2-0.5-0.4c-1.1-7.6-3.8-12.4-7.8-14.1c-0.7-0.3-1.4-0.5-2.1-0.7
			c-2.1-0.6-4.3-1.3-5.2-3.4c-0.8-1.8-0.1-3.7,0.5-5.5c0.4-1.3,0.9-2.6,0.8-3.8c-0.1-2-1.6-3.9-3.6-4.7c-1.7-0.7-3.9-0.7-6.2,0
			c-2.9,0.9-5.5,2.5-8.1,4.1c-2.1,1.3-4.3,2.7-6.6,3.6c-2,0.8-4.1,1.3-6.1,1.8c-1.9,0.5-3.8,0.9-5.6,1.6C10.4,16,4.5,24.1,3.8,33.1
			c0,0.3-0.3,0.5-0.5,0.5c-0.3,0-0.5-0.3-0.5-0.5C3.5,23.7,9.7,15.2,18.2,12c1.9-0.7,3.8-1.2,5.7-1.7c2-0.5,4.1-1,6-1.8
			c2.2-0.9,4.4-2.3,6.4-3.6c2.6-1.6,5.3-3.4,8.3-4.3c2.6-0.8,4.9-0.8,6.9,0c2.4,1,4.1,3.2,4.2,5.6c0.1,1.4-0.4,2.8-0.9,4.2
			c-0.6,1.7-1.2,3.3-0.5,4.8c0.7,1.7,2.6,2.2,4.5,2.9c0.7,0.2,1.5,0.5,2.2,0.8c4.4,1.9,7.3,6.9,8.4,14.9
			C69.6,33.9,69.4,34.2,69.1,34.2L69.1,34.2z"/>
	</g>
	<g>
		<path class="st1" d="M8.9,29.5c-2.4-0.3-4.7,1.6-5.8,3.9c-1,2.3-1.1,4.8-1.1,7.3c-0.1,7.6-0.3,15.1-0.4,22.7
			c0,2.4-0.1,4.9,0.5,7.2c0.6,2.3,2,4.6,4.5,5.4c1.2,0.8,2.8,0.9,4.3,1c16,0.5,30.9,0,46.1,0.4c3.2,0.1,5.8,0.3,8.1-0.6
			c2.2-0.9,4.7-2.7,4.7-6.2c0.1-11.1,0.3-20.8,0.4-31.9c0-2,0.2-4.2-0.9-5.8c-1.8-2.9-2.8-3.1-5.3-3.1L8.9,29.5z"/>
		<path class="st2" d="M60.4,77.9c-0.8,0-1.6,0-2.4-0.1c-0.3,0-0.6,0-0.9,0c-7.5-0.2-14.8-0.2-22.4-0.2s-15.5,0-23.6-0.2
			c-1.4,0-3.2-0.1-4.6-1c-2.3-0.7-4-2.8-4.8-5.7c-0.6-2.4-0.6-4.9-0.5-7.4l0.4-22.7c0-2.4,0.1-5.1,1.2-7.5c1-2.2,3.4-4.5,6.2-4.2
			l55.2,0.2c2.6,0,3.8,0.3,5.7,3.3c1,1.6,1,3.7,0.9,5.5v0.6c-0.1,5.5-0.1,10.7-0.2,16c-0.1,5.2-0.1,10.4-0.2,16
			c-0.1,3-1.8,5.4-5,6.7C63.9,77.8,62.2,77.9,60.4,77.9z M39.4,76.6c6,0,11.8,0,17.7,0.2c0.3,0,0.6,0,0.9,0c2.7,0.1,5,0.2,6.9-0.6
			c2.9-1.2,4.4-3.1,4.4-5.8c0.1-5.5,0.1-10.7,0.2-15.9s0.1-10.4,0.2-16c0-0.2,0-0.4,0-0.6c0-1.8,0.1-3.6-0.8-5
			c-1.7-2.7-2.5-2.9-4.8-2.9L8.9,30c0,0,0,0-0.1,0c-2.4-0.3-4.4,1.7-5.2,3.6c-1,2.2-1.1,4.8-1.1,7.1L2.2,63.3c0,2.4-0.1,4.8,0.5,7.1
			c0.5,1.9,1.6,4.2,4.1,5c0,0,0.1,0,0.1,0.1c1.2,0.8,2.8,0.8,4.1,0.9c8.1,0.2,16,0.2,23.6,0.2C36.2,76.6,37.8,76.6,39.4,76.6z"/>
	</g>
	<g>
		<polygon class="st3" points="32.3,42.9 40.1,42.9 40.1,49.7 47,49.7 47.2,56.6 40.2,56.5 40.3,63.9 32.4,63.9 32.3,56.7 
			24.9,56.8 24.8,49.8 32.1,49.7 		"/>
		<path class="st2" d="M40.3,64.4h-7.9c-0.3,0-0.5-0.2-0.5-0.5v-6.7l-7,0.1c-0.1,0-0.3,0-0.4-0.1s-0.2-0.2-0.2-0.4l-0.1-7
			c0-0.3,0.2-0.5,0.5-0.5l6.8-0.1l0.1-6.3c0-0.3,0.2-0.5,0.5-0.5h7.8c0.1,0,0.3,0.1,0.4,0.1c0.1,0.1,0.1,0.2,0.1,0.4v6.3h6.5
			c0.3,0,0.5,0.2,0.5,0.5l0.1,6.8c0,0.1-0.1,0.3-0.1,0.4C47.3,57,47.2,57,47,57h-6.3l0.1,6.9c0,0.1,0,0.3-0.1,0.4
			C40.5,64.3,40.4,64.4,40.3,64.4z M32.9,63.4h6.9l-0.1-6.9c0-0.1,0.1-0.3,0.1-0.4C39.9,56,40,56,40.2,56l6.5,0.1l-0.1-5.8h-6.5
			c-0.1,0-0.3-0.1-0.4-0.1c-0.1-0.1-0.1-0.2-0.1-0.4v-6.3h-6.8l-0.1,6.3c0,0.3-0.2,0.5-0.5,0.5l-6.8,0.1l0.1,6l7-0.1
			c0.1,0,0.3,0,0.4,0.1c0.1,0.1,0.2,0.2,0.2,0.4L32.9,63.4z M32.1,49.7L32.1,49.7L32.1,49.7z"/>
	</g>
	<g>
		<path class="st2" d="M2.6,33.6L2.6,33.6c-0.2-0.1-0.2-0.2-0.2-0.2c0.8-1.7,2.1-3,3.8-3.8c0.1,0,0.2,0,0.2,0.1s0,0.2-0.1,0.2
			C4.7,30.6,3.4,32,2.6,33.6C2.7,33.5,2.7,33.6,2.6,33.6z"/>
	</g>
	<g>
		<path class="st2" d="M6,32.2L6,32.2C5.8,32.1,5.8,32,5.9,32c0.8-0.9,1.9-1.6,3-2c0.1,0,0.2,0,0.2,0.1s0,0.2-0.1,0.2
			C7.9,30.7,6.9,31.4,6,32.2C6.1,32.2,6,32.2,6,32.2z"/>
	</g>
	<g>
		<path class="st2" d="M64.2,75.2c-0.1,0-0.1-0.1-0.2-0.1c0-0.1,0-0.2,0.1-0.2c2-0.5,3.5-2.5,3.4-4.5c0-0.1,0.1-0.2,0.2-0.2l0,0
			c0.1,0,0.2,0.1,0.2,0.2C67.9,72.5,66.3,74.7,64.2,75.2L64.2,75.2z"/>
	</g>
	<g>
		<path class="st2" d="M64.6,72.8c-0.1,0-0.1,0-0.2-0.1c0-0.1,0-0.2,0.1-0.2c0.4-0.2,0.7-0.5,0.9-0.9c0.2-0.4,0.3-0.9,0.4-1.3
			c0-0.1,0.1-0.2,0.2-0.1c0.1,0,0.2,0.1,0.1,0.2c-0.1,0.4-0.2,0.9-0.4,1.4C65.5,72.3,65.1,72.6,64.6,72.8
			C64.7,72.8,64.6,72.8,64.6,72.8z"/>
	</g>
	<g>
		<path class="st1" d="M6,28c-0.7,0-1.4,0-2.1,0.2c-1.2,0.4-2,1.5-2.4,2.6C1.1,32,1.1,33.3,1,34.5c0,1.5-0.1,3-0.1,4.5
			c0,0.2,0,0.4,0.1,0.5c0.1,0.2,0.4,0.3,0.7,0.3c3.2,0.4,6.4-0.7,8.7-2.9s3.5-5.8,3.3-8.9C12.8,27.9,7.7,28,6,28z"/>
		<path class="st2" d="M2.8,40.4c-0.4,0-0.9,0-1.3-0.1c-0.2,0-0.7-0.1-1-0.5c-0.2-0.3-0.2-0.6-0.2-0.8l0.2-4.5
			c0-1.2,0.1-2.5,0.5-3.8c0.5-1.5,1.5-2.5,2.7-3c0.8-0.3,1.6-0.3,2.3-0.3c0.5,0,1.4,0,2.4,0c2.2,0,4.7,0,5.2,0
			c0.3,0,0.5,0.2,0.5,0.5c0.3,3.4-1.1,7.1-3.4,9.3C8.6,39.3,5.7,40.4,2.8,40.4z M5.8,28.5c-0.6,0-1.2,0-1.8,0.2
			C3.2,29,2.4,29.9,2,31c-0.4,1.1-0.4,2.3-0.5,3.5L1.4,39c0,0.1,0,0.2,0,0.2s0.1,0,0.3,0.1c3,0.4,6.1-0.7,8.3-2.8
			c2-1.9,3.2-5.1,3.1-8.1c-1,0-3,0-4.7,0c-1,0-1.9,0-2.4,0l0,0C5.9,28.5,5.9,28.5,5.8,28.5z"/>
	</g>
	<g>
		<path class="st1" d="M0.5,72.8c0,0.7,0,1.4,0.2,2.1c0.4,1.2,1.5,2,2.6,2.4c1.2,0.4,2.4,0.5,3.6,0.5c1.5,0.1,3,0.1,4.5,0.2
			c0.2,0,0.4,0,0.5-0.1c0.2-0.1,0.3-0.4,0.3-0.7c0.4-3.2-0.7-6.4-2.9-8.7c-2.2-2.3-5.8-3.5-8.9-3.3C0.5,66,0.5,71.1,0.5,72.8z"/>
		<path class="st2" d="M11.7,78.4c-0.1,0-0.1,0-0.1,0L7,78.2c-1.2,0-2.5-0.1-3.8-0.5c-1.5-0.5-2.5-1.5-3-2.7C0,74.3,0,73.5,0,72.8
			l0,0c0-0.5,0-1.4,0-2.4c0-2.2,0-4.7,0-5.2c0-0.3,0.2-0.5,0.5-0.5c3.4-0.3,7.1,1.1,9.3,3.4c2.3,2.4,3.5,5.8,3.1,9.1
			c0,0.2-0.1,0.7-0.5,1C12.1,78.4,11.9,78.4,11.7,78.4z M1,72.8c0,0.7,0,1.3,0.2,1.9c0.3,0.9,1.2,1.7,2.3,2.1s2.3,0.4,3.5,0.5
			l4.5,0.2c0.1,0,0.2,0,0.2,0s0-0.1,0.1-0.3c0.4-3-0.7-6.1-2.8-8.3c-1.9-2-5.1-3.2-8.1-3.1c0,1,0,3,0,4.7C1,71.3,1,72.2,1,72.8
			L1,72.8z"/>
	</g>
	<g>
		<path class="st1" d="M66.4,78.4c0.7,0,1.4,0,2.1-0.2c1.2-0.4,2-1.5,2.4-2.6c0.4-1.2,0.5-2.4,0.5-3.6c0.1-1.5,0.1-3,0.2-4.5
			c0-0.2,0-0.4-0.1-0.5c-0.1-0.2-0.4-0.3-0.7-0.3c-3.2-0.4-6.4,0.7-8.7,2.9c-2.3,2.2-3.5,5.8-3.3,8.9C59.5,78.4,64.7,78.4,66.4,78.4
			z"/>
		<path class="st2" d="M60.9,78.9c-1,0-1.9,0-2.2,0s-0.5-0.2-0.5-0.5c-0.3-3.4,1.1-7.1,3.4-9.3c2.4-2.3,5.8-3.5,9.1-3.1
			c0.2,0,0.7,0.1,1,0.5c0.2,0.3,0.2,0.6,0.2,0.8l-0.2,4.5c0,1.2-0.1,2.5-0.5,3.8c-0.5,1.5-1.5,2.5-2.7,3c-0.8,0.3-1.6,0.3-2.3,0.3
			c-0.5,0-1.4,0-2.4,0C62.9,78.9,61.8,78.9,60.9,78.9z M59.2,77.9c1,0,3,0,4.7,0c1,0,1.9,0,2.4,0l0,0c0.7,0,1.3,0,1.9-0.2
			c0.9-0.3,1.7-1.2,2.1-2.3c0.4-1.1,0.4-2.3,0.5-3.5l0.2-4.5c0-0.1,0-0.2,0-0.2s-0.1,0-0.3-0.1c-3-0.4-6.1,0.7-8.3,2.8
			C60.4,71.7,59.1,74.9,59.2,77.9z"/>
	</g>
	<g>
		<path class="st1" d="M71.9,33.6c0-0.7,0-1.4-0.2-2.1c-0.4-1.2-1.5-2-2.6-2.4c-1.2-0.4-2.4-0.5-3.6-0.5c-1.5-0.1-3-0.1-4.5-0.2
			c-0.2,0-0.4,0-0.5,0.1c-0.2,0.1-0.3,0.4-0.3,0.7c-0.4,3.2,0.7,6.4,2.9,8.7s5.8,3.5,8.9,3.3C71.9,40.4,71.8,35.2,71.9,33.6z"/>
		<path class="st2" d="M71,41.7c-3.2,0-6.4-1.3-8.5-3.5c-2.3-2.4-3.5-5.8-3.1-9.1c0-0.2,0.1-0.7,0.5-1c0.3-0.2,0.6-0.2,0.8-0.2
			l4.5,0.2c1.2,0,2.5,0.1,3.8,0.5c1.5,0.5,2.5,1.5,3,2.7c0.3,0.8,0.3,1.6,0.3,2.3l0,0c0,0.5,0,1.4,0,2.4c0,2.2,0,4.7,0,5.2
			c0,0.3-0.2,0.5-0.5,0.5C71.6,41.7,71.3,41.7,71,41.7z M60.7,28.9C60.6,28.9,60.6,28.9,60.7,28.9c-0.1,0-0.1,0.1-0.2,0.3
			c-0.4,3,0.7,6.1,2.8,8.3c1.9,2,5.1,3.2,8.1,3.1c0-1,0-3,0-4.7c0-1,0-1.9,0-2.4c0-0.7,0-1.3-0.2-1.9c-0.3-0.9-1.2-1.7-2.3-2.1
			c-1.1-0.4-2.3-0.4-3.5-0.5l-4.5-0.2C60.8,28.9,60.7,28.9,60.7,28.9z M71.9,33.6L71.9,33.6L71.9,33.6z"/>
	</g>
	<g>
		<path class="st2" d="M4.1,47.3L4.1,47.3c-0.1,0-0.2-0.1-0.2-0.2c0.1-1.8,0.1-3.6,0-5.4c0-0.1,0.1-0.2,0.2-0.2
			c0.1,0,0.2,0.1,0.2,0.2c0.1,1.8,0.1,3.6,0,5.4C4.3,47.2,4.2,47.3,4.1,47.3z"/>
	</g>
	<g>
		<path class="st2" d="M5.9,43.8c-0.1,0-0.2-0.1-0.2-0.2l-0.1-2.3c0-0.1,0.1-0.2,0.2-0.2S6,41.2,6,41.3l0.1,2.3
			C6.1,43.7,6,43.8,5.9,43.8L5.9,43.8z"/>
	</g>
	<g>
		<path class="st2" d="M67.8,65.1L67.8,65.1c-0.1,0-0.2-0.1-0.2-0.2l0.1-3.5c0-0.1,0.1-0.2,0.2-0.2s0.2,0.1,0.2,0.2L68,64.9
			C67.9,65,67.8,65.1,67.8,65.1z"/>
	</g>
	<g>
		<path class="st2" d="M66,65.1c-0.1,0-0.2-0.1-0.2-0.2l-0.1-1.5c0-0.1,0.1-0.2,0.2-0.2s0.2,0.1,0.2,0.2l0.1,1.5
			C66.1,65,66.1,65.1,66,65.1L66,65.1z"/>
	</g>
</g>
</svg>
