<svg id="Layer_1" data-name="Layer 1" xmlns="http://www.w3.org/2000/svg" viewBox="0 0 290 278.57"><defs><style>.cls-1{fill:#0c0c0c;fill-rule:evenodd;}</style></defs><path class="cls-1" d="M132.16,79.2c.59-2.79,4.12-3.9,7.15-5.2a40,40,0,0,1,4.34-1.73c1.43-.42,6.09-2.29,6.5-.44.36,1.69-3.34,2.1-4.34,2.39a38.51,38.51,0,0,0-9.53,3.9C135,78.86,133.64,80.33,132.16,79.2Z" transform="translate(-3.21 -17.42)"/><path class="cls-1" d="M208.3,25.53c6.41,1,8.58,12.44,8.89,20.06.12,3,.57,10.38-1,10.71-1.86.41-1.46-3.12-1.47-3.84-.21-7.25-.16-16.45-3.22-20.88a12.84,12.84,0,0,0-2.22-2.2C208.68,28.83,205.76,26.68,208.3,25.53Z" transform="translate(-3.21 -17.42)"/><path class="cls-1" d="M150.36,84c-.33,2.33-3.1,3.3-5,4.34-2.66,1.45-4.68,2.92-7.37,4.55s-5,5.14-8.24,4.33c-.06-2.09,2.41-2.73,3.69-3.68,2.84-2.12,5.55-4.08,8.67-6.07,2.26-1.44,4.79-2.32,6.72-4.12A1.45,1.45,0,0,1,150.36,84Z" transform="translate(-3.21 -17.42)"/><path class="cls-1" d="M220.65,50.26a1.31,1.31,0,0,0-1-.27c-.78-2.84.24-7.73-.74-11-.41-1.34-3-4.36-.25-4.67,1.92-.22,3,4.3,3.21,5.77C222.48,44.29,222.34,48.51,220.65,50.26Z" transform="translate(-3.21 -17.42)"/><path class="cls-1" d="M141.42,47.51c.92-.3,1.89-.12,2,1.1C143.64,52.39,137.69,48.75,141.42,47.51Z" transform="translate(-3.21 -17.42)"/><path class="cls-1" d="M112.29,48.61c-.64,2.57-3.18,3.68-4.94,5.22a161.29,161.29,0,0,1-35,23.63c-1.94,1-4.7,2.77-6.92,1.11.65-2.85,3.87-3,5.68-3.85A173.38,173.38,0,0,0,99.7,56.59c3.67-2.8,6.91-6,10.37-8.53C110.73,47.58,111.63,47.16,112.29,48.61Z" transform="translate(-3.21 -17.42)"/><path class="cls-1" d="M92.79,83.78c.47-2.6,3.26-3,4.94-4.11,5.11-3.39,10.62-7,15.8-11.27C120.37,62.82,127.83,57.8,134,53c.83-.64,2.2-.6,2.47.55.38,1.64-3.42,3.56-4.94,4.67-11,8-21.3,16.2-32.82,23.91C97.15,83.19,94.84,85.92,92.79,83.78Z" transform="translate(-3.21 -17.42)"/><path class="cls-1" d="M171,79.39c0-6.27-.49-14.47-2.72-19.78-.7-1.67-2.17-2.57-2.22-4.4,2-2.37,4.22,1.63,4.94,3.57,2,5.34,3.91,17.38,1.48,20.89C171.76,79.86,171.62,79.38,171,79.39Z" transform="translate(-3.21 -17.42)"/><path class="cls-1" d="M155,91.76c-2.2-.23-1.36-3.28-1.48-5a55.16,55.16,0,0,0-1.73-10.17c-.84-3-3-5.49-2.71-8.24,3-1.92,5.26,7.26,5.92,10.44C156,83.64,157.19,89.26,155,91.76Z" transform="translate(-3.21 -17.42)"/><path class="cls-1" d="M242.61,92c0-.27-.3-.21-.49-.27-.78-1.22-.19-2.84-.25-4.4-.16-4.59-1.18-8.94-3-11.82.44-.52.72-1.21,1.73-1.1a11.21,11.21,0,0,1,3.46,6.87C244.63,85.11,245.64,91.61,242.61,92Z" transform="translate(-3.21 -17.42)"/><path class="cls-1" d="M248.29,75c1,1.71,3.07,9.84.5,9.62C247.4,84.5,244.73,75,248.29,75Z" transform="translate(-3.21 -17.42)"/><path class="cls-1" d="M197,85.71c-.4,3.71,3.08,9.37-.49,10.72-1.53-2.18-2.31-7.69-1.23-11C195.88,85.44,196.64,85.33,197,85.71Z" transform="translate(-3.21 -17.42)"/><path class="cls-1" d="M86.13,91.48c-.3,1.23-.88,2.14-2.47,1.93C81.47,91.75,85.18,88.8,86.13,91.48Z" transform="translate(-3.21 -17.42)"/><path class="cls-1" d="M81.68,95.06c-.32,2-2,2.16-3.2,3-7.92,5.47-16.57,12.17-24.44,17.31-1.55,1-3.17,3.68-5.43,2.2-.38-2.14,1.78-3,3-3.85,3.75-2.7,8.12-5,12.1-8,5.45-4,10.66-8.55,15.55-11.26C79.92,94.11,81.11,93.4,81.68,95.06Z" transform="translate(-3.21 -17.42)"/><path class="cls-1" d="M175,101.1a3.78,3.78,0,0,1-2.46,2.2c-1,3.61-2.28,6.81-6.42,6.87-2.45-2.77,2.28-3.09,3.2-4.68.71-2.52,2.62-12.2,5.19-8.51A6.1,6.1,0,0,0,175,101.1Z" transform="translate(-3.21 -17.42)"/><path class="cls-1" d="M103.4,100.83c1.43,1.91,1.67,4.91,2.48,7.69a48.41,48.41,0,0,1,2,11.27c.14,1.56,1.15,4.24-.73,4.39-2.4.2-1.86-8.19-2.47-11-1-4.31-3.68-8.28-2.47-12.36C102.78,101.19,103.2,100,103.4,100.83Z" transform="translate(-3.21 -17.42)"/><path class="cls-1" d="M200.41,117c-.81,1.13-2.5.32-3-.55-2.49,2.9-6.31,4.34-9.63,6.32,5,6.7,8.94,14.43,14.31,20.88,1.85,2.22,3.08,4.57,4.69,6.87.79,1.13,1.92,1.91,2.72,3,2.62,3.66,4.13,8.4,7.65,11.26,1.49-1.79,6.56-6,7.16-1.1.51,4.18-6.49,6.93-9.38,9.35-1.84,1.54-3.18,3.32-4.69,4.67-2.62,2.36-5.71,3.65-7.16,6.87-5.31,2.33-9,6.46-13.33,9.89,1,1.86,1.15,4.59,1.73,6.87,1.81-.55,5.42,3.53,4.44,6-2.35.84-3.12-2.36-4.44-3.57-.86,5-1.32,10.07-3.7,13.73-3.82,5.9-11.29,11.83-20.73,11-11-1-24.31-5-29.38-13.47-3.92-6.56-6.54-21.24-2-29.95-4.44-6.05-9.47-11.44-13.82-17.59-2.16.74-4.46.72-4.69-1.92-.08-.85.78-1.1,1-2.47.24-1.53-.55-2.24-.24-3,.88-2.26,3.21-2.33,4.93,0,8.29-4.08,14.89-11.18,22.71-16.21,3.88-2.49,7.93-4.83,11.85-7.42,7-4.66,14.11-9.72,22-13.74-.38-2.15-3.85-3.52-3.71-6.32.31-5.88,7.09-.11,7.9,2.75,3.13-2,6.28-4,9.63-5.78-.44-.94-5.15-5.53-2-6,1.26-.2,3.17,2.77,4.94,4.4C198.33,113.76,200.86,115,200.41,117Zm-17,9.34c-9.44,6.07-19.27,11.72-28.39,18.14,4.78,5.61,8.3,12.11,13.08,17.31,2.2,2.4,5.28,3.89,7.16,6.32,2.47-1.28,3.86-3.76,6.67-4.67-1.87-2.45-1-5.66,1.72-5.49,1.8.1,2,2.28,3.46,2.19,4.77-5.93,8.29,3,2.71,4.95,3.42,4.71,6.26,10.07,11.36,12.91,4-3.11,8.08-6.21,11.35-10.16C202.9,153.92,193.52,139.73,183.38,126.38ZM164.62,166c-5.21-5.66-9-14-15.06-18.13-7.89,5.4-14.84,11.86-23.2,16.76,3.88,5.85,8.55,10.81,12.83,16.21,1.8-2.13,11-6.42,10.62-.55-.21,3.16-4.47,2.34-6.42,4.13.7,2.18,2.63,1.69,2.72,4.12a2.67,2.67,0,0,1-2.47,3c-1.9.1-2.9-2.6-4.2-2.48-1.75,8.23-1,16.27,2.22,22.54,3.73,7.18,18.21,11.05,26.66,11.54,6.58.38,12.75-4.51,15.55-9.07,2.18-3.54,2.89-9.76,2-15.39-2.16.52-3.73,4.09-6.91,4.4-2,5.68-7.48.6-8.88-1.92a73.31,73.31,0,0,0-5.18-8.52c-2.26-3-4.15-6.12-5.68-8a3.19,3.19,0,0,1-2.72-2.2c.89-3.3-1.66-2.38-2-4.67s.84-3.09,2-3.3c2.23-.41,3.67,2,4.94,3,3-2.27,6.84-3.55,9.38-6.31C168.72,169.24,166.53,168,164.62,166Zm27.15,19.79c.76-.59,5-3.08,4.93-4.13,0-.81-4.19-3.43-5.67-5.49a63.2,63.2,0,0,1-5.43-8.24c-7.71,4.15-13.64,10.28-21.47,14.29,1.87,3.07,4,5.87,6.16,8.79s3.18,6.93,6.17,9.07c1.4-3.11,4.61-4.22,6.67-6.6-3.68-2.62,1.89-8.05,3.7-3.57C188.68,188.75,189.67,187.36,191.77,185.74Z" transform="translate(-3.21 -17.42)"/><path class="cls-1" d="M140.92,128a60.47,60.47,0,0,1,3.71,5.77c1.57,2.45,5.33,4.57,3.7,7.7-1.86-.31-3.15-2.26-4.2-3.58a27.74,27.74,0,0,1-3-4.94c-.68-1.17-1.79-1.86-2.47-3A4,4,0,0,1,136,131.6c-4.51,3.27-8.32,7.28-13.58,10.44-3.49,2.11-7,5-10.86,6.87-.93.46-3.53,1.56-3.71-.54-.13-1.64,3.92-3,5.44-3.85,7.72-4.6,15.05-10.6,22.46-15.94,0-2.3.26-4.29,1.73-5,1.15.09,1.47,1.11,1.72,2.2,7-4.06,14.51-11.57,21-15.11.55-.3,2.08-1,2.23.82s-4,3.07-5.43,4.12C151.61,119.52,146.9,125.23,140.92,128Z" transform="translate(-3.21 -17.42)"/><path class="cls-1" d="M74.28,123.63c3.27-3.17,5.57,4.63,5.92,9.35.25,3.33.42,10.05-1.72,9.89s-.6-6.65-1-10.72S75.63,126.62,74.28,123.63Z" transform="translate(-3.21 -17.42)"/><path class="cls-1" d="M14.3,127.48c.42,2.4-1.38,3.1-2.22,5.22-1.54,3.88-2.24,9.21-2.47,14.84-.12,2.81,1,6.47-1.23,8.24C6,154.25,6.77,150,6.9,147.54c.39-7.71,1.9-15.68,5.18-20.06C12.26,126.83,14.19,126.55,14.3,127.48Z" transform="translate(-3.21 -17.42)"/><path class="cls-1" d="M216.45,133.53c.84.06,1.28.58,1.24,1.64a1.61,1.61,0,0,1,2.71.56c-.64,2.58-3.62,2.56-3.7,5.77-4.17-1.23-5.68,4.95-9.63,3,.44-3.45,4-3.47,5.68-5.5-1.94-3-6.17-6.25-5.19-10.72,3.07-.61,4.42,7.59,6.18,7.7C215,136.08,214.56,133.38,216.45,133.53Z" transform="translate(-3.21 -17.42)"/><path class="cls-1" d="M6.65,129.68c-1,3.17.59,9.27-3.21,9.34C3,136.58,2.83,127.37,6.65,129.68Z" transform="translate(-3.21 -17.42)"/><path class="cls-1" d="M266.8,174.2c-2.53-.79-1.89-4.25-2.22-6.32-.75-4.7-2.19-8.81-3.45-13.2-1.38-4.79-3-8.71-4-12.91,2.13-2.14,4.09,3.89,4.94,6.6a142.1,142.1,0,0,1,4.69,17C267.38,168.37,268.51,172.19,266.8,174.2Z" transform="translate(-3.21 -17.42)"/><path class="cls-1" d="M224.1,152.49c-2,1.59-3.18-.83-4.2-2.2-.71-1-5.1-3.84-1.72-4.4C220.25,145.55,224.05,150.63,224.1,152.49Z" transform="translate(-3.21 -17.42)"/><path class="cls-1" d="M73.05,185.74c-2.47-.72-2.46-5.63-2.72-9.35a120.33,120.33,0,0,1,.25-13.73,1.33,1.33,0,0,1,.74-.83c3.07.28,1.39,9.62,1.73,14.84C73.31,180.72,74.88,184.24,73.05,185.74Z" transform="translate(-3.21 -17.42)"/><path class="cls-1" d="M287.54,162.93c1.85,7-2.59,16-6.67,20.61-1.77,2-4.53,4.82-6.91,3.85,0-.32,0-.49-.25-.55.64-2.45,3.13-3.06,4.69-4.67a27.66,27.66,0,0,0,7.16-19C285.88,162.44,286.9,162.66,287.54,162.93Z" transform="translate(-3.21 -17.42)"/><path class="cls-1" d="M65.64,167.05c-.31,6,2.17,11.63,1.23,16.49-2.24.56-2.17-2.18-2.47-3.85a49.22,49.22,0,0,1-1-12.37,1.32,1.32,0,0,0,.74-.82C64.94,166.37,65.12,166.9,65.64,167.05Z" transform="translate(-3.21 -17.42)"/><path class="cls-1" d="M60.46,169a18.75,18.75,0,0,1,.49,7.69c-.58.09-.93.43-1.73.28C58.34,175.23,56.9,167.67,60.46,169Z" transform="translate(-3.21 -17.42)"/><path class="cls-1" d="M293,172c.77,2.12-.38,4.28-1.23,5.77-.7,1.24-1.85,3.64-3.7,3.3-1.3-3.46,2.79-5.19,3-8.8.2-.23.68-.16.74-.55C292.43,171.5,292.37,172.11,293,172Z" transform="translate(-3.21 -17.42)"/><path class="cls-1" d="M229.78,185.74c-.29-.05-.44.06-.49.27-1.95-.52-2.52-3.06-3.46-4.67-1.53-2.62-3.43-5-4.69-8,2.13-3,4.39,2.34,6.17,5.22C228.8,181,230.91,183.89,229.78,185.74Z" transform="translate(-3.21 -17.42)"/><path class="cls-1" d="M111.55,174.47c-1.12,1.12-3.22,3.39-4.69,1.65C106.45,173.34,111.07,171.29,111.55,174.47Z" transform="translate(-3.21 -17.42)"/><path class="cls-1" d="M118.46,203.88c-.75.26-1.48.55-2.22.82,9.2,13.67,19.55,26.05,29.62,38.75.45-.33.2-1.44.49-1.93,5.85-2,10.88-6.28,16.29-9.34,1.53-.86,3.78-2.72,5.43-1.37.13,2.85-2.87,3.21-4.44,4.12-5,2.91-10.11,7.07-16,9.07-.46,1,1.89,1.95.49,3.3-4.69-.08-6.23-4.73-8.89-8.25-1.37-1.82-3.34-3.2-4.69-5-5.49-7.16-11.31-14.64-16.29-22-1.93-2.84-4.1-5.52-5.92-8.52-1.68-2.78-4.72-5.64-4-9.62,2.54-.45,2.68,2.72,3.46,4.12,1,1.75,2.48,2.85,3,4.67,4.6-2.59,9.94-8.82,14.32-11,.72-.36,1.68.89,1.72,1.38.12,1.24-2.47,2.66-3,3A121.24,121.24,0,0,0,118.46,203.88Z" transform="translate(-3.21 -17.42)"/><path class="cls-1" d="M69.84,208.27c-2.69,1.75-4.89-2.11-6.91-3.84-2.37-2-5.15-3.18-7.41-5-4-.67-7.35-2.08-10.86-3.3.15-4.38,5-1.28,7.16-.55,4.76,1.59,8.46,3,12.09,6.05C66.38,203.77,69.38,205.72,69.84,208.27Z" transform="translate(-3.21 -17.42)"/><path class="cls-1" d="M60,204.7v1.37c-.77.82-2.64.63-3.46,0C55.19,203.52,59.33,202.73,60,204.7Z" transform="translate(-3.21 -17.42)"/><path class="cls-1" d="M244.34,213.77c-.39,2.79-3.51,3.26-5.18,4.12a114,114,0,0,0-16.79,11c-3.5,2.68-7.32,5.18-10.36,8.25-1.53,1.53-2.87,3.38-4.45,4.94-1.37,1.36-3.13,3.78-5.43,3.3-.61-3.54,2.52-4,4.2-5.77a116.21,116.21,0,0,1,16.54-14.84c6.29-4.5,13-9.1,19.25-11.54C242.74,213,243.9,212.46,244.34,213.77Z" transform="translate(-3.21 -17.42)"/><path class="cls-1" d="M128.33,230c0,1.15-.88,1.38-1.23,2.19,2.3-.18,3.35,1,3.7,3a6.07,6.07,0,0,1-1,1.1c-1.83-1.43-5.22-.7-5.68-3.3S126.91,226.39,128.33,230Z" transform="translate(-3.21 -17.42)"/><path class="cls-1" d="M131.54,272c-2.18-.54-2-3-2.71-4.68-1.89-4.22-5-8.09-8.15-11.81s-5.8-8.12-8.88-11c-2-1.85-5.48-2.27-5.68-6,.51-.08.48-.74,1-.83,1,0,2,1.47,3.21,2.48,5.21,4.3,9.37,10,14.31,15.94a42.94,42.94,0,0,1,4.94,7.42C130.84,265.87,133.83,269.17,131.54,272Z" transform="translate(-3.21 -17.42)"/><path class="cls-1" d="M139,245.37a1.47,1.47,0,0,1-2.47.55A1.36,1.36,0,1,1,139,245.37Z" transform="translate(-3.21 -17.42)"/><path class="cls-1" d="M179.43,263.23c-.22,2.92-2.79,4.93-4.69,6.87-3.85,3.92-8.39,6.43-13.33,9.62-4.33,2.79-8,4.8-12.84,7.42-1.54.84-3.67,3.3-5.42,1.38-.15-2.42,2.66-3,4.19-3.85,10.8-5.78,22.44-12.29,30.11-21.71a1.7,1.7,0,0,1,.74-.55C178.71,262.57,179,263,179.43,263.23Z" transform="translate(-3.21 -17.42)"/><path class="cls-1" d="M172,278.89c-.42,2.66-3.49,3.77-5.67,4.95-2,1.08-4.56,3.7-6.42,2.2-.28-2.27,2.62-3.26,4.69-4.4C167.17,280.24,169.74,277.11,172,278.89Z" transform="translate(-3.21 -17.42)"/><path class="cls-1" d="M192.51,72.24a20.48,20.48,0,0,0,6.91,7.7c2.86,2,5.17,4.38,7.9,6.59,6.94,5.65,15.58,9,22.21,14.84.21-7.08-1.13-19,5.43-18.68,7.25.35,2.38,19,4.2,26.1.72,2.84,7.9,7.46,9.87,9.89,3.06,3.79,5.75,6.84,8.88,10.72,4.13,5.11,8.18,12.3,11.36,18.69,1.13,2.27,1.59,5,2.71,7.15,1,1.86,2.84,3.23,4,5.49.45.91.36,2.44,1,3.85.85,1.9,2.38,2.33,2.47,3.84.21,3.32-6.42,8.09-8.39,9.9-9.57,8.77-19.43,15.85-29.87,23.63-6.76,5-13,10.81-19.75,15.94-5,3.88-10,7.68-14.8,12.1-1.53,1.4-2.7,3.27-4.2,4.66-4.38,4.08-9.65,7.62-14.56,11.82-2.38,2-4.52,4.39-6.91,6.32-7.27,5.87-14.19,10.59-22,17.31-2.14,1.85-4.65,3.36-7.65,5.5-2.11,1.5-6.56,4.63-8.39,4.39-1.29-.16-.83-.83-2-1.92-.91-.87-1.74-.91-2.22-1.65-1.76-2.71-2.08-7-3.21-9.89-4.22-10.89-12-19-18.76-27.48s-14.14-16-23.45-22c-.58,14-.37,28-1.47,42.86-.48,6.34,0,13.23-.5,18.69-.44,5.06.38,10.08-2.22,12.64-.1,2,.44,4.31-1,4.67-2,.53-1.31-2.41-1.73-4.39-.33-1.61-.84-1.07-1-2.75-.17-2,.8-4.34,1-6.6,1.23-15.35.66-37.21,1.48-51.94-5.68-.26-9.26-2.87-12.09-6.32C70.3,234.07,65.27,244.69,60,255c1.4,5-.62,9.54-5.44,9.89-2.82,5-4.69,11.08-8.14,15.39-1.34,1.8-.93,5.56-4,5.5-1.82-2,.94-3.88,1.23-6-1.37-6,3.74-10.74,5.68-15.66C44.54,259.15,46.93,248,56,251.14c8-14.55,14.58-30.66,23.44-44.24-5.8-3.84-11.66-9.06-18.26-12.37-7.28-3.65-14.85-4.91-21.48-8.24-4.82-2.42-8.78-6.46-13.08-9.62-7-5.2-15.06-12.63-14.07-26.93.47-6.61,4.57-16.44,8.15-20.89,4.46-5.55,10.9-9.72,16.79-14.28,5.55-4.32,10.69-9.47,16.78-13.47a140.5,140.5,0,0,0,17-12.92A166.3,166.3,0,0,1,87.85,74.44C93.75,70.37,100,67,106.12,62.9c4-2.65,8-6.33,12.34-9.34s8.88-5.39,12.84-8.52,7.76-6.66,11.85-9.9c3.57-2.82,6.54-5.17,10.85-8.23,2.43-1.73,5-3.19,6.91-4.68,1.27-1,2.74-3.08,4-3.57a25.76,25.76,0,0,1,6.17-1.1c7.2-.8,12.79,2,17.76,4.67,2.92,1.57,6.11,2.86,8.15,4.12,8.86,5.5,10.28,18.86,10.12,31.61C203.33,64,198.21,68.42,192.51,72.24Zm-17.28-17c-.38-.86-4.28-4.72-1.48-5.5,1.3-.36,3.5,3.3,4.19,5.22,1.75,4.82,1.63,17.12.5,20.89,1.62-1.49,3.74-2.43,5.18-4.12-.68-.25-1.35-.51-1.48-1.38a75.43,75.43,0,0,0,.25-10.71c-.42-5-2.84-8.47-3.7-12.37.43-.25.72-.66,1.23-.82,5.05,4.27,5.49,15.11,5.18,24.45a15.72,15.72,0,0,1,3.7-2.47c-.82-5.55-.47-13.73-2.22-19.24-.79-2.53-4.81-7.33-1.48-8,4.63,5.47,6,14.6,5.93,25.28,1.42-.7,2.58-1.71,3.95-2.47,3-7,.11-18.25-2.22-23.08-.75-1.55-2.93-3.6-1.24-5.22,2.92.57,4.15,4.61,5.18,7.69,1.61,4.79,2.16,10.44,2.48,16.22,3-1.7,3.63-6.13,2.95-11.55-.8-6.48-3.79-14.41-7.89-17-1.87-1.19-4.81-2.45-7.41-3.84a30.63,30.63,0,0,0-19.5-3.58c-3.16,2.71-6.06,5.71-10.12,7.42-3.79,3.45-8.15,5.76-12.09,9.07-3.79,3.18-7.41,6.94-11.36,9.9s-8.46,5.57-12.58,8.52-8.21,6.21-12.35,9.06c-6.18,4.28-12.71,7.65-18.75,11.82-2.93,2-5.53,4.83-8.4,7.14-14.23,11.53-29.32,22.13-43.19,34.08,4.85.17,7.26,2,10.61,4.39,8.13,5.69,16.92,13.27,15.06,28.59.92-.35,2.74-2.08,4-3-.78-.05-1.19-.51-1.24-1.37.92-5.74-.79-13.83-3.94-17.59,4.66-5.7,7.51,12,6.66,17.86,1.2-.49,1.76-1.7,2.72-2.47-.84-.49-.63-1.05-.74-2.2-.52-5-.24-7.77-1.73-12.09-.41-1.19-2.78-6.48,0-6.32,1.26.07,2.77,5.42,3.45,8A31.45,31.45,0,0,1,74,146.17c3-1.93,6.15-3.78,9.38-5.5-.92-4.76-.27-9.87-1.23-13.74-.62-2.5-2.9-4.71-1.73-6.87,2.64-.18,3.79,3.85,4.44,6.87a42.34,42.34,0,0,1,.5,12.64c1.2-.67,2.62-1.11,3.45-2.19-1.09-3.34-.09-7.92-1-12.1-.26-1.21-4.75-9.49-1.48-9.34,1,0,1.79,2.72,2.22,3.85A37,37,0,0,1,91.06,136c1.81-.47,2.73-1.92,4.45-2.47,0-1-1.29-.59-1-1.93,1.38-5-.37-10.5-1.73-14.56-.51-1.54-2.47-5.87-.49-6.32,1.72-.39,3.33,5.5,4,7.69a36.13,36.13,0,0,1,1.23,13.47c1-1.17,2.53-1.77,3.7-2.75a1.43,1.43,0,0,1-1-1.65,44.34,44.34,0,0,0-2.46-15.11c-.46-1.44-2.6-6.2,0-6.05,1.65.1,2.83,5.88,3.45,8.25,1.38,5.21,1.52,9.26,2,13.73,2.66-1.79,5.19-3.74,7.9-5.49.36-8.26-.64-14.21-3.22-19.24-.37-.74-3.15-5.22-.49-5.49,1.53-.16,3.71,5.66,4.45,7.69,1.87,5.17,1.85,9.48,2,14.84,4.81-.77,3.26-8.4,2.47-14-.67-4.73-3.16-8.95-2.47-11.82.25,0,.3-.22.5-.27,4.8,4,4.53,13.64,5.42,22,1.38-.67,2.6-1.51,4-2.2,0-10.19-1.86-18.26-5.43-24.45,3.77-2.68,5.25,4.34,6.18,8,1.19,4.71,1.63,10.21,2.22,14.57a35.87,35.87,0,0,1,5.18-3.85,67.53,67.53,0,0,0-2-15.11c-.84-3.29-2.44-5-3.71-7.43,1.71-3,4.72,1.66,5.68,4.13,1.74,4.48,2.29,10.94,2.46,16.49,2.81-1,2.25-5.89,2-9.35-.46-5.89-3.33-11.88-4.69-16.21,2.15-3,4.25,3,4.94,5.22A48.92,48.92,0,0,1,139,103c.53.11,1.83-1.26,2.47-1.93-.54-.24-.88-.68-.75-1.65a36.74,36.74,0,0,0-1.48-15.67c-.67-2.2-3.5-5.9-.24-7.14,1.54,1.81,2.21,4.74,3,7.42a61.41,61.41,0,0,1,2,15.67,12.72,12.72,0,0,1,4-2.48c0-1-1.06-.83-.74-2.19,1.24-4.81,0-9.85-1.48-14.57-.53-1.7-3.55-7.12-1.23-7.69,1.87-.47,3.4,5.53,4,7.42,1.56,5.39,2.41,9.84,1.72,15.39,1.53-1.16,3.1-1.82,4.94-3,.83-.54,4.14-2.58,4.44-3.85a6.5,6.5,0,0,1-.49-1.92c-.3-5-.64-12.82-2-17-.69-2.15-3.18-3.83-2.47-5.77,3-1.76,4.75,4.1,5.43,8.24a105.3,105.3,0,0,1,1.73,14.84c1-.07,2.45-2,4-2.47.53-7.65-1.58-12.36-2.72-18.14-.89-1.86-4.46-5.61-2-7.69,1.89,1.12,3.25,4,4.2,6.32,1.91,4.72,2.94,11,3.21,17.31a52.69,52.69,0,0,0,9.62-6.59c-1,.11-1.71-.1-1.72-1.1C176.94,69.23,177.18,59.52,175.23,55.21Zm8.64,23.63c1.4,7.59,2.39,15.53,3.95,23.36.27,1.39,2.49,6.7-.5,6-1.07-.23-1.85-4.21-2.22-6-1.56-7.81-2.28-14.8-3.7-21.71-.83,0-2.33,1.61-3.46,2.2.59,2.11,0,3.94.25,6,.33,3.25,2.75,6.33,1.24,8.52-3.63-.91-3.77-7.77-4-12.64-27.73,18.89-54.38,38.31-82.69,56.61-5.74,3.71-11.68,7.17-17.77,10.44-4,3.6-11.51,10.65-19,13.74-11,4.57-22.62-2-19.75-14.84-3-5.91-3.76-14.31-4-23.36a11.93,11.93,0,0,0-3.21,1.38c1.18,7.39,2.21,14.9,3.7,21.71.61,2.77,2.24,5.18,2,8-.62,0-.77.43-1.24.55-2.87-3.09-3.11-8.33-4.2-13.2s-1.84-10.13-2.71-14.83c-2,.86-1.19,5.5-1,8a57.6,57.6,0,0,0,1.72,8c.66,2.68,1.06,5.73,1.73,8,.86,2.91,3.63,5.7,2,8.25-2,.38-2.36-2.35-3-3.85-2.63-6.59-4.19-15.31-5.43-23.35-1.29,3.11-1.26,7.94-1,11.54.48,6.21,3.94,10.89,4.93,15.94-.52.24-.73.83-1.48.82-1.95-1.8-2.61-5-3.7-7.69a37.64,37.64,0,0,1-2.72-12.09c-3.72,11,2.09,21.14,7.16,25.55,2.15,1.87,5.13,3.73,7.9,6A46,46,0,0,0,42,181.61c7,3.41,15.12,4.57,22,8.25,7.17,3.86,12.56,8.73,18.51,12.09,1.1-2.16,2.2-4.33,3.46-6.32-5.48-2.82-1.18-14.41,0-18.68.46-1.65.33-3.47.74-4.4,1.12-2.53,4.4-3.77,6.66-4.13.56-4.09,1.49-8.68,3.21-11.81,1.58-2.86,5.14-5.46,7.16-1.93,2.55,4.46-1,13.26-2.22,17.59,2.68.54,3.95,1.8,4.2,4.68.53,6.27-4,15.19-4.45,20.6-1.1,2.43-5.46,2.8-7.9,1.38v10.44C114,226.52,133.54,245,143.64,274c1-.79,2.39-1.19,3.45-1.92-.88-3.62-.47-7.55-1.48-11-.74-2.53-3.85-5.19-1.73-7.15,4.85,2.21,4.25,10.48,5.93,16.21,1.23-1.38,3.34-1.77,4.19-3.57-.72-3.63-.86-8.4-1.73-11.82-.36-1.44-2.19-3.57,0-4.39,3.75,2.14,2.89,9.42,4.2,14.29,1.55-.75,2.48-2.19,3.95-3-1.33-2.33-1.27-6.42-2.22-9.34-.59-1.81-2.89-4.49-.25-5.49,3.24,2.53,3.1,8.82,4.69,13.18a24.89,24.89,0,0,1,4.2-3,49.43,49.43,0,0,0-2.47-10.16c-.46-1.29-2.6-5.27-.24-5.5,1.85-.19,2.59,4.19,3.2,6.05a58.07,58.07,0,0,1,2,7.69c1.1-1.35,3-1.74,3.71-3.57-.82-2-1.69-4.43-2.47-6.88-.72-2.27-2.32-5.14-1-7.14,2.41.09,2.83,3.43,3.46,5.5.74,2.43,1.42,5,2.22,7.14,1.7-.39,2.54-1.75,4-2.47-1-1.45-.77-3.52-1.24-5.5-.76-3.27-4.3-8.44-1.72-9.07,1.64-.4,2.2,2.47,2.71,3.85,1.16,3.17,1.88,5,2,8.25,1.16,0,1.35-1.06,2.22-1.38,0-2.64-.79-4.5-1.73-6.87-.59-1.5-2.69-5.52-.49-6,1.56-.38,2.43,3.05,3,4.39a51.06,51.06,0,0,1,1.73,6.05,8.33,8.33,0,0,0,2.46-1.93,50,50,0,0,0-1.48-8c-.42-1.43-3.06-6.05-.49-6.33,2.86-.3,3.48,10.1,4.45,12.1a6.29,6.29,0,0,0,3-2.48c-1.1-2.55-1.49-6.32-2.22-9.34-.38-1.6-2.17-3.72-.49-4.95,4.21,1.27,2.83,8.76,4.94,12.37,1.08-.63,2.33-1.07,2.71-2.48.08-3.72-4.21-8.43-1.23-11,2.27,1.78,2.47,5.86,3.45,9.07,1-1.09,2.42-1.7,3-3.3a85,85,0,0,0-3-10.16c-5.66-2.6,3.6-5.13,5.68-8,.62-.84-.16-1.85,1-2.2.63-.81,1.2.7,1.72,0-1.68-3.11-2.25-7-3.94-10.17-1.43-2.69-5.27-5.19-3.46-8.52,1.93-.33,2.44,2.31,3.21,3.58.89,1.45,2,2.68,2.71,4.12,1.54,3.07,2,6.85,4.2,9.34,0-1.25-.5-2.12.49-2.75s1.27,1,2.48.83c1.5-.19,1.24-2,2.71-1.93,0-.83-.75-2.44.25-2.74,2.48.76,4.11-1.53,6.41-2.48-.3-1.43-.88-2.95.74-3.29,1.52-.5,1,1.3,2,1.37,1.77-.67,2.14-1.71,2.47-3.57,2.21-.09,2.58-2.32,4.93-.83,1-.65,1.18-2.17,1.73-3.29,1.78.37,3.45-1.34,4.69.55.09,1.56-1.21,1.57-1.48,2.74,1.24,2.2,1.86,5.07,3.21,7.15,1.67-1.36.71-4.61.24-6.87a36.89,36.89,0,0,0-2-6.87c-.62-1.33-2.2-2-1.48-3.58,4.42-2.7,5.72,10.73,6.91,14.57,1.16-1.09,2.65-1.81,3.46-3.3-1,0-1.24-1.1-1.49-1.92-.86-2.89-.72-6-2-9.89-.61-1.87-3.46-8-1.23-8.53,1.53-.34,2.1,2.47,2.46,3.58,1.69,5.14,3.17,10.15,3.46,15.94a8.32,8.32,0,0,0,3.7-3,116.79,116.79,0,0,0-8.88-30.78c2-3.68,4.17,3.34,4.93,5.22,2.89,7.11,5.08,17.06,6.66,23.63.62-1,2.12-.94,2.47-2.2-.52-4.82-1.55-10.35-2.71-15.94-1.2-5.79-4-10.14-4.94-13.74-1.33-5,2.58-4.93,2.47-.82,4,7.69,6.35,17.29,7.4,28.31,3.89-2,7.58-6.59,11.36-9.62-.49-1.75-1.45-3-1.48-5.23-3.3-2.95-4.58-7.24-6.17-11.26A83.12,83.12,0,0,0,259.4,141c-5.6-9.29-12.55-17.86-20.49-24.19-.9,19.15-1.72,38.39-2.22,58-.35,1.07-1.38,1.39-1.73,2.47-.15,3,.69,6.51-1.48,6.32-1.74-.15-1.64-4-1.73-6.87-3.64-.95-2-7.4-1.72-11.27,1.16-17.18-.7-40.43-.5-57.16-3.17-2.54-6.66-4.89-10.12-7.14s-6.95-4.32-10.37-6.59-5.95-5.21-9.13-8c-2.22-1.92-5.14-3.47-7.15-5.49-.52-.51-1.13-1.59-2-1.37.48,6.09,1.44,13.52,2,19.5.16,1.79,1.13,4.79-1,5.23-2.44-2.71-1.75-7.63-2.22-11.82-.65-5.64-1.63-11.06-1.49-17,0-.16,0-.32-.24-.27C186.7,76.68,184.78,77.2,183.87,78.84ZM37,144.52c.24-1.2,1.19-1.6,1.48-2.75-1.66-4.38-1-11.39-2.71-15.66H35A61.54,61.54,0,0,0,37,144.52Zm3.7-5c4.19-1.26,0-9.65-.24-13.19-.76.2-.73-.47-1.49-.27A93.49,93.49,0,0,0,40.71,139.57ZM45.4,136c2.18-1.33.8-7.63-1.73-8C44.21,130.73,44.44,133.78,45.4,136Zm7.9-.27c-1.71,2.58-4.68,3.76-6.42,6.31,1.57.37,2.32,1.65,3.7,2.21,1.75-1.72,4.62-2.2,6.18-4.13C55.86,138.37,55,136.6,53.3,135.73Zm4,10.72c-.62.77-1.85.86-2.47,1.64,1.15,2.76,2,5.86,3.21,8.52C59.35,153.74,59.35,148.4,57.25,146.45ZM40.47,155a7.65,7.65,0,0,0,5.92,6c-1-1.87-.86-4.91-2.22-6.33,2.65-4.21,5.39,3.68,3.95,6.6,1-.19,2.73.48,3-.55-.91-2.65-1.53-5.63-2.23-8.52-2.16-.06-2.88-1.73-2.71-4.39-.77-.7-2.44-.4-3.45-.83C42,149.43,40.13,152.22,40.47,155Zm10.36-4.4a38.56,38.56,0,0,1,2.47,9.62c1,0,1.18-1.06,2.22-1.1a43.63,43.63,0,0,0-3.21-9.62C51.94,150,51.25,150.11,50.83,150.56Zm37.52,39.85c2.57,1.44,5.73,2.23,8.39,3.57,1.17-5.47,3.34-9.84,3.7-16.21-2.79-1.8-7-.44-8.88-3C90.23,179.68,88.46,184.12,88.35,190.41ZM236.44,189c-4.16,2.06-1.49,7,1,9.07.77-.6,1.86-.86,2.22-1.92C238.76,193.6,238.07,190.79,236.44,189ZM230,193.16c-.51.9-1.7,1.05-2.47,1.65,1,3,2.5,5.28,3.45,8.24,1.44-1,3.17-1.6,4-3.3C233.36,197.51,232.17,194.8,230,193.16Zm-4.45,3.57c-1.9.54-3.63,1.27-4.44,3a66.93,66.93,0,0,0,3,9.07c1.67-1.25,3.57-2.25,4.69-4.12C227.92,201.82,226.33,199.75,225.58,196.73Zm-7.15,5c-.74,1-2.23,1.19-2.72,2.47.61,3.35,2.23,5.58,2.72,9.07a14.39,14.39,0,0,0,3.69-2.75C220.3,208.2,220.36,203.83,218.43,201.68ZM86.87,205c.72-.07.75.63,1.48.55-.16-1.1.32-2.92-.25-3.57A19.06,19.06,0,0,0,86.87,205Zm125.38,12.92c1.41-.82,2.63-1.84,3.95-2.75-.21-2.51-1.31-4-1.72-6.32-.67-.66-.88.85-2,.55a2.36,2.36,0,0,1-1-2.47h-.74C210.37,209.47,212.61,213.57,212.25,217.89Zm-4.69-8.79a33.7,33.7,0,0,1-4.69,3.57c1,3.57,2.26,6.83,3,10.72a28.12,28.12,0,0,0,4.19-3.57C208.85,216.64,210,210.88,207.56,209.1Zm-123.66.27c-2,4.15-5.2,7-6.66,11.82,2.47,3.2,5.25,6.06,10.61,6,.9-4.13.34-9.88.5-14.83A23.42,23.42,0,0,0,83.9,209.37Z" transform="translate(-3.21 -17.42)"/></svg>