<?xml version="1.0" encoding="utf-8"?>
<!-- Generator: Adobe Illustrator 26.2.1, SVG Export Plug-In . SVG Version: 6.00 Build 0)  -->
<svg version="1.1" id="Layer_1" xmlns="http://www.w3.org/2000/svg" xmlns:xlink="http://www.w3.org/1999/xlink" x="0px" y="0px"
	 viewBox="0 0 63.1 76.7" style="enable-background:new 0 0 63.1 76.7;" xml:space="preserve">
<style type="text/css">
	.st0{fill:#FFFFFF;}
	.st1{fill:#010101;}
	.st2{opacity:0.1294;}
	.st3{fill:#BA8760;}
</style>
<g>
	<g>
		<path class="st0" d="M16.3,61.9c-4.9,0-10-0.1-14.8-0.1C1.7,66.7,1.4,76,1.4,76l14.7,0.3C16.1,76.2,16.1,66.6,16.3,61.9z"/>
		<path class="st1" d="M16.1,76.7C16.1,76.7,16.1,76.7,16.1,76.7L1.4,76.5c-0.1,0-0.3-0.1-0.3-0.2C1,76.2,0.9,76.1,0.9,76
			c0-0.1,0.3-9.4,0.1-14.1c0-0.1,0-0.3,0.1-0.4c0.1-0.1,0.2-0.1,0.4-0.1c3.1,0,6.4,0,9.5,0.1c1.8,0,3.5,0,5.3,0.1
			c0.1,0,0.3,0.1,0.3,0.2c0.1,0.1,0.1,0.2,0.1,0.4c-0.1,4.6-0.2,14.2-0.2,14.3c0,0.1-0.1,0.3-0.1,0.3C16.4,76.7,16.3,76.7,16.1,76.7
			z M1.9,75.5l13.7,0.2c0-2,0-9.2,0.1-13.3c-1.6,0-3.2,0-4.8-0.1c-3,0-6-0.1-9-0.1C2.2,66.5,2,73.6,1.9,75.5z"/>
	</g>
	<g>
		<path class="st0" d="M39.6,61.9c-4.9,0-10-0.1-14.8-0.1C25,66.7,24.7,76,24.7,76l14.7,0.3C39.4,76.2,39.4,66.6,39.6,61.9z"/>
		<path class="st1" d="M39.4,76.7C39.4,76.7,39.4,76.7,39.4,76.7l-14.7-0.3c-0.1,0-0.3-0.1-0.3-0.2c-0.1-0.1-0.1-0.2-0.1-0.4
			c0-0.1,0.3-9.4,0.1-14.1c0-0.1,0-0.3,0.1-0.4c0.1-0.1,0.2-0.1,0.4-0.1c3.1,0,6.4,0,9.5,0.1c1.8,0,3.5,0,5.3,0.1
			c0.1,0,0.3,0.1,0.3,0.2c0.1,0.1,0.1,0.2,0.1,0.4c-0.1,4.6-0.2,14.2-0.2,14.3c0,0.1-0.1,0.3-0.1,0.3C39.7,76.7,39.5,76.7,39.4,76.7
			z M25.2,75.5l13.7,0.2c0-2,0-9.2,0.1-13.3c-1.6,0-3.2,0-4.8-0.1c-3,0-6-0.1-9-0.1C25.4,66.5,25.3,73.6,25.2,75.5z"/>
	</g>
	<g>
		<path class="st0" d="M61.5,61.9c-4.9,0-10-0.1-14.8-0.1c0.2,4.9-0.1,14.2-0.1,14.2l14.7,0.3C61.3,76.2,61.3,66.6,61.5,61.9z"/>
		<path class="st1" d="M61.3,76.7C61.3,76.7,61.3,76.7,61.3,76.7l-14.7-0.3c-0.1,0-0.3-0.1-0.3-0.2c-0.1-0.1-0.1-0.2-0.1-0.4
			c0-0.1,0.3-9.4,0.1-14.1c0-0.1,0-0.3,0.1-0.4c0.1-0.1,0.2-0.1,0.4-0.1c3.1,0,6.4,0,9.5,0.1c1.8,0,3.5,0,5.3,0.1
			c0.1,0,0.3,0.1,0.3,0.2c0.1,0.1,0.1,0.2,0.1,0.4c-0.1,4.6-0.2,14.2-0.2,14.3c0,0.1-0.1,0.3-0.1,0.3C61.6,76.7,61.4,76.7,61.3,76.7
			z M47.1,75.5l13.7,0.2c0-2,0-9.2,0.1-13.3c-1.6,0-3.2,0-4.8-0.1c-3,0-6-0.1-9-0.1C47.4,66.5,47.2,73.6,47.1,75.5z"/>
	</g>
	<g>
		<path class="st0" d="M35.1,2.6C29.2,1,22.6,3.3,18.6,7.9c-4,4.6-5.4,11.2-4.2,17.1c1.4,6.8,7.9,12,12.9,12.6
			c8.1,1,14.8-2.9,16.9-5.4c3.8-4.6,5.5-11,4.1-16.9C46.9,9.5,42.2,4.5,35.1,2.6z"/>
		<path class="st1" d="M30,38.3c-0.9,0-1.7-0.1-2.6-0.2c-5.3-0.6-11.9-6-13.3-13c-1.3-6.2,0.3-13,4.3-17.5c4.2-4.9,11-7.1,16.9-5.5
			c7,1.9,12.1,6.8,13.7,13.1c1.4,5.8-0.2,12.4-4.2,17.3C42.5,35.1,36.8,38.3,30,38.3z M31.3,2.6c-4.5,0-9.1,2.1-12.2,5.7
			c-3.7,4.3-5.3,10.7-4,16.7c1.4,6.5,7.5,11.6,12.5,12.2c8.3,1,14.6-3.1,16.4-5.3c3.8-4.6,5.4-10.9,4-16.4c-1.4-6-6.3-10.6-13-12.4
			l0,0C33.7,2.7,32.5,2.6,31.3,2.6z"/>
	</g>
	<g>
		<path class="st1" d="M32.8,48.9c-0.3,0-0.5-0.2-0.5-0.5c-0.2-2.8-0.1-5.6,0.3-8.4c0-0.3,0.3-0.4,0.6-0.4c0.3,0,0.5,0.3,0.4,0.6
			c-0.4,2.7-0.5,5.5-0.3,8.2C33.3,48.6,33.1,48.9,32.8,48.9C32.8,48.9,32.8,48.9,32.8,48.9z"/>
	</g>
	<g>
		<path class="st1" d="M9.2,56.5c-0.3,0-0.5-0.2-0.5-0.5l-0.1-6.8c0-0.3,0.2-0.5,0.5-0.5c15.2-0.4,30.6-0.4,45.9,0
			c0.3,0,0.5,0.2,0.5,0.5c0,1.6,0.1,3,0.1,4.3c0,0.9,0.1,1.7,0.1,2.4c0,0.3-0.2,0.5-0.5,0.5c-0.3,0-0.5-0.2-0.5-0.5
			c0-0.7,0-1.5-0.1-2.4c0-1.1-0.1-2.4-0.1-3.8c-14.9-0.4-30-0.4-44.9,0l0,6.3C9.7,56.3,9.5,56.5,9.2,56.5
			C9.2,56.5,9.2,56.5,9.2,56.5z"/>
	</g>
	<g>
		<path class="st1" d="M32.7,56.7c-0.3,0-0.5-0.2-0.5-0.5l-0.1-7.3c0-0.3,0.2-0.5,0.5-0.5c0.3,0,0.5,0.2,0.5,0.5l0.1,7.3
			C33.2,56.4,33,56.7,32.7,56.7C32.7,56.7,32.7,56.7,32.7,56.7z"/>
	</g>
	<g class="st2">
		<path class="st1" d="M36.5,36.7c2.7-0.9,5.2-2.6,7.3-4.6c1.1-1,2-2,2.7-3.4c0.5-0.9,0.9-1.9,1.4-2.8c-0.3,0-0.5,0.1-0.7,0.3
			c-0.9,1.5-3.7,4.1-4.2,4.5c-2.6,2.1-3.1,2.3-5.6,3.3c-3.2,1.2-5.3,1.8-8.4,1.5c-0.6,0-2.9-0.5-3.2-0.7c-0.4-0.2-1.5-0.7-2.4-1.3
			c-1-0.7-2-1.4-2.9-2.2c-0.6-0.5-1.1-1-1.5-1.6c-0.8-0.7-1.5-1.5-2.1-2.4c0,0,0,0,0,0.1c-0.5-0.6-1.1-1.7-1.4-2.2
			c0.2-0.8-0.2-1.8-1.1-1.9c0.4,1.3,0.8,2.6,1.4,3.9c0.1,0.2,0.2,0.5,0.3,0.7c0.3,0.5,0.6,1.1,0.9,1.6c0.9,1.5,1.9,2.8,3.1,4
			c1.1,0.9,2.3,1.8,3.6,2.5c1.1,0.6,2.2,1.1,3.4,1.3c2.1,0.5,4.2,0.6,6.3,0.3c1.1-0.2,2.2-0.4,3.3-0.6
			C36.3,36.9,36.3,36.8,36.5,36.7z"/>
	</g>
	<g>
		<path class="st1" d="M17.2,19.8C17.2,19.8,17.2,19.8,17.2,19.8c-0.1,0-0.2-0.1-0.2-0.2c0.2-2.9,1-5.7,2.3-8.1
			c0-0.1,0.1-0.1,0.2-0.1c0.1,0,0.1,0.1,0.1,0.2c-1.3,2.4-2.1,5.1-2.3,8C17.3,19.7,17.2,19.8,17.2,19.8z"/>
	</g>
	<g>
		<path class="st1" d="M20.8,10C20.8,10,20.7,10,20.8,10c-0.2-0.1-0.2-0.2-0.1-0.2C21,9,21.6,8.4,22.2,8c0.1,0,0.2,0,0.2,0
			c0,0.1,0,0.2,0,0.2c-0.6,0.4-1.1,0.9-1.5,1.6C20.9,10,20.8,10,20.8,10z"/>
	</g>
	<g>
		<path class="st1" d="M44.1,28.2C44,28.2,44,28.2,44.1,28.2c-0.2-0.1-0.2-0.2-0.1-0.2c0.9-1.9,1.5-4.1,1.7-6.3
			c0-0.1,0.1-0.2,0.2-0.2c0.1,0,0.2,0.1,0.2,0.2c-0.2,2.2-0.8,4.4-1.7,6.4C44.2,28.2,44.1,28.2,44.1,28.2z"/>
	</g>
	<g>
		<path class="st3" d="M30.9,11.7c0.7-0.3,2,5.4,2,5.4s5-0.4,5.4,0.4c0.4,0.9-4.1,3.9-4.1,3.9s1.9,5.8,1.3,6.1
			c-0.9,0.5-4.6-3.2-4.6-3.2s-3.9,3.5-4.6,3.2c-0.3-0.2,1.4-5.9,1.4-5.9s-4.3-2.9-4.1-3.7c0.2-0.7,5.2-0.6,5.2-0.6
			S30,12.1,30.9,11.7z"/>
		<path class="st1" d="M35.3,28.1c-1.1,0-2.9-1.6-4.4-3.1c-3.9,3.4-4.5,3.1-4.8,3c-0.4-0.2-0.7-0.3,1.1-6.2c-4.3-2.9-4-3.7-3.9-4
			c0.1-0.3,0.3-1,5.3-0.9c0.4-2.1,1.3-5.2,2.2-5.6c0,0,0,0,0,0c0.2-0.1,0.4-0.1,0.6,0c0.7,0.4,1.5,3,2,5.3c2.3-0.2,5-0.2,5.5,0.7
			c0.4,0.8-0.9,2.3-4,4.3c1.8,5.8,1.3,6.1,0.9,6.3C35.6,28,35.4,28.1,35.3,28.1z M26.4,27.1L26.4,27.1L26.4,27.1z M30.9,23.8
			c0.1,0,0.3,0,0.3,0.1c1.5,1.5,3.2,2.9,3.9,3.1c0-0.8-0.7-3.4-1.4-5.5c-0.1-0.2,0-0.4,0.2-0.6c2-1.3,3.7-2.8,3.9-3.3
			c-0.5-0.3-2.7-0.3-4.9-0.2c-0.2,0-0.5-0.1-0.5-0.4c-0.4-1.9-1.1-4.1-1.5-4.9c-0.5,0.7-1.1,3.1-1.5,5.1c0,0.2-0.2,0.4-0.5,0.4
			c-1.8,0-4,0.1-4.7,0.3c0.4,0.6,2.2,2,3.8,3.1c0.2,0.1,0.3,0.3,0.2,0.5c-0.6,2-1.2,4.2-1.4,5.2c0.8-0.5,2.4-1.7,3.7-2.9
			C30.6,23.9,30.8,23.8,30.9,23.8z M37.9,17.8L37.9,17.8L37.9,17.8z"/>
	</g>
	<g>
		<path class="st0" d="M8.8,65c0.4-0.2,1.1,2.8,1.1,2.8s2.8-0.2,3,0.2c0.2,0.5-2.3,2-2.3,2s1,2.9,0.7,3.1c-0.5,0.3-2.5-1.6-2.5-1.6
			s-2.2,1.8-2.5,1.6c-0.2-0.1,0.8-3,0.8-3s-2.4-1.5-2.3-1.9c0.1-0.4,2.9-0.3,2.9-0.3S8.3,65.2,8.8,65z"/>
		<path class="st1" d="M11.3,73.6c-0.4,0-1.1-0.3-2.5-1.5c-2.1,1.7-2.5,1.5-2.7,1.4c-0.4-0.2-0.6-0.3,0.4-3.3
			c-2.4-1.5-2.2-2-2.1-2.2c0.1-0.3,0.2-0.7,3-0.6c0.4-1.7,0.8-2.7,1.3-2.9c0.2-0.1,0.3-0.1,0.5,0c0.2,0.1,0.6,0.3,1.2,2.7
			c2.7-0.2,3,0.3,3.1,0.5c0.1,0.3,0.4,0.8-2.1,2.4c1,3,0.7,3.2,0.3,3.3C11.5,73.5,11.4,73.6,11.3,73.6z M6.3,72.6L6.3,72.6L6.3,72.6
			z M8.8,70.9c0.1,0,0.2,0,0.3,0.1c0.6,0.6,1.3,1.1,1.7,1.4c-0.1-0.6-0.4-1.5-0.7-2.3c-0.1-0.2,0-0.5,0.2-0.6c0.7-0.5,1.5-1,1.8-1.3
			c-0.5-0.1-1.4-0.1-2.3,0c-0.2,0-0.5-0.1-0.5-0.4c-0.2-0.7-0.4-1.5-0.6-2c-0.2,0.5-0.5,1.3-0.6,2.2c-0.1,0.2-0.2,0.4-0.5,0.4
			c-0.7,0-1.6,0-2.1,0.1c0.4,0.3,1.1,0.8,1.7,1.2c0.2,0.1,0.3,0.4,0.2,0.6c-0.2,0.7-0.5,1.5-0.6,2.1C7.3,71.9,8,71.5,8.5,71
			C8.6,71,8.7,70.9,8.8,70.9z M12.6,68.3L12.6,68.3L12.6,68.3z M9,65.4C9,65.4,9,65.4,9,65.4S9,65.4,9,65.4z M8.8,65L8.8,65L8.8,65z
			"/>
	</g>
	<g>
		<path class="st0" d="M32.1,65c0.4-0.2,1.1,2.8,1.1,2.8s2.8-0.2,3,0.2c0.2,0.5-2.3,2-2.3,2s1,2.9,0.7,3.1c-0.5,0.3-2.5-1.6-2.5-1.6
			s-2.2,1.8-2.5,1.6c-0.2-0.1,0.8-3,0.8-3s-2.4-1.5-2.3-1.9c0.1-0.4,2.9-0.3,2.9-0.3S31.6,65.2,32.1,65z"/>
		<path class="st1" d="M34.6,73.6c-0.4,0-1.1-0.3-2.5-1.5c-2.1,1.7-2.5,1.5-2.7,1.4c-0.4-0.2-0.6-0.3,0.4-3.3
			c-2.4-1.5-2.2-2-2.1-2.2c0.1-0.3,0.2-0.6,3-0.6c0.4-1.7,0.8-2.7,1.3-2.9h0c0.2-0.1,0.3-0.1,0.5,0c0.2,0.1,0.6,0.3,1.2,2.7
			c2.7-0.2,3,0.3,3.1,0.5c0.1,0.3,0.4,0.8-2.1,2.4c1,3,0.7,3.2,0.3,3.3C34.8,73.5,34.7,73.6,34.6,73.6z M29.6,72.6L29.6,72.6
			L29.6,72.6z M32.1,70.9c0.1,0,0.2,0,0.3,0.1c0.6,0.6,1.3,1.1,1.7,1.4c-0.1-0.6-0.4-1.5-0.7-2.3c-0.1-0.2,0-0.5,0.2-0.6
			c0.7-0.5,1.5-1,1.8-1.3c-0.5-0.1-1.4-0.1-2.3,0c-0.2,0-0.5-0.1-0.5-0.4c-0.2-0.7-0.4-1.5-0.6-2c-0.2,0.5-0.5,1.3-0.6,2.2
			c-0.1,0.2-0.2,0.4-0.5,0.4c-0.7,0-1.6,0-2.1,0.1c0.4,0.3,1.1,0.8,1.7,1.2c0.2,0.1,0.3,0.4,0.2,0.6c-0.2,0.7-0.5,1.5-0.6,2.1
			c0.5-0.3,1.1-0.8,1.6-1.2C31.9,71,32,70.9,32.1,70.9z M35.9,68.3L35.9,68.3L35.9,68.3z"/>
	</g>
	<g>
		<path class="st0" d="M54,65c0.4-0.2,1.1,2.8,1.1,2.8s2.8-0.2,3,0.2c0.2,0.5-2.3,2-2.3,2s1,2.9,0.7,3.1C56,73.3,54,71.4,54,71.4
			s-2.2,1.8-2.5,1.6c-0.2-0.1,0.8-3,0.8-3s-2.4-1.5-2.3-1.9c0.1-0.4,2.9-0.3,2.9-0.3S53.5,65.2,54,65z"/>
		<path class="st1" d="M56.4,73.6c-0.4,0-1.1-0.3-2.5-1.5c-2.1,1.7-2.5,1.5-2.7,1.4c-0.4-0.2-0.6-0.3,0.4-3.3
			c-2.4-1.5-2.2-2-2.1-2.2c0.1-0.3,0.2-0.6,3-0.6c0.4-1.7,0.8-2.7,1.3-2.9h0c0.2-0.1,0.3-0.1,0.5,0c0.2,0.1,0.6,0.3,1.2,2.7
			c2.7-0.2,3,0.3,3.1,0.5c0.1,0.3,0.4,0.8-2.1,2.4c1,3,0.7,3.2,0.3,3.3C56.7,73.5,56.6,73.6,56.4,73.6z M51.5,72.6L51.5,72.6
			L51.5,72.6z M54,70.9c0.1,0,0.2,0,0.3,0.1c0.6,0.6,1.3,1.1,1.7,1.4c-0.1-0.6-0.4-1.5-0.7-2.3c-0.1-0.2,0-0.5,0.2-0.6
			c0.7-0.5,1.5-1,1.8-1.3c-0.5-0.1-1.4-0.1-2.3,0c-0.2,0-0.5-0.1-0.5-0.4c-0.2-0.7-0.4-1.5-0.6-2c-0.2,0.5-0.5,1.3-0.6,2.2
			c-0.1,0.2-0.2,0.4-0.5,0.4c-0.7,0-1.6,0-2.1,0.1c0.4,0.3,1.1,0.8,1.7,1.2c0.2,0.1,0.3,0.4,0.2,0.6c-0.2,0.7-0.5,1.5-0.6,2.1
			c0.5-0.3,1.1-0.8,1.6-1.2C53.8,71,53.9,70.9,54,70.9z M57.8,68.3L57.8,68.3L57.8,68.3z"/>
	</g>
</g>
</svg>
