<?xml version="1.0" encoding="UTF-8"?><svg id="a" xmlns="http://www.w3.org/2000/svg" viewBox="0 0 38.06 38.06"><defs><style>.b{fill:#fff;}.c{fill:#232221;}</style></defs><path class="c" d="M19.03,38.06h0C8.52,38.06,0,29.54,0,19.03H0C0,8.52,8.52,0,19.03,0h0c10.51,0,19.03,8.52,19.03,19.03h0c0,10.51-8.52,19.03-19.03,19.03Z"/><g><g><rect class="b" x="10.4" y="14.79" width="3.94" height="12.72"/><path class="b" d="M12.35,13.12c1.29,0,2.33-1.05,2.33-2.35s-1.04-2.35-2.33-2.35-2.33,1.05-2.33,2.35,1.04,2.35,2.33,2.35Z"/></g><path class="b" d="M20.64,20.83c0-1.79,.82-2.85,2.4-2.85,1.45,0,2.14,1.02,2.14,2.85v6.68h3.92v-8.06c0-3.41-1.93-5.06-4.63-5.06s-3.83,2.1-3.83,2.1v-1.71h-3.78v12.72h3.78v-6.68Z"/></g></svg>