<?xml version="1.0" encoding="utf-8"?>
<!-- Generator: Adobe Illustrator 26.2.1, SVG Export Plug-In . SVG Version: 6.00 Build 0)  -->
<svg version="1.1" id="Layer_1" xmlns="http://www.w3.org/2000/svg" xmlns:xlink="http://www.w3.org/1999/xlink" x="0px" y="0px"
	 viewBox="0 0 124.9 135.8" style="enable-background:new 0 0 124.9 135.8;" xml:space="preserve">
<style type="text/css">
	.st0{fill:#FFFFFF;}
	.st1{fill:#010101;}
	.st2{opacity:0.1294;}
	.st3{fill:#BA8760;}
</style>
<g>
	<g>
		<g>
			<path class="st0" d="M54.7,73.2l-2.4-8.1l5.1-7.3L44.9,49c-1.6,2.7-3.2,5.4-4.8,8c-0.1,0.1-0.2,0.3-0.3,0.4
				c-0.2,0.1-0.4,0.1-0.6,0.1c-2.8,0-5.6-0.1-8.3-0.2c-1.4-2.7-2.7-5.2-4.2-7.6c-0.1-0.2-0.3-0.4-0.5-0.5c-0.2-0.1-0.4,0.1-0.6,0.2
				c-3.3,2-6.6,4.1-9.9,6.1c-0.1,0.1-0.2,0.1-0.2,0.2c-0.1,0.2,0,0.5,0.1,0.7c1.2,2.3,2.7,4.4,4.4,6.3c-1.5,2.8-3.1,5.4-4.8,7.9
				c-0.4,0.6-0.9,1.2-1.6,1.4c-0.6,0.2-1.2,0-1.8-0.2c-2.3-0.7-4.6-1.4-6.9-2.3c-1.9,4.7-2.3,10-1,14.9c0.2,0.4,8.8-0.9,8.8-0.9
				l5.1,9.1l-4.1,6.9l9.5,7l4.9-7.3l8.7,0.2l3.3,7.7l12.9-4.6l-3.1-7.9l4.6-7.7l8.8-0.7l0.3-10.9L54.7,73.2z M39.8,77.4
				c0.1,0.4-0.2,1.1-0.4,1.5c-0.1,0.3-0.3,0.6-0.4,0.9c-0.3,0.5-0.8,1-1.2,1.4c-0.9,0.9-2,1.5-3.1,2c-0.5,0.2-1,0.3-1.5,0.4
				c-0.4,0.1-0.8,0.1-1.3,0.1c-0.3,0-0.6-0.1-0.8-0.1c0.8,0-0.1,0-0.4-0.1c-1.3-0.4-2.6-1.5-3.3-2.7c-0.4-0.7-0.7-1.6-0.8-2.4
				c0-0.8,0.2-1.6,0.5-2.3c0.4-1,0.9-2,1.5-2.9c0.7-1,1.6-2.1,2.7-2.6c1.1-0.6,2.3-0.7,3.4-0.2c0.5-0.2,1-0.3,1.4-0.1
				c0.8,0.3,1.5,0.7,2.1,1.4c0.6,0.7,0.9,1.3,1.2,2.2c0.1,0.3,0.2,0.5,0.2,0.8c0,0.2,0.1,0.3,0.1,0.5c0,0.2,0.1,0.5,0.1,0.7
				c0-0.1,0-0.1,0-0.2c0-0.2,0-0.2,0,0c0,0.2,0.1,0.5,0.1,0.7c0,0.1,0,0.2,0,0.4C39.9,76.7,39.9,77.1,39.8,77.4z"/>
		</g>
		<g>
			<path class="st1" d="M16.7,82.9C16.7,82.9,16.7,82.9,16.7,82.9c-0.2-0.1-0.3-0.2-0.3-0.4c2.5-8.6,5.4-17.2,8.7-25.6
				c0.1-0.1,0.2-0.2,0.4-0.2c0.1,0.1,0.2,0.2,0.2,0.4c-3.3,8.3-6.2,16.9-8.6,25.5C17,82.9,16.8,82.9,16.7,82.9z"/>
		</g>
		<g>
			<path class="st1" d="M20.5,84.3C20.5,84.3,20.5,84.3,20.5,84.3c-0.2-0.1-0.3-0.2-0.3-0.4c2.3-8.2,5.3-16.1,9-23.7
				c0.1-0.1,0.2-0.2,0.4-0.1c0.1,0.1,0.2,0.2,0.1,0.4C26.1,68,23.1,76,20.8,84.1C20.7,84.3,20.6,84.3,20.5,84.3z"/>
		</g>
		<g>
			<path class="st1" d="M19.1,100c0,0-0.1,0-0.1,0c-0.1-0.1-0.2-0.2-0.2-0.4l6.3-15.5c0.1-0.1,0.2-0.2,0.4-0.2
				c0.1,0.1,0.2,0.2,0.2,0.4l-6.3,15.5C19.3,99.9,19.2,100,19.1,100z"/>
		</g>
		<g>
			<path class="st1" d="M27.3,96.6c0,0-0.1,0-0.1,0c-0.1-0.1-0.2-0.2-0.2-0.4l3.5-8.9c0.1-0.1,0.2-0.2,0.4-0.2
				c0.1,0.1,0.2,0.2,0.2,0.4l-3.5,8.9C27.5,96.6,27.4,96.6,27.3,96.6z"/>
		</g>
		<g>
			<path class="st1" d="M33.9,67.4C33.8,67.4,33.8,67.4,33.9,67.4c-0.2-0.1-0.3-0.2-0.3-0.4l1.7-5.5c0-0.2,0.2-0.2,0.4-0.2
				c0.2,0,0.2,0.2,0.2,0.4l-1.7,5.5C34.1,67.3,34,67.4,33.9,67.4z"/>
		</g>
		<g>
			<path class="st1" d="M40.5,68.8C40.4,68.8,40.4,68.8,40.5,68.8c-0.3-0.1-0.3-0.2-0.3-0.4c1.7-4.7,3.7-9.3,5.8-13.8
				c0.1-0.1,0.2-0.2,0.4-0.1c0.1,0.1,0.2,0.2,0.1,0.4c-2.2,4.5-4.1,9.1-5.8,13.7C40.7,68.7,40.6,68.8,40.5,68.8z"/>
		</g>
		<g>
			<path class="st1" d="M33.9,96.7c0,0-0.1,0-0.1,0c-0.1-0.1-0.2-0.2-0.1-0.4l15.9-34.5c0.1-0.1,0.2-0.2,0.4-0.1
				c0.1,0.1,0.2,0.2,0.1,0.4L34.1,96.6C34.1,96.7,34,96.7,33.9,96.7z"/>
		</g>
		<g>
			<path class="st1" d="M40.2,98.1c0,0-0.1,0-0.1,0C40,98,39.9,97.9,40,97.7l10.7-23.5c0.1-0.1,0.2-0.2,0.4-0.1
				c0.1,0.1,0.2,0.2,0.1,0.4L40.5,97.9C40.5,98.1,40.4,98.1,40.2,98.1z"/>
		</g>
		<g>
			<path class="st1" d="M51.7,86.4c0,0-0.1,0-0.1,0c-0.1-0.1-0.2-0.3-0.1-0.4l4.7-8.7c0.1-0.1,0.3-0.2,0.4-0.1
				c0.1,0.1,0.2,0.3,0.1,0.4l-4.7,8.7C51.9,86.3,51.8,86.4,51.7,86.4z"/>
		</g>
		<g>
			<path class="st1" d="M43.8,102.9c0,0-0.1,0-0.1,0c-0.1-0.1-0.2-0.2-0.1-0.4l2.1-4.4c0.1-0.1,0.2-0.2,0.4-0.1
				c0.1,0.1,0.2,0.2,0.1,0.4l-2.1,4.4C44,102.8,43.9,102.9,43.8,102.9z"/>
		</g>
		<g>
			<path class="st1" d="M7.7,80.9c0,0-0.1,0-0.1,0c-0.1-0.1-0.2-0.2-0.1-0.4l2.9-6.1c0.1-0.1,0.2-0.2,0.4-0.1
				c0.1,0.1,0.2,0.2,0.1,0.4L8,80.7C8,80.9,7.9,80.9,7.7,80.9z"/>
		</g>
		<g>
			<path class="st1" d="M19.9,58c0,0-0.1,0-0.1,0c-0.1-0.1-0.2-0.3-0.1-0.4l2.1-3.9c0.1-0.1,0.3-0.2,0.4-0.1
				c0.1,0.1,0.2,0.3,0.1,0.4l-2.1,3.9C20.1,58,20,58,19.9,58z"/>
		</g>
		<g class="st2">
			<path class="st1" d="M42.3,79c-0.1-1.4-2.2-1.5-2.5-0.2c-0.4,1.3-0.2,1.1-1.6,2.4c-1.3,1.1-0.8,0.7-2.9,1.5
				c-1.9,0.6-1.1,0.5-2.7,0.5c-0.2,0-0.4-0.1-0.7-0.2c-0.8-0.3-0.5-0.1-2-1c-0.6-0.3-1.2-0.9-1.9-0.9c-2.2-0.4-3.2,2.8-1.3,3.9
				c3.4,2.4,6.8,3.4,10.7,1.5c2-1.1,3.4-3,4.2-5.2C42,80.5,42.4,79.8,42.3,79z"/>
		</g>
		<g class="st2">
			<path class="st1" d="M48.2,100.9c-1.3,0.5-1.7,0.8-4.1,1.2c-1.1,0.4-2.5,0.2-3.5,0.9c-2,1.5-0.3,4.9,2,4.1
				c2.8-0.6,6.1-0.7,8.3-2.9C52.7,102.4,50.5,99.7,48.2,100.9z"/>
		</g>
		<g class="st2">
			<path class="st1" d="M64.3,82.1C64.3,82.1,64.3,82.1,64.3,82.1C64.3,82.1,64.3,82.1,64.3,82.1c0-0.5-0.1-1-0.3-1.4
				c-1-1.9-3.9-1.6-4.5,0.4c0,0.1-0.1,0.2-0.2,0.3c-0.2,0.4-0.3,0.8-0.5,1.2c-0.1,0.3-0.3,0.7-0.4,0.9C58.1,84,58,84.4,58,84.9
				c0,3.2,4.5,3.8,5.3,0.7c0.4-1,0.8-2,0.9-3.1C64.3,82.4,64.3,82.3,64.3,82.1z"/>
		</g>
		<g>
			<path class="st1" d="M39.9,108.2c-0.4,0-0.7-0.2-0.8-0.6c-1-2.5-1.9-4.8-3.3-7.1c-2.8,0.3-5.5,0.2-8.1-0.1
				c-0.8,1.4-1.5,2.8-2.3,4.3c-0.4,0.9-0.9,1.7-1.4,2.6c-0.2,0.4-0.7,0.6-1.1,0.4c-4.2-1.6-7.8-4.3-10.5-7.7c-0.2-0.3-0.3-0.7,0-1
				c1.4-2,2.9-4.1,4.5-6.6c-1.7-2.2-3.2-4.8-4.5-8c-0.6,0.1-1.3,0.3-1.9,0.4c-2,0.4-4.1,0.9-6.4,1.2c-0.4,0.1-0.8-0.2-1-0.6
				c-1.3-4.8-0.9-10.1,1.1-16c0.1-0.4,0.6-0.7,1-0.6c2.7,0.7,5.7,1.5,8.9,2.2c1.2-2.7,2.8-5.2,4.4-7.8c-1.4-1.9-3-4.1-4.4-6.7
				c-0.2-0.4-0.1-0.8,0.2-1.1c3.1-2.8,7-5.3,11.6-7.3c0.4-0.2,0.9,0,1.1,0.4c1.4,2.5,2.7,5.2,3.8,7.9c2.9-0.5,5.9-0.6,8.9-0.3
				c1.3-2.6,2.7-5.2,4.5-8c0.2-0.4,0.7-0.5,1.1-0.3c3.4,1.8,6.6,3.9,9.5,6.4c0.8,0.7,1.6,1.4,2.3,2c0.4,0.3,0.8,0.7,1,1.4
				c0.1,0.2,0,0.5-0.1,0.7c-0.7,1-1.3,2-2.1,3c-1,1.4-1.9,2.8-3,4.4c0.9,2.2,1.8,4.5,2.6,6.7c2.5,0.2,5.6,0.7,9,2.1
				c0.3,0.1,0.5,0.4,0.5,0.8c0.3,4.4-0.3,8.4-1.8,12.3c-0.1,0.4-0.5,0.6-0.8,0.6l-1,0c-2.2-0.1-4.5-0.2-6.9,0
				c-0.9,2.3-2.3,4.5-4.4,7.1c1.3,2.3,2.6,4.7,3.8,7.5c0.2,0.4,0,0.9-0.4,1.1C49.2,106.2,44.6,107.7,39.9,108.2
				C40,108.2,40,108.2,39.9,108.2z M36.2,98.7c0.3,0,0.6,0.1,0.7,0.4c1.6,2.4,2.6,4.9,3.5,7.3c3.9-0.5,7.8-1.8,11.6-3.7
				c-1.1-2.6-2.4-4.9-3.7-7.1c-0.2-0.3-0.1-0.7,0.1-1c2.3-2.8,3.8-5.2,4.7-7.6c0.1-0.3,0.4-0.5,0.7-0.6c2.8-0.3,5.3-0.2,7.7-0.1
				l0.3,0c1.1-3.3,1.6-6.7,1.5-10.4c-3.3-1.3-6.3-1.6-8.6-1.8c-0.3,0-0.6-0.3-0.7-0.6c-0.9-2.5-1.9-5.1-2.9-7.6
				c-0.1-0.3-0.1-0.6,0.1-0.8c1.1-1.7,2.2-3.3,3.3-4.8c0.6-0.8,1.2-1.7,1.7-2.5c-0.1-0.1-0.2-0.2-0.3-0.3c-0.7-0.7-1.5-1.4-2.3-2
				c-2.6-2.2-5.5-4.2-8.5-5.8c-1.6,2.6-2.9,5.2-4.2,7.7c-0.2,0.3-0.5,0.5-0.9,0.5c-3.2-0.3-6.5-0.2-9.7,0.4c-0.4,0.1-0.8-0.1-1-0.5
				c-1.1-2.6-2.3-5.2-3.6-7.7c-3.9,1.8-7.2,3.9-9.9,6.3c1.4,2.4,2.9,4.6,4.3,6.4c0.2,0.3,0.2,0.7,0,1c-1.8,2.9-3.6,5.7-4.9,8.7
				c-0.2,0.4-0.6,0.6-1,0.5c-3.1-0.8-6.1-1.5-8.8-2.2c-1.6,4.9-1.9,9.4-1,13.5c1.9-0.3,3.7-0.7,5.5-1.1c0.9-0.2,1.8-0.4,2.6-0.6
				c0.4-0.1,0.8,0.1,1,0.5c1.5,3.6,3.1,6.5,4.9,8.8c0.2,0.3,0.3,0.7,0.1,1c-1.6,2.6-3.1,4.7-4.5,6.7c2.3,2.7,5.3,4.9,8.7,6.4
				c0.3-0.7,0.7-1.3,1-1.9c0.9-1.7,1.7-3.3,2.6-4.9c0.2-0.3,0.5-0.5,0.8-0.4c2.9,0.3,5.9,0.5,8.8,0.1C36.1,98.7,36.2,98.7,36.2,98.7
				z"/>
		</g>
		<g>
			<path class="st1" d="M32.2,83.6c-1.2,0-2.3-0.2-3.4-0.7c-0.9-0.4-1.6-0.9-2-1.6c-0.6-0.9-0.7-1.9-0.8-2.7
				c-0.2-2.9,0.5-5.5,1.9-7.3c1.8-2.3,4.7-3.3,7.1-2.4c0.2,0.1,0.3,0.1,0.4,0.3c0,0,0.1,0,0.1,0c2.6,0.9,4.5,3.5,4.6,6.3
				c0.2,2.7-1.3,5.5-3.6,7C35.2,83.2,33.7,83.6,32.2,83.6z M33.3,70.3c-1.4,0-3,0.8-4,2.1c-1.2,1.5-1.7,3.7-1.6,6.1
				c0,0.6,0.1,1.3,0.5,1.8c0.3,0.4,0.7,0.7,1.3,1c2,0.9,4.3,0.7,6.1-0.4c1.8-1.1,2.9-3.3,2.8-5.4c-0.1-2.1-1.6-4.1-3.5-4.8
				c-0.1,0-0.1,0-0.2-0.1c-0.2-0.1-0.5-0.1-0.7-0.3C33.8,70.3,33.5,70.3,33.3,70.3z M34.8,69.7l0.2,0.8c0,0,0,0,0,0L34.8,69.7z"/>
		</g>
	</g>
	<g>
		<g>
			<path class="st0" d="M68.9,22.2c-1.7-1.3-2.9-1.3-4.3-2.3c-0.1-1.6-0.5-4.4-0.7-6c1.5-1.4,2.4-1.7,3.7-2.9c0-0.2-0.1-0.4-0.3-0.7
				c-0.3-0.5-0.7-1-1-1.5c-1.3-1.9-2.8-3.6-4.4-5.1c-1.5,1.4-2.8,2.8-4.1,4.1C56,7.1,54,6.6,52,6.4c-0.2-1.9-0.6-3.7-1-5.5
				c-2.6,0.4-5.3,1.1-7.8,2.4c0.4,1.8,0.9,2.8,1.5,4.4c-1.6,1.4-3.1,2.8-4.3,4.3c-1.8-1-3.3-1.5-5-2.4c-1.8,2.7-3,5.7-3.1,8.8
				c1.9,0.2,3.1,0.2,4.8,0.3c0.3,2,0.9,4.1,1.7,6c-1.4,1.3-2.2,2.5-3.5,3.6c1,2.4,2.7,4.4,4.7,5.9c1.3-1.3,2.1-2.2,3.2-3.3
				c1.7,0.7,3.8,1.6,5.6,1.8c0.6,1.8,0.6,2.7,0.8,4.4c2.8,0.4,5.6,0.3,8.4-0.4c-0.2-1.9-0.1-3-0.5-4.7c1.6-1.1,3.2-2.7,4.2-4.2
				c1.8,0.3,2.6,0.7,4.1,1.2C67.5,26.8,68.4,24.5,68.9,22.2z M53.1,24.6c-1.2,0.4-2.4,0.8-5.6-1.2c-1.2-0.8-3.9-4.2-0.6-8.4
				c1.1-1.3,2.8-2.1,4.5-1.9c1.7,0.3,3,0.7,4,1.5c1.6,1.3,2.2,3.6,1.7,5.6C56.6,22.3,55,24,53.1,24.6z"/>
			<path class="st1" d="M52.9,38c-1.1,0-2.2-0.1-3.3-0.3c-0.4-0.1-0.7-0.4-0.7-0.8l0-0.2c-0.1-1.3-0.2-2.2-0.6-3.5
				c-1.6-0.3-3.3-1-4.7-1.5l0,0c-1,1-1.7,1.8-2.8,2.9c-0.3,0.3-0.8,0.4-1.2,0.1c-2.2-1.7-3.9-3.8-5-6.3c-0.2-0.4,0-0.8,0.2-1
				c0.6-0.5,1.1-1.1,1.7-1.7c0.4-0.4,0.8-0.9,1.3-1.4c-0.7-1.7-1.2-3.3-1.4-4.9c-0.4,0-0.7,0-1.1,0c-1,0-1.9-0.1-3.1-0.2
				c-0.4-0.1-0.8-0.4-0.8-0.9c0-3,1.1-6.2,3.2-9.3c0.3-0.4,0.8-0.5,1.1-0.3c0.8,0.5,1.6,0.8,2.4,1.2c0.6,0.3,1.3,0.6,1.9,0.9
				c1-1.2,2.2-2.2,3.4-3.3l0.2-0.2c-0.5-1.3-0.9-2.3-1.3-3.9c-0.1-0.4,0.1-0.8,0.4-1c2.3-1.2,5-2,8-2.5c0.4-0.1,0.9,0.2,1,0.7
				c0.4,1.6,0.7,3.3,0.9,5c1.6,0.2,3.3,0.6,4.8,1.1c1.1-1.2,2.3-2.5,3.7-3.8c0.3-0.3,0.8-0.3,1.2,0c1.7,1.6,3.2,3.3,4.5,5.3
				c0.4,0.5,0.7,1,1,1.6c0.2,0.3,0.4,0.7,0.4,1.1c0,0.2-0.1,0.5-0.3,0.6c-0.7,0.6-1.2,1-1.7,1.3c-0.5,0.4-1,0.7-1.6,1.3
				c0.1,0.5,0.1,1,0.2,1.6c0.2,1.2,0.3,2.6,0.4,3.6c0.4,0.3,0.9,0.5,1.4,0.7c0.8,0.3,1.6,0.7,2.6,1.5c0.3,0.2,0.4,0.5,0.3,0.9
				c-0.6,2.6-1.5,4.9-3,7c-0.2,0.3-0.6,0.4-1,0.3c-0.5-0.1-0.8-0.3-1.2-0.4c-0.8-0.3-1.4-0.5-2.3-0.7c-1,1.3-2.3,2.6-3.6,3.6
				c0.2,0.8,0.2,1.5,0.2,2.3c0,0.6,0.1,1.2,0.1,1.9c0.1,0.4-0.2,0.9-0.7,1C56.4,37.8,54.6,38,52.9,38z M50.5,36.2
				c2.1,0.3,4.3,0.2,6.6-0.3c0-0.5-0.1-0.9-0.1-1.3c0-0.9-0.1-1.6-0.3-2.5c-0.1-0.3,0-0.7,0.3-0.9c1.5-1,3-2.6,4-4
				c0.2-0.3,0.5-0.4,0.9-0.3c1.4,0.2,2.2,0.5,3.1,0.8c0.2,0.1,0.4,0.1,0.5,0.2c1-1.6,1.8-3.3,2.3-5.3c-0.6-0.4-1.2-0.7-1.8-0.9
				c-0.6-0.3-1.3-0.6-2-1.1c-0.2-0.2-0.3-0.4-0.4-0.6c-0.1-1-0.3-2.6-0.5-3.9c-0.1-0.8-0.2-1.5-0.3-2.1c0-0.3,0.1-0.6,0.3-0.7
				c0.9-0.8,1.5-1.2,2.1-1.7c0.4-0.3,0.7-0.5,1.1-0.8c-0.3-0.5-0.6-1-1-1.4c-1.1-1.6-2.3-3.1-3.7-4.4c-1.2,1.2-2.3,2.4-3.4,3.5
				c-0.2,0.3-0.6,0.4-1,0.2c-1.8-0.7-3.7-1.1-5.6-1.3c-0.4,0-0.7-0.4-0.8-0.8C51,5,50.7,3.4,50.4,1.9c-2.3,0.4-4.3,1-6.1,1.8
				C44.6,5,45,5.9,45.5,7.1l0.1,0.2c0.1,0.3,0,0.7-0.2,1l-0.6,0.6c-1.3,1.2-2.6,2.4-3.6,3.7c-0.3,0.3-0.7,0.4-1.1,0.2
				c-0.9-0.5-1.7-0.8-2.4-1.2c-0.6-0.3-1.2-0.5-1.8-0.9c-1.5,2.3-2.3,4.7-2.5,6.9c0.8,0.1,1.4,0.1,2.1,0.1c0.6,0,1.2,0,1.9,0.1
				c0.4,0,0.8,0.3,0.8,0.8c0.2,1.8,0.8,3.7,1.6,5.7c0.1,0.3,0.1,0.7-0.2,1c-0.6,0.6-1.1,1.1-1.6,1.7c-0.5,0.5-0.9,1-1.4,1.5
				c0.8,1.7,2,3.3,3.6,4.5c0.9-1,1.7-1.7,2.7-2.8c0.2-0.2,0.6-0.3,0.9-0.2l0.5,0.2c1.5,0.6,3.4,1.3,4.9,1.5c0.3,0,0.6,0.3,0.7,0.6
				C50.2,33.9,50.4,34.8,50.5,36.2z M51.4,25.9c-1.1,0-2.4-0.4-4.4-1.7c-0.8-0.5-2.2-1.9-2.5-4.1c-0.2-1.3-0.1-3.3,1.7-5.6
				c1.3-1.6,3.4-2.5,5.3-2.2c2,0.3,3.4,0.8,4.4,1.7c1.8,1.5,2.6,4.1,2,6.5c-0.5,2.3-2.3,4.2-4.5,5l0,0
				C52.8,25.7,52.2,25.9,51.4,25.9z M50.7,14c-1.2,0-2.4,0.6-3.2,1.6c-1.1,1.4-1.6,2.9-1.4,4.2c0.2,1.4,1.2,2.5,1.8,2.9
				c2.9,1.8,3.8,1.5,4.9,1.1l0,0c1.7-0.6,3-2.1,3.4-3.7c0.4-1.7-0.2-3.6-1.5-4.7c-0.8-0.7-1.8-1.1-3.5-1.3C51.1,14,50.9,14,50.7,14z
				"/>
		</g>
	</g>
	<g>
		<path class="st1" d="M66.1,135.8c-7.2,0-14.5-1.7-20.5-5.2c-8.5-5-12.7-12.6-11.8-21.5c0-0.5,0.5-0.8,1-0.8c0.5,0,0.8,0.5,0.8,1
			c-0.8,8.2,3.1,15.2,11,19.8c11.9,7,29.5,6.6,40.2-0.9c5.9-4.1,12.3-12.1,9.6-26.9c-0.1-0.5,0.2-0.9,0.7-1c0.5-0.1,0.9,0.2,1,0.7
			c2.8,15.7-4,24.2-10.3,28.6C81.9,133.7,74.1,135.8,66.1,135.8z"/>
	</g>
	<g>
		<g>
			<path class="st0" d="M88.4,88.2c-0.2-2.4-0.9-4.8-2-7c-0.6-1.1-1.3-2.2-2.2-3.2c-0.9-1-2.1-1.7-3.1-2.6
				c-3.3-2.8-5.4-6.6-5.8-10.7c-0.4-3.2-0.9-6.7-0.1-9.8c0.6-2.3,4.5-8.7,6.8-10.7c3.8-3.2,9.3-5.1,14.4-5.8
				c5.1-0.6,10.4,0.3,14.7,2.8c5.6,3.2,9.3,8.9,10.1,14.9c0.8,6-1.2,12.2-5.2,17.1c-1.6,2-3.6,3.8-5.2,5.8c-2.3,2.8-3.9,6.1-4.8,9.3
				c-2.1,0.3-4.2,0.3-6.4,0.3c-1.8,0-3.6,0-5.4,0C92.4,88.5,90.4,88.5,88.4,88.2z"/>
		</g>
		<g>
			<path class="st3" d="M87.4,88.6c6.5,0.6,13,0.6,19.5,0c0.4,5,0.7,8.1-0.8,12.9c-0.7,2.4-2,4.8-4.4,6c-2.8,1.4-6.2,0.7-9.3-0.1
				c-1.2-0.3-2.4-0.6-3.4-1.4c-1.9-1.5-2-4.1-2-6.5C87.2,95.1,87.3,92.6,87.4,88.6z"/>
		</g>
		<g>
			<g class="st2">
				<path class="st1" d="M121.8,58.3c-0.5-0.5-1.5-0.4-1.8,0.2c-0.3,0.6-0.2,0.3-0.3,1.2c0,0.1,0,0.2,0,0.3
					c-0.1,0.3-0.3,1.5-0.4,1.7c0.2-0.3,0.2-0.3,0,0c-0.9,2.2-1.1,2.8-2.2,4.6c-0.3,0.5-0.8,1.7-1.9,2.9c-1.2,1.6-4.6,4.5-6.6,7
					c-0.6,0.7-1.8,2.4-2,2.6c0,0,0,0,0,0c-0.7,0.9-1.5,1.7-2,2.7c-1.1,2-1,1.9-1.7,3.3c-0.4,0.9-1,2.2-1,3.1c0,0.1,0,0.1,0,0.2
					c-0.4,0.6-0.5,1.3-0.3,2c0.6,1.9,0.6,4.1,0.5,7.7c-0.2,3.7,0.1,2.3-1,5.6c-0.6,1.6-0.2,0.6-1,2.2c-0.2,0.4-0.5,0.7-0.5,1.2
					c-0.2,0.9,0.4,1.7,1.2,2c0.2-0.1,0.4-0.2,0.6-0.4c0.8-0.6,1.6-1.2,2.4-1.7c0.4-0.3,0.8-0.6,1.2-0.8c0.7-1.3,1.1-2.7,1.5-4.1
					c0.6-3,0.7-3.6,1.3-6.9c0.2-1.4,0.1-2.9,0-4.3c-0.1-0.9-0.1-1.9-0.8-2.7c0,0,0,0,0,0c-0.2,0-0.4,0-0.5,0.1
					c-0.3,0-0.6,0.1-0.9,0.1c1.4-4.2,2.5-6.5,5-9.6c1.6-1.8,3.4-3.5,5.1-5.2c1.6-1.5,3.1-3.3,4.2-5.2c0.6-1.3,0.5-1.2,0.9-2.2
					c0.1-0.2,0,0-0.1,0.2c0.2-0.5,0.4-1,0.6-1.4c0.3-0.7,0.5-1.5,0.7-2.3c0,0,0,0,0,0C122,60.8,122.6,59.1,121.8,58.3z"/>
			</g>
			<g class="st2">
				<path class="st1" d="M102.6,85.2c0-0.1,0.1-0.2,0.1-0.3c0,0,0-0.1,0-0.1C102.7,84.9,102.7,85.1,102.6,85.2z"/>
			</g>
		</g>
		<g>
			<path class="st1" d="M97.7,109.5c-1,0-1.8-0.1-2.4-0.2c-2-0.3-6.9-1.4-8.4-5.2c-0.6-1.4-0.6-2.9-0.6-4.2c0-2.3,0-4.1,0-5.8
				c0-1.8,0-3.5,0-5.8c0-0.2,0.1-0.5,0.3-0.7c0.2-0.2,0.4-0.2,0.7-0.2c3.8,0.4,16.3,0.6,19.7,0.3c0.2,0,0.5,0.1,0.6,0.2
				c0.2,0.1,0.3,0.4,0.3,0.6c0.5,5.7,0.2,7.8-0.7,13c-0.3,1.7-0.7,3.7-2.1,5.3C103.1,109,100.1,109.5,97.7,109.5z M87.9,89.2
				c0,1.8,0,3.4,0,4.9c0,1.8,0,3.5,0,5.8c0,1.2,0,2.4,0.5,3.5c0.9,2.1,3.5,3.6,7.1,4.1c3.6,0.5,6.6-0.2,8.2-2c1-1.2,1.4-2.8,1.7-4.4
				c0.8-4.9,1.1-6.9,0.8-11.7C102.1,89.7,92.3,89.6,87.9,89.2z"/>
		</g>
		<g>
			<path class="st1" d="M105.6,89.3c0,0-0.1,0-0.1,0c-0.5-0.1-0.8-0.5-0.7-1c0.9-5.1,4.5-9.1,8.1-12.9c3.2-3.5,6.5-7.1,7.5-11.4
				c0.4-1.8,0.7-7.6-1.4-12.9c-1.4-3.6-3.4-6.2-5.9-7.9c-4.8-3.2-13.1-5.6-19.6-3.7c-6.2,1.7-11.3,5-14.3,9.2
				c-2.7,3.8-3.9,8.6-3.4,13.5c0.5,4.6,2.6,9,6,12.9c0.5,0.5,1,1.1,1.5,1.6c1,1.1,2.1,2.3,3,3.6c1.6,2.3,2.5,5,2.5,7.8
				c0,0.5-0.4,0.9-0.9,0.9c0,0,0,0,0,0c-0.5,0-0.9-0.4-0.9-0.9c-0.1-2.4-0.8-4.8-2.2-6.9c-0.8-1.2-1.8-2.2-2.8-3.4
				c-0.5-0.5-1-1.1-1.5-1.6c-3.6-4.2-5.8-9-6.4-13.9c-0.6-5.3,0.7-10.5,3.7-14.7c3.2-4.5,8.7-8,15.3-9.9c7-2,15.9,0.5,21.1,4
				c2.8,1.9,5.1,4.8,6.6,8.7c2.1,5.2,2.1,11.3,1.5,13.9c-1.1,4.8-4.6,8.5-8,12.2c-3.5,3.8-6.8,7.5-7.6,12
				C106.4,89,106,89.3,105.6,89.3z"/>
		</g>
		<g>
			<path class="st1" d="M100.3,89C100.3,89,100.3,89,100.3,89c-0.5,0-0.9-0.4-0.9-0.8c0,0,0-0.1,0-0.1c0-4.7,0.3-9.7,0.7-14.7
				c0.2-2,0.4-3.9,0.9-5.7c-1.4-0.4-2.6-1.2-3.6-2.4c0,0,0-0.1-0.1-0.1c-0.1,0.2-0.2,0.4-0.3,0.5c-1.3,2.1-2.7,3.2-4.4,3.3
				c-0.3,0-0.6,0-0.9,0c0.3,1.1,0.6,2.3,0.8,3.4c1,5.1,1.5,10.3,1.3,15.5c0,0.5-0.4,0.9-0.9,0.8c-0.5,0-0.9-0.4-0.8-0.9
				c0.1-5.1-0.3-10.2-1.3-15.1c-0.3-1.4-0.6-2.8-1.1-4.3c-0.2-0.1-0.3-0.1-0.5-0.2c-2.1-1-4.8-2.4-6.2-4.7c-0.7-1.1-0.8-2.3-0.2-3.1
				c0.6-0.8,1.7-1.1,2.8-0.7c0.8,0.3,1.5,0.9,2,1.4c1.6,1.8,2.7,3.8,3.5,5.9c0.4,0.1,0.9,0.2,1.3,0.2c1.1-0.1,2.1-0.9,3.1-2.5
				c0.3-0.4,0.5-0.8,0.7-1.3c-0.7-1.5-1.2-3.2-1.3-5.3c-0.1-1.7-0.1-4.2,1.4-6.2c0.5-0.7,1.2-1,1.9-0.8c0.5,0.1,0.8,0.5,1,0.8
				c1.3,2,1.1,4.3,0.8,5.9c-0.4,1.9-1,3.8-1.8,5.6c0.2,0.2,0.3,0.4,0.5,0.7c0.7,0.8,1.7,1.5,2.9,1.9c1-2.2,2.7-4.2,4.9-5.5
				c0.5-0.3,1-0.6,1.7-0.5c0.6,0.1,1.1,0.4,1.3,0.9c0.4,0.9,0.2,2-0.2,2.8c-1.1,2.1-2.6,3.4-4.3,4c-0.7,0.2-1.5,0.3-2.3,0.3
				c-0.6,1.7-0.7,3.5-0.9,5.5c-0.4,5-0.6,9.9-0.7,14.5C101.2,88.6,100.8,89,100.3,89z M108,61.8c-0.1,0-0.3,0.1-0.6,0.3
				c-1.7,1.1-3.1,2.6-4,4.3c0.3,0,0.7-0.1,1-0.2c1.3-0.4,2.4-1.5,3.3-3.1C108.1,62.5,108.1,61.9,108,61.8
				C108,61.8,108,61.8,108,61.8z M84.8,61.5c-0.2,0-0.4,0.1-0.5,0.2c-0.1,0.2,0,0.6,0.3,1.1c1,1.5,2.7,2.6,4.3,3.5
				c-0.6-1.3-1.4-2.6-2.4-3.7c-0.3-0.4-0.7-0.8-1.2-0.9C85.1,61.5,84.9,61.5,84.8,61.5z M97.9,53c0,0-0.1,0.1-0.1,0.1
				c-0.9,1.2-1.2,2.8-1.1,5c0.1,1.2,0.3,2.3,0.6,3.3c0.5-1.2,0.9-2.5,1.1-3.8C98.8,55.6,98.6,54.1,97.9,53z M97.8,52.9L97.8,52.9
				L97.8,52.9z"/>
		</g>
	</g>
	<g>
		<path class="st1" d="M98.4,32.9c-0.4,0-0.8-0.3-0.9-0.7c-1-6.6-4.3-12.8-9.2-17.3c-4.9-4.6-11.3-7.4-17.9-7.9
			c-0.5,0-0.8-0.5-0.8-0.9c0-0.5,0.5-0.8,0.9-0.8c7.1,0.6,13.8,3.5,19,8.4c5.2,4.8,8.6,11.3,9.7,18.3c0.1,0.5-0.3,0.9-0.7,1
			C98.5,32.9,98.5,32.9,98.4,32.9z"/>
	</g>
	<g>
		<path class="st1" d="M33.7,49.4c-0.5,0-0.9-0.4-0.9-0.9c0-3.9,0.4-7.7,1.3-11.5c0.1-0.5,0.6-0.8,1-0.7c0.5,0.1,0.8,0.6,0.7,1
			c-0.8,3.6-1.3,7.4-1.2,11.1C34.6,49,34.2,49.4,33.7,49.4C33.7,49.4,33.7,49.4,33.7,49.4z"/>
	</g>
	<g class="st2">
		<path class="st1" d="M55.4,33.3c0,0-0.1,0-0.1,0c-0.2,0.1-0.5,0.1-0.7,0.2c-0.1,0-0.1,0-0.2,0c-1,0.1-1.9,0-2.9-0.1
			c-0.4-0.1-0.9-0.1-1.3,0.1c-1.5,0.6-1.4,2.9,0.2,3.3c1.6,0.3,3.3,0.5,5,0.2c0.2,0,0.4-0.1,0.6-0.1c0.8,0.1,1.8-0.3,2.1-1.2
			C58.7,34.1,56.9,32.7,55.4,33.3z"/>
	</g>
	<g class="st2">
		<path class="st1" d="M69,22.3c-0.4-2.1-3.1-1.8-3.4,0.2c0,0.1-0.1,0.2-0.1,0.4c-0.1,0.1-0.2,0.3-0.2,0.5c-0.4,0.7-0.8,1.3-1.3,2
			c-0.4,0.5-0.9,0.9-1.2,1.5c-0.7,1.5,1.4,3,2.6,1.7c1.2-1.3,2.3-2.7,3.1-4.2C68.6,23.7,69.1,23,69,22.3z"/>
	</g>
</g>
</svg>
