<?xml version="1.0" encoding="utf-8"?>
<!-- Generator: Adobe Illustrator 26.2.1, SVG Export Plug-In . SVG Version: 6.00 Build 0)  -->
<svg version="1.1" id="Layer_1" xmlns="http://www.w3.org/2000/svg" xmlns:xlink="http://www.w3.org/1999/xlink" x="0px" y="0px"
	 viewBox="0 0 130.4 122.8" style="enable-background:new 0 0 130.4 122.8;" xml:space="preserve">
<style type="text/css">
	.st0{fill:#010101;}
	.st1{fill:#BA8760;}
	.st2{fill:#FFFFFF;}
	.st3{opacity:0.1294;}
</style>
<g>
	<g>
		<path class="st0" d="M26.4,79.8C26.3,79.8,26.3,79.8,26.4,79.8c-0.5,0-0.9-0.4-0.9-0.9c1.1-19.8,1.6-39.9,1.3-59.7
			c0-0.5,0.4-0.9,0.9-0.9c0,0,0,0,0,0c0.5,0,0.9,0.4,0.9,0.9c0.2,19.9-0.2,40-1.3,59.8C27.2,79.5,26.8,79.8,26.4,79.8z"/>
	</g>
	<g>
		<path class="st1" d="M27.3,60.4c2.3-6.3,4.8-12.8,9.9-17.5c5.3-4.9,9.9-5.5,16.1-9.3c-0.4,6.8-4.1,14-9.6,18.6
			C38.2,56.9,33.9,57.5,27.3,60.4z"/>
		<path class="st0" d="M27.3,61.3c-0.2,0-0.4-0.1-0.6-0.2c-0.3-0.2-0.3-0.6-0.2-0.9c2.2-6,4.7-12.9,10.1-17.8c3.3-3.1,6.4-4.5,9.7-6
			c2.1-1,4.2-1.9,6.5-3.4c0.3-0.2,0.6-0.2,0.9,0c0.3,0.2,0.4,0.5,0.4,0.8c-0.4,7-4.2,14.4-9.9,19.2c-4,3.4-7.4,4.7-11.4,6.2
			c-1.6,0.6-3.3,1.3-5.2,2.1C27.5,61.3,27.4,61.3,27.3,61.3z M52.2,35.2c-1.9,1.1-3.6,1.9-5.2,2.6c-3.3,1.5-6.1,2.8-9.2,5.7
			c-4.5,4.2-6.9,9.9-9,15.3c1.2-0.5,2.3-0.9,3.4-1.3c4-1.5,7.1-2.7,10.9-5.9C48,47.4,51.4,41.3,52.2,35.2z"/>
	</g>
	<g>
		<path class="st1" d="M27.1,55.9c-3.7-1-8.8-0.7-12-2.6C7.6,48.9,6,42,2.5,34.3c4.3,1.3,8.8,2.6,12.5,5.1
			C21.2,43.7,23.6,48.1,27.1,55.9z"/>
		<path class="st0" d="M27.1,56.7c-0.1,0-0.1,0-0.2,0c-1.3-0.3-2.8-0.5-4.3-0.7c-2.8-0.4-5.7-0.7-7.9-2c-6.3-3.7-8.5-9-11.1-15.1
			c-0.6-1.4-1.2-2.8-1.8-4.2c-0.1-0.3-0.1-0.7,0.1-0.9c0.2-0.3,0.6-0.4,0.9-0.3c4.4,1.3,8.9,2.6,12.7,5.2c6.6,4.5,9.1,9.3,12.4,16.8
			c0.1,0.3,0.1,0.7-0.1,0.9C27.6,56.6,27.3,56.7,27.1,56.7z M4.1,35.7c0.4,0.9,0.7,1.7,1.1,2.5c2.5,5.8,4.6,10.8,10.4,14.2
			c1.9,1.1,4.6,1.5,7.3,1.8c1,0.1,1.9,0.2,2.8,0.4c-3.2-6.9-5.5-10.7-11.1-14.5C11.4,38,7.7,36.8,4.1,35.7z"/>
	</g>
	<g>
		<path class="st2" d="M27.6,2.3c-4-0.3-8.1,0.4-10.9,3.4s-4.3,7.5-4.1,11.8c0.7,10.7,12.3,11.8,15.6,11.6c4.3-0.3,8.4-3.3,10.3-7.6
			c1.9-4.3,2.3-10-0.4-13.7C35.8,4.9,33,2.7,27.6,2.3z"/>
		<path class="st0" d="M27.4,30.1c-2.9,0-8-0.8-11.6-3.9c-2.4-2.1-3.8-5-4-8.5c-0.3-4.7,1.3-9.3,4.3-12.4c2.7-2.8,6.6-4,11.6-3.7
			c0,0,0,0,0,0c6.2,0.4,9.1,3.2,11.1,5.9c3.2,4.3,2.3,10.5,0.5,14.6c-2,4.6-6.3,7.8-11,8.1C28,30,27.7,30.1,27.4,30.1z M26.1,3.2
			c-3.8,0-6.7,1.1-8.8,3.2c-2.7,2.8-4.1,6.9-3.8,11.1c0.2,3,1.4,5.5,3.4,7.3c3.7,3.2,9.3,3.6,11.2,3.5c4-0.3,7.9-3.1,9.6-7
			c1.7-3.9,2.2-9.4-0.3-12.9c-1.8-2.5-4.3-4.8-9.8-5.2l0,0C27.1,3.2,26.6,3.2,26.1,3.2z"/>
	</g>
	<g>
		<path class="st0" d="M26.2,22.8c-2.2,0-4.5-0.9-5.9-2.6c-0.3-0.4-0.3-0.9,0.1-1.2c0.4-0.3,0.9-0.3,1.2,0.1
			c1.8,2.1,5.3,2.7,7.7,1.2c0.5-0.3,1.1-0.8,1.2-1.4c0.1-0.3,0-0.7-0.1-1.1c-0.4-1-1.3-1.9-2.3-2.2c-0.5-0.2-1.1-0.2-1.7-0.3
			c-0.6,0-1.1-0.1-1.7-0.2c-1.5-0.3-3-1.5-2.9-3.1c0-0.7,0.3-1.4,0.9-2c1.9-2.1,5.5-2.5,8.2-0.8c0.4,0.2,0.5,0.8,0.3,1.2
			c-0.2,0.4-0.8,0.5-1.2,0.3c-2-1.2-4.7-1-6.1,0.5c-0.2,0.2-0.5,0.6-0.5,0.9c0,0.6,0.8,1.2,1.6,1.4c0.5,0.1,0.9,0.1,1.5,0.2
			c0.7,0.1,1.4,0.1,2.1,0.3c1.6,0.5,2.9,1.7,3.4,3.3c0.3,0.7,0.3,1.4,0.2,2c-0.2,1-0.9,1.8-2,2.5C29.1,22.5,27.6,22.8,26.2,22.8z"/>
	</g>
	<g>
		<path class="st0" d="M26.6,25.4c-0.4,0-0.8-0.3-0.8-0.7c-1.2-6.3-0.2-12.9,0.6-18.7c0.1-0.5,0.5-0.8,1-0.7c0.5,0.1,0.8,0.5,0.7,1
			c-0.9,6-1.8,12.1-0.7,18.1c0.1,0.5-0.2,0.9-0.7,1C26.7,25.4,26.6,25.4,26.6,25.4z"/>
	</g>
	<g>
		<path class="st2" d="M108,109c-14.1,3.4-28.6,5.8-43,5.5c-14.5-0.3-29-3.3-42.1-10.3C16,100.5,9.5,95.7,4.7,89.1
			c-1-1.3-1.9-2.7-2.1-4.4c-0.2-1.7,0.4-3.6,1.8-4.3c1.1-0.5,2.3-0.2,3.4,0.2C25.1,86,43.1,92.9,60.8,89c1.3-0.3,2.9-1.2,2.5-2.6
			c-0.2-0.6-0.6-1-1.1-1.3c-5.4-4-11.7-6.7-16.5-11.6c-0.9-0.9-1.8-2-1.9-3.4c-0.1-2.6,2.7-4,5-4c4.8,0,9.2,2.8,13.6,4.7
			c7.2,3.1,15,4.1,22.6,6c7.6,2,15.2,5.2,22,11.1c2,2.1,3.8,4.3,5.5,6.7c1.9,2.8,3.6,6.5,2.1,9.6C113.7,106.3,111.9,108,108,109z"/>
		<path class="st0" d="M67.4,115.4c-0.8,0-1.6,0-2.4,0c-15.9-0.3-30.2-3.8-42.5-10.4c-8-4.3-14-9.3-18.5-15.3c-1-1.4-2-2.9-2.3-4.8
			c-0.3-1.9,0.4-4.3,2.2-5.2c1.4-0.7,3-0.2,4,0.1c1.9,0.6,3.7,1.2,5.6,1.8c15.5,4.9,31.5,10,47.1,6.6c0.8-0.2,1.5-0.6,1.8-1
			c0.1-0.2,0.1-0.3,0.1-0.5c-0.1-0.3-0.4-0.6-0.8-0.8c-2-1.5-4.1-2.8-6.2-4.1c-3.6-2.2-7.3-4.5-10.4-7.6c-0.9-0.9-2-2.2-2.1-3.9
			c-0.1-1.1,0.3-2.2,1.2-3c1.1-1.2,2.9-1.9,4.7-1.9c0,0,0,0,0,0c3.9,0,7.4,1.7,10.9,3.4c1,0.5,2.1,1,3.1,1.4
			c4.9,2.1,10.1,3.2,15.2,4.3c2.4,0.5,4.8,1,7.3,1.7c9,2.3,16.3,6,22.4,11.3c0,0,0,0,0.1,0.1c2,2.1,3.9,4.4,5.6,6.9
			c2.8,4.1,3.5,7.6,2.2,10.4c-1.2,2.6-3.5,4.2-7.3,5.1l0,0C92.6,113.6,79.5,115.4,67.4,115.4z M5.5,81.1c-0.3,0-0.6,0.1-0.8,0.2
			c-0.9,0.4-1.5,1.9-1.3,3.4c0.2,1.5,1.1,2.8,2,4c4.3,5.8,10.1,10.7,17.9,14.8c12.1,6.5,26.1,9.9,41.7,10.2
			c12.7,0.3,26.3-1.5,42.8-5.5l0,0c4.2-1,5.5-2.9,6.1-4.2c1.1-2.2,0.4-5.2-2.1-8.7c-1.6-2.3-3.4-4.6-5.3-6.6
			c-5.8-5.1-12.9-8.6-21.6-10.9c-2.4-0.6-4.8-1.1-7.2-1.6c-5.2-1.1-10.5-2.2-15.5-4.4c-1.1-0.5-2.1-1-3.1-1.5
			c-3.4-1.7-6.7-3.2-10.1-3.2c0,0,0,0,0,0c-1.3,0-2.7,0.5-3.4,1.3c-0.5,0.5-0.7,1.1-0.7,1.7c0.1,1.1,0.8,2,1.6,2.8
			c3,3,6.6,5.2,10.1,7.3c2.1,1.3,4.3,2.6,6.3,4.2c0.4,0.3,1.2,0.9,1.4,1.8c0.2,0.6,0.1,1.3-0.3,1.9c-0.6,1-1.9,1.6-2.9,1.8
			c-16.1,3.5-32.3-1.6-48-6.6c-1.9-0.6-3.7-1.2-5.6-1.8C6.7,81.3,6.1,81.1,5.5,81.1z"/>
	</g>
	<g>
		<path class="st2" d="M127.9,120.7c-8.2,1.6-16.9,1.7-25.2,0.3c2.3-13.5,2.6-27,1.2-40.5c5.5,0.7,11.1,0.6,16.6,0.6
			c2.7,0,5.3,0,7.8,0.1C129.8,94.2,130.3,107.4,127.9,120.7z"/>
		<path class="st0" d="M114.5,122.8c-4,0-8-0.3-11.9-1c-0.2,0-0.4-0.2-0.6-0.4c-0.1-0.2-0.2-0.4-0.1-0.6c2.3-13.1,2.7-26.3,1.2-40.3
			c0-0.3,0.1-0.5,0.3-0.7c0.2-0.2,0.4-0.3,0.7-0.2c5.4,0.6,11.1,0.6,16.5,0.5c2.7,0,5.4,0,7.9,0.1c0.4,0,0.8,0.3,0.8,0.8
			c1.7,15.9,1.6,28.2-0.5,39.8c-0.1,0.4-0.3,0.6-0.7,0.7C123.7,122.4,119.1,122.8,114.5,122.8z M103.8,120.3
			c7.7,1.2,15.8,1.1,23.4-0.3c1.9-11.1,2-22.9,0.4-38c-2.2-0.1-4.6,0-7,0c-5.2,0-10.5,0.1-15.7-0.4
			C106.3,94.9,105.9,107.6,103.8,120.3z M127.9,120.7L127.9,120.7L127.9,120.7z"/>
	</g>
	<g>
		<path class="st2" d="M116.2,89c-1.5-0.2-3,0.8-3.5,2.2c-0.4,1.4,0.2,3.1,1.5,3.9c1.3,0.8,3,0.7,4.3-0.2c1.5-1.1,2-3.5,0.7-4.8
			C118.3,89.4,117,89.2,116.2,89z"/>
		<path class="st0" d="M116.1,96.6c-0.9,0-1.7-0.2-2.4-0.7c-1.6-1-2.4-3.1-1.8-4.9c0.6-1.9,2.6-3.1,4.5-2.8l0.1,0
			c0.9,0.1,2.4,0.4,3.4,1.4c0.7,0.7,1,1.8,0.9,2.9c-0.1,1.3-0.8,2.5-1.8,3.2C118.1,96.3,117.1,96.6,116.1,96.6z M115.7,89.9
			c-1,0-1.9,0.7-2.2,1.6c-0.3,1,0.2,2.3,1.1,2.9c1,0.6,2.3,0.5,3.3-0.1c0.6-0.4,1-1.2,1.1-1.9c0-0.4,0-1-0.5-1.5
			c-0.6-0.6-1.7-0.8-2.4-0.9l-0.1,0l0,0C115.9,89.9,115.8,89.9,115.7,89.9z"/>
	</g>
	<g>
		<path class="st0" d="M114.7,119.5C114.6,119.5,114.6,119.5,114.7,119.5c-2.7-0.8-5.2-2-7.5-3.4c-0.1-0.1-0.2-0.3-0.1-0.4
			c0.1-0.1,0.3-0.2,0.4-0.1c2.3,1.4,4.8,2.5,7.3,3.3c0.2,0,0.2,0.2,0.2,0.4C114.9,119.4,114.8,119.5,114.7,119.5z"/>
	</g>
	<g>
		<path class="st0" d="M124.4,119.5c0,0-0.1,0-0.1,0c-5.6-2.2-11.1-4.8-16.3-7.8c-0.1-0.1-0.2-0.3-0.1-0.4c0.1-0.1,0.3-0.2,0.4-0.1
			c5.2,3,10.7,5.6,16.3,7.7c0.1,0.1,0.2,0.2,0.2,0.4C124.6,119.4,124.5,119.5,124.4,119.5z"/>
	</g>
	<g>
		<path class="st0" d="M125.2,115.2c0,0-0.1,0-0.1,0c-5.4-2.5-10.8-5.2-16-8.1c-0.1-0.1-0.2-0.3-0.1-0.4c0.1-0.1,0.3-0.2,0.4-0.1
			c5.2,2.9,10.6,5.6,16,8.1c0.1,0.1,0.2,0.2,0.1,0.4C125.5,115.1,125.4,115.2,125.2,115.2z"/>
	</g>
	<g>
		<path class="st0" d="M125.3,111.1c0,0-0.1,0-0.1,0c-5.8-3.1-11.6-6.2-17.5-9.1c-0.1-0.1-0.2-0.2-0.1-0.4c0.1-0.1,0.2-0.2,0.4-0.1
			c5.8,3,11.7,6,17.5,9.1c0.1,0.1,0.2,0.3,0.1,0.4C125.5,111.1,125.4,111.1,125.3,111.1z"/>
	</g>
	<g>
		<path class="st0" d="M126,106.1c0,0-0.1,0-0.1,0l-17.7-9c-0.1-0.1-0.2-0.2-0.1-0.4c0.1-0.1,0.2-0.2,0.4-0.1l17.7,9
			c0.1,0.1,0.2,0.2,0.1,0.4C126.2,106,126.1,106.1,126,106.1z"/>
	</g>
	<g>
		<path class="st0" d="M126,101.2c0,0-0.1,0-0.1,0c-1.9-1.1-3.9-2.2-5.7-3.4c-0.1-0.1-0.2-0.3-0.1-0.4c0.1-0.1,0.3-0.2,0.4-0.1
			c1.9,1.2,3.8,2.3,5.7,3.4c0.1,0.1,0.2,0.3,0.1,0.4C126.2,101.1,126.1,101.2,126,101.2z"/>
	</g>
	<g>
		<path class="st0" d="M126.3,96.1c0,0-0.1,0-0.1,0c-1.2-0.6-2.5-1.2-3.7-1.9c-0.1-0.1-0.2-0.3-0.1-0.4c0.1-0.1,0.3-0.2,0.4-0.1
			c1.2,0.7,2.4,1.3,3.6,1.9c0.1,0.1,0.2,0.2,0.1,0.4C126.5,96.1,126.4,96.1,126.3,96.1z"/>
	</g>
	<g>
		<path class="st0" d="M126.6,90.2c-0.1,0-0.1,0-0.2,0l-10.3-6.6c-0.1-0.1-0.2-0.3-0.1-0.4c0.1-0.1,0.3-0.2,0.4-0.1l10.3,6.6
			c0.1,0.1,0.2,0.3,0.1,0.4C126.8,90.2,126.7,90.2,126.6,90.2z"/>
	</g>
	<g>
		<path class="st0" d="M110.1,91.3c-0.1,0-0.1,0-0.2,0c-0.8-0.5-1.6-1.1-2.4-1.6c-0.1-0.1-0.2-0.3-0.1-0.4c0.1-0.1,0.3-0.2,0.4-0.1
			c0.8,0.6,1.6,1.1,2.4,1.6c0.1,0.1,0.2,0.3,0.1,0.4C110.2,91.2,110.1,91.3,110.1,91.3z"/>
	</g>
	<g>
		<path class="st0" d="M112.4,87.4c-0.1,0-0.1,0-0.2,0l-4.5-3c-0.1-0.1-0.2-0.3-0.1-0.4c0.1-0.1,0.3-0.2,0.4-0.1l4.5,3
			c0.1,0.1,0.2,0.3,0.1,0.4C112.5,87.4,112.5,87.4,112.4,87.4z"/>
	</g>
	<g class="st3">
		<path class="st0" d="M129,105.1c-0.1-0.3-0.3-0.5-0.5-0.7c0.3-4.8,0.2-10.9-0.1-16.2c-0.1-1.5-0.1-3-0.1-4.6
			c-0.1-0.8,0-1.6-0.3-2.3c-0.7-1.9-3.6-1.3-3.6,0.7c0.2,4.2-0.3,8.4-0.3,12.6c0,1.7,0.1,3.5,0,5.2c-0.1,1.5-0.3,2.9-0.2,4.4
			c0,2.7-0.2,2.2-0.4,4.7c-0.2,2.3-0.3,4.7-0.2,7c0,0.5,0,1.1,0,1.6c-0.1,0.6-0.2,1.2-0.1,1.7c0.1,1.5,2,2.5,3.3,1.7
			c0.5-0.3,0.9-0.8,1-1.3c0,0,0,0,0,0c0,0,0,0,0,0c0,0,0,0,0,0c0-0.2,0.1-0.3,0.1-0.5c0,0,0,0,0-0.1c0.1-0.2,0.1-0.5,0.2-0.7
			c0.4-1,0.7-6.1,1.1-8.9c0.1-1.1,0.2-2.1,0.3-3.2C129.2,105.9,129.2,105.4,129,105.1z"/>
	</g>
	<g class="st3">
		<path class="st0" d="M104.9,103.2c0-3-0.2-6.1-0.3-9.1c0-1.9-0.3-3.7-0.4-5.6c-0.2-1.2-0.1-2.8-0.7-3.8c0-0.1-0.1-0.1-0.1-0.1
			c-0.3,0.1-0.6,0.1-0.8,0c-0.2-0.1-0.4-0.2-0.6-0.3c-0.1,0-0.2,0.1-0.2,0.1c0-0.1,0-0.2,0-0.3c-1-0.5-1.9-1.1-2.8-1.7
			c-0.4,0.3-0.5,0.9-0.4,1.5c0.5,3.7,1,6.2,0.9,10.5c-0.1,1.7,0.1,3.4,0.2,5c0,1.6,0,3.2,0.1,4.8c0.1,2,0.1,4.9,0.4,5.4
			c0.4,1.2,2.2,1.5,3.1,0.6c0,0,0,0,0,0c0.2,0,0.5-0.1,0.7-0.2c0.4-0.3,0.7-0.6,0.8-1.1c0,0,0,0,0,0c0.2-0.5,0.2-1.1,0.2-1.6
			C104.7,106,104.9,104.6,104.9,103.2z"/>
	</g>
	<g class="st3">
		<path class="st0" d="M39.3,14.2c-1.8-0.4-1.8,1.7-2.1,2.9c-0.5,1.5-0.6,1.8-1.7,3.4c-0.2,0.5-2.8,2.8-3.1,3
			c0.1-0.1,0.5-0.4,0.2-0.2c-1.8,1.2-2.7,1.5-3.8,1.8c-2.6,0.7-4.6,0.4-6.4,0c-1.9-0.4-2.4-0.7-2.9-0.9c-0.5-0.2-0.9-0.6-1.4-0.7
			c-1.5-0.3-2.3,1.9-0.9,2.7c1,0.6,2,1.4,3.1,2c1.6,0.9,3.3,1.3,5,1.5c3.2,0.1,6.4-1,8.9-3.1c2.5-2.2,4-4.6,4.9-7
			c0.5-1.1,0.8-2.3,1-3.5C40.4,15.4,40.2,14.4,39.3,14.2z"/>
	</g>
	<g class="st3">
		<path class="st0" d="M53.2,35.2c-0.3-1.1-1.8-1.4-2.5-0.5c-0.9,1.6-1.5,3.4-2.5,5c-0.5,0.9-1,1.8-1.6,2.6c-1.2,1.6-2.7,3-4.2,4.4
			c-1.3,1.5-4.7,4.4-5,4.6c-1.6,1.4-5.2,3.2-7.2,4.4c-0.9,0.6-2.1,0.9-2.9,1.8c-1.1,1.4,0.6,3.4,2.1,2.4c2.7-1.5,3.6-1.8,5.9-3.2
			c1.5-0.8,3.1-1.6,4.4-2.8c0.8-0.6,1.5-1.3,2.2-2c0,0,0.1,0.1,0.1,0.1c1.1,1,2.3,0.3,3-0.7c0.7-0.7,1.3-1.5,1.8-2.3
			c1.1-2,2.5-3.9,3.4-6c1.2-2.9,1.2-2.6,2.4-5.9c0.2-0.8,0.2-0.8,0.3-1.1C53.3,35.9,53.3,35.5,53.2,35.2z"/>
	</g>
</g>
</svg>
