<?xml version="1.0" encoding="utf-8"?>
<!-- Generator: Adobe Illustrator 26.2.1, SVG Export Plug-In . SVG Version: 6.00 Build 0)  -->
<svg version="1.1" id="Layer_1" xmlns="http://www.w3.org/2000/svg" xmlns:xlink="http://www.w3.org/1999/xlink" x="0px" y="0px"
	 viewBox="0 0 85.9 79.8" style="enable-background:new 0 0 85.9 79.8;" xml:space="preserve">
<style type="text/css">
	.st0{fill:#FFFFFF;}
	.st1{fill:#BA8760;}
	.st2{fill:#F3F3F4;}
	.st3{fill:#010101;}
	.st4{opacity:0.1294;}
</style>
<line class="st0" x1="120.9" y1="-42.4" x2="120.9" y2="357.6"/>
<g>
	<g>
		<g>
			<path class="st0" d="M53.1,55.1c5,4.9,10,9.9,15.1,14.8c2.7,2.6,5.3,5.2,8.2,7.5c1.6,1.2,3.3,2.4,5.2,2.4c1.9,0,3.9-1.6,3.9-3.7
				c0-1.7-1.2-3-2.2-4.2c-8-8.4-16.3-16.4-25-23.9C56.5,50.3,55,52.6,53.1,55.1z"/>
			<path class="st1" d="M81.5,80.3C81.5,80.3,81.5,80.3,81.5,80.3c-2,0-3.9-1.2-5.5-2.5c-2.9-2.3-5.6-4.9-8.2-7.5L52.7,55.5
				c-0.2-0.2-0.2-0.5,0-0.7c1.9-2.5,3.5-4.9,5.1-7.1c0.1-0.1,0.2-0.2,0.3-0.2c0.1,0,0.3,0,0.4,0.1c8.7,7.5,17.1,15.6,25.1,24
				c1.1,1.2,2.4,2.7,2.4,4.5c0,1.1-0.4,2.1-1.2,2.9C83.8,79.8,82.6,80.3,81.5,80.3z M53.7,55.1l14.7,14.5c2.6,2.6,5.3,5.2,8.2,7.4
				c1.5,1.2,3.1,2.3,4.9,2.3c0,0,0,0,0,0c0.9,0,1.8-0.4,2.5-1.1c0.6-0.6,0.9-1.4,0.9-2.2c0-1.5-1-2.7-2.1-3.8
				C75,64,66.7,56.1,58.2,48.7C56.8,50.7,55.4,52.8,53.7,55.1z"/>
		</g>
		<g>
			<path class="st2" d="M33.5,0.5c-17.3,0-31.3,14-31.3,31.3c0,17.3,14,31.3,31.3,31.3s31.3-14,31.3-31.3
				C64.8,14.5,50.8,0.5,33.5,0.5z M33.5,55.6c-13.1,0-23.8-10.6-23.8-23.8C9.7,18.7,20.3,8,33.5,8c13.1,0,23.8,10.6,23.8,23.8
				C57.2,44.9,46.6,55.6,33.5,55.6z M33.5,55.6c-13.1,0-23.8-10.6-23.8-23.8C9.7,18.7,20.3,8,33.5,8c13.1,0,23.8,10.6,23.8,23.8
				C57.2,44.9,46.6,55.6,33.5,55.6z"/>
			<path class="st1" d="M33.5,63.6c-17.5,0-31.8-14.3-31.8-31.8S15.9,0,33.5,0C51,0,65.3,14.3,65.3,31.8S51,63.6,33.5,63.6z M33.5,1
				C16.5,1,2.7,14.8,2.7,31.8s13.8,30.8,30.8,30.8c17,0,30.8-13.8,30.8-30.8S50.5,1,33.5,1z M33.5,56.1c-13.4,0-24.3-10.9-24.3-24.3
				c0-13.4,10.9-24.3,24.3-24.3c13.4,0,24.3,10.9,24.3,24.3C57.7,45.2,46.9,56.1,33.5,56.1z M10.2,31.8c0,12.8,10.4,23.3,23.3,23.3
				c12.8,0,23.3-10.4,23.3-23.3C56.8,19,46.3,8.5,33.5,8.5C20.6,8.5,10.2,19,10.2,31.8z"/>
		</g>
		<g>
			<path class="st3" d="M57.1,55.9C57.1,55.9,57.1,55.9,57.1,55.9c-0.1,0-0.2-0.1-0.2-0.2l0.6-1.9c0-0.1,0.1-0.1,0.2-0.1
				c0.1,0,0.1,0.1,0.1,0.2l-0.6,1.9C57.2,55.9,57.2,55.9,57.1,55.9z"/>
		</g>
		<g>
			<path class="st3" d="M59.7,59.3C59.7,59.3,59.7,59.3,59.7,59.3c-0.1,0-0.2-0.1-0.2-0.2c0.3-2.2,0.6-4.5,1.1-6.8
				c0-0.1,0.1-0.1,0.2-0.1c0.1,0,0.1,0.1,0.1,0.2c-0.4,2.2-0.8,4.5-1.1,6.7C59.9,59.2,59.8,59.3,59.7,59.3z"/>
		</g>
		<g>
			<path class="st3" d="M63.1,62.6c-0.1,0-0.2-0.1-0.2-0.2c0-1.1,0.2-3,0.3-4.7c0.1-1,0.2-1.9,0.2-2.5c0-0.1,0.1-0.2,0.2-0.2
				c0.1,0,0.2,0.1,0.2,0.2c0,0.6-0.1,1.4-0.2,2.5c-0.2,1.7-0.3,3.5-0.3,4.6C63.3,62.5,63.2,62.6,63.1,62.6z"/>
		</g>
		<g>
			<path class="st3" d="M66.7,65.8c-0.1,0-0.2-0.1-0.2-0.2l-0.2-8c0-0.1,0.1-0.2,0.2-0.2c0.1,0,0.2,0.1,0.2,0.2l0.2,8
				C66.8,65.7,66.7,65.8,66.7,65.8C66.7,65.8,66.7,65.8,66.7,65.8z"/>
		</g>
		<g>
			<path class="st3" d="M70,69.3c-0.1,0-0.2-0.1-0.2-0.2l-0.3-8.4c0-0.1,0.1-0.2,0.2-0.2c0.1,0,0.2,0.1,0.2,0.2l0.3,8.4
				C70.2,69.3,70.1,69.3,70,69.3C70,69.3,70,69.3,70,69.3z"/>
		</g>
		<g>
			<path class="st3" d="M73.4,72.3c-0.1,0-0.2-0.1-0.2-0.2l-0.4-7.8c0-0.1,0.1-0.2,0.2-0.2c0.1,0,0.2,0.1,0.2,0.2l0.4,7.8
				C73.5,72.2,73.5,72.3,73.4,72.3C73.4,72.3,73.4,72.3,73.4,72.3z"/>
		</g>
		<g>
			<path class="st3" d="M76.7,75.1c-0.1,0-0.2-0.1-0.2-0.2L76,67.3c0-0.1,0.1-0.2,0.2-0.2c0.1,0,0.2,0.1,0.2,0.2l0.6,7.6
				C76.9,75,76.8,75.1,76.7,75.1C76.7,75.1,76.7,75.1,76.7,75.1z"/>
		</g>
		<g>
			<path class="st3" d="M79.9,77.5c-0.1,0-0.2-0.1-0.2-0.1l-0.7-6.7c0-0.1,0.1-0.2,0.1-0.2c0.1,0,0.2,0.1,0.2,0.1l0.7,6.7
				C80.1,77.5,80,77.5,79.9,77.5C79.9,77.5,79.9,77.5,79.9,77.5z"/>
		</g>
		<g>
			<path class="st3" d="M83,77.2c-0.1,0-0.1-0.1-0.2-0.1l-0.5-3c0-0.1,0-0.2,0.1-0.2c0.1,0,0.2,0,0.2,0.1l0.5,3
				C83.2,77.1,83.1,77.2,83,77.2C83,77.2,83,77.2,83,77.2z"/>
		</g>
		<g class="st4">
			<path class="st3" d="M55.6,39.4c-0.8,0.7-1.1,1.7-1.8,2.5c-0.1,0.2-1.7,2-2.6,2.9c-0.8,0.7-1.5,1.3-2.3,1.9
				c-0.1,0-0.3,0.1-0.4,0.2c-3.9,2.8-6.9,3.9-11.8,4.8c-2.3,0.4-5.1,0.8-8.8-0.1c-2.6-0.6-3.8-1.3-6.5-3.1c-1.1-0.8-3.7-3.1-5.5-5.2
				c0,0,0,0,0,0c-1.9-2.6-2.5-4.8-2.9-5.8c-0.4-1-0.7-2.1-1-3.2c-0.5-1.5-0.6-2-0.6-3.2c-0.3-0.8-0.5-1.6-0.8-2.4
				c-0.2-0.1-0.5-0.2-0.7-0.1c-0.4,3.2-0.4,6.5,0.1,9.7c0.7,2.8,1.6,5.8,4.2,8.8c2.2,2.4,3.6,3.2,4.6,4c2.2,1.6,4.5,3,7,3.8
				c1.4,0.4,2.8,0.6,4.3,0.7c0,0,0,0,0,0c1.6,0.3,3.1,0.3,4.7,0.1c1.2-0.1,2.4-0.5,3.6-0.8c2.5-0.6,4.9-1.4,7.2-2.6
				c0.9-0.6,1.2-0.8,1.7-1.1c2.8-1.7,5.6-4.1,7.1-5.8c0.4-0.8,0.7-1.6,1.1-2.4c0.4-1.2,0.9-2.4,1.3-3.6
				C56.3,39.2,55.9,39.2,55.6,39.4z"/>
		</g>
		<g class="st4">
			<path class="st3" d="M60.7,49.6c-1.2-0.3-2,0.5-2.6,1.4c0,0,0,0.1-0.1,0.1c-1,1.2-1.3,1.1-3,2.7c0,0,0,0,0,0
				c-0.3,0.2-0.7,0.4-1,0.8c-1.4,1.8,0.8,4.3,2.7,3.1c1.4-0.8,2.5-1.8,3.5-3.1c0.6-0.7,1.2-1.4,1.7-2.1
				C62.5,51.4,61.9,49.9,60.7,49.6z"/>
		</g>
	</g>
	<g>
		<g>
			<g>
				<path class="st1" d="M34.5,25c-0.3,0-0.5-0.2-0.5-0.5V14.4c0-0.3,0.2-0.5,0.5-0.5s0.5,0.2,0.5,0.5v10.2C35,24.8,34.8,25,34.5,25
					z"/>
			</g>
			<g>
				<path class="st1" d="M34.5,49.8c-0.3,0-0.5-0.2-0.5-0.5V39.1c0-0.3,0.2-0.5,0.5-0.5s0.5,0.2,0.5,0.5v10.2
					C35,49.6,34.8,49.8,34.5,49.8z"/>
			</g>
		</g>
		<g>
			<g>
				<path class="st1" d="M52,32.3H41.8c-0.3,0-0.5-0.2-0.5-0.5c0-0.3,0.2-0.5,0.5-0.5H52c0.3,0,0.5,0.2,0.5,0.5
					C52.5,32.1,52.3,32.3,52,32.3z"/>
			</g>
			<g>
				<path class="st1" d="M27.2,32.3H17c-0.3,0-0.5-0.2-0.5-0.5c0-0.3,0.2-0.5,0.5-0.5h10.2c0.3,0,0.5,0.2,0.5,0.5
					C27.7,32.1,27.5,32.3,27.2,32.3z"/>
			</g>
		</g>
		<g>
			<path class="st1" d="M34.5,43.7c-6.6,0-11.9-5.3-11.9-11.9c0-6.6,5.3-11.9,11.9-11.9c6.6,0,11.9,5.3,11.9,11.9
				C46.4,38.4,41.1,43.7,34.5,43.7z M34.5,20.9c-6,0-10.9,4.9-10.9,10.9c0,6,4.9,10.9,10.9,10.9c6,0,10.9-4.9,10.9-10.9
				C45.4,25.8,40.5,20.9,34.5,20.9z"/>
		</g>
	</g>
</g>
</svg>
