<svg id="Layer_1" data-name="Layer 1" xmlns="http://www.w3.org/2000/svg" viewBox="0 0 264.25 300"><defs><style>.cls-1{fill:#050e13;}</style></defs><path class="cls-1" d="M18.11,193.88c-2.86-3.17-5.43,3.57-4.06,9.72C15.39,209.54,25.53,202.09,18.11,193.88Zm.06,9.18c-1.67,1.94-4.53-.51-2.3-7.08C16.82,193.16,20.75,200.07,18.17,203.06ZM171.75,13.25c-9,2-13.83,9.86-17.26,16.55-5.68,11.08-1.67,20.59-.63,24.89,4,16.8,44.68,29.14,56.4-4.49C219,25.08,198.7,9.66,186.16,10.33,179.87,10.67,172.71,13,171.75,13.25Zm26.1,52c-14,8.59-33.56,2.88-39.46-5.75-12.87-18.83.73-49.77,27.27-47.41C215,14.67,218.45,52.62,197.85,65.22ZM201.17,47c2.7-10.51-2.4-31.69-10.89-25.34-2.45,1.83-5.17,3.52-5.95,6.59C175.36,63.48,195.06,70.78,201.17,47ZM190.42,23.18c7.24-5.18,15,19.55,5.28,32.9-2.49,3.4-7.94,4.09-9.73-.75-3.83-10.42-2.32-9.11-1.64-20.86A14.22,14.22,0,0,1,190.42,23.18ZM176,20c-2.21,2.26-4.41,6.5-7.92,11.58-2.49,3.62-5.19,3.31-1.39,7.41,2.5,2.71,5.17-6,5-2.43-1.36,28.81-2,25.94,5.35,25.63,2-.08.41-5.68,3.74-33.63.12-1,1.75-7.3.5-8C179,19.21,177,18.92,176,20Zm3.8,4.44c-1.07,8.81-2.46,15.93-3.22,34.66-.09,2.16-3.61,1-3.64,0-.55-20.72,3.16-30.74-1.36-26-1.69,1.77-2.86,4.35-3.9,3.57s1.25-2.87,7.89-13.75C176.5,21.3,180.39,19.27,179.77,24.4ZM146.84,64.08s20.93,9.07,25.36,10.85c34.23,13.72,74.74-49.35,12.5-72C175.56-.44,166.2-5,149.47,15.77,135.76,32.81,142.26,61,146.84,64.08Zm17.75,5.62C141.66,57,145.34,28.28,160.06,16.37c6.78-5.49,21.08-11,26.36-9,2.83,1.06,5.9.22,9.85,2.59C238.67,35.39,203.77,91.38,164.59,69.7Zm22-64.76c.55.31,1.86.32,1.65.91s-1.7.08-2.34.1c-8.15.32-9.4,1.32-10.57,1.11-.91-.17-1.79-1.08-5.84-3.61C166.06,1.3,177.48.05,186.58,4.94ZM162.1,6.6c5-3.58,3.49-4,10.23.33.29.18,1,.22.94.72s-.55.3-.73.38c-7.85,3.31-6.87,3.49-10.26,1.69-.89-.47-2.61-.36-2.69-1.36S161.28,7.2,162.1,6.6Zm-9.38,7.53c5.9-6,5.22-4.68,7.53-3.57,3.46,1.66,3.32,1.15-5.3,8.23-1.26,1-2.62-.65-4-1.38C150.26,17,152.15,14.7,152.72,14.13Zm-3.6,5.29c1.17-1.82,4.36.94,4,1.67-1.74,3.56-3.19,7.61-5.24,7.3C146.34,28.16,143.41,28.32,149.12,19.42Zm-4.4,9.51L147.41,30c1.53,1,1.16,1.57-.86,9.55-.17.71-2.56-.18-3.24-.45C142.42,38.74,144.51,29,144.72,28.93Zm-1.78,19.46c-.78-8.6-.46-8.16,2.33-6.76,1.65.84,1.22,3.4,1.66,7.66.08.88-.05,1.16-.94.8C144.39,49.45,143,49.37,142.94,48.39Zm5.74,6.26c1.56,5.53,2.54,5-1.78,3.64-1.83-.58-2.77-2.2-3.36-6.34C143.22,49.71,147.72,51.26,148.68,54.65Zm-2.91,5.17c.7-1,6,.71,9.54,4.71.37.42,1.74,1.75,1.46,2.52S144.39,61.72,145.77,59.82ZM195.6,29.45c-.67-3-5.9-.57-7.41,5.26C180.66,63.79,201.19,54.36,195.6,29.45Zm-6.45,7.26c.53-1.86,4.13-8.1,4.93-5.68,1.3,3.94,1.22,10.65-.42,15.42C190,57,186.65,45.51,189.15,36.71Zm73.26,114c-4.05-5.62-7.46-2.75-6-1.67,5,3.59-.81,14.19-1.65,10.71a25.32,25.32,0,0,0-1.89-6.14A8,8,0,0,0,242.19,150c-3.06,1.54-4.93,6.77-3.41,9.76a13.18,13.18,0,0,0,7,6.3c0,.18-.18.36-.33.43-12.09,6.09-7-16.53-50.12-32.62-12.93-4.83-40.51-11.55-60.37-8.29a2.23,2.23,0,0,1-2.62-1.22C111,92.5,89.3,86.06,91.83,97.24c1.77,7.85-.42,17.34-2.49,22.6-1-.87-9.76-12-19.21-16.63-3.85-1.89-8-3.18-12-4.77-1.64-.65-3.35-.73-4.62.44-2.58,2.42.48,5.89.11,10.08-1.36,15.37-4.21,16.35,1.2,25.27.54.9,2.17,1.39,2,2.44s-1.77,1.2-2.66,1.79c-13.88,9.17-15.82,21.67-27.38,26-12.64,4.71-20.21,1.78-24.95,17.92-3.69,12.6-2.2,38.35,7.84,43.4,7.91,4,18.12,10.56,27,11.22,3.9.28,2.94,5.89,8.84,7.35,20.08,5,17.73,2.21,30.36,18.68,6.58,8.58,1.1,1.4,7.4,14.22,1.65,3.36,3.94,6.45,5.29,9.92,1.71,4.42,4.65,6,9.11,5.8,6.5-.28,3.48,3.53,8.54,4.27a39.66,39.66,0,0,0,13,.11c10.38-1.9,10.45-13.85,14.51-13.6,17.18,1,24.75,3.88,37.33,1.53,3.83-.72,4.42-1.95,6.37,4.06a10.52,10.52,0,0,0,9.92,6.92c3.81-.14,5.31,1.93,6.85,2.24,13.09,2.67,17.74,4,23.6-15.16,11.92-39.05-.2-8.84,15.1-39,5.6-11.05,12.83-32.19,12.23-43.94-1.25-24.71-3.09-20.51,2.09-24,8.35-5.63,4-8.18,8.74-9C263.16,166.12,266.66,156.65,262.41,150.75Zm-91.86-22c38.36,7.32,58.28,25.93,49,20.5-14.74-8.68-38.48-12.17-45.83-13.74-10.85-2.31-14.68-.43-23.67-1.23-1.16-.12-2.25-3.48-3.76-6.82C144.72,123.94,169.6,128.58,170.55,128.76ZM6.66,221.18c-2.49-3.48-3.1-7.66-4.06-11.66C-7.9,165.85,33.24,148,24.33,212.26,22.81,223.23,12.29,229,6.66,221.18Zm92.72,70.07c-1-.1-5.85,1.55-8.13-3.43-8.53-18.63-13.3-21.89-1.19-14.36,2.36,1.46,6.35,10.94,10,16.7C100.49,290.87,100.49,291.37,99.38,291.25Zm79.86-3.85c-.93-3.78-2.64-2.83,2-4.5.56-.2,6.58,9.7,6.9,10.2C189.72,295.58,180.91,294.25,179.24,287.4ZM254,166.09c-2.22.62-1.45,1.48-2.54,3.69-2.71,5.48-9.58,6-9.52,10.34.09,7.41,9.2,32.13-14.5,71.11-9.52,15.67-10.51,44.41-19.37,46.1-4.53.88-13.76,1.24-16.26-2.61-8.42-13-8.81-12.17-6.2-14.06C194,274.58,197.86,272,197,271c-.4-.43-1.25.2-1.66.54-3.08,2.57-13.46,15.17-38.22,12.82-30.16-2.87-24.13-.46-20.41-8.07,6.23-12.72,6.84-14.45,5.81-14.85-.7-.27-1.47,1.44-1.77,2.13-4.64,10.65-12.15,31.52-22.9,32s-13.22-.07-15-3.39c-10.39-19.52-8.83-14-13.88-29-.65-1.94-1.88-1.13-1.46.29,1.88,6.28,3.31,8.6,1.59,7.47-8.64-5.69-4.82-1.11-19.65-19.24-7.49-9.17-23.48-4.92-27.05-12.16-1.62-3.29,1.24-1,8-2.6,5.35-1.25,10.6-2.85,15.91-4.23,4.44-1.14,9.76,2.22,9.93.1,0-.6-1-.87-1.56-.92-2.36-.2-4.55-.76-6-2.73-.89-1.21-2.29-4.75-3.1-4.09s-1.11,1.54.67,4.27c1.25,1.92,2.48,2-9.88,5.18-8.38,2.13-17.6,2.77-25.71-.44-1-.41-15.28-6.87-15.26-7.51,0-.28,3.29-2.08,3.55-2.31,10.08-9.1,9-27.82,7.26-40.6-1.45-10.82-8.72-15-8.72-15,.07-.26.47-.25.71-.26,15.08-.43,22-14.33,28-21.15A40.18,40.18,0,0,1,75.1,133.5c3-.53,2.58-4.39-14.06,1.38-.86.31-2.1.88-2.64.53-10.84-7.17-1.54-21.64-4-32.17-.7-3,1.19-3.61,3.88-2.53,12.22,4.84,14.52,5.22,19.75,10.15.25.24,10.45,10.57,10.68,10.85-1,3.34-1.11,6.57.74,9.77.55,1,5.6,9.15,6.75,8.32.82-.61-3.75-6.26-5.91-10.08-3.54-6.24,4.11-10.34,3.63-27.76-.09-3.53-1.84-8.64,1.26-7.82,21.46,5.75,35.63,29,45,49.24.55,1.19,1.68.62,1.2-.55-5.63-13.92-7.88-15.4-5.28-15.66,7.08-.73,8.36-.92,8.9.43,4.3,10.47,2,8.61,7.57,8.53,14.56-.18,25.6.09,48,7.09,31.79,10,26,15.25,37,24.55,2.58,2.17,8.7,1.65,11.21-.76,2.16-2.07-1.6-2.19-2.56-2.81-4-2.59-7.5-4.8-6-9.33,3.13-9.81,15.63-.27,12.61,6.76-1.43,3.33,6.6-.45,7-5,.48-6.19,0-6,.63-5.52a6.75,6.75,0,0,1,2.18,6.05C261.73,161.93,258.36,164.85,254,166.09Zm-9.55-10.54c-3.24,2.1.21,4.33,3.28,6.63.23.17.83,0,1.13-.19s-.23-1.72-.27-2.14C248,154,246.22,154.36,244.41,155.55Zm2.2,3.81c-1.07.06-2.2-3.1-.68-3C247,156.48,247.12,159.33,246.61,159.36ZM98.21,101.3c-1.36.92,1.4,3.62,2.07,4.58,3.75,5.3-.54,19.07.63,23.63,1.69,6.55,13.24,6.5,10.65-5.64C110.25,117.77,99.75,100.25,98.21,101.3Zm10.43,30.08c-1.83,1.63-5.15.35-5.92-2.21-.88-2.94.37-8.71.49-11.47.27-5.87-1.87-12.79,5.18,1.76C109.62,122,113.69,126.91,108.64,131.38ZM58,106.57c.06.37.48.66.69,1,3.32,5.46,3.45,2.75,3,13.44-.06,1.56-1,2.87-.1,5.72,1.53,5.12,7.5,3.46,8.43-.53,1.16-5-2.48-9-5.7-13.62C62.91,110.54,57.11,101.47,58,106.57Zm8.61,21.26c-5.77,1.8-3.47-7.83-3.37-8.78.17-1.79,0-5.58,1-3.78C64.88,116.22,72.2,126.09,66.64,127.83Zm-3.92,29.71c-5.72-1.33-6.92,6.75-5.13,9.43C62.17,173.83,68.33,158.85,62.72,157.54Zm-17.66,6.53c2.24.55,6.11-3,4.13-9.12C47.12,148.56,39.5,162.71,45.06,164.07ZM4.31,193.92c-.55,4.65.74,6.67,2,7.56,1,.68,4.2-1.82,4.06-5.29C10.06,189.34,5.27,185.74,4.31,193.92ZM6.42,199c-1.35-2.78-.59-3.76-.53-5.66l.6-2c1-.72,2.66,3.7,2.68,4.9C9.19,197.66,7.63,201.46,6.42,199Zm165.69-17c.43-3.63-2-1.63-3.32-1.22-2.12.66-4.07,3.61-3.85,6.65.2,2.61,5.73,7.52,7.24,7.09s.7-1.41.3-6.87C172.47,187.42,172.06,182.42,172.11,182Zm-1.29,9.27c-.33.16-3-1.81-4-4.46s3.66-6.83,3.71-4.16c0,.81,0,1.76.09,3.47C170.73,187,171.39,191,170.82,191.24Zm10.41,3.46c-1.21-.25-1.93-.19-1.95-.81-.25-6.91.56-7.4-.14-11.12-.38-2,.21-2,1.65-1.45a23.53,23.53,0,0,1,4.93,2.94c.31.35.79.72,1.18.47.84-.55,4.52-4.48,3.51-5.5-2.46-2.48-2.89-4.21-10.54-7.16-.83-.31-.48-.23-2.12-.29s.3-7.77-2.73-7.3c-1.21.19-5.2.25-5.66,1.41-.57,1.42.2,1.41.34,3,.05.5,0,2.7,0,2.72,0,.55-.06.87-4,3.63-2.71,1.88-4.57,3.95-5.24,8.74-1.19,8.4,1.77,9.64,4.24,12.5.39.45.09.23,1.7,1.12,3.52,1.94.36.86,4.88,2.61,1.44.55.76,9.57.76,10.41-.07,7.12,1.95,10,.49,10-3.8.08-9-3.27-9.71-7.17-.14-.76-.78-1-2.08.82-2.55,3.55-3.81,5-2.85,5.87a3,3,0,0,0,1,1.41c.42.34,4.79,4.19,5.12,4.63,1.1,1.47,7,3.38,8.82,3.46,1.48.06,2.09-.86,2.11,4.1,0,3.29-.37,4,.81,3.56,2-.7,7.55-.41,8.13-2.25a3.62,3.62,0,0,0,0-1.82c-.24-1.24-.24-2.51-.42-3.76-.08-.58.24-.31,1.75-.76,2.74-.82,6.2-1.45,8.28-3.21,1.05-.89,4.82-2.92,6.23-8.17C202,209.17,194.24,197.33,181.23,194.7Zm17.17,22c-.63,5.79-7,9.74-12.68,10.53a6.9,6.9,0,0,1-2.64,0,1.27,1.27,0,0,0-1.55,1.58c1.52,6.93.66,6-1.65,6.36-2.78.41-3.12,1.06-3.34-1a31.87,31.87,0,0,1,0-5c0-1-.25-1-.51-1-7.91-.19-10.09-2.94-12.89-5.41-1.26-1.12-4.06-3.3-3.62-4.21,3.54-7.27.53,2.38,11.14,3.61,1.5.17,4.76.68,4.39-1.12-.13-.62-1-4.84-1.09-5.36-.82-9.15.47-16.2-1-16.63a6.21,6.21,0,0,1-2.46-1c-4.26-2.68-4-2.48-4.7-3.22a12.3,12.3,0,0,0-1.37-1.52c-3.85-3-3.54-17.39,5.85-18.78a1.86,1.86,0,0,0,1.12-2.18l-.08-2.65c-.26-3.33-.48-3.35,1.4-3.54,2.28-.23,2.12-.72,2.27,2.84.09,2.17,0,4.73,2.67,4.4.84-.1,7.43,1.89,10.9,6.74.32.44,0,.64-.33,1l-1,1.25a60.09,60.09,0,0,0-6.57-3c-1.33-.46-1.42-.85-2.63-.59-1.52.33-.78,5.56-.39,10.39.09,1.14-.82,4,.38,6.51,0,.1,5,1.38,5.08,1.42C191.63,200.05,199.35,207.91,198.4,216.73ZM181,200.51c-1.34.52-2.79-.08-2.73,1.75.08,2.06.75,9.42,1.6,20.06.07,1,.9.71,3.86.46,12.06-1,11.27-11.73,7.67-15.88C189.68,205.22,183.08,199.7,181,200.51Zm9.63,18.42a10.66,10.66,0,0,1-8.52,2.16c-.93-.19-2.27-16.35-1.92-18.37.31-1.8,12.58,4.12,11.94,11.55C192.05,215.11,191.81,218.1,190.62,218.93Z" transform="translate(0 0)"/></svg>