<?xml version="1.0" encoding="utf-8"?>
<!-- Generator: Adobe Illustrator 26.2.1, SVG Export Plug-In . SVG Version: 6.00 Build 0)  -->
<svg version="1.1" id="Layer_1" xmlns="http://www.w3.org/2000/svg" xmlns:xlink="http://www.w3.org/1999/xlink" x="0px" y="0px"
	 viewBox="0 0 135.3 134.5" style="enable-background:new 0 0 135.3 134.5;" xml:space="preserve">
<style type="text/css">
	.st0{fill:#BA8760;}
	.st1{fill:#EFB78E;}
	.st2{fill:#010101;}
	.st3{opacity:0.1294;}
</style>
<g>
	<g>
		<path class="st0" d="M65.3,134.5c-3.3,0-6.4-0.9-9.2-2.7c-5.5-3.6-8.8-8.6-12.3-14c-1.3-2-2.6-4.1-4.1-6.1
			c-2.5-3.3-5.8-6.1-9.6-7.9c-0.2-0.1-0.3-0.2-0.4-0.3c-2.7-4.6-5.8-9.9-10.6-12.8c-1-0.6-2-1-3.2-1.5c-1.5-0.6-3-1.2-4.3-2.2
			c-7-5.4-10.7-11-11.6-17.1c-0.7-5.2,2.5-20.6,13.9-24.5c5.2-1.8,6.8-3.4,8.3-4.8c0.9-0.9,1.8-1.7,3.3-2.5c4.2-2.1,6.3-5.3,8.5-8.7
			c1.9-3,3.9-6.1,7.4-8.3c2.8-1.7,4.6-4.5,6.6-7.4c1-1.5,2.1-3.1,3.3-4.5c4-4.6,9.7-7.6,15.6-8.2c6.1-0.6,12.3,1.5,16.6,5.6
			c2.3,2.2,4,4.9,5.7,7.5c1.1,1.7,2.3,3.5,3.6,5.1c2.6,3.1,5.8,5.7,9,8.2c3.3,2.6,6.7,5.3,9.4,8.7c0.7,0.9,1.3,2,1.9,3.1
			c0.7,1.3,1.3,2.6,2.2,3.5c0.3,0.3,0.6,0.6,0.9,0.8c1.8,1.7,2.7,2.6,6.9,4.6c3.8,1.8,9.5,8.2,10.8,12.2
			c3.6,11.2-1.4,23.4-11.7,28.3c-1.2,0.6-2.7,1.1-4.1,1.5c-1.4,0.5-2.8,0.9-3.9,1.5c-3.4,1.7-5.8,4.9-8,8.4c0,0.1-0.1,0.1-0.2,0.2
			l-11.3,10c-1.7,1.5-3.4,3-4.7,4.7c-1.1,1.4-1.9,3-2.8,4.6c-0.3,0.6-0.7,1.3-1.1,1.9c-3.3,5.7-7.3,8.4-12.6,10.9
			C71,133.9,68.1,134.5,65.3,134.5z M31.1,102.4c3.9,1.9,7.4,4.8,10,8.3c1.5,2,2.9,4.1,4.2,6.2c3.3,5.2,6.5,10.1,11.7,13.4
			c4.7,3,10.4,3.2,16,0.6c5.2-2.4,8.8-4.9,11.8-10.2c0.4-0.6,0.7-1.3,1-1.9c0.9-1.6,1.8-3.3,2.9-4.8c1.4-1.9,3.2-3.4,4.9-5l11.2-9.9
			c2.3-3.5,4.8-7.1,8.7-8.9c1.2-0.6,2.7-1.1,4.1-1.5c1.4-0.5,2.8-0.9,3.9-1.5c9.5-4.6,14.1-15.8,10.8-26.2
			c-1.2-3.6-6.4-9.5-9.9-11.2c-4.5-2.2-5.5-3.2-7.4-4.9c-0.3-0.3-0.5-0.5-0.8-0.8c-1.1-1.1-1.9-2.5-2.6-4c-0.5-1.1-1-2.1-1.7-2.8
			c-2.6-3.2-5.9-5.9-9.2-8.4c-3.2-2.6-6.6-5.2-9.3-8.5c-1.4-1.7-2.6-3.5-3.7-5.3c-1.7-2.6-3.3-5.1-5.5-7.2c-4-3.8-9.7-5.7-15.3-5.2
			c-5.5,0.5-10.7,3.3-14.4,7.6c-1.2,1.3-2.2,2.9-3.2,4.4c-2,2.9-4,5.9-7.1,7.9l0,0c-3.2,2-5,4.8-6.9,7.7c-2.3,3.5-4.6,7.1-9.2,9.3
			c-1.3,0.6-2,1.3-2.9,2.2c-1.6,1.5-3.4,3.2-8.9,5.2C4.6,50.5,1.1,64.5,1.8,69.7c0.7,5.6,4.3,10.9,10.9,16c1.1,0.9,2.5,1.4,3.9,2
			c1.2,0.5,2.3,0.9,3.4,1.6C25.1,92.4,28.3,97.7,31.1,102.4z M42,21.9L42,21.9L42,21.9z"/>
	</g>
	<g>
		<g>
			<path class="st0" d="M68.1,120.6c-1.7,0-3.4-0.1-5.1-0.3c-9.7-1-20.3-5.5-29.7-12.8c-9.6-7.5-16.2-17.9-19.5-30.9
				c-1.7-6.6-2.1-12.3-1.2-17.4c0.8-4.5,2.6-9.2,5.5-14.2c9.3-15.8,25.2-26.9,42.5-29.7c17.9-2.9,37,3.6,48.7,16.6l0,0
				c12.2,13.6,15.9,33.8,9.1,50.1c-3.9,9.5-11.2,17.5-17,24c-1.4,1.6-4.3,4.6-7.6,6.9C86.7,117.9,77.7,120.6,68.1,120.6z M69.2,16.3
				c-2.8,0-5.6,0.2-8.3,0.7c-16.8,2.7-32.2,13.5-41.3,28.9c-2.9,4.8-4.6,9.3-5.3,13.6c-0.8,4.9-0.4,10.4,1.2,16.7
				c3.2,12.6,9.6,22.7,18.9,29.9c9.1,7.1,19.4,11.6,28.8,12.5c11,1.1,21.6-1.4,29.7-7.1c3.2-2.2,5.9-5.1,7.3-6.6
				c5.7-6.4,12.8-14.3,16.6-23.5c6.5-15.8,3-35.2-8.8-48.3C98.5,22.4,83.9,16.3,69.2,16.3z M66.7,96c-6,0-12.5-2.1-18.6-8.2
				C34,73.7,38.2,61.9,42.6,54.2c3.9-6.8,13.6-14.8,22-15.9c7.6-1,19.1,1.8,25.1,8.4c11.8,13.1,8.8,31-0.9,40.7c0,0,0,0,0,0
				C88.7,87.5,78.8,96,66.7,96z M67.8,39.8c-1,0-2,0.1-2.9,0.2C57.1,41,47.7,48.8,44.1,55c-4.1,7.2-8,18.3,5.2,31.5
				c17.4,17.4,38-0.2,38.2-0.4c9.1-9.2,12-26,0.8-38.3C83.6,42.5,74.7,39.8,67.8,39.8z M88.2,86.8L88.2,86.8L88.2,86.8z"/>
		</g>
	</g>
	<g>
		<path class="st1" d="M91.6,21.4c-5.2,6-8.7,12.1-11.5,18.8c-0.3,0.7-0.8,1.6-0.2,2.4c0.3,0.4,0.7,0.6,1.1,0.8
			c5.6,3.1,9.9,7.8,12.9,13.9c5.1,1.2,16.8-7.5,23.4-12.6c-0.5-3.5-2.3-5.9-5.3-9.2c-5.6-6-10.7-12.5-17.9-15.2
			C93.1,19.9,92.5,20.3,91.6,21.4z"/>
		<path class="st2" d="M94.9,58.3c-0.4,0-0.8,0-1.2-0.1c-0.3-0.1-0.5-0.2-0.6-0.5c-3-6-7.2-10.6-12.6-13.6c-0.5-0.2-1-0.5-1.4-1.1
			c-0.8-1.1-0.3-2.2,0-3l0.1-0.2c3.1-7.4,6.8-13.4,11.6-19l0,0c0.9-1,1.8-1.9,3.4-1.4c6.3,2.3,10.8,7.3,15.6,12.6
			c0.9,0.9,1.7,1.9,2.6,2.8c3.1,3.3,5,6,5.5,9.7c0,0.3-0.1,0.6-0.3,0.8C106.5,54.1,99.2,58.3,94.9,58.3z M94.4,56.5
			c3.5,0.4,10.9-3.7,21.8-12.2c-0.6-3-2.2-5.3-5-8.2c-0.9-0.9-1.7-1.9-2.6-2.8c-4.7-5.1-9.1-10-14.9-12.1c-0.3-0.1-0.6-0.2-1.5,0.9
			l0,0c-4.7,5.5-8.3,11.4-11.3,18.6l-0.1,0.3c-0.3,0.7-0.4,1-0.2,1.3c0.1,0.2,0.4,0.4,0.8,0.5C86.9,45.7,91.3,50.3,94.4,56.5z"/>
	</g>
	<g>
		<path class="st1" d="M45,113.4c5.3-6.1,8.8-12.3,11.7-19c0.3-0.8,0.8-1.6,0.3-2.4c-0.3-0.4-0.7-0.6-1.1-0.8
			c-5.6-3.1-10.2-7.5-13.2-13.7c-5.1-1.1-16.7,7.4-23.3,12.6c0.5,3.5,2.2,6,5.3,9.2c5.6,6,10.7,12.5,17.9,15.2
			C43.5,114.8,44.1,114.4,45,113.4z"/>
		<path class="st2" d="M43.1,115.5c-0.3,0-0.6-0.1-0.9-0.2c-6.3-2.3-10.9-7.3-15.7-12.6c-0.9-0.9-1.7-1.9-2.6-2.8
			c-3.1-3.3-5-6-5.5-9.7c0-0.3,0.1-0.6,0.3-0.8c12.1-9.5,20-13.7,24-12.8c0.3,0.1,0.5,0.2,0.6,0.5c2.8,5.6,7.1,10.1,12.8,13.3
			c0.5,0.2,1,0.5,1.4,1.1c0.8,1.1,0.3,2.2-0.1,3l-0.1,0.2c-3.1,7.4-6.9,13.6-11.8,19.3C44.9,114.7,44.2,115.5,43.1,115.5z
			 M20.3,90.5c0.5,3,2.2,5.3,5,8.3c0.9,0.9,1.7,1.9,2.6,2.8c4.7,5.1,9,10,15,12.1c0.3,0.1,0.6,0.2,1.5-0.9c0,0,0,0,0,0
			c4.8-5.6,8.5-11.5,11.6-18.8l0.1-0.3c0.3-0.7,0.4-1,0.2-1.3c-0.1-0.2-0.4-0.4-0.8-0.5c-6-3.3-10.5-7.9-13.4-13.6
			C39.5,78,33.6,80.1,20.3,90.5z"/>
	</g>
	<g>
		<path class="st1" d="M20.8,41.9c1.7,2.4,4.3,4.2,6.7,5.9c4.5,3.4,8.4,5.3,13.3,7.3c0.9,0.4,1.7,1.2,2.9,0.7
			c2.6-4.3,8.3-9.8,12.7-12.1c0.6-2-0.3-4-1.1-5.7c-2.3-4.7-4.6-9.3-7-13.8c-0.8-1.5-1.6-3.1-2.9-4.5c-2-0.3-4,1.1-5.7,2.4
			C33.5,27,27.7,32.4,22.4,38.2C21.5,39.2,20,40.8,20.8,41.9z"/>
		<path class="st2" d="M42.9,56.9c-0.8,0-1.4-0.4-1.9-0.6c-0.2-0.1-0.4-0.2-0.6-0.3c-4.7-1.9-8.8-3.9-13.5-7.4l-0.8-0.6
			c-2.2-1.6-4.5-3.3-6.1-5.5v0c-1.2-1.6,0.6-3.5,1.6-4.6l0.1-0.1c5.3-5.8,11.1-11.3,17.3-16.2c2-1.6,4.1-3,6.4-2.6
			c0.2,0,0.4,0.1,0.5,0.3c1.4,1.5,2.3,3.2,3.1,4.7c2.4,4.6,4.8,9.2,7,13.9c1,2,1.8,4.1,1.2,6.3c-0.1,0.2-0.2,0.4-0.4,0.5
			C52.6,46.7,47,52,44.4,56.3c-0.1,0.2-0.2,0.3-0.4,0.3C43.6,56.8,43.3,56.9,42.9,56.9z M21.5,41.4c1.5,2,3.6,3.6,5.7,5.1l0.8,0.6
			c4.6,3.4,8.6,5.4,13.1,7.2c0.3,0.1,0.5,0.2,0.7,0.4c0.6,0.3,0.9,0.5,1.2,0.4c2.7-4.4,8.2-9.6,12.6-12c0.3-1.6-0.3-3.1-1.1-4.8
			c-2.3-4.6-4.6-9.3-7-13.8c-0.7-1.3-1.4-2.8-2.6-4.1c-1.5-0.1-3.2,1.1-4.7,2.3c-6.1,4.9-11.8,10.2-17.1,16l-0.1,0.1
			C22.4,39.5,21.1,40.9,21.5,41.4L21.5,41.4z"/>
	</g>
	<g>
		<path class="st1" d="M89.3,115.3c-2.2-1.8-3.7-4.5-5.2-6.9c-2.9-4.6-4.5-8.6-6-13.5c-0.3-0.9-1-1.7-0.4-2.9
			c4.5-2.3,10.4-7.5,13-11.8c2-0.5,3.9,0.5,5.5,1.4c4.4,2.5,8.7,5.1,13,7.7c1.4,0.9,2.9,1.8,4.1,3.1c0.1,1.9-1.4,3.9-2.9,5.4
			c-5.4,5.7-11.2,11-17.3,15.9C92,114.8,90.3,116.2,89.3,115.3z"/>
		<path class="st2" d="M90,116.5c-0.4,0-0.9-0.1-1.3-0.5l0,0c-2-1.7-3.5-4-4.9-6.3l-0.5-0.8c-3-4.8-4.6-9-6.1-13.7
			c-0.1-0.2-0.1-0.4-0.2-0.6c-0.3-0.7-0.8-1.7-0.1-3c0.1-0.1,0.2-0.3,0.4-0.3c4.5-2.3,10.2-7.4,12.7-11.5c0.1-0.2,0.3-0.3,0.5-0.4
			c2.3-0.5,4.3,0.4,6.1,1.5c4.4,2.5,8.7,5.1,13,7.7c1.4,0.8,2.9,1.8,4.3,3.3c0.1,0.1,0.2,0.3,0.2,0.5c0.2,2.2-1.4,4.3-3.1,6.1
			c-5.4,5.7-11.3,11.1-17.4,16l-0.1,0.1C92.6,115.4,91.3,116.5,90,116.5z M89.9,114.7c0.4,0.4,2-0.9,2.5-1.3l0.2-0.1
			c6.1-4.8,11.9-10.1,17.3-15.8c1.3-1.4,2.6-3,2.7-4.5c-1.2-1.2-2.5-2-3.7-2.8c-4.2-2.6-8.6-5.2-12.9-7.7c-1.5-0.9-3-1.6-4.6-1.4
			c-2.7,4.1-8.4,9.2-12.9,11.6c-0.1,0.3,0,0.6,0.3,1.2c0.1,0.2,0.2,0.5,0.3,0.8c1.4,4.6,2.9,8.6,5.9,13.3l0.5,0.8
			C86.7,110.9,88,113.1,89.9,114.7L89.9,114.7z"/>
	</g>
	<g>
		<path class="st0" d="M21.3,79.9c-0.1,0-0.2-0.1-0.3-0.2c-3.1-5.7-4.1-12.5-2.8-18.9c0-0.2,0.2-0.3,0.3-0.2c0.2,0,0.3,0.2,0.2,0.3
			c-1.2,6.2-0.2,12.9,2.8,18.5c0.1,0.1,0,0.3-0.1,0.4C21.4,79.9,21.3,79.9,21.3,79.9z"/>
	</g>
	<g>
		<path class="st0" d="M25.1,77.6c-0.1,0-0.2,0-0.2-0.1c-1.3-2.1-2-4.6-2-7c0-0.2,0.1-0.3,0.3-0.3c0.2,0,0.3,0.1,0.3,0.3
			c0,2.3,0.6,4.7,1.9,6.7c0.1,0.1,0,0.3-0.1,0.4C25.2,77.6,25.1,77.6,25.1,77.6z"/>
	</g>
	<g>
		<path class="st0" d="M30.1,76.3c-0.1,0-0.2-0.1-0.3-0.2c-0.6-1.3-1-2.6-1.3-3.9c0-0.2,0.1-0.3,0.2-0.3c0.2,0,0.3,0.1,0.3,0.2
			c0.3,1.3,0.7,2.6,1.3,3.8c0.1,0.1,0,0.3-0.1,0.4C30.2,76.3,30.1,76.3,30.1,76.3z"/>
	</g>
	<g>
		<path class="st0" d="M67.4,116.3c-3.8,0-7.7-0.5-11.4-1.4c-1.9-0.5-4.1-1.2-5.7-2.7c-0.1-0.1-0.1-0.3,0-0.4c0.1-0.1,0.3-0.1,0.4,0
			c1.5,1.4,3.6,2.1,5.5,2.6c5,1.3,10.2,1.7,15.3,1.2c0.2,0,0.3,0.1,0.3,0.3c0,0.2-0.1,0.3-0.3,0.3C70.2,116.2,68.8,116.3,67.4,116.3
			z"/>
	</g>
	<g>
		<path class="st0" d="M64.6,111.6C64.6,111.6,64.6,111.6,64.6,111.6c-4-0.2-7.9-1-11.7-2.4c-0.1-0.1-0.2-0.2-0.2-0.4
			c0.1-0.1,0.2-0.2,0.4-0.2c3.7,1.4,7.5,2.2,11.5,2.3c0.2,0,0.3,0.1,0.3,0.3C64.9,111.5,64.8,111.6,64.6,111.6z"/>
	</g>
	<g>
		<path class="st0" d="M60.1,106.8C60,106.8,60,106.8,60.1,106.8l-3.5-1c-0.2,0-0.2-0.2-0.2-0.4c0-0.2,0.2-0.2,0.4-0.2l3.4,1
			c0.2,0,0.2,0.2,0.2,0.4C60.3,106.7,60.2,106.8,60.1,106.8z"/>
	</g>
	<g>
		<path class="st0" d="M111,85.1c-0.1,0-0.1,0-0.2,0c-0.1-0.1-0.2-0.3-0.1-0.4c2.1-3.5,3.6-7.2,4.4-11.2c0-0.2,0.2-0.3,0.3-0.2
			c0.2,0,0.3,0.2,0.2,0.3c-0.8,4-2.4,7.9-4.5,11.4C111.2,85.1,111.1,85.1,111,85.1z"/>
	</g>
	<g>
		<path class="st0" d="M107,82.7c0,0-0.1,0-0.1,0c-0.1-0.1-0.2-0.2-0.1-0.4l2-4.5c0.1-0.1,0.2-0.2,0.4-0.1c0.1,0.1,0.2,0.2,0.1,0.4
			l-2,4.5C107.2,82.7,107.1,82.7,107,82.7z"/>
	</g>
	<g>
		<path class="st0" d="M102.1,82.3c0,0-0.1,0-0.1,0c-0.1-0.1-0.2-0.2-0.1-0.3l1.4-2.6c0.1-0.1,0.2-0.2,0.3-0.1
			c0.1,0.1,0.2,0.2,0.1,0.3l-1.4,2.6C102.3,82.2,102.2,82.3,102.1,82.3z"/>
	</g>
	<g class="st3">
		<path class="st0" d="M117.9,68.6c-0.2-0.6-0.8-0.9-1.4-0.9c-1.1,0-1.5,1-1.6,1.9c-0.1,1-0.3,2.1-0.6,3.1c-0.5,1.6-1.2,3.1-1.8,4.7
			c-1.5,4.3-2.3,6.5-4.6,10.6c-4.6,7.5-6.8,11.3-14.2,17.1c-1.4,1.1-7.7,5.8-11.3,7.2c-1.4,0.9-5.8,2-9.1,2.6
			c-4.3,0.7-7.4,1.2-13.2,1c-2.4-0.2-1.3-0.2-4.7-0.7c-1.9-0.3-3.8-0.5-5.7-1c-2-0.5-3.9-1.3-5.8-2c-2.7-1-3.3-1.2-5.9-2.6
			c-1.2-0.6-2.3-1.3-3.4-1.9c-0.4-0.2-0.8-0.3-1.2-0.2c-0.9,0.2-1.3,1.1-1.1,1.9c-0.6,0.6-0.6,1.7,0.3,2.2c2.2,1.3,4.5,2.8,6.9,3.7
			c0.5,0.1,1-0.1,1.3-0.5c2.3,1.1,4.7,2,6.1,2.5c3,0.9,5.4,1.2,7,1.4c0.1,0.2,0.4,0.4,0.7,0.5c3.9,0.9,7.8,1.6,11.8,1.6
			c5.7-0.4,13.4-2.1,17.5-4.2c0.2-0.1,0.3-0.2,0.3-0.4c0.5-0.2,1-0.4,1.4-0.6c0.2,0.6,0.8,1.1,1.5,1.1c1,0,1.6-0.9,2.4-1.4
			c4-3.1,7.1-5.2,11.3-8.8c1.9-1.9,2.3-2.3,3.9-4c2.2-2.4,4.6-5,5.6-8.1c0.1-0.7-0.2-1.3-0.7-1.6c1.1-1.9,2.1-3.8,3.1-5.6
			c1.6-3.1,2.4-6.5,3.5-9.8c0.8-2.4,1.7-4.7,1.9-7.2C118,69.7,118.2,69.1,117.9,68.6z"/>
	</g>
</g>
</svg>
