<?xml version="1.0" encoding="UTF-8"?>
<svg id="Layer_1" data-name="Layer 1" xmlns="http://www.w3.org/2000/svg" viewBox="0 0 57.86 35.94">
  <g>
    <path d="M51.98,35.02c-17.5-.39-34.13-.61-51.6,.55,.18-1.07,.37-2.73,.37-3.82,0-9.45,.54-15.8-.09-24.17,17.21-1.39,34.49-1.59,51.98,.05-.63,8.93-1.38,18.53-.66,27.41Z" style="fill: #fff;"/>
    <path d="M.37,35.94c-.11,0-.21-.04-.28-.12-.08-.09-.11-.2-.09-.31,.18-1.06,.36-2.7,.36-3.76,0-3.15,.06-5.93,.12-8.61,.11-5.35,.21-9.97-.2-15.53-.02-.21,.14-.38,.34-.4,18.61-1.51,35.64-1.49,52.04,.05,.2,.02,.35,.2,.34,.4l-.1,1.36c-.61,8.65-1.25,17.59-.56,25.99,0,.11-.03,.21-.1,.29-.07,.08-.18,.12-.28,.12-17.1-.38-33.91-.62-51.57,.55h-.02ZM1.06,7.91c.39,5.44,.29,9.99,.18,15.23-.06,2.68-.12,5.45-.12,8.6,0,.96-.14,2.35-.3,3.42,17.38-1.12,33.93-.89,50.75-.53-.64-8.33-.01-17.15,.59-25.68l.07-1c-16.14-1.49-32.89-1.51-51.18-.04Z" style="fill: #ba8760;"/>
  </g>
  <g>
    <path d="M56.83,28.95c-17.5-.39-34.13-.61-51.6,.55,.18-1.07,.37-2.73,.37-3.82,0-9.45,.54-15.8-.09-24.17C22.71,.1,39.99-.1,57.48,1.54c-.63,8.93-1.38,18.53-.66,27.41Z" style="fill: #fff;"/>
    <path d="M5.22,29.87c-.11,0-.21-.04-.28-.12-.08-.09-.11-.2-.09-.31,.18-1.06,.36-2.7,.36-3.76,0-3.15,.06-5.93,.12-8.61,.11-5.35,.21-9.97-.2-15.53-.02-.21,.14-.39,.34-.4,18.61-1.51,35.63-1.49,52.04,.05,.2,.02,.35,.2,.34,.4l-.1,1.35c-.61,8.65-1.25,17.6-.56,25.99,0,.11-.03,.21-.1,.29-.07,.08-.17,.12-.28,.12-17.1-.38-33.91-.62-51.57,.54h-.02ZM5.91,1.83c.39,5.44,.29,9.98,.18,15.23-.06,2.68-.12,5.45-.12,8.6,0,.96-.14,2.35-.3,3.42,17.37-1.12,33.93-.89,50.75-.52-.64-8.33-.01-17.16,.59-25.69l.07-.99C40.94,.39,24.19,.37,5.91,1.83Z" style="fill: #ba8760;"/>
  </g>
  <g>
    <path d="M50.47,25.41c.15-.6,.53-1.2,1-1.61,.5-.44,1.09-.7,1.73-.87,.3-.08,.62-.15,.94-.18,.01-2.74,.08-5.47,.23-8.21,.13-2.48,.31-4.97,.54-7.44-.22-.01-.44-.04-.66-.08-.79-.16-1.52-.58-2.11-1.12-.71-.67-1.07-1.61-1.08-2.56-1.45-.11-2.9-.2-4.35-.26-6.35-.29-12.71-.22-19.06-.08-5.24,.11-10.47,.21-15.7,.6,.01,.77-.21,1.57-.59,2.18-.64,1.05-1.85,1.65-3.06,1.65,0,.33,0,.66,0,.99,0,4.17-.03,8.35-.11,12.52-.01,.59-.03,1.18-.05,1.78,.07-.01,.15-.01,.24,0,.83,.19,1.65,.48,2.33,1.01,.32,.25,.57,.59,.8,.92,.25,.34,.49,.71,.66,1.1,.11,.25,.2,.49,.29,.75,2-.21,4-.35,6.01-.44,3.21-.14,6.42-.15,9.62-.14,3.22,0,6.44,.01,9.66,.06,3.21,.05,6.42,.15,9.63,.36,1.01,.06,2.01,.14,3.02,.23,0-.02,.01-.04,.02-.07-.05-.35-.03-.71,.06-1.06Z" style="fill: #fff;"/>
    <path d="M50.4,26.91h-.03c-1.02-.09-2.03-.17-3.01-.23-2.88-.18-5.94-.3-9.61-.36-3.1-.05-6.25-.06-9.29-.06h-.36c-3.07,0-6.35,0-9.61,.14-2.11,.09-4.07,.23-5.98,.44-.17,.02-.34-.08-.39-.25-.1-.28-.19-.5-.28-.72-.17-.38-.42-.75-.62-1.03-.23-.32-.46-.63-.73-.84-.54-.43-1.23-.73-2.18-.94-.03,0-.06,0-.09,0-.11,.02-.23-.01-.31-.08-.09-.07-.13-.18-.13-.3v-.49c.03-.43,.04-.85,.05-1.28,.09-4.23,.11-8.51,.11-12.51,0-.26,0-.53,0-.79v-.2c0-.1,.04-.2,.11-.27s.17-.11,.27-.11c1.14,0,2.18-.56,2.74-1.47,.34-.57,.54-1.31,.53-1.98,0-.2,.15-.37,.35-.38,5-.37,10.08-.48,15-.59l.71-.02c6.09-.13,12.62-.21,19.08,.09,1.58,.07,3.01,.16,4.37,.26,.19,.01,.34,.17,.35,.37,.02,.91,.36,1.73,.96,2.29,.57,.53,1.24,.89,1.93,1.03,.19,.04,.39,.06,.6,.07,.1,0,.2,.05,.26,.13,.07,.08,.1,.18,.09,.28-.24,2.62-.42,5.05-.54,7.43-.14,2.64-.21,5.39-.23,8.19,0,.19-.15,.35-.34,.37-.28,.03-.58,.09-.89,.17-.67,.18-1.18,.43-1.58,.79-.42,.37-.75,.91-.88,1.42h0c-.07,.29-.09,.6-.05,.92,0,.04,0,.09,0,.13v.05c-.05,.18-.21,.31-.38,.31Zm-23.61-1.4c.44,0,.88,0,1.31,0h.36c3.05,0,6.2,.02,9.3,.06,3.69,.06,6.75,.17,9.65,.36,.85,.05,1.73,.12,2.61,.19,0-.27,.03-.55,.09-.81h0c.17-.66,.58-1.33,1.11-1.8,.5-.44,1.1-.74,1.89-.95,.23-.06,.45-.11,.67-.15,.02-2.7,.09-5.35,.22-7.9,.12-2.27,.28-4.59,.51-7.08-.11-.01-.22-.03-.33-.05-.82-.17-1.61-.59-2.29-1.21-.68-.63-1.09-1.51-1.18-2.49-1.25-.09-2.56-.17-4.01-.24-6.44-.29-12.95-.22-19.03-.08l-.71,.02c-4.8,.1-9.76,.21-14.63,.56-.05,.71-.27,1.43-.63,2.03-.63,1.03-1.75,1.7-3,1.81,0,.21,0,.42,0,.63,0,4-.02,8.28-.11,12.52,0,.43-.02,.86-.03,1.29v.14c1.02,.24,1.79,.58,2.41,1.07,.35,.27,.61,.63,.87,.99,.22,.31,.5,.72,.7,1.16,.07,.15,.13,.32,.2,.49,1.84-.19,3.72-.32,5.74-.41,2.81-.12,5.64-.15,8.33-.15Z" style="fill: #ba8760;"/>
  </g>
  <g>
    <path d="M31.19,5.94c-1.32-.08-2.84,.54-3.82,1.46-3.03,2.84-4.02,7.77-2.32,11.62,.92,2.09,2.67,3.89,4.85,4.33,2.14,.43,4.41-.54,5.87-2.2,1.46-1.66,2.18-3.93,2.28-6.17,.1-2.27-.41-4.62-1.79-6.4-1.37-1.77-3.33-2.54-5.07-2.65Z" style="fill: #fff;"/>
    <path d="M30.91,23.83c-.37,0-.74-.04-1.09-.11-2.14-.43-4.05-2.13-5.11-4.55-1.77-4.01-.75-9.08,2.41-12.04,1.1-1.03,2.71-1.65,4.1-1.56h0c2.12,.13,4.07,1.15,5.34,2.79,1.32,1.71,1.98,4.06,1.87,6.64-.12,2.52-.96,4.8-2.38,6.4-1.36,1.54-3.28,2.43-5.13,2.43Zm.05-17.52c-1.13,0-2.44,.53-3.33,1.37-2.94,2.75-3.88,7.46-2.24,11.19,.97,2.19,2.68,3.73,4.58,4.12,1.9,.39,4.06-.43,5.52-2.08,1.3-1.48,2.08-3.59,2.19-5.94,.11-2.4-.5-4.58-1.71-6.15-1.14-1.47-2.89-2.39-4.8-2.5h0c-.07,0-.14,0-.21,0Z" style="fill: #ba8760;"/>
  </g>
  <g>
    <path d="M31.56,18.22h0c-.95,0-1.92-.25-2.78-.73-.18-.1-.25-.33-.15-.51,.1-.18,.33-.25,.51-.15,.75,.41,1.59,.63,2.42,.63h0c.54,0,.96-.1,1.28-.31,.38-.25,.64-.69,.66-1.12,.03-.74-.58-1.33-1.2-1.53-.4-.13-.83-.16-1.28-.19-.33-.02-.67-.05-1.02-.11-.67-.13-1.13-.43-1.37-.91-.3-.6-.15-1.34,.1-1.82,.42-.81,1.19-1.38,2.13-1.56,.91-.18,1.82,.03,2.43,.21,.2,.06,.31,.26,.26,.46-.06,.2-.26,.31-.46,.26-.86-.24-1.5-.3-2.08-.19-.7,.14-1.3,.57-1.61,1.17-.21,.4-.25,.85-.1,1.14,.13,.25,.41,.42,.84,.51,.3,.06,.6,.08,.93,.1,.48,.03,.97,.07,1.46,.23,.89,.29,1.76,1.17,1.72,2.27-.03,.68-.41,1.34-1,1.72-.45,.29-1,.43-1.68,.43Z" style="fill: #ba8760;"/>
    <path d="M31.33,19.73c-.2,0-.37-.16-.37-.37-.08-3.54-.31-7.13-.68-10.64-.02-.21,.13-.39,.33-.41,.2-.02,.39,.13,.41,.33,.37,3.54,.6,7.14,.68,10.71,0,.21-.16,.38-.37,.38h0Z" style="fill: #ba8760;"/>
  </g>
  <g>
    <path d="M17.6,11.54c1.36,.11,2.5,1.43,2.41,2.8-.09,1.36-1.38,2.53-2.74,2.47-1.36-.06-2.56-1.33-2.53-2.69,.03-1.36,1.28-2.71,2.86-2.57Z" style="fill: #efb78e;"/>
    <path d="M17.36,17.18s-.07,0-.11,0c-1.57-.07-2.92-1.5-2.89-3.07,.02-.79,.4-1.61,1.03-2.17,.63-.56,1.42-.84,2.23-.77h0c1.57,.13,2.85,1.62,2.76,3.19-.1,1.53-1.49,2.82-3.02,2.82Zm.02-5.28c-.54,0-1.07,.2-1.49,.59-.48,.43-.77,1.04-.78,1.63-.02,1.16,1.01,2.26,2.17,2.31,1.17,.05,2.28-.96,2.35-2.12,.07-1.16-.91-2.3-2.07-2.4-.06,0-.12,0-.18,0Z" style="fill: #ba8760;"/>
  </g>
  <g>
    <path d="M45.98,12.85c-.75-.5-1.92-.42-2.58,.17-.32,.28-.51,.66-.62,1.05-.15,.52-.14,1.07,.09,1.57,.4,.84,1.49,1.37,2.52,1.24,1.03-.13,1.9-.91,2.04-1.81,.13-.9-.6-1.65-1.45-2.21Z" style="fill: #efb78e;"/>
    <path d="M45.09,17.22c-1.08,0-2.14-.59-2.56-1.46-.31-.66-.23-1.33-.11-1.77,.14-.49,.38-.89,.72-1.2,.79-.71,2.17-.8,3.07-.2h0c1.19,.79,1.73,1.64,1.6,2.52-.16,1.04-1.17,1.94-2.35,2.09-.12,.02-.25,.02-.37,.02Zm-.27-4.37c-.42,0-.85,.14-1.14,.4-.24,.22-.42,.52-.53,.9-.14,.49-.11,.97,.07,1.36,.33,.69,1.26,1.15,2.12,1.04,.87-.11,1.6-.77,1.72-1.53,.09-.63-.35-1.28-1.31-1.91-.27-.18-.6-.26-.94-.26Z" style="fill: #ba8760;"/>
  </g>
  <path d="M8.63,5.43c-.13,0-.26-.02-.39-.06-.6-.2-.98-.89-.83-1.5,.09-.38,.39-.69,.8-.84,.41-.15,.84-.11,1.15,.12h0c.45,.32,.75,.95,.46,1.55-.22,.45-.7,.73-1.19,.73Zm.06-2.24c-.13,0-.26,.02-.4,.07-.33,.12-.57,.37-.64,.67-.12,.48,.2,1.04,.67,1.2,.47,.16,1.05-.09,1.27-.54,.23-.47-.03-.99-.38-1.24h0c-.15-.11-.33-.16-.52-.16Z" style="fill: #ba8760;"/>
  <path d="M8.62,27.74c-.37,0-.72-.14-.96-.38-.51-.51-.51-1.41,0-1.93,.49-.51,1.4-.54,1.94-.07h0c.23,.2,.36,.51,.38,.88,.02,.42-.12,.84-.38,1.11-.23,.25-.58,.39-.95,.39h-.02Zm.05-2.47c-.31,0-.62,.11-.83,.33-.41,.42-.4,1.17,0,1.58,.2,.2,.49,.31,.79,.3,.3,0,.59-.12,.77-.32,.21-.22,.33-.58,.32-.93-.01-.3-.12-.54-.3-.7-.21-.18-.49-.27-.76-.27Z" style="fill: #ba8760;"/>
  <path d="M54.04,5.19c-.48,0-.98-.22-1.32-.62-.25-.3-.35-.65-.28-.95,.07-.29,.29-.5,.45-.66,.19-.18,.42-.41,.71-.54,.57-.25,1.32-.03,1.66,.5h0c.2,.31,.26,.73,.16,1.14-.1,.41-.34,.75-.66,.94-.22,.13-.48,.19-.74,.19Zm.09-2.62c-.14,0-.28,.03-.41,.08-.23,.1-.42,.27-.64,.49-.18,.18-.34,.34-.39,.54-.08,.32,.13,.61,.23,.73,.43,.51,1.2,.68,1.73,.37,.26-.15,.46-.44,.54-.78,.08-.34,.03-.69-.13-.94-.2-.31-.57-.49-.94-.49Z" style="fill: #ba8760;"/>
  <path d="M53.61,27.39c-.28,0-.56-.08-.82-.24-.34-.21-.58-.53-.66-.88-.14-.61,.18-1.29,.75-1.61,.53-.3,1.25-.27,1.79,.07,.23,.15,.48,.47,.51,.85,.06,.8-.47,1.57-1.22,1.76-.11,.03-.23,.04-.34,.04Zm.08-2.69c-.24,0-.48,.06-.69,.17-.47,.26-.74,.84-.62,1.34,.06,.29,.26,.55,.54,.72,.3,.18,.65,.24,.97,.16,.62-.16,1.09-.83,1.03-1.5-.02-.3-.22-.55-.39-.66h0c-.25-.16-.55-.24-.84-.24Z" style="fill: #ba8760;"/>
  <g style="opacity: .13;">
    <path d="M51.86,29.41c-.1-.4-.54-.55-.88-.42,.02-.01-.06,0-.14,.02-.02,0-.08,0-.14,.02-.02,0-.2,.01-.3,.02-.21,0-.42-.03-.63-.04-1.07-.12-2.15-.12-3.22-.1-2.41-.05-4.82,.05-7.23,0-2.14-.03-4.27-.11-6.41-.11-2.72,.08-5.44,.14-8.16,.1-2.34,.13-4.68-.02-7.02-.03-2.64,.05-5.27,.29-7.91,.43-.97,.07-1.95,.16-2.92,.19-.51,.05-1.05-.04-1.54,.1-.69,.26-.49,1.35,.27,1.34,3.58-.13,7.14-.51,10.72-.63,2.63-.1,5.27,.03,7.9-.1,2.6-.04,5.21,0,7.82-.08,2.43-.04,4.85,.1,7.28,.15,2.75,.05,5.51,.04,8.27-.08,.9-.04,1.8,.04,2.7,.04,.66,.04,.47,.06,1.07,0,.34-.09,.58-.46,.48-.81Z" style="fill: #010101;"/>
  </g>
</svg>