<svg id="Layer_1" data-name="Layer 1" xmlns="http://www.w3.org/2000/svg" viewBox="0 0 241.2 289.75"><defs><style>.cls-1{fill:#050e13;fill-rule:evenodd;}</style></defs><path class="cls-1" d="M243.11,138.64c.11-20.35,2.91-27.8,2.13-38.43-2.52-34.34,1.89-54.78-4.09-68-1.64-3.61-.68-4.06-37.78-22.12C180.07-1.25,192.27.62,116.5,5.26A615,615,0,0,0,36.65,16.17C8,22.15,8.27,55.42,6.41,95.83,5,126.5,6.31,119.67,5,169.93,3.88,215,2.62,237.14,10.46,249.31c.71,1.11,1.43,2.49,6.45,4.7,2.16,1,4.23,2.07,6.33,3.14s3,4,3.54,6.37c1,4.37.73,9.3,4.32,10.3,11.26,3.13,13.9,6.85,19.57,5.52,5.25-1.23,3-.18,8.5-7.56a1.52,1.52,0,0,1,1.31-.31c26.07,8.23,11.68,7.7,35.62,8,6.52.07,6.51,8.62,9.09,9,14.92,2.37,15,4.11,21.36,1.86,1.43-.5,3.2-.41,3.86-2.2,3.41-9.21,4.5-11.3,7.15-11.73,1.29-.21,49.79-7.82,50.63-6.72,3.27,4.25,1.29,5.67,5.75,6.17,6.48.73,9,1.34,13.49,1.34a19.68,19.68,0,0,0,6.78-1.32c2.32-.84,2.4-.35,8.07-12,3-6.24,7.87-3.47,13.14-13.28,4.33-8.05,4.13-34,5-45.68C244.67,145.74,242.93,174.65,243.11,138.64ZM42.44,274.6c-.68.51-8.93-3.32-9.7-3.68-1.61-.76-1.81-2.56-4.05-10.95-.12-.43.59-.68,1-.49,10.26,4.43,9.71,3.88,10.46,6.27C40.34,266.25,42.89,274.28,42.44,274.6Zm10,1.51c-2.12,1.68-6.21-.16-7.15-2.77-2.42-6.76-3.52-8-.22-7,1,.31,1.86-.21,3.48.52.52.23,7.21,3.17,7.38,3.69S54.09,274.77,52.41,276.11Zm11.47-8.84c-1.3-3.62-2.26-7.35-3.37-11-.47-1.56-2.49-.86-1.67,2.41,1.36,5.4,2,6,1,6.43-1.47.65-4.11-5-4.68-6.83-.22-.68-1.41-5.3-1.88-5.83a.86.86,0,0,0-1.44.26c-.44,1.2,2.09,8.07,5.33,13.8a.74.74,0,0,1-.1.86c-1.07,1.21-5.46-1.33-7.52-6.8-1.4-3.65-2.71-7.35-4.15-11-.75-1.9-2.41-.8-1.91.63,3.81,10.72,6.77,16,4.19,14.31-4.86-3.18-3.78-1-9.68-14.81-.44-1,0-2.25-.73-3.09a.88.88,0,0,0-1.34,0c-1.78,2.4,4.92,13.42,4.17,14-1.19,1-5.78-3.65-6.75-5.23-2.84-4.62-3.08-10.61-3.59-11.82a.87.87,0,0,0-1.54-.05c-.39.77-.22.57,2.62,11.75.67,2.67-6.64.05-7.23-12.6-.13-3-4.73-1,1,10.92.24.49-.47.91-.85.49-3.86-4.37-4.68-5.69-5.18-11.09-.06-.71-.43-4.64-.91-5.2a.77.77,0,0,0-1.35.48c.36,8.41.84,7.78,2,12.47a.61.61,0,0,1-1.07.47c-5.56-6.92-4.18-12.58-4.61-13.79-.63-1.74-2-1.13-1.89-.05,1.1,8.46,1.62,8.72.81,8.89-1.06.22-3.53-10.12-3.76-11.12-3.44-15-.8-63.5-.76-66.26.73-46.45-1.3-65.48,4.56-117.33C13,38.93,16.91,33.63,19.24,29.29c.39-.73,1.3-1.19,1.81-1.89,4.86-6.67,12.28-9.15,20.2-10.75C91.17,6.62,165.3,2.77,186,4.44a4.91,4.91,0,0,1,1.56.69c.86,1-15.78,1-17.24,1.08a1.46,1.46,0,0,0-1.12.79c-.07.31.35,1.1.77,1.07,3.09-.24,3.6,0,9.52-.38C199.1,6.51,196.35,9,194,9.19c-15.62,1.58-14.66,1.21-15.45,1.86a.76.76,0,0,0,.12,1.26c.77.43,3.77,0,7.06-.46,5.53-.73,8.87-.22,13-1.2a3.72,3.72,0,0,1,2.84.52c2.7,1.59-5.51,2.39-12.49,3.21-1.4.16-2-.46-3.42.72a.76.76,0,0,0,.22,1.3c1.54.65,26.36-4,25.53.16-.23,1.17-14.26,1.61-15.65,2.57-5.11,3.53,13.24-1.07,20.54,0a19.35,19.35,0,0,1,5.89,2.62c1.37,1-11.68,1.2-13.46,1.18-4.41-.06-8.32.48-12.39.65-27.67,1.15-55.76,5.77-64.83,6.93-35.57,4.6-49.12,2.13-61.72,23.82-7.65,13.14-3,44-2.93,47.68-2.39,180.52-3.13,141.81.52,167.91C67.5,271.16,64.8,269.86,63.88,267.27Zm42,17.85c-.26-.63-1.85-4.85-1.43-5.39s8-.58,8.66-.61,4.89,7.83,5.19,8.35C119.47,289.54,106.27,286.12,105.86,285.12Zm22.58,1.72c-.6,1.17-6.24,2.57-7.44.61-1.46-2.4-2.82-4.87-4.1-7.38a1.68,1.68,0,0,1,.66-1.41c.8-.08,14.28-1.63,14.75-1S128.79,286.16,128.44,286.84Zm68.93-13.45c-2.43-.27-3.38,1.85-6.11-3.65-.49-1-.3-1.43.84-1.57,5.63-.7,7.54-1.27,8.14-.54C206.71,275.55,206.84,274.43,197.37,273.39Zm22.5-9.23c-3.72,8.7-4.55,9-7.07,9.69-3.52,1-3.56,1-5.79-1.73-.44-.53-3.83-4.49-3.59-5.11s14.8-3.76,15.48-3.91A.8.8,0,0,1,219.87,264.16Zm18.07-44.05c-2.05,23.47-1.37,32.51-14,38.7-14.23,7-92.26,17.39-121.64,18.66C52.24,279.66,69.7,266.3,68.85,130.2c-.11-21,.25-27.55.25-27.55C69,98.46,68,95.51,67.93,83.58c-.1-14.61-.67-24.2,7.54-34.48,6.93-8.67,18.29-13,28.34-13.66,14.75-.92,115.47-17.7,130.55-6.55,10.57,7.82,7.47,18.2,7.89,49.74.3,23.44,2.24,20.42.12,42.27C239.44,151.24,244,151.2,237.94,220.11ZM52.87,29.86A.76.76,0,0,0,52,28.64c-3,1-11.21,7.87-11.46,18.08,0,.59.67,1,1,.57.73-.89,1.83-1.84,1.71-2.62C42.34,38.46,47.25,35.3,52.87,29.86ZM58.36,32c1.42-1-.41-2.5-2.38-.87-4.74,4-6.94,9.22-8.75,14.68-1.08,3.25,2.69,2.29,2.29-.25C49.21,43.66,52.31,36.37,58.36,32ZM49,27.12c1.29-.89.32-3.32-8.62,4.45C36,35.42,32.87,43.72,35.83,42.28c1.64-.79,1-1.66,1.49-3C39.2,33.89,44.13,30.48,49,27.12ZM65.17,54.24c2.82-4.35,2.49-9.91,11.09-16a.68.68,0,0,0,.15-1C74.3,34.92,62.91,49.07,64,53.86,64.11,54.43,64.87,54.69,65.17,54.24ZM34.5,24a.74.74,0,0,0-.74-1.23,7.14,7.14,0,0,0-1.87,1c-8.73,5.1-11.31,9.69-12.87,15-.22.73.72,1.29,1.11.74a25.71,25.71,0,0,0,1.44-2.28,32.85,32.85,0,0,1,1.71-3.93C26.92,27.82,31.05,27.29,34.5,24Zm29.2,9.12C62,31.17,53.61,42.38,54.43,48.56a.85.85,0,0,0,1.2.61c1.87-.81.86-1.94,1.24-4.08.78-4.44,3.27-8,6.74-10.93A.72.72,0,0,0,63.7,33.11Zm6.77,2.74a.71.71,0,0,0,.27-1.15c-1.54-.55-2.85,0-5.49,3.49-9.11,11.91-4.3,17.43-3,10.56C63.74,41.13,68.52,36.68,70.47,35.85ZM40,24.67C31.76,28,31.79,31,26.06,38.13c-.26.33,0,1,.07,1.58,0,.19.67.23,1-.2,6.94-9.28,4.69-7,14-14.06C42.07,24.77,41.39,24.13,40,24.67ZM225.36,41.45c-14.22-9.15-26.63-6-66-1.73-3.79.4-9.07-.77-48.93,6.2C99.05,47.9,96,47.69,92,51.28c-2.22,2-7,5-7.6,10.5C82.73,75.78,86.18,75,80,77.1c-4.81,1.59-3.56,3.94-4.57,33.49-.28,8.13,6.66,3.7,6.29,7.47L81,199.75c0,4.2-8,.33-7.44,8.9a210.59,210.59,0,0,1-.11,26.45c-.21,3.57,1.38,3.56,5.9,4,1.13.1.76,1.42.76,4,.06,10.77-1.41,17.59,9.86,20.84,7.55,2.18,5.77,1.64,19.13,1,10.56-.51,13.07-2.61,25-2.44,9.4.14,62.94-8.57,64.24-8.79,36.36-6.31,26.22-13,29.12-120.54.13-4.87.68-9.72.78-14.58.2-9.47-1.85-6.43,2.26-46.79,1.68-16.45.12-14.07.21-20C230.72,47.41,229.53,44.15,225.36,41.45ZM85,78.12c.61.83,1.9,1.09,1.74,1.86-.24,1.19-6.41.69-6.57-.48S84.31,77.23,85,78.12Zm-5.7,5.26c.34-1.24,2-1.54,8.84-1.08,1.93.14.17,12-.09,13.23-.63,2.78-9.29,1.75-9.36-.4C78.45,88.38,78.65,85.68,79.27,83.38ZM78,110.51c0-.07.17-9,.17-9.06,0-3.87.61-2.72,2.79-2.66,6.41.15,7.11-.43,7.08,1.3-.33,15.86.34,13.36-5.11,14.23C79.19,114.9,78,113.36,78,110.51Zm-1.2,94.56c2.43-2.65,9.94-.54,9.42,1.23-.12.44-.51.59-1,.62-2.5.12-5,.27-7.5.24A1.22,1.22,0,0,1,76.78,205.07Zm2.54,4.31c3.68.06,7.45-.91,7.38.8-.2,5.53-.2,8-1.4,9.15s-8.48,1.43-8.44-1.19C77,210.46,74.7,209.3,79.32,209.38ZM76.18,235c.54-13-.25-13,1.82-13,6.19.13,7.33-.45,7.48,1.91l.74,11a1.74,1.74,0,0,1-2,2.06C77.71,237,76.09,237.34,76.18,235ZM228.77,69.17c-3.22,26-1.7,11.53-2.32,29.9-.1,2.83-.58,5.65-.55,8.47.07,15.76-.78,43.11-.82,44.32-4.52,106.78,12,93.09-52.08,103.31-4.27.68-4.07,1.81-18.91,3.44-11.55,1.26-24.22,1.89-31.06,2.49-1.77.16-3.49.89-5.26,1.09-2,.23-16.5,1.43-19,1.33-3.19-.13-10-1.85-12.37-4-4.89-4.55-4.84-11.44-3.8-19,.36-2.67,5.06-.15,6-3.6a9.1,9.1,0,0,0,.32-4.38c-2.18-9.33.56-22.29,1.12-26,.06-.4.06-1-.19-1.22-1.52-1.14-3-2.62-4.72-3.16-2.84-.85-2.51-1-2.29-17.38,0,.92.62-67.58,1.4-68.12a.9.9,0,0,1,.66-.14c2.73.49,4.86-1,5.12-3.61.13-3.41,1.08-27.34,1.73-30.59,1.53-7.68-6.39-2.82-6-8.73.71-10.35-1.92-13.43,7.08-20.9s74.65-12,77.3-12.24c17.36-1.65,38.12-6.79,52.14,1.87,5.92,3.65,6,4.58,6.33,10C229.09,61.1,230.07,58.56,228.77,69.17Zm-72,61.51c-3.07-1.87-11.67-6.13-16.73-5.79-38.77,2.63-31.69,41.91-27.65,49.26,5.44,9.9,8.28,23.42,37.86,15.35a18.25,18.25,0,0,0,12.37-11.28c5.79-14,10.12-29.86.38-41.67A26.09,26.09,0,0,0,156.8,130.68Zm5.62,8.78c.8.87-2.78,2.83-4.52,3.95a.89.89,0,0,1-1.17-.19c-1.43-1.9-2.93-3.36-5.31-3.84-1.46-.29,1-4.65,1.7-5.86C155.42,129.55,161.31,138.25,162.42,139.46Zm-7,29.22a14.32,14.32,0,0,1-4.31,6.72c-2.84,2.27-15,5.25-17.4-5.71-2.39-11.14.55-23.29,7.56-27.24,3.69-2.1,10.15-1.76,12.25,1a24.35,24.35,0,0,1,4.64,12.11C158.57,159.49,156.56,164.94,155.39,168.68ZM140.75,127.1c9.24,2.76,11.72,2.83,10.11,6.37-2.11,4.64-1.84,4.81-8.78,5.35-2.93.24-3.14-.4-3.29-3.82-.07-1.77-.23-6-.23-6.33C138.56,126.85,138.94,126.57,140.75,127.1Zm-3.42,15.62c-12,13.32-4.21,31.34-4.28,32.68a2,2,0,0,1-1.27,1.46c-10.69.84-9.33-29.11.78-35.47C133.86,140.58,139.15,140.71,137.33,142.72Zm-3.07-15c1.25-.36,2.1,0,2.07,1.46-.2,9.19.56,9.06-1.41,9.25-1.66.17-5.17,1.5-5.71.53-.3-.56-4.19-7.66-3.93-8.24S133.66,127.93,134.26,127.76Zm-12.33,5c.37-.39,1.15-.31,1.56.45,4.37,8.19,4.85,9,2.48,11.35-1.09,1.08-7.14-2.73-9.69-4.12C115,139.79,117.5,137.49,121.93,132.81Zm-7.68,11.12c.56-1.86,4.32.7,9.09,3.34,2.38,1.31-.11,2.78-.17,5-.06,2.73-2,2.27-4.89,2.16-1.11-.06-4.62-.39-4.89-.46C111.56,153.57,112.06,151.09,114.25,143.93Zm-2.15,21.3c-.55-.37-.73-7.41-.74-8s.38-.87,1.12-.86c7.6.07,9.44.11,9.71,1.75.21,1.2.46,4.7-1,5.1C120.58,163.36,112.65,165.59,112.1,165.23Zm1.25,5.63c-.45-2.79-2.12-3,2.25-4.09,2.3-.58,6.37-1.84,6.56-.63.92,6,1.7,8.16-4.32,11.35C116.5,178.2,113.87,174.25,113.35,170.86ZM131.55,182c-2.38,6.59,0,8-9,3.52-1.23-.61-4.61-4.11-4-5.66,6.74-5.87,4.49-4.7,7.51-2.61a11.13,11.13,0,0,0,3.75,2.13C131.65,179.77,132.14,180.35,131.55,182Zm12.28,6.92c-4.37.89-10.92,1.15-11.75-.06-.41-.55,2.14-7.61,2.37-8.25.56-1.48,6.61-.7,8.19-.47,2.11.31,2.47,3,3.2,5.58C146.52,188.19,146.44,188.39,143.83,188.92Zm13.91-6.28c-2.64,2.88-8.31,5-8.86,4.76s-1.66-6.5-1.77-7.12c-.05-.24.46-.66.81-.86,5.36-2.94,6.17-3.55,7.54-2.12C157.72,179.67,159.93,180.25,157.74,182.64Zm3.28-5.1c-.77,1.71-1.68,1-5.26-3.56-.68-.85.62-2.7,3.18-10.65.69-2.13,1.3-1.72,6.49-.81C167.78,162.94,161.57,176.33,161,177.54Zm3.92-33.39c2.16,9.57,2.19,9.11,1.62,15.19-.14,1.54-4.51.22-6.08-.24-1.2-.35-.34-3-.91-6.8-.91-5.85-2.56-5.89,1.17-8.19C163.32,142.52,164.36,141.53,164.94,144.15ZM207.12,124c-3.41.29-14.68-3.62-16.14-1.76-3.16,4-5.65,8.3-3.95,13.63,1.58,4.93,10.76,2.92,10.87,5.38.29,6.47.38,10.33.44,13.24.13,6.52,1.08,17.63,1.7,24.09.54,5.55,1.24,5.49,11.38,3.59,2.63-.49-.12-3.08,3.91-30.84A68.79,68.79,0,0,0,215.4,131C214.75,126.69,212.61,123.56,207.12,124Zm-9.18,12.58c-.14,1.23-3.31.38-5.7.2-7-.54-2.65-12.88,2-12.31,3.1.38,9.44,1.08,8.07,2.39A15,15,0,0,0,197.94,136.61Zm12.62,40.48c-.05,4.18-3.64,3.23-5.21,3.73-3.65,1.15-2.68-2.43-3.68-10.77-.28-2.31-1-4.6-1.1-6.92-.38-7-.55-21.55,0-28.26.37-4,2.51-7,7.09-7.85a14.76,14.76,0,0,1,3.22.13c.46.06,1.07.1.19.62-.56.34-.74-.09-1.83,0a8.24,8.24,0,0,0-4.37,1.87c-3,2-3.33,6.58-1,9.31,1.72,2,6.95,1.12,7.9-1.13a6.48,6.48,0,0,1,.38-.8.86.86,0,0,1,1.59.29C215,152,210.76,163.42,210.56,177.09Zm.25-43.72c.27,6.29-6.33,5.45-6.24,1.31,0,.13,0,.17,0,0v0c.05-.65.61-4.75,4.89-4.24C211.34,130.66,210.77,132.37,210.81,133.37Zm-69.4,15c-1.09,1.23-3.91,4.2-4.54,7.77-.72,4.16-.07,6.57-.13,9.84-.05,3,2.54,6.67,5.57,7.84,6.35,2.46,10.88-6.43,11.2-15a62.09,62.09,0,0,0-.07-6.81C152.85,145.94,146.6,142.62,141.41,148.41Zm8.6,19.38c-.45,2-3.6,4.18-5.1,4a6.13,6.13,0,0,1-5.77-5.39c-.22-2.45-.9-5-.43-7.33.52-2.67,1.58-10.16,8.19-11.11a3.58,3.58,0,0,1,2.33,1C153.13,152.51,151.14,162.86,150,167.79Z" transform="translate(-4.17 -1.63)"/></svg>