<?xml version="1.0" encoding="utf-8"?>
<!-- Generator: Adobe Illustrator 26.3.1, SVG Export Plug-In . SVG Version: 6.00 Build 0)  -->
<svg version="1.1" id="Layer_1" xmlns="http://www.w3.org/2000/svg" xmlns:xlink="http://www.w3.org/1999/xlink" x="0px" y="0px"
	 viewBox="0 0 74.2 73.4" style="enable-background:new 0 0 74.2 73.4;" xml:space="preserve">
<style type="text/css">
	.st0{fill:#EFB78E;}
	.st1{fill:#010101;}
	.st2{fill:#050E13;}
	.st3{fill:#FFFFFF;}
	.st4{opacity:0.1294;}
</style>
<g>
	<g>
		<ellipse class="st0" cx="37.4" cy="34.8" rx="9.4" ry="9.8"/>
		<path class="st1" d="M37.4,45.1c-5.5,0-9.9-4.6-9.9-10.3s4.4-10.3,9.9-10.3s9.9,4.6,9.9,10.3C47.3,40.5,42.9,45.1,37.4,45.1z
			 M37.4,25.4c-4.9,0-8.9,4.2-8.9,9.4s4,9.4,8.9,9.4s8.9-4.2,8.9-9.4C46.4,29.6,42.4,25.4,37.4,25.4z"/>
	</g>
	<g>
		<path class="st2" d="M11.6,72.3c-2.1,0-3.9-0.7-5.4-2c-3-2.7-4-7.5-3.5-10.9C3.4,53.5,6.8,48,10,43.3c9.9-14.2,22.5-27,36.4-36.8
			c6.1-4.3,17.9-9,23.6-3.1l0,0c4.1,4.3,2.6,12.1-4.3,23.2C52.6,47.5,28.4,68.7,13.9,72C13.1,72.2,12.3,72.3,11.6,72.3z M62.6,1.6
			C57,1.6,50.3,4.9,47,7.3c-13.8,9.8-26.4,22.5-36.2,36.6c-3.2,4.5-6.5,9.9-7.2,15.6c-0.4,3.1,0.5,7.6,3.2,10.1
			c1.8,1.6,4.1,2.1,6.9,1.5c6.6-1.5,16-7.2,25.7-15.7c10-8.8,19.1-19.1,25.4-29.3c4.6-7.4,9.1-17.2,4.5-22
			C67.5,2.3,65.1,1.6,62.6,1.6z"/>
	</g>
	<g>
		<path class="st2" d="M62.7,72.3c-4.2,0-9.7-2.3-16.5-6.9C26.1,51.9,5.7,26.8,2.5,11.8c-0.7-3.3,0-6.2,2-8.4
			C7.2,0.5,11.6-0.4,14.8,0c5.7,0.7,11,4.3,15.5,7.6C44,17.9,56.3,31,65.8,45.4c4.1,6.3,8.6,18.5,2.9,24.4l0,0
			C67.1,71.5,65.1,72.3,62.7,72.3z M13.2,1c-2.7,0-5.9,0.9-8,3.1C3.4,6,2.8,8.6,3.5,11.6c1.4,6.9,6.9,16.6,15.1,26.7
			C27,48.7,37,58.1,46.8,64.6c7.1,4.8,16.5,9.5,21.2,4.6l0,0c5.5-5.7,0.3-18.1-3.1-23.2C55.4,31.7,43.3,18.7,29.7,8.5
			c-4.4-3.3-9.6-6.7-15-7.4C14.2,1,13.7,1,13.2,1z"/>
	</g>
	<g>
		<path class="st3" d="M1.9,21.8c0-2.8,2.3-5,5-5c2.8,0,5,2.3,5,5c0,2.8-2.3,5-5,5C4.1,26.8,1.9,24.6,1.9,21.8z"/>
		<path class="st1" d="M6.9,27.3c-3,0-5.5-2.5-5.5-5.5s2.5-5.5,5.5-5.5s5.5,2.5,5.5,5.5S10,27.3,6.9,27.3z M6.9,17.2
			c-2.5,0-4.5,2-4.5,4.5s2,4.5,4.5,4.5s4.5-2,4.5-4.5C11.5,19.3,9.4,17.2,6.9,17.2z"/>
	</g>
	<g>
		<path class="st3" d="M62.8,21.8c0-2.8,2.3-5,5-5c2.8,0,5,2.3,5,5c0,2.8-2.3,5-5,5C65.1,26.8,62.8,24.6,62.8,21.8z"/>
		<path class="st1" d="M67.9,27.3c-3,0-5.5-2.5-5.5-5.5s2.5-5.5,5.5-5.5s5.5,2.5,5.5,5.5S70.9,27.3,67.9,27.3z M67.9,17.2
			c-2.5,0-4.5,2-4.5,4.5s2,4.5,4.5,4.5s4.5-2,4.5-4.5C72.4,19.3,70.4,17.2,67.9,17.2z"/>
	</g>
	<g>
		<circle class="st3" cx="25.2" cy="66.5" r="5"/>
		<path class="st1" d="M25.2,72.1c-3,0-5.5-2.5-5.5-5.5s2.5-5.5,5.5-5.5s5.5,2.5,5.5,5.5C30.8,69.6,28.3,72.1,25.2,72.1z M25.2,62
			c-2.5,0-4.5,2-4.5,4.5s2,4.5,4.5,4.5s4.5-2,4.5-4.5C29.8,64,27.8,62,25.2,62z"/>
	</g>
	<g>
		<path class="st1" d="M6.4,24.4C6.4,24.4,6.3,24.4,6.4,24.4c-0.9-0.6-1.5-1.1-1.8-1.8c-0.4-0.8-0.4-1.8,0-2.5C4.6,20,4.7,20,4.8,20
			s0.1,0.1,0.1,0.2c-0.4,0.6-0.4,1.4,0,2.2c0.3,0.6,0.8,1.2,1.6,1.7C6.6,24.1,6.6,24.3,6.4,24.4C6.5,24.4,6.4,24.4,6.4,24.4z"/>
	</g>
	<g>
		<path class="st1" d="M38.2,42.1L38.2,42.1c-2.7-0.1-5-1.4-6.1-3.4c-0.3-0.6-0.6-1.3-0.7-2.2c-0.3-2-0.1-4,0.6-5.9
			c0-0.1,0.1-0.1,0.2-0.1c0.1,0,0.1,0.1,0.1,0.2c-0.7,1.8-0.9,3.8-0.6,5.7c0.1,0.8,0.4,1.5,0.7,2.1c1.2,2.2,3.8,3.1,5.8,3.2
			c0.1,0,0.2,0.1,0.2,0.2C38.4,42.1,38.3,42.1,38.2,42.1z"/>
	</g>
	<g>
		<path class="st1" d="M67.4,24L67.4,24c-0.9-0.4-1.5-1.1-1.7-2c-0.3-0.9-0.2-1.9,0.3-2.6c0-0.1,0.2-0.1,0.2,0c0.1,0,0.1,0.2,0,0.2
			c-0.4,0.6-0.5,1.5-0.3,2.3s0.8,1.5,1.5,1.8c0.1,0,0.1,0.1,0.1,0.2S67.5,24,67.4,24z"/>
	</g>
	<g>
		<path class="st1" d="M24,68.9L24,68.9c-1.4-0.7-2-2.6-1.3-3.9c0-0.1,0.1-0.1,0.2-0.1S23,65,23,65.1c-0.6,1.2-0.1,2.8,1,3.4
			c0.1,0,0.1,0.1,0.1,0.2C24.2,68.9,24.1,68.9,24,68.9z"/>
	</g>
	<g class="st4">
		<path class="st1" d="M11.8,23.9c-0.1-0.4-0.5-0.7-0.9-0.7c-0.5,0-0.8,0.4-1.2,0.6c-0.1,0-0.1,0.1-0.2,0.1c0,0,0,0-0.1,0
			C8,24.4,7,24.4,6,24.2c-0.3,0-1.3-0.4-1.5-0.5c-0.3-0.1-0.6-0.3-1-0.3c-1.5,0-1.8,2.1-0.3,2.5c2.2,1,5,0.9,7.1-0.2
			C11,25.3,12,24.8,11.8,23.9z"/>
	</g>
	<g class="st4">
		<path class="st1" d="M45.6,37.7c-0.2,0.1-0.4,0.2-0.5,0.4c-0.3,0.6-0.2,0.4-0.6,0.8c-0.7,0.6-1.3,1.2-2,1.7
			c-1.2,0.7-1.5,0.8-3,1.3c-3.1,1-5.3-0.6-8.2-2.2c-0.4-0.2-0.8-0.6-1.3-0.5c-0.6,0.2-0.9,1-0.4,1.5c0.8,0.7,3.3,2.4,5.6,3.1
			c2,0.5,4.2,0.3,6.1-0.5c1-0.4,1.8-1.2,2-1.3c1-0.7,2.1-1.7,2.5-2.3c0.3-0.4,0.6-0.7,0.7-1.1C46.7,38.1,46.1,37.5,45.6,37.7z"/>
	</g>
	<g class="st4">
		<path class="st1" d="M30.6,67.8c-0.1-0.6-0.9-0.9-1.4-0.6c-0.3,0.2-0.4,0.6-0.6,0.9c0,0,0,0.1-0.1,0.1c0,0.1-0.1,0.1-0.1,0.2
			c-0.1,0.1-0.4,0.4-0.6,0.5c-0.8,0.6-0.4,0.5-1.2,0.7c-1.1,0.2-3.2,0-4.4-0.9l0,0c-0.1-0.1-0.2-0.2-0.3-0.3
			c-0.1-0.2-0.3-0.4-0.6-0.4c-0.8-0.2-1.5,0.7-1.1,1.4c0.8,1.3,2.4,2,3.9,2.3c1.4,0.3,3,0.1,4.5-0.9c0.6-0.4,1.1-1,1.5-1.7
			C30.4,68.6,30.7,68.2,30.6,67.8z"/>
	</g>
	<g class="st4">
		<path class="st1" d="M71.4,25.7c0.2-0.3,0.4-0.7,0.6-1c0.3-0.5,0.6-1.1,0.8-1.7c-0.3-0.2-0.7-0.3-1-0.1c-0.5,0.4-0.3,0.4-0.5,0.5
			c-0.8,0.8-0.8,0.8-1.7,1.1c-0.9,0.3-0.9,0.2-1.4,0.3c-1.3,0-1.4,0-2.7-0.5c-0.5-0.2-1-0.5-1.6-0.2c-0.2,0.1-0.3,0.3-0.4,0.5
			c0.2,0.2,0.4,0.4,0.6,0.6c0.5,0.4,0.9,0.8,1.3,1.3l0,0c1,0.3,2.1,0.5,3.2,0.3c0,0,0.4,0,1.1-0.2C70.3,26.4,70.8,26.1,71.4,25.7
			C71.3,25.8,71.4,25.8,71.4,25.7z"/>
	</g>
</g>
</svg>
