<?xml version="1.0" encoding="utf-8"?>
<!-- Generator: Adobe Illustrator 26.2.1, SVG Export Plug-In . SVG Version: 6.00 Build 0)  -->
<svg version="1.1" id="Layer_1" xmlns="http://www.w3.org/2000/svg" xmlns:xlink="http://www.w3.org/1999/xlink" x="0px" y="0px"
	 viewBox="0 0 128.9 118.6" style="enable-background:new 0 0 128.9 118.6;" xml:space="preserve">
<style type="text/css">
	.st0{fill:#FFFFFF;}
	.st1{fill:#010101;}
	.st2{fill:#BB8760;}
	.st3{opacity:0.1294;}
</style>
<g>
	<g>
		<polygon class="st0" points="92.8,1 95.6,10 104.5,10 97.3,15.5 100,24.4 92.8,18.9 85.5,24.4 88.3,15.5 81.1,10 90,10 		"/>
		<path class="st1" d="M100,25.3c-0.2,0-0.4-0.1-0.5-0.2L92.8,20l-6.7,5.1c-0.3,0.2-0.7,0.2-1,0s-0.4-0.6-0.3-1l2.6-8.4l-6.8-5.2
			c-0.3-0.2-0.4-0.6-0.3-1s0.5-0.6,0.8-0.6h8.3L92,0.6C92.1,0.2,92.4,0,92.8,0c0.4,0,0.7,0.2,0.8,0.6l2.6,8.3h8.3
			c0.4,0,0.7,0.2,0.8,0.6c0.1,0.4,0,0.7-0.3,1l-6.8,5.2l2.6,8.4c0.1,0.4,0,0.8-0.3,1C100.4,25.3,100.2,25.3,100,25.3z M83.6,10.8
			l5.2,4c0.3,0.2,0.4,0.6,0.3,0.9l-2,6.4l5.1-3.9c0.3-0.2,0.7-0.2,1.1,0l5.1,3.9l-2-6.4c-0.1-0.3,0-0.7,0.3-0.9l5.2-4h-6.4
			c-0.4,0-0.7-0.2-0.8-0.6l-1.9-6.3l-1.9,6.3c-0.1,0.4-0.4,0.6-0.8,0.6H83.6z"/>
	</g>
	<g>
		<polygon class="st0" points="116.9,15.5 118.6,21.1 124.2,21.1 119.7,24.5 121.4,30 116.9,26.6 112.4,30 114.1,24.5 109.7,21.1 
			115.2,21.1 		"/>
		<path class="st1" d="M121.4,30.9c-0.2,0-0.4-0.1-0.5-0.2l-4-3l-4,3c-0.3,0.2-0.7,0.2-1,0s-0.4-0.6-0.3-1l1.5-5l-4-3.1
			c-0.3-0.2-0.4-0.6-0.3-1c0.1-0.4,0.5-0.6,0.8-0.6h4.9l1.5-4.9c0.1-0.4,0.4-0.6,0.8-0.6c0.4,0,0.7,0.2,0.8,0.6l1.5,4.9h4.9
			c0.4,0,0.7,0.2,0.8,0.6c0.1,0.4,0,0.7-0.3,1l-4,3.1l1.5,5c0.1,0.4,0,0.8-0.3,1C121.7,30.8,121.6,30.9,121.4,30.9z M116.9,25.7
			c0.2,0,0.4,0.1,0.5,0.2l2.3,1.8l-0.9-2.9c-0.1-0.3,0-0.7,0.3-0.9l2.4-1.9h-3c-0.4,0-0.7-0.2-0.8-0.6l-0.9-2.9l-0.9,2.9
			c-0.1,0.4-0.4,0.6-0.8,0.6h-3l2.4,1.9c0.3,0.2,0.4,0.6,0.3,0.9l-0.9,2.9l2.3-1.8C116.5,25.8,116.7,25.7,116.9,25.7z"/>
	</g>
	<g>
		<g>
			<path class="st0" d="M26,88L26,88c-6.7-9.5-4.5-22.6,5-29.3l45.6-32.3L65.1,10.2L18.2,43.4C-0.2,56.5-4.6,82,8.5,100.4l0,0
				c13.1,18.4,38.6,22.8,57,9.7l46.9-33.2l-11.5-16.2L55.3,93C45.8,99.7,32.7,97.5,26,88z"/>
			<path class="st1" d="M41.9,118.6c-2.4,0-4.7-0.2-7.1-0.6c-11-1.9-20.6-7.9-27.1-17s-9-20.2-7.1-31.2s7.9-20.6,17-27.1L64.5,9.5
				c0.4-0.3,0.9-0.2,1.2,0.2l11.5,16.2c0.1,0.2,0.2,0.4,0.1,0.6c0,0.2-0.2,0.4-0.4,0.6L31.5,59.4c-4.4,3.1-7.3,7.7-8.2,13
				s0.3,10.6,3.4,15l0,0c6.4,9.1,19,11.2,28.1,4.8L100.4,60c0.2-0.1,0.4-0.2,0.6-0.1c0.2,0,0.4,0.2,0.6,0.4l11.5,16.2
				c0.1,0.2,0.2,0.4,0.1,0.6c0,0.2-0.2,0.4-0.4,0.6l-46.9,33.2C58.8,116,50.5,118.6,41.9,118.6z M64.9,11.4L18.7,44.2
				C10,50.4,4.2,59.6,2.4,70.1S3,91.3,9.2,100s15.4,14.5,25.9,16.3s21.2-0.6,29.9-6.8l46.2-32.7L100.7,62L55.8,93.8
				c-9.8,7-23.5,4.6-30.5-5.2c-3.4-4.8-4.7-10.6-3.7-16.3c1-5.8,4.1-10.8,8.9-14.2l44.9-31.9L64.9,11.4z"/>
		</g>
	</g>
	<g>
		
			<rect x="55.5" y="13.3" transform="matrix(0.8159 -0.5782 0.5782 0.8159 -1.6966 41.2343)" class="st2" width="16.9" height="19.9"/>
		<path class="st1" d="M62.8,37.1c-0.3,0-0.5-0.1-0.7-0.4L50.5,20.5c-0.3-0.4-0.2-0.9,0.2-1.2l13.8-9.8c0.4-0.3,0.9-0.2,1.2,0.2
			l11.5,16.2c0.1,0.2,0.2,0.4,0.1,0.6c0,0.2-0.2,0.4-0.4,0.6l-13.8,9.8C63.1,37.1,62.9,37.1,62.8,37.1z M52.5,20.2L63,35l12.4-8.8
			L64.9,11.4L52.5,20.2z"/>
	</g>
	<g>
		
			<rect x="91.2" y="63.8" transform="matrix(0.8159 -0.5782 0.5782 0.8159 -24.3074 71.225)" class="st2" width="16.9" height="19.9"/>
		<path class="st1" d="M98.6,87.6h-0.1c-0.2,0-0.4-0.2-0.6-0.4L86.4,71c-0.3-0.4-0.2-0.9,0.2-1.2l13.8-9.8c0.2-0.1,0.4-0.2,0.6-0.1
			c0.2,0,0.4,0.2,0.6,0.4l11.5,16.2c0.3,0.4,0.2,0.9-0.2,1.2l-13.8,9.8C98.9,87.6,98.7,87.6,98.6,87.6z M88.3,70.7l10.5,14.8
			l12.4-8.8l-10.5-14.8L88.3,70.7z"/>
	</g>
	<g>
		<path class="st1" d="M113.4,60.4c-0.1,0-0.2,0-0.2,0c-0.5-0.1-0.7-0.6-0.6-1.1l4.2-14.4c0.1-0.3,0.3-0.5,0.6-0.6s0.6,0,0.8,0.2
			l4.5,4.1l4.5-12.7c0.2-0.5,0.7-0.7,1.1-0.5c0.5,0.2,0.7,0.7,0.5,1.1l-4.9,13.9c-0.1,0.3-0.3,0.5-0.6,0.6s-0.6,0-0.8-0.2l-4.5-4
			l-3.8,13C114.1,60.1,113.8,60.4,113.4,60.4z"/>
	</g>
	<g>
		<path class="st1" d="M9,102.2c-0.3,0-0.5-0.1-0.7-0.4c-0.3-0.4-0.2-0.9,0.2-1.2l17.6-12.5c0.4-0.3,0.9-0.2,1.2,0.2
			c0.3,0.4,0.2,0.9-0.2,1.2L9.5,102C9.4,102.1,9.2,102.2,9,102.2z"/>
	</g>
	<g>
		<path class="st1" d="M4.4,84.5L4.4,84.5c-0.2-0.1-0.3-0.2-0.3-0.4l14.4-37.7c0.1-0.1,0.2-0.2,0.4-0.2c0.1,0.1,0.2,0.2,0.2,0.4
			L4.7,84.3C4.6,84.4,4.5,84.5,4.4,84.5z"/>
	</g>
	<g>
		<path class="st1" d="M6.1,90.6L6.1,90.6c-0.2-0.1-0.3-0.2-0.3-0.4L24,42.5c0.1-0.2,0.2-0.2,0.4-0.2c0.1,0.1,0.2,0.2,0.2,0.4
			L6.4,90.4C6.3,90.5,6.2,90.6,6.1,90.6z"/>
	</g>
	<g>
		<path class="st1" d="M8.7,95.4L8.7,95.4c-0.2-0.1-0.3-0.2-0.3-0.4L30,38.5c0.1-0.2,0.2-0.2,0.4-0.2c0.1,0.1,0.2,0.2,0.2,0.4
			L9,95.2C9,95.3,8.8,95.4,8.7,95.4z"/>
	</g>
	<g>
		<path class="st1" d="M13.1,95.4L13.1,95.4c-0.2-0.1-0.3-0.2-0.3-0.4l6.4-16.5c0.1-0.1,0.2-0.2,0.4-0.2c0.1,0.1,0.2,0.2,0.2,0.4
			l-6.4,16.5C13.3,95.3,13.2,95.4,13.1,95.4z"/>
	</g>
	<g>
		<path class="st1" d="M18.8,91.3L18.8,91.3c-0.2-0.1-0.3-0.2-0.3-0.4l2.2-5.5c0.1-0.1,0.2-0.2,0.4-0.2c0.1,0.1,0.2,0.2,0.2,0.4
			l-2.2,5.5C19,91.3,18.9,91.3,18.8,91.3z"/>
	</g>
	<g>
		<path class="st1" d="M4.2,73.9L4.2,73.9c-0.2-0.1-0.3-0.2-0.3-0.4l7.4-19.2c0.1-0.2,0.2-0.2,0.4-0.2c0.1,0.1,0.2,0.2,0.2,0.4
			L4.6,73.7C4.5,73.8,4.4,73.9,4.2,73.9z"/>
	</g>
	<g>
		<path class="st1" d="M28,57.7C28,57.7,27.9,57.7,28,57.7c-0.2-0.1-0.3-0.2-0.3-0.4c2.6-7.9,5.4-15.9,8.4-23.7
			c0.1-0.1,0.2-0.2,0.4-0.2c0.1,0.1,0.2,0.2,0.2,0.4c-3,7.8-5.8,15.7-8.4,23.7C28.2,57.6,28.1,57.7,28,57.7z"/>
	</g>
	<g>
		<path class="st1" d="M33.9,53.6C33.9,53.6,33.8,53.6,33.9,53.6c-0.2-0.1-0.3-0.2-0.3-0.4l7.7-23.1c0.1-0.2,0.2-0.2,0.4-0.2
			c0.2,0.1,0.2,0.2,0.2,0.4l-7.7,23.1C34.1,53.5,34,53.6,33.9,53.6z"/>
	</g>
	<g>
		<path class="st1" d="M39.5,49.6C39.5,49.6,39.4,49.6,39.5,49.6c-0.2-0.1-0.3-0.2-0.3-0.4l7.9-23.4c0.1-0.2,0.2-0.2,0.4-0.2
			c0.2,0.1,0.2,0.2,0.2,0.4l-7.9,23.4C39.7,49.6,39.6,49.6,39.5,49.6z"/>
	</g>
	<g>
		<path class="st1" d="M45.4,45.4L45.4,45.4c-0.2-0.1-0.3-0.2-0.3-0.4c2-6.3,4.1-12.7,6.5-18.9c0.1-0.2,0.2-0.2,0.4-0.2
			c0.2,0.1,0.2,0.2,0.2,0.4c-2.4,6.2-4.5,12.5-6.5,18.8C45.7,45.4,45.5,45.4,45.4,45.4z"/>
	</g>
	<g>
		<path class="st1" d="M51.4,41.6C51.4,41.6,51.4,41.5,51.4,41.6c-0.2-0.1-0.3-0.2-0.3-0.4c1.1-3.5,2.2-7,3.5-10.5
			c0.1-0.2,0.2-0.2,0.4-0.2c0.2,0.1,0.2,0.2,0.2,0.4c-1.2,3.4-2.4,7-3.4,10.4C51.7,41.5,51.6,41.6,51.4,41.6z"/>
	</g>
	<g>
		<path class="st1" d="M56.4,38L56.4,38c-0.2-0.1-0.3-0.2-0.3-0.4l1.1-2.9c0.1-0.2,0.2-0.2,0.4-0.2c0.2,0.1,0.2,0.2,0.2,0.4
			l-1.1,2.9C56.6,37.9,56.5,38,56.4,38z"/>
	</g>
	<g class="st3">
		<path class="st1" d="M110.6,78.8c1.1-0.4,2.5-2,1-4c-1.1-1.2-3.2-0.7-3.9,0.7c-0.8,0.7-1,1-1.4,1.2c-2.4,1.7-4.9,3.2-7.4,4.9
			c-6.6,4.4-13.3,9.1-17.3,12.2c-6,4.5-11.5,8.9-19.1,13.2c-5.1,3-13.2,5.8-17.7,6.3c-1,0.1-0.1,0.1-2.1,0.2c-2,0.1-4-0.1-6-0.2
			c-1.7-0.1-3.4-0.2-5.1-0.2c-0.6,0-1.2-0.1-1.7,0.2c-2,0.8-1.4,4,0.8,3.9c4.7,0,9.4,0.8,14.2,0.8c3.6-0.2,7.1-1.2,10.5-2.4
			c9.8-3.4,18.2-9.7,26.3-16.1c4.2-3.3,14.9-10.7,19.2-14c2.7-2.1,5.7-4.3,8.8-6.2c0.2-0.1,0.4-0.2,0.6-0.3c0.1,0,0.1,0,0.1,0l0,0
			l0,0l0,0C110.3,78.9,110.4,78.9,110.6,78.8z"/>
	</g>
</g>
</svg>
