<svg xmlns="http://www.w3.org/2000/svg" width="50" height="50" viewBox="0 0 50 50"><defs><style>.cls-1{fill:#BB8760;fill-rule:evenodd;}</style></defs><path class="cls-1" d="M 45.414063 39.414063 L 38.414063 46.414063 C 38.023438 46.804688 37.511719 47 37 47 C 36.488281 47 35.976563 46.804688 35.585938 46.414063 L 28.585938 39.414063 C 27.804688 38.632813 27.804688 37.367188 28.585938 36.585938 C 29.367188 35.804688 30.632813 35.804688 31.414063 36.585938 L 35 40.171875 L 35 17 C 35 15.894531 35.894531 15 37 15 C 38.105469 15 39 15.894531 39 17 L 39 40.171875 L 42.585938 36.585938 C 43.367188 35.804688 44.632813 35.804688 45.414063 36.585938 C 46.195313 37.367188 46.195313 38.632813 45.414063 39.414063 Z M 37 7 C 38.105469 7 39 6.105469 39 5 C 39 3.894531 38.105469 3 37 3 C 35.894531 3 35 3.894531 35 5 C 35 6.105469 35.894531 7 37 7 Z M 37 13 C 38.105469 13 39 12.105469 39 11 C 39 9.894531 38.105469 9 37 9 C 35.894531 9 35 9.894531 35 11 C 35 12.105469 35.894531 13 37 13 Z M 14.414063 3.585938 C 13.632813 2.804688 12.367188 2.804688 11.585938 3.585938 L 4.585938 10.585938 C 3.804688 11.367188 3.804688 12.632813 4.585938 13.414063 C 5.367188 14.195313 6.632813 14.195313 7.414063 13.414063 L 11 9.828125 L 11 33 C 11 34.105469 11.894531 35 13 35 C 14.105469 35 15 34.105469 15 33 L 15 9.828125 L 18.585938 13.414063 C 18.976563 13.804688 19.488281 14 20 14 C 20.511719 14 21.023438 13.804688 21.414063 13.414063 C 22.195313 12.632813 22.195313 11.367188 21.414063 10.585938 Z M 13 43 C 11.894531 43 11 43.894531 11 45 C 11 46.105469 11.894531 47 13 47 C 14.105469 47 15 46.105469 15 45 C 15 43.894531 14.105469 43 13 43 Z M 13 37 C 11.894531 37 11 37.894531 11 39 C 11 40.105469 11.894531 41 13 41 C 14.105469 41 15 40.105469 15 39 C 15 37.894531 14.105469 37 13 37 Z"/></svg>