<?xml version="1.0" encoding="utf-8"?>
<!-- Generator: Adobe Illustrator 26.2.1, SVG Export Plug-In . SVG Version: 6.00 Build 0)  -->
<svg version="1.1" id="Layer_1" xmlns="http://www.w3.org/2000/svg" xmlns:xlink="http://www.w3.org/1999/xlink" x="0px" y="0px"
	 viewBox="0 0 145.1 113.3" style="enable-background:new 0 0 145.1 113.3;" xml:space="preserve">
<style type="text/css">
	.st0{fill:#FFFFFF;}
	.st1{fill:#010101;}
	.st2{fill:#BA8760;}
	.st3{opacity:0.1294;}
</style>
<g>
	<g>
		<path class="st0" d="M65.6,47.8c-18.6-6.1-30.1-3.3-35.1-0.2c-2,1.2-9,7.3-13,29.8c-0.2,0.9-0.3,2,0.3,2.6
			c6.2-4,17.2-14.1,30.1-20.9c6.7-3.5,3,2.8,8.2,0.9c2.1-0.8,4.4-1.4,6.2-2.8C64.2,55.9,67,51,65.6,47.8z"/>
		<path class="st1" d="M17.8,80.9c-0.2,0-0.4-0.1-0.6-0.2c-1-0.9-0.8-2.4-0.6-3.4c4.1-23,11.3-29.1,13.4-30.4
			c2.9-1.8,14-7.1,35.9,0.1c0.2,0.1,0.4,0.3,0.5,0.5c1.6,3.6-1.4,8.8-3.6,10.5c-1.7,1.3-3.6,2-5.5,2.6c-0.3,0.1-0.6,0.2-0.9,0.3
			c-2.8,1-3.7,0-4.4-1.2c-0.4-0.7-0.8-1.3-3.7,0.3c-8.4,4.4-16,10.3-22,14.9c-3.1,2.4-5.8,4.5-8,5.9C18.1,80.9,18,80.9,17.8,80.9z
			 M45.5,45c-8.2,0-12.8,2.3-14.5,3.3c-1.4,0.9-8.5,6.3-12.6,29.2c-0.1,0.3-0.1,0.8-0.1,1.1c2-1.3,4.3-3.2,7-5.2
			c6.1-4.7,13.7-10.6,22.3-15.1c3.6-1.9,4.9-1.3,6,0.4c0.4,0.7,0.7,1.1,2.4,0.5c0.3-0.1,0.6-0.2,0.9-0.3c1.8-0.7,3.6-1.3,5.1-2.4
			c1.6-1.2,4-5.4,3.1-8.1C57,45.9,50.5,45,45.5,45z"/>
	</g>
	<g>
		<path class="st0" d="M85,70.9c2.7,19.3-2.1,28.6-6.2,32.9c-1.6,1.7-9,8.8-32,8.5c-0.9,0-2,0-2.5-0.8c5.1-5.4,17.1-14.2,26.2-25.5
			c4.7-5.9-2.2-3.4,0.6-8.2c1.2-2,2.2-4,3.9-5.5C76.7,70.8,82,69,85,70.9z"/>
		<path class="st1" d="M47.8,113.3c-0.4,0-0.7,0-1.1,0c-1,0-2.5,0-3.2-1.2c-0.2-0.3-0.2-0.8,0.1-1.1c1.8-1.9,4.3-4.1,7.3-6.7
			c5.8-5,12.9-11.3,18.8-18.7c2-2.5,1.6-3,0.9-3.5c-1-0.9-1.9-2-0.4-4.6c0.2-0.3,0.3-0.6,0.5-0.8c1-1.7,2-3.5,3.6-4.9
			c2-1.8,7.7-3.7,11-1.6c0.2,0.1,0.3,0.4,0.4,0.6c2.7,19.3-2,28.9-6.4,33.7C76.9,107.1,68.9,113.3,47.8,113.3z M45.6,111.4
			c0.4,0.1,0.8,0.1,1.2,0.1c0.4,0,0.7,0,1.1,0c20.4,0,28-5.8,30.3-8.3c4.1-4.4,8.5-13.5,6-31.8c-2.5-1.3-7,0.2-8.6,1.6
			c-1.4,1.2-2.3,2.8-3.3,4.5c-0.2,0.3-0.3,0.6-0.5,0.9c-0.9,1.5-0.6,1.8,0,2.4c1.5,1.3,1.8,2.7-0.7,5.9c-6,7.5-13.3,13.8-19.1,18.9
			C49.5,107.8,47.2,109.8,45.6,111.4z"/>
	</g>
	<g>
		<path class="st0" d="M132,39.1c-21.9,16.6-43.9,33.1-65.8,49.7c0,0-21.5-25.3-21.1-26.4c20.1-19.4,39.4-37.3,60-56.2
			c4.7,2.5,10.7,4,14.1,8c1.9,2.3,3.4,4.9,4.8,7.5c1.5,2.7,2.9,5.5,4.4,8.2C129.9,32.9,131.5,35.8,132,39.1z"/>
		<path class="st1" d="M66.2,89.7c-0.2,0-0.5-0.1-0.7-0.3c-0.1-0.1-5.4-6.4-10.7-12.8C43.9,63.3,44.1,62.8,44.3,62.2
			c0-0.1,0.1-0.3,0.2-0.4c19-18.3,38.1-36.2,60-56.2c0.3-0.2,0.7-0.3,1-0.1c1.4,0.7,2.9,1.4,4.4,2c3.6,1.6,7.4,3.2,9.9,6.2
			c2,2.3,3.5,5,4.9,7.7l4.4,8.2c1.6,2.9,3.2,6,3.8,9.5c0,0.3-0.1,0.6-0.3,0.8L66.7,89.5C66.6,89.6,66.4,89.7,66.2,89.7z M46.1,62.6
			c1.7,2.7,12.8,16.3,20.2,25l64.8-48.9c-0.6-3-2.1-5.7-3.5-8.4l-4.4-8.2c-1.4-2.5-2.8-5.2-4.7-7.4c-2.3-2.6-5.8-4.2-9.3-5.7
			c-1.3-0.6-2.7-1.2-4-1.8C83.7,26.9,64.9,44.6,46.1,62.6z"/>
	</g>
	<g>
		<path class="st0" d="M132.4,38.9c-8.3-11.1-17.7-22.6-27.3-32.6c11.5-2,24.3-3.6,35.9-5.3c2.1-0.3,3.7,1.5,3.2,3.5
			C140.8,16.3,135.7,28,132.4,38.9z"/>
		<path class="st1" d="M132.4,39.7c-0.3,0-0.5-0.1-0.7-0.3c-9.6-12.8-18.8-23.8-27.2-32.6c-0.2-0.2-0.3-0.6-0.2-0.9
			c0.1-0.3,0.4-0.5,0.7-0.6c7.3-1.3,15.1-2.4,22.7-3.4c4.4-0.6,8.9-1.2,13.2-1.9c1.3-0.2,2.5,0.2,3.4,1.2c0.8,0.9,1.1,2.2,0.8,3.4
			c-1.9,6.7-4.3,13.4-6.7,19.8c-1.9,5.1-3.6,9.9-5.1,14.6c-0.1,0.3-0.4,0.5-0.7,0.6C132.5,39.7,132.4,39.7,132.4,39.7z M106.8,6.8
			c7.9,8.3,16.3,18.5,25.2,30.2c1.4-4.3,2.9-8.6,4.6-13.1c2.3-6.4,4.8-13,6.6-19.7c0.2-0.7,0-1.3-0.4-1.8c-0.4-0.5-1.1-0.7-1.8-0.6
			c-4.3,0.7-8.8,1.3-13.2,1.9C120.9,4.6,113.6,5.6,106.8,6.8z"/>
	</g>
	<g>
		
			<ellipse transform="matrix(0.8124 -0.5831 0.5831 0.8124 -3.9143 65.0852)" class="st2" cx="99.2" cy="38.6" rx="12.3" ry="11.6"/>
		<path class="st1" d="M98.5,51.3c-3.6,0-7.1-1.5-9.5-4.3c-2.1-2.5-3-5.6-2.7-8.9c0.3-3.5,2.1-6.7,4.9-9.1
			c5.6-4.6,13.7-4.1,18.1,1.2c2.1,2.5,3,5.6,2.7,8.9c-0.3,3.5-2.1,6.7-4.9,9.1C104.6,50.3,101.6,51.3,98.5,51.3z M99.8,27.7
			c-2.6,0-5.3,0.9-7.6,2.7c0,0,0,0,0,0c-2.5,2-4,4.8-4.2,7.9c-0.3,2.8,0.6,5.5,2.3,7.6c3.8,4.5,10.9,5,15.7,1c2.5-2,4-4.8,4.2-7.9
			c0.3-2.8-0.6-5.5-2.3-7.6C106,28.9,102.9,27.7,99.8,27.7z M91.7,29.7L91.7,29.7L91.7,29.7z"/>
	</g>
	<g>
		<path class="st1" d="M0.9,107.4c-0.2,0-0.5-0.1-0.7-0.3c-0.3-0.4-0.3-0.9,0.1-1.2C13.5,95,27.2,84.5,41.2,74.7
			c0.4-0.3,0.9-0.2,1.2,0.2c0.3,0.4,0.2,0.9-0.2,1.2c-13.9,9.8-27.6,20.3-40.8,31.1C1.3,107.3,1.1,107.4,0.9,107.4z"/>
	</g>
	<g>
		<path class="st1" d="M32.1,97.4c-0.2,0-0.5-0.1-0.7-0.3c-0.3-0.4-0.3-0.9,0.1-1.2c4.9-4.2,10-8.2,15.1-12.1
			c0.4-0.3,0.9-0.2,1.2,0.2c0.3,0.4,0.2,0.9-0.2,1.2c-5.1,3.8-10.2,7.9-15,12C32.5,97.3,32.3,97.4,32.1,97.4z"/>
	</g>
	<g>
		<path class="st1" d="M45.1,99.5c-0.2,0-0.5-0.1-0.6-0.3c-0.3-0.4-0.3-0.9,0.1-1.2c3-2.6,6.1-5.2,9.2-7.7c0.4-0.3,0.9-0.2,1.2,0.1
			c0.3,0.4,0.2,0.9-0.1,1.2c-3.1,2.4-6.2,5-9.1,7.6C45.5,99.4,45.3,99.5,45.1,99.5z"/>
	</g>
	<g>
		<path class="st1" d="M24.5,70.5C24.5,70.5,24.5,70.5,24.5,70.5c-0.2,0-0.3-0.1-0.3-0.3l0.4-6.7c0-0.2,0.1-0.3,0.3-0.3
			c0.2,0,0.3,0.1,0.3,0.3l-0.4,6.7C24.7,70.3,24.6,70.5,24.5,70.5z"/>
	</g>
	<g>
		<path class="st1" d="M29.2,66.9C29.2,66.9,29.2,66.9,29.2,66.9c-0.2,0-0.3-0.1-0.3-0.3l0.4-13.4c0-0.2,0.1-0.3,0.3-0.3
			c0.2,0,0.3,0.1,0.3,0.3l-0.4,13.4C29.5,66.8,29.4,66.9,29.2,66.9z"/>
	</g>
	<g>
		<path class="st1" d="M34.5,64.9C34.5,64.9,34.5,64.9,34.5,64.9c-0.2,0-0.3-0.1-0.3-0.3L34.6,49c0-0.2,0.2-0.3,0.3-0.3
			c0.2,0,0.3,0.1,0.3,0.3l-0.4,15.6C34.8,64.8,34.7,64.9,34.5,64.9z"/>
	</g>
	<g>
		<path class="st1" d="M39.7,60.6c-0.2,0-0.3-0.1-0.3-0.3c-0.1-4.1,0.1-8.2,0.6-12.3c0-0.2,0.2-0.3,0.3-0.3c0.2,0,0.3,0.2,0.3,0.3
			c-0.4,4-0.6,8.2-0.6,12.2C40,60.5,39.9,60.6,39.7,60.6C39.7,60.6,39.7,60.6,39.7,60.6z"/>
	</g>
	<g>
		<path class="st1" d="M45.1,57.8C45.1,57.8,45.1,57.8,45.1,57.8c-0.2,0-0.3-0.1-0.3-0.3l0.4-9.7c0-0.2,0.1-0.3,0.3-0.3
			c0.2,0,0.3,0.1,0.3,0.3l-0.4,9.7C45.4,57.7,45.3,57.8,45.1,57.8z"/>
	</g>
	<g>
		<path class="st1" d="M50.5,53.2C50.5,53.2,50.5,53.2,50.5,53.2c-0.2,0-0.3-0.2-0.3-0.3l0.7-4.8c0-0.2,0.2-0.3,0.3-0.2
			c0.2,0,0.3,0.2,0.2,0.3l-0.7,4.8C50.8,53.1,50.6,53.2,50.5,53.2z"/>
	</g>
	<g>
		<path class="st1" d="M55.4,109.9c-0.1,0-0.3-0.1-0.3-0.3l-0.5-5c0-0.2,0.1-0.3,0.3-0.3c0.2,0,0.3,0.1,0.3,0.3l0.5,5
			C55.7,109.8,55.6,109.9,55.4,109.9C55.4,109.9,55.4,109.9,55.4,109.9z"/>
	</g>
	<g>
		<path class="st1" d="M60.4,108.4c-0.1,0-0.3-0.1-0.3-0.2c-0.5-2.5-0.9-5-1-7.5c0-0.2,0.1-0.3,0.3-0.3c0.2,0,0.3,0.1,0.3,0.3
			c0.2,2.5,0.5,5,1,7.4C60.7,108.2,60.6,108.3,60.4,108.4C60.4,108.4,60.4,108.4,60.4,108.4z"/>
	</g>
	<g>
		<path class="st1" d="M65.4,107.9c-0.1,0-0.2-0.1-0.3-0.2c-0.8-3.3-1.5-6.8-2-10.1c0-0.2,0.1-0.3,0.2-0.3c0.2,0,0.3,0.1,0.3,0.2
			c0.5,3.4,1.2,6.8,2,10.1C65.8,107.7,65.7,107.8,65.4,107.9C65.5,107.9,65.5,107.9,65.4,107.9z"/>
	</g>
	<g>
		<path class="st1" d="M70.7,105.1c-0.1,0-0.2-0.1-0.3-0.2l-2.9-11.3c0-0.2,0.1-0.3,0.2-0.4c0.2,0,0.3,0.1,0.4,0.2l2.9,11.3
			C71.1,104.8,71,105,70.7,105.1C70.8,105.1,70.8,105.1,70.7,105.1z"/>
	</g>
	<g>
		<path class="st1" d="M75.9,101.7c-0.1,0-0.2-0.1-0.3-0.2C74,97.1,72.8,92.6,72,88c0-0.2,0.1-0.3,0.2-0.3c0.1,0,0.3,0.1,0.3,0.2
			c0.8,4.5,2,9,3.6,13.3C76.2,101.4,76.2,101.6,75.9,101.7C76,101.7,76,101.7,75.9,101.7z"/>
	</g>
	<g>
		<path class="st1" d="M80,95.8c-0.1,0-0.2-0.1-0.3-0.2c-1.2-3.5-2.3-7.2-3.3-10.8c0-0.2,0.1-0.3,0.2-0.4c0.2,0,0.3,0.1,0.4,0.2
			c1,3.6,2.1,7.2,3.3,10.8C80.3,95.6,80.2,95.7,80,95.8C80,95.8,80,95.8,80,95.8z"/>
	</g>
	<g>
		<path class="st1" d="M83.1,87.5c-0.1,0-0.2-0.1-0.3-0.2l-1.8-5.9c0-0.2,0-0.3,0.2-0.4c0.2,0,0.3,0,0.4,0.2l1.8,5.9
			C83.4,87.2,83.3,87.4,83.1,87.5C83.1,87.4,83.1,87.5,83.1,87.5z"/>
	</g>
	<g class="st3">
		<path class="st1" d="M142.4,2.9c-1.5,0.2-1.2,0.9-1.6,1.6c-4.4,9.8-8.2,19.9-11.9,30.8c-2.5,1.3-4.7,3.2-6.9,4.9
			c-3.3,2.3-11.5,9.5-14.9,12.1c-5,3.7-12.3,9.7-18.4,14.2c-6.9,5-12.7,9.4-18.9,14.1c-1.5,1.1-3.5,2.8-4,3.1
			c-0.5,0.4-1.2,0.7-1.4,1.4c-0.3,1.1,0.7,2.2,1.8,2.1c0.1,0.5,0.5,1,1,1.2c0.1,0.5,0.5,0.8,1,1c0.4,0.5,1,0.7,1.6,0.5
			c0.3-0.1,0.6-0.3,0.9-0.6c3.2-0.4,6.1-1.8,9.2-2.8c0.8-0.3,1.6-0.6,2.4-0.9c0.6-0.2,1.2-0.4,1.5-0.9c0.1-0.2,0.2-0.4,0.3-0.6
			c1-0.5,1.3-1.8,1.3-2.9c0.1-0.9,0.1-1.9,0-2.8c0-0.1,0-0.3-0.1-0.5c0,0,0,0,0,0c0,0,0,0,0,0c0,0,0,0,0-0.1c0-0.1,0-0.1,0-0.2
			c0-0.3,0-0.5,0-0.8c0,0,0,0,0,0c0-0.1,0.1-0.1,0.1-0.2c0.3-1-0.4-2.1-1.5-2.1c-0.4,0-0.8,0.2-1.1,0.4c6.9-5,13.9-10.1,20.5-15.5
			c4.2-3.4,6.8-5.1,11.2-8.8c0.1,0,0.1,0,0.2,0c1-0.4,1.6-1.3,2.5-1.9c2.4-2.1,8.6-5.6,12.2-8.7c0.8-0.6,1.4-1.3,2-2
			c0.2,0.2,0.4,0.3,0.7,0.4c1.5,0.4,1.8-1.2,2.2-2.3c0.6-1.7,1.3-3.4,1.8-5.2c1.8-7,4-13.9,6.1-20.8c0.1-0.1,0.1-0.2,0.1-0.3
			c0-0.1,0-0.2,0-0.3c0.1-0.4,0.2-0.8,0.3-1.2c0.2-0.5,0.2-1.1,0-1.5c0.3-0.8,0.7-1.6,1-2.4C144,3.8,143.3,2.8,142.4,2.9z"/>
	</g>
	<g>
		<path class="st1" d="M71.7,85.3c-0.3,0-0.5-0.1-0.7-0.3L50.2,58.4c-0.3-0.4-0.2-0.9,0.1-1.2c0.4-0.3,0.9-0.2,1.2,0.1l20.8,26.6
			c0.3,0.4,0.2,0.9-0.1,1.2C72.1,85.3,71.9,85.3,71.7,85.3z"/>
	</g>
	<g class="st3">
		<path class="st1" d="M111.5,36c-0.1-1,0.1-2.3-0.6-3.2c-1-1.4-3.4-0.6-3.3,1.1c0.3,6.6-2.6,10.3-8.2,12.9
			c-0.6,0.2-1.3,0.4-1.9,0.5c0,0,0,0-0.1,0c0,0,0,0-0.1,0l0,0c-0.3,0.1-0.5,0.2-0.7,0.4c-1,1-0.2,2.9,1.3,2.7
			c5.2-0.4,10.3-3.5,12.5-8.3C111.4,40.3,111.6,38.2,111.5,36z"/>
	</g>
</g>
</svg>
