<?xml version="1.0" encoding="UTF-8"?><svg id="a" xmlns="http://www.w3.org/2000/svg" viewBox="0 0 129.03 140.03"><defs><style>.b{fill:#010101;}.c{fill:#aed3f0;}.d{opacity:.13;}</style></defs><path class="b" d="M55.4,65.42s-.04,0-.06,0c-.14-.03-.22-.17-.19-.3,.56-2.42,1.2-4.86,1.88-7.24,.04-.13,.18-.21,.31-.17,.13,.04,.21,.18,.17,.31-.68,2.38-1.32,4.81-1.88,7.22-.03,.12-.13,.2-.25,.2Z"/><path class="b" d="M57.71,69.87s-.03,0-.04,0c-.14-.02-.23-.15-.21-.29,.79-5.01,2.01-9.99,3.63-14.81,.04-.13,.19-.21,.32-.16,.13,.04,.2,.19,.16,.32-1.6,4.79-2.82,9.74-3.61,14.73-.02,.12-.13,.21-.25,.21Z"/><path class="b" d="M63.47,59.79s-.03,0-.04,0c-.14-.02-.23-.15-.21-.29,.31-1.82,.68-3.65,1.09-5.46,.03-.14,.17-.22,.3-.19,.14,.03,.22,.17,.19,.3-.41,1.8-.78,3.63-1.09,5.43-.02,.12-.13,.21-.25,.21Z"/><path class="b" d="M61.72,72.27s-.03,0-.04,0c-.14-.02-.23-.15-.21-.29,.24-1.39,.51-2.79,.82-4.16,.03-.14,.17-.22,.3-.19,.14,.03,.22,.17,.19,.3-.31,1.36-.58,2.75-.82,4.13-.02,.12-.13,.21-.25,.21Z"/><path class="b" d="M65.55,73.33s-.02,0-.04,0c-.14-.02-.24-.15-.22-.29,.81-5.91,1.78-11.89,2.87-17.75,.03-.14,.16-.23,.3-.2,.14,.03,.23,.16,.2,.3-1.09,5.86-2.05,11.82-2.86,17.73-.02,.13-.13,.22-.25,.22Z"/><path class="b" d="M69.52,70.28h-.02c-.14,0-.25-.13-.24-.27,.23-3.54,.75-7.09,1.56-10.54,.03-.14,.17-.22,.3-.19,.14,.03,.22,.17,.19,.3-.8,3.42-1.32,6.94-1.54,10.46,0,.13-.12,.24-.25,.24Z"/><path class="c" d="M51.76,138.04c.65-10.82,1.13-21.64,1.43-32.48,5.75,1.27,11.76,1.39,18.15,.26,1.1,10.81,2.2,21.62,2.98,32.86-7.79,.31-15.61,.1-22.55-.65Z"/><path class="c" d="M54.96,96.49c-.92-2.65-.77-5.57-.08-8.28s1.91-5.26,3.13-7.79c.7-1.47,1.41-2.94,2.11-4.41,.14-.29,.29-.59,.57-.75,.28-.16,.62-.13,.93-.1,1.78,.17,3.56,.33,5.33,.5,.35,2.54,1.01,5.04,1.94,7.43,.39,1,.84,1.99,1.05,3.04,.24,1.2,.18,2.43,.17,3.66-.02,2.65,.23,5.3,.04,7.84-3.43,.74-7,1.47-10.41,.65-.57-.14-1.14-.32-1.72-.4-.66-.09-1.34-.06-1.98-.21s-1.3-.55-1.09-1.18Z"/><g><g class="d"><path class="b" d="M68.16,73.95c-.17,.07-.12,.06,0,0h0Z"/></g><g class="d"><path class="b" d="M71.05,75.36c.54-.88,0-2.15-1.18-2.17-.53-.01-.94,.36-1.38,.59-.1,.06-.2,.11-.29,.15h0l-.03,.02h0c-.22,.1-.51,.28-.55,.32-.29,.1-.6,.19-.88,.32-1.05-.72-2.81-.06-2.79,1.47,.08,4.74,.53,9.45,.79,14.18,.16,2.08,.13,4.18,.43,6.24,.06,.96,.07,2.13,1.16,2.49,.33,.17,.71,.19,1.06,.1,.28,.1,.6,.06,.83-.18,.01-.01,.02-.03,.03-.04,.67,.34,1.61,.16,2-.56,.16-.28,.24-.62,.18-.94,.01,.09,.02,.17,.02,.11,0-.04-.01-.09-.02-.13h0c-.04-.28-.02-.17,0-.04-.04-.26-.08-.53-.13-.79-.25-1.74-.47-2.34-.54-3.55-.26-2.63,.42-5.26-.11-7.86-.59-3.13-1.3-3.68-2.03-6.06,0-.07,0-.15-.01-.22,.29,.08,.61,.08,.93-.01,1.15-.16,2.73-.43,3.14-1.7,.19-.64-.08-1.34-.59-1.73Z"/></g></g><g class="d"><path class="b" d="M74.26,137.74s-.01-.05-.1-.15c-.13-.78-.4-2.26-.44-3.7-.1-.85-.28-3.02-.32-4.61-.69-4.27-1.27-6.85-1.51-11.23-.2-2.1-.31-4.22-.54-6.32-.04-.24-.05-1.06-.11-.53,.12-1.33-.06-2.66-.15-3.99-.02-1.37-1.64-1.66-2.34-.86-.32-.15-.72-.11-1,.11-.74-.16-1.62,.32-1.6,1.24,.1,4.73,.49,9.46,.71,14.19,.23,2.93,.6,5.86,.57,8.81-.01,1.74,.02,3.48-.02,5.22,.05,.96-.17,2.16,.26,3.04,.22,.5,.69,.9,1.24,.93,.4,.08,.8-.04,1.12-.27,.06,.07,.13,.13,.21,.18,.48,.29,1.05,.01,1.24-.44,.23,.03,.46,0,.66-.12,.24-.13,.38-.36,.47-.61,.17,.43,.63,.76,1.13,.6,.65-.17,.86-.97,.52-1.47Z"/></g><g class="d"><path class="b" d="M77.06,68.22c-.31-.23-.63-.34-.92-.35-.13-.33-.38-.62-.74-.74-.84-.42-1.89,.28-1.93,1.19v.02s-.04,.03-.07,.06c-.77,.66-1.74,1.55-1.42,2.67,.23,.94,1.2,1.38,2.04,1.21,.64,.83,2.11,.97,2.74-.14,.44-1.19,1.64-2.9,.29-3.91Z"/></g><g class="d"><path class="b" d="M77.03,58.32c-.27-.84-1.08-.9-1.59-.54-.94-.36-2.05,.58-1.74,1.6,.4,1.57,.2,.91,.37,1.74,0,.84,.53,1.68,1.45,1.66,.82,0,1.41-.7,1.42-1.47,.01,0,.02,0,.04,0,1.2-.44,.32-2.15,.06-2.99Z"/></g><g class="d"><path class="b" d="M70.5,51.38c-.38-.25-.82-.34-1.26-.39,.04,0,.08,.01,.1,.01-.63-.14-1.36-.33-1.99-.13-.86,.3-.76,1.65,.12,1.85,.36,.05,.73,.1,1.08,.21,.4,.36,.74,.81,1.23,1.03,.79,.4,1.81-.3,1.78-1.18,.01-.68-.53-1.09-1.06-1.41Z"/></g><g class="d"><path class="b" d="M59.88,75.13c-.42-.99-1.19-1.13-1.33-1.4-.57-.44-1.07-1.15-1.84-1.17-1.08-.04-1.68,1.34-1,2.13-.72,.68-.76,2.01,.26,2.58,.79,.53,1.72,1.49,2.74,1.04,.74-.26,1.04-1.17,.78-1.86,.36-.32,.55-.82,.4-1.32Z"/></g><g class="d"><path class="b" d="M53.57,67.79l-.05-.12c-.25-.52-.27-1.15-.58-1.63-.59-.83-1.95-.14-1.66,.83,.27,.87,.42,1.91,1.08,2.57,.5,.44,1.37,.13,1.52-.5,.14-.44-.14-.78-.31-1.15Z"/></g><g class="d"><path class="b" d="M62.27,51c-.49-.08-.98,.19-1.44,.36,.04-.02,.16-.07,.07-.03-.57,.26-.72,.24-1.42,.6-.54,.37-.09,1.28,.54,1.08,1.01-.39,1.35-.61,2.07-.64,.8,0,.96-1.17,.19-1.37Z"/></g><g class="d"><path class="b" d="M106.85,81.66s0-.1-.01-.15c-.12-1.38-2.19-1.5-2.53-.17-.28,.82-.44,1.11-1.14,2.33-.24,.48-.7,.9-.76,1.45-.22,1.22,1.43,1.85,2.15,.95,.36,.05,.74-.08,.95-.46,.65-.96,1.45-1.91,1.79-3.03,.08-.4-.14-.74-.46-.93Z"/></g><g class="d"><path class="b" d="M108.3,48.9c-.32-.96-.74-1.89-1.14-2.82-.15-.25-.39-.44-.67-.52-.93-.29-1.79,.83-1.27,1.66,.65,1.36,.73,1.63,1.23,2.82-.03-.04,.18,.56,.2,.73,.1,.38,.45,.71,.85,.73,.49,.1,.98-.26,1.12-.73,.12-.63-.21-1.25-.31-1.87Z"/></g><g class="d"><path class="b" d="M80.65,104.44c-1.09,.41-1.56,.5-2.09,.53-.72,.09-1.49-.14-2.18,.09-1.12,.42-.76,2.16,.43,2.14,1.82,.13,3.66,.02,5.31-.85,1.4-1.03,.04-2.82-1.46-1.92Z"/></g><g class="d"><path class="b" d="M46.79,103.13c-.06-.09-.31-.2-.43-.24-1.1-.65-2.18-1.33-3.26-2.01-.98-.55-1.83,.89-.87,1.48,.92,.58,1.87,1.12,2.8,1.7,.37,.19,.72,.52,1.15,.54,.33-.01,.67-.2,.78-.53,.16-.3,.06-.7-.18-.94Z"/></g><path class="b" d="M51.48,139.25s-.03,0-.05,0c-.42-.03-.74-.39-.71-.81l2.08-32.29c.03-.42,.4-.74,.81-.71,.42,.03,.74,.39,.71,.81l-2.08,32.29c-.03,.4-.36,.71-.76,.71Z"/><path class="b" d="M74.6,139.25c-.37,0-.7-.27-.75-.65-1.57-10.66-2.76-21.51-3.53-32.27-.03-.42,.29-.78,.71-.81,.42-.03,.78,.29,.81,.71,.77,10.72,1.95,21.53,3.52,32.15,.06,.42-.23,.8-.64,.86-.04,0-.08,0-.11,0Z"/><path class="b" d="M89.94,140.03h-.02c-16.88-.35-33.99-.61-50.85-.75-.42,0-.76-.35-.76-.77,0-.42,.34-.76,.76-.76h0c16.87,.14,33.98,.4,50.87,.75,.42,0,.75,.36,.75,.78,0,.42-.35,.75-.76,.75Z"/><g><path class="b" d="M63.98,99.37c-10.92,0-21.91-4.82-28.83-13.2-9.09-11-10.78-27.41-4.11-39.92,5.35-10.04,15.57-17.3,27.34-19.42,8.31-1.5,17.34,.66,25.41,6.09,12.47,8.39,18.84,21.84,16.62,35.08-2.37,14.12-13.15,26.2-26.84,30.06-3.12,.88-6.35,1.31-9.59,1.31Zm-.36-71.49c-1.68,0-3.34,.15-4.97,.44-11.14,2.01-21.2,9.15-26.27,18.64-6.39,11.98-4.77,27.7,3.94,38.23,8.6,10.4,23.75,15.09,36.83,11.4,13.13-3.71,23.48-15.3,25.75-28.85,2.12-12.65-4-25.51-15.97-33.57h0c-6.14-4.13-12.85-6.3-19.31-6.3Z"/><path class="b" d="M64.76,107.48c-1.37,0-2.75-.06-4.13-.18-9.78-.86-18.97-4.74-25.86-10.9-14.08-12.59-18.61-34.73-10.55-51.5,7.95-16.53,27.55-26.94,46.63-24.73h0c16.72,1.93,32.64,17.73,36.47,30.71,6.44,21.81-6.22,37.46-7.69,39.17-4.05,4.73-7.97,8.31-12,10.93-6.52,4.25-14.52,6.5-22.87,6.5Zm33.71-18.42c1.41-1.65,13.6-16.71,7.39-37.75-3.7-12.52-19.05-27.77-35.18-29.63-1.65-.19-3.3-.28-4.95-.28-16.8,0-33.14,9.63-40.13,24.17-7.78,16.19-3.4,37.56,10.19,49.71,13.89,12.42,35.83,14.33,51.02,4.44"/><path class="b" d="M85.09,26.2c-.1,0-.2-.02-.3-.06-.39-.17-.57-.61-.4-1,1.5-3.49,3.33-6.86,5.44-10.01,.16-.24,.33-.48,.49-.72,1.16-1.71,2.36-3.47,2.82-5.41,.47-1.95-.07-4.41-1.76-5-1.55-.54-3.45,.73-4.45,2.21-1.01,1.49-1.52,3.33-2.02,5.12-.07,.27-.15,.54-.22,.8-1.06,3.71-2.49,7.34-4.25,10.78-.19,.37-.65,.52-1.03,.33-.37-.19-.52-.65-.33-1.03,1.72-3.35,3.11-6.89,4.14-10.5,.07-.26,.15-.53,.22-.79,.53-1.9,1.07-3.87,2.22-5.57,1.35-1.99,3.92-3.59,6.22-2.79,2.53,.88,3.38,4.15,2.74,6.8-.53,2.21-1.81,4.09-3.05,5.91-.16,.24-.32,.48-.48,.71-2.06,3.07-3.85,6.36-5.31,9.77-.12,.29-.41,.46-.7,.46Z"/><path class="b" d="M48.55,23.85c-.32,0-.62-.21-.72-.53-1.16-3.59-2.67-7.07-4.5-10.35-.13-.24-.27-.48-.4-.72-.97-1.72-1.98-3.5-2.37-5.51-.46-2.37,.23-5.31,2.42-6.37,2.41-1.16,5.32,.54,6.74,2.87,1.19,1.94,1.61,4.17,2.02,6.33,.05,.28,.11,.57,.16,.85,.72,3.63,1.78,7.22,3.15,10.66,.16,.39-.03,.83-.42,.99-.39,.16-.83-.03-.99-.42-1.41-3.53-2.5-7.21-3.23-10.93-.06-.28-.11-.57-.17-.86-.39-2.03-.79-4.12-1.83-5.82-1.05-1.71-3.17-3.07-4.78-2.29-1.48,.72-1.92,2.96-1.59,4.71,.34,1.77,1.28,3.43,2.2,5.04,.14,.24,.27,.49,.41,.73,1.88,3.37,3.43,6.94,4.62,10.63,.13,.4-.09,.83-.49,.96-.08,.02-.16,.04-.23,.04Z"/><path class="b" d="M36.89,124.31c-.37,0-.75-.05-1.12-.17-2.56-.79-3.53-4.02-2.99-6.69,.45-2.23,1.65-4.15,2.82-6.02,.15-.24,.31-.49,.46-.73,1.94-3.15,3.61-6.5,4.94-9.96,.15-.39,.59-.59,.98-.44,.39,.15,.59,.59,.44,.98-1.37,3.55-3.07,6.98-5.07,10.21-.15,.25-.31,.49-.46,.74-1.1,1.75-2.23,3.56-2.62,5.51-.39,1.96,.24,4.41,1.95,4.93,1.58,.48,3.42-.86,4.37-2.37,.95-1.52,1.39-3.38,1.82-5.18,.06-.27,.13-.55,.2-.82,.92-3.75,2.21-7.42,3.84-10.93,.18-.38,.63-.55,1.01-.37,.38,.18,.55,.63,.37,1.01-1.59,3.42-2.85,7-3.75,10.65-.07,.27-.13,.54-.19,.81-.46,1.92-.93,3.9-2.01,5.64-1.07,1.72-3.02,3.19-4.99,3.19Z"/><path class="b" d="M84.53,127.3c-2.05,0-4.08-1.6-5.12-3.54-1.07-2-1.37-4.26-1.65-6.44-.04-.29-.07-.57-.11-.85-.5-3.67-1.36-7.31-2.53-10.82-.13-.4,.08-.83,.48-.96,.4-.13,.83,.08,.96,.48,1.2,3.6,2.08,7.34,2.59,11.1,.04,.29,.08,.58,.12,.86,.27,2.05,.54,4.16,1.49,5.92,.95,1.76,2.99,3.25,4.64,2.56,1.52-.63,2.09-2.84,1.86-4.61-.24-1.78-1.08-3.5-1.9-5.16-.12-.25-.25-.5-.37-.75-1.68-3.47-3.02-7.13-3.99-10.88-.11-.41,.14-.82,.55-.93,.41-.1,.82,.14,.93,.55,.95,3.65,2.25,7.21,3.89,10.6,.12,.25,.24,.49,.36,.74,.87,1.77,1.77,3.6,2.04,5.63,.32,2.39-.54,5.29-2.79,6.22-.47,.2-.96,.29-1.44,.29Z"/><path class="b" d="M5.45,87.09c-2.1,0-4.3-.85-5.13-2.73-1.08-2.45,.73-5.3,3.1-6.64,1.98-1.12,4.22-1.47,6.4-1.8,.29-.04,.57-.09,.85-.13,3.65-.59,7.27-1.52,10.76-2.78,.4-.14,.83,.06,.97,.46,.14,.4-.06,.83-.46,.97-3.58,1.29-7.29,2.25-11.04,2.85-.29,.05-.57,.09-.86,.14-2.04,.32-4.15,.64-5.88,1.62-1.74,.99-3.18,3.06-2.46,4.7,.66,1.5,2.89,2.03,4.65,1.75,1.78-.28,3.47-1.16,5.11-2.02,.25-.13,.5-.26,.74-.39,3.43-1.76,7.06-3.19,10.78-4.24,.41-.11,.83,.12,.94,.52,.11,.4-.12,.83-.52,.94-3.62,1.03-7.16,2.42-10.5,4.13-.24,.13-.49,.25-.74,.38-1.75,.91-3.56,1.85-5.58,2.17-.37,.06-.76,.09-1.15,.09Z"/><path class="b" d="M107.31,52.86c-.31,0-.61-.19-.72-.51-.14-.4,.07-.83,.46-.97,3.58-1.28,7.3-2.22,11.04-2.82,.29-.05,.58-.09,.86-.13,2.04-.31,4.15-.63,5.88-1.6,1.75-.98,3.19-3.05,2.47-4.69-.66-1.51-2.88-2.03-4.65-1.76-1.78,.27-3.48,1.15-5.12,2-.25,.13-.5,.26-.75,.38-3.33,1.7-7.96,3.49-11.78,4.56-.4,.11-.82-.12-.94-.53-.11-.41,.12-.83,.53-.94,3.73-1.05,8.24-2.79,11.5-4.45,.25-.13,.49-.25,.74-.38,1.75-.91,3.56-1.84,5.59-2.15,2.38-.37,5.3,.43,6.27,2.66,1.07,2.45-.74,5.3-3.12,6.63-1.98,1.11-4.23,1.45-6.4,1.78-.29,.04-.57,.09-.85,.13-3.66,.58-7.28,1.5-10.77,2.75-.08,.03-.17,.04-.26,.04Z"/><path class="b" d="M119.88,95.47c-.59,0-1.17-.07-1.73-.2-2.21-.53-4.09-1.81-5.9-3.04-.24-.16-.48-.33-.72-.49-3.07-2.06-6.36-3.85-9.77-5.31-.39-.17-.57-.61-.4-1,.17-.39,.61-.57,1-.4,3.5,1.5,6.86,3.33,10.01,5.44,.24,.16,.48,.33,.73,.49,1.7,1.16,3.47,2.36,5.4,2.82,1.95,.47,4.41-.07,5-1.76,.54-1.55-.73-3.45-2.21-4.45-1.49-1.01-3.33-1.52-5.11-2.01-.27-.07-.54-.15-.81-.23-3.71-1.05-7.34-2.48-10.78-4.25-.37-.19-.52-.65-.33-1.03,.19-.37,.65-.52,1.03-.33,3.35,1.72,6.89,3.11,10.5,4.14,.27,.08,.53,.15,.8,.22,1.9,.53,3.87,1.07,5.56,2.22,1.99,1.35,3.59,3.92,2.79,6.22-.7,1.99-2.88,2.94-5.07,2.94Z"/><path class="b" d="M24.91,45.99c-.13,0-.26-.03-.38-.1-3.25-1.91-6.7-3.5-10.25-4.73-.26-.09-.52-.18-.78-.27-1.87-.63-3.8-1.29-5.43-2.53-1.91-1.46-3.37-4.12-2.44-6.37,1.02-2.47,4.33-3.14,6.94-2.35,2.17,.65,3.98,2.04,5.73,3.38,.23,.18,.46,.35,.68,.52l.43,.32c2.77,2.1,5.16,3.91,8.3,5.47,.38,.19,.53,.65,.34,1.02-.19,.38-.64,.53-1.02,.34-3.27-1.63-5.71-3.48-8.54-5.62l-.43-.32c-.23-.17-.46-.35-.69-.53-1.64-1.26-3.33-2.55-5.24-3.13-1.92-.58-4.41-.18-5.09,1.48-.63,1.52,.54,3.49,1.95,4.57,1.43,1.09,3.24,1.71,4.99,2.3,.27,.09,.53,.18,.79,.27,3.64,1.26,7.18,2.9,10.52,4.86,.36,.21,.48,.68,.27,1.04-.14,.24-.4,.38-.66,.38Z"/><path class="b" d="M63.26,65.85c-.26,0-.51-.05-.76-.14-.36-.15-.64-.38-.87-.59-.24-.22-.5-.5-.62-.9-.11-.36-.1-.75,.05-1.19,.23-.71,.69-1.28,1.28-1.59,.73-.39,1.63-.33,2.24,.13h0c.54,.41,.89,1.11,.91,1.84,.02,.74-.29,1.46-.83,1.92-.4,.34-.9,.52-1.41,.52Zm.12-3.15c-.11,0-.22,.03-.32,.08-.24,.13-.44,.39-.55,.72-.06,.19-.04,.25-.04,.26,0,.02,.04,.09,.21,.24,.12,.12,.27,.24,.4,.29,.18,.07,.44,.02,.61-.12,.19-.16,.3-.43,.29-.71,0-.29-.16-.56-.3-.67h0c-.07-.06-.18-.08-.29-.08Z"/><path class="b" d="M63.58,76.17c-3.54,0-6.52-2.4-8.42-4.46-1.75-1.9-4.55-5.69-3.61-9.81,.27-1.19,.85-2.39,1.82-3.76,1.92-2.72,4.3-4.7,6.88-5.73,3.06-1.22,6.41-1.06,8.97,.42,3.7,1.66,6.39,6.59,6.12,11.27-.27,4.69-3.43,9.17-7.86,11.16-1.21,.55-2.39,.85-3.49,.91-.14,0-.28,.01-.41,.01Zm.85-23.06c-1.19,0-2.43,.23-3.61,.71-2.31,.92-4.45,2.72-6.2,5.2-.85,1.21-1.36,2.23-1.58,3.22-.78,3.44,1.7,6.77,3.24,8.44,1.75,1.9,4.49,4.13,7.64,3.96,.91-.05,1.9-.31,2.94-.78,3.93-1.76,6.73-5.73,6.96-9.86,.23-4.03-2.12-8.43-5.25-9.8-.03-.01-.05-.03-.08-.04-1.19-.7-2.6-1.05-4.06-1.05Z"/><path class="b" d="M67.18,52.58c-.1,0-.2-.02-.3-.06-.39-.16-.57-.61-.41-1,1.59-3.78,3.1-7.4,4.62-11.01,1.51-3.62,3.02-7.23,4.62-11.02,.16-.39,.61-.57,1-.41,.39,.16,.57,.61,.41,1-1.59,3.78-3.1,7.4-4.62,11.01-1.51,3.62-3.02,7.23-4.62,11.02-.12,.29-.41,.47-.7,.47Z"/><path class="b" d="M70.69,55.09c-.11,0-.22-.02-.32-.07-.38-.18-.55-.63-.37-1.01,1.74-3.75,3.52-7.26,5.24-10.66,1.72-3.39,3.49-6.89,5.22-10.62,.18-.38,.63-.55,1.01-.37,.38,.18,.55,.63,.37,1.01-1.74,3.75-3.52,7.27-5.25,10.67-1.72,3.39-3.49,6.89-5.22,10.61-.13,.28-.4,.44-.69,.44Z"/><path class="b" d="M74.46,59.18c-.3,0-.59-.18-.71-.47-.16-.39,.03-.83,.42-.99,3.78-1.54,7.39-3.02,11-4.5,3.65-1.5,7.29-2.99,11.11-4.55,.39-.16,.83,.03,.99,.42,.16,.39-.03,.83-.42,.99-3.82,1.55-7.46,3.05-11.11,4.55-3.61,1.48-7.22,2.96-11,4.5-.09,.04-.19,.06-.29,.06Z"/><path class="b" d="M75.13,63.28c-.31,0-.61-.19-.72-.51-.14-.4,.06-.83,.46-.97,2.34-.84,5.71-1.91,9.29-3.04,4.74-1.5,10.11-3.21,14.49-4.81,.4-.14,.83,.06,.98,.45,.14,.39-.06,.83-.45,.98-4.42,1.61-9.8,3.33-14.55,4.83-3.56,1.13-6.92,2.2-9.23,3.03-.08,.03-.17,.04-.26,.04Z"/><path class="b" d="M96.09,77.02c-.1,0-.2-.02-.3-.06-3.8-1.6-7.43-3.12-11.07-4.64-3.6-1.5-7.2-3.01-10.96-4.59-.39-.16-.57-.61-.41-1,.16-.39,.61-.57,1-.41,3.76,1.58,7.36,3.09,10.96,4.59,3.64,1.52,7.27,3.04,11.07,4.64,.39,.16,.57,.61,.41,1-.12,.29-.41,.47-.7,.47Z"/><path class="b" d="M94.01,82.42c-.11,0-.22-.02-.32-.07-4.13-1.92-8.99-4.44-13.28-6.67-3.21-1.67-6.25-3.24-8.4-4.26-.38-.18-.54-.63-.36-1.01,.18-.38,.63-.54,1.01-.36,2.18,1.03,5.22,2.61,8.45,4.29,4.27,2.22,9.12,4.73,13.22,6.64,.38,.18,.55,.63,.37,1.01-.13,.28-.4,.44-.69,.44Z"/><path class="b" d="M59.4,53.86c-.31,0-.6-.19-.71-.5l-8.61-23.28c-.15-.39,.06-.83,.45-.98,.39-.15,.83,.06,.98,.45l8.61,23.28c.15,.39-.06,.83-.45,.98-.09,.03-.18,.05-.26,.05Z"/><path class="b" d="M63.5,53.16c-.33,0-.64-.22-.73-.56-.41-1.46-1.14-3.96-2.08-7.13-1.5-5.07-3.36-11.39-4.99-17.26-.11-.41,.13-.82,.53-.94,.4-.11,.82,.12,.94,.53,1.62,5.86,3.48,12.16,4.98,17.23,.94,3.17,1.68,5.68,2.09,7.16,.11,.41-.13,.82-.53,.94-.07,.02-.14,.03-.2,.03Z"/><path class="b" d="M53.03,60.36c-.11,0-.22-.02-.32-.07-3.73-1.73-7.4-3.57-10.94-5.35-3.53-1.77-7.18-3.61-10.89-5.33-.38-.18-.55-.63-.37-1.01,.18-.38,.63-.55,1.01-.37,3.73,1.73,7.39,3.57,10.93,5.35,3.53,1.78,7.18,3.61,10.9,5.33,.38,.18,.55,.63,.37,1.01-.13,.28-.4,.44-.69,.44Z"/><path class="b" d="M54.98,56.74c-.13,0-.27-.03-.39-.11-2.32-1.39-5.71-3.36-9.31-5.45-4.08-2.37-8.3-4.83-11.59-6.79-.36-.22-.48-.68-.26-1.04,.22-.36,.68-.48,1.04-.26,3.27,1.96,7.49,4.41,11.57,6.79,3.6,2.09,7,4.07,9.33,5.46,.36,.22,.48,.68,.26,1.04-.14,.24-.4,.37-.65,.37Z"/><path class="b" d="M31.2,78.16c-.32,0-.62-.2-.72-.52-.13-.4,.09-.83,.48-.96,3.92-1.29,7.56-2.63,11.08-3.92,3.53-1.3,7.18-2.64,11.12-3.93,.4-.13,.83,.09,.96,.48,.13,.4-.09,.83-.48,.96-3.92,1.29-7.56,2.63-11.08,3.92-3.53,1.3-7.19,2.64-11.13,3.94-.08,.03-.16,.04-.24,.04Z"/><path class="b" d="M29.59,72.46c-.34,0-.66-.23-.74-.59-.1-.41,.16-.82,.56-.92,5.9-1.41,11.6-2.96,16.18-4.2,2.88-.78,5.16-1.4,6.66-1.76,.41-.1,.82,.15,.92,.56,.1,.41-.16,.82-.56,.92-1.47,.35-3.74,.97-6.61,1.75-4.59,1.25-10.31,2.8-16.23,4.21-.06,.01-.12,.02-.18,.02Z"/><path class="b" d="M51.27,96.24c-.09,0-.19-.02-.28-.05-.39-.16-.58-.6-.43-.99,1.54-3.86,3.06-7.2,4.54-10.44,1.47-3.22,2.98-6.54,4.51-10.37,.16-.39,.6-.58,.99-.43,.39,.16,.58,.6,.43,.99-1.54,3.86-3.06,7.2-4.54,10.44-1.47,3.22-2.99,6.54-4.51,10.37-.12,.3-.41,.48-.71,.48Z"/><path class="b" d="M45.87,93.81c-.11,0-.23-.03-.34-.08-.38-.19-.53-.65-.34-1.02,2.72-5.45,5.43-10.38,7.61-14.35,1.36-2.48,2.44-4.43,3.11-5.79,.19-.38,.65-.53,1.02-.34,.38,.19,.53,.65,.34,1.02-.69,1.38-1.77,3.35-3.14,5.84-2.17,3.96-4.88,8.88-7.59,14.3-.13,.27-.4,.42-.68,.42Z"/><path class="b" d="M72.65,97.82c-.34,0-.65-.23-.74-.58-1.8-7.36-3.92-14.74-6.31-21.93-.13-.4,.08-.83,.48-.96,.4-.13,.83,.08,.96,.48,2.4,7.23,4.54,14.65,6.34,22.05,.1,.41-.15,.82-.56,.92-.06,.01-.12,.02-.18,.02Z"/><path class="b" d="M78.41,95.57c-.32,0-.61-.2-.72-.51-2.47-7.17-4.99-13.66-7.65-20.52l-.53-1.37c-.15-.39,.04-.83,.43-.99,.39-.15,.83,.04,.99,.43l.53,1.37c2.67,6.88,5.19,13.38,7.67,20.58,.14,.4-.07,.83-.47,.97-.08,.03-.17,.04-.25,.04Z"/></g><path class="b" d="M54.29,98c-.42,0-.76-.34-.76-.76,0-3.15,.13-6.33,.4-9.47,.03-.37,.33-.67,.7-.7,.37-.03,.73,.22,.83,.57,.05,.17,.03,.35-.04,.51-.25,3.01-.38,6.06-.37,9.09,0,.42-.34,.76-.76,.76h0Z"/><path class="b" d="M70.49,98.48c-.39,0-.72-.3-.76-.7-.3-3.64-.47-7.33-.51-10.98,0-.42,.33-.77,.75-.77h0c.42,0,.76,.34,.76,.75,.04,3.61,.21,7.27,.51,10.87,.03,.42-.28,.79-.7,.82-.02,0-.04,0-.06,0Z"/></svg>