<svg id="Layer_1" data-name="Layer 1" xmlns="http://www.w3.org/2000/svg" viewBox="0 0 300 270.93"><defs><style>.cls-1{fill:#050e13;fill-rule:evenodd;}</style></defs><path class="cls-1" d="M292.41,22.9c-18.21,1.24,5.76-4.24,1.64-11.14-3-5-12.39,7.11-13.59,6.52-.7-.34,2.1-17,1.84-17.82A.71.71,0,0,0,281,.33c-3.36,7.06-10,3.47-10.12,8.18,0,2.14-1,3.93-1.55,2.71-1.34-2.87-1.94,0-6.06,3-15.39,11.57-10.8,2.53-10.8,13.25.06,1.11-1.58.12-1.84-.78-.61-2.07-.94-1.74-11.59,7.1-1.63,1.35-.64,2.64-.16,17,.09,2.7-4.46,4.08-7.73,7.19-23.44,22.33-15.39,19.36-25.08,7.18-15.42-19.39-42-39.52-66.29-43.9-19.89-3.59-41.13-1-43.66-.17-11.07,3.53-24.8,8.64-45.09,18.54-17.8,8.7-24.48,9.15-40.44,39.56-17.84,34-10.89,72.63,3.69,106.17,20.2,46.5,54.58,80,105.47,85.43,9,.95,20.63-4.14,25.77-5.69,3.32-1,6.45-2.59,9.76-3.67,4-1.29,8.08-2.17,12-3.52,1.22-.42,21-8.25,24.2-11.73.24-.27,8-6,20.83-20.81,9.66-11.16,14-30.59,16.34-37.1,6.18-17.23,3.41-44.1-.14-61.95-10.82-54.53-23-39-1.38-56.31,15.57-12.47,16.12-13.15,19.6-13,4.13.14,8.27-.84,12.4-.86,6.58,0,6.67-1.77,10.12-4.55,10.25-8.27,5.38-5,3.05-8.46-.93-1.41,4.21-.77,5.41-.46,2.34.59,1.48-.4,12.37-10.56.46-.42,9.54-8.3,9.74-8.72C300.79,21.46,296.51,22.62,292.41,22.9ZM278.93,4.73c1.3-.63.77.27-.39,14.26-.17,2.08-1.22,3.41-6.73,7.66-1,.83-.75,0-.75-1C271,6.51,272,8.08,278.93,4.73Zm-12.88,9.19c.52-.29,1.32-.95,1.47-.82,1.65,1.39,2.38,13.86,2.27,15.07-7.73,7.91-6,4.78-5.77-6.33C264.12,17.9,262.77,15.78,266.05,13.92Zm-11.72,9.39c0-2.3,5.15-4.69,6.35-5.42,2.9-1.77,2.11,16.31.91,17.43C252.83,43.45,254.23,44.5,254.33,23.31Zm-6.91,6c3.91-3.21,3.9,2.4,5.41,10.47.23,1.26.84,2.35.27,2.77-18.18,13.73-9.76,9.68-13.64-5.87C239,34.82,240.82,34.72,247.42,29.31Zm-43,36.91c.94,1.2,7.45,10.13,6,11.08C196.19,86.45,197.8,85,196,86.91c-3.11,3.25-3.31-.85-12.79-14-10-13.82-21.79-24.51-38.13-27.66-59-11.34-45.17,15-54-18.84C90.17,23,155.9,4,204.45,66.22ZM135.8,160.35c-1.81.28-1.46-1.26-4.42-10.27-.76-2.34,2.27-1.87,2.5-1.09C136.72,158.55,137.29,160.12,135.8,160.35Zm.92-11.78c1.93.75,4.14,1.09,4.94,3.46.2.6.6,1.57.31,2-3.87,5.67-3.4,6.8-6.32-4.42C135.42,148.75,135.56,148.12,136.72,148.57Zm-6.22-2.85c0-.19,1.09-.27,1.16.06C131.77,146.33,130.42,146.1,130.5,145.72Zm-2.73-11.26a.71.71,0,0,1,1.25,0c3.42,5.61.2,7.05-.35,5.35C127.26,135.44,127.23,135.66,127.77,134.46Zm.44,11.09c-1.48,1.79-9.52-3.66-3.43-9.32C126.27,134.84,128.8,144.84,128.21,145.55Zm3.44-10.67c.25-.21.42-.36.45-.33,1,.71,2.57,1.68,1.82,2.51C132.44,138.71,130.92,135.51,131.65,134.88Zm-2.59-7.26a.89.89,0,0,0-.87-.77c-2.21.11,1.61,6.18-1.18,5-1.49-.64-.63-1.72-1.19-2.93-.22-.48-.77-1-1.32-.82-2.23.74,2.27,4.21-.88,7.2-5.22,4.95-1.67,12,2.91,12.72,1.86.28,3.36,1,3.82,3.23,1.22,6.09,4,10.77,1,9.31-1.79-.87-4-1.08-4.93-3.35-.09-.21-.44-.32-.83-.4-2.67-.56.34,5.4,7.53,6.44.32,0,1.47,2.49,2.12,3.05a.78.78,0,0,0,1.27-.46c.31-1.56-.24-1.07-.54-2.28s1.2-1.22,1.79-.67.58,1.28,1,1.79a.78.78,0,0,0,1.39-.29c.4-1.76-2.49-1.74.33-5,4.77-5.47,4-11.32-3-13.13-3.45-.89-3.51-.48,7.37-9.6,3.06-2.55,3.17,6.9,4,11.88,3.6,22.25-13.85,26.95-20.25,20.15-19.5-20.68-15.19-47.26-2.07-46.48,3.13.19,6.93-3,15.53,4.83,2.07,1.88-1,3.83-3.23,6.33-1.31,1.44-2.55,2.32-4,.14C133.76,132,130.65,135,129.06,127.62Zm-58-68C79.5,52.84,95,47.38,95.81,49.23c.52,1.21,8.14,21.52,6.12,22.09-21.51,6.16-46.14,36.15-41.16,70.09,4,27.08,13.35,17.63-14.76,26.91-1.74.58-2.28-.2-2.77-1.4-1.09-2.69-6.5-18.18-5.38-19.39.06-.06.15,0,.13-.15C34.73,119.61,31.07,91.85,71.09,59.62Zm61.6,115.3c8.16-2.12,5.29-4.16,11.38,14.5.67,2,4,5.53.23,6.32-.37.08-11.51,2.35-11.88,2.25-12.07-3.05-25.77-8.2-32.7-18.77-6.16-9.39-10.35-21.59-8.79-22.11,16.52-5.54,17.75-6.17,18.38-4.09,2.89,9.62,6.34,17,17.88,23.2C128.43,176.89,130.83,175.41,132.69,174.92Zm-5-2.92c.64-1,2.17.36,2.11,1.13s-1.47,1.42-1.58,1.27C127.33,173.24,126.89,173.26,127.72,172Zm23.72-30.68c18.18-5.7,15.37-9.73,17.52,8.17,2.31,19.12-3.05,33.74-19.66,44.34-2.08,1.32-2-.37-3.94-5.1-.27-.65-.63-1.25-.86-1.93-2.28-6.84-4.8-14.26-2.18-15.25,4.76-1.8,6.58-6,7.83-10.67C152.89,150.73,147.34,142.6,151.44,141.32Zm-1.59,54.6c13.78-6.67,22.05-23.47,21.32-37.8-1.43-28.13-7.5-20.83,13.16-29.11,1.91-.77,2-.45,2.72,6,7.07,61.92-30.2,85-32.56,78.56C148.46,197.06,148.2,196.72,149.85,195.92ZM68.14,164.39c-.16-.65,15.54-5.76,16.22-6,2.8-1,3.2-.78,4.24,1.94,8.33,21.56,15.33,33,39,39,5.63,1.45,7.84.16,18.37-1.73,1.28-.23,1.11-.12,7.08,15.81C155.12,218.87,84.22,230.18,68.14,164.39ZM113.36,135c.16,0,.56.23.55.35-.15,4.21,1,3.52-4.39,5.57h0a2.69,2.69,0,0,1-.37-1.05C109.41,136.48,110.18,135.68,113.36,135Zm1.62-4.9c-.31,3.13-3.85,4.52-4.67,3.59C109.19,132.37,115.22,127.74,115,130.05Zm-2,12.12c1.15-.35,1.59,2.06,1.92,3.85.12.62-3.7,1.68-4.37,1.77-.34.05-1-.46-1.11-.86C107.93,143.23,110.21,143,113,142.17Zm11.51,29.27c-.58.14-3.28-2.12-3.75-2.51s2.06-1.8,2.63-2.11,3.19,2.78,3.57,3.2C127.66,170.8,125.52,171.19,124.51,171.44ZM118.83,167c-1-.17-2.71-2.63-2.59-3.25s2.47-2.09,3.62-2.15c.75,0,2.77,2.24,2.71,2.83S119.75,167.17,118.83,167Zm-.16-8.09c-.58,1-2,1.54-3.45,2.32-1.18.63-2.71-3.18-2.36-3.73a5.41,5.41,0,0,1,4-2C117.54,155.53,119,158.27,118.67,158.91Zm-5.86-4.38c-1.2.67-2.79-3.42-2.46-4,.87-1.45,4.46-2,4.88-1.17C116.7,152.28,117.28,152.06,112.81,154.53Zm3.65-29.16c.55-.31.72.8,0,1.09C112.83,127.85,111.84,128.14,116.46,125.37Zm-.26-2.49c-9.4,4.45-8.24,16.13-8.26,25.64a1.48,1.48,0,0,1-.79,1.09c-16.54,5.74-17.64,6.24-17.9,4.77-7.21-40.89,7.39-47.56,22.61-56.31a1.7,1.7,0,0,1,1.53.56c10.84,23.3,10.21,22.54,7.92,22.12C119.78,120.47,117.9,122.07,116.2,122.88Zm-4.64-27.37c-18,11.32-30.32,16.89-24.59,59.41.21,1.55-.43,1.6-17.4,7-2.32.74-2,1.55-6.81-20.87-7-32.58,21-62.92,39.85-68.15,1.81-.51,1.28-1.26,9.42,21.73C112.1,94.85,111.81,95.35,111.56,95.51ZM66.39,165.15c8,36.84,41.06,61.57,86.61,52.62,1.84-.37,1.78,2,6.35,15.78.87,2.64.77,1.92-16.45,6.22-5.62,1.41-22.45,2.47-41-3.8-19.37-6.53-20.48-9-27.68-16.82-13.92-15.17-27-41.89-29-47.94C44.7,169.83,65.92,163,66.39,165.15Zm90.32,51.46c5.49-2.75,13.16-4,19.71-16.93,6.89-13.59,12.5-20.44,13.08-50.78.47-24.41-8.81-18.78,14.64-26.56,4.35-1.43,4.68,36.29,3.55,51.48-.36,4.75-7.95,35.08-26.3,49.44-3.22,2.53-19.4,14.33-20.59,10.59C155.44,217.18,155.5,217.22,156.71,216.61Zm47.1-96.46c-13.6,4.91-15.44,5.7-15.44,5.7-1.43.53-1.69-2.35-8-15.61-1.45-3.06-.43-2.36,13.91-13.69,3.05-2.41,9.86,20.17,10.5,22.24C205,119.39,204.33,120,203.81,120.15Zm-18.87,7C168,133.9,168.53,134.57,167.2,131c-2.38-6.39-4.68-8.8-3.25-10,14.08-11.6,13.71-11.76,14.77-9.46C185.3,125.9,186.24,126.66,184.94,127.19Zm-19.71,7.57c-19.06,7.36-15.16,4.8-17.27,1.51-1.16-1.8,1.12-3,12.28-12.51,1.26-1.08,1.08.19,1.35.76C166.13,134,166.65,134.21,165.23,134.76Zm-33.9-14.65c-5.61-.51-6,1.35-7.67-2.2-.32-.68-9.2-19.39-9.06-20.13.62-3.33,17.84-7.2,28.88,3.24,13.13,12.42,17.13,14.5,11.38,19-8.92,6.93-9.5,7.86-10.57,7C136.77,120.86,138.32,120.74,131.33,120.11Zm18.76-16.34c-4.11-3.85-8.06-8.1-13.53-10-12-4.29-18.07-.52-21.79.39a2.14,2.14,0,0,1-1.84-.93c-7.42-19.21-8-20.93-6.77-21.29,19.56-5.76,35.9-4.36,59.92,20.27,8.75,9,8.84,11.12,6.08,13.13C152.86,119.42,165,117.74,150.09,103.77ZM106.54,69.38c-1.6.84-2.51.53-3.12-1.36C96.68,47,95.56,47.65,98,46.77c12.62-4.54,28.69-2.69,42,0,20.45,4.14,23.71,5,47,34.4,1,1.2,5.18,7.75,4,8.77-13.31,11.4-14.67,12.66-15.34,11.15C170.55,89.64,134,55,106.54,69.38Zm-23-42.07c5.3-2.08,5.51-2.23,6-.76C98,54.82,96.84,41.44,75,54.72,11.55,93.23,41.43,169.5,41.43,169.5c-19.71,6.15-18.61,5.62-19,4.17-9.63-35.58-12.43-41.34-9.58-58.46,2.3-13.85,4.12-23.28,10.44-34.75,2.65-4.8,6.35-17.23,22.45-31.31C56.7,39.56,56.56,37.9,83.53,27.31Zm43.7,241.13c-14.55,2.62-33.75-5.19-35-5.6-69.38-23.35-126.61-148.65-59.94-211,3.81-3.57,18-10,17.44-9.05-2.69,4.89-28.39,18.91-38,69.09-3.66,19.05.08,32,7.47,57.23,2.6,8.86,6.08,21.14,25.06,49.9,17.17,26,41.36,40.77,70.85,45.31,13.92,2.14,19,1.52,20.2,1.61C138.37,266.21,130.26,267.89,127.23,268.44Zm23.9-7.83c-5.08,3.08-46.85,9.63-81.86-17.57-8.75-6.81-11.73-8-18.35-16.71-3.53-4.63-25.53-41.08-27.17-48.27-.46-2,2.64-2.21,13.69-5.31,4.89-1.38,5.23-3.16,6.68.15,7.7,17.66,22.22,44.68,38.74,57C86,232.24,111,246.2,143.8,241.52c20.58-2.94,14.49-11.45,22.38,12.63C167,256.76,158,256.45,151.13,260.61Zm78.43-117.23c2.51,30.38,1.69,33.46-8.32,62.05-3.14,9-6.58,16-16.67,26.2-18.25,18.45-18,15.68-26.16,19.6-1.2.58-10.18,4.2-10.72,2.71-8-22.31-8.09-13.88,6.08-22.92,6.29-4,12.34-8.43,17.09-14.26,6.85-8.41,10-16.5,16.64-33.59,3-7.84,2.26-33.21,1.93-38.19-1.16-17.76-1-17-1.81-21.53-.6-3.46-1.13-2.63,15.68-7.59C226.28,115,229.31,140.41,229.56,143.38Zm-20.88-24.8c-3.2,1.46-1.37,1.8-8-16.2-1.53-4.18-4-7.85-2.95-8.72,16.21-13.3,15.19-12.91,16-10.59C227,122.5,227.29,110,208.68,118.58ZM192,91.39c10.79-7.74,13.15-6.71,36.7-28.49,15.55-14.38,9.29-7.38,17.61-13.55,17.65-13.08,43.39-39,45.78-36.57,2.09,2.17,1.08,1.37-27.26,24.63C38.42,223.3,163,110.82,192,91.39Zm70.68-36.8c-21.87,2.12-18,1-8.62-5.84.61-.44,14.26-.11,14.59.77S262.87,55.16,262.71,54.59Zm16.86-14.07c-1.2.91-11.64-.72-11.85,1.81-.09,1.1,4,2.86,4.57,3.87,1.25,2.07-3.87.95-7,.8-9.89-.48-12.57,2.68,5.33-12.86,2.13-1.84,15.67-1.58,15.92-.87S280.27,40,279.57,40.52Zm16.18-14.93c-6.67,6.84-4.37,5.33-19.39,5.44a.66.66,0,0,1-.43-1.17c8.89-7.46,7.22-4.39,18.88-5.87.58-.08,1.13-.11,1.37.42S296.11,25.21,295.75,25.59Z" transform="translate(0)"/></svg>