<?xml version="1.0" encoding="utf-8"?>
<!-- Generator: Adobe Illustrator 26.2.1, SVG Export Plug-In . SVG Version: 6.00 Build 0)  -->
<svg version="1.1" id="Layer_1" xmlns="http://www.w3.org/2000/svg" xmlns:xlink="http://www.w3.org/1999/xlink" x="0px" y="0px"
	 viewBox="0 0 120.2 116.8" style="enable-background:new 0 0 120.2 116.8;" xml:space="preserve">
<style type="text/css">
	.st0{fill:#FFFFFF;}
	.st1{fill:#BB8760;}
	.st2{opacity:0.1294;}
</style>
<g>
	<g>
		<path class="st0" d="M59.9,2.7c-0.3,8.3-0.2,17.3-0.4,25.8c12.1-2.7,23.8-6,35.9-8.7C84.3,13.8,72.9,8.3,59.9,2.7z"/>
		<path d="M59.5,29.3c-0.2,0-0.4-0.1-0.5-0.2c-0.2-0.2-0.3-0.4-0.3-0.7c0.1-3.6,0.1-7.4,0.2-11c0-4.9,0.1-10.1,0.3-14.9
			c0-0.3,0.2-0.5,0.4-0.7c0.2-0.2,0.5-0.2,0.8-0.1c12.7,5.5,24,10.9,35.6,17.2c0.3,0.2,0.5,0.5,0.4,0.9c0,0.4-0.3,0.6-0.7,0.7
			c-6,1.3-12.1,2.9-17.9,4.3c-5.9,1.5-11.9,3-18,4.4C59.6,29.3,59.6,29.3,59.5,29.3z M60.8,4c-0.1,4.4-0.2,9.1-0.2,13.5
			c0,3.3-0.1,6.6-0.1,9.9c5.7-1.3,11.4-2.7,16.9-4.1c5.1-1.3,10.4-2.6,15.7-3.8C82.5,13.9,72.2,8.9,60.8,4z"/>
	</g>
	<g>
		<path d="M59.2,59.9C59.2,59.9,59.2,59.9,59.2,59.9c-0.5,0-0.9-0.4-0.9-0.9c0.2-9.8,0.3-19.7,0.3-29.3c0.1-9.6,0.1-19.5,0.3-29.3
			c0-0.5,0.4-0.8,0.9-0.8c0,0,0,0,0,0c0.5,0,0.9,0.4,0.8,0.9c-0.2,9.8-0.3,19.7-0.3,29.3c-0.1,9.6-0.1,19.5-0.3,29.3
			C60,59.6,59.6,59.9,59.2,59.9z"/>
	</g>
	<g>
		<path class="st0" d="M118.9,76.2c0.1,13.1,0.2,26.2,0.3,39.4c-14.6-0.4-31.8-0.2-44.4-0.2c-0.6-12.9,0-25.6-0.5-38.8
			C88.9,76.4,103.5,76.1,118.9,76.2z"/>
		<path d="M119.2,116.4C119.2,116.4,119.1,116.4,119.2,116.4c-11.2-0.3-23.7-0.2-34.9-0.2c-3.4,0-6.6,0-9.5,0
			c-0.5,0-0.8-0.4-0.9-0.8c-0.3-6.9-0.3-13.8-0.3-20.5c0-6,0-12.1-0.2-18.3c0-0.2,0.1-0.5,0.2-0.6c0.2-0.2,0.4-0.3,0.6-0.3
			c3.6,0,7.1-0.1,10.7-0.1c11-0.1,22.3-0.2,34-0.2c0.5,0,0.9,0.4,0.9,0.9l0.3,39.4c0,0.2-0.1,0.5-0.3,0.6
			C119.6,116.3,119.4,116.4,119.2,116.4z M96,114.4c7.5,0,15.2,0,22.3,0.2L118,77c-11.4,0-22.4,0.1-33.1,0.2c-3.3,0-6.5,0.1-9.8,0.1
			c0.2,5.9,0.2,11.8,0.2,17.5c0,6.4,0,13.1,0.3,19.6c2.7,0,5.6,0,8.7,0C88.1,114.4,92,114.4,96,114.4z"/>
	</g>
	<g>
		<path class="st1" d="M38.6,88.9c0.1,8.9,0.6,17.6,0.7,26.5c-14.6-0.3-23.4-0.2-37.9,0.1c0-7.8-0.4-17.2-0.5-26.4
			C15.4,89,23.2,88.8,38.6,88.9z"/>
		<path d="M1.4,116.3c-0.2,0-0.4-0.1-0.6-0.2c-0.2-0.2-0.3-0.4-0.3-0.6c0-4.2-0.1-8.7-0.3-13.6C0.1,97.7,0,93.4,0,89.1
			c0-0.2,0.1-0.5,0.2-0.6c0.2-0.2,0.4-0.3,0.6-0.3c4.8,0,8.8-0.1,12.6-0.1C21.4,88,28.2,88,38.6,88c0.5,0,0.9,0.4,0.9,0.9
			c0,4.4,0.2,8.9,0.3,13.2c0.1,4.3,0.3,8.8,0.3,13.3c0,0.2-0.1,0.5-0.3,0.6c-0.2,0.2-0.4,0.3-0.6,0.3C24.1,116,15,116.1,1.4,116.3
			C1.4,116.3,1.4,116.3,1.4,116.3z M1.7,89.9c0,4,0.2,8,0.3,11.9c0.1,4.5,0.2,8.8,0.3,12.7c12.9-0.2,21.9-0.3,36.2-0.1
			c-0.1-4.1-0.2-8.3-0.3-12.4c-0.1-4.1-0.3-8.3-0.3-12.4c-9.9,0-16.6,0.1-24.3,0.1C9.9,89.9,6.1,89.9,1.7,89.9z"/>
	</g>
	<g>
		<path class="st0" d="M80.1,56.9c0.1,19.5,0,38.9,0,58.4c-12.1,0-26.9,0.1-40.9,0.1c-0.6-19.2-0.8-38.3-1.3-58
			C51.8,57.2,65.5,56.8,80.1,56.9z"/>
		<path d="M39.3,116.3c-0.5,0-0.8-0.4-0.9-0.8c-0.4-12-0.6-24.1-0.8-35.9c-0.1-7.2-0.3-14.7-0.5-22.1c0-0.2,0.1-0.5,0.2-0.6
			s0.4-0.3,0.6-0.3c3.4-0.1,6.7-0.1,10.1-0.2c10.3-0.2,21-0.4,32.1-0.3c0.5,0,0.9,0.4,0.9,0.9c0,9.8,0,19.6,0,29.2
			c0,9.6,0,19.5,0,29.3c0,0.2-0.1,0.5-0.3,0.6c-0.2,0.2-0.4,0.3-0.6,0.3c-5.8,0-12.3,0-19,0C53.9,116.2,46.5,116.3,39.3,116.3z
			 M38.9,58.2c0.2,7.1,0.3,14.3,0.4,21.2c0.2,11.5,0.5,23.4,0.8,35.1c7,0,14.1,0,21,0c6.4,0,12.5,0,18.2,0c0-9.5,0-19.1,0-28.4
			c0-9.3,0-18.8,0-28.3c-10.7,0-21.1,0.2-31.2,0.3C45,58.1,41.9,58.2,38.9,58.2z"/>
	</g>
	<g>
		<path d="M60.6,101.7c-0.5,0-0.9-0.4-0.9-0.8c-0.2-6.2-0.3-12.5-0.3-18.7c-1.4,2.7-3.4,5.2-5.9,7.1c-0.4,0.3-0.9,0.2-1.2-0.1
			c-0.3-0.4-0.2-0.9,0.1-1.2c3.4-2.7,5.9-6.5,6.9-10.7c0.1-0.4,0.5-0.7,0.9-0.6c0.4,0.1,0.8,0.4,0.8,0.9c0,7.7,0.1,15.6,0.3,23.3
			C61.5,101.2,61.1,101.6,60.6,101.7C60.6,101.7,60.6,101.7,60.6,101.7z"/>
	</g>
	<g>
		<path d="M93.2,112.8c0,0-0.1,0-0.1,0c-3.5-1.6-6.9-3.5-10-5.6c-0.1-0.1-0.2-0.3-0.1-0.4c0.1-0.1,0.3-0.2,0.4-0.1
			c3.1,2.1,6.5,4,9.9,5.6c0.1,0.1,0.2,0.2,0.1,0.4C93.4,112.7,93.3,112.8,93.2,112.8z"/>
	</g>
	<g>
		<path d="M108.2,113.6c0,0-0.1,0-0.1,0c-8.9-3.6-17.5-8.1-25.6-13.2c-0.1-0.1-0.2-0.3-0.1-0.4c0.1-0.1,0.3-0.2,0.4-0.1
			c8.1,5.1,16.7,9.5,25.5,13.1c0.1,0.1,0.2,0.2,0.2,0.4C108.4,113.5,108.3,113.6,108.2,113.6z"/>
	</g>
	<g>
		<path d="M115.2,111.2c0,0-0.1,0-0.1,0c-10.6-5.1-21.3-10.6-31.6-16.3c-0.1-0.1-0.2-0.3-0.1-0.4c0.1-0.1,0.3-0.2,0.4-0.1
			c10.3,5.7,20.9,11.2,31.6,16.3c0.1,0.1,0.2,0.2,0.1,0.4C115.4,111.1,115.3,111.2,115.2,111.2z"/>
	</g>
	<g>
		<path d="M113.8,104.5c0,0-0.1,0-0.1,0l-30-15.5c-0.1-0.1-0.2-0.2-0.1-0.4c0.1-0.1,0.2-0.2,0.4-0.1l30,15.5
			c0.1,0.1,0.2,0.2,0.1,0.4C114,104.4,113.9,104.5,113.8,104.5z"/>
	</g>
	<g>
		<path d="M114.6,99c0,0-0.1,0-0.1,0c-10.4-5.2-20.6-10.9-30.6-16.8c-0.1-0.1-0.2-0.3-0.1-0.4c0.1-0.1,0.3-0.2,0.4-0.1
			c9.9,5.9,20.2,11.6,30.6,16.8c0.1,0.1,0.2,0.2,0.1,0.4C114.8,99,114.7,99,114.6,99z"/>
	</g>
	<g>
		<path d="M115.3,93c0,0-0.1,0-0.1,0c-8.2-4.2-16.4-8.7-24.4-13.2c-0.1-0.1-0.2-0.3-0.1-0.4c0.1-0.1,0.3-0.2,0.4-0.1
			c8,4.5,16.2,8.9,24.4,13.2c0.1,0.1,0.2,0.2,0.1,0.4C115.5,92.9,115.4,93,115.3,93z"/>
	</g>
	<g>
		<path d="M114,85.5c0,0-0.1,0-0.1,0c-3.9-1.6-7.8-3.5-11.5-5.6c-0.1-0.1-0.2-0.3-0.1-0.4c0.1-0.1,0.3-0.2,0.4-0.1
			c3.7,2.1,7.5,3.9,11.4,5.6c0.1,0.1,0.2,0.2,0.2,0.4C114.2,85.4,114.1,85.5,114,85.5z"/>
	</g>
	<g class="st2">
		<path d="M63.1,3.9c-0.7-1.8-3.6-1.3-3.5,0.7c0,5.1-0.3,10.1-0.3,15.2c-0.1,1.4-0.1,2.8-0.1,4.2c0.1,1.3-0.3,3.1,0.9,4
			c0.8,0.7,2.2,0.5,2.8-0.4c0.5-0.6,0.5-1.4,0.5-2.2c0-1.4,0.1-2.7,0.1-4.1c0.1-3,0-6.1,0.1-9.1C63.5,9.4,63.6,6.6,63.1,3.9z"/>
	</g>
	<g class="st2">
		<path d="M80.9,109.3c-0.3-2.3-0.7-11.9-0.7-16.6c-0.1-5.5,0.3-11,0.2-16.6c0-2.9,0.1-5.9,0.1-8.8c0-2.7-0.1-5.5,0.1-8.2
			c0.7-2.8-3.3-4.1-4.2-1.3c-0.5,3.2-0.6,6.5-0.6,9.8c-0.1,4.3-0.2,8.6-0.2,12.9c-0.3,6.6-0.4,13.2-0.1,19.9
			c0.1,3.8,0.2,7.7,0.8,11.4c0-0.2-0.1-0.4-0.1-0.6c0.2,0.9,0,1.9,0.4,2.8c0.6,1.8,3.4,2,4.3,0.3C81.8,112.8,81,110.9,80.9,109.3z"
			/>
	</g>
	<g class="st2">
		<path d="M118.7,112.8c-0.1-0.5-0.1-1-0.2-1.6c0-0.4-0.1-1.5-0.2-2c0,0.3,0.1,0.6,0,0.1c-0.3-3.7-0.2-7.4-0.1-11.1
			c-0.1-4.1-0.3-8.2-0.1-12.2c0-2.3,0-4.6,0.1-6.8c0-0.4,0-0.9,0-1.3c0.1-0.4,0-0.8-0.2-1.2c-0.7-1.4-3-1.1-3.4,0.4
			c-0.3,3-0.3,6.1-0.4,9.1c-0.3,4.2-0.4,8.4-0.2,12.6c-0.1,3.8-0.1,7.6,0,11.4c0.3,2.6,0.4,3.2,0.5,4.1c0.4,1.8,3,2.1,3.9,0.5
			C118.9,114.1,118.9,113.4,118.7,112.8z"/>
	</g>
	<g class="st2">
		<path d="M38.3,112.1c-0.2-5.7,0.2-11.4-0.1-17.1c-0.1-1.6-0.1-3.2-0.1-4.7c0-0.5,0.1-1-0.2-1.4c-0.8-2.1-4-1.4-3.9,0.8
			c-0.1,3.1-0.1,6.2,0.1,9.4c0,3.1-0.1,6.2-0.2,9.3c-0.1,1.4,0.1,2.9,0.1,4.3c0,0.7,0.1,1.5,0.7,2.1c1,1,2.7,0.8,3.4-0.4
			C38.5,113.6,38.3,112.8,38.3,112.1z"/>
	</g>
</g>
</svg>
