<?xml version="1.0" encoding="utf-8"?>
<!-- Generator: Adobe Illustrator 26.2.1, SVG Export Plug-In . SVG Version: 6.00 Build 0)  -->
<svg version="1.1" id="Layer_1" xmlns="http://www.w3.org/2000/svg" xmlns:xlink="http://www.w3.org/1999/xlink" x="0px" y="0px"
	 viewBox="0 0 189.8 114.8" style="enable-background:new 0 0 189.8 114.8;" xml:space="preserve">
<style type="text/css">
	.st0{fill:#FFFFFF;}
	.st1{fill:#010101;}
	.st2{fill:#BA8760;}
	.st3{opacity:0.1294;}
</style>
<g>
	<g>
		<path class="st0" d="M1.9,112.9v-9.1c0,0,1.8-0.5,2.8-1c15.1-7.7,31.9-11.6,48.8-13.2c16.9-1.6,33.8-0.9,50.8,0
			c6,0.3,12,0.7,17.9,0.9c9.9,2.6,20.2,3.1,30.3,4.7c6.8,1.1,13.5,2.6,20.2,4.2c2.7,0.6,5.7,2.7,8.1,4.5c0.3,2.4,0,5.6-0.1,8
			L1.9,112.9z"/>
		<path class="st1" d="M1.9,113.7c-0.2,0-0.4-0.1-0.6-0.2c-0.2-0.2-0.3-0.4-0.3-0.6v-9.1c0-0.4,0.3-0.7,0.6-0.8c0,0,1.8-0.5,2.6-0.9
			c13.8-7,30.3-11.5,49.1-13.2c17.4-1.6,34.7-0.9,50.9,0l4,0.2c4.6,0.3,9.3,0.5,13.9,0.7c0.1,0,0.1,0,0.2,0
			c6.4,1.7,13.2,2.5,19.8,3.3c3.4,0.4,7,0.8,10.5,1.4c6.8,1.1,13.6,2.7,20.2,4.2c2.7,0.6,5.6,2.6,8.4,4.6c0.2,0.1,0.3,0.3,0.3,0.6
			c0.3,2,0.1,4.5,0,6.7c0,0.5-0.1,1-0.1,1.4c0,0.5-0.4,0.8-0.8,0.8L1.9,113.7C1.9,113.7,1.9,113.7,1.9,113.7z M2.7,104.4v7.6l177-1
			c0-0.2,0-0.4,0-0.6c0.1-2,0.3-4.2,0.1-6c-2.5-1.8-5.1-3.5-7.4-4.1c-6.6-1.5-13.3-3.1-20.1-4.2c-3.4-0.5-7-1-10.4-1.4
			c-6.6-0.8-13.4-1.6-19.9-3.3c-4.6-0.2-9.3-0.5-13.8-0.7l-4-0.2c-16.1-0.9-33.4-1.6-50.6,0c-18.6,1.7-34.9,6.1-48.4,13.1
			C4.4,103.9,3.4,104.2,2.7,104.4z"/>
	</g>
	<g>
		<path class="st0" d="M149.2,80.1c10.4,8.4,22.7,16.7,31.4,23.8c-1.4,0.1-72.9,0-100,0c-24.5,0-54.2-0.5-78.8-0.2
			c10.7-8.5,21.9-16.4,34-24.3c3.8-2.5,8.4-3.5,12.9-4.3c13.5-2.3,27.2-2.4,40.9-2.6C109.4,72.5,131.8,74.4,149.2,80.1z"/>
		<path class="st1" d="M160.5,104.8c-11.4,0-27,0-45.1,0c-13.6,0-26.3,0-34.7,0c-8.9,0-18.4-0.1-28.3-0.1c-17.1-0.1-34.8-0.2-50.4,0
			c0,0,0,0,0,0c-0.4,0-0.7-0.2-0.8-0.6c-0.1-0.3,0-0.7,0.3-1c10.3-8.2,21.4-16.1,34-24.3c4-2.6,8.7-3.6,13.2-4.4
			c13.6-2.3,27.6-2.5,41.1-2.6c23.3-0.2,44.5,2.5,59.9,7.5c0.1,0,0.2,0.1,0.3,0.1c5.4,4.3,11.3,8.7,17,12.8
			c5.3,3.9,10.2,7.5,14.5,10.9c0.3,0.2,0.4,0.6,0.3,0.9c-0.1,0.3-0.4,0.6-0.8,0.6C180.2,104.8,172.8,104.8,160.5,104.8z M21.7,102.8
			c10,0,20.4,0.1,30.6,0.1c10,0.1,19.4,0.1,28.3,0.1c8.4,0,21.2,0,34.7,0c24.6,0,54.3,0,62.8,0c-3.8-2.9-8-6.1-12.5-9.4
			c-5.7-4.2-11.5-8.5-16.9-12.8c-15.1-5-36.2-7.6-59.2-7.4c-13.4,0.1-27.3,0.2-40.8,2.6c-4.3,0.7-8.8,1.8-12.5,4.2
			c-11.7,7.6-22.2,15.1-31.9,22.7C10,102.8,15.8,102.8,21.7,102.8z"/>
	</g>
	<g>
		<path class="st0" d="M149.1,80.6c0,0-114.1,0.3-114.4-0.3c-1.7-22-2.2-44.2-1.6-66.3c0.1-3.8,1-8.6,5.3-10
			c21.5-3.3,45.9-1.7,68.8-2c11.3-0.2,22.5-0.2,33.7,1.2c2.2,0.3,4.6,0.8,6.6,1.8c1.8,1,3,2.8,3.3,4.9c0.4,3.2,0.4,6.5,0.5,9.7
			C151.6,40.2,152,60.8,149.1,80.6z"/>
		<path class="st1" d="M88.7,81.6c-15,0-27.1,0-36-0.1c-18.4-0.1-18.4-0.1-18.8-0.7c-0.1-0.1-0.1-0.2-0.1-0.4
			c-1.7-22-2.2-44.3-1.6-66.4c0.1-2.2,0.3-9,5.9-10.8c0,0,0.1,0,0.1,0C53.8,0.9,71,1,87.6,1.2c6.5,0.1,13.2,0.1,19.7,0
			c12-0.2,22.9-0.2,33.8,1.2c1.9,0.2,4.6,0.7,6.9,1.9c2,1.1,3.4,3.2,3.7,5.6c0.4,3.3,0.4,6.6,0.5,9.8c0.3,20.2,0.7,41.1-2.1,61.1
			c-0.1,0.4-0.4,0.7-0.8,0.7c-0.3,0-28.8,0.1-57.1,0.1C90.9,81.6,89.8,81.6,88.7,81.6z M149.1,80.6L149.1,80.6L149.1,80.6z
			 M35.5,79.6c7.3,0.4,75.7,0.3,112.9,0.2c2.7-19.6,2.3-40.2,2-60.1c-0.1-3.2-0.1-6.4-0.5-9.6c-0.2-1.8-1.3-3.4-2.8-4.3
			c-2-1.1-4.5-1.5-6.3-1.7c-10.8-1.4-21.6-1.4-33.6-1.2c-6.5,0.1-13.2,0-19.7,0C71,2.7,54,2.6,38.6,4.9c-3,1-4.5,4-4.6,9.2
			C33.4,35.9,33.9,57.9,35.5,79.6z"/>
	</g>
	<g>
		<rect x="40.7" y="10.3" class="st0" width="103.6" height="63.9"/>
		<path class="st1" d="M144.3,75H40.7c-0.5,0-0.9-0.4-0.9-0.9V10.3c0-0.5,0.4-0.9,0.9-0.9h103.6c0.5,0,0.9,0.4,0.9,0.9v63.9
			C145.2,74.6,144.8,75,144.3,75z M41.5,73.3h101.9V11.1H41.5V73.3z"/>
	</g>
	<g>
		<rect x="60.6" y="45.4" class="st0" width="13.6" height="15.3"/>
		<path class="st1" d="M74.2,61.5H60.6c-0.5,0-0.9-0.4-0.9-0.9V45.4c0-0.5,0.4-0.9,0.9-0.9h13.6c0.5,0,0.9,0.4,0.9,0.9v15.3
			C75.1,61.1,74.7,61.5,74.2,61.5z M61.5,59.8h11.9V46.3H61.5V59.8z"/>
	</g>
	<g>
		<rect x="85.7" y="34.1" class="st2" width="13.6" height="26.3"/>
		<path class="st1" d="M99.3,61.2H85.7c-0.5,0-0.9-0.4-0.9-0.9V34.1c0-0.5,0.4-0.9,0.9-0.9h13.6c0.5,0,0.9,0.4,0.9,0.9v26.3
			C100.1,60.8,99.8,61.2,99.3,61.2z M86.6,59.5h11.9V34.9H86.6V59.5z"/>
	</g>
	<g>
		<rect x="110.5" y="24.8" class="st0" width="13.4" height="34.8"/>
		<path class="st1" d="M123.9,60.5h-13.4c-0.5,0-0.9-0.4-0.9-0.9V24.8c0-0.5,0.4-0.9,0.9-0.9h13.4c0.5,0,0.9,0.4,0.9,0.9v34.8
			C124.8,60.1,124.4,60.5,123.9,60.5z M111.4,58.8H123V25.7h-11.7V58.8z"/>
	</g>
	<g>
		<path class="st2" d="M167.6,30.3c-3.1,0.4-6.2,0.6-9.9,0.8c5-8.3,10.3-16.5,15.8-24.8c4.7,8.2,9.6,16.4,14.7,24.4
			c-1.7-0.6-3.6-0.8-5.4-0.9c-1.4-0.1-2.9-0.2-4.3-0.6c0.1,11.3,0.2,22.7,0.4,34c-3.3-0.1-6.6,0-10.4,0.2
			C168.3,52.4,168.3,41.4,167.6,30.3z"/>
		<path class="st1" d="M168.3,64.2c-0.2,0-0.4-0.1-0.6-0.2c-0.2-0.2-0.3-0.4-0.3-0.6c0-10.5,0-21.3-0.7-32.1c-2.6,0.3-5.4,0.5-9,0.7
			c-0.3,0-0.6-0.1-0.8-0.4c-0.2-0.3-0.2-0.6,0-0.9c4.7-7.8,9.9-15.9,15.8-24.9c0.2-0.2,0.4-0.4,0.7-0.4c0.3,0,0.6,0.2,0.7,0.4
			c4.4,7.8,9.2,15.8,14.6,24.4c0.2,0.3,0.2,0.7-0.1,1c-0.2,0.3-0.6,0.4-0.9,0.3c-1.6-0.6-3.5-0.7-5.2-0.9c-1.1-0.1-2.2-0.2-3.4-0.4
			c0.1,10.9,0.2,22,0.4,32.9c0,0.2-0.1,0.5-0.3,0.6c-0.2,0.2-0.4,0.3-0.6,0.2C175.5,64,172.2,64,168.3,64.2
			C168.3,64.2,168.3,64.2,168.3,64.2z M167.6,29.4c0.2,0,0.4,0.1,0.5,0.2c0.2,0.1,0.3,0.4,0.3,0.6c0.7,10.8,0.7,21.7,0.8,32.2
			c3.1-0.1,6-0.2,8.7-0.1c-0.2-11-0.3-22.2-0.4-33.1c0-0.3,0.1-0.5,0.3-0.7c0.2-0.2,0.5-0.2,0.7-0.1c1.4,0.4,2.7,0.5,4.2,0.6
			c1.2,0.1,2.3,0.2,3.5,0.4c-4.7-7.5-8.9-14.6-12.9-21.5c-5.2,7.9-9.9,15.2-14.2,22.3c3.2-0.2,5.8-0.4,8.2-0.7
			C167.5,29.4,167.5,29.4,167.6,29.4z"/>
	</g>
	<g>
		<path class="st1" d="M113,32.2c-0.1,0-0.1,0-0.2-0.1c-0.1-0.1-0.2-0.3-0.1-0.4l3.6-5c0.1-0.1,0.3-0.2,0.4-0.1
			c0.1,0.1,0.2,0.3,0.1,0.4l-3.6,5C113.2,32.2,113.1,32.2,113,32.2z"/>
	</g>
	<g>
		<path class="st1" d="M112.6,38.8c-0.1,0-0.1,0-0.2-0.1c-0.1-0.1-0.2-0.3-0.1-0.4l8.3-11.5c0.1-0.1,0.3-0.2,0.4-0.1
			c0.1,0.1,0.2,0.3,0.1,0.4l-8.3,11.5C112.8,38.7,112.7,38.8,112.6,38.8z"/>
	</g>
	<g>
		<path class="st1" d="M113.2,44.7c-0.1,0-0.1,0-0.2,0c-0.1-0.1-0.2-0.3-0.1-0.4c2.6-3.9,5.3-7.7,8.3-11.3c0.1-0.1,0.3-0.1,0.4,0
			c0.1,0.1,0.1,0.3,0,0.4c-2.9,3.6-5.7,7.4-8.2,11.3C113.4,44.6,113.3,44.7,113.2,44.7z"/>
	</g>
	<g>
		<path class="st1" d="M113.1,51.1c-0.1,0-0.1,0-0.2-0.1c-0.1-0.1-0.2-0.3-0.1-0.4l8.6-11.7c0.1-0.1,0.3-0.2,0.4-0.1
			c0.1,0.1,0.2,0.3,0.1,0.4L113.3,51C113.3,51.1,113.2,51.1,113.1,51.1z"/>
	</g>
	<g>
		<path class="st1" d="M113.8,56.1c-0.1,0-0.1,0-0.2-0.1c-0.1-0.1-0.2-0.3-0.1-0.4c2.5-3.5,5.1-6.9,7.8-10.2c0.1-0.1,0.3-0.1,0.4,0
			c0.1,0.1,0.1,0.3,0,0.4c-2.7,3.3-5.3,6.7-7.8,10.1C113.9,56.1,113.9,56.1,113.8,56.1z"/>
	</g>
	<g>
		<path class="st1" d="M117.9,56.9c-0.1,0-0.1,0-0.2-0.1c-0.1-0.1-0.1-0.3,0-0.4l3.6-4.3c0.1-0.1,0.3-0.1,0.4,0
			c0.1,0.1,0.1,0.3,0,0.4l-3.6,4.3C118.1,56.8,118,56.9,117.9,56.9z"/>
	</g>
	<g class="st3">
		<path class="st1" d="M143.9,11.5c-0.1-0.4-0.5-0.8-0.9-0.9c-0.3-0.1-0.7,0-1,0.1c-0.4,0-1.1,0.2-1.4,0.2c0,0,0,0,0,0
			c-2.1,0-4.3-0.2-6.4-0.3c-1.8-0.1-3.6-0.1-5.3-0.3c-1.5-0.1-2.9-0.4-4.4-0.4c-11.3-0.3-22.5,0.4-33.7,1
			c-6.5,0.3-12.9-0.2-19.4-0.3c-4.8-0.2-9.6-0.4-14.4-0.6c-4.3-0.2-8.6-0.5-12.9-0.4c-1,0.1-2.3-0.2-3.1,0.7
			c-0.9,0.9-0.7,2.4,0.2,3.2c-0.9,4.7-0.3,9.6-0.4,14.4c0,3.2,0.1,6.4,0.2,9.5c0,3,0.1,6,0.5,8.9c0.3,2,0,4-0.1,6
			c0.1,5.6-0.5,11.2-0.3,16.8c0,1.1,0.1,2.2,0.1,3.3c-0.1,1,0.4,2.2,1.6,2.2c2-0.2,1.5-2,1.5-3.4c0-1.5,0-3,0.1-4.5
			c0.1-2.6,0.4-5.2,0.5-7.8c0.1-3.5,0.1-6.9,0.1-10.4c-0.1-2-0.4-4-0.5-6c-0.1-3.9,0-7.8-0.1-11.7c0-5,0-10.1,0.2-15.1
			c0.1-1.4,0.1-1.3,0.2-1.9c4.1,0,8.2,0.3,12.2,0.4c10.3,0.2,20.6,0.9,30.9,0.8c5.5-0.2,11-0.7,16.5-0.9c6.3-0.2,12.7-0.5,19-0.6
			c2.1-0.1,4.2,0.3,6.4,0.4c2.7,0,5.3-0.2,8-0.3c1.7,0,2.8-0.3,3.3-0.4c0.8-0.2,1.8,0.1,2.6-0.4C143.9,12.6,144,12,143.9,11.5z"/>
	</g>
	<g class="st3">
		<path class="st1" d="M174.1,98.8c-0.8-0.4-1.7-0.7-2.5-1.1c-0.1,0-0.1,0-0.2-0.1c0-0.1-0.1-0.2-0.1-0.2c-0.3-0.5-0.9-0.7-1.4-1.1
			c-0.7-0.4-1.3-0.9-2-1.4c-3.6-2.5-7.4-5.2-9.9-7.3c-2.5-2.3-4.9-4.9-8-6.4c-1-0.5-2.2-1-3.3-1.2c-1.9-0.1-3.8,0.2-5.8,0.3
			c-4.6,0.3-9.2,0.1-13.8,0.2c-7.2,0.1-14.5,0.7-21.7,0.7c-5.5,0-10.9,0.1-16.4,0.1c-3.6-0.1-7.2-0.2-10.8-0.1c-4,0-8-0.8-12.1-0.7
			c-0.8,0.1-1.7-0.1-2.4,0.2c-0.6,0.2-1,0.7-1.1,1.3c-4.7-0.4-9.4-0.3-14.1-0.8c-2.4-0.2-7.6-0.8-8.2-0.9c-1.4-0.2-2.9-0.4-4.3-0.5
			c-0.5,0-1.1-0.2-1.6,0.1c-1.5,0.6-1.1,3,0.6,3c4.4,0.2,10,1.5,15.5,1.9c3.6,0.3,7.2,0.3,10.8,0.5c3.2,0.2,6.3,0.5,9.5,0.8
			c7.1,0.8,15.3,2.3,24.6,3.2c7.7,0.8,15.4,0.8,23,1.7c5.7,0.6,13.9,2.4,21.1,3.5c7.6,1.1,13.8,1.7,20.7,2.9c0,0,0,0,0,0
			c0.2,0.1,0.3,0.1,0.5,0.1c1.1,0.2,2.3,0.4,3.5,0.6c1.5,0.3,3.1,0.7,4.6,1.1c0.1,0,0.2,0,0.3,0.1c0.1,0,0.3,0.1,0.4,0.1
			c0.2,0.2,0.4,0.4,0.7,0.4c0.8,0.3,1.7,0.6,2.5,1c0.3,0.1,0.7,0.3,1,0.2C174.8,101.1,175.2,99.3,174.1,98.8z M147,89.6
			c0.4,0,0.9,0.1,1.3,0.1c0,0,0.1,0,0.1,0c0.2,0.1,0.5,0.3,0.7,0.4C148.5,89.9,147.7,89.8,147,89.6z"/>
	</g>
</g>
</svg>
