<?xml version="1.0" encoding="utf-8"?>
<!-- Generator: Adobe Illustrator 26.3.1, SVG Export Plug-In . SVG Version: 6.00 Build 0)  -->
<svg version="1.1" id="Layer_1" xmlns="http://www.w3.org/2000/svg" xmlns:xlink="http://www.w3.org/1999/xlink" x="0px" y="0px"
	 viewBox="0 0 145.3 141.2" style="enable-background:new 0 0 145.3 141.2;" xml:space="preserve">
<style type="text/css">
	.st0{fill:#FFFFFF;}
	.st1{fill:#BB8760;}
	.st2{fill:#010101;}
	.st3{fill:#050E13;}
	.st4{opacity:0.1294;}
</style>
<g>
	<g>
		<path class="st0" d="M31.5,97.9c9,8.8,17.3,18.2,24.9,28.2c4,5.3,8.3,11.1,14.6,13.1c1.4,0.4,2.9,0.7,4.3,0.4
			c2.1-0.5,3.7-2.3,4.5-4.3s0.8-4.2,0.5-6.4c-0.2-1.6-0.6-3.3-1.5-4.7c-0.8-1.3-2-2.3-3.2-3.3c-8.2-6.9-17.2-13-23.9-21.6
			c1.2-0.9,2.4-1.9,3.4-3.1s1.6-2.7,1.6-4.2c0-2.3-1.7-4.3-3.1-6.2c16-6.8,32.9-11.7,50-14.8c-4.2-7.1-7.7-14.6-11.2-22.1
			c-4.8-10.2-9.5-20.4-14.6-30c-10.3,11.9-23,20.9-35.6,29.9c-8.7,6.1-17.3,12.3-26.7,17.4C10.6,68.9,5,71.7,3,77
			c-1.3,3.3-0.8,7.2,0.6,10.5c1.3,3.3,3.5,6.2,5.7,9.1c1.8,2.3,3.9,4.8,7,5.4C21.6,101.8,27,100.3,31.5,97.9z"/>
	</g>
	<g>
		<path class="st0" d="M98.1,26.5c3.2,8.5,7.1,16.8,11.8,24.6c2.6-0.6,4.5-2.9,5.3-5.3c0.9-2.5,0.8-5.2,0.7-7.8
			c0-1.1-0.1-2.2-0.5-3.2c-0.3-0.9-0.9-1.7-1.5-2.5c-1.4-1.9-3-3.8-5-5C105.8,25.3,101.5,25.1,98.1,26.5z"/>
	</g>
	<g>
		<path class="st1" d="M103.1,72.2c-8.4-18-16.9-36.1-25.3-54.4c3.8-4,6.8-9,8.5-14.3c0,0,33.9,69.4,33.9,69.1
			C114.7,71,108.8,70.7,103.1,72.2z"/>
	</g>
	<g>
		<path class="st2" d="M43.9,91.1c-0.3,0-0.6-0.2-0.8-0.5c-5.6-10.5-10.7-21.5-15-32.6c-0.1-0.4,0-0.8,0.3-1c3.5-2.5,7.1-5,10.6-7.4
			C59.2,35.5,80,21,85.3,2.3c0.1-0.3,0.4-0.6,0.8-0.6s0.7,0.2,0.9,0.5l34.4,70.2c0.2,0.4,0,1-0.4,1.2c-0.2,0.1-0.4,0.1-0.5,0.1
			c-0.2,0.2-0.5,0.2-0.8,0.1c-21.2-6.9-74.9,17-75.5,17.2C44.1,91.1,44,91.1,43.9,91.1z M30,58c4.1,10.6,8.9,21.1,14.2,31.1
			c6.8-3,53.7-23.1,74.9-17.4L86.3,4.8C80,23.1,59.7,37.3,40,50.9C36.7,53.2,33.3,55.6,30,58z"/>
	</g>
	<g>
		<path class="st2" d="M102.7,71.6c-0.3,0-0.6-0.2-0.8-0.5L77.6,19.7c-0.2-0.4,0-1,0.4-1.2s1,0,1.2,0.4l24.4,51.4
			c0.2,0.4,0,1-0.4,1.2C103,71.6,102.8,71.6,102.7,71.6z"/>
	</g>
	<g>
		<path class="st2" d="M110.7,52.2c-0.3,0-0.5-0.1-0.7-0.4c-0.3-0.4-0.2-0.9,0.2-1.2c2.8-2,4.7-5.3,5.2-8.8s-0.5-7.2-2.6-10
			c-1-1.3-2.3-2.5-3.9-3.4c-2.6-1.6-6.5-2.7-9.6-0.8c-0.4,0.2-0.9,0.1-1.2-0.3c-0.2-0.4-0.1-0.9,0.3-1.2c3.8-2.2,8.4-1.1,11.4,0.8
			c1.7,1.1,3.2,2.4,4.3,3.9c2.4,3.1,3.5,7.3,2.9,11.3c-0.5,3.9-2.7,7.7-5.9,10C111.1,52.1,110.9,52.2,110.7,52.2z"/>
	</g>
	<g>
		<path class="st2" d="M18.4,103c-1.2,0-2.4-0.2-3.6-0.7c-3.5-1.4-5.8-4.6-8-8.1c-1.8-2.8-3.8-6-4.7-9.7c-1.1-4-0.6-8,1.3-10.9
			c1.6-2.3,4-3.8,5.9-5C15.5,64.8,21.7,61,29,57.1c0.4-0.2,1-0.1,1.2,0.4c0.2,0.4,0.1,1-0.4,1.2c-7.3,3.9-13.5,7.7-19.7,11.5
			c-1.8,1.1-4,2.5-5.4,4.5c-1.7,2.4-2,5.9-1.1,9.5c0.9,3.4,2.8,6.5,4.5,9.2c2,3.2,4.1,6.2,7.1,7.4c4.1,1.6,8.7-0.5,13-2.9
			c2.7-1.5,5.2-2.9,7.6-4.2c2.4-1.3,4.9-2.7,7.6-4.2c0.4-0.2,1-0.1,1.2,0.4c0.2,0.4,0.1,1-0.4,1.2c-2.7,1.5-5.2,2.9-7.6,4.2
			c-2.4,1.3-4.9,2.7-7.6,4.2C25.9,101.2,22.1,103,18.4,103z"/>
	</g>
	<g>
		<path class="st2" d="M73.2,141.2c-4.3,0-8.3-3.2-9.9-4.8c-3.4-3.2-6.1-7.1-8.7-10.8c-0.6-0.8-1.2-1.7-1.8-2.5
			C46.4,114.2,39,106,30.9,98.7c-0.4-0.3-0.4-0.9-0.1-1.2C31,97,31.6,97,32,97.3c8.2,7.4,15.7,15.7,22.2,24.7
			c0.6,0.8,1.2,1.7,1.8,2.6c2.6,3.7,5.3,7.5,8.5,10.5c1.8,1.8,6.6,5.7,11.1,3.9c4.1-1.6,5.5-7.3,4.1-11.4c-1.3-3.6-3.9-5.5-7.6-8
			c-0.7-0.5-1.4-1-2.2-1.5l-0.2-0.2c-5.6-4-11.5-9.3-17.5-15.9c-1.6-1.7-3.1-4.4-4.8-7.3c-0.9-1.6-1.8-3.2-2.8-4.7
			c-0.3-0.4-0.1-0.9,0.3-1.2c0.4-0.3,0.9-0.1,1.2,0.3c0.9,1.5,1.9,3.1,2.8,4.7c1.6,2.8,3.1,5.5,4.5,7c5.9,6.5,11.7,11.8,17.2,15.7
			l0.2,0.2c0.7,0.5,1.5,1,2.1,1.5c3.8,2.6,6.8,4.7,8.3,8.9c1.7,4.8,0,11.6-5.1,13.6C75.2,141.1,74.2,141.2,73.2,141.2z"/>
	</g>
	<g>
		<path class="st2" d="M52.3,100.3c-0.2,0-0.4-0.1-0.6-0.2c-0.4-0.3-0.4-0.9-0.1-1.2l2.9-3.2c0.4-0.4,0.7-0.8,1-1.3
			c0.5-1,0.5-2.4-0.1-3.7c-0.6-1.3-1.6-2.4-2.5-3.5c-0.3-0.4-0.3-0.9,0.1-1.2c0.4-0.3,0.9-0.3,1.2,0.1c1,1.1,2.1,2.4,2.8,3.9
			c0.8,1.8,0.8,3.8,0,5.2c-0.3,0.6-0.8,1.2-1.2,1.6l-2.9,3.2C52.7,100.2,52.5,100.3,52.3,100.3z"/>
	</g>
	<g>
		<path class="st2" d="M10.5,79.6c-0.3,0-0.6-0.2-0.7-0.4c-0.3-0.5-0.2-1,0.2-1.2c5.4-3.3,11.1-6.3,16.8-9c0.4-0.2,1,0,1.2,0.4
			s0,1-0.4,1.2c-5.7,2.7-11.2,5.6-16.6,8.9C10.8,79.5,10.6,79.6,10.5,79.6z"/>
	</g>
	<g>
		<path class="st2" d="M14.2,86.5c-0.3,0-0.6-0.2-0.8-0.5c-0.2-0.4,0-1,0.4-1.2c5.6-2.9,11.3-5.6,17-8.3c0.4-0.2,1,0,1.2,0.4
			s0,1-0.4,1.2c-5.7,2.6-11.4,5.4-17,8.2C14.5,86.4,14.4,86.5,14.2,86.5z"/>
	</g>
	<g>
		<path class="st2" d="M18,94c-0.3,0-0.6-0.2-0.8-0.4c-0.2-0.4-0.1-0.9,0.3-1.2c5.5-3.2,11.2-6,17-8.6c0.4-0.2,1,0,1.1,0.5
			c0.2,0.4,0,1-0.5,1.1c-5.7,2.5-11.4,5.3-16.8,8.5C18.3,93.9,18.1,94,18,94z"/>
	</g>
	<g>
		<path class="st3" d="M114.7,23c-0.2,0-0.4-0.1-0.6-0.2c-0.4-0.3-0.4-0.9,0-1.2c5-5.3,8.2-12.2,9-19.6c0.1-0.5,0.5-0.8,1-0.8
			c0.5,0.1,0.8,0.5,0.8,1c-0.9,7.7-4.3,15-9.5,20.6C115.1,22.9,114.9,23,114.7,23z"/>
	</g>
	<g>
		<path class="st3" d="M120.5,29.9c-0.3,0-0.5-0.1-0.7-0.4c-0.3-0.4-0.2-0.9,0.2-1.2c4-3,8.3-5.6,12.9-7.6c0.4-0.2,1,0,1.2,0.4
			s0,1-0.4,1.2c-4.4,2-8.6,4.5-12.5,7.5C120.9,29.8,120.7,29.9,120.5,29.9z"/>
	</g>
	<g>
		<path class="st3" d="M144.4,40.8c-0.1,0-0.2,0-0.3-0.1c-6.3-2.6-13.2-3.6-20-2.8c-0.5,0.1-0.9-0.3-1-0.8s0.3-0.9,0.8-1
			c7-0.8,14.2,0.2,20.8,3c0.4,0.2,0.7,0.7,0.5,1.1C145.1,40.6,144.8,40.8,144.4,40.8z"/>
	</g>
	<g>
		<path class="st2" d="M93.9,68.6c-0.1,0-0.2,0-0.2-0.1l-6.9-11.4c-0.1-0.1,0-0.3,0.1-0.4c0.1-0.1,0.3,0,0.4,0.1l6.9,11.4
			c0.1,0.1,0,0.3-0.1,0.4C94,68.6,94,68.6,93.9,68.6z"/>
	</g>
	<g>
		<path class="st2" d="M88.6,70.4c-0.1,0-0.2,0-0.2-0.1l-3.5-5.7c-0.1-0.1,0-0.3,0.1-0.4s0.3,0,0.4,0.1l3.5,5.7
			c0.1,0.1,0,0.3-0.1,0.4C88.7,70.4,88.6,70.4,88.6,70.4z"/>
	</g>
	<g>
		<path class="st2" d="M82.7,73c-0.1,0-0.2,0-0.2-0.1l-2.7-4.3c-0.1-0.1,0-0.3,0.1-0.4s0.3,0,0.4,0.1l2.7,4.3c0.1,0.1,0,0.3-0.1,0.4
			C82.8,73,82.7,73,82.7,73z"/>
	</g>
	<g>
		<path class="st2" d="M76.1,74.8c-0.1,0-0.2-0.1-0.2-0.1l-2-3.3c-0.1-0.1,0-0.3,0.1-0.4s0.3,0,0.4,0.1l2,3.3c0.1,0.1,0,0.3-0.1,0.4
			C76.2,74.8,76.1,74.8,76.1,74.8z"/>
	</g>
	<g class="st4">
		<path class="st2" d="M116.5,39.1c-0.3-1-1.7-1.3-2.4-0.5c-0.4,0.4-0.4,1-0.7,1.6c-0.5,1.9-1.9,4-3,5.2c-1.3,1.4-1,0.6-2.1,1.9
			c-1.2,2,1.4,4,3.1,2.4c2.9-2.3,3.6-4.5,4.8-7.2c0.3-0.8,0.5-1.6,0.5-2.4C116.7,39.8,116.7,39.4,116.5,39.1z"/>
	</g>
	<g class="st4">
		<path class="st2" d="M117.7,67.7c-2.8-0.9-5.7-0.5-8.6-0.6c-6.6,0.1-13.3,1-19.7,2.4c-2.8,0.8-5.8,1.2-8.7,1.7
			c-2.5,0.4-4.9,1.3-7.3,2.1c-7.1,2.4-14.5,4.1-21.4,7.1c-7.3,3.1-14.1,7.2-20.9,11.3c-4.4,2.7-7.2,4.5-11.4,5.4
			c-2,0.5-2.9,0.3-5.8,0.2c-1-0.1-2.1,0-2.5,1.1c-0.6,1.1,0.4,2.6,1.6,2.6c2.2,0.2,4.4,0.7,6.6,0.5c5-0.4,9.1-3.4,13.4-5.7
			c0.4-0.2,0.9-0.5,1.3-0.7c-0.6,0.4-1.3,0.8-1.9,1.3c-1.2,0.6-2,2.2-1,3.3c0.4,0.7,1.3,0.9,2,0.8c0.5,0.3,1.2,0.4,1.8,0.1
			c1.1-0.7,2.3-1.3,3.5-1.7c1-0.3,1.2-0.5,2.9-0.7c0.2,0,0.6,0,0.9,0c1.4,0.3,1.1,0.4,1.7,0.6c0.3,0.2,0.7,0.4,1,0.7
			c1.5,1.4,3.2,2.7,4.7,4.1c0.8,0.8,1.6,1.6,2.5,2.3c0.3,0.2,0.8,0.5,1.5,1.1c0.1,0.1,0.2,0.2,0.3,0.3c0.6,0.5,1.3,1,2,1.5
			c0.9,0.7,1.9,1.5,2.7,2.1c0,0,1.4,1.1,2.3,1.7c0.7,0.6,1.7,1.1,2.4,0.4c0.5-0.3,0.7-0.9,0.6-1.4c-0.2-0.1-0.4-0.3-0.6-0.4
			c-0.8-0.7-1.7-1.3-2.5-2c-1.6-1.4-3.2-2.8-4.7-4.3c-2.9-3.1-5.6-6.4-7.7-10.1c-0.2-0.4-0.1-0.7,0.1-0.9c-0.3-0.4-0.5-0.8-0.8-1.1
			c2.4-0.9,2.7-1.2,5.2-1.7l0,0c1,0.3,2.2-0.3,2.5-1.4c0.6-1.8-1.6-3.3-3.1-2.2l0,0c-0.1,0-0.2,0-0.2,0.1c-0.6,0.1-1.2,0.3-1.9,0.5
			c2-0.9,3.8-1.7,4.5-2c5.8-2.1,10.3-3.8,16.8-5.7c4.2-1.3,5.6-2.2,9-3.2c4.7-1.1,9.3-2.5,14.1-3.4c1.5-0.3,3-0.6,4.5-0.8
			c1.3-0.2,1.3-0.1,1.9-0.3c0.4-0.1,0.7-0.4,0.8-0.8v-0.1c2.8-0.4,5.6-0.6,9.2-0.5c2.9,0,4-0.2,6.1,0.6c0.1,0,0.1,0,0.2,0.1l0.1,0.1
			c0.8,0.4,1.8,0,2.2-0.7C120.9,69.1,119.1,68.1,117.7,67.7z M45.6,90.2c-0.1-0.1-0.3-0.1-0.4-0.2c0.2-0.1,0.4-0.2,0.6-0.3
			C45.7,89.9,45.7,90,45.6,90.2z"/>
	</g>
</g>
</svg>
