<?xml version="1.0" encoding="utf-8"?>
<!-- Generator: Adobe Illustrator 26.2.1, SVG Export Plug-In . SVG Version: 6.00 Build 0)  -->
<svg version="1.1" id="Layer_1" xmlns="http://www.w3.org/2000/svg" xmlns:xlink="http://www.w3.org/1999/xlink" x="0px" y="0px"
	 viewBox="0 0 84.4 132.5" style="enable-background:new 0 0 84.4 132.5;" xml:space="preserve">
<style type="text/css">
	.st0{fill:#BA8760;}
</style>
<g>
	<path class="st0" d="M83.1,98.9c0-9-0.2-17.9-0.4-26.9c-0.5-17-0.6-34.3-2.3-51.2C79.3,9.9,73.7,4.3,63,2.7
		C49.2,0.5,34.2,1.1,20.4,2.3C6.6,3.6,3.9,12.5,2.5,25.1C0.4,43.2,2.4,61.6,2,79.8c0,11.6-0.5,23.3,0.7,34.8
		c0.7,7.1,2.7,12.9,9.9,16.1c5.3,2.4,12.8,1.6,18.3,1.6c8.9,0,17.7-0.6,26.6-0.8c10-0.2,22.6-0.4,25-12.6
		C83.8,112.6,83.1,105.3,83.1,98.9z M77.8,110.6c-0.1,5.9,0.3,10.9-5.8,14.1c-3.9,2-8.7,1.6-12.8,1.6c-7.8,0.1-15.5,0.6-23.3,0.7
		c-7.2,0.1-17.9,1.7-23.8-3c-4.2-3.3-4.1-7.3-4.5-12.3c-0.7-10.6-0.5-21.3-0.4-31.9C7.5,66,6.5,52.2,6.7,38.4
		c0.1-7.1-0.2-17.4,2.9-24.1c4.3-9,17.9-7.3,26.2-7.5C42.5,6.7,49.3,6.7,56,7.2c9.4,0.7,17.9,2,19.2,13.6
		c1.6,14.6,1.5,29.8,2.1,44.5C77.8,80.4,78.1,95.5,77.8,110.6z"/>
	<path class="st0" d="M34.9,17.7c4.9-0.2,9.9-0.4,14.8-0.3c2.5,0,2.5-3.9,0-3.9c-4.9,0-9.9,0.1-14.8,0.3
		C32.4,14,32.4,17.8,34.9,17.7z"/>
	<path class="st0" d="M56.2,16.9C56.3,16.9,56.3,16.9,56.2,16.9c1.9-1.9-0.9-4.6-2.7-2.8c0,0-0.1,0.1-0.1,0.1
		C51.7,16,54.5,18.7,56.2,16.9z"/>
	<path class="st0" d="M61.9,17C61.9,17,61.9,17,61.9,17c1.9-1.9-0.9-4.6-2.7-2.8c0,0-0.1,0.1-0.1,0.1C57.4,16,60.1,18.8,61.9,17z"/>
	<path class="st0" d="M43.3,114c-4,0-11.2-0.7-11.6,4.9c-0.4,5.2,7.4,4.9,10.7,4.8c3.3-0.1,10.4,0.1,10.6-4.5
		C53.2,113.4,47.3,114,43.3,114z M48.9,119.2c-0.6,0.9-5.9,0.7-7,0.7c-0.9,0-6.3-0.1-6.3-0.6c0-1.9,6.8-1.3,7.8-1.3
		C44.1,117.9,50.2,117.5,48.9,119.2z"/>
	<path class="st0" d="M72.1,23.5c-0.3-0.6-0.8-1-1.6-1c-19.1,0.2-38.3,1-57.4,0.7c-0.9,0-1.4,0.5-1.7,1.1c0,0,0,0.1-0.1,0.1
		c0,0,0,0.1,0,0.1c-0.1,0.2-0.2,0.4-0.2,0.6c-0.8,13,0.5,26,0.3,39.1c-0.3,14.7-1.1,29.4-0.7,44.1c0,0.4,0.1,0.7,0.3,1
		c0.3,0.6,0.8,1,1.6,1c20.1-0.5,40.2,0,60.3-0.6c0.3,0,0.6-0.1,0.9-0.2c0.6-0.3,1.1-0.8,1.1-1.7c-1.2-27.8-1.2-55.6-2.4-83.4
		C72.4,24,72.2,23.7,72.1,23.5z M68.6,26.4c1.1,26.5,1.2,53,2.3,79.5c-18.8,0.4-37.6,0.1-56.4,0.5c-0.3-14.1,0.5-28.1,0.7-42.2
		c0.2-12.4-0.9-24.8-0.3-37.1C32.8,27.2,50.7,26.6,68.6,26.4z"/>
	<path class="st0" d="M23.1,42c1.5-2.6,3.3-4.7,5.6-6.6c1.9-1.6-0.8-4.3-2.7-2.7c-2.5,2.1-4.6,4.6-6.2,7.4
		C18.5,42.2,21.8,44.1,23.1,42z"/>
	<path class="st0" d="M26.8,41.7c0.7,0.7,2.1,0.8,2.7,0c1.6-1.8,3.1-3.6,4.7-5.5c0.7-0.8,0.8-2,0-2.7c-0.7-0.7-2.1-0.8-2.7,0
		c-1.5,1.8-3.1,3.6-4.6,5.5C26.1,39.8,26,40.9,26.8,41.7z"/>
</g>
</svg>
