<?xml version="1.0" encoding="utf-8"?>
<!-- Generator: Adobe Illustrator 26.2.1, SVG Export Plug-In . SVG Version: 6.00 Build 0)  -->
<svg version="1.1" id="Layer_1" xmlns="http://www.w3.org/2000/svg" xmlns:xlink="http://www.w3.org/1999/xlink" x="0px" y="0px"
	 viewBox="0 0 70.1 73.4" style="enable-background:new 0 0 70.1 73.4;" xml:space="preserve">
<style type="text/css">
	.st0{fill:#FFFFFF;}
	.st1{fill:#BA8760;}
	.st2{opacity:0.1294;}
	.st3{fill:#010101;}
</style>
<g>
	<g>
		<path class="st0" d="M62.9,48.8L61.1,43l3.7-5.2l-9.1-6.3c-1.2,1.9-2.4,3.8-3.5,5.7c-0.1,0.1-0.1,0.2-0.2,0.3
			c-0.1,0.1-0.3,0.1-0.5,0.1c-2,0-4.1-0.1-6.1-0.1c-1-1.9-2-3.7-3.1-5.4c-0.1-0.1-0.2-0.3-0.3-0.3c-0.2,0-0.3,0-0.5,0.1
			c-2.4,1.4-4.8,2.9-7.3,4.3c-0.1,0-0.1,0.1-0.2,0.1c-0.1,0.2,0,0.4,0.1,0.5c0.9,1.6,2,3.1,3.2,4.5c-1.1,2-2.2,3.9-3.5,5.6
			c-0.3,0.4-0.6,0.9-1.2,1c-0.4,0.1-0.9,0-1.3-0.1c-1.7-0.5-3.4-1-5-1.6c-1.4,3.3-1.7,7.1-0.8,10.6c0.1,0.3,6.4-0.6,6.4-0.6l3.8,6.5
			l-3,4.9l6.9,5l3.6-5.2l6.3,0.1l2.4,5.5l9.5-3.2l-2.3-5.6l3.4-5.5l6.4-0.5l0.2-7.8L62.9,48.8z M52,51.7c0.1,0.3-0.2,0.8-0.3,1.1
			c-0.1,0.2-0.2,0.4-0.3,0.6c-0.2,0.4-0.5,0.7-0.9,1c-0.7,0.6-1.4,1.1-2.3,1.4c-0.3,0.1-0.7,0.2-1.1,0.3c-0.3,0.1-0.6,0.1-0.9,0
			c-0.2,0-0.4-0.1-0.6-0.1c0.6,0-0.1,0-0.3-0.1c-1-0.3-1.9-1.1-2.4-1.9c-0.3-0.5-0.5-1.1-0.6-1.7c0-0.5,0.1-1.1,0.3-1.6
			c0.3-0.7,0.7-1.4,1.1-2.1c0.5-0.7,1.1-1.5,2-1.9c0.8-0.4,1.7-0.5,2.5-0.2c0.3-0.2,0.7-0.2,1-0.1c0.6,0.2,1.1,0.5,1.5,1
			c0.4,0.5,0.7,0.9,0.9,1.5c0.1,0.2,0.1,0.4,0.2,0.6c0,0.1,0,0.2,0.1,0.3c0,0.2,0,0.3,0.1,0.5c0,0,0-0.1,0-0.1c0-0.2,0-0.2,0,0
			c0,0.2,0.1,0.4,0.1,0.5c0,0.1,0,0.2,0,0.3C52,51.2,52,51.5,52,51.7z"/>
	</g>
	<g>
		<path class="st1" d="M35.3,55.6C35.3,55.6,35.3,55.6,35.3,55.6c-0.1,0-0.2-0.1-0.2-0.2c1.8-6.1,3.9-12.3,6.3-18.2
			c0-0.1,0.1-0.1,0.2-0.1c0.1,0,0.1,0.1,0.1,0.2c-2.4,5.9-4.5,12-6.3,18.2C35.4,55.6,35.4,55.6,35.3,55.6z"/>
	</g>
	<g>
		<path class="st1" d="M38.1,56.6C38.1,56.6,38,56.6,38.1,56.6c-0.1,0-0.2-0.1-0.2-0.2c1.7-5.8,3.9-11.5,6.6-16.9
			c0-0.1,0.1-0.1,0.2-0.1c0.1,0,0.1,0.1,0.1,0.2c-2.7,5.4-4.9,11-6.5,16.8C38.2,56.6,38.1,56.6,38.1,56.6z"/>
	</g>
	<g>
		<path class="st1" d="M37,67.7C37,67.7,37,67.7,37,67.7c-0.2,0-0.2-0.2-0.2-0.2l4.6-11c0-0.1,0.1-0.1,0.2-0.1
			c0.1,0,0.1,0.1,0.1,0.2l-4.6,11C37.2,67.7,37.1,67.7,37,67.7z"/>
	</g>
	<g>
		<path class="st1" d="M43.1,65.4C43,65.4,43,65.4,43.1,65.4c-0.2,0-0.2-0.1-0.2-0.2l2.6-6.3c0-0.1,0.1-0.1,0.2-0.1
			c0.1,0,0.1,0.1,0.1,0.2l-2.6,6.3C43.2,65.3,43.1,65.4,43.1,65.4z"/>
	</g>
	<g>
		<path class="st1" d="M47.8,44.5C47.8,44.5,47.8,44.5,47.8,44.5c-0.1,0-0.2-0.1-0.2-0.2l1.2-3.9c0-0.1,0.1-0.1,0.2-0.1
			c0.1,0,0.1,0.1,0.1,0.2L48,44.4C48,44.5,47.9,44.5,47.8,44.5z"/>
	</g>
	<g>
		<path class="st1" d="M52.7,45.6C52.7,45.6,52.6,45.6,52.7,45.6c-0.1,0-0.2-0.1-0.2-0.2c1.3-3.3,2.7-6.6,4.3-9.8
			c0-0.1,0.1-0.1,0.2-0.1c0.1,0,0.1,0.1,0.1,0.2c-1.6,3.2-3,6.4-4.3,9.8C52.8,45.5,52.8,45.6,52.7,45.6z"/>
	</g>
	<g>
		<path class="st1" d="M47.8,65.4C47.8,65.4,47.8,65.4,47.8,65.4c-0.2-0.1-0.2-0.2-0.2-0.2l11.7-24.5c0-0.1,0.1-0.1,0.2-0.1
			c0.1,0,0.1,0.1,0.1,0.2L48,65.3C48,65.4,47.9,65.4,47.8,65.4z"/>
	</g>
	<g>
		<path class="st1" d="M52.5,66.4C52.5,66.4,52.5,66.4,52.5,66.4c-0.2-0.1-0.2-0.2-0.2-0.2l7.8-16.7c0-0.1,0.1-0.1,0.2-0.1
			c0.1,0,0.1,0.1,0.1,0.2l-7.8,16.7C52.6,66.4,52.6,66.4,52.5,66.4z"/>
	</g>
	<g>
		<path class="st1" d="M60.9,58.1C60.8,58.1,60.8,58.1,60.9,58.1c-0.2-0.1-0.2-0.2-0.2-0.3l3.4-6.2c0-0.1,0.2-0.1,0.2-0.1
			c0.1,0,0.1,0.2,0.1,0.2L61,58C61,58,60.9,58.1,60.9,58.1z"/>
	</g>
	<g>
		<path class="st1" d="M55.1,69.8C55,69.8,55,69.8,55.1,69.8c-0.2-0.1-0.2-0.2-0.2-0.2l1.6-3.1c0-0.1,0.1-0.1,0.2-0.1
			c0.1,0,0.1,0.1,0.1,0.2l-1.6,3.1C55.2,69.8,55.1,69.8,55.1,69.8z"/>
	</g>
	<g>
		<path class="st1" d="M28.7,54.2C28.7,54.2,28.7,54.2,28.7,54.2c-0.2-0.1-0.2-0.2-0.2-0.2l2.1-4.3c0-0.1,0.1-0.1,0.2-0.1
			c0.1,0,0.1,0.1,0.1,0.2l-2.1,4.3C28.9,54.1,28.8,54.2,28.7,54.2z"/>
	</g>
	<g>
		<path class="st1" d="M37.6,37.9C37.6,37.9,37.6,37.9,37.6,37.9c-0.2-0.1-0.2-0.2-0.1-0.3l1.6-2.8c0-0.1,0.2-0.1,0.2-0.1
			c0.1,0,0.1,0.2,0.1,0.2l-1.6,2.8C37.7,37.9,37.7,37.9,37.6,37.9z"/>
	</g>
	<g class="st2">
		<path class="st3" d="M58.3,68c-0.9,0.3-1.3,0.6-3,0.9c-0.8,0.3-1.8,0.1-2.5,0.7c-1.5,1-0.3,3.5,1.5,2.9c2.1-0.4,4.5-0.5,6.1-2
			C61.5,69,59.9,67.1,58.3,68z"/>
	</g>
	<g>
		<path class="st3" d="M51.8,73.7c-0.2,0-0.4-0.1-0.5-0.3c-0.7-1.7-1.4-3.4-2.5-5.2c-2.1,0.3-4.1,0.1-6.1-0.1
			c-0.6,1-1.1,2.1-1.7,3.2c-0.3,0.6-0.7,1.2-1,1.9c-0.1,0.2-0.4,0.3-0.6,0.2c-3-1.2-5.7-3.1-7.6-5.5c-0.1-0.2-0.2-0.4,0-0.6
			c1.1-1.4,2.1-2.9,3.3-4.8c-1.3-1.6-2.4-3.5-3.4-5.8c-0.5,0.1-1,0.2-1.5,0.3c-1.5,0.3-3,0.6-4.7,0.8c-0.3,0-0.5-0.1-0.6-0.4
			c-0.9-3.4-0.7-7.2,0.8-11.3c0.1-0.3,0.4-0.4,0.6-0.3c2.1,0.5,4.3,1.1,6.6,1.6c0.9-1.9,2.1-3.8,3.3-5.6c-1-1.4-2.2-2.9-3.2-4.8
			c-0.1-0.2-0.1-0.5,0.1-0.6c2.3-2,5.1-3.8,8.5-5.2c0.2-0.1,0.5,0,0.7,0.2c1.1,1.8,2,3.7,2.8,5.7c2.2-0.3,4.4-0.4,6.7-0.2
			c1-1.8,2-3.7,3.3-5.7c0.1-0.2,0.4-0.3,0.7-0.2c2.5,1.2,4.8,2.8,6.9,4.5c0.6,0.5,1.1,1,1.7,1.4l0,0c0.3,0.2,0.6,0.5,0.7,0.9
			c0,0.1,0,0.3-0.1,0.4c-0.5,0.7-1,1.4-1.5,2.1c-0.7,1-1.4,2-2.2,3.2c0.7,1.6,1.3,3.3,1.9,4.9c1.8,0.2,4.1,0.5,6.7,1.5
			c0.2,0.1,0.3,0.2,0.3,0.4c0.2,3.1-0.2,6-1.3,8.7c-0.1,0.2-0.3,0.3-0.5,0.3l-0.7,0c-1.6-0.1-3.3-0.1-5.2,0
			c-0.7,1.6-1.7,3.3-3.3,5.1c1,1.7,1.9,3.4,2.8,5.4c0.1,0.2,0,0.5-0.2,0.7C58.5,72.3,55.1,73.4,51.8,73.7
			C51.8,73.7,51.8,73.7,51.8,73.7z M49,67.2c0.2,0,0.3,0.1,0.4,0.2c1.2,1.8,1.9,3.5,2.6,5.2c2.9-0.4,5.8-1.3,8.7-2.7
			C60,68,59,66.3,58.1,64.7c-0.1-0.2-0.1-0.4,0.1-0.6c1.7-2,2.8-3.7,3.4-5.4c0.1-0.2,0.2-0.3,0.4-0.3c2-0.2,3.8-0.1,5.6,0l0.3,0
			c0.9-2.4,1.2-4.9,1.1-7.6c-2.4-0.9-4.7-1.2-6.4-1.3c-0.2,0-0.4-0.1-0.4-0.3c-0.7-1.8-1.4-3.6-2.1-5.4c-0.1-0.2-0.1-0.4,0-0.5
			c0.8-1.2,1.6-2.3,2.4-3.4c0.4-0.6,0.9-1.2,1.3-1.9c-0.1-0.1-0.2-0.2-0.3-0.2l0,0c-0.5-0.5-1.1-1-1.6-1.4c-2-1.6-4.1-3-6.3-4.2
			c-1.2,1.9-2.2,3.8-3.2,5.6c-0.1,0.2-0.3,0.3-0.5,0.3c-2.4-0.2-4.8-0.1-7.1,0.3c-0.2,0-0.5-0.1-0.6-0.3c-0.8-1.9-1.7-3.8-2.7-5.6
			c-2.9,1.3-5.4,2.8-7.5,4.6c1,1.8,2.2,3.3,3.2,4.6c0.1,0.2,0.1,0.4,0,0.6c-1.4,2.1-2.6,4.1-3.6,6.2c-0.1,0.2-0.3,0.3-0.6,0.3
			c-2.3-0.5-4.5-1.1-6.6-1.6c-1.2,3.6-1.4,6.9-0.7,9.8c1.4-0.2,2.8-0.5,4.1-0.8c0.6-0.1,1.3-0.3,1.9-0.4c0.2,0,0.5,0.1,0.6,0.3
			c1.1,2.6,2.3,4.6,3.6,6.3c0.1,0.2,0.2,0.4,0,0.6c-1.2,1.9-2.3,3.4-3.3,4.8c1.7,2,4,3.6,6.5,4.7c0.3-0.5,0.5-1,0.8-1.5
			c0.6-1.2,1.3-2.3,1.9-3.5c0.1-0.2,0.3-0.3,0.5-0.3C44.6,67.3,46.8,67.5,49,67.2C49,67.2,49,67.2,49,67.2z"/>
	</g>
	<g>
		<path class="st3" d="M46.6,56.5c-0.8,0-1.7-0.2-2.4-0.5c-0.7-0.3-1.1-0.6-1.4-1.1c-0.4-0.6-0.5-1.3-0.6-1.9
			c-0.2-2,0.3-3.8,1.4-5.1c1.3-1.6,3.4-2.3,5.1-1.7c0.1,0,0.2,0.1,0.2,0.2c0,0,0.1,0,0.1,0c1.8,0.6,3.2,2.4,3.3,4.4
			c0.1,1.9-0.9,3.8-2.6,4.9C48.8,56.2,47.7,56.5,46.6,56.5z M47.4,47c-1.1,0-2.3,0.6-3,1.5c-0.9,1.1-1.3,2.7-1.2,4.4
			c0,0.4,0.1,1,0.4,1.4c0.2,0.3,0.5,0.5,1,0.7c1.5,0.6,3.2,0.5,4.6-0.3c1.4-0.8,2.2-2.4,2.1-3.9c-0.1-1.5-1.2-3-2.6-3.5
			c-0.1,0-0.1,0-0.2,0c-0.1,0-0.4-0.1-0.5-0.2C47.8,47,47.6,47,47.4,47z M48.4,46.7l0.1,0.5c0,0,0,0,0,0L48.4,46.7z"/>
	</g>
	<g class="st2">
		<path class="st3" d="M53.2,53.1c-0.1-1-1.6-1.1-1.8-0.1c-0.3,0.9-0.2,0.8-1.2,1.7c-1,0.8-0.6,0.5-2.1,1.1c-1.4,0.4-0.8,0.3-2,0.3
			c-0.2,0-0.3-0.1-0.5-0.1c-0.6-0.2-0.4-0.1-1.5-0.7c-0.5-0.2-0.9-0.6-1.4-0.7c-1.6-0.3-2.4,2-1,2.8c2.5,1.7,5,2.4,7.8,1.1
			c1.5-0.8,2.5-2.1,3.1-3.7C53,54.2,53.3,53.6,53.2,53.1z"/>
	</g>
	<g class="st2">
		<path class="st3" d="M68.9,55.1C68.9,55.1,68.9,55,68.9,55.1C68.9,55,68.9,55.1,68.9,55.1c0-0.3-0.1-0.7-0.2-1
			c-0.7-1.3-2.8-1.1-3.3,0.3c0,0.1-0.1,0.1-0.1,0.2c-0.1,0.3-0.2,0.6-0.3,0.8c-0.1,0.2-0.2,0.5-0.3,0.7c-0.2,0.3-0.3,0.6-0.3,1
			c0,2.3,3.3,2.7,3.9,0.5c0.3-0.7,0.6-1.4,0.7-2.2C68.9,55.3,68.9,55.2,68.9,55.1z"/>
	</g>
</g>
<g>
	<g>
		<g>
			<path class="st0" d="M34.9,18c-0.9-1.3-1.2-3-0.8-4.6c0.4-1.3,1.2-2.4,2.3-3.4c-1.2-1.8-2.6-3.6-4-5.2c-0.1-0.1-0.3-0.3-0.4-0.4
				c-0.2-0.2-0.6-0.3-0.9-0.5c-1.3,1.4-3.3,2.3-5.3,2.2c-2.6-0.3-4.9-2.2-5.8-4.7c-2.5,0.4-4.9,1.1-7.2,2.1c0.5,0.8,0.6,1.7,0.6,2.7
				c0,1-0.2,2-0.6,2.9c-0.4,0.9-1.2,1.7-2.1,2.1c-0.5,0.2-1.1,0.3-1.7,0.4c-1,0.1-2,0.1-3,0c0,0-1.9,7-1.7,7
				c0.6,0.2,1.2,0.3,1.8,0.5c0.7,0.2,1.3,0.4,1.9,0.8c0.6,0.4,1.1,0.9,1.3,1.6c0.1,0.5,0.1,0.9,0,1.4c-0.3,1.7-1.2,3.2-2.4,4.4
				c0,0,4.7,4.6,4.8,4.6c0.5-0.8,1.4-1.3,2.3-1.7c0.4-0.2,0.7-0.4,1.1-0.5c1.4-0.4,3,0,4,1c1.1,1,1.6,2.4,1.7,3.9
				c1.7-0.1,3.3-0.2,5-0.4c0.7-0.1,1.5-0.2,2.1-0.7c0-1.5,0.3-2.9,0.9-4.3c0.3-0.6,0.7-1.3,1.2-1.7c0.8-0.7,1.9-1,3-0.9
				C34,26.6,35,27,36,27.4c1.1-2.1,2.2-4.1,2.5-6.5C37.1,20.3,35.7,19.3,34.9,18z M26.9,18.4c-0.1,1-0.5,1.9-1.2,2.6
				c-0.3,0.4-0.7,0.7-1,1c-0.4,0.3-0.9,0.5-1.3,0.7c-0.5,0.1-1.1,0.1-1.6,0.1c-0.5,0-1.1,0-1.6-0.2c-0.5-0.2-0.9-0.5-1.3-0.8
				c-0.4-0.3-0.8-0.7-1-1.1c-1-1.7-0.7-4,0.5-5.6c0.6-0.8,1.5-1.5,2.4-1.9c1-0.5,2.2-0.7,3.2-0.4c0.3,0.1,0.4,0.4,0.4,0.6
				C26.2,14.3,27.1,16.5,26.9,18.4z"/>
		</g>
		<g>
			<path class="st3" d="M20.6,35c-0.3,0-0.5-0.2-0.5-0.5c-0.1-1.3-0.7-2.6-1.7-3.6c-0.4-0.4-1-0.8-1.8-0.9c-0.6-0.1-1.3,0.2-2,0.4
				c-1,0.4-2,0.9-2.6,1.8c-0.1,0.1-0.2,0.2-0.3,0.2c-0.1,0-0.3,0-0.4-0.1c-2-1.6-3.6-3.1-4.9-4.7c-0.2-0.2-0.1-0.5,0.1-0.7
				c1.2-1,2-2.4,2.3-3.9c0.1-0.6,0.1-1,0-1.4C8.6,21.1,8,20.5,7,20c-0.9-0.5-2-0.8-3.1-0.9c-0.1,0-0.3-0.1-0.3-0.2
				c-0.1-0.1-0.1-0.3-0.1-0.4c0.4-2.4,1.1-4.8,2-7.2C5.6,11,5.9,10.9,6.1,11c1.3,0.4,4.3,0.4,5.5-1c2-2.4,1.1-5.2,0.7-6
				c-0.1-0.3,0-0.6,0.2-0.7c1.2-0.6,3.3-1.2,5.4-1.8c0.7-0.2,1.3-0.4,2-0.6c0.2-0.1,0.4,0,0.5,0.1c0.1,0.1,0.2,0.3,0.1,0.5
				c-0.1,0.4,1.1,2.5,2.8,3.4c4.1,2.1,6.6-0.5,7.3-1.4c0.1-0.1,0.2-0.2,0.4-0.2c0.1,0,0.3,0,0.4,0.2c2.1,2.1,3.8,4.2,5.4,6.4
				c0.2,0.2,0.1,0.6-0.1,0.7c-1.7,1.2-2.6,3.5-2.1,5.6c0.4,2,2.2,3.8,4.4,4.4c0.1,0,0.3,0.1,0.3,0.2c0.1,0.1,0.1,0.3,0,0.4
				c-0.7,2.4-1.8,4.8-3,6.8c-0.1,0.2-0.4,0.3-0.6,0.2c-1.6-0.7-3.1-1.2-4.5-0.8c-1,0.3-1.8,1.3-2.3,2.5c-0.4,0.9-0.5,2-0.6,3.1
				c0,0.2-0.1,0.5-0.1,0.7c0,0.2-0.2,0.4-0.4,0.4C25.4,34.7,23,35,20.6,35C20.6,35,20.6,35,20.6,35z M16.4,29c0.1,0,0.2,0,0.3,0
				c0.8,0.1,1.6,0.5,2.4,1.2c1.1,1,1.7,2.3,1.9,3.8c2-0.1,4.1-0.3,6.2-0.8c0-0.1,0-0.2,0-0.3c0.1-1.2,0.3-2.3,0.7-3.4
				c0.6-1.5,1.6-2.6,2.9-3.1c1.6-0.5,3.2,0,4.8,0.6c1-1.7,1.9-3.7,2.5-5.7c-2.3-0.8-4.1-2.7-4.6-5c-0.5-2.3,0.4-4.8,2.1-6.3
				c-1.3-1.9-2.8-3.6-4.6-5.4c-1.1,1.1-4,3.3-8.2,1.2c-1.5-0.8-2.9-2.5-3.2-3.8c-0.5,0.1-1,0.3-1.4,0.4c-1.9,0.5-3.6,1.1-4.8,1.6
				c0.5,1.3,1,4.1-1.1,6.6C11,12.4,8,12.5,6.3,12.1c-0.8,2-1.3,4-1.7,6c1,0.2,2,0.5,2.9,0.9c1.3,0.6,2.1,1.4,2.4,2.3
				c0.2,0.5,0.2,1.1,0.1,1.9c-0.3,1.6-1.1,3.1-2.3,4.2c1.1,1.3,2.4,2.6,4,3.8c0.8-0.9,1.8-1.4,2.8-1.8C15,29.3,15.7,29,16.4,29z"/>
		</g>
		<g>
			<path class="st3" d="M22.1,23.6c-1.8,0-3.5-0.8-4.6-2.3c-0.5-0.6-0.8-1.3-0.9-2c-0.1-0.6-0.1-1.3,0.1-2.1
				c0.4-1.7,1.4-3.2,2.7-4.1c1.5-1,3.5-1.2,5-0.4c0,0,0,0,0,0c1.8,0.9,3,2.9,3.1,5.1c0.1,2.4-1.5,4.7-3.8,5.5
				C23.3,23.5,22.7,23.6,22.1,23.6z M22.4,13.3c-0.8,0-1.6,0.2-2.3,0.7c-1.1,0.7-1.9,2-2.3,3.5c-0.2,0.6-0.2,1.2-0.1,1.7
				c0.1,0.5,0.3,1,0.7,1.5c1.1,1.5,3.4,2.3,5.2,1.6c1.8-0.6,3.1-2.5,3.1-4.4c-0.1-1.8-1.1-3.4-2.6-4.2l0,0
				C23.5,13.5,23,13.3,22.4,13.3z"/>
		</g>
	</g>
	<g class="st2">
		<path class="st3" d="M29.7,18.3c-0.1-0.7-0.2-1.6-0.6-2.2c-0.9-1.3-3-0.2-2.6,1.3c0,0.2,0.1,0.2,0,1c-0.1,0.5-0.3,1-0.5,1.5
			c0,0,0,0.1,0,0.1c-0.9,1.6-0.8,1.3-1.1,1.5c-0.2,0.1-0.3,0.2-1.3,0.4c-0.3,0-1.2,0.1-1.4,0.1c-0.2,0-0.4,0-0.6,0
			c-0.1,0-0.3-0.1-0.4-0.1c-0.3-0.1-0.7-0.3-1-0.2c-1.6,0.1-2,2.4-0.6,3.2c1.5,0.7,3.4,0.8,5,0.6c0.8-0.2,1.6-0.6,2.3-1.1
			c0.2-0.1,0.9-0.6,1.6-1.7C29.1,21.5,29.8,19.9,29.7,18.3z"/>
	</g>
	<g class="st2">
		<path class="st3" d="M35.9,21.7c-0.6,1.6-0.4,1.3-1.3,2.7c-0.2,0.2-0.3,0.5-0.5,0.7c-0.3,0.3-0.4,0.7-0.4,1.1
			c0,1.7,2.3,2.3,3.1,0.8c1-1.4,1.6-3,2-4.6C39.2,20.6,36.4,19.8,35.9,21.7z"/>
	</g>
</g>
</svg>
