<?xml version="1.0" encoding="utf-8"?>
<!-- Generator: Adobe Illustrator 26.2.1, SVG Export Plug-In . SVG Version: 6.00 Build 0)  -->
<svg version="1.1" id="Layer_1" xmlns="http://www.w3.org/2000/svg" xmlns:xlink="http://www.w3.org/1999/xlink" x="0px" y="0px"
	 viewBox="0 0 149.6 145.9" style="enable-background:new 0 0 149.6 145.9;" xml:space="preserve">
<style type="text/css">
	.st0{fill:#FFFFFF;}
	.st1{fill:#010101;}
	.st2{fill:#BA8760;}
	.st3{opacity:0.1294;}
</style>
<g>
	<g>
		<path class="st0" d="M18.2,135c-5.1-4.2-9.8-8.9-14-14c-1.4-1.7-2.8-3.5-3.4-5.6l38-29.8c0,0,1.8,1.9,2,1.9
			c3.7-4.9,6.8-10.3,9.4-15.9c-3-3.5-6.3-6.8-9.9-9.8c-0.6,0.7-1.2,1.4-1.8,2.1c0,0-0.1,0.1-0.4-0.1c-13-9.5-26.4-18.6-40.1-27.1
			c0.9-3,2.7-5.7,4.5-8.3c3.1-4.3,6.5-8.4,10.3-12.2c0.8-0.8,1.6-1.6,2.6-2.3l35.9,32.3c0,0-2,3.1-1.9,3.2c3,1.7,5.7,4.1,9.4,5.5
			c-0.1-2.3,0.7-4.5,1.6-6.5c0.1-0.3,0.3-0.7,0.6-0.9c0.3-0.2,0.8-0.1,1.3,0.4c1.4,2.6,1.7,5.8,1.8,8.8c0.2,3.1,0.4,6.3,0.6,9.4
			c1.5-4.6,1.2-9.6,1.7-14.4c0.1-1.4,0.3-2.9,1.1-4.2c0.2-0.3,0.4-0.6,0.7-0.8c0.7-0.3,1.5,0.1,1.9,0.8c0.4,0.7,0.4,1.5,0.6,2.6
			c0.3-1,1.1-1.8,1.9-2.5c4-3.5,8.7-6.4,10.9-11.1c-0.3-0.9,0.3-1.9,0.8-2.7C91.1,23,97.6,11.9,103.6,0.7c1.8-0.1,3.6,0.5,5.3,1.1
			c6.3,2.4,11.9,6.3,16.4,11.3L97.3,45.8c0,0-1.4-0.8-1.4-0.8c-0.5,0.6-1,1.4-1.4,2.1c-2.9,5.1-4.8,10.8-5.6,16.6
			c4.2,4.4,9.4,7.9,15.1,10c0.2,0.1,0.4,0.1,0.6,0.1c0.2-0.1,0.4-0.3,0.6-0.4c0.2-0.2,0.5-0.3,1.1,0.2c7.5,3.8,14.9,7.7,22.4,11.6
			c3.8,2,7.7,4,11.5,6c2.9,1.5,5.8,3,8.8,4.8c-2.8,9.1-8,17.5-15,24.1L92.8,92.5c0,0,1.1-2.4,1.3-2.3c-2.5-2.2-5.2-4.2-7.9-5.6
			c-1.9,3.4-3.7,6.8-5.6,10.3c-1,1.8-1.9,3.6-2,5.6c0.6-0.1,0.8,0.7,0.8,1.3c0,1.3-0.1,2.7-0.4,4l-9.9-0.6c0,0-13.6,0.9-13.8,0.9
			c1.1-1.3,0.9-3.2,0.8-4.9c0-0.3,0-0.8,0.3-0.9c0.1-0.1,0.2-0.1,0.3-0.1c0.3-0.1,0.3-0.5,0.3-0.7c0.1-1.4-0.1-2.9-0.1-3.8
			c-0.4,0.1-0.7,0.2-1.1,0.4c-1.2,0.5-2.1,1.5-3,2.4c-0.6,0.6-1.2,1.2-1.8,1.8c-2.3,2.3-4.5,4.7-6.8,7
			C35.7,116.2,27.2,125.3,18.2,135z"/>
	</g>
	<g>
		<path class="st1" d="M36.6,92.7C36.6,92.7,36.6,92.7,36.6,92.7c-0.2,0-0.3-0.1-0.3-0.3l0.2-3.4c0-0.1,0.1-0.3,0.3-0.2
			c0.1,0,0.2,0.1,0.2,0.3l-0.2,3.4C36.8,92.6,36.7,92.7,36.6,92.7z"/>
	</g>
	<g>
		<path class="st1" d="M39.3,95.7c-0.1,0-0.2-0.1-0.3-0.2c-0.1-2.1-0.1-4.3,0-6.5c0-0.1,0.1-0.2,0.3-0.2c0.1,0,0.3,0.1,0.2,0.3
			c0,2.1,0,4.3,0,6.4C39.5,95.5,39.4,95.6,39.3,95.7C39.3,95.7,39.3,95.7,39.3,95.7z"/>
	</g>
	<g>
		<path class="st1" d="M41.7,98.8c-0.1,0-0.2-0.1-0.3-0.2c-0.1-2.5-0.1-5,0-7.5c0-0.1,0.1-0.2,0.3-0.2c0.1,0,0.3,0.1,0.2,0.3
			c-0.1,2.5-0.1,5,0,7.5C42,98.6,41.9,98.8,41.7,98.8C41.7,98.8,41.7,98.8,41.7,98.8z"/>
	</g>
	<g>
		<path class="st1" d="M44.2,101.4C44.2,101.4,44.1,101.4,44.2,101.4c-0.1,0-0.3-0.1-0.3-0.3l0.2-7.5c0-0.1,0.1-0.2,0.3-0.2
			c0.1,0,0.3,0.1,0.2,0.3l-0.2,7.5C44.4,101.3,44.3,101.4,44.2,101.4z"/>
	</g>
	<g>
		<path class="st1" d="M46.7,103.1C46.7,103.1,46.7,103.1,46.7,103.1c-0.1,0-0.3-0.1-0.3-0.3c0-2.2,0.1-4.4,0.3-6.6
			c0-0.1,0.1-0.3,0.3-0.2c0.1,0,0.2,0.1,0.2,0.3c-0.2,2.2-0.3,4.4-0.3,6.5C46.9,103,46.8,103.1,46.7,103.1z"/>
	</g>
	<g>
		<path class="st1" d="M49,100.7c-0.1,0-0.2-0.1-0.3-0.2c-0.1-0.7,0-1.5,0.1-2.2c0-0.1,0.2-0.2,0.3-0.2c0.1,0,0.2,0.2,0.2,0.3
			c-0.1,0.7-0.2,1.4-0.1,2.1C49.3,100.6,49.2,100.7,49,100.7C49,100.7,49,100.7,49,100.7z"/>
	</g>
	<g>
		<path class="st1" d="M106.8,99.8c-0.1,0-0.2-0.1-0.2-0.2c-0.5-1.9-1-3.9-1.3-5.9c0-0.1,0.1-0.3,0.2-0.3c0.1,0,0.3,0.1,0.3,0.2
			c0.3,1.9,0.8,3.9,1.3,5.8C107.1,99.6,107,99.8,106.8,99.8C106.9,99.8,106.8,99.8,106.8,99.8z"/>
	</g>
	<g>
		<path class="st1" d="M111.7,102.1c-0.1,0-0.2-0.1-0.2-0.2c-1.5-4-2.9-8.1-3.9-12.2c0-0.1,0-0.3,0.2-0.3c0.1,0,0.3,0,0.3,0.2
			c1,4.1,2.3,8.2,3.9,12.2C112,101.9,111.9,102,111.7,102.1C111.8,102.1,111.7,102.1,111.7,102.1z"/>
	</g>
	<g>
		<path class="st1" d="M116,104.2c-0.1,0-0.2-0.1-0.2-0.2c-2.2-5.5-4.2-11.2-5.9-17c0-0.1,0-0.3,0.2-0.3c0.1,0,0.3,0,0.3,0.2
			c1.8,5.7,3.7,11.4,5.9,16.9C116.3,103.9,116.3,104.1,116,104.2C116.1,104.2,116.1,104.2,116,104.2z"/>
	</g>
	<g>
		<path class="st1" d="M120.6,107.2c-0.1,0-0.2-0.1-0.2-0.2c-3-7.8-5.7-15.9-8-24c0-0.1,0-0.3,0.2-0.3c0.1,0,0.3,0,0.3,0.2
			c2.3,8.1,5,16.1,8,23.9C120.9,107,120.8,107.2,120.6,107.2C120.7,107.2,120.6,107.2,120.6,107.2z"/>
	</g>
	<g>
		<path class="st1" d="M124.5,109.1c-0.1,0-0.2-0.1-0.2-0.2l-9.5-28.5c0-0.1,0-0.3,0.2-0.3c0.1,0,0.3,0,0.3,0.2l9.5,28.5
			C124.8,108.9,124.7,109.1,124.5,109.1C124.5,109.1,124.5,109.1,124.5,109.1z"/>
	</g>
	<g>
		<path class="st1" d="M129.2,113.4c-0.1,0-0.2-0.1-0.2-0.2l-10.3-30c0-0.1,0-0.3,0.2-0.3c0.1,0,0.3,0,0.3,0.2l10.3,30
			C129.5,113.2,129.5,113.3,129.2,113.4C129.3,113.4,129.3,113.4,129.2,113.4z"/>
	</g>
	<g>
		<path class="st1" d="M134.5,117.7c-0.1,0-0.2-0.1-0.2-0.2c-3.7-10.4-7-21-10-31.6c0-0.1,0-0.3,0.2-0.3c0.1,0,0.3,0,0.3,0.2
			c3,10.6,6.3,21.2,10,31.6C134.8,117.5,134.7,117.6,134.5,117.7C134.5,117.7,134.5,117.7,134.5,117.7z"/>
	</g>
	<g>
		<path class="st1" d="M136.9,113.6c-0.1,0-0.2-0.1-0.2-0.2c-3.1-8.2-5.9-16.6-8.4-25c0-0.1,0-0.3,0.2-0.3c0.1,0,0.3,0,0.3,0.2
			c2.5,8.4,5.3,16.8,8.3,24.9C137.2,113.4,137.1,113.5,136.9,113.6C137,113.6,136.9,113.6,136.9,113.6z"/>
	</g>
	<g>
		<path class="st1" d="M139.3,109.3c-0.1,0-0.2-0.1-0.2-0.2l-5.9-18.6c0-0.1,0-0.3,0.2-0.3c0.1,0,0.3,0,0.3,0.2l5.9,18.6
			C139.6,109.1,139.5,109.2,139.3,109.3C139.4,109.3,139.4,109.3,139.3,109.3z"/>
	</g>
	<g>
		<path class="st1" d="M141.9,105.5c-0.1,0-0.2-0.1-0.2-0.2l-3.3-11.9c0-0.1,0-0.3,0.2-0.3c0.1,0,0.3,0,0.3,0.2l3.3,11.9
			C142.2,105.3,142.1,105.4,141.9,105.5C142,105.5,141.9,105.5,141.9,105.5z"/>
	</g>
	<g>
		<path class="st1" d="M144.9,101.6c-0.1,0-0.2-0.1-0.2-0.2L143,95c0-0.1,0-0.3,0.2-0.3c0.1,0,0.3,0,0.3,0.2l1.6,6.5
			C145.1,101.4,145.1,101.6,144.9,101.6C144.9,101.6,144.9,101.6,144.9,101.6z"/>
	</g>
	<g>
		<path class="st2" d="M54.3,145.3c0.5-13.1,0.7-26.2,0.7-39.4c8.2-0.7,16.5-0.6,24.5,0.4c-0.4,13.1-0.1,26.2,0.8,39.2
			c-4.5,1-9.2-0.4-13.8-0.7C62.6,144.5,58.5,145,54.3,145.3z"/>
	</g>
	<g class="st3">
		<path class="st1" d="M94.6,87.1c-1.9-1.6-3.9-2.8-5.4-4.2c0.2-0.6,0.4-1.2,0.6-1.7c0.4-2.1,0.7-4.1,0.9-7.4
			c0.1-1.3,0.2-2.6,0.1-3.8c-0.1-0.5,0-1.1-0.3-1.5c-0.4-0.5-1.2-0.3-1.4,0.2c-0.3,0.1-0.5,0.4-0.5,0.7c0,1.7-0.5,3.2-1.1,5.2
			c-0.5,2-1.2,3.7-1.8,5c0,0.2-1.4,3.2-2.4,4.8c-1.3,2.4-2.7,4.7-4.2,7c-1.7,2.2-3,4.7-3.1,7.5c0,0.2,0,0.7,0,0.9c0,0,0-0.1,0-0.2
			c0,0.3,0.1,0.7,0.4,0.9c0.1,0.1,0.2,0.2,0.3,0.2c0,0,0,0.1,0,0.1c-0.1,1.5-0.1,3.1,0.2,4.6c0.1,0.2,0.2,0.3,0.4,0.4
			c-0.5,0.1-0.9,0.4-0.9,1.1c-0.2,2.7,0,5.5,0.1,8.2c-0.1,2.3,0.1,4.6,0.1,6.9c0,1.7,0.2,3.3,0.3,5c0,1.5,0,3.1,0.1,4.6
			c0,0.5,0,0.9,0,1.4c0,1.9-0.1,3.6,0,5c0,0.8,0,1.5,0.1,2.3c-0.1,0.5,0,1,0,1.4c0,0.9,0.1,1.4,0.1,2c-0.1,0.3-0.1,0.6-0.1,1
			c0,0.3,0.1,0.6,0.2,0.8c0.1,0.2,0.2,0.4,0.4,0.6c0.6-0.1,1.3-0.2,1.9-0.2c0.1-0.1,0.2-0.3,0.2-0.5c0,0,0-0.1,0-0.1
			c0.1-0.3,0,0,0,0.1c0,0,0,0,0,0c0,0,0,0,0-0.1c0.2-0.6,0.1-0.5,0.3-1.7c0-0.5,0-1,0-1.5c0.2-0.3,0.3-0.7,0.2-1
			c-0.1-1.2-0.1-1.3-0.3-2.6c0-1.2-0.1-2.4-0.1-3.6c0-1,0-2.1,0-3.1c0.1-0.2,0.1-0.3,0.1-0.5c0-0.2,0-0.5,0-0.6
			c-0.1-0.8-0.1-1.6-0.2-2.3c-0.1-1-0.1-2-0.1-3c-0.1-1.5-0.2-3-0.2-4.6c0-0.1,0-0.2,0-0.4c-0.1-0.5-0.1-1.1-0.1-1.6
			c0-2.2,0.2-4.5,0.2-6.7c0-1.4,0-2.7-0.1-4.1c-0.1-0.6,0.1-1.3-0.4-1.8c-0.1-0.2-0.3-0.2-0.5-0.3c0.1-0.1,0.2-0.2,0.2-0.3
			c0.3-0.8,0-1.6,0-2.5c-0.1-0.9,0.2-1.8,0-2.7c0-0.1-0.1-0.2-0.2-0.3c0.3-1,0.3-3.3,2.3-6.2c2-3.2,3.9-6.4,5.5-9.8
			c0.1,0.5,0.6,0.8,1.1,0.9c0.3,0.3,0.6,0.6,1,0.8c1.4,1.1,2.3,1.7,3.1,2.3c1,0.7,0.6,0.4,1.6,1.2c0.3,0.2,0.6,0.5,1,0.5
			c0.7,0.1,1.4-0.5,1.4-1.2C95.5,87.8,95,87.5,94.6,87.1z"/>
	</g>
	<g class="st3">
		<path class="st1" d="M81.6,69.2c0-2.2-0.1-4.4-0.3-6.7c0-0.5-0.1-1.1-0.2-1.6c-0.1-0.4-0.1-0.8-0.4-1c-1-1.4-3.2-0.3-2.7,1.4
			c0.5,2.3,0.3,7.8,0.5,11.5c0.1,0.8,0.2,1.7,0.3,2.5c0,0,0,0,0,0.1c0,0.4,0,0.8,0.1,1.2c0.3,0.7,1.3,0.9,1.8,0.4
			c0.4-0.3,0.3-0.9,0.4-1.3c0,0,0-0.1,0-0.1c0,0,0,0,0,0.1c0-0.1,0-0.2,0.1-0.2C81.5,74,81.6,71.5,81.6,69.2z"/>
	</g>
	<g class="st3">
		<path class="st1" d="M55.2,91.9c-0.4,0.8-1.1,1.3-2.5,2c0,0,0.1,0,0.1-0.1c-0.4,0.2-1,0.4-1.4,0.7c-0.1,0-0.2-0.1-0.2-0.1
			c-0.7-0.4-1.4-0.9-2-1.3c-2.5-1.8-4.3-3.2-6.8-5.7c-0.4-0.4-0.8-0.9-1.4-0.9c-0.9,0-1.4,1.2-0.7,1.8c1.2,1.3,2.5,2.5,3.8,3.8
			c1.1,1,2.4,1.9,3.5,3c0.7,0.7,1.4,1.3,2.1,2.1c0.1,0.1,0.2,0.2,0.3,0.3c-0.1-0.1-0.2-0.3-0.3-0.3c0.1,0.2,0.3,0.3,0.4,0.5
			c-0.4,0.2-0.7,0.4-0.9,0.7c0,0,0,0,0,0c-3.8,3.5-7.3,6-10.2,8.9c-1.8,1.6-4.2,4.3-4.7,5.1c-1.3,1.6-2.7,3.2-4.1,4.8
			c-2.9,3.1-8.7,9.1-12.2,13.6c-0.5,0.7-1,1.4-1.5,2.1c-0.1,0.2-0.2,0.4-0.3,0.6c0.6,0.7,1.3,1.4,1.9,2.1c1-0.2,1.7-1.5,2.3-2.4
			c0,0,1.1-1.3,1.3-1.6c0.9-1.1,1.8-2.2,2.8-3.3c1.5-1.8,3.2-4,6.1-7c0.9-0.8,1.6-1.7,2.5-2.5c1-0.9,2-1.8,2.9-2.7
			c1.4-1.4,2.5-2.9,3.9-4.2c3.7-3.5,7.4-6.8,11.3-10.1c0.3-0.3,0.3-0.3-0.1,0c0.2-0.1,0.4-0.3,0.6-0.5c0.3-0.2,0.6-0.5,0.8-0.8
			c0.4-0.7,0.3-1.6-0.1-2.2c0.6-0.3,0.9-1,0.9-1.7c1-0.6,1.9-1.4,2.6-2.4c0,0,0,0,0,0c0.4-0.4,0.7-0.9,0.9-1.4
			C57.2,91.7,55.8,90.9,55.2,91.9z"/>
	</g>
	<g class="st3">
		<path class="st1" d="M49.5,49.1c-0.1-0.1-0.2-0.2-0.3-0.2c-0.9,1.2-1.8,2.4-2.7,3.7c-0.5,0.8-1.1,1.6-1.5,2.4
			c-0.5,0.8-0.9,1.6-1.4,2.4c-0.2,0.3-0.5,0.3-0.7,0.2c-0.5,0.7-1,1.4-1.4,2.1c-0.5,0.8-1,1.6-1.5,2.4c0.3,1.2,1.7,2,2.9,1.2
			c0.2-0.1,0.3-0.2,0.4-0.4c0,0,0,0,0,0c0,0,0-0.1,0.1-0.1c0.1-0.1,0.2-0.3,0.3-0.5c0-0.1,0.1-0.2,0.1-0.2c0.1-0.2,0.3-0.5,0.4-0.7
			c0.7-1,2.1-2.6,3.5-4.8c0.9-1.3,1.8-2.7,2.6-4.1c0.3-0.7,1-1.3,1.1-2C50.7,50,50.1,49.6,49.5,49.1z"/>
	</g>
	<g class="st3">
		<path class="st1" d="M134.9,118c0-0.1-0.1-0.2-0.1-0.2c-0.1-0.1-0.1-0.2-0.2-0.3c0-0.1-0.1-0.1-0.1-0.2c-0.1-0.1-0.1-0.2-0.2-0.3
			c-0.1-0.2-0.3-0.4-0.5-0.5c0,0,0.1,0.1,0.1,0.1c-0.2-0.2-0.5-0.4-0.7-0.7c-2.1-1.8-2.5-1.8-4.6-3.2c-2.3-1.9-4.5-3.1-7.6-5.3
			c-4.1-3-8.3-5.8-12.5-8.6c-1.2-0.8-2.4-1.5-3.7-2.2c-1.9-1.4-3.9-2.7-5.8-4c-0.9-0.7-2-1.3-3-1.8c-0.5-0.3-1.1-0.7-1.7-0.6
			c-1.6,0.2-1.8,2.6-0.2,3c0.2,0.1,1.1,0.6,2.2,1.2c0.1,0.2,0.2,0.4,0.4,0.5c2,1,3,2.2,5,3.5c1.9,1.1,3.8,2.3,5.6,3.5
			c1,0.7,1.7,1.3,3.2,2.2c0.3,0.2,0.7,0.2,1,0c4.4,3.3,8.7,6.8,11.8,8.8c1,0.8,1.9,1.5,2.8,2.3c2.4,1.6,4.9,3.3,7.3,4.9
			C133.9,119.4,134.4,118.7,134.9,118z"/>
	</g>
	<g class="st3">
		<path class="st1" d="M123.9,13.3c-0.6-0.5-1.1,0.1-1.4,0.5c-0.7,0.8-1.4,1.6-2.1,2.4c-3.3,3.7-6.6,7.5-9.7,11.4
			c-2.3,2.5-4.5,5.1-6.6,7.8c-1.4,1.8-3,3.3-4.7,4.8c-1.4,1.2-1.8,1.7-3.2,2.6c-0.4,0.2-0.8,0.4-0.9,0.9c-0.3,0.8,0.7,1.6,1.5,1.1
			c5.1-3.2,8.7-8,12.3-12.6c3.7-4.5,9-11.1,13.4-16.1c0.5-0.6,1-1.1,1.4-1.7C124,14,124.3,13.8,123.9,13.3z"/>
	</g>
	<g>
		<path class="st1" d="M78.7,100.8c-0.4,0-0.7-0.3-0.8-0.7c-0.2-3.1,1.6-5.9,3.1-8.4l0.4-0.7c2.6-4.2,4.7-8.8,6.1-13.6
			c0.9-3,1.3-5.5,1.3-7.7c0-1.2-0.3-2.5-1.2-2.8c-1-0.3-2,1.1-2.5,2.4c-0.3,0.7-0.5,1.3-0.8,2c-1.2,3-2.5,6.2-4.8,8.6
			c-0.2,0.2-0.5,0.3-0.8,0.2c-0.3-0.1-0.5-0.4-0.5-0.7l-0.9-25.6c0-0.9-0.3-1.9-0.8-1.9c-0.4,0-0.8,0.7-1.1,1.4
			c-1.6,4.5-2.4,9.2-2.3,13.9c0,0.4-0.3,0.7-0.7,0.8c-0.4,0-0.8-0.3-0.8-0.7c-0.2-1.8-0.4-3.6-0.5-5.4c-0.4-4.2-0.8-8.4-1.4-12.6
			c-0.1-0.9-0.4-1.9-1-1.9c0,0,0,0,0,0c-0.5,0-0.9,0.9-1.1,1.8c-0.6,2.9-0.7,5.9-0.9,8.8c-0.2,3.6-0.5,7.4-1.4,11
			c-0.1,0.4-0.4,0.6-0.8,0.6c-0.4,0-0.7-0.3-0.7-0.7c-0.4-6.3-0.8-12.5-1.4-18.4c-0.1-0.6-0.1-1.2-0.4-1.6c-0.2-0.4-0.5-0.6-0.8-0.6
			c-0.6,0.1-0.9,1.3-1,1.8c-1.2,6.5-1.6,13.1-1.4,19.7c0,0.4-0.3,0.7-0.7,0.8c-0.4,0.1-0.8-0.2-0.8-0.6c-0.8-3.4-1.4-7-2.1-10.5
			c-0.3-1.6-0.7-3.2-1.8-4c-0.2-0.1-0.4-0.2-0.5-0.2c-0.2,0-0.5,0.5-0.6,1.2c-1.2,8,0.6,16.1,2.4,24c1.4,6.1,2.8,12.4,2.8,18.7
			c0,0.4-0.3,0.8-0.8,0.8c0,0,0,0,0,0c-0.4,0-0.8-0.3-0.8-0.8c-0.1-6.2-1.5-12.4-2.8-18.4c-1.8-8-3.6-16.3-2.4-24.5
			c0.3-2.1,1.4-2.5,1.9-2.5c0.5-0.1,1,0.1,1.5,0.5c1.6,1.1,2.1,3,2.4,4.9c0.2,1.1,0.4,2.1,0.6,3.2c0.2-4.2,0.6-8.4,1.4-12.6
			c0.4-2.3,1.5-2.9,2.3-3c0.9-0.1,1.9,0.4,2.4,1.4c0.4,0.7,0.5,1.5,0.5,2.2c0.4,3.8,0.7,7.7,1,11.7c0.1-1.4,0.2-2.8,0.3-4.1
			c0.2-3,0.4-6,1-9c0.4-1.9,1.4-3,2.7-3c1.3,0.1,2.2,1.2,2.5,3.2c0.4,3.2,0.8,6.5,1.1,9.8c0.4-2.1,0.9-4.1,1.7-6.1
			c0.8-2.2,2-2.4,2.6-2.4c1.3,0.1,2.2,1.3,2.2,3.4l0.8,23.6c1.4-2,2.3-4.3,3.2-6.6c0.3-0.7,0.5-1.3,0.8-2c1-2.5,2.6-3.7,4.3-3.3
			c1.5,0.4,2.4,2,2.4,4.2c0,3.1-0.8,6.2-1.4,8.2c-1.5,4.9-3.6,9.6-6.3,13.9l-0.4,0.7c-1.5,2.4-3.1,4.8-2.9,7.5
			C79.4,100.4,79.1,100.8,78.7,100.8C78.7,100.8,78.7,100.8,78.7,100.8z"/>
	</g>
	<g>
		<path class="st1" d="M54.5,146.2C54.5,146.2,54.5,146.2,54.5,146.2c-0.4,0-0.8-0.4-0.8-0.8c0.5-13.1,0.7-26.5,0.5-39.6
			c0-0.4,0.3-0.7,0.6-0.8c5-1,9.8-0.7,14.5-0.5c3.5,0.2,7,0.4,10.5,0.5c0.2,0,0.4,0.1,0.5,0.3c0.1,0.2,0.2,0.4,0.2,0.6
			c-0.7,6-0.5,12.2-0.2,18.1l0.8,21.2c0,0.4-0.3,0.8-0.7,0.8c-0.4,0-0.8-0.3-0.8-0.7l-0.8-21.2c-0.2-5.8-0.4-11.7,0.2-17.6
			c-3.2-0.2-6.5-0.3-9.7-0.5c-4.4-0.2-9-0.5-13.6,0.3c0.1,13,0,26.1-0.5,39C55.2,145.9,54.9,146.2,54.5,146.2z"/>
	</g>
	<g>
		<path class="st1" d="M55.9,106.2C55.9,106.2,55.9,106.2,55.9,106.2c-0.4,0-0.8-0.4-0.8-0.8l0.1-5.5c0-0.4,0.3-0.7,0.7-0.7
			c7.8-0.3,15.6-0.1,23.4,0.6c0.4,0,0.7,0.4,0.7,0.8c0,1.7-0.1,3.4-0.3,5c-0.1,0.4-0.4,0.7-0.9,0.7c-0.4-0.1-0.7-0.4-0.7-0.9
			c0.2-1.4,0.3-2.8,0.3-4.1c-7.2-0.6-14.5-0.8-21.8-0.5l-0.1,4.8C56.7,105.9,56.3,106.2,55.9,106.2z"/>
	</g>
	<g>
		<path class="st1" d="M18.7,135.9c-0.2,0-0.4-0.1-0.5-0.2c-0.3-0.3-0.4-0.8-0.1-1.1c10.6-12.4,21.9-24.3,33.6-35.5
			c-3.9-3-8.2-7-13.1-12.3c-4.2,3.2-8.3,6.6-12.4,9.8c-8,6.5-16.3,13.1-25,19c-0.3,0.2-0.8,0.1-1.1-0.2c-0.2-0.3-0.1-0.8,0.2-1.1
			c8.7-5.9,16.9-12.5,24.9-19c4.2-3.4,8.6-6.9,12.9-10.3c0.3-0.2,0.8-0.2,1,0.1c5.3,5.8,9.9,10.1,14.1,13.1c0.2,0.1,0.3,0.3,0.3,0.6
			c0,0.2-0.1,0.4-0.2,0.6c-12,11.4-23.5,23.5-34.2,36C19.1,135.8,18.9,135.9,18.7,135.9z"/>
	</g>
	<g>
		<path class="st1" d="M46.3,105.9c-0.2,0-0.4-0.1-0.5-0.2c-4.7-4.2-9.9-9.9-13.6-14.8c-0.3-0.3-0.2-0.8,0.1-1.1
			c0.3-0.3,0.8-0.2,1.1,0.1c3.6,4.8,8.8,10.4,13.4,14.6c0.3,0.3,0.3,0.8,0.1,1.1C46.7,105.8,46.5,105.9,46.3,105.9z"/>
	</g>
	<g>
		<path class="st1" d="M40.8,88c-0.2,0-0.4-0.1-0.5-0.2c-0.3-0.3-0.3-0.8,0-1.1c5.1-5.3,7.9-12,10.7-18.8c0.2-0.4,0.6-0.6,1-0.4
			c0.4,0.2,0.6,0.6,0.4,1c-2.8,7-5.8,13.8-11,19.3C41.2,87.9,41,88,40.8,88z"/>
	</g>
	<g>
		<path class="st1" d="M52.3,99c-0.2,0-0.3,0-0.4-0.1c-0.3-0.2-0.4-0.7-0.2-1.1c1.3-1.9,2.9-3.2,4.4-4.3c0.3-0.3,0.8-0.2,1.1,0.1
			c0.3,0.3,0.2,0.8-0.1,1.1c-1.6,1.2-2.9,2.3-4.1,4C52.8,98.9,52.5,99,52.3,99z"/>
	</g>
	<g>
		<path class="st1" d="M51.3,46.8c-0.2,0-0.3-0.1-0.5-0.2C38.5,36.7,26.5,26,15.3,14.7c-0.3-0.3-0.3-0.8,0-1.1
			c0.3-0.3,0.8-0.3,1.1,0c11.2,11.2,23.1,21.9,35.4,31.8c0.3,0.3,0.4,0.7,0.1,1.1C51.8,46.7,51.6,46.8,51.3,46.8z"/>
	</g>
	<g>
		<path class="st1" d="M38.7,64.7c-0.2,0-0.3,0-0.4-0.1c-13-9.5-26.5-18.7-40.1-27.2c-0.4-0.2-0.5-0.7-0.2-1.1
			c0.2-0.4,0.7-0.5,1.1-0.2c13.7,8.6,27.2,17.8,40.2,27.3c0.3,0.2,0.4,0.7,0.2,1.1C39.2,64.6,38.9,64.7,38.7,64.7z"/>
	</g>
	<g>
		<path class="st1" d="M38.6,64.8c-0.1,0-0.3,0-0.4-0.1c-0.3-0.2-0.4-0.7-0.2-1.1c4-6,8.3-12,12.5-17.7c0.2-0.3,0.7-0.4,1.1-0.2
			c0.3,0.3,0.4,0.7,0.2,1.1c-4.3,5.8-8.5,11.7-12.5,17.7C39.1,64.7,38.8,64.8,38.6,64.8z"/>
	</g>
	<g>
		<path class="st1" d="M49.7,72.2c-0.2,0-0.5-0.1-0.6-0.3c-2.6-3.6-5.7-6.7-9.3-9.3c-0.3-0.2-0.4-0.7-0.2-1.1
			c0.2-0.3,0.7-0.4,1.1-0.2c3.7,2.7,7,5.9,9.7,9.6c0.2,0.3,0.2,0.8-0.2,1.1C50,72.1,49.9,72.2,49.7,72.2z"/>
	</g>
	<g>
		<path class="st1" d="M58.2,55.5c-0.1,0-0.3,0-0.4-0.1c-2.9-1.7-5.7-3.6-8.4-5.5c-0.3-0.2-0.4-0.7-0.2-1.1c0.2-0.3,0.7-0.4,1.1-0.2
			c2.7,1.9,5.5,3.8,8.3,5.5c0.4,0.2,0.5,0.7,0.3,1C58.7,55.4,58.4,55.5,58.2,55.5z"/>
	</g>
	<g>
		<path class="st1" d="M133.9,120.8c-0.2,0-0.3,0-0.4-0.1c-13.4-9.5-27.3-18.8-41.2-27.7c-0.3-0.2-0.5-0.7-0.2-1
			c4.2-6.9,8.6-13.6,12.5-19.5c0.2-0.3,0.6-0.4,1-0.3c14.7,7.2,29.3,14.9,43.6,22.8c0.4,0.2,0.5,0.7,0.3,1c-0.2,0.4-0.7,0.5-1,0.3
			c-14.1-7.8-28.5-15.3-43-22.5c-3.7,5.5-7.8,11.8-11.7,18.2c13.7,8.7,27.4,17.9,40.6,27.3c0.3,0.2,0.4,0.7,0.2,1.1
			C134.4,120.7,134.1,120.8,133.9,120.8z"/>
	</g>
	<g>
		<path class="st1" d="M93.6,90.8c-0.2,0-0.4-0.1-0.5-0.2c-2.3-2-4.8-3.8-7.4-5.4c-0.4-0.2-0.5-0.7-0.3-1c0.2-0.4,0.7-0.5,1-0.3
			c2.7,1.6,5.3,3.5,7.6,5.6c0.3,0.3,0.3,0.8,0.1,1.1C94,90.7,93.8,90.8,93.6,90.8z"/>
	</g>
	<g>
		<path class="st1" d="M103.6,74.6c-0.1,0-0.2,0-0.3-0.1c-5.5-2.5-10.4-5.9-14.7-10.1c-1-1-2-2.1-3-3.1c-2.3-2.4-4.6-5-7.4-6.8
			c-0.4-0.2-0.5-0.7-0.2-1.1c0.2-0.4,0.7-0.5,1.1-0.2c2.9,1.9,5.4,4.5,7.7,7c1,1,2,2.1,3,3.1c4.1,4.1,8.9,7.4,14.3,9.8
			c0.4,0.2,0.6,0.6,0.4,1C104.2,74.4,103.9,74.6,103.6,74.6z"/>
	</g>
	<g>
		<path class="st1" d="M83.2,64c-0.2,0-0.4-0.1-0.5-0.2l-4.5-4.6c-0.3-0.3-0.3-0.8,0-1.1c0.3-0.3,0.8-0.3,1.1,0l4.5,4.6
			c0.3,0.3,0.3,0.8,0,1.1C83.5,63.9,83.4,64,83.2,64z"/>
	</g>
	<g>
		<path class="st1" d="M97.1,46.6c-0.1,0-0.3,0-0.4-0.1c-3-2-5.9-4.1-9-6.3c-1.7-1.2-3.5-2.5-5.4-3.8c-0.2-0.1-0.3-0.3-0.3-0.5
			c0-0.2,0-0.4,0.1-0.6c5.1-7.2,8.8-13.9,12.7-20.9c2.5-4.5,5.1-9.1,8.1-14c0.2-0.4,0.7-0.5,1-0.2c0.4,0.2,0.5,0.7,0.2,1
			c-3,4.9-5.6,9.5-8,14c-3.8,6.9-7.4,13.4-12.4,20.4c1.7,1.2,3.2,2.3,4.8,3.4c2.9,2.1,5.6,4,8.4,5.9c9.3-10.1,18.6-21.1,27.6-31.8
			c0.3-0.3,0.8-0.4,1.1-0.1c0.3,0.3,0.4,0.8,0.1,1.1c-9.2,10.9-18.6,22.1-28.1,32.3C97.5,46.5,97.3,46.6,97.1,46.6z"/>
	</g>
	<g>
		<path class="st1" d="M88.8,64.4c-0.1,0-0.1,0-0.2,0c-0.4-0.1-0.7-0.5-0.6-0.9c1.3-6.4,2.8-13.7,7.4-19.2c0.3-0.3,0.8-0.4,1.1-0.1
			c0.3,0.3,0.4,0.8,0.1,1.1c-4.4,5.2-5.8,12.3-7,18.5C89.5,64.2,89.2,64.4,88.8,64.4z"/>
	</g>
	<g>
		<path class="st1" d="M70.7,50.3c-0.1,0-0.3,0-0.4-0.1c-0.3-0.2-0.4-0.7-0.2-1.1c0.7-1.1,1.8-1.7,2.8-2.4l0.4-0.2
			c3.7-2.5,7-5.9,9.3-9.7c0.2-0.4,0.7-0.5,1-0.3c0.4,0.2,0.5,0.7,0.3,1c-2.5,4-5.8,7.6-9.8,10.2L73.7,48c-0.9,0.6-1.8,1.2-2.4,2
			C71.2,50.2,71,50.3,70.7,50.3z"/>
	</g>
	<g>
		<path class="st1" d="M100.6,98c-0.2,0-0.3,0-0.4-0.1c-0.3-0.2-0.4-0.7-0.2-1.1c4.6-6.3,8.9-12.9,12.9-19.5c0.2-0.4,0.7-0.5,1-0.3
			c0.4,0.2,0.5,0.7,0.3,1c-4,6.7-8.4,13.3-13,19.7C101,97.9,100.8,98,100.6,98z"/>
	</g>
	<g>
		<path class="st1" d="M22.5,92.8c-0.2,0-0.4-0.1-0.6-0.2c-0.3-0.3-0.3-0.8,0-1.1c4.9-4.5,10-8.8,15.3-12.9c0.3-0.3,0.8-0.2,1.1,0.1
			c0.3,0.3,0.2,0.8-0.1,1.1c-5.2,4-10.3,8.4-15.2,12.8C22.9,92.7,22.7,92.8,22.5,92.8z"/>
	</g>
	<g>
		<path class="st1" d="M15.2,91c-0.2,0-0.4-0.1-0.6-0.3c-0.3-0.3-0.2-0.8,0.1-1.1c4.1-3.4,7.9-7,11.6-10.8c0.3-0.3,0.8-0.3,1.1,0
			c0.3,0.3,0.3,0.8,0,1.1c-3.7,3.9-7.6,7.6-11.7,11C15.5,91,15.3,91,15.2,91z"/>
	</g>
</g>
</svg>
