<?xml version="1.0" encoding="utf-8"?>
<!-- Generator: Adobe Illustrator 26.2.1, SVG Export Plug-In . SVG Version: 6.00 Build 0)  -->
<svg version="1.1" id="Layer_1" xmlns="http://www.w3.org/2000/svg" xmlns:xlink="http://www.w3.org/1999/xlink" x="0px" y="0px"
	 viewBox="0 0 126.9 116.2" style="enable-background:new 0 0 126.9 116.2;" xml:space="preserve">
<style type="text/css">
	.st0{fill:#EFB78E;}
	.st1{fill:#BA8760;}
	.st2{fill:#FFFFFF;}
	.st3{fill:#010101;}
	.st4{opacity:0.1294;}
</style>
<g>
	<g>
		<path class="st0" d="M62.7,0.8c-7.1-1.1-14.5,3.6-17.1,10.7c-2.6,7.1-0.5,15.8,5,20.7c5.4,4.9,13.6,5.9,20.1,2.7
			c5.4-2.7,9.5-8.2,10.3-14.5s-2-13-7-16.2C70.9,2.4,67.4,1.6,62.7,0.8z"/>
		<path class="st1" d="M62.6,37.7c-4.6,0-9.2-1.6-12.7-4.8c-5.7-5.2-7.9-14.3-5.2-21.6C47.5,3.8,55.5-1.2,62.8,0
			c5.1,0.8,8.6,1.6,11.5,3.5c5.2,3.4,8.3,10.4,7.4,17.1c-0.8,6.3-5,12.3-10.7,15.1C68.4,37,65.5,37.7,62.6,37.7z M60.6,1.5
			c-6,0-12,4.2-14.3,10.3c-2.5,6.7-0.5,15,4.7,19.8c5.1,4.6,12.9,5.7,19.1,2.6c5.2-2.6,9.1-8,9.8-13.8c0.8-6.1-2-12.4-6.6-15.4
			c-2.7-1.7-6-2.5-10.8-3.3l0,0C61.9,1.6,61.3,1.5,60.6,1.5z"/>
	</g>
	<g>
		<path class="st2" d="M107.7,78.5c-7.1-1.1-14.5,3.6-17.1,10.7c-2.6,7.1-0.5,15.8,5,20.7c5.4,4.9,13.6,5.9,20.1,2.7
			c5.4-2.7,9.5-8.2,10.3-14.5c0.8-6.2-2-13-7-16.2C115.9,80,112.4,79.2,107.7,78.5z"/>
		<path class="st1" d="M107.6,115.3c-4.6,0-9.2-1.6-12.7-4.8c-5.7-5.2-7.9-14.3-5.2-21.6c2.8-7.5,10.7-12.4,18.1-11.2l0,0
			c5.1,0.8,8.6,1.6,11.5,3.5c5.2,3.4,8.3,10.4,7.4,17.1c-0.8,6.3-5,12.3-10.7,15.1C113.4,114.6,110.5,115.3,107.6,115.3z
			 M105.6,79.2c-6,0-12,4.2-14.3,10.3c-2.5,6.7-0.5,15,4.7,19.8c5.1,4.6,12.9,5.7,19.1,2.6c5.2-2.6,9.1-8,9.8-13.8
			c0.8-6.1-2-12.4-6.6-15.4c-2.7-1.7-6-2.5-10.8-3.3C106.9,79.2,106.3,79.2,105.6,79.2z"/>
	</g>
	<g>
		<path class="st2" d="M19.1,79.4C12,78.2,4.6,83,2,90.1c-2.6,7.1-0.5,15.8,5,20.7c5.4,4.9,13.6,5.9,20.1,2.7
			c5.4-2.7,9.5-8.2,10.3-14.5c0.8-6.2-2-13-7-16.2C27.4,80.9,23.8,80.1,19.1,79.4z"/>
		<path class="st1" d="M19,116.2c-4.6,0-9.2-1.6-12.7-4.8c-5.7-5.2-7.9-14.3-5.2-21.6C4,82.3,11.9,77.4,19.2,78.5l0,0
			c5.1,0.8,8.6,1.6,11.5,3.5c5.2,3.4,8.3,10.4,7.4,17.1c-0.8,6.3-5,12.3-10.7,15.1C24.8,115.5,21.9,116.2,19,116.2z M17.1,80.1
			c-6,0-12,4.2-14.3,10.3c-2.5,6.7-0.5,15,4.7,19.8c5.1,4.6,12.9,5.7,19.1,2.6c5.2-2.6,9.1-8,9.8-13.8c0.8-6.1-2-12.4-6.6-15.4
			c-2.7-1.7-6-2.5-10.8-3.3l0,0C18.3,80.1,17.7,80.1,17.1,80.1z"/>
	</g>
	<g>
		<path class="st1" d="M25.6,74.6c-0.1,0-0.3,0-0.4-0.1c-0.4-0.2-0.5-0.8-0.3-1.2l20.8-35.8c0.2-0.4,0.8-0.5,1.2-0.3
			c0.4,0.2,0.5,0.8,0.3,1.2L26.4,74.1C26.2,74.4,25.9,74.6,25.6,74.6z"/>
	</g>
	<g>
		<path class="st1" d="M101,72.9c-0.3,0-0.5-0.1-0.7-0.3c-8.1-10.4-15.9-21.1-23.3-32c-0.3-0.4-0.2-0.9,0.2-1.2
			c0.4-0.3,0.9-0.2,1.2,0.2c7.4,10.8,15.2,21.6,23.2,31.9c0.3,0.4,0.2,0.9-0.1,1.2C101.4,72.9,101.2,72.9,101,72.9z"/>
	</g>
	<g>
		<path class="st1" d="M42.3,103.8c-0.5,0-0.9-0.4-0.9-0.9c0-0.5,0.4-0.9,0.9-0.9l39.9-0.2c0,0,0,0,0,0c0.5,0,0.9,0.4,0.9,0.9
			c0,0.5-0.4,0.9-0.9,0.9L42.3,103.8C42.3,103.8,42.3,103.8,42.3,103.8z"/>
	</g>
	<g>
		<path class="st3" d="M5.3,93c-0.1,0-0.1,0-0.2,0C5,92.9,4.9,92.7,5,92.6c2.2-3.6,4.7-6.9,7.5-10c0.1-0.1,0.3-0.1,0.4,0
			c0.1,0.1,0.1,0.3,0,0.4c-2.8,3.1-5.3,6.4-7.4,9.9C5.4,93,5.4,93,5.3,93z"/>
	</g>
	<g>
		<path class="st3" d="M5.5,100.7c-0.1,0-0.1,0-0.2-0.1c-0.1-0.1-0.2-0.3-0.1-0.4l13.6-18c0.1-0.1,0.3-0.1,0.4-0.1
			c0.1,0.1,0.2,0.3,0.1,0.4l-13.6,18C5.6,100.7,5.5,100.7,5.5,100.7z"/>
	</g>
	<g>
		<path class="st3" d="M8,106.2c-0.1,0-0.1,0-0.2-0.1c-0.1-0.1-0.2-0.3-0.1-0.4l15.9-22.1c0.1-0.1,0.3-0.2,0.4-0.1
			c0.1,0.1,0.2,0.3,0.1,0.4L8.3,106.1C8.2,106.1,8.1,106.2,8,106.2z"/>
	</g>
	<g>
		<path class="st3" d="M12.3,111.1c-0.1,0-0.1,0-0.2,0c-0.1-0.1-0.2-0.3-0.1-0.4l15.9-24.1c0.1-0.1,0.3-0.2,0.4-0.1
			c0.1,0.1,0.2,0.3,0.1,0.4L12.5,111C12.5,111.1,12.4,111.1,12.3,111.1z"/>
	</g>
	<g>
		<path class="st3" d="M18.8,111.4c-0.1,0-0.1,0-0.2,0c-0.1-0.1-0.2-0.3-0.1-0.4l13.2-20.1c0.1-0.1,0.3-0.2,0.4-0.1
			c0.1,0.1,0.2,0.3,0.1,0.4l-13.2,20.1C19,111.4,18.9,111.4,18.8,111.4z"/>
	</g>
	<g>
		<path class="st3" d="M26.1,109.6c-0.1,0-0.1,0-0.2-0.1c-0.1-0.1-0.2-0.3-0.1-0.4L34,97.3c0.1-0.1,0.3-0.2,0.4-0.1
			c0.1,0.1,0.2,0.3,0.1,0.4l-8.1,11.8C26.2,109.5,26.2,109.6,26.1,109.6z"/>
	</g>
	<g class="st4">
		<path class="st3" d="M81,17.9c0.2-1.4,0.5-5-1.1-5.5c-0.1-0.7-0.3-1.5-0.5-2.3c-0.2-0.6-0.3-1.3-0.7-1.8c0-0.2-0.1-0.4-0.2-0.7
			c-0.5-1-2.1-0.8-2.3,0.3c-0.2,0.9-0.2,1.8,0,2.7c0.1,0.4,0.2,0.8,0.4,1.1c0.2,1.2,0.3,2.1,0.4,3.2c0,3.3,0,5.4-0.7,8.1
			c0,0.1-0.1,0.1-0.1,0.2c-0.5,0.6-0.7,1.1-3,3.4c-3.4,3.3-6.2,4.4-10.8,4.5C58.8,31,57,30.6,53,29.2c-2.3-0.6-3.3,2.8-1,3.5
			c0.4,0.2,0.8,0.3,1.2,0.4c0,0.5,0.3,1,0.8,1.3c6.5,3.3,15.1,3.2,20.4-2.4c1.1-1.2,2.2-2.5,3.1-3.8c0.3-0.6,0.6-1.2,0.9-1.9
			c0.4-0.6,0.7-1.1,1-1.7c0.8-1.5,1.2-3.1,1.4-4.8C80.8,19.4,81.1,17.2,81,17.9z"/>
	</g>
	<g class="st4">
		<path class="st3" d="M125.5,93.3c0-1.2-1.7-1.8-2.3-0.7c-0.5,1.7-0.1,3.2-0.6,4.9c-0.3,1-0.6,2-0.9,2.9c-0.1,0.2-0.2,0.4-0.3,0.5
			c-0.4,0.6-0.7,1.1-1.1,1.7c-0.7,0.8-1.4,1.6-2.3,2.3c-1.2,0.9-5.1,3.3-7.4,4.5c-2.5,1.5-7.6,0.9-10.9-1.1
			c-1.1-0.6-1.1-1.1-2.7-2.1c-1.6-0.8-3.1,1.5-1.8,2.7c1.8,1.8,3.9,3.4,6.3,4.2c2.5,0.7,5.1,1,7.7,0.6c0.8-0.2,1.6-0.4,2.3-0.8
			c0.1,0.3,0.3,0.6,0.6,0.8c1.1,0.5,2.3-0.3,3.2-0.7c2.8-1.6,5.2-4,6.8-6.8c0-0.1,0.1-0.2,0.1-0.2c0.1-0.2,0.6-1.3,0.8-1.6
			c0-0.1,0.1-0.1,0.1-0.2c0.9-1.4,1.6-3,2-4.6c0.3-1.1,0.3-2.1,0.4-3.2c0-0.3,0-0.6,0-0.9C125.6,94.1,125.6,94,125.5,93.3z"/>
	</g>
	<g class="st4">
		<path class="st3" d="M36.6,95.7c-0.1-0.6-0.2-1.2-0.7-1.5c-0.6-0.4-1.4-0.1-1.7,0.5c-0.2,0.3-0.2,0.6-0.1,1c0,0,0,0,0,0
			c0.1,0.9,0.1,0.6,0.2,1.4c0.1,1.9-0.1,2.4-0.9,4.5c-0.2,0.4,0,0,0.1-0.1c-0.2,0.8-2.2,4.2-3.1,4.9c-2.2,2.3-4,3.6-6.1,4.3
			c-3.7,1.4-8.9,0.1-12.3-1.5c-2.1-1.2-2.5-1.5-4.1-3.1c-0.8-0.7-1.5-2-2.3-2.4c-1.5-0.7-2.9,1.4-1.7,2.5c2.3,2.9,5.1,5.5,8.6,6.9
			c3.5,1.5,7.4,2.4,11.2,1.6c5.4-1.2,10.1-6.2,12.2-11.2c0.5-1.2,0.8-2.6,0.9-3.9c0,0,0,0,0,0C36.8,98.1,36.8,96.9,36.6,95.7z"/>
	</g>
</g>
</svg>
