<svg id="Layer_1" data-name="Layer 1" xmlns="http://www.w3.org/2000/svg" viewBox="0 0 142.26 108.25"><defs><style>.cls-1{fill:#fff;}.cls-2{fill:#010101;}.cls-3{fill:#ba8760;}.cls-4{opacity:0.13;}.cls-5{fill:#0c1215;}</style></defs><path class="cls-1" d="M98.63,59.92c.36-3.62-2.07-6.86-4.28-9.76-2.49-3.28-4.89-6.74-6.1-10.68a20.51,20.51,0,0,1,5.81-20.71,21.2,21.2,0,0,1,21.23-3.91,15.8,15.8,0,0,1,7,4.9c2.07,2.68,3,6.08,3.58,9.42.66,3.57,1,7.35-.25,10.75-1,2.79-3.11,5.06-5,7.4a57.26,57.26,0,0,0-7,11.61,3,3,0,0,1-.64,1,2.7,2.7,0,0,1-1.69.53A52.48,52.48,0,0,1,98.63,59.92Z"/><path class="cls-2" d="M9.41,98.82a.25.25,0,0,1-.23-.16L6.39,91.3A.25.25,0,0,1,6.53,91a.26.26,0,0,1,.33.15l2.79,7.36a.25.25,0,0,1-.15.33Z"/><path class="cls-2" d="M13.76,102.35a.25.25,0,0,1-.23-.16l-2.7-6.75a.26.26,0,0,1,.14-.33.25.25,0,0,1,.33.15L14,102a.25.25,0,0,1-.14.33Z"/><path class="cls-2" d="M16.09,102a.24.24,0,0,1-.23-.14l-1.22-2.52a.25.25,0,0,1,.12-.34.26.26,0,0,1,.34.12l1.22,2.52a.26.26,0,0,1-.12.34Z"/><path class="cls-2" d="M30.84,79.65a.26.26,0,0,1-.24-.18,55.82,55.82,0,0,1-2.54-11.65.26.26,0,0,1,.51,0,55.53,55.53,0,0,0,2.51,11.54.24.24,0,0,1-.16.32Z"/><path class="cls-2" d="M34.4,79.72a.25.25,0,0,1-.23-.16A24.27,24.27,0,0,1,32.38,72a.26.26,0,0,1,.24-.27.25.25,0,0,1,.27.23,23.59,23.59,0,0,0,1.75,7.41.26.26,0,0,1-.14.33Z"/><path class="cls-2" d="M38.29,80.7a.25.25,0,0,1-.23-.17L36.57,76.3a.27.27,0,0,1,.16-.33.26.26,0,0,1,.32.16l1.48,4.23a.24.24,0,0,1-.15.32Z"/><path class="cls-2" d="M75.56,63.5a.25.25,0,0,1-.25-.18,25.12,25.12,0,0,1-.8-7.37A.26.26,0,0,1,75,56a24.4,24.4,0,0,0,.78,7.22.25.25,0,0,1-.18.31Z"/><path class="cls-2" d="M79.49,64.07a.27.27,0,0,1-.24-.17A23.1,23.1,0,0,1,78,58.59a.25.25,0,0,1,.5-.06,22.68,22.68,0,0,0,1.19,5.2.25.25,0,0,1-.15.32Z"/><path class="cls-2" d="M82.83,64.2a.26.26,0,0,1-.24-.18l-1-3.25a.25.25,0,0,1,.17-.32.26.26,0,0,1,.32.16l1,3.26a.26.26,0,0,1-.17.32Z"/><path class="cls-2" d="M129.86,100.79a.26.26,0,0,1-.19-.42,24.21,24.21,0,0,0,5.13-9.43.25.25,0,0,1,.49.13,24.63,24.63,0,0,1-5.24,9.63A.25.25,0,0,1,129.86,100.79Z"/><path class="cls-2" d="M125.94,100.7a.28.28,0,0,1-.17-.07.25.25,0,0,1,0-.36,24.07,24.07,0,0,0,3.87-5.8.25.25,0,0,1,.46.21,24.93,24.93,0,0,1-4,5.93A.25.25,0,0,1,125.94,100.7Z"/><path class="cls-2" d="M121.65,101.28a.33.33,0,0,1-.13,0,.26.26,0,0,1-.08-.35l2.48-4a.26.26,0,0,1,.44.27l-2.49,4A.27.27,0,0,1,121.65,101.28Z"/><path class="cls-3" d="M98.13,60.32a85.19,85.19,0,0,0,16.67-.2c.37,4.68.72,9.47-.49,14-.59,2.21-1.67,4.47-3.67,5.6-2.37,1.33-5.32.71-8,0a7.45,7.45,0,0,1-2.89-1.23c-1.66-1.38-1.78-3.85-1.77-6C98.06,68.32,98.09,64.12,98.13,60.32Z"/><g class="cls-4"><path class="cls-2" d="M127.29,31.75a1,1,0,0,0-1.57.2,2.43,2.43,0,0,0-.24,1.08l0,.31c-.07.32-.27,1.38-.35,1.62.13-.31.13-.3,0,0a22.34,22.34,0,0,1-1.85,4.31,13.7,13.7,0,0,1-1.57,2.7c-1,1.47-3.94,4.22-5.59,6.61-.49.67-1.56,2.21-1.71,2.48h0a16.52,16.52,0,0,0-1.71,2.53c-.92,1.84-.83,1.8-1.41,3.13a8.22,8.22,0,0,0-.82,2.93.65.65,0,0,0,0,.2,2.41,2.41,0,0,0-.24,1.92c.55,1.78.57,3.86.47,7.15s.1,4-.75,7.12a7.56,7.56,0,0,1-.87,2,2.79,2.79,0,0,0-.44,1.09,1.78,1.78,0,0,0,3.16,1.32,13.46,13.46,0,0,0,2.69-6.1c.45-2.8.55-5.26,1-8.35a18,18,0,0,0,0-4,4.63,4.63,0,0,0-.74-2.48h0l-.46.07-.81.1a25.71,25.71,0,0,1,4.15-9c1.37-1.7,2.9-3.26,4.36-4.89A21.94,21.94,0,0,0,125.46,41c.51-1.25.43-1.13.76-2,0-.14,0,0-.08.16q.28-.66.54-1.35a10,10,0,0,0,.53-2.17,0,0,0,0,0,0,0C127.47,34.08,128,32.54,127.29,31.75Z"/></g><g class="cls-4"><path class="cls-2" d="M111.12,57l.12-.26,0-.1Z"/></g><path class="cls-5" d="M107.1,81.63a14.11,14.11,0,0,1-2-.14c-1.73-.26-5.91-1.22-7.3-4.75a10.82,10.82,0,0,1-.54-3.84l-.2-12.82a.69.69,0,0,1,.25-.57.76.76,0,0,1,.59-.2,137.57,137.57,0,0,0,16.85.08.77.77,0,0,1,.85.69,56,56,0,0,1-.45,14,10.2,10.2,0,0,1-1.7,4.89C111.81,81.16,109.12,81.63,107.1,81.63ZM98.62,60.9l.19,12a9.72,9.72,0,0,0,.43,3.3c1.1,2.79,4.64,3.58,6.11,3.8,3.06.44,5.65-.27,6.93-1.91a8.73,8.73,0,0,0,1.39-4.17,53.11,53.11,0,0,0,.5-12.93A152.48,152.48,0,0,1,98.62,60.9Z"/><path class="cls-2" d="M113.74,60.82h-.11A.76.76,0,0,1,113,60c.69-4.72,3.77-8.46,6.75-12.09,2.84-3.45,5.52-6.72,6.36-10.78a26,26,0,0,0-1.36-12,15.36,15.36,0,0,0-5.18-7.37c-4.15-3-11.25-5-16.8-3.28a22.31,22.31,0,0,0-12.18,8.73A19.19,19.19,0,0,0,87.83,35.8a23.86,23.86,0,0,0,5.28,12.06c.41.5.84,1,1.27,1.48A29,29,0,0,1,97,52.63a14.33,14.33,0,0,1,2.22,7.21.76.76,0,0,1-.74.79.77.77,0,0,1-.79-.74,12.72,12.72,0,0,0-2-6.44,25.78,25.78,0,0,0-2.44-3.11c-.43-.49-.88-1-1.3-1.52A25.42,25.42,0,0,1,86.32,36a20.68,20.68,0,0,1,3-13.69,23.77,23.77,0,0,1,13-9.36c6-1.92,13.69.31,18.15,3.49a16.86,16.86,0,0,1,5.72,8.08,27.3,27.3,0,0,1,1.42,12.88c-.91,4.42-3.84,8-6.68,11.44-3,3.62-5.78,7-6.42,11.34A.75.75,0,0,1,113.74,60.82Z"/><path class="cls-2" d="M109.19,60.62a.76.76,0,0,1-.76-.76v-.07c0-4.4.13-9,.42-13.68a27.14,27.14,0,0,1,.74-5.4,6.7,6.7,0,0,1-3.14-2.2l0,0c-.08.15-.16.3-.25.45-1.09,2-2.32,3-3.78,3.14a3.55,3.55,0,0,1-.73,0c.3,1.09.54,2.18.74,3.22a71.32,71.32,0,0,1,1.3,14.44.76.76,0,1,1-1.52,0,69.06,69.06,0,0,0-1.28-14.13,38,38,0,0,0-1-4l-.41-.18a11.93,11.93,0,0,1-5.38-4.3A2.47,2.47,0,0,1,94,34.33a2.14,2.14,0,0,1,2.45-.69,4,4,0,0,1,1.7,1.28,17,17,0,0,1,3,5.47,2.65,2.65,0,0,0,1.1.16c.91-.09,1.78-.89,2.6-2.36.22-.4.43-.81.63-1.22a13.39,13.39,0,0,1-1.19-5,9.1,9.1,0,0,1,1.13-5.74,1.57,1.57,0,0,1,1.7-.81,1.52,1.52,0,0,1,.88.74,7.85,7.85,0,0,1,.7,5.43,22.27,22.27,0,0,1-1.52,5.27,6,6,0,0,0,.46.66,5.35,5.35,0,0,0,2.44,1.7,12,12,0,0,1,4.1-5.18,2.2,2.2,0,0,1,1.5-.49,1.49,1.49,0,0,1,1.14.79A3,3,0,0,1,116.7,37a7,7,0,0,1-3.63,3.72,4.68,4.68,0,0,1-2,.3,24.8,24.8,0,0,0-.73,5.23c-.28,4.64-.43,9.21-.42,13.58v.07A.76.76,0,0,1,109.19,60.62ZM95.65,35a.54.54,0,0,0-.43.16c-.14.2,0,.64.23,1.1a9,9,0,0,0,3.7,3.18A14.14,14.14,0,0,0,97,35.92a2.75,2.75,0,0,0-1-.84A.92.92,0,0,0,95.65,35Zm19.82.06a1.7,1.7,0,0,0-.41.24,10.43,10.43,0,0,0-3.41,4.12,3.1,3.1,0,0,0,.89-.2,5.6,5.6,0,0,0,2.8-3A1.56,1.56,0,0,0,115.47,35.09Zm-8.73-8a.18.18,0,0,0,0,.07,7.35,7.35,0,0,0-.88,4.78,14.2,14.2,0,0,0,.5,3,20.86,20.86,0,0,0,.89-3.52A6.29,6.29,0,0,0,106.74,27.05Zm-.11-.16Z"/><path class="cls-2" d="M103.17,108.25c-4.51,0-9-.16-13.41-.33-12.67-.47-25.53-.59-38-.7-13.13-.12-26.71-.24-39.73-.79l-.19,0c-3.79-1.11-7.16-4.87-9.32-7.83a12.62,12.62,0,0,1-2-11.16A14.06,14.06,0,0,1,7,80a22.46,22.46,0,0,1,18.66-1.41c-3.7-7.19-3.05-16.75,1.85-24.53,5.19-8.23,16.45-14.91,27.12-11,6,2.16,10.9,7.38,14.61,15.54a12.27,12.27,0,0,1,1.47-4,22.46,22.46,0,0,1,7.25-7.15,18.29,18.29,0,0,1,6.41-3,8.31,8.31,0,0,1,7.1,1.57A.76.76,0,0,1,91.52,47a.77.77,0,0,1-1.08.08,6.72,6.72,0,0,0-5.79-1.22,16.92,16.92,0,0,0-5.86,2.79C75.43,50.9,73.34,53,72,55.28a10,10,0,0,0-1.27,6.94c.24.63.47,1.27.69,1.93a.76.76,0,0,1-1.39.6,8.85,8.85,0,0,1-.76-2.09c-3.69-9.8-8.79-15.93-15.19-18.24C44.53,41,33.72,47,28.78,54.85c-5.05,8-5.33,18-.71,24.84a.76.76,0,0,1-.95,1.12c-6.33-2.91-13.94-2.72-19.37.48A12.49,12.49,0,0,0,2,87.89a11.05,11.05,0,0,0,1.8,9.78c2,2.75,5.08,6.22,8.43,7.24,13,.54,26.51.67,39.59.79,12.45.11,25.32.23,38,.7,9,.34,18.33.68,27.41-.42,9.54-1.15,16-4.06,19.9-8.88a17.05,17.05,0,0,0-22-25.3.76.76,0,1,1-.78-1.31,18.58,18.58,0,0,1,24,27.56c-4.12,5.15-10.95,8.24-20.9,9.44A117.09,117.09,0,0,1,103.17,108.25Z"/><path class="cls-2" d="M19,71.59a.77.77,0,0,1-.7-.46,21,21,0,0,1,1.53-19.62.76.76,0,0,1,1.29.82,19.77,19.77,0,0,0-1.43,18.19.75.75,0,0,1-.39,1A.82.82,0,0,1,19,71.59Z"/><path class="cls-2" d="M12.94,72.73a.77.77,0,0,1-.68-.41A26.48,26.48,0,0,1,9.27,62a.76.76,0,1,1,1.52-.11,25,25,0,0,0,2.82,9.73.76.76,0,0,1-.32,1A.73.73,0,0,1,12.94,72.73Z"/><path class="cls-5" d="M133.66,26.94a.75.75,0,0,1-.73-.58.76.76,0,0,1,.52-.92l5.55-1.6a1.07,1.07,0,0,1,1.33.41.84.84,0,0,1,.06.74c-.23.54-.23.54-6.56,1.93Z"/><path class="cls-5" d="M107.16,8a.76.76,0,0,1-.76-.7L105.88.82A.76.76,0,0,1,107.4.7l.52,6.47a.77.77,0,0,1-.7.82Z"/><path class="cls-5" d="M88,16.28a.76.76,0,0,1-.38-.11L82.9,13.44a1.14,1.14,0,0,1-.67-1,.81.81,0,0,1,.46-.69c.49-.24.68-.33,5.76,3.19a.77.77,0,0,1,.21,1A.78.78,0,0,1,88,16.28Z"/><path class="cls-5" d="M74.43,36.68a.76.76,0,0,1-.12-1.51l6.08-1a.76.76,0,0,1,.87.63.77.77,0,0,1-.62.88l-6.08,1Z"/><path class="cls-5" d="M122.76,12.59a.71.71,0,0,1-.44-.15.75.75,0,0,1-.18-1.06l3.52-4.91a.76.76,0,1,1,1.24.89l-3.52,4.91A.75.75,0,0,1,122.76,12.59Z"/><path class="cls-5" d="M133.91,50.05a.79.79,0,0,1-.5-.18L129,46a.77.77,0,0,1-.07-1.08.76.76,0,0,1,1.07-.07l4.44,3.87a.76.76,0,0,1,.08,1.07A.78.78,0,0,1,133.91,50.05Z"/></svg>