<?xml version="1.0" encoding="UTF-8"?><svg id="a" xmlns="http://www.w3.org/2000/svg" xmlns:xlink="http://www.w3.org/1999/xlink" viewBox="0 0 800 800"><defs><style>.al{fill:none;}.am{fill:#050e13;}.an{fill:#fff;}.ao{fill:#bb8760;}.ap{clip-path:url(#v);}.aq{clip-path:url(#u);}.ar{clip-path:url(#t);}.as{clip-path:url(#y);}.at{clip-path:url(#x);}.au{clip-path:url(#w);}.av{clip-path:url(#c);}.aw{clip-path:url(#f);}.ax{clip-path:url(#e);}.ay{clip-path:url(#d);}.b`{clip-path:url(#n);}.ba{clip-path:url(#m);}.bb{clip-path:url(#l);}.bc{clip-path:url(#k);}.bd{clip-path:url(#j);}.be{clip-path:url(#i);}.bf{clip-path:url(#h);}.bg{clip-path:url(#g);}.bh{clip-path:url(#s);}.bi{clip-path:url(#r);}.bj{clip-path:url(#q);}.bk{clip-path:url(#p);}.bl{clip-path:url(#o);}.bm{clip-path:url(#ah);}.bn{clip-path:url(#ag);}.bo{clip-path:url(#ab);}.bp{clip-path:url(#aa);}.bq{clip-path:url(#ak);}.br{clip-path:url(#ac);}.bs{clip-path:url(#af);}.bt{clip-path:url(#ae);}.bu{clip-path:url(#aj);}.bv{clip-path:url(#ai);}.bw{clip-path:url(#ad);}.bx{clip-path:url(#a`);}</style><clipPath id="c"><rect class="al" width="800" height="800"/></clipPath><clipPath id="d"><rect class="al" width="800" height="800"/></clipPath><clipPath id="e"><rect class="al" width="800" height="800"/></clipPath><clipPath id="f"><rect class="al" width="800" height="800"/></clipPath><clipPath id="g"><rect class="al" width="800" height="800"/></clipPath><clipPath id="h"><rect class="al" width="800" height="800"/></clipPath><clipPath id="i"><rect class="al" width="800" height="800"/></clipPath><clipPath id="j"><rect class="al" width="800" height="800"/></clipPath><clipPath id="k"><rect class="al" width="800" height="800"/></clipPath><clipPath id="l"><rect class="al" width="800" height="800"/></clipPath><clipPath id="m"><rect class="al" width="800" height="800"/></clipPath><clipPath id="n"><rect class="al" width="800" height="800"/></clipPath><clipPath id="o"><rect class="al" width="800" height="800"/></clipPath><clipPath id="p"><rect class="al" width="800" height="800"/></clipPath><clipPath id="q"><rect class="al" width="800" height="800"/></clipPath><clipPath id="r"><rect class="al" width="800" height="800"/></clipPath><clipPath id="s"><rect class="al" width="800" height="800"/></clipPath><clipPath id="t"><rect class="al" width="800" height="800"/></clipPath><clipPath id="u"><rect class="al" width="800" height="800"/></clipPath><clipPath id="v"><rect class="al" width="800" height="800"/></clipPath><clipPath id="w"><rect class="al" width="800" height="800"/></clipPath><clipPath id="x"><rect class="al" width="800" height="800"/></clipPath><clipPath id="y"><rect class="al" width="800" height="800"/></clipPath><clipPath id="a`"><rect class="al" width="800" height="800"/></clipPath><clipPath id="aa"><rect class="al" width="800" height="800"/></clipPath><clipPath id="ab"><rect class="al" width="800" height="800"/></clipPath><clipPath id="ac"><rect class="al" width="800" height="800"/></clipPath><clipPath id="ad"><rect class="al" width="800" height="800"/></clipPath><clipPath id="ae"><rect class="al" width="800" height="800"/></clipPath><clipPath id="af"><rect class="al" width="800" height="800"/></clipPath><clipPath id="ag"><rect class="al" width="800" height="800"/></clipPath><clipPath id="ah"><rect class="al" width="800" height="800"/></clipPath><clipPath id="ai"><rect class="al" width="800" height="800"/></clipPath><clipPath id="aj"><rect class="al" width="800" height="800"/></clipPath><clipPath id="ak"><rect class="al" width="800" height="800"/></clipPath></defs><g id="b"><g><g class="av"><rect class="ao" width="800" height="800"/></g><g class="ay"><rect class="an" x="34.4" y="35.4" width="728.9" height="379.3"/></g><g class="ax"><g><path d="M102.2,72c14.4,0,24.9,7.2,24.9,22.3,0,7.6-3.3,12.7-7.8,15.7,6.1,2.4,11.1,8.7,11.1,18.7,0,15.3-10.7,23.3-25.9,23.3h-35.8V72h33.5Zm-17.1,32.1h15.9c5.6,0,9.2-2.6,9.2-8.7s-4.1-8.9-10.1-8.9h-15v17.6Zm0,33.2h17.4c6.4,0,10.9-2.8,10.9-9.5s-4.6-9.7-10.7-9.7h-17.6v19.2Z"/><path d="M155.5,129.3c.3,6.8,4.5,11.2,11.6,11.2,5.5,0,9-2.2,10.2-6.1l15.7,.7c-1.9,10.5-12.5,18-25.5,18-16.9,0-28.6-11-28.6-28.8s11.7-28.8,28.1-28.8,26.4,10.3,26.4,27.5v6.2h-37.9v.1Zm0-10.4h22.3c-.3-6.7-3.7-11.1-10.8-11.1-6.6,0-11,4.1-11.5,11.1Z"/><path d="M246.2,113.5l-15.5,.9c-.2-4-2.2-6.7-7.1-6.7-4.2,0-6.3,1.7-6.3,4.7,0,3.9,4.2,4.4,10.8,6.1,11,2.9,18.8,6.3,18.8,16.4,0,11.2-8.2,18.4-22.7,18.4s-22.4-6.4-23.5-18l15.6-.9c.2,4.1,2.7,6.8,8,6.8,4.3,0,7-1.8,7-5s-2-4.4-10.1-6.3c-11.8-3-19.6-5.5-19.6-16.8,0-10.6,8.2-17.4,22.1-17.4,14.1-.1,21.5,7.5,22.5,17.8Z"/><path d="M277.6,130.7c0,6.1,4,8.3,8.3,8.3,2.2,0,3.6-.3,4.8-.5v13.9c-2.2,.3-4.4,.6-8.7,.6-12,0-20.2-5.8-20.1-18.6l.1-24.3h-10.1v-13.4h10.2l.1-18.3h15.8l-.1,18.3h12.9v13.5h-13.1l-.1,20.5Z"/></g></g><g class="aw"><path d="M137.9,263l-17-50.7-17,50.7h-14l-27.9-80h18l17.1,52,17-52h13.6l17.1,52,17-52h18l-27.9,80h-14Z"/></g><g class="bg"><path d="M232.5,235.4c0,17.3-12.5,28.8-29.4,28.8s-29.4-11.4-29.4-28.8,12.5-28.8,29.4-28.8,29.4,11.3,29.4,28.8Zm-43,0c0,9.6,5.6,15.3,13.6,15.3s13.6-5.7,13.6-15.3-5.6-15.4-13.6-15.4-13.6,5.6-13.6,15.4Z"/></g><g class="bf"><path d="M271.1,222.2c-9,0-14.7,5.1-14.7,12.7v28h-15.6v-55.3h15.1v6.3c2.4-3.6,6.7-6.8,15.2-6.8v15.1Z"/></g><g class="be"><path d="M314.4,207.7h18.9l-20.9,23.6,22.4,31.7h-18.9l-14.4-20-4.9,5.3v14.7h-15.6v-83.1h15.6v47.5l17.8-19.7Z"/></g><g class="bd"><path d="M399.7,235.4c0,17.3-11,28.8-26.8,28.8-7.1,0-12.6-2.7-15.5-5.9v32h-15.6v-82.6h14.8v5.8c2.9-3.9,8.7-6.8,16.4-6.8,15.7-.1,26.7,11.3,26.7,28.7Zm-42.2-1.3v2.6c0,8.9,5.3,14.1,13.1,14.1s13.4-5.6,13.4-15.4-5.6-15.4-13.4-15.4c-7.8,0-13.1,5.2-13.1,14.1Z"/></g><g class="bc"><g><path d="M408.4,263v-83.1h15.6v83.1h-15.6Z"/><path d="M482.4,228.8v34.2h-15.1v-4.5c-3.1,3.2-7.8,5.7-14.1,5.7-11.1,0-18.4-5.7-18.4-16.4,0-12.3,10.4-16.3,22.1-16.8l9.8-.5v-2.1c0-5.6-2.4-8.6-7.2-8.6-5.3,0-7.7,3.6-7.7,7.3l-15.6-.6c0-9.7,8.9-19.8,23.1-19.8,15-.1,23.1,7.6,23.1,22.1Zm-23.9,12.4c-4.7,.2-8,1.8-8,5.8,0,3.6,2.7,5,6.4,5,5.7,0,10-3.1,10-9v-2.4l-8.4,.6Z"/></g></g><g class="bb"><path d="M546.8,228l-15.3,1.3c-.7-5.7-4.9-9.3-10.9-9.3-7.3,0-12.5,5.6-12.5,15.4s5.2,15.3,12.5,15.3c6.1,0,10.2-3.4,11-9l15.2,1.4c-2.1,13.1-12.6,21.1-26.2,21.1-16.3,0-28.4-10.7-28.4-28.8s12-28.8,28.4-28.8c13.5,0,24.2,8,26.2,21.4Z"/></g><g class="ba"><path d="M568.2,240.3c.3,6.8,4.5,11.2,11.6,11.2,5.5,0,9-2.2,10.2-6.1l15.7,.7c-1.9,10.5-12.5,18-25.5,18-16.9,0-28.6-11-28.6-28.8s11.7-28.8,28.1-28.8,26.4,10.3,26.4,27.5v6.2h-37.9v.1Zm0-10.4h22.3c-.3-6.7-3.7-11.1-10.8-11.1-6.6,0-11,4-11.5,11.1Z"/></g><g class="b`"><path d="M656.7,224.4l-15.5,.9c-.2-4-2.2-6.7-7.1-6.7-4.2,0-6.3,1.7-6.3,4.7,0,3.9,4.2,4.4,10.8,6.1,11,2.9,18.8,6.3,18.8,16.4,0,11.2-8.2,18.4-22.7,18.4s-22.4-6.4-23.5-18l15.6-.9c.2,4.1,2.7,6.8,8,6.8,4.3,0,7-1.8,7-5s-2-4.4-10.1-6.3c-11.8-3-19.6-5.5-19.6-16.8,0-10.6,8.2-17.4,22.1-17.4,14.2,0,21.6,7.6,22.5,17.8Z"/></g><g class="bl"><path d="M676,185.7v17.4h-5.2v-17.4h-7.8v-5h20.7v5h-7.7Zm31.6,17.4v-11.3l-6.5,11.1h-2.4l-6.5-11.1v11.3h-5.2v-22.4h4.4l8.5,14.7,8.5-14.7h4.4v22.4h-5.2Z"/></g><g class="bk"><rect class="am" x="35.8" y="453.7" width="308.1" height="308.1"/></g><g class="bj"><g><g class="bi"><path class="an" d="M113.1,501v4.1c0,7.7-2.5,13.9-7.4,18.6-4.9,4.8-11.3,7.1-19,7.1-8.3,0-15.2-2.7-20.6-8.1-5.4-5.4-8.1-12-8.1-19.8s2.7-14.4,8.1-19.9c5.4-5.5,12.1-8.1,20.1-8.1,10,0,18.8,4.9,23.4,12.5l-9,5.2c-2.5-4.4-8.1-7.4-14.4-7.4-5.1,0-9.4,1.7-12.7,5.1-3.3,3.3-4.9,7.5-4.9,12.6s1.7,9.3,5,12.6c3.4,3.3,7.8,4.9,13.3,4.9,8.2,0,13.7-3.8,15.6-10.2h-16.3v-9.2h26.9Z"/></g><g class="bh"><path class="an" d="M128.9,498.1c1.7-4.9,6.1-7.4,11.1-7.4v11c-2.8-.4-5.5,.2-7.7,1.8-2.3,1.6-3.4,4.2-3.4,7.9v18.3h-9.4v-38.3h9.4v6.7h0Z"/></g><g class="ar"><path class="an" d="M155.9,514.8c1.3,4.8,4.9,7.2,10.8,7.2,3.8,0,6.7-1.3,8.6-3.8l8,4.6c-3.8,5.4-9.4,8.2-16.7,8.2-6.4,0-11.4-1.9-15.3-5.8-3.8-3.8-5.8-8.7-5.8-14.5s1.9-10.6,5.7-14.4c3.8-3.9,8.7-5.8,14.6-5.8s10.3,1.9,13.9,5.8c3.7,3.9,5.5,8.7,5.5,14.4,0,1.3-.1,2.6-.4,4.1h-28.9Zm19.4-7.7c-1.2-5.2-5-7.7-9.5-7.7-5.3,0-8.9,2.8-10.1,7.7h19.6Z"/></g><g class="aq"><path class="an" d="M220.8,491.5h9.9v38.3h-9.9v-4.5c-3,3.8-7.1,5.6-12.5,5.6-5.1,0-9.5-1.9-13.2-5.8-3.6-3.9-5.5-8.7-5.5-14.4s1.8-10.4,5.5-14.3,8-5.9,13.2-5.9,9.5,1.8,12.5,5.6v-4.6Zm-10.6,30c3.1,0,5.6-1,7.6-3,2.1-2.1,3.1-4.7,3.1-7.8s-1-5.8-3.1-7.7c-2-2.1-4.5-3.1-7.6-3.1s-5.6,1-7.6,3.1c-2,2-3,4.6-3,7.7s1,5.7,3,7.8c2,2,4.5,3,7.6,3"/></g><g class="ap"><path class="an" d="M263.2,501h-8.7v16c0,4.1,3,4.2,8.7,3.9v9c-13.6,1.5-18.6-2.4-18.6-12.9v-16h-6.7v-9.5h6.7v-7.7l9.9-3v10.7h8.7v9.5Z"/></g><g class="au"><path class="an" d="M85,543.6c5.1,0,9.5,1.8,13,5.2s5.3,7.7,5.3,12.8-1.8,9.4-5.3,12.8c-3.5,3.4-7.9,5.2-13,5.2h-9.4v17.6h-10.6v-53.7h20v.1Zm0,26.2c4.5,0,7.8-3.5,7.8-8.1s-3.3-8.1-7.8-8.1h-9.4v16.3h9.4v-.1Z"/></g><g class="at"><rect class="an" x="110.6" y="544.1" width="9.9" height="53.2"/></g><g class="as"><path class="an" d="M160.2,559h9.9v38.3h-9.9v-4.5c-3,3.8-7.1,5.6-12.5,5.6-5.1,0-9.5-1.9-13.2-5.8-3.6-3.9-5.4-8.7-5.4-14.4s1.8-10.4,5.4-14.3c3.7-3.9,8.1-5.9,13.2-5.9,5.4,0,9.5,1.8,12.5,5.6v-4.6Zm-10.7,29.9c3.1,0,5.6-1,7.6-3,2.1-2.1,3.1-4.7,3.1-7.8s-1-5.8-3.1-7.7c-2-2.1-4.5-3.1-7.6-3.1s-5.6,1-7.6,3.1c-2,2-3,4.6-3,7.7s1,5.8,3,7.8,4.6,3,7.6,3"/></g><g class="bx"><path class="an" d="M184.3,592.5c-3.8-3.9-5.8-8.7-5.8-14.4s1.9-10.5,5.8-14.4c3.9-3.9,8.7-5.8,14.5-5.8,7.4,0,14,3.8,17.2,9.9l-8.5,5c-1.5-3.1-4.8-5.1-8.7-5.1-5.9,0-10.3,4.4-10.3,10.5,0,3,1,5.5,2.9,7.5,1.9,1.9,4.4,2.9,7.4,2.9,4,0,7.3-1.9,8.8-5.1l8.6,4.9c-3.4,6.1-9.9,10-17.3,10-5.8,0-10.6-1.9-14.6-5.9"/></g><g class="bp"><path class="an" d="M232,582.2c1.3,4.8,4.9,7.2,10.8,7.2,3.8,0,6.7-1.3,8.6-3.8l8,4.6c-3.8,5.4-9.4,8.2-16.7,8.2-6.4,0-11.4-1.9-15.3-5.8-3.8-3.8-5.8-8.7-5.8-14.5s1.9-10.6,5.7-14.4c3.8-3.9,8.7-5.8,14.6-5.8s10.3,1.9,13.9,5.8c3.7,3.9,5.5,8.7,5.5,14.4,0,1.3-.2,2.6-.4,4.1h-28.9Zm19.4-7.7c-1.1-5.2-5-7.7-9.5-7.7-5.3,0-8.9,2.8-10,7.7h19.5Z"/></g><g class="bo"><polygon class="an" points="97.4 613.7 97.4 623.3 82.9 623.3 82.9 664.7 72.4 664.7 72.4 623.3 58 623.3 58 613.7 97.4 613.7"/></g><g class="br"><path class="an" d="M113.9,665.8c-5.7,0-10.5-1.9-14.4-5.8-3.9-3.9-5.8-8.7-5.8-14.4s1.9-10.4,5.8-14.3c3.9-3.9,8.7-5.9,14.4-5.9s10.5,2,14.4,5.9c3.9,3.9,5.9,8.7,5.9,14.3s-2,10.5-5.9,14.4c-3.9,3.9-8.7,5.8-14.4,5.8m0-9.7c3,0,5.4-1,7.4-3s3-4.5,3-7.6-1-5.6-3-7.6-4.4-3-7.4-3-5.4,1-7.4,3c-1.9,2-2.9,4.5-2.9,7.6s1,5.6,2.9,7.6c2,2,4.4,3,7.4,3"/></g><g class="bw"><polygon class="an" points="74.4 735.3 59.4 681.6 70.5 681.6 80.8 721.4 92 681.6 101 681.6 112.3 721.4 122.6 681.6 133.7 681.6 118.7 735.3 106.6 735.3 96.5 699.8 86.5 735.3 74.4 735.3"/></g><g class="bt"><path class="an" d="M153,736.4c-5.7,0-10.5-1.9-14.4-5.8-3.9-3.9-5.8-8.7-5.8-14.4s1.9-10.4,5.8-14.3c3.9-3.9,8.7-5.9,14.4-5.9s10.5,2,14.4,5.9,5.9,8.7,5.9,14.3-2,10.5-5.9,14.4c-3.9,3.8-8.7,5.8-14.4,5.8m0-9.7c3,0,5.4-1,7.4-3s3-4.5,3-7.6-1-5.6-3-7.6-4.4-3-7.4-3-5.4,1-7.4,3c-1.9,2-2.9,4.5-2.9,7.6s1,5.6,2.9,7.6c2,2,4.5,3,7.4,3"/></g><g class="bs"><path class="an" d="M190.2,703.5c1.8-4.9,6.4-7.4,11.7-7.4v11c-3-.4-5.8,.2-8.1,1.8-2.4,1.6-3.5,4.2-3.5,7.9v18.3h-9.9v-38.3h9.9v6.7h-.1Z"/></g><g class="bn"><polygon class="an" points="244.5 735.3 233 735.3 219.1 717.9 219.1 735.3 209.2 735.3 209.2 681.6 219.1 681.6 219.1 713.8 232.3 696.9 244.1 696.9 228.7 715.9 244.5 735.3"/></g><g class="bm"><path class="an" d="M248.1,728.4c0-4.8,3.8-8.7,8.7-8.7s8.7,3.8,8.7,8.6-3.8,8.6-8.7,8.6c-4.8,.1-8.7-3.6-8.7-8.5m15.8-.1c0-4.3-3-7.2-7.1-7.2s-7.1,3-7.1,7.3,3.1,7.2,7.1,7.2,7.1-3,7.1-7.3m-10.1-4.3h3c2,0,3.3,.8,3.3,2.6h0c0,1.3-.7,2-1.8,2.3l2.3,3.6h-2l-2.1-3.3h-.9v3.3h-1.9v-8.5h.1Zm3,3.9c1,0,1.5-.4,1.5-1.2h0c0-.9-.5-1.2-1.5-1.2h-1.1v2.5h1.1v-.1Z"/></g></g></g><g class="bv"><g><path d="M75.6,332.9c0,3.1-2.5,5.6-5.6,5.6s-5.6-2.5-5.6-5.6,2.6-5.6,5.6-5.6,5.6,2.5,5.6,5.6Zm-10.4,43.9v-33.1h9.3v33.1h-9.3Z"/><path d="M113.7,356.6v20.2h-9.3v-18.4c0-4.2-2.2-6.6-5.8-6.6s-6.1,2.7-6.1,6.7v18.4h-9.5v-33.1h8.8v3.4c1.5-2.3,4.4-4,8.9-4,7.7-.1,13,4.8,13,13.4Z"/><path d="M157.9,337.6v39.2h-9.9v-39.2h-16v-8.7h41.9v8.7h-16Z"/><path d="M187,363.2c.2,4.1,2.7,6.7,6.9,6.7,3.3,0,5.4-1.3,6.1-3.6l9.4,.4c-1.2,6.3-7.5,10.8-15.2,10.8-10.1,0-17.1-6.6-17.1-17.2s7-17.2,16.8-17.2,15.8,6.1,15.8,16.4v3.7h-22.7Zm0-6.2h13.3c-.2-4-2.2-6.7-6.5-6.7-3.9,.1-6.5,2.5-6.8,6.7Z"/><path d="M246.4,376.8h-10.7l-6.3-10.3-6.3,10.3h-10.6l10.3-16.7-10.2-16.4h10.6l6.1,10.1,6.1-10.1h10.6l-10.2,16.4,10.6,16.7Z"/><path d="M277.6,356.4v20.4h-9v-2.7c-1.9,1.9-4.7,3.4-8.4,3.4-6.7,0-11-3.4-11-9.8,0-7.4,6.2-9.7,13.2-10l5.9-.3v-1.3c0-3.3-1.4-5.1-4.3-5.1-3.2,0-4.6,2.2-4.6,4.4l-9.3-.4c0-5.8,5.3-11.8,13.8-11.8,8.8-.1,13.7,4.5,13.7,13.2Zm-14.3,7.4c-2.8,.1-4.8,1.1-4.8,3.5,0,2.2,1.6,3,3.8,3,3.4,0,6-1.9,6-5.4v-1.4l-5,.3Z"/><path d="M310.4,353.8l-9.3,.5c-.1-2.4-1.3-4-4.2-4-2.5,0-3.8,1-3.8,2.8,0,2.3,2.5,2.6,6.5,3.6,6.6,1.7,11.3,3.8,11.3,9.8,0,6.7-4.9,11-13.6,11s-13.4-3.8-14.1-10.8l9.3-.5c.1,2.4,1.6,4.1,4.8,4.1,2.6,0,4.2-1.1,4.2-3,0-2-1.2-2.6-6-3.8-7-1.8-11.7-3.3-11.7-10,0-6.3,4.9-10.4,13.2-10.4s12.9,4.5,13.4,10.7Z"/></g></g><g class="bu"><g><path class="an" d="M663.6,658.2c0,12.4-7.6,19.3-19.6,19.3s-19.6-6.9-19.6-19.3v-29.2h7.6v29c0,8.3,4.4,12.6,12,12.6s12-4.3,12-12.6v-29.1h7.6v29.3Z"/><path class="an" d="M705.4,642.2l-7.7,.4c-.3-4.8-3.8-7.7-9.2-7.7-5.8,0-8.9,3.1-8.9,7.2,0,4.8,3.7,5.9,10.6,7.5,10,2.4,16.4,5.3,16.4,13.8,0,9.9-7.8,14.1-17.3,14.1-10.5,0-18.3-5.2-18.6-14.5l7.7-.4c.3,5.1,4.9,8.4,10.9,8.4,5.5,0,9.5-2,9.5-7s-4.2-6.1-11.5-7.8c-8.6-2.1-15.6-4.5-15.6-13.7,0-7.6,5.4-14,16.6-14,9.8-.2,16.8,4.9,17.1,13.7Z"/><path class="an" d="M747.4,676.8l-4.4-10.7h-21.4l-4.5,10.7h-8.3l20.2-47.9h6.5l20.3,47.9h-8.4Zm-7.3-17.5l-7.7-18.6-7.8,18.6h15.5Z"/></g></g><g class="bq"><g><path class="an" d="M629.2,715.2c0,10.2-5.3,16.8-11.1,23.1l-10.2,10.9h21.7v11.4h-38.3v-10l17.1-18.8c6-6.5,8.1-9.7,8.1-15.9,0-4.3-2.2-6.9-5.9-6.9-4.6,0-6.5,3.2-6.6,8.7l-12.8-.7c.2-12,7.1-19.3,19.1-19.3,11.9-.1,18.9,6.2,18.9,17.5Z"/><path class="an" d="M682.7,729.5c0,20.6-9.7,32-23.5,32s-23.6-11.4-23.6-32,9.6-32,23.6-32c13.8,.1,23.5,11.4,23.5,32Zm-34,0c0,13.4,3.2,20.6,10.5,20.6s10.5-7.1,10.5-20.6-3.2-20.6-10.5-20.6-10.5,7.2-10.5,20.6Z"/><path class="an" d="M726.5,715.2c0,10.2-5.3,16.8-11.1,23.1l-10.2,10.9h21.7v11.4h-38.3v-10l17.1-18.8c6-6.5,8-9.7,8-15.9,0-4.3-2.2-6.9-5.9-6.9-4.6,0-6.5,3.2-6.6,8.7l-12.8-.7c.2-12,7.1-19.3,19.1-19.3,12-.1,19,6.2,19,17.5Z"/><path class="an" d="M743,760.6v-46l-7.9,5.6-5.6-10.1,16.9-11.5h9.4v62.1h-12.8v-.1Z"/></g></g></g></g></svg>