<?xml version="1.0" encoding="UTF-8"?><svg id="a" xmlns="http://www.w3.org/2000/svg" viewBox="0 0 300 170.51"><defs><style>.b{fill:#f3f3f3;}.c{fill:#bb8760;}</style></defs><path class="b" d="M2.3,88.51h13.7c2.4-.1,4.7,.5,6.6,1.9,1.6,1.3,2.5,3.3,2.4,5.4,.1,2.5-1.5,4.8-4,5.6v.1c3.1,.9,5.2,3.7,5.1,6.9,.1,2.5-.9,4.8-2.9,6.3-2,1.4-4.5,2.1-7,2H2.2m12.6-17c2,0,3.4-1,3.4-2.9s-1.2-2.8-3.2-2.8h-5.8v5.7h5.6Zm.6,11.5c2.3,0,3.7-1.3,3.7-3.3,0-2.3-1.7-3.4-3.8-3.4h-6.1v6.7h6.2Z"/><path class="b" d="M28,106.61c0-6,4.2-10.7,10.4-10.7,2.5,0,5,.9,6.9,2.6,2.4,2.2,3.6,5.7,3.6,9.9h-14.6c.4,2.7,1.9,4.4,4.5,4.4,1.4,.1,2.8-.7,3.4-2h6.3c-.5,2-1.7,3.7-3.4,4.8-1.9,1.3-4.1,1.9-6.3,1.8-6.7,.1-10.8-4.5-10.8-10.8m14.3-2.1c-.2-2.4-1.7-4-3.8-4-2.5,0-3.7,1.5-4.2,4h8Z"/><path class="b" d="M49.8,110.31h6.1c.2,2,1.6,3,3.7,3,1.9,0,3.2-.7,3.2-2,0-1.8-2.5-2-5.2-2.5-3.5-.6-7.3-1.6-7.3-6.3,0-4.3,4-6.5,8.8-6.5,5.7,0,8.8,2.5,9.1,6.5h-5.9c-.2-1.8-1.5-2.4-3.2-2.4-1.6,0-2.8,.6-2.8,1.9,0,1.4,2.3,1.6,4.9,2.1,3.6,.6,7.8,1.5,7.8,6.7,0,4.4-3.9,6.7-9.2,6.7-6.1,0-9.8-2.8-10-7.2"/><path class="b" d="M72,111.51v-10.9h-2.7v-4h2.7v-6.5h6.3v6.4h3.7v4h-3.7v9.5c0,1.6,.9,2,2.3,2h1.4v4.7c-1.2,.2-2.3,.3-3.5,.3-3.8,.1-6.5-1.2-6.5-5.5"/><path class="b" d="M88.5,102.81c0-8.4,5.5-14.8,13.9-14.8,2.9-.1,5.7,.8,8.1,2.5,2.4,1.9,4,4.7,4.2,7.8h-7c-.3-2.7-2.7-4.6-5.3-4.5-4.6,0-6.8,3.8-6.8,9s2.6,9,6.8,9c2.8,.2,5.2-1.9,5.5-4.7h7c-.2,2.8-1.4,5.3-3.4,7.2-2.2,2.1-5.1,3.2-9.1,3.2-8.2,0-13.9-6.2-13.9-14.7"/><path class="b" d="M116.5,106.71c-.2-5.7,4.3-10.5,10-10.7h.8c6.5,0,10.8,4.6,10.8,10.7s-4.3,10.7-10.8,10.7c-5.7,.3-10.6-4.2-10.8-9.9h0v-.8m15.1,0c0-3.7-1.5-6.2-4.3-6.2s-4.3,2.5-4.3,6.2,1.5,6.1,4.3,6.1,4.3-2.4,4.3-6.1"/><path class="b" d="M140.4,96.51h6.2v2.9h.1c1.2-2.2,3.6-3.5,6.1-3.4,2.5-.1,4.7,1.3,5.7,3.6h.1c1.3-2.3,3.8-3.7,6.4-3.6,4.6,0,6.9,3.1,6.9,7.7v13.2h-6.4v-12c0-2.2-.9-3.4-2.9-3.4s-3.2,1.7-3.2,4.1v11.4h-6.4v-12c0-2.2-.9-3.4-2.9-3.4s-3.2,1.7-3.2,4.1v11.4h-6.4"/><path class="b" d="M174.8,96.51h6.2v2.4h.1c1.4-1.9,3.7-3.1,6.1-3,5.4,0,8.7,4.6,8.7,10.7,0,6.6-3.5,10.8-8.8,10.8-2.2,.1-4.4-.9-5.7-2.7h-.1v8.8h-6.5m14.6-16.5c0-3.5-1.3-5.8-4.1-5.8s-4.2,2.5-4.2,5.8,1.6,5.5,4.4,5.5c2.4,0,3.9-2.1,3.9-5.5"/><path class="b" d="M197.1,111.21c0-4.5,3.6-5.8,7.8-6.4,3.8-.5,5.1-.9,5.1-2.2s-.8-2.2-2.8-2.2-3.1,.9-3.3,2.6h-6c.1-3.8,3-7,9.2-7,3,0,5.1,.6,6.6,1.7,1.8,1.4,2.7,3.6,2.6,5.8v10.2c0,1.6,.2,2.5,.7,2.9v.3h-6.3c-.4-.7-.6-1.5-.7-2.2h0c-1.2,1.7-3,2.8-6,2.8-4-.2-6.9-2.4-6.9-6.3m13.1-1.6v-2.4c-1.1,.5-2.2,.8-3.3,1.1-2.5,.6-3.5,1.2-3.5,2.7s1.2,2.3,2.8,2.3c2.3-.1,4-1.6,4-3.7"/><path class="b" d="M219.5,96.51h6.2v2.8h.1c1.3-2.1,3.7-3.4,6.3-3.3,4.4,0,7,3.2,7,7.7v13.2h-6.5v-11.9c0-2.1-1.1-3.6-3.2-3.6s-3.6,1.8-3.6,4.3v11.2h-6.4"/><path class="b" d="M242.1,88.51h6.5v5.2h-6.5v-5.2Zm0,8h6.5v20.3h-6.5v-20.3Z"/><path class="b" d="M250.7,106.61c0-6,4.2-10.7,10.4-10.7,2.6-.1,5,.9,6.9,2.6,2.4,2.2,3.6,5.7,3.6,9.9h-14.6c.4,2.7,1.9,4.4,4.6,4.4,1.4,.1,2.8-.7,3.4-2h6.3c-.5,2-1.7,3.7-3.4,4.8-1.9,1.3-4.1,1.9-6.3,1.8-6.8,.1-10.9-4.5-10.9-10.8m14.4-2.1c-.2-2.4-1.8-4-3.9-4-2.5,0-3.7,1.5-4.1,4h8Z"/><path class="b" d="M272.6,110.31h6.1c.2,2,1.6,3,3.7,3,1.9,0,3.2-.7,3.2-2,0-1.8-2.5-2-5.1-2.5-3.5-.6-7.3-1.6-7.3-6.3,0-4.3,4-6.5,8.8-6.5,5.7,0,8.8,2.5,9.1,6.5h-5.9c-.2-1.8-1.5-2.4-3.2-2.4-1.6,0-2.8,.6-2.8,1.9,0,1.4,2.3,1.6,4.9,2.1,3.6,.6,7.8,1.5,7.8,6.7,0,4.4-3.9,6.7-9.2,6.7-6.2,0-9.9-2.8-10.1-7.2"/><path class="b" d="M3.4,136.81H.8v-4.1H3.4v-1.5c-.1-1.7,.5-3.4,1.7-4.7,1.7-1.7,5.1-2.1,8.6-1.7v4.5c-2.5-.1-3.8,.1-3.8,2.4v1h3.8v4.1h-3.8v16.1H3.4"/><path class="b" d="M14.2,142.91c-.2-5.7,4.3-10.5,10-10.7h.8c6.5,0,10.8,4.6,10.8,10.7s-4.3,10.7-10.8,10.7-10.8-4.6-10.8-10.7m15.1,0c0-3.7-1.5-6.2-4.3-6.2s-4.3,2.5-4.3,6.2,1.5,6.1,4.3,6.1,4.3-2.4,4.3-6.1"/><path class="b" d="M38,132.71h6.2v3.2h.1c1.4-2.4,3.1-3.5,5.5-3.5,.4,0,.9,0,1.3,.2v5.5h-.1c-4-.6-6.5,1.4-6.5,5.8v9.1h-6.5"/><polyline class="b" points="58.5 124.71 65.5 124.71 65.5 147.11 78.2 147.11 78.2 153.01 58.5 153.01"/><path class="b" d="M79.4,142.81c0-6.1,4.2-10.7,10.4-10.7,2.6-.1,5,.8,6.9,2.6,2.4,2.2,3.6,5.7,3.6,9.9h-14.6c.4,2.7,1.9,4.4,4.6,4.4,1.4,.1,2.8-.7,3.4-2h6.3c-.5,2-1.7,3.7-3.4,4.8-1.9,1.3-4.1,1.9-6.4,1.8-6.7-.1-10.8-4.7-10.8-10.8m14.4-2.2c-.2-2.4-1.8-4-3.8-4-2.5,0-3.7,1.5-4.2,4h8Z"/><path class="b" d="M101.6,147.31c0-4.5,3.6-5.8,7.8-6.4,3.8-.5,5.2-.9,5.2-2.3s-.8-2.2-2.8-2.2-3.1,.9-3.3,2.6h-5.9c.2-3.8,3.1-7,9.2-7,3.1,0,5.1,.6,6.6,1.7,1.8,1.4,2.7,3.5,2.6,5.8v10.2c0,1.6,.2,2.5,.7,2.9v.3h-6.2c-.4-.7-.6-1.5-.7-2.2h-.1c-1.2,1.7-3,2.8-6,2.8-4.2,0-7.1-2.2-7.1-6.2m13-1.6v-2.4c-1.1,.5-2.2,.8-3.3,1.1-2.5,.6-3.5,1.2-3.5,2.7s1.2,2.3,2.8,2.3c2.4,0,4-1.5,4-3.7"/><path class="b" d="M123,142.91c0-6.3,3.7-10.7,8.9-10.7,2.3-.1,4.4,1,5.7,2.9h.1v-10.3h6.4v28.3h-6.2v-2.9h-.1c-1.2,2.1-3.5,3.4-6,3.4-5.1,0-8.8-4-8.8-10.7m14.8-.1c0-3.4-1.4-5.9-4.2-5.9-2.6,0-4.1,2.4-4.1,5.8s1.5,5.7,4,5.7c2.7,.1,4.3-2.2,4.3-5.6"/><path class="b" d="M146.3,142.81c0-6.1,4.2-10.7,10.4-10.7,2.6-.1,5,.8,6.9,2.6,2.4,2.2,3.6,5.7,3.6,9.9h-14.6c.4,2.7,1.9,4.4,4.6,4.4,1.4,.1,2.8-.7,3.4-2h6.3c-.5,2-1.7,3.7-3.4,4.8-1.9,1.3-4.1,1.9-6.3,1.9-6.8-.1-10.9-4.7-10.9-10.9m14.4-2.1c-.2-2.4-1.7-4-3.8-4-2.5,0-3.7,1.5-4.2,4h8Z"/><path class="b" d="M169.4,132.71h6.2v3.2h.1c1.4-2.4,3.1-3.5,5.6-3.5,.4,0,.9,0,1.3,.2v5.5h-.2c-4-.6-6.5,1.4-6.5,5.8v9.1h-6.4"/><path class="b" d="M183.3,146.41h6.1c.2,2,1.6,3,3.7,3,1.9,0,3.2-.7,3.2-2,0-1.8-2.4-2-5.1-2.5-3.5-.6-7.3-1.6-7.3-6.3,0-4.3,4-6.5,8.8-6.5,5.8,0,8.8,2.5,9.1,6.5h-5.9c-.2-1.8-1.5-2.4-3.2-2.4-1.6,0-2.8,.6-2.8,1.9s2.3,1.6,4.9,2.1c3.6,.6,7.8,1.5,7.8,6.7,0,4.4-3.9,6.7-9.2,6.7-6.1,0-9.9-2.7-10.1-7.2"/><path class="b" d="M204.5,124.71h6.5v10.5h.1c1.3-2,3.6-3.1,6-3.1,4.4,0,7.1,3.2,7.1,7.7v13.2h-6.5v-11.9c0-2.1-1.1-3.6-3.2-3.6s-3.6,1.8-3.6,4.3v11.2h-6.5"/><path class="b" d="M227.1,124.71h6.5v5.2h-6.5v-5.2Zm0,8h6.5v20.3h-6.5v-20.3Z"/><path class="b" d="M236.6,132.71h6.2v2.4h.2c1.4-2,3.7-3.1,6.1-3.1,5.4,0,8.7,4.6,8.7,10.7,0,6.6-3.5,10.8-8.8,10.8-2.3,.1-4.4-.9-5.8-2.7h-.1v8.8h-6.4m14.6-16.5c0-3.5-1.3-5.8-4.1-5.8s-4.2,2.5-4.2,5.8,1.6,5.5,4.4,5.5c2.4,0,3.9-2.1,3.9-5.5"/><path class="c" d="M216.9,15.71c-2.4,0-3.9,2.2-3.9,5.6s1.5,5.7,3.9,5.7,3.9-2.4,3.9-5.7c0-3.1-1.4-5.6-3.9-5.6m0,27.1c-6.4,0-11-2.7-11.8-8.2h8.2c.5,1.4,1.9,2.2,3.4,2.1,2.8,0,3.7-1.7,3.7-4.3v-1.8h-.2c-1.4,1.8-3.5,2.8-5.8,2.8-5.2,0-9.8-4-9.8-11.6,0-7.1,3.7-12.6,9.4-12.6,2.6-.2,5.2,1.1,6.6,3.4h.1v-2.7h8.1V31.31c0,3.9-1.3,7-3.4,8.8s-5.1,2.7-8.5,2.7"/><path class="c" d="M196,34.51h-8.5V9.91h8.1v4.2h.1c1.8-3.4,4.1-4.7,7-4.7,.5,0,.9,.1,1.4,.2v7.6h-.1c-.7-.1-1.3-.2-2-.2-3.8,0-6,2.5-6,7.2v10.3"/><path class="c" d="M10.8,7.51v6h5.8c1.5,.2,2.9-1,3.1-2.5h0v-.5c.1-1.6-1.1-2.9-2.7-3h-6.2m0,12.3v7h6.6c1.8,.1,3.4-1.2,3.5-3h0v-.5c.1-1.8-1.2-3.4-3.1-3.5h-7m7.7,14.7H1.5V0H18.2c2.6-.1,5.2,.6,7.3,2.2,2,1.7,3.1,4.2,3,6.8,0,3.3-1.3,5.4-4,6.7v.1c3.5,1.2,5.6,4.4,5.6,8.3s-1.4,6.6-3.7,8.3c-2.3,1.6-5.1,2.3-7.9,2.1"/><rect class="c" x="31.6" y="0" width="8.8" height="34.5"/><path class="c" d="M54.6,15.31c-2.6,0-3.9,2.7-3.9,7s1.3,7.1,3.9,7.1,4-2.7,4-7.1-1.4-7-4-7m0,20c-7.6,0-12.6-5.2-12.6-13s5-13.1,12.6-13.1,12.5,5.3,12.5,13.1-4.8,13-12.5,13"/><path class="c" d="M80.7,15.31c-2.6,0-3.9,2.7-3.9,7s1.3,7.1,3.9,7.1,4-2.7,4-7.1-1.3-7-4-7m.1,20c-7.7,0-12.6-5.2-12.6-13s5-13.1,12.6-13.1,12.6,5.3,12.6,13.1-4.9,13-12.6,13"/><path class="c" d="M132.9,34.51h-8.5v-13.9c0-2.5-.8-4.2-2.9-4.2s-3.2,2-3.2,4.7v13.4h-8.5v-13.9c0-2.5-.8-4.2-2.9-4.2s-3.2,2-3.2,4.7v13.4h-8.7V9.91h8.1v3.7h.1c1.6-2.9,3.8-4.5,7.3-4.5,2.9-.1,5.5,1.6,6.6,4.3h.1c1.5-2.8,4.4-4.4,7.6-4.3,5.6,0,8.1,4.2,8.1,9.9v15.5"/><path class="c" d="M147.6,15.51c-2.6,0-4.3,2.6-4.3,6.5s1.7,6.6,4.3,6.6,4-2.6,4-6.6-1.4-6.5-4-6.5m2.6,19.9c-2.8,0-5.5-1.5-6.8-4h-.1v3.2h-8.1V0h8.6V12.51h.1c1.6-2.2,4.2-3.5,6.9-3.3,6.1,0,9.6,5.6,9.6,13-.1,8.3-3.9,13.1-10.2,13.2"/><path class="c" d="M173.8,15.11c-2.3,0-3.6,1.7-4,4.5h7.8c-.1-3-1.8-4.5-3.8-4.5m.2,20.1c-7.5,0-12.6-5.2-12.6-13.1s5-13.1,12.3-13.1c3.2-.1,6.2,1,8.5,3.2,2.8,2.8,4.1,7,4,12.1h-16.3c.4,3.1,1.8,4.6,4.4,4.6,1.5,.1,2.9-.9,3.3-2.3h8.2c-1.4,5.8-5.7,8.6-11.8,8.6"/><polyline class="c" points="299.4 71.61 289.8 71.61 285.1 62.61 283.4 64.71 283.4 71.61 275 71.61 275 37.01 283.4 37.01 283.4 54.41 289.1 46.91 298.5 46.91 290.8 56.01 299.4 71.61"/><path class="c" d="M10.8,44.51v6h5.8c1.5,.2,2.9-1,3.1-2.5h0v-.5c0-2-1.4-2.9-3.2-2.9l-5.7-.1m0,12.4v7h6.6c1.9,.3,3.7-1.1,4-3s-1.1-3.7-3-4h-7.6m7.7,14.6H1.5V37.01H18.2c2.6-.2,5.2,.6,7.3,2.2,2,1.7,3.1,4.2,3,6.8,0,3.3-1.3,5.4-4,6.6v.2c3.5,1.2,5.6,4.4,5.6,8.3,.2,3.2-1.2,6.3-3.7,8.3-2.3,1.6-5.1,2.3-7.9,2.1"/><path class="c" d="M39.6,72.31c-5.5,0-8.2-3.8-8.2-9.5v-15.9h8.5v14c0,2.8,1,3.9,3.1,3.9s3.5-1.5,3.5-4.4v-13.6h8.5v24.6h-8.1v-3.2h-.2c-1.4,2.7-4.2,4.2-7.1,4.1"/><path class="c" d="M67.7,72.41c-6.8,0-11.3-3-11.3-8.6h7.9c-.1,1.7,1.3,3.2,3,3.2h.5c1.7,0,2.9-.5,2.9-2.2,0-2-2.7-2.2-5.7-2.7-3.9-.6-8.4-1.9-8.4-8.1,0-5,4.8-7.9,10.5-7.9,7,0,10.6,2.8,11,7.6h-8c-.1-1.4-1.3-2.4-2.7-2.4h-.2c-1.3,0-2.4,.5-2.4,1.9s2.1,1.7,4.7,2.1c4.2,.6,9.5,1.6,9.5,8.5,.1,6.1-4.9,8.6-11.3,8.6"/><path class="c" d="M89,45.01h-8.5v-6.9h8.5v6.9m0,26.6h-8.5v-24.7h8.5v24.7"/><path class="c" d="M115.1,71.51h-8.5v-13.9c0-2.8-1-4.3-3.2-4.3s-3.5,1.8-3.5,4.7v13.5h-8.5v-24.6h8.1v3.4h.1c1.6-2.6,4.4-4.1,7.4-4.1,5.3,0,8.1,3.8,8.1,9.4v15.9"/><path class="c" d="M129.1,52.11c-2.4,0-3.7,1.7-4,4.5h7.8c-.2-3-1.8-4.5-3.8-4.5m.1,20.2c-7.5,0-12.6-5.2-12.6-13.1s5-13.1,12.3-13.1c3.2-.1,6.2,1,8.5,3.2,2.8,2.7,4.1,7,4,12.1h-16.3c.3,3.1,1.8,4.6,4.4,4.6,1.5,.1,2.9-.9,3.3-2.3h8.2c-1.4,5.7-5.7,8.6-11.8,8.6"/><path class="c" d="M153.6,72.41c-6.8,0-11.3-3-11.3-8.6h7.9c-.1,1.7,1.3,3.2,3,3.2h.4c1.6,0,2.9-.5,2.9-2.2,0-2-2.7-2.2-5.6-2.7-3.9-.6-8.4-1.9-8.4-8.1,0-5,4.8-7.9,10.5-7.9,7,0,10.7,2.8,11,7.6h-8c-.2-1.8-1.5-2.3-2.9-2.3-1.3,0-2.4,.5-2.4,1.9s2.1,1.7,4.7,2.1c4.2,.6,9.5,1.6,9.5,8.5,0,6-5,8.5-11.3,8.5"/><path class="c" d="M177.1,72.41c-6.8,0-11.3-3-11.3-8.6h7.9c-.1,1.7,1.3,3.2,3,3.2h.4c1.6,0,2.9-.5,2.9-2.2,0-2-2.6-2.2-5.6-2.7-3.9-.6-8.4-1.9-8.4-8.1,0-5,4.8-7.9,10.5-7.9,7,0,10.7,2.8,11,7.6h-8c-.2-1.8-1.5-2.3-2.9-2.3-1.3,0-2.4,.5-2.4,1.9s2.1,1.7,4.7,2.1c4.2,.6,9.5,1.6,9.5,8.5,.1,6-4.9,8.5-11.3,8.5"/><polyline class="c" points="217.3 71.61 209 71.61 205.8 57.21 205.6 57.21 202.4 71.61 194.3 71.61 186.9 46.91 195.6 46.91 198 60.01 202.1 46.91 209.5 46.91 212.7 60.51 212.8 60.51 216 46.91 224.6 46.91 217.3 71.61"/><path class="c" d="M235.6,52.11c-2.3,0-3.7,1.7-4,4.5h7.8c-.2-3-1.8-4.5-3.8-4.5m.1,20.2c-7.6,0-12.6-5.2-12.6-13.1s5-13.1,12.3-13.1c3.2-.1,6.2,1,8.5,3.2,2.8,2.7,4.1,7,4,12.1h-16.3c.4,3.1,1.8,4.6,4.4,4.6,1.5,.1,2.9-.9,3.3-2.3h8.2c-1.4,5.7-5.7,8.6-11.8,8.6"/><path class="c" d="M261.4,52.11c-2.4,0-3.7,1.7-4,4.5h7.8c-.2-3-1.8-4.5-3.8-4.5m.1,20.2c-7.5,0-12.6-5.2-12.6-13.1s5-13.1,12.3-13.1c3.2-.1,6.2,1,8.5,3.2,2.8,2.7,4.1,7,4,12.1h-16.3c.4,3.1,1.8,4.6,4.4,4.6,1.5,.1,2.9-.9,3.4-2.3h8.2c-1.5,5.7-5.8,8.6-11.9,8.6"/><rect class="c" x=".2" y="75.11" width="299.8" height="5.2"/><rect class="c" y="165.31" width="300" height="5.2"/></svg>