<?xml version="1.0" encoding="UTF-8"?><svg id="a" xmlns="http://www.w3.org/2000/svg" viewBox="0 0 288 288"><defs><style>.c{fill:#bb8760;}</style></defs><g id="b"><path class="c" d="M122.22,23.1c-.21-1.53,.45-2.49,1.54-2.67,.91-.18,1.8,.41,2.01,1.32v.18c.31,1.87-1.37,4.08-4.86,8.12l.23,1.38,8.47-1.36-.28-1.72-5.16,.84c3.24-3.84,4.08-5.71,3.74-7.75-.33-1.93-2.17-3.22-4.09-2.89h-.26c-2.19,.27-3.75,2.27-3.48,4.45v.03c.01,.12,.03,.24,.06,.36l2.07-.34m16.68,6.56c3.08-.12,4.69-2.11,4.51-6.43s-1.76-6.18-5.03-6.05c-3.13,.12-4.68,2.3-4.51,6.43,.15,3.84,1.36,6.19,5.03,6.05m-.45-10.68c1.71-.07,2.76,.6,2.88,4.33s-.84,4.57-2.49,4.57c-2,.08-2.76-1.03-2.88-4.34-.14-3.51,.76-4.48,2.52-4.55m-21.92,121.83c5.18,0,9.33-3.62,9.33-9.01s-4.15-9.01-9.33-9.01-9.33,3.62-9.33,9.01,4.15,9.01,9.33,9.01m0-14.16c2.84-.06,5.19,2.2,5.25,5.04s-2.2,5.19-5.04,5.25c-2.84,.06-5.19-2.2-5.25-5.04v-.11c-.1-2.74,2.04-5.04,4.77-5.14h.28m11.61-51.74h30.4v-7.48h-30.4v7.48Zm-2.55,99.98c0-3.52-2.01-5.3-4.73-5.3-2.75-.11-5.08,2.04-5.18,4.79h0c0,.15,0,.3,0,.44-.11,2.72,2,5.01,4.71,5.13,.18,0,.36,0,.55,0,1.63,.11,3.21-.62,4.2-1.92l-1.63-1.31c-.58,.85-1.57,1.33-2.59,1.27-1.42,.04-2.63-1-2.79-2.41h7.45v-.65m-7.45-1.14c.14-1.38,1.33-2.42,2.72-2.36,1.19-.08,2.22,.82,2.3,2.01v.02c.01,.11,.01,.22,0,.34h-5.02Zm100.8-33.18c2.16,.08,4.23-.84,5.62-2.5h.07v1.25c0,3.4-1.3,5.76-5.44,5.76-2.22,0-4.34-.89-5.89-2.47l-2.57,3.5c2.37,1.99,5.41,3,8.51,2.83,6.72,0,9.7-3.94,9.7-10.12v-15.66h-4.08v2.57h-.08c-1.29-1.98-3.53-3.13-5.89-3-5.29,0-8.48,3.94-8.48,9.01s3.4,8.79,8.54,8.79m.89-13.94c2.78,0,5.04,2.26,5.04,5.04s-2.26,5.04-5.04,5.04c-2.74,.04-5-2.14-5.04-4.89h0v-.09c-.15-2.67,1.9-4.96,4.57-5.11h0c.17,0,.33,0,.5,0m-91.7-40.6h30.4v-7.45h-30.4v7.45Zm75.33,45.12c-.02-2.38,1.9-4.32,4.28-4.34h.33c.7,.02,1.4,.13,2.07,.33v-4.16c-.5-.15-1.01-.24-1.54-.25-2.17-.05-4.16,1.18-5.08,3.15h0v-2.71h-4.32v17.18h4.26v-9.21Zm-6.21,48.45h2.45v-15.44h-2.45v15.44Zm6.28,0h2.45v-9.77h-2.45v9.77Zm-87.2,22.08h2.57v-14.4h-2.57v14.4Zm98.59-29.92v-1.92h-2.44v-2.88h-2.41v2.88h-1.72v1.92h1.72v4.57c0,1.92,.6,3.47,3.18,3.47,.56,0,1.11-.09,1.63-.27l-.08-1.92c-.33,.13-.69,.2-1.05,.2-1.08,0-1.28-.63-1.28-1.51v-4.55h2.44Zm3.1,10.66c-.33,0-.65-.05-.96-.14l-.21,2.12c.42,.09,.84,.13,1.27,.13,2.16,0,3.01-1.02,3.72-2.79l4.67-11.89h-2.55l-2.43,7.11h0l-2.7-7.11h-2.72l4.2,9.79-.49,1.24c-.41,1.02-.69,1.54-1.74,1.54m-13.29-17.36c-.81,.06-1.41,.77-1.35,1.58,.06,.81,.77,1.41,1.58,1.35,.76-.06,1.35-.69,1.35-1.46-.02-.83-.71-1.49-1.54-1.47h0m-75.99,4.8v9.79h2.45v-5.24c-.05-1.4,1.05-2.58,2.45-2.63h.18c.25,0,.5,.03,.75,.1v-2.24c-.19-.05-.39-.07-.59-.07-1.25,.02-2.38,.77-2.88,1.92h0v-1.63h-2.36Zm26.88,7.51h-7.36v-4.08h6.63v-2.16h-6.63v-3.68h7v-2.24h-9.6v14.4h9.93l.04-2.25Zm-19.8-1.66h4.9v-2.07h-4.9v2.07Zm38.95-.38v-5.47h-2.45v6.12c0,2,1.07,3.96,3.61,3.96,1.29,.02,2.47-.7,3.04-1.85h0v1.57h2.31v-9.79h-2.45v5.39c.15,1.31-.8,2.49-2.11,2.64h-.17c-1.56,0-1.83-1.45-1.83-2.61m-11.94-49.92h-.11v-10.89h-4.29v25.92h4.08v-2.57h.07c1.29,1.99,3.54,3.13,5.9,3,5.29,0,8.47-3.94,8.47-9.01s-3.4-9.01-8.29-9.01c-2.25-.1-4.41,.87-5.83,2.61m4.8,1.26c2.84-.06,5.19,2.2,5.25,5.04s-2.2,5.19-5.04,5.25c-2.84,.06-5.19-2.2-5.25-5.04v-.11c-.1-2.74,2.04-5.04,4.77-5.14h.28m1.04,57.88v-14.68h-2.34v1.36h-.07c-.76-1.1-2.04-1.73-3.38-1.65-2.79,0-4.75,2.25-4.75,5.15s1.83,5.21,4.8,5.21c1.28,.05,2.49-.55,3.24-1.58h0v6.19h2.5Zm-5.24-6.64c-1.59,0-2.88-1.29-2.88-2.88v-.3c-.15-1.58,1.01-2.99,2.6-3.14h.22c1.67,.09,2.96,1.51,2.88,3.19,.08,1.66-1.21,3.06-2.86,3.14h-.02m-19.62-46.81c0-2.21,1.01-4.43,3.69-4.43s3.19,1.85,3.19,4v9.72h4.29v-10.22c0-4.12-1.61-7.37-6.19-7.37-2.35-.14-4.56,1.11-5.64,3.19-.89-2.15-2.72-3.19-5.37-3.19-2.22-.13-4.3,1.1-5.25,3.11h-.08v-2.68h-4.07v17.16h4.29v-9.37c0-2.28,1.1-4.36,3.93-4.36,2.07,0,2.94,1.39,2.94,3.5v10.22h4.28v-9.29Zm78.72,108.98c-1.92,1.51-4.3,1.05-5.89-1.01-1.46-1.71-1.29-4.27,.39-5.76l.21-.17c.8-.67,1.86-.92,2.88-.69l.59-1.92c-1.62-.29-3.28,.15-4.54,1.2-2.88,2.25-3.65,5.87-1.32,8.89,1.94,2.73,5.73,3.37,8.46,1.43,.15-.1,.29-.22,.43-.34,1.44-1.03,2.31-2.69,2.34-4.46l-2.07,.1c.01,1.14-.53,2.21-1.45,2.88m-55.56-43.68l3.5-4.59h-2.81l-2.18,3.03-2.13-3.03h-2.88l3.52,4.59-3.97,5.2h2.88l2.57-3.57,2.55,3.57h2.98l-4.03-5.2Zm-35.78,58.94l-6.55,11.24,2.36,.28,1.38-2.58,5.15,.6,.79,2.88,2.41,.29-3.72-12.48-1.82-.22Zm-1.87,7.21l2.43-4.6,1.26,5.03-3.69-.43Zm66.19-125.31l-3.07-2.32c-1.07,1.48-2.79,2.34-4.61,2.32-2.39,.1-4.42-1.7-4.62-4.08h13.08v-1.17c0-5.97-3.25-9.34-8.04-9.34-5.18,0-9.33,3.62-9.33,9.01s4.15,9.01,9.33,9.01c2.83,.07,5.52-1.21,7.26-3.44m-7.86-11.37c2.68,0,4.33,1.56,4.36,4.07h-8.72c.11-2.34,2.09-4.16,4.44-4.07m-24.21,133.96c-1.4-.23-2.36-.41-2.52-1.49s.88-1.79,1.85-1.92c.84-.11,1.68,.15,2.31,.7l1.15-1.7c-1.08-.68-2.36-.95-3.62-.77-2.14,.32-4.17,1.7-3.84,4.1,.32,2.2,1.92,2.68,3.47,2.88s2.88,.42,3.02,1.65c.08,1.06-.71,1.98-1.77,2.06-.05,0-.1,0-.15,0-1.02,.11-2.04-.24-2.77-.96l-1.3,1.62c1.21,.96,2.78,1.36,4.3,1.08,2.31-.34,4.12-1.85,3.74-4.39-.34-2.32-2.36-2.71-3.95-2.95m-20.48-59.7h0v1.43h2.32v-15.36h-2.32v6.86h0c-.79-1-2.01-1.57-3.28-1.53-2.79,0-4.75,2.25-4.75,5.14s1.83,5.22,4.8,5.22c1.35,.04,2.62-.62,3.37-1.75m-2.88-.29c-1.62-.06-2.88-1.41-2.82-3.03h0v-.16c-.14-1.58,1.02-2.99,2.61-3.13h.21c1.75,.17,3.03,1.72,2.86,3.46-.14,1.52-1.34,2.72-2.86,2.86m3.46,56.41h-2.12l-.11,11.93,7.19,.07v-1.92l-5.07-.05,.11-10.03Zm10.13-64.69c-2.75-.1-5.07,2.05-5.17,4.8,0,.15,0,.29,0,.44-.12,2.71,1.98,5.01,4.69,5.13,.19,0,.38,0,.57,0,1.63,.11,3.21-.62,4.2-1.92l-1.67-1.35c-.58,.84-1.56,1.32-2.58,1.27-1.42,.04-2.63-1-2.8-2.41h7.45v-.65c0-3.52-2-5.3-4.73-5.3m-2.68,4.21c.14-1.38,1.33-2.42,2.72-2.37,1.2-.08,2.23,.83,2.3,2.03v.02c.01,.11,.01,.22,0,.33h-5.02Zm24,67.04l-.84-3.26,5.3-1.36-.44-1.73-5.3,1.36-.76-2.94,5.6-1.44-.46-1.8-7.68,1.97,2.98,11.52,7.95-2.04-.47-1.83-5.88,1.56Zm55.94-30.48l-2.34-2.41,3.92-3.84-1.29-1.27-3.93,3.84-2.11-2.17,4.14-4.03-1.3-1.32-5.66,5.51,8.32,8.54,5.88-5.76-1.32-1.35-4.31,4.26Zm11.52-15.04c-1.8-1.5-3.56-.43-4.91,.45-1.19,.77-2.03,1.28-2.88,.58-.69-.77-.65-1.94,.09-2.66,.54-.65,1.34-1.03,2.19-1.04l-.28-2.03c-1.26,.2-2.4,.86-3.21,1.85-1.37,1.66-1.92,4.04-.09,5.6s3.25,.66,4.53-.16,2.39-1.58,3.35-.79c.77,.73,.81,1.94,.08,2.71h0l-.08,.08c-.67,.77-1.66,1.2-2.68,1.17l.12,2.06c1.54-.09,2.97-.84,3.93-2.06,1.5-1.8,1.82-4.14-.15-5.76m-36.74,21.87l6.38,10.07,1.8-1.13-6.37-10.09-1.8,1.15Zm-14.09,11.26c-.9-2.36-3.24-2.43-5.33-1.63l-3.84,1.48,4.24,11.15,1.99-.76-1.8-4.72,1.45-.55,4.38,3.74,2.39-.9-4.86-3.84c1.41-.78,2.02-2.49,1.41-3.98m-3.77,3.27l-1.62,.61-1.19-3.13,1.8-.68c1.03-.39,2.33-.55,2.79,.66s-.65,2.11-1.78,2.53m5.59-74.13v-5.96c0-1.92-.86-4.12-4.37-4.12-1.52-.01-3,.54-4.14,1.56l1.27,1.49c.71-.71,1.67-1.11,2.67-1.12,1.22,0,2.24,.59,2.24,1.8v.24c-3.05,0-6.72,.41-6.72,3.33,0,2.28,2.1,3.03,3.68,3.03,1.2,.06,2.35-.5,3.03-1.49h.07v1.25h2.28Zm-2.33-4.13c.12,1.27-.81,2.39-2.07,2.51h-.01c-.16,.02-.32,.02-.48,0-.84,0-1.72-.29-1.72-1.23,0-1.44,2.19-1.63,3.73-1.63h.55v.35Zm9.69,66.67l1.26,9.68h-.06l-7.13-6.65-2.08,1.08,9.6,8.47,1.63-.84-1.22-12.8-2,1.06Zm-102.1-62.54v-6.12c0-2-1.06-3.96-3.61-3.96-1.28-.02-2.47,.7-3.03,1.85h0v-1.56h-2.38v9.79h2.45v-5.39c-.13-1.32,.82-2.49,2.13-2.64h.15c1.57,0,1.83,1.45,1.83,2.61v5.42h2.46Zm-45.12,38.61l2.5-2.12,3.61,4.25,1.41-1.2-4.98-5.87-9.09,7.68,1.37,1.61,3.84-3.24,3.4,4.01,1.36-1.16-3.42-3.96Zm10.56,3.98l-8.42,8.44,1.5,1.51,8.43-8.45-1.51-1.5Zm11.52,10.23l-5.76,6.9h0l1.37-10.42-2.24-1.8-7.56,9.23,1.64,1.34,5.83-7.12h0l-1.47,10.71,2.09,1.71,7.56-9.23-1.47-1.32Zm-7.68-65.41c1.38-.03,2.71,.5,3.69,1.47l1.78-1.92c-1.55-1.25-3.5-1.89-5.48-1.81-4.44,0-7.83,2.88-7.83,7.54s3.24,7.63,7.89,7.63c1.88,.05,3.74-.34,5.44-1.12v-7.48h-5.64v2.11h3.03v3.68c-.92,.36-1.9,.53-2.88,.51-3.19,0-5.15-2.25-5.15-5.33-.18-2.73,1.89-5.09,4.62-5.27h.42m8.47-33.95c.05-3.15-2.34-5.81-5.48-6.09v-.08c2.61-.79,4.41-2.68,4.41-5.54,0-4.62-3.94-6.36-7.77-6.36h-9.87v25.32h9.12c4.8,0,9.6-1.72,9.6-7.23m-14.21-14.23h3.72c3.4,0,4.9,1.08,4.9,3.25,0,1.92-1.5,3.18-4.5,3.18h-4.11v-6.43Zm0,17.6v-7.3h4.32c3.65,0,5.37,.96,5.37,3.57,0,3.33-3.22,3.72-5.54,3.72h-4.15Zm33.6,4.29c5.18,0,9.33-3.62,9.33-9.01s-4.15-9.01-9.33-9.01-9.33,3.62-9.33,9.01,4.15,9.01,9.33,9.01m0-14.16c2.84-.05,5.19,2.21,5.24,5.05,.05,2.84-2.21,5.19-5.05,5.24-2.84,.05-5.19-2.21-5.24-5.05v-.1c-.1-2.74,2.04-5.04,4.77-5.14h.29m-16.48,13.73h4.29v-25.92h-4.29v25.92Zm-5.76,105.53l2.02,1.26,2.36-1.74,4.38,2.75-.5,2.88,2.05,1.29,1.98-12.83-1.56-.96-10.72,7.35Zm9.1,.33l-3.12-1.97,4.17-3.11-1.05,5.08Zm27.34-68.06h0v1.47h2.32v-15.46h-2.45v6.87h-.06c-.79-1.01-2.01-1.58-3.28-1.54-2.79,0-4.8,2.25-4.8,5.15s1.83,5.21,4.8,5.21c1.35,.04,2.62-.62,3.36-1.75m-5.6-3.39c-.15-1.58,1.01-2.99,2.6-3.14h.22c1.67,.09,2.96,1.51,2.88,3.19,.08,1.66-1.21,3.06-2.86,3.14h-.02c-1.59,0-2.88-1.29-2.88-2.88v-.3m8.53,76.6c-3.5-1.09-6.89,.36-8.04,4.02-1.13,3.15,.51,6.62,3.67,7.74h.01c.17,.07,.34,.12,.52,.17,1.68,.6,3.55,.38,5.03-.61l-1.27-1.65c-.92,.66-2.11,.82-3.18,.45-2.35-.73-3.32-2.93-2.54-5.4,.54-2.2,2.76-3.55,4.96-3.01l.28,.08c1.01,.28,1.82,1.02,2.22,1.99l1.92-.74c-.69-1.49-2.01-2.6-3.59-3.03m5.24,14l2.07,.44,2.5-11.66-2.07-.44-2.5,11.66Zm7.07-68.96c-.13-1.32,.82-2.49,2.13-2.64h.15c1.57,0,1.84,1.45,1.84,2.6v5.43h2.44v-6.12c0-2-1.06-3.96-3.61-3.96-1.28-.02-2.47,.7-3.03,1.85h0v-1.54h-2.25v9.79h2.44l-.12-5.42Zm-43.26-26.83c-2.76-.09-5.06,2.08-5.15,4.83h0c0,.15,0,.28,0,.41-.11,2.71,1.98,5,4.69,5.13,.19,0,.38,0,.57,0,1.63,.11,3.21-.62,4.2-1.92l-1.66-1.34c-.58,.84-1.56,1.32-2.58,1.27-1.42,.05-2.63-1-2.79-2.41h7.44v-.65c0-3.52-2-5.3-4.73-5.3m-2.71,4.21c.13-1.38,1.32-2.42,2.71-2.36,1.19-.08,2.22,.82,2.3,2.01v.02c.01,.11,.01,.22,0,.34h-5.01Zm17.93,81.6h0l-1.31-10.43-2.55-1.18-4.97,10.84,1.92,.88,3.84-8.37h0l1.3,10.73,2.45,1.12,4.9-10.83-1.92-.89-3.65,8.12ZM148.92,21.38c.08-1.54,.9-2.36,2.01-2.34,.95,0,1.73,.77,1.73,1.73v.13c0,1.92-2.1,3.75-6.26,7.08v1.4l8.54,.21v-1.76l-5.18-.12c3.84-3.17,5.06-4.87,5.11-6.93-.03-1.96-1.62-3.52-3.58-3.51h-.19c-2.19-.12-4.07,1.55-4.21,3.73v.36l2.09,.05m13.27,9.67c3.01,.65,5.08-.85,5.99-5.09s-.15-6.42-3.36-7.11c-3.06-.66-5.11,1.06-5.98,5.09-.82,3.77-.23,6.34,3.35,7.11m2.25-10.45c1.67,.36,2.52,1.27,1.73,4.92s-1.99,4.13-3.59,3.78c-1.92-.42-2.42-1.69-1.72-4.92,.74-3.45,1.86-4.15,3.58-3.78"/><path class="c" d="M144,288C64.6,288,0,223.4,0,144S64.6,0,144,0s144,64.6,144,144-64.6,144-144,144m0-284.6C66.48,3.4,3.4,66.47,3.4,144s63.08,140.6,140.6,140.6,140.6-63.07,140.6-140.6S221.53,3.4,144,3.4"/><path class="c" d="M39.54,202.97c-.46,0-.89-.25-1.11-.65l-.1-.18c-.35-.6-.15-1.37,.46-1.72h.02c.61-.35,1.39-.14,1.74,.47l.1,.18c.35,.6,.15,1.37-.46,1.72h-.02c-.19,.12-.4,.18-.62,.18m207.88-.36c-.22,0-.44-.06-.63-.16-.61-.35-.83-1.13-.48-1.74l.11-.17c.3-.64,1.06-.91,1.7-.61s.91,1.06,.61,1.7c-.02,.05-.05,.1-.08,.14l-.12,.19c-.22,.4-.65,.65-1.1,.64m-211.9-7.37c-.49,0-.93-.27-1.13-.71h0l-.07-.14c-.3-.64-.04-1.4,.6-1.7,.64-.3,1.4-.04,1.7,.6h0l.07,.15c.31,.63,.06,1.39-.56,1.7h-.01c-.18,.09-.38,.14-.58,.14m215.88-.39c-.19,0-.37-.04-.54-.12-.64-.3-.91-1.06-.62-1.7h0l.06-.13c.3-.64,1.06-.93,1.71-.64,.63,.27,.92,.99,.65,1.62h0v.07l-.06,.12c-.21,.45-.66,.73-1.15,.73m-219.39-7.56c-.53,0-1-.32-1.19-.82l-.08-.22c-.31-.64-.04-1.41,.6-1.72s1.41-.04,1.72,.6c.02,.05,.05,.1,.06,.16h0l.08,.2c.28,.65-.01,1.41-.67,1.69-.02,0-.04,.02-.06,.03-.15,.06-.3,.09-.46,.09m222.72-.42c-.15,0-.31-.03-.45-.08-.65-.26-.98-.99-.73-1.65l.08-.19c.25-.65,.98-.98,1.64-.73,.65,.25,.98,.98,.73,1.64h0l-.07,.2c-.2,.49-.67,.81-1.2,.82m-225.6-7.8c-.56,0-1.05-.37-1.22-.9l-.07-.2c-.2-.68,.19-1.4,.87-1.6h.02c.66-.21,1.36,.15,1.57,.8v.02h0l.07,.2c.21,.67-.17,1.39-.85,1.6-.12,.04-.25,.06-.37,.06m228.48-.44c-.14,.01-.28,0-.42-.03-.67-.21-1.05-.92-.84-1.59l.06-.2c.18-.68,.88-1.09,1.56-.91,.65,.17,1.05,.82,.92,1.48-.01,.06-.03,.11-.05,.16l-.06,.21c-.17,.53-.66,.89-1.22,.89m-230.68-7.97c-.59,0-1.1-.39-1.25-.96l-.05-.21c-.23-.67,.13-1.39,.8-1.62,.67-.22,1.39,.13,1.62,.8,.01,.03,.02,.06,.03,.09,0,.05,0,.11,0,.16l.05,.2c.16,.69-.27,1.37-.96,1.53h-.28m232.88-.44c-.09,.02-.19,.02-.28,0-.68-.15-1.11-.82-.96-1.5h0v-.21c.27-.65,1.02-.96,1.67-.69h0c.51,.17,.86,.63,.87,1.16v.2c-.14,.57-.65,.96-1.24,.96m-234.53-8.04c-.63,0-1.17-.46-1.26-1.08v-.21c-.1-.69,.38-1.34,1.07-1.44,.69-.1,1.34,.38,1.44,1.07v.21c.11,.69-.37,1.34-1.06,1.45h-.21m236.08-.45h-.19c-.69-.1-1.18-.74-1.08-1.43v-.23c.13-.69,.79-1.16,1.49-1.03,.66,.12,1.12,.74,1.04,1.41v.21c-.09,.62-.63,1.09-1.26,1.08m-237.04-8.2c-.66,0-1.22-.51-1.27-1.17v-.21c-.02-.68,.48-1.26,1.16-1.33,.7-.05,1.31,.48,1.36,1.18v.2c.06,.7-.47,1.32-1.17,1.37h-.11m238.02-.45h-.1c-.69-.07-1.2-.66-1.17-1.34v-.2c.02-.71,.6-1.26,1.31-1.25,.71,.02,1.26,.6,1.25,1.31,0,.04,0,.08,0,.12v.21c-.05,.67-.6,1.18-1.27,1.18m-238.41-8.3c-.7,0-1.27-.57-1.28-1.27v-.22c0-.7,.57-1.27,1.28-1.28h0c.7,0,1.27,.57,1.27,1.27h0v.21c0,.7-.56,1.28-1.27,1.29Zm.27-8.7h-.08c-.69-.06-1.21-.67-1.15-1.36v-.21c0-.71,.57-1.28,1.28-1.28s1.28,.57,1.28,1.28h0s0,.09,0,.14v.21c-.04,.67-.6,1.19-1.27,1.19m238.08-1.8c-.66,0-1.21-.51-1.27-1.16v-.22c-.05-.7,.49-1.31,1.19-1.36,.66-.04,1.24,.42,1.34,1.07,0,.03,0,.06,0,.09v.21c.06,.7-.47,1.32-1.17,1.37h-.11m.4,9.55c-.66,0-1.21-.51-1.27-1.17v-.21c-.06-.7,.46-1.32,1.16-1.38,.7-.05,1.32,.47,1.38,1.17v.21c.06,.7-.45,1.31-1.15,1.37h-.12M25.18,127.39h-.22c-.69-.09-1.18-.73-1.09-1.42v-.21c.13-.69,.8-1.15,1.5-1.01,.65,.12,1.1,.72,1.03,1.38v.2c-.09,.63-.63,1.11-1.27,1.1m236.16-1.79c-.63,0-1.16-.45-1.26-1.08v-.21c-.12-.69,.34-1.35,1.03-1.47,.02,0,.04,0,.06,0h0c.69-.1,1.34,.37,1.46,1.06v.22c.11,.69-.36,1.34-1.05,1.45h-.2m-234.61-6.79c-.09,0-.19,0-.28,0-.68-.15-1.11-.83-.96-1.51h0v-.19c.16-.69,.85-1.11,1.53-.95,.67,.16,1.1,.82,.96,1.49l-.05,.21c-.14,.57-.65,.97-1.24,.96m232.95-1.76c-.58,0-1.09-.39-1.24-.96l-.05-.2c-.11-.7,.37-1.35,1.07-1.45,.62-.09,1.21,.27,1.41,.87l.06,.21c.16,.69-.27,1.37-.96,1.54h-.29m-230.83-6.67c-.12,0-.24-.02-.36-.06-.67-.19-1.06-.89-.87-1.56h0l.07-.21c.2-.67,.91-1.06,1.58-.86,.67,.2,1.06,.91,.86,1.58h0l-.06,.2c-.16,.54-.66,.91-1.22,.91m228.55-1.73c-.56,0-1.05-.37-1.22-.9l-.06-.19c-.22-.65,.14-1.36,.79-1.58h.02c.67-.22,1.39,.15,1.6,.82l.06,.21c.21,.67-.16,1.38-.82,1.59h0c-.12,.04-.25,.06-.38,.06m-225.79-6.53c-.15,0-.31-.03-.45-.09-.66-.25-.99-.98-.74-1.64l.08-.19c.25-.66,.98-.99,1.64-.74s.99,.98,.74,1.64l-.08,.2c-.18,.5-.66,.83-1.19,.83m222.9-1.68c-.53,0-1-.32-1.18-.82l-.08-.19c-.27-.65,.05-1.4,.71-1.67,.65-.27,1.4,.05,1.67,.71l.08,.2c.26,.66-.07,1.4-.72,1.66-.15,.06-.31,.09-.47,.09m-219.48-6.37c-.18,0-.36-.04-.53-.12-.64-.29-.92-1.04-.63-1.68h0l.09-.2c.23-.67,.96-1.02,1.62-.79,.67,.23,1.02,.96,.79,1.62-.02,.07-.05,.14-.09,.2h0l-.09,.18c-.21,.45-.66,.74-1.16,.74m216.07-1.61c-.49,0-.93-.28-1.14-.72l-.06-.12c-.31-.64-.06-1.41,.58-1.73,.61-.32,1.36-.07,1.68,.54v.09l.06,.12c.31,.62,.05,1.38-.57,1.68h-.01c-.17,.09-.36,.13-.56,.13m-212.16-6.15c-.22,0-.43-.06-.61-.16-.61-.34-.84-1.11-.5-1.73l.12-.19c.29-.64,1.05-.92,1.69-.63s.92,1.05,.63,1.69h0l-.11,.18-.1,.17c-.22,.41-.66,.67-1.12,.66m208.09-1.54c-.46,0-.88-.24-1.1-.64l-.12-.18c-.35-.61-.14-1.39,.48-1.74,.61-.35,1.39-.14,1.74,.48l.11,.18c.36,.61,.15,1.39-.46,1.75h0c-.19,.12-.42,.18-.64,.17m-203.52-5.92c-.7-.02-1.26-.6-1.25-1.3,0-.22,.06-.43,.17-.62h0l.12-.18c.34-.62,1.11-.85,1.73-.51,.62,.34,.85,1.11,.51,1.73l-.12,.17-.12,.17c-.23,.37-.63,.59-1.07,.59m198.94-1.49c-.39-.01-.75-.21-.96-.54l-.12-.17c-.37-.6-.18-1.39,.42-1.76,.56-.34,1.29-.2,1.69,.32l.08,.11c.4,.59,.26,1.39-.32,1.8-.22,.15-.48,.23-.74,.23m-193.92-5.63c-.7,0-1.27-.56-1.27-1.26,0-.28,.09-.56,.27-.79l.12-.17c.37-.58,1.14-.76,1.72-.39,.58,.37,.76,1.14,.39,1.72-.04,.06-.08,.12-.13,.17l-.12,.17c-.24,.32-.62,.5-1.02,.5m188.84-1.34c-.38-.01-.73-.19-.96-.49l-.12-.16c-.3-.63-.02-1.39,.61-1.68,.42-.2,.91-.15,1.29,.13l.13,.17c.43,.53,.37,1.29-.13,1.75-.23,.17-.5,.27-.79,.27m-183.36-5.32c-.31,0-.61-.12-.84-.33-.53-.46-.58-1.26-.12-1.79h0l.14-.16c.47-.53,1.27-.58,1.8-.12,.53,.47,.58,1.27,.12,1.8h0l-.13,.16c-.25,.27-.59,.43-.96,.43m177.69-1.31c-.36,0-.71-.14-.96-.41l-.14-.15c-.47-.53-.43-1.34,.1-1.82,.53-.47,1.34-.43,1.82,.1l.14,.15c.47,.52,.43,1.33-.09,1.8-.23,.21-.54,.33-.85,.33m-171.7-5.01c-.71-.01-1.28-.59-1.27-1.31h0c0-.33,.14-.65,.37-.88l.16-.15c.47-.53,1.28-.58,1.81-.11,.53,.47,.58,1.28,.11,1.81h0l-.14,.13-.13,.13c-.24,.24-.56,.37-.9,.37m165.64-1.21c-.32,0-.64-.12-.87-.35l-.16-.15c-.53-.47-.58-1.27-.12-1.8,.44-.5,1.2-.58,1.73-.18,.05,.04,.1,.08,.14,.13l.14,.13c.51,.48,.54,1.29,.06,1.8h0c-.25,.27-.6,.41-.96,.4m-159.17-4.65c-.71-.01-1.27-.59-1.26-1.3h0c0-.37,.16-.72,.44-.96l.16-.14c.6-.37,1.38-.19,1.76,.4,.31,.47,.26,1.09-.12,1.52l-.16,.14c-.23,.19-.52,.3-.83,.3m152.64-1.12c-.29,0-.58-.09-.81-.28l-.17-.13c-.55-.45-.63-1.25-.18-1.8,.45-.55,1.25-.63,1.8-.18l.16,.13c.54,.44,.62,1.24,.18,1.78h-.01c-.24,.3-.59,.47-.96,.47m-145.8-4.21c-.68-.01-1.24-.56-1.25-1.25,0-.42,.19-.82,.54-1.06l.16-.12c.61-.35,1.39-.13,1.74,.49,.27,.48,.2,1.08-.17,1.49l-.11,.08-.17,.12c-.21,.16-.47,.24-.74,.24m138.84-1.02c-.26,0-.52-.08-.74-.23l-.15-.15c-.58-.4-.71-1.2-.31-1.77s1.2-.71,1.77-.31h0l.17,.12c.58,.4,.72,1.2,.32,1.78-.24,.34-.63,.54-1.05,.54m-131.64-3.84c-.7-.02-1.26-.61-1.24-1.31h0c0-.43,.22-.83,.59-1.06l.18-.12c.61-.35,1.39-.14,1.74,.47h0c.33,.59,.15,1.33-.4,1.7l-.18,.11c-.2,.13-.43,.19-.67,.19m124.34-.91c-.23,0-.45-.07-.65-.18l-.18-.12c-.6-.36-.8-1.14-.44-1.74,.36-.6,1.14-.8,1.74-.44h0l.14,.17c.6,.36,.8,1.15,.43,1.75h0c-.23,.39-.64,.62-1.08,.62m-116.77-3.42c-.71,0-1.27-.58-1.26-1.29,0-.46,.26-.89,.67-1.11h0l.16-.09c.64-.3,1.4-.02,1.7,.61,.28,.6,.06,1.31-.51,1.64l-.18,.1c-.18,.1-.39,.15-.6,.14m109.16-.81c-.2,0-.39-.05-.57-.13l-.19-.1c-.61-.35-.83-1.12-.49-1.74,.32-.57,1.02-.81,1.62-.55l.19,.1c.63,.31,.89,1.08,.57,1.71-.22,.43-.66,.71-1.14,.71m-101.3-2.96c-.71,0-1.27-.58-1.27-1.29,0-.5,.3-.94,.75-1.15l.2-.09c.67-.23,1.39,.13,1.62,.79,.2,.59-.05,1.24-.6,1.54l-.19,.09c-.16,.07-.33,.1-.51,.11m93.4-.7c-.16,0-.32-.03-.47-.1l-.21-.09c-.64-.26-.95-.99-.69-1.64h0c.26-.65,.99-.96,1.64-.7h.02l.18,.08c.65,.27,.96,1.01,.7,1.67-.2,.48-.66,.79-1.18,.79m-85.29-2.49c-.71,0-1.27-.59-1.26-1.29,0-.53,.34-1,.84-1.19l.18-.07c.67-.21,1.39,.17,1.6,.84,.19,.63-.12,1.3-.73,1.56l-.2,.07c-.14,.05-.28,.08-.42,.08m77.15-.59c-.14,0-.27-.02-.4-.07h-.19c-.66-.22-1.03-.93-.82-1.59h0c.22-.67,.94-1.03,1.61-.82l.2,.07c.67,.23,1.03,.95,.8,1.62-.17,.52-.66,.87-1.2,.87"/></g></svg>