<?xml version="1.0" encoding="UTF-8"?><svg id="a" xmlns="http://www.w3.org/2000/svg" viewBox="0 0 299.9 228.4"><defs><style>.b{fill:#f3f3f3;}.c{fill:#efb78e;}.d{fill:#bb8760;}</style></defs><polygon class="b" points="50 140 50 186.8 37.4 186.8 37.4 140 21.3 140 21.3 129.3 66.2 129.3 66.2 140 50 140"/><path class="b" d="M96.8,187.6c-17,0-28.5-9.2-28.5-29.6s11.4-29.7,28.4-29.7,28.4,9.3,28.4,29.7-11.3,29.6-28.3,29.6m0-49.1c-11.7,0-15.3,7-15.3,19.5s3.6,19.5,15.3,19.5,15.3-7.1,15.3-19.5-3.6-19.5-15.3-19.5"/><path class="b" d="M155,166.3h-11.7v20.4h-12.6v-57.1c4.9-.5,13.1-1.1,20.5-1.1,12.7,0,24.2,3.9,24.2,18.4,.1,11.6-5.7,19.4-20.4,19.4m-3.6-27.6c-2.4,0-4.9,.1-8,.3v17.5h9c5.8,0,10.9-.6,10.9-9.1-.1-6.6-3.5-8.7-11.9-8.7"/><polygon class="b" points="202.4 176.5 202.4 142.7 202.1 142.7 190.8 149.7 186 140.6 204.6 129.2 214.3 129.2 214.3 176.5 227.6 176.5 227.6 186.8 188.7 186.8 188.7 176.5 202.4 176.5"/><path class="b" d="M251,187.8c-17.7,0-22.6-11.9-22.6-29.8s4.9-29.7,22.6-29.7,22.5,11.9,22.5,29.7-4.8,29.8-22.5,29.8m0-49.4c-9.6,0-10.2,8-10.2,19.6,0,11,.6,19.8,10.2,19.8s10.2-8.5,10.2-19.8-.6-19.6-10.2-19.6"/><path class="b" d="M21.7,204.1l1.3-2c1.1,.9,2.5,1.5,4,1.5,1.3,0,2.1-.5,2.1-1.8s-1.5-1.7-2.9-2.1c-2-.6-3.9-1.4-3.9-3.7s2.1-3.6,4.8-3.6c1.5,0,3,.4,4.3,1.2l-1,2c-1-.7-2.2-1.1-3.5-1-1,0-2,.4-2,1.4,0,1.2,1.5,1.4,2.6,1.8,2,.6,4.1,1.3,4.1,4,0,3-2.3,4.1-4.9,4.1-1.7-.2-3.5-.7-5-1.8"/><path class="b" d="M43,200.8v4.7h-2.7v-12.9c1.5-.2,3.1-.3,4.7-.2,3.3,0,5.4,1.2,5.4,4.2,0,2.6-1.3,4.2-4.7,4.2h-2.7Zm0-6.3v4.3h2c1.7,0,2.6-.4,2.6-2.2,0-1.6-.7-2.2-2.6-2.2-.6,.1-1.3,.1-2,.1"/><polygon class="b" points="59 192.5 67.7 192.5 67.7 194.7 61.7 194.7 61.7 197.7 67.2 197.7 67.2 199.8 61.7 199.8 61.7 203.4 67.9 203.4 67.9 205.5 59 205.5 59 192.5"/><path class="b" d="M75.9,199c0-3.7,2-6.8,6.3-6.8,1.9-.1,3.7,.7,4.9,2.1l-1.7,1.6c-.8-1-1.9-1.5-3.2-1.4-2.2,0-3.6,1.4-3.6,4.5,0,2.4,1.1,4.4,3.6,4.4,1.3,0,2.5-.6,3.4-1.6l1.4,1.8c-1.3,1.4-3.1,2.1-5,2.1-3.8,0-6.1-2.6-6.1-6.7"/><rect class="b" x="95.6" y="192.5" width="2.7" height="13"/><path class="b" d="M115.5,202.7h-5.2l-1,2.8h-2.8l5-13h2.9l5.1,13h-2.9l-1.1-2.8Zm-2.7-7.9l-2,5.7h4l-1.8-5.7h-.2Z"/><polygon class="b" points="127.6 192.5 130.3 192.5 130.3 203.3 135.8 203.3 135.8 205.5 127.6 205.5 127.6 192.5"/><polygon class="b" points="147.5 205.5 144.8 205.5 144.8 194.7 141.1 194.7 141.1 192.5 151.1 192.5 151.1 194.7 147.5 194.7 147.5 205.5"/><polygon class="b" points="165.8 205.5 163.1 205.5 163.1 200.5 158.3 192.5 161.4 192.5 164.5 198.1 167.6 192.5 170.6 192.5 165.8 200.5 165.8 205.5"/><polygon class="b" points="191.4 192.5 194.1 192.5 194.1 203.3 199.6 203.3 199.6 205.5 191.4 205.5 191.4 192.5"/><rect class="b" x="208.3" y="192.5" width="2.7" height="13"/><path class="b" d="M219.3,204.1l1.2-2c1.1,.9,2.5,1.5,4,1.5,1.3,0,2.1-.5,2.1-1.8s-1.4-1.7-2.9-2.1c-2-.6-3.9-1.4-3.9-3.7s2.1-3.6,4.8-3.6c1.5,0,3,.4,4.3,1.2l-1,2c-1-.7-2.1-1.1-3.4-1.1-1.1,0-2.1,.4-2.1,1.4,0,1.2,1.5,1.4,2.6,1.8,2,.6,4.1,1.3,4.1,4,0,3-2.3,4.1-4.9,4.1-1.5-.1-3.3-.7-4.9-1.7"/><polygon class="b" points="242.8 205.5 240.1 205.5 240.1 194.7 236.5 194.7 236.5 192.5 246.5 192.5 246.5 194.7 242.8 194.7 242.8 205.5"/><path class="b" d="M253.3,204.1l1.3-2c1.1,.9,2.5,1.5,4,1.5,1.3,0,2.1-.5,2.1-1.8s-1.5-1.7-2.9-2.1c-2-.6-3.9-1.4-3.9-3.7s2.1-3.6,4.8-3.6c1.5,0,3,.4,4.3,1.2l-1,2c-1-.7-2.1-1.1-3.4-1.1-1.1,0-2,.4-2,1.4,0,1.2,1.5,1.4,2.6,1.8,2,.6,4.1,1.3,4.1,4,0,3-2.3,4.1-4.9,4.1-1.8,.1-3.7-.5-5.1-1.6"/><path class="d" d="M5.3,10.8H0L4.3,.4h3.1l-2.1,10.4Zm9.4,0h-5.3L13.6,.4h3.1l-2,10.4Z"/><polygon class="d" points="47.4 33.3 47.4 7.4 47.2 7.4 37 23.4 26.8 7.5 26.6 7.5 26.6 33.3 22.2 33.3 22.2 0 26.4 0 37 16.5 47.6 0 51.8 0 51.8 33.3 47.4 33.3"/><path class="d" d="M66.1,7.6c8,0,11.7,5.5,11.7,13.2,0,7.3-3.6,13-11.7,13s-11.6-5.6-11.6-13,3.3-13.2,11.6-13.2m0,22.9c5.6,0,7.2-4.4,7.2-9.7s-1.6-9.7-7.2-9.7-7.1,4.3-7.1,9.6,1.6,9.8,7.1,9.8"/><path class="d" d="M89.6,33.8c-3.4,0-6.7-.9-9.6-2.7l1.6-3.1c2.4,1.6,5.2,2.4,8,2.5,2.8,0,4.9-1.2,4.9-4s-2.7-3.4-5.6-4.3c-4.2-1.2-8.1-2.6-8.1-7.8,0-4.5,4-6.7,9-6.7,2.8,0,5.6,.7,8.1,2l-1.3,3.2c-2-1.2-4.3-1.8-6.7-1.9-2.7,0-5,.9-5,3.5s2.8,3,6.1,4.1c3.7,1.2,7.7,2.6,7.7,7.6-.1,5.3-3.9,7.6-9.1,7.6"/><path class="d" d="M111.7,33.5c-6,0-7.1-2.2-7.1-6.6V11.8h-4.1v-3.6h4.2V1.3h4.3v6.9h5.9v3.5h-5.9v14.5c0,2.6,.2,3.6,4.3,3.6,.6,0,.9,0,1.6-.1v3.4c-1,.4-2.1,.4-3.2,.4"/><polygon class="d" points="155.1 33.3 155.1 17.6 139.7 17.6 139.7 33.3 135.2 33.3 135.2 0 139.7 0 139.7 13.4 155.1 13.4 155.1 0 159.6 0 159.6 33.3 155.1 33.3"/><path class="d" d="M174.9,7.6c8,0,11.7,5.5,11.7,13.2,0,7.3-3.6,13-11.7,13s-11.6-5.6-11.6-13,3.3-13.2,11.6-13.2m0,22.9c5.6,0,7.2-4.4,7.2-9.7s-1.6-9.7-7.2-9.7-7.2,4.3-7.2,9.7,1.6,9.7,7.2,9.7"/><path class="d" d="M207,33.2v-14.6c0-4.4-.6-7.3-5.4-7.3-4.2,0-6.4,2.3-6.4,6.2v15.7h-4.3V8.2h3.7l.4,3.1h.2c1.6-2.5,4.1-3.7,7.6-3.7,6.9,0,8.7,3.7,8.7,10v15.6h-4.5Z"/><path class="d" d="M227.1,7.6c8,0,11.7,5.5,11.7,13.2,0,7.3-3.6,13-11.7,13s-11.6-5.6-11.6-13,3.3-13.2,11.6-13.2m0,22.9c5.6,0,7.2-4.4,7.2-9.7s-1.6-9.7-7.2-9.7-7.2,4.3-7.2,9.7,1.6,9.7,7.2,9.7"/><path class="d" d="M254.7,11.5c-4.7,0-7.7,1.3-7.7,5.9v15.8h-4.3V8.2h3.7l.4,3.2h0c1.5-2.6,4-3.7,7.7-3.7h1.3v3.8h-1.1Z"/><path class="d" d="M266.4,33.8c-3.4,0-6.7-.9-9.6-2.6l1.6-3.2c2.4,1.6,5.2,2.4,8,2.5,2.8,0,4.9-1.2,4.9-4s-2.7-3.4-5.6-4.3c-4.2-1.2-8.1-2.6-8.1-7.8,0-4.5,4-6.7,9-6.7,2.8,0,5.6,.7,8.1,2l-1.3,3.1c-2-1.2-4.3-1.8-6.7-1.8-2.7,0-5,.9-5,3.5s2.8,3,6.1,4.1c3.7,1.2,7.7,2.6,7.7,7.6-.1,5.3-3.9,7.6-9.1,7.6"/><path class="d" d="M69.9,80.3h-12.7V38.8c4.2-.5,8.4-.7,12.7-.7,12.7,0,19.8,7.8,19.8,21.1-.1,11.7-5.7,21.1-19.8,21.1m0-37.7c-2.3,0-4.9,.2-7.1,.4v32.7c2.2,.1,4.5,.1,6,.1,9.8,0,14.8-4.8,14.8-16.6,0-7.7-2.4-16.6-13.7-16.6"/><path class="d" d="M98.7,44.1c-1.7,.1-3.2-1.1-3.3-2.9-.1-1.7,1.1-3.2,2.8-3.3h.5c2.1,0,3.4,1.2,3.4,3.1,0,2-1.4,3.1-3.4,3.1m-2.7,4.7h5.5v31.5h-5.5v-31.5Z"/><polygon class="d" points="123.5 80.3 116.9 80.3 106.2 48.9 112 48.9 120.2 75.5 120.5 75.5 128.4 48.9 134.1 48.9 123.5 80.3"/><path class="d" d="M162.4,66.3h-22.1c0,6.4,3.2,10.5,9.5,10.5,3.4,0,6.7-1.2,9.3-3.3l1.9,3.8c-3.3,2.5-7.3,3.8-11.5,3.7-9.7,0-14.7-6.4-14.7-16.4,0-10.6,5.8-16.6,14.4-16.6s13.2,6.5,13.2,15.9c.1,.4,.1,1.7,0,2.4m-13-14.3c-6.9,0-9,5.5-9,10.6h17c0-5.5-2.3-10.6-8-10.6"/><path class="d" d="M183,53c-5.9,0-9.6,1.7-9.6,7.4v19.9h-5.5v-31.5h4.6l.5,4h.1c1.9-3.3,5.1-4.7,9.7-4.7h1.6v4.9h-1.4Z"/><path class="d" d="M198.8,81c-4.3,.1-8.5-1.1-12.1-3.3l2-4c3,1.9,6.4,3,10,3.2,3.5,0,6.1-1.4,6.1-5.1,0-3.4-3.4-4.3-7.1-5.4-5.3-1.6-10.2-3.3-10.2-9.8,0-5.7,5-8.5,11.3-8.5,3.6,0,7.1,.8,10.2,2.4l-1.6,4.1c-2.6-1.5-5.4-2.3-8.4-2.3-3.4,0-6.3,1.1-6.3,4.4s3.5,3.8,7.6,5.1c4.7,1.5,9.6,3.3,9.6,9.6,.2,6.7-4.7,9.6-11.1,9.6"/><path class="d" d="M219,44.1c-1.7,.1-3.2-1.1-3.4-2.9-.1-1.7,1.1-3.2,2.9-3.3h.5c2.1,0,3.4,1.2,3.4,3.1,0,2-1.4,3.1-3.4,3.1m-2.7,4.7h5.4v31.5h-5.4v-31.5Z"/><path class="d" d="M243.2,80.7c-7.6,0-8.9-2.8-8.9-8.3v-19.1h-5.2v-4.4h5.3v-8.7h5.4v8.7h7.4v4.4h-7.4v18.3c0,3.3,.2,4.5,5.4,4.5,.8,0,1.1,0,2-.1v4.3c-1.3,.3-2.6,.4-4,.4"/><path class="d" d="M266.5,84.4c-3,8-4.9,10.1-10.5,10.1-.9,0-2-.1-3.4-.2v-4.6c.9,.1,1.8,.2,2.8,.2,3.2,0,4.1-1.2,6-6.5l1.5-4.1-11.9-30.3h5.9l8.7,24.5h.2l8.1-24.5h5.8l-13.2,35.4Z"/><path class="d" d="M286.3,48.6h-3.1l2-10.4h5.3l-4.2,10.4Zm9.4,0h-3.1l2-10.4h5.3l-4.2,10.4Z"/><polygon class="d" points="93.7 218.2 99.9 218.2 99.9 221.1 93.7 221.1 93.7 227.4 89.9 227.4 89.9 212.2 100.6 212.2 100.6 215.3 93.7 215.3 93.7 218.2"/><path class="d" d="M102.4,219.8c0-4.8,2.6-7.8,7.7-7.8s7.7,3.1,7.7,7.8-2.7,7.8-7.7,7.8-7.7-2.9-7.7-7.8m3.9,0c0,2.6,.6,4.8,3.8,4.8s3.7-2.2,3.7-4.8-.6-4.8-3.7-4.8-3.8,2.3-3.8,4.8"/><path class="d" d="M127.4,222.3c-.1-.4-.2-.5-.6-.5h-2.3v5.6h-3.7v-15c1.8-.2,3.7-.3,5.5-.3,3.2,0,6.7,.7,6.7,4.7,.1,1.7-.9,3.4-2.5,4h0c.2,.2,.4,.4,.5,.7l2.6,5.8h-4l-2.2-5Zm-2.9-7.2v4h2.2c1.6,0,2.4-.6,2.4-2.1s-.9-2-2.7-2c-.6,0-1.3,0-1.9,.1"/><path class="d" d="M144.8,227.4l-.4-2.4c4.8-4,7.9-6,7.9-8.8,.1-1.2-.8-2.3-2.1-2.4h-.2c-1.6,.1-3,.9-4,2.1l-1.5-2c1.4-1.6,3.5-2.5,5.6-2.5,3.1,0,5,1.6,5,4.5s-1.7,5.4-7.4,9.1h7.7v2.4h-10.6Z"/><path class="d" d="M164.2,227.7c-4.6,0-5.9-3.1-5.9-8.1s1.3-8.1,5.9-8.1,5.9,3.1,5.9,8.1-1.3,8.1-5.9,8.1m0-14c-2.8,0-3.1,2.3-3.1,5.8s.3,5.8,3.1,5.8,3-2.4,3-5.8-.3-5.8-3-5.8"/><polygon class="b" points="31.4 74 34.5 74 34.5 68.2 37.1 68.2 37.1 74 42.9 74 42.9 77.1 28.8 77.1 28.8 67.6 31.4 67.6 31.4 74"/><path class="b" d="M43.1,59.2c0,4.2-2.3,7-7.3,7s-7.3-2.8-7.3-7,2.3-7,7.3-7,7.3,2.8,7.3,7m-12,0c0,2.9,1.7,3.8,4.8,3.8s4.8-.9,4.8-3.8-1.7-3.8-4.8-3.8-4.8,1-4.8,3.8"/><path class="b" d="M42.9,41.4l-4.8,2c-.4,.2-.5,.3-.5,.8v2.3h5.3v3.1h-14c-.2-1.6-.3-3.3-.2-4.9,0-2.9,.7-6,4.3-6,1.7-.2,3.3,.8,3.8,2.4h0c.1-.2,.5-.4,.7-.5l5.4-2.3v3.1Zm-11.9,3.1c0,.6,0,1.3,.1,1.9h4v-2.2c0-1.5-.4-2.5-2-2.5s-2.1,1.3-2.1,2.8"/><path class="c" d="M32.9,118.3h-10.1v-29.2c2.9-.3,6.6-.6,10.2-.6,8.9,0,15.1,4.4,15.1,14.9,.1,10.3-5.8,14.9-15.2,14.9m.3-24.8c-1.2,0-2.7,.1-4,.2v19.4h3.2c5.6,0,9-1.9,9-9.9,0-4.6-1.2-9.7-8.2-9.7"/><path class="c" d="M54.7,93.4c-2.2,0-3.7-1.2-3.7-3s1.5-3.1,3.7-3.1,3.8,1.2,3.8,3.1-1.6,3-3.8,3m-3.1,2.7h6.2v22.1h-6.2v-22.1Z"/><polygon class="c" points="76.2 118.3 69.1 118.3 61.1 96.1 67.8 96.1 72.7 112.5 72.9 112.5 77.7 96.1 84.1 96.1 76.2 118.3"/><path class="c" d="M106.2,109.2h-15.4c0,3.2,1.8,4.9,5.7,4.9,2.3,0,4.6-.6,6.6-1.9l2,4.1c-2.7,1.6-5.7,2.4-8.9,2.4-7.6,0-11.6-4.6-11.6-11.5,0-8.5,5.6-11.7,11.1-11.7,6.6,0,10.5,4.7,10.5,11.8,.1,.7,.1,1.3,0,1.9m-10.3-9.2c-3.5,0-5,2.4-5,5.2h9.8c0-2.9-1.5-5.2-4.8-5.2"/><path class="c" d="M121.6,101.2c-3.6,0-6.2,.4-6.2,4.5v12.7h-6.2v-22.1h5.3l.5,3h.2c1.2-2.2,2.9-3.4,6.4-3.4h1.5v5.5h-1.5v-.2Z"/><path class="c" d="M135.2,118.8c-3.5,0-6.9-.9-9.9-2.7l2.2-4.2c2.3,1.4,5,2.2,7.7,2.4,2.1,0,3.4-.7,3.4-2.3s-2-1.9-4.6-2.5c-3.9-.8-7.9-2.2-7.9-7.2,0-3.7,2.9-6.6,9.1-6.6,2.9,0,5.7,.6,8.3,1.9l-1.6,4.5c-1.9-1-4-1.6-6.2-1.7-2.1,0-3.8,.5-3.8,2s2.3,1.9,5.1,2.4c3.5,.8,7.4,2,7.4,6.9,0,4.8-3.4,7.1-9.2,7.1"/><path class="c" d="M150.9,93.4c-2.2,0-3.7-1.2-3.7-3s1.5-3.1,3.7-3.1,3.8,1.2,3.8,3.1-1.6,3-3.8,3m-3.1,2.7h6.2v22.1h-6.2v-22.1Z"/><path class="c" d="M169.4,118.7c-6,0-7.6-1.8-7.5-6.8v-10.8h-3.6v-5h3.7v-5.9h6.1v5.9h5.1v5h-5.1v9.9c0,2.2,.1,2.5,4,2.5h1.1v4.8c-1.2,.3-2.5,.4-3.8,.4"/><path class="c" d="M190.6,119.2c-2.9,7.3-4.3,9-9.7,9-.8,0-1.9-.1-3.3-.2v-5.2c.8,.1,1.6,.2,2.5,.1,2.3,0,2.8-.7,3.7-2.6l1.1-2.6-8.6-21.7h6.8l5,15.4h.2l5-15.4h6.7l-9.4,23.2Z"/><rect class="c" x="204.1" y="88.9" width="6.4" height="29.4"/><path class="c" d="M229.2,118.3v-12.4c0-3-.4-5-3.8-5-2.8,0-4.3,1.4-4.3,4.2v13.2h-6.2v-22.1h5.4l.4,2.7h.1c1.6-2.3,3.7-3.1,6.6-3.1,6.1,0,8.1,3.6,8.1,9.3v13.4l-6.3-.2Z"/><path class="c" d="M255.7,102.8c-1.4-1.6-3.5-2.5-5.6-2.4-4.1,0-5.5,3-5.5,6.7s1.4,6.9,5.5,6.9c2.3,.1,4.5-.7,6.2-2.2l2,4.1c-2.5,1.9-5.5,2.9-8.6,2.9-7.1,0-11.4-4.2-11.4-11.4s4.4-11.8,11.6-11.8c3.1,.1,6.1,1.2,8.5,3.2l-2.7,4Z"/><rect class="d" x="22.6" y="209.3" width="51.6" height="19.1"/><rect class="d" x="212.4" y="209.3" width="50.6" height="19.1"/><path class="d" d="M173.4,227.7l-.4-2.4c4.8-4,7.9-6,7.9-8.8,.1-1.3-.8-2.3-2.1-2.4h-.2c-1.6,.1-3,.9-4,2.1l-1.5-2c1.4-1.6,3.5-2.5,5.6-2.5,3.1,0,5,1.6,5,4.5s-1.7,5.4-7.4,9.1h7.7v2.3l-10.6,.1Z"/><path class="d" d="M192.9,227.9c-4.6,0-5.9-3.1-5.9-8.1s1.3-8.1,5.9-8.1,5.9,3.1,5.9,8.1c0,5-1.4,8.1-5.9,8.1m0-14c-2.8,0-3.1,2.3-3.1,5.8s.3,5.9,3.1,5.9,3-2.4,3-5.9-.3-5.8-3-5.8"/></svg>