<?xml version="1.0" encoding="UTF-8"?><svg id="a" xmlns="http://www.w3.org/2000/svg" viewBox="0 0 294.7 298.8"><defs><style>.b{fill:#bb8760;}.b,.c{fill-rule:evenodd;}.c{fill:#050e13;}</style></defs><path class="b" d="M179.5,116.2c-4.3,0-8.5,1.1-12.3,3.1,0-10.7,.2-20,.4-23.5l-22.7,4.2v2l2.2,.3c3.2,.4,4.4,2.2,4.7,6.3,.7,7.8,.6,49.9,0,56.6,6.3,1.5,12.8,2.3,19.3,2.3,18,0,28.8-10.8,28.8-27.8,.1-13.6-8.7-23.5-20.4-23.5h0Zm-7.9,47.9c-1.3,0-2.6-.1-3.9-.4-.4-4.7-.6-24.2-.6-41.2,1.7-.6,3.5-.9,5.3-.8,7.4,0,11.6,8.3,11.6,18.8,.1,13.4-5.1,23.6-12.4,23.6Z"/><path class="b" d="M59.5,97.3H0v2.8l3.2,.4c4.5,.6,6.3,3.4,6.8,9.6,1,14.5,1,29,0,43.5-.5,6.2-2.3,8.9-6.8,9.6L0,163.6v2.8H38.3v-2.8l-4-.4c-4.5-.6-6.3-3.4-6.8-9.6-.4-4.2-.6-11.4-.7-19.7l7.9,.2c5.3,.2,7.5,4,8.7,9.6h3v-23.3h-3c-1.3,5.6-3.5,9.4-8.7,9.6l-7.9,.2c0-11,.2-21.6,.7-28h11.7c9.2,0,14.1,5.7,17.2,15.6l3.5-1-.4-19.5h0Z"/><path class="b" d="M78.9,115.7c16.9,0,25.3,11.1,25.3,25.8s-9.5,26.1-26.4,26.1-25.3-11.2-25.3-25.9,9.4-26,26.4-26h0Zm-.9,3.2c-7.5,0-9.6,9.8-9.6,22.7s3.3,22.7,10.3,22.7c7.5,0,9.6-9.8,9.6-22.7-.1-12.6-3.4-22.7-10.3-22.7Z"/><path class="b" d="M204.1,142.1c0-13.6,8.8-26.3,26.3-26.3,14.2,0,21,10.2,21,23.6h-31.7c-.3,12.1,6,21,18.1,21,5.3,0,8.2-1.3,11.4-3.7l1.5,1.7c-3.5,4.7-10.8,9.2-20.6,9.2-15.2-.1-25.9-10.6-26-25.5h0Zm15.8-6.3l15.9-.3c.1-6.8-1.1-16.5-6.8-16.5s-8.9,9.2-9.1,16.8h0Z"/><path class="b" d="M291.6,118.4c-3.8-1.7-9.4-2.7-15.3-2.7-12.7,0-20.5,7.2-20.5,15.7s5.8,12.1,13.8,14.9c8.6,3,10.9,5.3,10.9,9.2s-3,7.7-8.4,7.7c-6.4,0-11.2-3.6-14.9-13.7l-2.6,.7,.5,14.3c5.7,2,11.8,3,17.9,3,13.5,0,21.7-6.4,21.7-16.7,0-7-3.5-10.8-12.4-14.1-9.6-3.6-12.9-5.8-12.9-10.1s3-7.3,7-7.3c6.1,0,10.3,3.7,13.1,12.4l2.6-.7-.5-12.6h0Z"/><path class="b" d="M148.4,117.1c-5.7-3.3-16.1-1.7-21.4,10l.3-11.5-22.6,4.2v2l2.2,.3c3.2,.4,4.4,2.2,4.7,6.3,.7,9.5,.7,19.1,0,28.6-.4,4.1-1.6,5.9-4.7,6.3l-2.2,.3v2.8h31.4v-2.8l-4.1-.3c-3.2-.4-4.4-2.2-4.7-6.3-.6-8.8-.7-17.7-.2-26.5,1.5-2.4,8.9-4.4,15.8,.1l5.5-13.5h0Z"/><polygon class="b" points="1.35 165.55 293.25 165.55 293.25 197.65 1.35 197.65 1.35 165.55"/><path class="b" d="M177,110.1v-1.3c3.2-2.4,6.2-5.1,9.1-7.9,2.9-2.9,6.1-6.6,6.1-10.7,0-2.6-1.8-5.1-5.8-5.1-3.3,0-5.4,2.2-6.9,3.7l-1.8-1.2,3.5-4.3c2.5-2.1,5.7-3.1,8.9-3.1,6.4,0,11.1,3.3,11.1,8.5,0,4.4-2.9,6.9-8.9,11.5l-5.8,4.4h8.9c3.2,0,4,0,5.5-2.7l2.5,.4c-.8,3-1.7,5.5-2.1,7.9l-24.3-.1Z"/><path class="b" d="M219.1,82.5c3,0,4.1,6.3,4.1,12.9,.2,6.5-.9,12.9-4.1,12.9-3,0-4.1-6.3-4.1-12.9s1.1-12.9,4.1-12.9Zm0-2.3c-10.1,0-13.3,8.3-13.3,15.2s4.1,15.2,13.3,15.2c10.1,0,13.3-8.3,13.3-15.2-.1-6.8-3.3-15.2-13.3-15.2Z"/><path class="b" d="M277.5,82.5c3,0,4.1,6.3,4.1,12.9,.2,6.5-.9,12.9-4.1,12.9-3,0-4.1-6.3-4.1-12.9s1.1-12.9,4.1-12.9Zm0-2.3c-10.1,0-13.3,8.3-13.3,15.2s4.1,15.2,13.3,15.2c10.1,0,13.3-8.3,13.3-15.2s-3.2-15.2-13.3-15.2Z"/><path class="c" d="M10.2,175.8c-.1-.5,0-1,.1-1.5,.1-.1,.3-.2,1-.2,.9,0,2.2,.7,2.2,3.2,0,2.3-1.1,3.4-2.5,3.4h-.8v-4.9Zm-3.9,11.1c0,3.2-.2,3.4-1.9,3.5v1.1h7.1c1.7,.1,3.4-.3,4.9-1.1,1.5-1,2.3-2.7,2.2-4.4,.2-2.5-1.7-4.7-4.3-4.9v-.1c2-.4,3.4-2.1,3.4-4.1,0-3.1-2-4.3-5.5-4.3H4.6v1.2c1.6,.2,1.8,.4,1.8,3.5l-.1,9.6h0Zm3.9-4.8h.7c1.7,0,3.2,1.2,3.2,4.2s-1.5,3.8-2.5,3.8-1.4-.5-1.4-3.1v-4.9Z"/><path class="c" d="M22.4,177.4c0-3.1-.2-3.3-1.8-3.5v-1.1h11.6c0,.5,.1,2.6,.3,4.8l-1.1,.1c-.1-1-.4-1.9-.9-2.7-.4-.5-1.2-.7-2.5-.7h-.4c-.9,0-1,0-1,1v5.6h1.2c2.1,0,2.2-.2,2.4-2.4h1.1v6.9h-1.1c-.2-2.6-.3-2.7-2.4-2.7h-1.2v4.8c0,1.5,0,2.2,.5,2.5,.5,.2,1.1,.3,1.7,.3,1,.1,1.9-.2,2.6-.9,.6-.9,.9-1.9,1.2-3l1.1,.2c-.2,1.7-.5,3.5-.9,5.2h-12.5v-1.1c1.9-.2,2.1-.4,2.1-3.5v-9.8h0Z"/><path class="c" d="M35.6,185.6c.5,1.7,2,4.9,4.4,4.9,1.3,0,2.3-1,2.3-2.9,0-1.5-1-2.9-2.5-3.5l-.4-.2c-2-1.1-4.3-2.6-4.3-5.7,0-3.3,2-6,5.9-6,.8,0,1.5,.1,2.3,.3,.6,.2,1,.3,1.3,.4,.1,1.1,.3,2.6,.5,4.5l-1.1,.2c-.5-1.9-1.4-4-3.3-4-1.3,.1-2.3,1.2-2.1,2.5h0c0,1.4,1,2.3,2.5,3.1l.5,.3c2.3,1.2,4.2,2.7,4.2,6.1,0,3.6-2.4,6.2-6.2,6.2-.9,0-1.8-.2-2.6-.5-.5-.2-1-.4-1.5-.7-.2-1.3-.5-2.9-.8-4.8l.9-.2h0Z"/><path class="c" d="M56.1,187c0,3.1,.2,3.3,2.2,3.5v1.1h-8.6v-1.1c2-.2,2.2-.4,2.2-3.5v-12.7h-.4c-1.6,0-2.3,.3-2.7,.9-.5,.9-.8,1.9-.9,2.9h-1c.1-2.4,.2-4.5,.3-5.9h.8c.2,.5,.7,.8,1.3,.7h9.7c.6,0,.8-.2,1.1-.7h.8c0,1.2,.1,3.7,.3,5.9l-1.1,.1c-.1-1-.5-2.1-1-3-.4-.5-1.2-.7-2.4-.7h-.6v12.5Z"/><path class="c" d="M68.6,185.6c.5,1.7,2,4.9,4.4,4.9,1.3,0,2.3-1,2.3-2.9,0-1.5-1-2.9-2.5-3.5l-.4-.2c-2-1.1-4.3-2.6-4.3-5.7,0-3.3,2-6,5.9-6,.8,0,1.5,.1,2.3,.3,.6,.2,1,.3,1.3,.4,.1,1.1,.3,2.6,.5,4.5l-1.1,.2c-.5-1.9-1.4-4-3.3-4-1.3,.1-2.2,1.2-2.1,2.5v.1c0,1.4,.9,2.3,2.5,3.1l.5,.3c2.3,1.2,4.2,2.7,4.2,6.1,0,3.6-2.4,6.2-6.2,6.2-.9,0-1.8-.2-2.7-.5-.5-.2-1-.4-1.5-.7-.2-1.3-.5-2.9-.8-4.8l1-.3h0Z"/><path class="c" d="M100.1,172.7v1.2c-1.9,.2-2,.3-1.9,3.4l.2,9.7c.1,3.2,.1,3.3,1.9,3.5v1.1h-7.7v-1.1c1.8-.2,1.9-.3,1.9-3.5v-10.2h-.1l-4.7,14.6h-1.4l-4.5-13.6h0l-.2,6.4c-.1,1.6-.1,3.2,0,4.8,.1,1.1,.6,1.3,2.2,1.5v1.1h-6v-1.1c1.2-.1,1.6-.4,1.8-1.5,.1-1.1,.3-2.4,.4-5.1l.3-5.9c.2-3.7,0-4-2-4.2v-1.1h5.8l4.3,11.5,3.7-11.5h6Z"/><path class="c" d="M108,178.7h0l1.6,5.5h-3.1l1.5-5.5Zm1.6,13h7.7v-1.1c-1.2-.2-1.6-.3-2.4-2.9-1-3-2-6.4-3-9.8l-1.7-5.5-1.7,.4-4.9,15c-.8,2.4-1.2,2.6-2.4,2.8v1.1h5.7v-1.1l-.7-.1c-1.1-.1-1.1-.4-.8-1.7l.7-2.8h4l.9,3c.3,1.1,.3,1.3-.6,1.5l-.7,.1-.1,1.1h0Z"/><path class="c" d="M124.1,187.3c0,1.5,0,2.2,.5,2.5,.5,.2,1.1,.3,1.7,.3,.9,.1,1.8-.2,2.3-.8,.6-.9,1-1.8,1.2-2.9l1.1,.2c-.1,1.1-.7,4.1-.9,5h-12.1v-1.1c1.9-.2,2.1-.4,2.1-3.5v-9.6c0-3.1-.2-3.3-1.8-3.5v-1.1h7.9v1.1c-1.8,.2-2,.4-2,3.5v9.9h0Z"/><path class="c" d="M137.8,187.3c0,1.5,0,2.2,.5,2.5,.5,.2,1.1,.3,1.7,.3,.9,.1,1.8-.2,2.3-.8,.6-.9,1-1.8,1.2-2.9l1.1,.2c-.1,1.1-.7,4.1-.9,5h-12.1v-1.1c1.9-.2,2.1-.4,2.1-3.5v-9.6c0-3.1-.2-3.3-1.8-3.5v-1.1h8v1.1c-1.8,.2-2,.4-2,3.5l-.1,9.9h0Z"/><path class="c" d="M163.9,178.3c-.8-3.5-2.3-4.5-4-4.5-3,0-4.7,3.8-4.7,7.9,0,5.3,2.2,8.7,4.7,8.7,2.1,0,3.3-1.6,4.6-4.8l1.1,.2c-.3,1.8-.8,3.6-1.3,5.3-1.4,.5-2.9,.7-4.5,.8-6.6,0-9.2-4.9-9.2-9.6,0-6,3.9-10.1,9.6-10.1,1.5,.1,2.9,.3,4.4,.8,.2,1.6,.3,2.9,.4,5.1l-1.1,.2h0Z"/><path class="c" d="M174.6,173.8c2.1,0,3.9,3.2,3.9,9,0,5.2-1.2,7.6-3.3,7.6-2.4,0-4.1-3.8-4.1-9.1,.1-4.9,1.6-7.5,3.5-7.5h0Zm.5-1.5c-5.8,0-8.5,5.4-8.5,10.1,0,5.3,3.2,9.6,8.1,9.6s8.3-3.9,8.3-10.1c0-5.7-3.4-9.6-7.9-9.6h0Z"/><path class="c" d="M204.6,172.7v1.2c-1.9,.2-2,.3-1.9,3.4l.2,9.7c.1,3.2,.1,3.3,1.9,3.5v1.1h-7.7v-1.1c1.8-.2,1.9-.3,1.9-3.5l-.1-10.2h-.1l-4.7,14.6h-1.3l-4.5-13.5h0l-.2,6.4c-.1,1.6-.1,3.2,0,4.8,.1,1.1,.6,1.3,2.2,1.5v1.1h-6v-1.1c1.2-.1,1.6-.4,1.8-1.5s.3-2.4,.4-5.1l.3-5.9c.2-3.7,0-4-2-4.2v-1.1h5.8l4.3,11.5,3.7-11.5,6-.1Z"/><path class="c" d="M212.4,175.2c0-.9,0-1.1,.8-1.1,1.1,0,2.5,1,2.5,4,0,3.8-1.5,4.5-2.3,4.5-.4,0-.7-.1-1-.2v-7.2Zm0,8.7l1.8,.5h.7c2.7-.3,5.2-2.3,5.2-6.2,.1-1.6-.5-3.1-1.7-4.2-1-.9-2.3-1.3-4.6-1.3h-7.1v1.1c1.5,.2,1.7,.4,1.7,3.5v9.6c0,3.1-.2,3.4-1.9,3.5v1.1h8.1v-1.1c-2-.2-2.2-.4-2.2-3.5v-3h0Z"/><path class="c" d="M225.6,178.7h0l1.6,5.5h-3.1l1.5-5.5Zm1.6,13h7.6v-1.1c-1.2-.2-1.6-.3-2.4-2.9-.9-3-2-6.4-3-9.8l-1.7-5.5-1.7,.4-4.9,15c-.8,2.4-1.2,2.6-2.4,2.8v1.1h5.7v-1.1l-.7-.1c-1.1-.1-1.2-.4-.8-1.7l.7-2.8h4l.9,3c.3,1.1,.3,1.3-.6,1.5l-.7,.1v1.1h0Z"/><path class="c" d="M250.3,191.8h-2.1l-9-13.7h0v5.3c0,3,.1,4.6,.2,5.5s.8,1.4,2.4,1.5v1.1h-6.1v-1.1c1.1-.1,1.7-.5,1.8-1.5,.2-1.8,.2-3.7,.2-5.5v-5.4c0-2.1,0-2.5-.5-3.3-.4-.6-1.1-.9-1.9-.9v-1.1h5.4l8.1,12.1h0v-3.9c0-3.1-.1-4.7-.2-5.6-.1-.9-.7-1.4-2.4-1.4v-1.1h6.2v1.1c-1.2,.1-1.9,.5-2,1.5-.2,1.8-.2,3.7-.2,5.6l.1,10.8h0Z"/><path class="c" d="M259.8,187c0,3.1,.2,3.3,1.9,3.5v1.1h-7.9v-1.1c1.7-.2,1.9-.4,1.9-3.5v-9.6c0-3.1-.2-3.3-1.9-3.5v-1.1h7.9v1.1c-1.7,.2-1.9,.4-1.9,3.5v9.6h0Z"/><path class="c" d="M265.3,177.4c0-3.1-.2-3.3-1.8-3.5v-1.1h11.6c0,.5,.1,2.6,.3,4.8l-1.1,.1c-.1-1-.4-1.9-.9-2.7-.4-.5-1.2-.7-2.5-.7h-.4c-.9,0-1,0-1,1v5.6h1.2c2.1,0,2.2-.2,2.4-2.4h1.1v6.9h-1.1c-.2-2.6-.3-2.7-2.4-2.7h-1.2v4.8c0,1.5,0,2.2,.5,2.5,.5,.2,1.1,.3,1.7,.3,1,.1,1.9-.2,2.6-.9,.6-.9,1-1.9,1.2-3l1.1,.2c-.2,1.7-.5,3.5-.9,5.2h-12.5v-1.1c1.9-.2,2.1-.4,2.1-3.5v-9.8h0Z"/><path class="c" d="M278.6,185.6c.5,1.7,2,4.9,4.4,4.9,1.3,0,2.3-1,2.3-2.9,0-1.5-1-2.9-2.5-3.5l-.4-.2c-2-1.1-4.3-2.6-4.3-5.7,0-3.3,2-6,5.9-6,.8,0,1.5,.1,2.3,.3,.6,.2,1,.3,1.3,.4,.1,1.1,.3,2.6,.5,4.5l-1.1,.2c-.5-1.9-1.4-4-3.3-4-1.3,.1-2.2,1.2-2.1,2.5v.1c0,1.4,.9,2.3,2.5,3.1l.5,.3c2.2,1.2,4.2,2.7,4.2,6.1,.2,3.2-2.3,6-5.6,6.2h-.6c-.9,0-1.8-.2-2.6-.5-.5-.2-1-.4-1.5-.7-.2-1.3-.5-2.9-.8-4.8l.9-.3h0Z"/><path class="b" d="M135.8,0C77.5,0,24.8,33.6,1.7,85.6H66.8C97.4,29.8,168.8,8.7,226.3,38.3c9.9,5.1,19,11.5,27,19.1C225.8,21.3,182.2,0,135.8,0Z"/><path class="b" d="M150.6,298.8c61.4,0,116.9-35.4,141.2-90.1h-68.5c-32.2,58.7-107.3,81-167.9,49.8-10.4-5.4-20-12.2-28.5-20.2,29,38.1,74.9,60.5,123.7,60.5h0Z"/><path class="b" d="M234.8,110.1v-1.3c3.2-2.4,6.2-5.1,9.1-7.9,2.9-2.9,6.1-6.6,6.1-10.7,0-2.6-1.8-5.1-5.8-5.1-3.3,0-5.4,2.2-6.9,3.7l-1.9-1.2,3.5-4.3c2.5-2.1,5.7-3.1,9-3.1,6.4,0,11.1,3.3,11.1,8.5,0,4.4-2.9,6.9-8.9,11.5l-5.8,4.4h8.9c3.2,0,4,0,5.5-2.7l2.5,.4c-.8,3-1.7,5.5-2.1,7.9l-24.3-.1Z"/></svg>