<?xml version="1.0" encoding="UTF-8"?><svg id="a" xmlns="http://www.w3.org/2000/svg" viewBox="0 0 300.01 248.34"><defs><style>.b{fill:#fff;}.c{fill:#bb8760;}.d{fill:#050e13;stroke-width:6px;}.d,.e{stroke:#bb8760;}.e{fill:none;stroke-width:6.4px;}</style></defs><polygon class="d" points="34.69 3.01 261.01 4.01 261.01 245.32 34.69 244.32 34.69 3.01"/><path class="b" d="M111.83,22.01c-1.46,0-2.9,.34-4.21,1,0-3.67,.06-6.87,.15-8.09l-7.76,1.46v.63l.76,.09c1.08,.15,1.49,.77,1.62,2.17,.25,2.7,.21,17.15,0,19.47,2.17,.5,4.38,.77,6.61,.8,6.16,0,9.87-3.7,9.87-9.56,0-4.7-3-8.08-7-8.08m-2.7,16.45c-.44-.01-.88-.06-1.32-.13-.13-1.62-.2-8.31-.19-14.15,.58-.21,1.19-.31,1.81-.3,2.55,0,4,2.87,4,6.49,0,4.6-1.75,8.09-4.28,8.09"/><path class="b" d="M70.73,15.47h-20.41v1l1.09,.15c1.55,.21,2.15,1.15,2.33,3.29,.33,4.99,.33,10.01,0,15-.18,2.14-.78,3.08-2.28,3.3l-1.09,.14v1h13.09v-1l-1.38-.14c-1.56-.2-2.16-1.2-2.35-3.3-.12-1.46-.2-3.91-.23-6.8l2.7,.09c1.81,.06,2.56,1.36,3,3.29h1v-8h-1c-.44,1.93-1.19,3.23-3,3.29l-2.75-.07c0-3.8,.06-7.44,.24-9.64h4c3.15,0,4.83,2,5.88,5.38l1.21-.33"/><path class="b" d="M77.36,21.78c5.8,0,8.68,3.82,8.68,8.87s-3.25,9-9,9-8.68-3.82-8.68-8.87,3.25-9,9-9m-.3,1.09c-2.56,0-3.28,3.37-3.28,7.82s1.13,7.82,3.51,7.82c2.57,0,3.28-3.37,3.28-7.82s-1.11-7.82-3.51-7.82"/><path class="b" d="M120.3,30.85c0-4.67,3-9.07,9-9.07,4.86,0,7.19,3.51,7.21,8.11h-10.85c-.12,4.16,2,7.22,6.19,7.22,1.4,.06,2.78-.38,3.88-1.26l.5,.59c-1.72,2.07-4.3,3.24-7,3.16-5.22,0-8.92-3.59-8.93-8.75m5.4-2.15l5.45-.11c0-2.35-.36-5.7-2.31-5.7s-3.08,3.18-3.14,5.81"/><path class="b" d="M150.27,22.71c-1.67-.65-3.46-.96-5.25-.92-4.36,0-7,2.49-7,5.4s2,4.16,4.75,5.12c3,1,3.75,1.83,3.75,3.16-.02,1.48-1.22,2.67-2.7,2.66h-.2c-2.18,0-3.84-1.25-5.11-4.7l-.89,.22,.16,4.94c1.97,.67,4.05,1.01,6.13,1,4.62,0,7.43-2.2,7.43-5.76,0-2.39-1.2-3.71-4.23-4.85-3.28-1.23-4.41-2-4.41-3.49-.04-1.3,.97-2.38,2.27-2.43h.12c2.1,0,3.54,1.27,4.48,4.25l.89-.25"/><path class="b" d="M101.18,22.25c-2-1.13-5.52-.59-7.33,3.45l.09-3.94-7.74,1.46v.68l.76,.09c1.08,.15,1.49,.76,1.62,2.17,.22,3.27,.22,6.56,0,9.83-.13,1.41-.54,2-1.62,2.16l-.76,.1v1h10.77v-1l-1.42-.1c-1.09-.16-1.48-.75-1.61-2.16-.19-3.04-.19-6.09,0-9.13,.52-.83,3-1.5,5.4,0"/><path class="b" d="M173.01,38.4v-2l2.15-2.76c2.82-3.63,5.14-6.62,5.14-9.75,.2-1.46-.83-2.8-2.29-3h-.51c-1.17,.06-2.29,.44-3.26,1.1l-.78-3.37c1.48-.88,3.16-1.34,4.88-1.35,4.78,0,6.32,4.2,6.32,7.32,0,4.1-2.56,6.4-5.07,9.33l-1.32,1.54v.07h6.7v2.87"/><path class="b" d="M193.65,38.71c-4.74,0-6.35-4.45-6.35-10.1,0-6.29,2-11.31,6.49-11.31,5.07,0,6.22,5.89,6.22,11.11,0,7.83-2.82,10.3-6.32,10.3m0-2.77c1.34,0,1.86-2.42,1.86-7.43,0-4.71-.44-6.44-1.86-6.44s-2.08,1.36-2,6.44c.08,5.08,.58,7.39,2,7.39v.04Z"/><path class="b" d="M201.46,38.33v-2l2.15-2.75c2.85-3.57,5.12-6.57,5.12-9.72,.19-1.46-.84-1.8-2.3-2v-1h0c-.15-.01-.29-.01-.44,0-1.19,.06-2.33,1.45-3.3,2.13l-.81-4.39c1.47-.87,3.14-1.33,4.85-1.35,4.78,0,6.32,3.2,6.32,6.33,0,4.1-2.56,7.39-5.07,10.32l-1.32,1.54v.08h6.69v2.86"/><line class="e" x1="162.72" y1="14.9" x2="162.72" y2="43.18"/><polyline class="c" points="0 48.46 0 91.97 297.83 91.97 255.78 70.21 300.01 48.46"/><path class="b" d="M52.86,84.53l-6.54-28.42h8.19l1.64,10.6c.5,3.29,1,7.08,1.47,10h.11c.42-3.2,1-6.62,1.64-10.08l1.82-10.46h8.13l1.78,11c.5,3.25,.87,6.15,1.26,9.36h.12c.41-3.16,.92-6.54,1.43-9.87l1.69-10.46h7.68l-7,28.42h-8.3l-1.9-11.22c-.42-2.48-.8-5.14-1.18-8.52h-.09c-.46,3.38-.84,6-1.35,8.57l-2.16,11.08"/><path class="b" d="M113.46,70.01c0,9.15-5.48,15-14.25,15s-13.63-6.61-13.63-14.5,5.44-14.84,14.13-14.84c9.15,0,13.75,6.79,13.75,14.34m-19.85,.34c0,5.31,2.31,8.6,6,8.6s5.85-3.55,5.85-8.65-2.19-8.6-5.86-8.6-5.94,3.45-5.94,8.69"/><path class="b" d="M118.3,56.49c3.04-.42,6.12-.62,9.19-.59,4.35,0,7.47,.59,9.62,2.2,1.9,1.48,2.95,3.79,2.83,6.19-.08,3.08-2.02,5.8-4.9,6.88v.16c1.9,.81,2.91,2.62,3.63,5.07,.89,2.91,1.81,7,2.36,8.13h-7.8c-.86-2.11-1.53-4.3-2-6.53-.77-3.42-1.82-4.13-4.18-4.13h-1.22v10.66h-7.55m7.55-16.1h2c2.87,0,4.51-1.44,4.51-3.55s-1.39-3.33-3.92-3.37c-.86-.03-1.72,.03-2.57,.17l-.02,6.75Z"/><polyline class="b" points="145.08 56.12 152.71 56.12 152.71 78.17 163.63 78.17 163.63 84.54 145.08 84.54"/><path class="b" d="M168.1,56.49c3-.42,6.03-.61,9.06-.59,5.45,0,8.86,.89,11.68,2.82,3.12,2.16,5.14,5.69,5.14,10.93,0,5.77-2.19,9.53-5,11.68-3.13,2.44-7.77,3.54-13.33,3.54-2.54,.04-5.08-.13-7.59-.51m7.67-5.52c.53,.07,1.07,.1,1.6,.08,4.93,.09,8.55-2.65,8.55-9.06,0-5.53-3.27-8.14-7.83-8.14-.77-.02-1.55,.03-2.31,.17v16.95Z"/><path class="b" d="M207.38,55.35c-1.38,4.19-3.23,8.22-5.5,12l-4.56,.38c1.4-3.9,2.45-7.91,3.14-12"/><path class="b" d="M211.35,77.01c2.3,1.12,4.82,1.72,7.38,1.75,2.61,0,3.88-.88,3.88-2.32s-1.26-2.19-4.47-3.29c-4.8-1.68-8-4.34-8-8.56,0-5,4.22-8.89,11.39-8.89,2.65-.07,5.28,.43,7.71,1.47l-1.6,6.08c-1.94-.91-4.05-1.39-6.19-1.4-2.33,0-3.59,.84-3.59,2.1,0,1.44,1.52,2,5.1,3.37,5.1,1.86,7.43,4.6,7.43,8.57,0,4.89-3.84,9.11-12.15,9.11-2.88,.01-5.72-.59-8.35-1.77"/><path class="c" d="M89.02,135.01c-.22-5.66-.29-12.28-.29-20h-.22c-1.56,6.55-3.61,14-5.24,19.42l-4.93,17.34h-10.35l-4.12-17.23c-1.33-5.36-2.81-12.72-4-19.49h-.14c-.28,7-.52,14.35-.74,20l-.81,17.72h-12.19l3.09-49.57h17.87l3.24,13.31c1.4,5.52,2.87,12.14,3.9,18.17h.22c1.4-6,3-13,4.49-18.24l3.75-13.24h17.43l2.48,49.53h-12.85"/><path class="c" d="M155.46,127.37c0,16-9.56,26.11-24.86,26.11s-23.87-11.54-23.87-25.3c0-14.49,9.41-26,24.64-26,16,0,24,11.85,24,25.16m-34.64,.52c0,9.34,4,15.07,10.44,15.07s10.2-6.22,10.2-15.22c0-8.53-3.83-15-10.29-15s-10.3,6-10.3,15.15"/><path class="c" d="M161.53,139.43c4.01,1.98,8.4,3.03,12.87,3.09,4.56,0,6.77-1.55,6.77-4s-2.21-3.83-7.8-5.74c-8.38-2.94-14-7.58-14-14.93,0-8.75,7.43-15.52,19.93-15.52,4.61-.14,9.2,.74,13.43,2.58l-2.79,10.58c-3.37-1.54-7.03-2.34-10.73-2.35-4.06,0-6.26,1.47-6.26,3.68,0,2.5,2.65,3.53,8.9,5.81,8.9,3.31,12.87,8.09,12.87,15,0,8.53-6.62,15.81-21.11,15.81-6,0-11.76-1.55-14.56-3"/><polyline class="c" points="209.7 114.28 197.05 114.28 197.05 103.1 235.89 103.1 235.89 114.28 223.01 114.28 223.01 152.68 209.7 152.68"/><rect class="b" x="45.52" y="166.02" width="5.97" height="22.25"/><path class="b" d="M56.08,188.27v-22.26h7l3.53,6.83c1.33,2.52,2.5,5.12,3.5,7.79h.08c-.32-3.12-.47-6.25-.46-9.38v-5.24h5.46v22.25h-6.23l-3.8-7.39c-1.22-2.35-2.67-5.35-3.74-8h-.12c.17,3,.23,6.34,.23,10v5.45"/><path class="b" d="M79.86,188.27v-22.26h7l3.6,6.82c1.33,2.52,2.5,5.12,3.5,7.79h.1c-.34-3.12-.49-6.25-.47-9.38v-5.23h5.46v22.25h-6.32l-3.81-7.39c-1.22-2.35-2.66-5.35-3.73-8h-.13c.17,3,.24,6.34,.24,10v5.45"/><path class="b" d="M124.56,176.91c0,7.17-4.29,11.72-11.16,11.72s-10.67-5.18-10.67-11.35c0-6.51,4.23-11.66,11.06-11.66,7.17,0,10.8,5.32,10.8,11.29m-15.55,.23c0,4.19,1.82,6.77,4.69,6.77s4.56-2.8,4.56-6.83-1.72-6.74-4.62-6.74-4.63,2.71-4.63,6.8"/><path class="b" d="M133.24,188.27l-7.06-22.26h6.55l2.38,8.75c.69,2.51,1.28,4.92,1.85,7.79h.06c.53-2.71,1.15-5.28,1.82-7.69l2.41-8.85h6.33l-7.26,22.25"/><path class="b" d="M154.61,183.12l-1.26,5.15h-6.16l6.43-22.26h8l6.63,22.25h-6.43l-1.43-5.15m-.81-4.39l-1-4c-.32-1.25-.75-3.1-1.11-4.39h-.07c-.33,1.29-.67,3.14-1,4.39l-1,4h4.18Z"/><polyline class="b" points="173.03 171.04 167.35 171.04 167.35 166.02 184.79 166.02 184.79 171.04 179.02 171.04 179.02 188.27 173.03 188.27"/><rect class="b" x="188.03" y="166.02" width="5.97" height="22.25"/><path class="b" d="M204.01,188.27l-7.06-22.26h6.51l2.38,8.75c.69,2.51,1.29,4.92,1.84,7.79h.05c.53-2.71,1.16-5.28,1.82-7.69l2.41-8.85h6.34l-7.26,22.25"/><polyline class="b" points="235.21 179.3 227.22 179.3 227.22 183.39 236.17 183.39 236.17 188.28 221.24 188.28 221.24 166.02 235.71 166.02 235.71 170.91 227.22 170.91 227.22 174.47 235.21 174.47"/><path class="b" d="M62.46,223.28c-1.86,.72-3.85,1.06-5.84,1-8.7,0-12.53-5.43-12.53-11.64,0-8.21,6-12.39,13-12.39,1.98-.08,3.96,.26,5.8,1l-1.16,4.89c-1.37-.55-2.84-.83-4.32-.82-3.55,0-6.66,2.1-6.66,6.87,0,4.24,2.52,6.87,6.8,6.87,1.41,.01,2.81-.21,4.14-.66"/><path class="b" d="M87.12,212.01c0,7.49-4.48,12.26-11.66,12.26s-11.19-5.43-11.19-11.88c0-6.8,4.42-12.18,11.57-12.18s11.28,5.55,11.28,11.8m-16.27,.24c0,4.39,1.91,7.08,4.91,7.08s4.76-2.93,4.76-7.15c0-4-1.79-7-4.83-7s-4.83,2.83-4.83,7.15"/><path class="b" d="M110.67,215.55c-.1-2.66-.14-5.77-.14-9.4h-.07c-.72,3.08-1.69,6.57-2.44,9.12l-2.29,8.11h-4.9l-1.93-8.08c-.63-2.52-1.31-6-1.86-9.15h-.07c-.14,3.28-.25,6.74-.35,9.4l-.38,8.32h-5.78l1.45-23.27h8.39l1.51,6.25c.66,2.58,1.35,5.69,1.84,8.53h.08c.67-2.84,1.42-6.12,2.11-8.57l1.77-6.21h8.18l1.18,23.27h-6"/><path class="b" d="M121.33,201.01c2.54-.37,5.1-.54,7.67-.51,3.35,0,5.76,.62,7.39,1.86,1.71,1.34,2.69,3.41,2.65,5.59,.09,2.15-.74,4.23-2.27,5.74-1.87,1.65-4.59,2.41-7.75,2.41-.61,0-1.14-.07-1.52-.07v7.91h-6.18m6.18-12.67c.35,0,.76,.07,1.42,.07,2.42,0,3.93-1.25,3.93-3.25,0-1.72-1.14-2.9-3.52-2.9-.61-.01-1.23,.03-1.83,.14v5.94Z"/><path class="b" d="M147.01,218.48l-1.28,5.39h-6.45l6.73-23.27h8.32l6.94,23.27h-6.73l-1.49-5.39m-.86-4.59l-1.08-4.18c-.34-1.31-.8-3.24-1.17-4.59h-.06c-.36,1.35-.69,3.28-1,4.59l-1,4.18h4.31Z"/><path class="b" d="M164.73,223.87v-23.27h7.35l3.69,7.15c1.4,2.63,2.64,5.35,3.69,8.14h.1c-.34-3.26-.5-6.53-.48-9.8v-5.49h5.7v23.27h-6.56l-4-7.74c-1.28-2.45-2.8-5.59-3.91-8.38h-.13c.17,3.13,.25,6.62,.25,10.42v5.7"/><rect class="b" x="189.58" y="200.6" width="6.25" height="23.27"/><polyline class="b" points="215.23 214.48 206.87 214.48 206.87 218.76 216.23 218.76 216.23 223.88 200.62 223.88 200.62 200.6 215.74 200.6 215.74 205.71 206.87 205.71 206.87 209.44 215.23 209.44"/><path class="b" d="M220.62,217.65c1.87,.93,3.92,1.42,6,1.45,2.14,0,3.17-.72,3.17-1.89s-1-1.8-3.66-2.7c-3.94-1.38-6.55-3.56-6.55-7,0-4.12,3.47-7.29,9.35-7.29,2.16-.05,4.3,.36,6.29,1.21l-1.33,5c-1.57-.72-3.27-1.1-5-1.11-1.9,0-2.94,.69-2.94,1.73s1.25,1.66,4.18,2.73c4.18,1.55,6,3.8,6,7,0,4-3.11,7.43-9.91,7.43-2.35,.02-4.68-.46-6.83-1.42"/><path class="b" d="M222.82,38.71c-4.73,0-6.35-4.45-6.35-10.1,0-6.29,2-11.3,6.49-11.3,5.08,0,6.22,8.55,6.22,11.1,0,7.83-2.83,10.3-6.33,10.3m.06-2.77c1.36,0,1.86-2.42,1.86-7.43,0-4.71-.44-7.43-1.86-7.43s-2.08,2.35-2.05,7.43c.03,5.08,.58,7.43,2,7.43h.05Z"/></svg>