<?xml version="1.0" encoding="UTF-8"?><svg id="a" xmlns="http://www.w3.org/2000/svg" xmlns:xlink="http://www.w3.org/1999/xlink" viewBox="0 0 436.74 431.22"><defs><style>.d,.e{fill:none;}.f{fill:#fff;}.g{fill:#bb8760;}.h{fill:#272425;}.i{clip-path:url(#c);}.j{clip-path:url(#b);}.e{stroke:#fff;stroke-width:6.63px;}</style><clipPath id="b"><rect class="d" x="84.46" width="255.01" height="429.41"/></clipPath><clipPath id="c"><rect class="d" x="84.46" width="255.01" height="429.41"/></clipPath></defs><rect class="g" y="1.81" width="436.74" height="429.41"/><rect class="e" x="114.39" y="29.98" width="195.15" height="67.65"/><polygon class="h" points="265.38 42.01 265.38 64.71 258.25 42.01 251.2 42.01 251.2 83.64 258.25 83.64 258.25 63.24 264.62 83.64 272.43 83.64 272.43 42.01 265.38 42.01"/><polygon class="h" points="134.63 42.01 128.16 42.01 127.58 42.01 127.58 83.64 134.63 83.64 134.63 65.79 141.16 65.79 141.16 58.74 134.63 58.74 134.63 49.06 144.77 49.06 144.77 42.01 134.63 42.01"/><polygon class="h" points="219.14 42.01 199.6 42.01 199.6 49.06 205.84 49.06 205.84 83.64 212.89 83.64 212.89 49.06 219.14 49.06 219.14 42.01"/><polygon class="h" points="279.33 42.01 279.33 83.64 296.53 83.64 296.53 76.59 286.39 76.59 286.39 65.79 292.92 65.79 292.92 58.74 286.39 58.74 286.39 49.06 296.53 49.06 296.53 42.01 279.33 42.01"/><g class="j"><path class="h" d="M196.37,83.64h-7.28l-5.21-19.76s4.48-.81,4.48-5.58v-6.5c0-1.51-1.22-2.73-2.73-2.73h-2.71v34.57h-7.05V42.01h9.76c5.26,0,9.53,4.15,9.76,9.35h.02v6.8h-.02c0,4.11-1.34,7.07-3.8,8.96l4.79,16.51Z"/><path class="h" d="M237.47,42.01v32.43c0,1.51-1.23,2.74-2.74,2.74s-2.74-1.22-2.74-2.74V42.01h-7.05v32.43c0,5.4,4.38,9.79,9.79,9.79s9.79-4.38,9.79-9.79V42.01h-7.05Z"/><path class="h" d="M149.32,51.21v23.23c0,5.4,4.38,9.79,9.79,9.79s9.79-4.38,9.79-9.79v-23.23c0-5.4-4.38-9.78-9.78-9.78h0c-5.4,0-9.79,4.38-9.79,9.79m7.05,23.23v-23.23c0-1.51,1.22-2.74,2.74-2.74h0c1.51,0,2.73,1.22,2.73,2.73v23.23c0,1.51-1.22,2.74-2.74,2.74s-2.74-1.23-2.74-2.74"/><path class="f" d="M261.11,170.99c0-26.97-21.86-48.82-48.82-48.82s-48.82,21.86-48.82,48.82,21.86,48.82,48.82,48.82,48.82-21.86,48.82-48.82"/><path class="h" d="M212.29,125.03c-25.34,0-45.97,20.62-45.97,45.97s20.63,45.96,45.97,45.96,45.96-20.62,45.96-45.96-20.62-45.97-45.96-45.97m0,97.64c-28.5,0-51.68-23.18-51.68-51.67s23.18-51.68,51.68-51.68,51.67,23.18,51.67,51.68-23.18,51.67-51.67,51.67"/></g><polygon class="f" points="238.57 272.04 212.16 247.95 185.75 272.04 185.75 179.62 238.57 179.62 238.57 272.04"/><path class="h" d="M188.6,182.47v83.09l23.56-21.48,23.56,21.48v-83.09h-47.12Zm52.83,96.03l-29.27-26.69-29.27,26.69v-101.74h58.54v101.74Z"/><polygon class="f" points="212.29 97.93 228.69 148.41 281.78 148.41 238.83 179.62 255.24 230.1 212.29 198.9 169.34 230.1 185.75 179.62 142.8 148.41 195.88 148.41 212.29 97.93"/><path class="h" d="M151.59,151.27l37.51,27.25-14.33,44.11,37.51-27.26,37.52,27.26-14.33-44.11,37.51-27.25h-46.37l-14.33-44.1-14.33,44.1h-46.37Zm109.08,86.31l-48.38-35.14-48.37,35.14,18.47-56.87-48.38-35.15h59.8l18.48-56.88,18.48,56.88h59.8l-48.38,35.15,18.48,56.87Z"/><rect class="h" x="209.31" y="202.02" width="5.71" height="45.93"/><rect class="h" x="219.82" y="150.08" width="11.17" height="5.71" transform="translate(-30.83 245.35) rotate(-53.99)"/><rect class="h" x="196.32" y="147.35" width="5.71" height="11.17" transform="translate(-51.85 146.27) rotate(-36)"/><rect class="h" x="209.43" y="188.55" width="5.71" height="10.36"/><rect class="h" x="230.78" y="172.8" width="5.71" height="10.39" transform="translate(-8.3 344.53) rotate(-71.84)"/><rect class="h" x="185.75" y="175.14" width="10.4" height="5.71" transform="translate(-46.04 68.54) rotate(-18.2)"/><g><path class="f" d="M123.2,348.01h6.45c3.42,0,4.87,1.54,4.87,3.78v.08c0,1.62-.83,2.69-2.45,3.11,1.78,.3,2.89,1.37,2.89,3.38v.08c0,2.59-1.68,4.02-5.26,4.02h-6.51v-14.46Zm5.62,5.74c1.29,0,1.78-.45,1.78-1.48v-.08c0-.99-.53-1.44-1.78-1.44h-1.58v2.99h1.58Zm.14,5.94c1.31,0,1.92-.61,1.92-1.68v-.08c0-1.09-.59-1.66-2.04-1.66h-1.6v3.42h1.72Z"/><path class="f" d="M137.01,348.01h9.99v3.19h-5.86v2.49h4.67v2.95h-4.67v2.63h6.19v3.19h-10.31v-14.46Z"/><path class="f" d="M148.6,357.88h3.94c.1,1.03,.57,1.88,2.29,1.88,1.19,0,1.86-.59,1.86-1.44s-.55-1.13-2.28-1.4c-4.08-.49-5.46-1.7-5.46-4.61,0-2.61,2.14-4.51,5.6-4.51s5.44,1.46,5.7,4.51h-3.84c-.14-1.03-.73-1.56-1.86-1.56s-1.68,.5-1.68,1.23c0,.81,.44,1.17,2.24,1.41,3.66,.4,5.54,1.35,5.54,4.49,0,2.65-2.1,4.81-5.82,4.81-4.04,0-6.11-1.7-6.23-4.83Z"/><path class="f" d="M165.12,351.21h-3.74v-3.19h11.65v3.19h-3.74v11.26h-4.16v-11.26Z"/><path class="f" d="M178.16,355.33v-.16c0-4.45,3.15-7.38,7.38-7.38,3.76,0,6.37,1.74,6.71,5.56h-4.27c-.16-1.48-.97-2.29-2.43-2.29-1.86,0-3.03,1.46-3.03,4.08v.16c0,2.61,1.11,4.08,3.09,4.08,1.46,0,2.49-.77,2.69-2.37h4.13c-.28,3.74-2.99,5.68-6.73,5.68-5.05,0-7.54-2.95-7.54-7.38Z"/><path class="f" d="M193.56,355.33v-.16c0-4.41,3.32-7.36,7.64-7.36s7.66,2.77,7.66,7.26v.16c0,4.45-3.05,7.48-7.72,7.48s-7.58-3.03-7.58-7.38Zm10.98-.04v-.16c0-2.57-1.29-4.08-3.34-4.08s-3.32,1.48-3.32,4.1v.16c0,2.63,1.33,4.14,3.34,4.14s3.32-1.58,3.32-4.16Z"/><path class="f" d="M210.97,348.01h5.4l2.77,7.7,2.77-7.7h5.3v14.46h-4.12v-9l-3.54,9h-1.37l-3.5-9v9h-3.7v-14.46Z"/><path class="f" d="M230.1,348.01h5.5c3.96,0,5.8,1.76,5.8,4.83v.08c0,3.03-2.04,4.67-5.62,4.67h-1.56v4.87h-4.12v-14.46Zm5.32,6.75c1.33,0,2.04-.63,2.04-1.82v-.08c0-1.23-.73-1.74-2.02-1.74h-1.21v3.64h1.19Z"/><path class="f" d="M245.87,348.01h5.36l4.59,14.46h-4.39l-.77-2.69h-4.79l-.77,2.69h-3.86l4.63-14.46Zm.81,8.92h3.17l-1.58-5.56-1.6,5.56Z"/><path class="f" d="M257.56,348.01h4.67l4.63,8.15v-8.15h3.62v14.46h-4l-5.28-9.08v9.08h-3.64v-14.46Z"/><path class="f" d="M273.41,348.01h4.19v14.46h-4.19v-14.46Z"/><path class="f" d="M280.52,348.01h9.99v3.19h-5.86v2.49h4.67v2.95h-4.67v2.63h6.19v3.19h-10.31v-14.46Z"/><path class="f" d="M292.11,357.88h3.94c.1,1.03,.57,1.88,2.29,1.88,1.19,0,1.86-.59,1.86-1.44s-.55-1.13-2.28-1.4c-4.08-.49-5.46-1.7-5.46-4.61,0-2.61,2.14-4.51,5.6-4.51s5.44,1.46,5.7,4.51h-3.84c-.14-1.03-.73-1.56-1.86-1.56s-1.68,.5-1.68,1.23c0,.81,.44,1.17,2.24,1.41,3.66,.4,5.54,1.35,5.54,4.49,0,2.65-2.1,4.81-5.82,4.81-4.04,0-6.11-1.7-6.23-4.83Z"/></g><g><path class="f" d="M119.46,379.23h-3.74v-3.19h11.65v3.19h-3.74v11.26h-4.16v-11.26Z"/><path class="f" d="M127.99,383.36v-.16c0-4.41,3.32-7.36,7.64-7.36s7.66,2.77,7.66,7.26v.16c0,4.45-3.05,7.48-7.72,7.48s-7.58-3.03-7.58-7.38Zm10.98-.04v-.16c0-2.57-1.29-4.08-3.34-4.08s-3.32,1.48-3.32,4.1v.16c0,2.63,1.33,4.14,3.34,4.14s3.32-1.58,3.32-4.17Z"/><path class="f" d="M148.27,376.04h4.18l1.86,9.02,1.94-9.02h3.68l2.1,9.1,1.96-9.1h3.84l-3.38,14.46h-4.33l-2.22-9.18-2.24,9.18h-4.04l-3.36-14.46Z"/><path class="f" d="M168.35,383.36v-.16c0-4.41,3.32-7.36,7.64-7.36s7.66,2.77,7.66,7.26v.16c0,4.45-3.05,7.48-7.72,7.48s-7.58-3.03-7.58-7.38Zm10.98-.04v-.16c0-2.57-1.29-4.08-3.34-4.08s-3.32,1.48-3.32,4.1v.16c0,2.63,1.33,4.14,3.34,4.14s3.32-1.58,3.32-4.17Z"/><path class="f" d="M185.76,376.04h5.66c3.78,0,5.88,1.54,5.88,4.59v.08c0,2.06-1.09,3.21-2.61,3.8l3.46,5.98h-4.37l-2.93-5.18h-.97v5.18h-4.12v-14.46Zm5.46,6.59c1.4,0,2.08-.59,2.08-1.76v-.08c0-1.17-.73-1.64-2.06-1.64h-1.35v3.48h1.33Z"/><path class="f" d="M199.91,376.04h4.16v5.72l4.35-5.72h4.33l-5.3,6.71,5.58,7.74h-4.79l-4.16-6.04v6.04h-4.16v-14.46Z"/><path class="f" d="M218.63,376.04h9.76v3.21h-5.6v3.07h4.47v3.05h-4.47v5.12h-4.16v-14.46Z"/><path class="f" d="M229.47,383.36v-.16c0-4.41,3.32-7.36,7.64-7.36s7.66,2.77,7.66,7.26v.16c0,4.45-3.05,7.48-7.72,7.48s-7.58-3.03-7.58-7.38Zm10.98-.04v-.16c0-2.57-1.29-4.08-3.34-4.08s-3.32,1.48-3.32,4.1v.16c0,2.63,1.33,4.14,3.34,4.14s3.32-1.58,3.32-4.17Z"/><path class="f" d="M246.88,376.04h5.66c3.78,0,5.88,1.54,5.88,4.59v.08c0,2.06-1.09,3.21-2.61,3.8l3.46,5.98h-4.37l-2.93-5.18h-.97v5.18h-4.12v-14.46Zm5.46,6.59c1.4,0,2.08-.59,2.08-1.76v-.08c0-1.17-.73-1.64-2.06-1.64h-1.35v3.48h1.33Z"/></g><rect class="f" x="112.61" y="367.57" width="199.36" height="1.62"/><rect class="d" x="112.61" y="367.57" width="199.36" height="1.62"/><g class="i"><path class="f" d="M274.91,322.61c-9.58,0-13.39-5.5-13.39-17.56v-2.7c0-11.97,3.81-17.56,13.16-17.56s13.05,5.6,13.05,17.66v2.51c0,11.97-3.58,17.66-12.82,17.66m-.81,16.89c24.13,0,39.61-12.74,39.61-34.94v-2.61c0-22.87-17.2-33.78-39.14-33.78s-39.03,12.16-39.03,34.26v2.7c0,22,14.78,34.36,38.57,34.36m-80.6-16.89c-9.58,0-13.39-5.5-13.39-17.56v-2.7c0-11.97,3.81-17.56,13.16-17.56s13.05,5.6,13.05,17.66v2.51c0,11.97-3.58,17.66-12.82,17.66m-.81,16.89c24.13,0,39.61-12.74,39.61-34.94v-2.61c0-22.87-17.2-33.78-39.14-33.78s-39.03,12.16-39.03,34.26v2.7c0,22,14.78,34.36,38.57,34.36m-67.66-1.25h26.21v-69h-22.52l-18.94,11v18.14l15.24-7.62v47.48Z"/></g><g><path class="f" d="M267.36,390.33l5.68-5.98c1.3-1.38,2.06-2.68,2.06-4.14,0-1.6-.94-2.56-2.56-2.56s-2.74,.94-3.02,3.18h-1.62c.22-2.8,1.92-4.58,4.64-4.58s4.32,1.56,4.32,4.02c0,1.76-1.12,3.48-2.88,5.2l-3.94,3.84h6.9v1.42h-9.58v-.4Z"/><path class="f" d="M278.62,383.99v-.8c0-4.22,2.14-6.94,5.64-6.94s5.58,2.82,5.58,6.9v.8c0,4.16-2.02,6.96-5.54,6.96s-5.68-2.76-5.68-6.92Zm9.46-.06v-.8c0-3.32-1.4-5.48-3.82-5.48s-3.86,2-3.86,5.52v.8c0,3.62,1.52,5.5,3.9,5.5,2.5,0,3.78-1.92,3.78-5.54Z"/><path class="f" d="M290.88,390.33l5.68-5.98c1.3-1.38,2.06-2.68,2.06-4.14,0-1.6-.94-2.56-2.56-2.56s-2.74,.94-3.02,3.18h-1.62c.22-2.8,1.92-4.58,4.64-4.58s4.32,1.56,4.32,4.02c0,1.76-1.12,3.48-2.88,5.2l-3.94,3.84h6.9v1.42h-9.58v-.4Z"/><path class="f" d="M302.1,390.33l5.68-5.98c1.3-1.38,2.06-2.68,2.06-4.14,0-1.6-.94-2.56-2.56-2.56s-2.74,.94-3.02,3.18h-1.62c.22-2.8,1.92-4.58,4.64-4.58s4.32,1.56,4.32,4.02c0,1.76-1.12,3.48-2.88,5.2l-3.94,3.84h6.9v1.42h-9.58v-.4Z"/></g><path class="f" d="M263.81,378.26c0,1.12-.88,1.99-2.01,1.99s-2.03-.88-2.03-1.99,.9-1.97,2.03-1.97,2.01,.88,2.01,1.97Zm-3.54,0c0,.88,.65,1.57,1.54,1.57s1.5-.7,1.5-1.56-.63-1.58-1.51-1.58-1.52,.71-1.52,1.57Zm1.21,1.03h-.46v-1.97c.18-.04,.43-.06,.76-.06,.37,0,.54,.06,.68,.14,.11,.08,.19,.24,.19,.43,0,.22-.17,.38-.41,.46v.02c.19,.07,.3,.22,.36,.48,.06,.3,.1,.42,.14,.49h-.49c-.06-.07-.1-.25-.16-.48-.04-.22-.16-.31-.41-.31h-.22v.79Zm.01-1.12h.22c.25,0,.46-.08,.46-.29,0-.18-.13-.3-.42-.3-.12,0-.2,.01-.25,.02v.56Z"/><rect class="f" x="112.61" y="396.67" width="199.36" height="1.62"/></svg>