<?xml version="1.0" encoding="UTF-8"?><svg id="a" xmlns="http://www.w3.org/2000/svg" viewBox="0 0 299.81 259"><defs><style>.b{fill:#f3f3f3;}.c{fill:#bb8760;}</style></defs><polyline class="c" points="24.31 104.3 20.11 73.5 19.51 66.7 19.11 66.7 18.51 73.5 14.31 104.3 8.31 104.3 .81 56.6 6.71 56.6 10.61 87.8 11.11 94.6 11.61 94.6 12.31 87.8 16.31 56.6 22.31 56.6 26.21 87.8 27.01 94.6 27.41 94.6 27.91 87.8 31.81 56.6 37.81 56.6 30.31 104.3"/><path class="c" d="M49.21,104.4c-2,.1-4-.6-5.4-2s-2.1-3.3-2-5.2V63.6c-.1-1.9,.7-3.8,2-5.1,1.4-1.4,3.4-2.2,5.4-2.1h5.6c2-.1,4,.6,5.4,2,1.4,1.3,2.2,3.2,2.1,5.2v33.5c.1,1.9-.6,3.8-2.1,5.2-1.4,1.4-3.4,2.1-5.4,2m1.8-40.2c0-1.5-1.1-2.7-3.1-2.7h-3c-1.9,0-3,1.1-3,2.7v32.5c0,1.6,1.1,2.7,3,2.7h3c2,0,3.1-1.1,3.1-2.7v-32.5Z"/><path class="c" d="M85.31,104.3l-6.2-21.8h-4.5v21.7h-5.6V56.6h13.6c1.8,0,3.6,.7,4.9,2,1.3,1.4,2.1,3.2,2,5.1v10.8c.1,1.9-.7,3.8-2,5.2-.8,.7-1.8,1.3-2.9,1.6l6.8,23m-7.6-40c0-1.4-1.1-2.6-2.5-2.7h-6.6v15.9h6.4c1.5,.1,2.7-1.1,2.8-2.6h0v-.2l-.1-10.4Z"/><polyline class="c" points="96.31 104.3 96.31 56.6 102.01 56.6 102.01 99.2 112.71 99.2 112.71 104.3"/><path class="c" d="M116.51,104.3V56.6h13.6c3.8,0,6.9,3,6.9,6.8v33.7c.1,2-.7,3.9-2.2,5.3-1.3,1.2-3,1.8-4.7,1.8m1.3-39.9c0-1.4-1.1-2.6-2.5-2.7h-6.7v37.6h6.4c1.4,.1,2.6-1,2.7-2.5h0v-.2l.1-32.2Z"/><path class="c" d="M141.41,66.3c1.6,0,1.9-.5,1.9-2v-2h-.8c-.8,0-1.1-.3-1.1-1.2v-4.5h5.2v8.3c0,3-1.7,4.3-5.2,4.3"/><path class="c" d="M157.81,104.4c-2,.1-3.9-.6-5.4-2-1.4-1.4-2.2-3.3-2.1-5.2v-6.2h5.6v5.7c0,1.6,1.1,2.7,3,2.7h3.1c1.9,0,3-1.1,3-2.7v-7.5c.1-2.1-1-4-2.9-4.9l-5.2-3.6c-3.6-2.4-6.6-4.7-6.6-9.4v-7.6c-.1-1.9,.6-3.8,2.1-5.2,1.4-1.4,3.4-2.1,5.4-2h5.7c2-.1,3.9,.7,5.3,2.1,1.4,1.3,2.1,3.2,2,5.1v6.3h-5.7v-5.7c0-1.5-1.2-2.7-2.6-2.7h-3.4c-1.9,0-3.1,1.1-3.1,2.7v5.9c-.1,2.1,.9,4,2.7,5l5.2,3.3c3.6,2.3,6.8,4.9,6.8,9.7v9.1c.1,1.9-.7,3.8-2.1,5.2-1.4,1.4-3.4,2.1-5.4,2"/><polyline class="c" points="211.21 104.3 211.21 76.9 211.61 66 211.21 66 208.81 77.7 204.11 97.8 199.01 97.8 194.21 77.7 191.71 66 191.31 66 191.71 76.9 191.71 104.3 186.31 104.3 186.31 56.6 194.11 56.6 200.01 81.7 201.21 88.9 201.81 88.9 203.01 81.7 208.81 56.6 216.61 56.6 216.61 104.3"/><path class="c" d="M230.21,104.4c-2,.1-3.9-.6-5.4-2-1.4-1.4-2.1-3.3-2-5.2V63.6c-.1-1.9,.7-3.8,2-5.1,1.4-1.4,3.4-2.2,5.4-2.1h5.7c2-.1,3.9,.7,5.4,2,1.4,1.3,2.2,3.2,2.1,5.2v33.5c.1,1.9-.6,3.8-2.1,5.2-1.4,1.4-3.4,2.1-5.4,2m1.7-40.2c0-1.5-1.1-2.7-3.1-2.7h-3.1c-1.9,0-3,1.1-3,2.7v32.5c0,1.6,1.1,2.7,3,2.7h3.1c2,0,3.1-1.1,3.1-2.7v-32.5Z"/><path class="c" d="M256.71,104.4c-2,.1-4-.6-5.4-2s-2.1-3.3-2-5.2v-6.2h5.7v5.7c0,1.6,1.1,2.7,3,2.7h3.1c1.9,0,3-1.1,3-2.7v-7.5c.1-2.1-1-4-2.9-4.9l-5.3-3.6c-3.6-2.4-6.6-4.7-6.6-9.4v-7.7c-.1-1.9,.6-3.8,2.1-5.2,1.4-1.4,3.4-2.2,5.4-2h5.7c2-.1,3.9,.7,5.3,2.1,1.4,1.3,2.1,3.2,2,5.1v6.3h-5.7v-5.7c0-1.5-1.2-2.7-2.6-2.7h-3.4c-1.9,0-3.1,1.1-3.1,2.7v5.9c-.1,2.1,.9,4,2.7,5l5.2,3.3c3.6,2.3,6.7,4.9,6.7,9.7v9.1c.1,1.9-.6,3.8-2,5.2-1.4,1.4-3.4,2.1-5.4,2"/><polyline class="c" points="279.51 104.3 279.51 61.7 272.41 61.7 272.41 56.6 292.31 56.6 292.31 61.7 285.11 61.7 285.11 104.3"/><path class="c" d="M31.91,192.1l-2.4-14.9H13.31l-2.3,14.9H.61L15.71,108.4h11.5l15,83.7m-19.2-57.4l-1.2-12.1h-.7l-1.2,12.1-5.2,33.5h13.5l-5.2-33.5Z"/><path class="c" d="M48.71,192.1V108.4h23.8c3.3,0,6.4,1.3,8.7,3.7,2.3,2.4,3.5,5.6,3.4,8.8v58.6c.2,3.5-1.2,6.9-3.8,9.3-2.2,2.1-5.2,3.2-8.3,3.2m2.1-69.9c.1-2.5-1.9-4.6-4.4-4.7h-11.6v65.9h11.3c2.5,.1,4.6-1.8,4.8-4.3h0v-56.9h-.1Z"/><polyline class="c" points="137.01 192.1 137.01 144 137.81 125 137.01 125 132.71 145.6 124.51 180.7 115.51 180.7 107.21 145.6 102.81 125 102.11 125 102.81 144 102.81 192.1 93.41 192.1 93.41 108.4 107.01 108.4 117.41 152.5 119.51 165.2 120.51 165.2 122.61 152.5 132.91 108.4 146.51 108.4 146.51 192.1"/><rect class="c" x="156.31" y="108.4" width="9.9" height="83.7"/><path class="c" d="M204.51,192.1l-10.9-38.1h-7.9v38.1h-9.9V108.4h23.8c3.2,0,6.3,1.3,8.6,3.6s3.6,5.6,3.5,9v19c.1,3.4-1.1,6.7-3.5,9.1-1.5,1.3-3.2,2.2-5.1,2.7l12,40.3m-13.4-70c.1-2.5-1.9-4.6-4.4-4.7h-11.7v27.7h11.1c2.6,.1,4.8-1.9,4.9-4.5v-.2l.1-18.3Z"/><polyline class="c" points="221.31 192.1 221.31 108.4 250.01 108.4 250.01 117.4 231.21 117.4 231.21 144.6 246.71 144.6 246.71 153.5 231.21 153.5 231.21 183.2 250.01 183.2 250.01 192.1"/><path class="c" d="M256.51,192.1V108.4h23.8c3.3,0,6.4,1.3,8.7,3.7,2.3,2.3,3.5,5.6,3.4,8.8v58.6c.3,6.7-4.9,12.3-11.6,12.5h-.5m2.1-70c.1-2.5-1.9-4.6-4.5-4.7h-11.6v65.9h11.2c2.5,.1,4.7-1.8,4.8-4.4l.1-56.8h0Z"/><path class="b" d="M81.61,51.4h22.3v-1.3l-7.2-.3V26.7h4.5c5.7,0,7.4,.9,8.4,7.8l2.6,17h13.7v-1.4l-6.3-.3-2.6-16.1c-.9-5.9-4.3-7.3-9.9-7.8,7.1-1.2,11.6-4.8,11.6-12.8S116.11,.5,102.81,.5h-21.4V1.8l7.5,.3V49.7l-7.4,.3m104.8,1.7c12.6,0,14.8-5.7,14.8-11.8V2.5l6.6-.7V.5h-15V1.8l6.1,.7V39.9c0,6.3-3.1,8.9-9.8,8.9-9.5,0-11.2-3.2-11.2-9.3V2.1l7.7-.3V.5h-22.5V1.8l6.7,.3V38.5c.1,9.2,5.1,13.2,16.6,13.2m68.7-.3h35.8l1.4-19h-1.4l-6.1,17.4-14.2,.1V25.1h8.2l.9,10.6h1.4V13.6h-1.4l-.9,10h-8.2V2.1h14.2l4.8,15.5h1.4l-.4-17.1h-35.5V1.8l7.5,.3V49.7l-7.5,.3v1.4ZM.71,51.4H24.21v-1.3l-8.1-.3V25.1h8.2l1.1,10.6h1.4V13.6h-1.4l-1.1,10h-8.2V2.1h13.7l5.1,15.8h1.4l-.4-17.4H.71V1.8l7.5,.3V49.7l-7.5,.3v1.4Zm244.4,.2h1.3V2.5l7.2-.7V.5h-16.5V1.8l7.2,.7V35.4L222.91,.5h-13.6V1.8l5.3,.7,.9,1.4V49.3l-7.5,.7v1.3h16.9v-1.3l-7.2-.7V7.4l27.4,44.2Zm-113.7-.2h23.4v-1.3l-7.7-.4V2.1h8.4l5.1,15.8h1.4l-.5-17.4h-36.8l-.6,17.4h1.5l5.2-15.8h8.4V49.7l-7.9,.4,.1,1.3Zm-71.1,.3c14.4,0,20.4-10.9,20.4-26.3S74.91,0,60.51,0s-20.5,10.8-20.5,26.1c0,15.1,5.8,25.6,20.3,25.6m.4-1.6c-9.2,0-12.1-5.9-12.1-24.4S51.31,1.6,60.31,1.6s11.9,5.9,11.9,24-2.7,24.5-11.5,24.5m36-25V2.1h5.6c7,0,8.8,4.1,8.8,10.9,0,7.3-1.1,12-8.8,12l-5.6,.1Z"/><path class="c" d="M8.91,256.1c-2.3,.1-4.5-.7-6.2-2.3C.91,252.1,0,249.8,0,247.4v-40.5c-.1-2.3,.8-4.5,2.3-6.1,1.7-1.8,4.1-2.7,6.6-2.6h6.8c2.5-.1,4.9,.9,6.7,2.6,1.6,1.6,2.4,3.8,2.3,6.1v7.6h-6.8v-7c0-1.8-1.4-3.2-3.7-3.2h-3.7c-2.3,0-3.7,1.3-3.7,3.2v39.2c0,1.9,1.4,3.2,3.7,3.2h3.7c2.3,0,3.7-1.3,3.7-3.2v-6.8h6.8v7.5c.1,2.4-.8,4.7-2.5,6.3-1.7,1.6-4.1,2.5-6.4,2.4"/><path class="c" d="M37.61,256.1c-2.4,.1-4.7-.8-6.5-2.5-1.6-1.7-2.5-3.9-2.4-6.3v-40.5c-.1-2.3,.8-4.5,2.4-6.2,1.7-1.7,4.1-2.7,6.5-2.6h6.8c2.4-.1,4.8,.8,6.5,2.5,1.7,1.6,2.6,3.9,2.5,6.3v40.5c.1,2.3-.8,4.6-2.5,6.3-1.7,1.7-4.1,2.6-6.5,2.5m2.2-48.6c0-1.8-1.3-3.2-3.7-3.2h-3.7c-2.3,0-3.7,1.3-3.7,3.2v39.2c0,1.9,1.3,3.2,3.7,3.2h3.7c2.4,0,3.7-1.3,3.7-3.2v-39.2Z"/><polyline class="c" points="88.41 255.9 88.41 222.8 88.81 209.7 88.41 209.7 85.41 223.9 79.71 248.1 73.61 248.1 67.81 223.9 64.81 209.7 64.31 209.7 64.81 222.8 64.81 255.9 58.31 255.9 58.31 198.2 67.71 198.2 74.91 228.6 76.31 237.4 77.01 237.4 78.41 228.6 85.51 198.2 94.91 198.2 94.91 255.9"/><path class="c" d="M100.41,255.9v-57.7h16.4c2.2,0,4.4,.9,6,2.5s2.5,3.9,2.4,6.2v14.1c.1,2.4-.8,4.7-2.4,6.3-1.6,1.5-3.7,2.3-5.9,2.3h-9.5v26.3m10.9-48.2c.1-1.7-1.3-3.1-3-3.2h-8v19.1h7.6c1.8,.1,3.3-1.3,3.4-3.1h0v-12.8Z"/><path class="c" d="M144.21,255.9l-1.6-10.3h-11.1l-1.5,10.3h-7.2l10.4-57.7h7.9l10.3,57.7m-13.3-39.5l-.8-8.4h-.5l-.8,8.3-3.7,23.1h9.3l-3.5-23Z"/><polyline class="c" points="174.11 255.9 162.71 219.5 160.51 211 159.91 211 161.01 236.7 161.01 255.9 154.21 255.9 154.21 198.2 161.71 198.2 173.11 234.6 175.31 243.1 175.81 243.1 174.71 219.3 174.71 198.2 181.51 198.2 181.51 255.9"/><rect class="c" x="188.11" y="198.2" width="6.8" height="57.7"/><polyline class="c" points="202.01 255.9 202.01 198.2 221.71 198.2 221.71 204.4 208.81 204.4 208.81 223.2 219.41 223.2 219.41 229.3 208.81 229.3 208.81 249.8 221.71 249.8 221.71 255.9"/><path class="c" d="M233.31,256.1c-2.4,.1-4.8-.7-6.5-2.4-1.7-1.7-2.6-4-2.4-6.3v-7.5h6.8v6.8c0,1.9,1.4,3.2,3.6,3.2h3.8c2.2,0,3.6-1.3,3.6-3.2v-9.1c0-3.1-1.4-4.6-3.5-5.9l-6.4-4.3c-4.4-2.9-7.9-5.7-7.9-11.4v-9.2c-.2-2.3,.8-4.6,2.5-6.3s4.1-2.6,6.5-2.5h6.9c2.4-.1,4.7,.9,6.4,2.6,1.6,1.6,2.5,3.9,2.4,6.2v7.6h-6.8v-6.9c0-1.9-1.4-3.2-3.6-3.2h-3.7c-2.3,0-3.7,1.3-3.7,3.2v7.2c-.1,2.5,1.1,4.8,3.3,6l6.3,4c4.4,2.8,8.2,5.9,8.2,11.7v11c.1,2.3-.8,4.6-2.4,6.3-1.8,1.7-4.1,2.6-6.6,2.5"/><path class="c" d="M249.61,200.4c0-2.3,1.9-4.1,4.1-4.1s4.1,1.9,4.1,4.1-1.8,4.1-4.1,4.1-4.1-1.8-4.1-4.1h0m7.6,0c0-1.9-1.5-3.5-3.5-3.5s-3.5,1.5-3.5,3.4,1.5,3.5,3.4,3.5h0c1.8,.1,3.4-1.3,3.5-3.2l.1-.2m-4.4,2.3h-.6v-4.7h2c1.2,0,1.6,.5,1.6,1.3s-.6,1.2-1.4,1.3l1.4,2.1h-.7l-1.3-2.1h-1v2.1Zm.8-2.6c.7,0,1.6,.1,1.6-.8,0-.7-.6-.7-1.1-.7h-1.2v1.5h.7Z"/><path class="b" d="M291.81,259h-5.8c-3.5,0-5-2.2-6.7-4.4l-2.3-3.2c-.7-1.2-2-1.9-3.4-1.9h-4c-1,0-1.8,.8-1.8,1.8v1.9c-.1,1,.5,1.8,1.5,2h4.1v3.8h-4.2c-1.3,0-2.5-.4-3.4-1.3-.9-1-1.4-2.3-1.4-3.6v-3.4c-.1-1.4,.5-2.7,1.5-3.7,.9-.9,2.1-1.3,3.4-1.3h5c3.4,0,4.8,2.1,6.5,4.4l2.4,3.2c.7,1.2,2,1.9,3.3,1.9h2v-9.5h3.3"/><path class="b" d="M291.91,237.1c0,1.3-.4,2.5-1.3,3.5s-2.2,1.5-3.5,1.4h-17.7c-1.3,.1-2.5-.4-3.5-1.3-.9-1-1.4-2.3-1.3-3.6v-3.4c-.1-1.4,.4-2.7,1.4-3.6,.9-.9,2.1-1.4,3.4-1.3h17.7c1.3-.1,2.6,.5,3.5,1.4,.9,1,1.4,2.2,1.3,3.5m-22.2-1.1c-1,0-1.8,.8-1.8,1.7h0v1.9c-.1,1,.5,1.9,1.5,2h17.3c1,0,1.8-.7,1.8-1.7h0v-2c.1-1-.5-1.9-1.5-2h-17.3v.1Z"/><path class="b" d="M291.81,225h-5.8c-3.5,0-5-2.2-6.7-4.4l-2.3-3.2c-.7-1.2-2-1.9-3.4-1.9h-4c-1,0-1.8,.8-1.8,1.8v1.9c-.1,1,.5,1.8,1.5,2h4.1v3.8h-4.2c-1.3,.1-2.5-.4-3.4-1.3-.9-1-1.4-2.3-1.4-3.6v-3.4c-.1-1.4,.5-2.7,1.4-3.7,.9-.9,2.1-1.3,3.4-1.3h5c3.4,0,4.8,2.1,6.5,4.4l2.4,3.2c.7,1.2,2,1.9,3.3,1.9h2v-9.5h3.3"/><path class="b" d="M291.81,4.1c.1-2.2,1.9-4,4.1-3.9s4,1.9,3.9,4.1c-.1,2.1-1.8,3.8-3.9,3.9-2.2,0-4.1-1.8-4.1-4.1m7.5,0c-.1-1.9-1.7-3.4-3.6-3.3s-3.4,1.7-3.3,3.6,1.7,3.4,3.6,3.3c1.8-.1,3.2-1.5,3.3-3.3v-.3m-4.3,2.3h-.6V1.7h2c1.2,0,1.6,.5,1.6,1.3s-.6,1.2-1.4,1.3l1.4,2.1h-.7l-1.3-2.1h-1v2.1Zm.9-2.6c.6,0,1.5,.1,1.5-.8,0-.6-.5-.7-1.1-.7h-1.3v1.5h.9Z"/><path class="b" d="M291.81,203.2c.1,1.3-.4,2.5-1.3,3.5-.9,.9-2.2,1.5-3.5,1.4h-17.7c-1.3,.1-2.5-.4-3.5-1.3-.9-1-1.4-2.2-1.3-3.6v-3.4c-.1-1.4,.4-2.7,1.4-3.6,.9-.9,2.1-1.4,3.4-1.3h17.7c1.3,0,2.6,.5,3.5,1.4,.9,1,1.4,2.2,1.3,3.5m-22.1-1.2c-1,0-1.8,.8-1.8,1.7h0v1.9c-.2,.9,.5,1.8,1.4,2h17.3c1,0,1.8-.7,1.8-1.7h0v-2c.1-1-.5-1.8-1.5-2h-17.2v.1Z"/></svg>