<?xml version="1.0" encoding="UTF-8"?><svg id="a" xmlns="http://www.w3.org/2000/svg" viewBox="0 0 36.73 54.87"><defs><style>.b,.c{fill:#010101;}.d{fill:#fff;}.c{font-family:AbrilDisplay-Black, Abril Display;font-size:5.32px;}</style></defs><g><rect class="d" width="36.73" height="54.87" rx="1.72" ry="1.72"/><g><path class="b" d="M11.36,7.24c0,.93-1.68,2.21-1.68,2.21,0,0-1.68-1.28-1.68-2.21s.75-1.68,1.68-1.68,1.68,.75,1.68,1.68Z"/><path class="b" d="M8.03,12.64c.94-1.12,1.23-2.4,1.64-3.3,.41,.92,.7,2.18,1.64,3.3-1.09-.34-2.19-.34-3.28,0Z"/><g><path class="b" d="M7.22,8.13c.92-.15,2.45,1.31,2.45,1.31,0,0-.99,1.87-1.91,2.02-.92,.15-1.78-.47-1.93-1.39-.15-.92,.47-1.78,1.39-1.93Z"/><path class="b" d="M12.12,8.13c-.92-.15-2.45,1.31-2.45,1.31,0,0,.99,1.87,1.91,2.02,.92,.15,1.78-.47,1.93-1.39,.15-.92-.47-1.78-1.39-1.93Z"/></g></g><g><path class="b" d="M25.42,47.38c0-.93,1.68-2.21,1.68-2.21,0,0,1.68,1.28,1.68,2.21s-.75,1.68-1.68,1.68-1.68-.75-1.68-1.68Z"/><path class="b" d="M28.75,41.99c-.94,1.12-1.24,2.4-1.64,3.3-.41-.92-.7-2.18-1.64-3.3,1.09,.34,2.19,.34,3.28,0Z"/><g><path class="b" d="M29.56,46.5c-.92,.15-2.45-1.31-2.45-1.31,0,0,.99-1.87,1.91-2.02,.92-.15,1.78,.47,1.93,1.39,.15,.92-.47,1.78-1.39,1.93Z"/><path class="b" d="M24.66,46.5c.92,.15,2.45-1.31,2.45-1.31,0,0-.99-1.87-1.91-2.02-.92-.15-1.78,.47-1.93,1.39-.15,.92,.47,1.78,1.39,1.93Z"/></g></g><g><path class="b" d="M3.72,10.53c0,.32-.57,.75-.57,.75,0,0-.57-.43-.57-.75s.26-.57,.57-.57,.57,.26,.57,.57Z"/><path class="b" d="M2.58,12.37c.32-.38,.42-.82,.56-1.13,.14,.31,.24,.74,.56,1.13-.37-.12-.75-.12-1.12,0Z"/><g><path class="b" d="M2.31,10.83c.31-.05,.83,.45,.83,.45,0,0-.34,.64-.65,.69-.31,.05-.61-.16-.66-.47-.05-.31,.16-.61,.47-.66Z"/><path class="b" d="M3.98,10.83c-.31-.05-.83,.45-.83,.45,0,0,.34,.64,.65,.69s.61-.16,.66-.47c.05-.31-.16-.61-.47-.66Z"/></g></g><g><path class="b" d="M33.06,44.09c0-.32,.57-.75,.57-.75,0,0,.58,.43,.58,.75s-.26,.57-.58,.57-.57-.26-.57-.57Z"/><path class="b" d="M34.19,42.25c-.32,.38-.42,.82-.56,1.13-.14-.31-.24-.74-.56-1.13,.37,.12,.75,.12,1.12,0Z"/><g><path class="b" d="M34.47,43.79c-.31,.05-.83-.45-.83-.45,0,0,.34-.64,.65-.69,.31-.05,.61,.16,.66,.47,.05,.31-.16,.61-.47,.66Z"/><path class="b" d="M32.8,43.79c.31,.05,.83-.45,.83-.45,0,0-.34-.64-.65-.69-.31-.05-.61,.16-.66,.47-.05,.31,.16,.61,.47,.66Z"/></g></g><path class="b" d="M31.54,4.56H5.18V50.07H31.6V4.56h-.06Zm-.06,.11V49.95H5.29V4.67H31.49Z"/></g><text class="c" transform="translate(1.35 9.54)"><tspan x="0" y="0">G</tspan></text><text class="c" transform="translate(35.44 45.18) rotate(-179.99)"><tspan x="0" y="0">G</tspan></text></svg>