<?xml version="1.0" encoding="UTF-8"?><svg id="a" xmlns="http://www.w3.org/2000/svg" viewBox="0 0 40.84 27.28"><defs><style>.b{fill:#fff;}</style></defs><path class="b" d="M19.14,18.04c0,2.54-.93,4.71-2.8,6.52-1.81,1.81-3.95,2.71-6.44,2.71-3.05,0-5.48-1.13-7.29-3.39-1.75-2.09-2.62-4.66-2.62-7.71C0,10.59,4.74,5.2,14.23,0l1.36,2.12c-3.22,2.66-4.83,4.8-4.83,6.44,0,.51,.68,1.02,2.03,1.53,2.03,.73,3.42,1.44,4.15,2.12,1.47,1.24,2.2,3.19,2.2,5.85Z"/><path class="b" d="M40.84,18.04c0,2.54-.85,4.71-2.54,6.52-1.81,1.81-3.98,2.71-6.52,2.71-3.05,0-5.48-1.13-7.29-3.39-1.81-2.09-2.71-4.66-2.71-7.71,0-5.59,4.74-10.98,14.23-16.18l1.53,2.12c-3.33,2.66-5,4.8-5,6.44,0,.51,.73,1.02,2.2,1.53,1.98,.73,3.33,1.44,4.07,2.12,1.36,1.24,2.03,3.19,2.03,5.85Z"/></svg>