<?xml version="1.0" encoding="UTF-8"?>
<svg id="a" xmlns="http://www.w3.org/2000/svg" viewBox="0 0 40.84 27.28"><Path d="M21.69,9.23c0-2.54,.93-4.71,2.8-6.52,1.81-1.81,3.95-2.71,6.44-2.71,3.05,0,5.48,1.13,7.29,3.39,1.75,2.09,2.62,4.66,2.62,7.71,0,5.59-4.74,10.98-14.23,16.18l-1.36-2.12c3.22-2.66,4.83-4.8,4.83-6.44,0-.51-.68-1.02-2.03-1.53-2.03-.73-3.42-1.44-4.15-2.12-1.47-1.24-2.2-3.19-2.2-5.85Z" /><Path d="M0,9.23C0,6.69,.85,4.52,2.54,2.71,4.35,.9,6.52,0,9.06,0c3.05,0,5.48,1.13,7.29,3.39,1.81,2.09,2.71,4.66,2.71,7.71,0,5.59-4.74,10.98-14.23,16.18l-1.53-2.12c3.33-2.66,5-4.8,5-6.44,0-.51-.73-1.02-2.2-1.53-1.98-.73-3.33-1.44-4.07-2.12-1.36-1.24-2.03-3.19-2.03-5.85Z" /></svg>